M48
INCH,TZ
T1C0.016
T2C0.020
T3C0.022
T4C0.024
T5C0.026
T6C0.028
T7C0.035
T8C0.035
T9C0.039
T10C0.039
T11C0.043
T12C0.052
T13C0.053
T14C0.059
T15C0.065
T16C0.071
T17C0.079
%
G90
G05
T1
X10594Y-36314
X11000Y-38400
X11890Y-38819
X12126Y-38274
X12200Y-36600
X13386Y-22165
X15249Y-40633
X15276Y-35669
X16299Y-36417
X17638Y-37953
X17776Y-36890
X18504Y-30354
X18957Y-36693
X19134Y-40236
X19180Y-37159
X19593Y-29488
X20079Y-27874
X20204Y-35220
X20352Y-40759
X21137Y-37850
X21260Y-45394
X21299Y-41772
X21400Y-36400
X21417Y-45906
X21457Y-29528
X21594Y-28031
X21654Y-42835
X21837Y-33602
X21969Y-40551
X22177Y-30980
X22205Y-32165
X22677Y-33661
X22717Y-32087
X23031Y-33071
X23307Y-33543
X23386Y-29016
X23388Y-42315
X23572Y-41966
X23612Y-43858
X23622Y-30512
X23661Y-32362
X23816Y-41657
X23898Y-44370
X24370Y-37126
X24449Y-30079
X25632Y-39126
X26299Y-47126
X26378Y-44843
X26535Y-41260
X26693Y-30974
X26713Y-38169
X27087Y-31260
X27151Y-33608
X27362Y-42835
X27400Y-32360
X27717Y-45787
X28150Y-32539
X28308Y-36682
X28332Y-42269
X28346Y-37087
X28465Y-33819
X29170Y-37059
X29173Y-33780
X29291Y-36726
X29483Y-35657
X29961Y-32480
X30512Y-33741
X30512Y-44803
X30551Y-36890
X30748Y-36575
X30801Y-33465
X31143Y-36447
X31339Y-34488
X32126Y-34650
X32126Y-34256
X32155Y-35042
X32205Y-35433
X32598Y-37953
X32621Y-38593
X33054Y-35060
X33100Y-33500
X33146Y-36700
X33228Y-32047
X33300Y-34500
X33346Y-40394
X33347Y-39921
X33386Y-38504
X33388Y-37088
X33400Y-35400
X33600Y-37300
X33808Y-33989
X33900Y-37300
X33937Y-41654
X34087Y-35001
X34110Y-36149
X34118Y-35765
X34129Y-36518
X34173Y-24724
X34207Y-14331
X34207Y-16693
X34209Y-32813
X34220Y-34189
X34347Y-35373
X34407Y-31221
X34502Y-35780
X34724Y-41378
X34780Y-32779
X34863Y-34982
X34878Y-35771
X34882Y-36575
X34909Y-37579
X34961Y-30079
X35015Y-40909
X35268Y-35777
X35415Y-35361
X35638Y-36524
X35643Y-35780
X35645Y-35001
X35669Y-36162
X35700Y-37100
X35709Y-41457
X36102Y-32756
X36142Y-19094
X36306Y-34606
X36315Y-34100
X36527Y-32799
X36535Y-30827
X36657Y-35279
X36850Y-33189
X37047Y-15472
X37047Y-17126
X37089Y-38789
X37112Y-47140
X37151Y-32741
X37292Y-40413
X37472Y-38881
X37480Y-26427
X37495Y-31078
X37577Y-40677
X37638Y-36654
X37676Y-36262
X37717Y-37225
X37756Y-34134
X37875Y-38169
X37925Y-31680
X37953Y-17559
X37953Y-40433
X37967Y-26993
X38076Y-31260
X38150Y-37244
X38457Y-34224
X38543Y-15000
X38543Y-15591
X38543Y-17047
X38740Y-21890
X38750Y-32007
X38780Y-33780
X38789Y-33219
X39134Y-28386
X39156Y-35682
X39200Y-33100
X39291Y-36260
X39306Y-34945
X39482Y-29954
X39488Y-32126
X39617Y-40938
X39646Y-36654
X39686Y-37045
X39900Y-33100
X40217Y-11201
X40434Y-34505
X40540Y-37300
X40717Y-38178
X40906Y-34488
X41123Y-36161
X41245Y-36818
X41260Y-26969
X41266Y-30738
X41378Y-34488
X41447Y-33381
X41614Y-31142
X41661Y-37976
X41850Y-34493
X42007Y-47141
X42008Y-16575
X42047Y-20236
X42500Y-33700
X42533Y-29895
X42677Y-18386
X42823Y-40961
X42953Y-30709
X42953Y-38801
X42991Y-37976
X43224Y-38530
X43229Y-33620
X43268Y-27549
X44094Y-21063
X44449Y-31181
X45276Y-32598
X45709Y-22441
X45709Y-46693
X45925Y-20354
X46122Y-17795
X47795Y-23701
X48583Y-27008
X49803Y-35236
X50089Y-37938
X50512Y-36693
X52598Y-30994
X52953Y-31348
X53307Y-31703
X53661Y-32047
X54016Y-32402
X64959Y-33059
X65354Y-33071
X65827Y-33661
X66850Y-29606
T4
X34134Y-10669
X34646Y-8701
T5
X30512Y-29157
X30512Y-29657
X30512Y-30157
X30512Y-30657
X30512Y-31157
X31012Y-29157
X31012Y-29657
X31012Y-30157
X31012Y-30657
X31012Y-31157
T6
X43314Y-44764
X43904Y-44764
X47540Y-44764
X48131Y-44764
X48780Y-23504
X49370Y-23504
T7
X17000Y-29250
X17000Y-30250
X17000Y-31250
X17000Y-32250
X18000Y-29750
X18000Y-30750
X18000Y-31750
X18000Y-32750
T8
X12000Y-24000
X12000Y-24984
T9
X10591Y-35512
X11500Y-43450
X14400Y-43000
X15119Y-25887
X16250Y-45400
X17166Y-14313
X17900Y-44900
X18050Y-45900
X18661Y-37677
X19000Y-44400
X19134Y-14313
X21181Y-25887
X22200Y-35079
X22598Y-36299
X23228Y-35669
X23669Y-25887
X24213Y-35079
X25716Y-14313
X25748Y-43583
X25950Y-44400
X25984Y-33346
X27008Y-29055
X27684Y-14313
X29488Y-31772
X29731Y-25887
X30150Y-41250
X31811Y-33780
X33150Y-32756
X33150Y-46000
X33425Y-43740
X34150Y-45200
X35300Y-21700
X36000Y-28000
X37100Y-21200
X37756Y-33504
X38850Y-13450
X40079Y-33661
X41102Y-32835
X41457Y-25079
X41900Y-45000
X42000Y-23700
X43450Y-29550
X44803Y-33740
X45276Y-35079
X45850Y-30250
X45900Y-31700
X45906Y-36063
X46250Y-45050
X46496Y-28661
X46850Y-25750
X47047Y-35472
X47950Y-29800
X49700Y-43307
X61000Y-10500
X61000Y-12500
X61900Y-46050
X65433Y-24685
X65450Y-27200
X66181Y-40866
T10
X40500Y-8900
X41500Y-8900
X42500Y-8900
X52900Y-27800
X52900Y-28800
X52900Y-29800
X52900Y-41250
X52900Y-42250
X52900Y-43250
X53500Y-8900
X54500Y-8900
X55500Y-8900
X61900Y-27800
X61900Y-28800
X61900Y-29800
X61900Y-41250
X61900Y-42250
X61900Y-43250
T11
X51200Y-15363
X51200Y-19300
T12
X64750Y-10400
X64750Y-12369
T13
X12100Y-11963
X12100Y-13931
X12100Y-17869
X12100Y-19837
T14
X57443Y-23780
X58071Y-23189
X58701Y-22559
X59886Y-27087
X60591Y-26417
X61299Y-25709
T15
X15700Y-27950
X15700Y-34050
T16
X20544Y-11300
X23300Y-11300
X26056Y-11300
T17
X32750Y-13386
X32750Y-16417
X32750Y-19449
X32750Y-23307
T2
X29094Y-47308G85X29094Y-47052
G05
X31850Y-47308G85X31850Y-47052
G05
T3
X29429Y-46117G85X29547Y-46117
G05
X31397Y-46117G85X31515Y-46117
G05
T0
M30
