G04 #@! TF.FileFunction,Copper,L4,Bot,Signal*
%FSLAX46Y46*%
G04 Gerber Fmt 4.6, Leading zero omitted, Abs format (unit mm)*
G04 Created by KiCad (PCBNEW 4.0.5) date 10/25/17 11:24:36*
%MOMM*%
%LPD*%
G01*
G04 APERTURE LIST*
%ADD10C,0.100000*%
%ADD11C,1.000000*%
%ADD12R,0.600000X0.400000*%
%ADD13R,0.500000X0.600000*%
%ADD14C,2.000000*%
%ADD15R,1.000000X1.000000*%
%ADD16O,1.000000X1.000000*%
%ADD17R,1.250000X1.000000*%
%ADD18R,0.600000X0.500000*%
%ADD19R,0.800000X0.900000*%
%ADD20R,0.400000X0.600000*%
%ADD21R,2.600000X1.500000*%
%ADD22C,1.524000*%
%ADD23R,1.200000X0.900000*%
%ADD24R,0.800000X0.750000*%
%ADD25R,1.900000X0.850000*%
%ADD26R,0.400000X0.240000*%
%ADD27R,0.240000X0.400000*%
%ADD28R,1.350000X1.350000*%
%ADD29C,1.350000*%
%ADD30C,8.509000*%
%ADD31R,1.200000X1.700000*%
%ADD32O,1.200000X1.700000*%
%ADD33O,1.700000X1.000000*%
%ADD34O,1.400000X1.000000*%
%ADD35R,1.000000X0.250000*%
%ADD36R,0.250000X1.000000*%
%ADD37R,4.900000X4.900000*%
%ADD38C,0.900000*%
%ADD39R,2.800000X2.800000*%
%ADD40R,0.800000X0.300000*%
%ADD41R,0.300000X0.800000*%
%ADD42C,0.600000*%
%ADD43C,0.800000*%
%ADD44C,0.200000*%
%ADD45C,0.500000*%
%ADD46C,0.300000*%
%ADD47C,0.150000*%
G04 APERTURE END LIST*
D10*
D11*
X170688000Y-170688000D03*
X149018088Y-93597284D03*
D12*
X135368088Y-88322284D03*
X135368088Y-89222284D03*
D13*
X124293088Y-108672284D03*
X124293088Y-109772284D03*
D14*
X153750000Y-127000000D03*
X163750000Y-127000000D03*
D15*
X121198088Y-88652284D03*
D16*
X121198088Y-89922284D03*
X122468088Y-88652284D03*
X122468088Y-89922284D03*
X123738088Y-88652284D03*
X123738088Y-89922284D03*
X125008088Y-88652284D03*
X125008088Y-89922284D03*
X126278088Y-88652284D03*
X126278088Y-89922284D03*
D12*
X159513168Y-137129844D03*
X159513168Y-136229844D03*
D17*
X165192608Y-131914044D03*
X165192608Y-129914044D03*
D12*
X159218528Y-129276164D03*
X159218528Y-128376164D03*
D13*
X140239894Y-114475654D03*
X140239894Y-113375654D03*
D18*
X140279857Y-104308885D03*
X141379857Y-104308885D03*
X140284937Y-105182645D03*
X141384937Y-105182645D03*
X140310337Y-107275605D03*
X141410337Y-107275605D03*
X140300177Y-108047765D03*
X141400177Y-108047765D03*
X140305257Y-103369085D03*
X141405257Y-103369085D03*
D13*
X132478337Y-97665605D03*
X132478337Y-96565605D03*
D18*
X121409448Y-107195524D03*
X120309448Y-107195524D03*
X121389128Y-104492964D03*
X120289128Y-104492964D03*
D13*
X133768088Y-112897284D03*
X133768088Y-113997284D03*
D10*
G36*
X114739301Y-102026615D02*
X114547959Y-101564675D01*
X115102287Y-101335065D01*
X115293629Y-101797005D01*
X114739301Y-102026615D01*
X114739301Y-102026615D01*
G37*
G36*
X115755569Y-101605663D02*
X115564227Y-101143723D01*
X116118555Y-100914113D01*
X116309897Y-101376053D01*
X115755569Y-101605663D01*
X115755569Y-101605663D01*
G37*
D18*
X108311008Y-111784684D03*
X109411008Y-111784684D03*
X109389328Y-112678764D03*
X108289328Y-112678764D03*
D19*
X117700248Y-113851484D03*
X115800248Y-113851484D03*
X116750248Y-111851484D03*
D12*
X125461928Y-104376124D03*
X125461928Y-105276124D03*
D20*
X124993088Y-102372284D03*
X125893088Y-102372284D03*
D10*
G36*
X109406094Y-97060889D02*
X109949879Y-96807318D01*
X110118926Y-97169841D01*
X109575141Y-97423412D01*
X109406094Y-97060889D01*
X109406094Y-97060889D01*
G37*
G36*
X109786450Y-97876567D02*
X110330235Y-97622996D01*
X110499282Y-97985519D01*
X109955497Y-98239090D01*
X109786450Y-97876567D01*
X109786450Y-97876567D01*
G37*
D12*
X121168088Y-91297284D03*
X121168088Y-92197284D03*
D10*
G36*
X142746051Y-158521433D02*
X142516441Y-157967105D01*
X142885993Y-157814031D01*
X143115603Y-158368359D01*
X142746051Y-158521433D01*
X142746051Y-158521433D01*
G37*
G36*
X143577543Y-158177017D02*
X143347933Y-157622689D01*
X143717485Y-157469615D01*
X143947095Y-158023943D01*
X143577543Y-158177017D01*
X143577543Y-158177017D01*
G37*
G36*
X114338774Y-94368489D02*
X114882559Y-94114918D01*
X115051606Y-94477441D01*
X114507821Y-94731012D01*
X114338774Y-94368489D01*
X114338774Y-94368489D01*
G37*
G36*
X114719130Y-95184167D02*
X115262915Y-94930596D01*
X115431962Y-95293119D01*
X114888177Y-95546690D01*
X114719130Y-95184167D01*
X114719130Y-95184167D01*
G37*
G36*
X137853805Y-159921375D02*
X138083415Y-160475703D01*
X137713863Y-160628777D01*
X137484253Y-160074449D01*
X137853805Y-159921375D01*
X137853805Y-159921375D01*
G37*
G36*
X137022313Y-160265791D02*
X137251923Y-160820119D01*
X136882371Y-160973193D01*
X136652761Y-160418865D01*
X137022313Y-160265791D01*
X137022313Y-160265791D01*
G37*
D20*
X114944728Y-112587324D03*
X114044728Y-112587324D03*
X154653728Y-135455564D03*
X155553728Y-135455564D03*
D10*
G36*
X116078805Y-100202580D02*
X115353759Y-100540675D01*
X114973403Y-99724998D01*
X115698449Y-99386903D01*
X116078805Y-100202580D01*
X116078805Y-100202580D01*
G37*
G36*
X114356820Y-101005555D02*
X113631774Y-101343650D01*
X113251418Y-100527973D01*
X113976464Y-100189878D01*
X114356820Y-101005555D01*
X114356820Y-101005555D01*
G37*
G36*
X114372576Y-98791452D02*
X113647530Y-99129547D01*
X113267174Y-98313870D01*
X113992220Y-97975775D01*
X114372576Y-98791452D01*
X114372576Y-98791452D01*
G37*
D21*
X123374048Y-106769924D03*
X123374048Y-104369924D03*
D22*
X112768088Y-116347284D03*
D18*
X140310337Y-106076725D03*
X141410337Y-106076725D03*
D10*
G36*
X141837317Y-154867497D02*
X142299257Y-154676155D01*
X142528867Y-155230483D01*
X142066927Y-155421825D01*
X141837317Y-154867497D01*
X141837317Y-154867497D01*
G37*
G36*
X142258269Y-155883765D02*
X142720209Y-155692423D01*
X142949819Y-156246751D01*
X142487879Y-156438093D01*
X142258269Y-155883765D01*
X142258269Y-155883765D01*
G37*
G36*
X143641548Y-98603175D02*
X143945928Y-98206498D01*
X144421940Y-98571755D01*
X144117560Y-98968432D01*
X143641548Y-98603175D01*
X143641548Y-98603175D01*
G37*
G36*
X144514236Y-99272813D02*
X144818616Y-98876136D01*
X145294628Y-99241393D01*
X144990248Y-99638070D01*
X144514236Y-99272813D01*
X144514236Y-99272813D01*
G37*
D13*
X125393088Y-108122284D03*
X125393088Y-109222284D03*
D23*
X126268088Y-91697284D03*
X126268088Y-94997284D03*
D12*
X122468088Y-91297284D03*
X122468088Y-92197284D03*
X121168088Y-92997284D03*
X121168088Y-93897284D03*
X122468088Y-92997284D03*
X122468088Y-93897284D03*
D13*
X139249294Y-113395974D03*
X139249294Y-114495974D03*
D12*
X138187574Y-114451854D03*
X138187574Y-113551854D03*
D18*
X109405928Y-110870284D03*
X108305928Y-110870284D03*
D10*
G36*
X138247035Y-152323713D02*
X138438377Y-152785653D01*
X137884049Y-153015263D01*
X137692707Y-152553323D01*
X138247035Y-152323713D01*
X138247035Y-152323713D01*
G37*
G36*
X137230767Y-152744665D02*
X137422109Y-153206605D01*
X136867781Y-153436215D01*
X136676439Y-152974275D01*
X137230767Y-152744665D01*
X137230767Y-152744665D01*
G37*
D13*
X133343088Y-97672284D03*
X133343088Y-96572284D03*
D10*
G36*
X111376690Y-100037031D02*
X110923537Y-100248340D01*
X110669966Y-99704555D01*
X111123119Y-99493246D01*
X111376690Y-100037031D01*
X111376690Y-100037031D01*
G37*
G36*
X110911810Y-99040093D02*
X110458657Y-99251402D01*
X110205086Y-98707617D01*
X110658239Y-98496308D01*
X110911810Y-99040093D01*
X110911810Y-99040093D01*
G37*
G36*
X106544939Y-147752744D02*
X106148262Y-147448364D01*
X106513519Y-146972352D01*
X106910196Y-147276732D01*
X106544939Y-147752744D01*
X106544939Y-147752744D01*
G37*
G36*
X107214577Y-146880056D02*
X106817900Y-146575676D01*
X107183157Y-146099664D01*
X107579834Y-146404044D01*
X107214577Y-146880056D01*
X107214577Y-146880056D01*
G37*
G36*
X148031437Y-104540184D02*
X148428114Y-104844564D01*
X148062857Y-105320576D01*
X147666180Y-105016196D01*
X148031437Y-104540184D01*
X148031437Y-104540184D01*
G37*
G36*
X147361799Y-105412872D02*
X147758476Y-105717252D01*
X147393219Y-106193264D01*
X146996542Y-105888884D01*
X147361799Y-105412872D01*
X147361799Y-105412872D01*
G37*
D24*
X155867568Y-127139604D03*
X157367568Y-127139604D03*
X160083968Y-127147284D03*
X161583968Y-127147284D03*
D18*
X162524248Y-136309004D03*
X163624248Y-136309004D03*
X160746248Y-135328564D03*
X161846248Y-135328564D03*
D13*
X162810088Y-132226044D03*
X162810088Y-131126044D03*
X163770208Y-132215884D03*
X163770208Y-131115884D03*
X161910928Y-131136204D03*
X161910928Y-132236204D03*
D18*
X154713928Y-131884324D03*
X153613928Y-131884324D03*
D23*
X152883768Y-136757044D03*
X152883768Y-140057044D03*
X155398368Y-136706244D03*
X155398368Y-140006244D03*
D17*
X167041728Y-129919124D03*
X167041728Y-131919124D03*
D22*
X110218088Y-90697284D03*
X142068088Y-163397284D03*
X150393088Y-95997284D03*
D20*
X118718088Y-111347284D03*
X117818088Y-111347284D03*
X155589288Y-134398924D03*
X154689288Y-134398924D03*
D12*
X155672688Y-131897444D03*
X155672688Y-130997444D03*
D20*
X155772168Y-130131724D03*
X154872168Y-130131724D03*
X154070368Y-130131724D03*
X153170368Y-130131724D03*
D12*
X158156808Y-129276164D03*
X158156808Y-128376164D03*
X159518248Y-138811324D03*
X159518248Y-137911324D03*
D20*
X161649728Y-136293764D03*
X160749728Y-136293764D03*
D12*
X157222088Y-136722604D03*
X157222088Y-137622604D03*
X157237328Y-138602204D03*
X157237328Y-139502204D03*
D20*
X158478968Y-139829444D03*
X159378968Y-139829444D03*
D10*
G36*
X136861260Y-154118550D02*
X137600363Y-153812403D01*
X137944778Y-154643894D01*
X137205675Y-154950041D01*
X136861260Y-154118550D01*
X136861260Y-154118550D01*
G37*
G36*
X138616631Y-153391451D02*
X139355734Y-153085304D01*
X139700149Y-153916795D01*
X138961046Y-154222942D01*
X138616631Y-153391451D01*
X138616631Y-153391451D01*
G37*
G36*
X138504312Y-155602760D02*
X139243415Y-155296613D01*
X139587830Y-156128104D01*
X138848727Y-156434251D01*
X138504312Y-155602760D01*
X138504312Y-155602760D01*
G37*
G36*
X109164925Y-148093453D02*
X109799608Y-148580463D01*
X109251723Y-149294481D01*
X108617040Y-148807471D01*
X109164925Y-148093453D01*
X109164925Y-148093453D01*
G37*
G36*
X110672296Y-149250100D02*
X111306979Y-149737110D01*
X110759094Y-150451128D01*
X110124411Y-149964118D01*
X110672296Y-149250100D01*
X110672296Y-149250100D01*
G37*
G36*
X108701088Y-150258483D02*
X109335771Y-150745493D01*
X108787886Y-151459511D01*
X108153203Y-150972501D01*
X108701088Y-150258483D01*
X108701088Y-150258483D01*
G37*
G36*
X145511011Y-104860831D02*
X144876328Y-104373821D01*
X145424213Y-103659803D01*
X146058896Y-104146813D01*
X145511011Y-104860831D01*
X145511011Y-104860831D01*
G37*
G36*
X144003640Y-103704184D02*
X143368957Y-103217174D01*
X143916842Y-102503156D01*
X144551525Y-102990166D01*
X144003640Y-103704184D01*
X144003640Y-103704184D01*
G37*
G36*
X145974848Y-102695801D02*
X145340165Y-102208791D01*
X145888050Y-101494773D01*
X146522733Y-101981783D01*
X145974848Y-102695801D01*
X145974848Y-102695801D01*
G37*
D13*
X143998848Y-114496844D03*
X143998848Y-113396844D03*
D10*
G36*
X110621748Y-155007553D02*
X110317368Y-155404230D01*
X109841356Y-155038973D01*
X110145736Y-154642296D01*
X110621748Y-155007553D01*
X110621748Y-155007553D01*
G37*
G36*
X109749060Y-154337915D02*
X109444680Y-154734592D01*
X108968668Y-154369335D01*
X109273048Y-153972658D01*
X109749060Y-154337915D01*
X109749060Y-154337915D01*
G37*
D13*
X140991488Y-110407444D03*
X140991488Y-109307444D03*
D18*
X144910203Y-109831139D03*
X146010203Y-109831139D03*
D12*
X142850768Y-114308364D03*
X142850768Y-113408364D03*
X143165728Y-110353164D03*
X143165728Y-109453164D03*
D20*
X144959403Y-108713539D03*
X145859403Y-108713539D03*
D13*
X145192648Y-113381604D03*
X145192648Y-114481604D03*
X142012568Y-109307444D03*
X142012568Y-110407444D03*
D18*
X146020363Y-110806499D03*
X144920363Y-110806499D03*
D22*
X128166535Y-166266711D03*
X125626535Y-166266711D03*
X123086535Y-166266711D03*
D25*
X135193088Y-114297284D03*
X135193088Y-112847284D03*
D26*
X110511288Y-110577724D03*
D27*
X111136288Y-110502724D03*
X111536288Y-110502724D03*
X111936288Y-110502724D03*
X112336288Y-110502724D03*
D26*
X112961288Y-110577724D03*
X112961288Y-110977724D03*
X112961288Y-111377724D03*
X112961288Y-111777724D03*
X112961288Y-112177724D03*
X112961288Y-112577724D03*
X112961288Y-112977724D03*
X112961288Y-113377724D03*
D27*
X112336288Y-113452724D03*
X111936288Y-113452724D03*
X111536288Y-113452724D03*
X111136288Y-113452724D03*
D26*
X110511288Y-113377724D03*
X110511288Y-112977724D03*
X110511288Y-112577724D03*
X110511288Y-112177724D03*
X110511288Y-111777724D03*
X110511288Y-111377724D03*
X110511288Y-110977724D03*
D28*
X154402688Y-112622484D03*
D29*
X154402688Y-114622484D03*
D30*
X103073200Y-158648400D03*
X150926800Y-158648400D03*
X156531208Y-100634800D03*
X97358200Y-100634800D03*
D31*
X139868088Y-126747284D03*
D32*
X141868088Y-126747284D03*
D33*
X77306248Y-122797764D03*
X77306248Y-131247764D03*
X79056248Y-122797764D03*
X79056248Y-131247764D03*
D34*
X80456248Y-130622764D03*
X80456248Y-123422764D03*
D31*
X111868088Y-126747284D03*
D32*
X113868088Y-126747284D03*
D35*
X138291258Y-101326286D03*
X138291258Y-101826286D03*
X138291258Y-102326286D03*
X138291258Y-102826286D03*
X138291258Y-103326286D03*
X138291258Y-103826286D03*
X138291258Y-104326286D03*
X138291258Y-104826286D03*
X138291258Y-105326286D03*
X138291258Y-105826286D03*
X138291258Y-106326286D03*
X138291258Y-106826286D03*
X138291258Y-107326286D03*
X138291258Y-107826286D03*
X138291258Y-108326286D03*
X138291258Y-108826286D03*
X127191258Y-108826286D03*
X127191258Y-108326286D03*
X127191258Y-107826286D03*
X127191258Y-107326286D03*
X127191258Y-106826286D03*
X127191258Y-106326286D03*
X127191258Y-105826286D03*
X127191258Y-105326286D03*
X127191258Y-104826286D03*
X127191258Y-104326286D03*
X127191258Y-103826286D03*
X127191258Y-103326286D03*
X127191258Y-102826286D03*
X127191258Y-102326286D03*
X127191258Y-101826286D03*
X127191258Y-101326286D03*
D36*
X136491258Y-110626286D03*
X135991258Y-110626286D03*
X135491258Y-110626286D03*
X134991258Y-110626286D03*
X134491258Y-110626286D03*
X133991258Y-110626286D03*
X133491258Y-110626286D03*
X132991258Y-110626286D03*
X132491258Y-110626286D03*
X131991258Y-110626286D03*
X131491258Y-110626286D03*
X130991258Y-110626286D03*
X130491258Y-110626286D03*
X129991258Y-110626286D03*
X129491258Y-110626286D03*
X128991258Y-110626286D03*
X128991258Y-99526286D03*
X129491258Y-99526286D03*
X129991258Y-99526286D03*
X130491258Y-99526286D03*
X130991258Y-99526286D03*
X131491258Y-99526286D03*
X131991258Y-99526286D03*
X132491258Y-99526286D03*
X132991258Y-99526286D03*
X133491258Y-99526286D03*
X133991258Y-99526286D03*
X134491258Y-99526286D03*
X134991258Y-99526286D03*
X135491258Y-99526286D03*
X135991258Y-99526286D03*
X136491258Y-99526286D03*
D37*
X132741258Y-105076286D03*
D10*
G36*
X113690211Y-94398634D02*
X113964913Y-94987734D01*
X113004227Y-95435710D01*
X112729525Y-94846610D01*
X113690211Y-94398634D01*
X113690211Y-94398634D01*
G37*
G36*
X114091699Y-95259626D02*
X114366401Y-95848726D01*
X113405715Y-96296702D01*
X113131013Y-95707602D01*
X114091699Y-95259626D01*
X114091699Y-95259626D01*
G37*
G36*
X114493186Y-96120618D02*
X114767888Y-96709718D01*
X113807202Y-97157694D01*
X113532500Y-96568594D01*
X114493186Y-96120618D01*
X114493186Y-96120618D01*
G37*
G36*
X112499309Y-97050378D02*
X112774011Y-97639478D01*
X111813325Y-98087454D01*
X111538623Y-97498354D01*
X112499309Y-97050378D01*
X112499309Y-97050378D01*
G37*
G36*
X111696334Y-95328394D02*
X111971036Y-95917494D01*
X111010350Y-96365470D01*
X110735648Y-95776370D01*
X111696334Y-95328394D01*
X111696334Y-95328394D01*
G37*
G36*
X112097821Y-96189386D02*
X112372523Y-96778486D01*
X111411837Y-97226462D01*
X111137135Y-96637362D01*
X112097821Y-96189386D01*
X112097821Y-96189386D01*
G37*
G36*
X139003206Y-160132524D02*
X138754462Y-159532002D01*
X139733774Y-159126358D01*
X139982518Y-159726880D01*
X139003206Y-160132524D01*
X139003206Y-160132524D01*
G37*
G36*
X138639657Y-159254839D02*
X138390913Y-158654317D01*
X139370225Y-158248673D01*
X139618969Y-158849195D01*
X138639657Y-159254839D01*
X138639657Y-159254839D01*
G37*
G36*
X138276107Y-158377153D02*
X138027363Y-157776631D01*
X139006675Y-157370987D01*
X139255419Y-157971509D01*
X138276107Y-158377153D01*
X138276107Y-158377153D01*
G37*
G36*
X140308642Y-157535250D02*
X140059898Y-156934728D01*
X141039210Y-156529084D01*
X141287954Y-157129606D01*
X140308642Y-157535250D01*
X140308642Y-157535250D01*
G37*
G36*
X141035741Y-159290621D02*
X140786997Y-158690099D01*
X141766309Y-158284455D01*
X142015053Y-158884977D01*
X141035741Y-159290621D01*
X141035741Y-159290621D01*
G37*
G36*
X140672191Y-158412935D02*
X140423447Y-157812413D01*
X141402759Y-157406769D01*
X141651503Y-158007291D01*
X140672191Y-158412935D01*
X140672191Y-158412935D01*
G37*
G36*
X149527665Y-99983000D02*
X149131970Y-100498679D01*
X148291015Y-99853392D01*
X148686710Y-99337713D01*
X149527665Y-99983000D01*
X149527665Y-99983000D01*
G37*
G36*
X148949342Y-100736686D02*
X148553647Y-101252365D01*
X147712692Y-100607078D01*
X148108387Y-100091399D01*
X148949342Y-100736686D01*
X148949342Y-100736686D01*
G37*
G36*
X148371018Y-101490371D02*
X147975323Y-102006050D01*
X147134368Y-101360763D01*
X147530063Y-100845084D01*
X148371018Y-101490371D01*
X148371018Y-101490371D01*
G37*
G36*
X146625641Y-100151096D02*
X146229946Y-100666775D01*
X145388991Y-100021488D01*
X145784686Y-99505809D01*
X146625641Y-100151096D01*
X146625641Y-100151096D01*
G37*
G36*
X147782288Y-98643725D02*
X147386593Y-99159404D01*
X146545638Y-98514117D01*
X146941333Y-97998438D01*
X147782288Y-98643725D01*
X147782288Y-98643725D01*
G37*
G36*
X147203964Y-99397410D02*
X146808269Y-99913089D01*
X145967314Y-99267802D01*
X146363009Y-98752123D01*
X147203964Y-99397410D01*
X147203964Y-99397410D01*
G37*
G36*
X104682951Y-153620568D02*
X105078646Y-153104889D01*
X105919601Y-153750176D01*
X105523906Y-154265855D01*
X104682951Y-153620568D01*
X104682951Y-153620568D01*
G37*
G36*
X105261274Y-152866882D02*
X105656969Y-152351203D01*
X106497924Y-152996490D01*
X106102229Y-153512169D01*
X105261274Y-152866882D01*
X105261274Y-152866882D01*
G37*
G36*
X105839598Y-152113197D02*
X106235293Y-151597518D01*
X107076248Y-152242805D01*
X106680553Y-152758484D01*
X105839598Y-152113197D01*
X105839598Y-152113197D01*
G37*
G36*
X107584975Y-153452472D02*
X107980670Y-152936793D01*
X108821625Y-153582080D01*
X108425930Y-154097759D01*
X107584975Y-153452472D01*
X107584975Y-153452472D01*
G37*
G36*
X106428328Y-154959843D02*
X106824023Y-154444164D01*
X107664978Y-155089451D01*
X107269283Y-155605130D01*
X106428328Y-154959843D01*
X106428328Y-154959843D01*
G37*
G36*
X107006652Y-154206158D02*
X107402347Y-153690479D01*
X108243302Y-154335766D01*
X107847607Y-154851445D01*
X107006652Y-154206158D01*
X107006652Y-154206158D01*
G37*
D22*
X117445688Y-154221084D03*
D38*
X111541303Y-93375392D02*
X111794873Y-93919176D01*
X110390292Y-93912117D02*
X110643862Y-94455901D01*
D10*
G36*
X112728224Y-93980468D02*
X112094297Y-92621006D01*
X112909974Y-92240650D01*
X113543901Y-93600112D01*
X112728224Y-93980468D01*
X112728224Y-93980468D01*
G37*
D38*
X141131693Y-161259728D02*
X140902083Y-160705400D01*
X142305020Y-160773720D02*
X142075410Y-160219392D01*
D10*
G36*
X139972294Y-160603455D02*
X140546319Y-161989274D01*
X139714828Y-162333689D01*
X139140803Y-160947870D01*
X139972294Y-160603455D01*
X139972294Y-160603455D01*
G37*
D38*
X114483294Y-154037952D02*
X114007282Y-153672696D01*
X115256421Y-153030394D02*
X114780409Y-152665138D01*
D10*
G36*
X113151089Y-154049303D02*
X114341119Y-154962445D01*
X113793233Y-155676463D01*
X112603203Y-154763321D01*
X113151089Y-154049303D01*
X113151089Y-154049303D01*
G37*
D38*
X149443157Y-97436151D02*
X149077901Y-97912163D01*
X148435599Y-96663024D02*
X148070343Y-97139036D01*
D10*
G36*
X149454508Y-98768356D02*
X150367650Y-97578326D01*
X151081668Y-98126212D01*
X150168526Y-99316242D01*
X149454508Y-98768356D01*
X149454508Y-98768356D01*
G37*
D22*
X118068088Y-125247284D03*
X113868088Y-108347284D03*
X112293088Y-106872284D03*
X115368088Y-109647284D03*
X109843088Y-108697284D03*
X110468088Y-107022284D03*
X115168088Y-91947284D03*
X106943088Y-95197284D03*
X94518088Y-115097284D03*
X100268088Y-109097284D03*
X161318088Y-109597284D03*
X89018088Y-112997284D03*
X144868088Y-161772284D03*
X137743088Y-162922284D03*
X100893088Y-137172284D03*
D39*
X158768088Y-132347284D03*
D40*
X160768088Y-131097284D03*
X160768088Y-131597284D03*
X160768088Y-132097284D03*
X160768088Y-132597284D03*
X160768088Y-133097284D03*
X160768088Y-133597284D03*
X156768088Y-133597284D03*
X156768088Y-133097284D03*
X156768088Y-132597284D03*
X156768088Y-132097284D03*
X156768088Y-131597284D03*
X156768088Y-131097284D03*
D41*
X157518088Y-130347284D03*
X158018088Y-130347284D03*
X158518088Y-130347284D03*
X159018088Y-130347284D03*
X159518088Y-130347284D03*
X160018088Y-130347284D03*
X160018088Y-134347284D03*
X159518088Y-134347284D03*
X159018088Y-134347284D03*
X158518088Y-134347284D03*
X158018088Y-134347284D03*
X157518088Y-134347284D03*
D12*
X132643088Y-116997284D03*
X132643088Y-116097284D03*
X131368088Y-116997284D03*
X131368088Y-116097284D03*
X134143088Y-88322284D03*
X134143088Y-89222284D03*
X136593088Y-88322284D03*
X136593088Y-89222284D03*
X137843088Y-88322284D03*
X137843088Y-89222284D03*
X139068088Y-88322284D03*
X139068088Y-89222284D03*
X140293088Y-88322284D03*
X140293088Y-89222284D03*
X141518088Y-88322284D03*
X141518088Y-89222284D03*
X142743088Y-88322284D03*
X142743088Y-89222284D03*
D11*
X76323088Y-83312000D03*
X110268088Y-162347284D03*
D42*
X120193088Y-98997284D03*
X135210587Y-114979868D03*
X110893088Y-111547284D03*
X139073067Y-107322284D03*
X140321800Y-102908286D03*
X143802949Y-99699653D03*
X132583078Y-98247284D03*
X121088471Y-123524220D03*
X110753316Y-151682080D03*
X114168088Y-113897284D03*
X124618088Y-101872284D03*
X125520260Y-107297284D03*
X110536888Y-154576684D03*
X133860464Y-96997957D03*
X133741734Y-114483177D03*
X133072885Y-116738594D03*
D43*
X133343088Y-88622284D03*
D42*
X110868090Y-112772284D03*
X162093088Y-133172284D03*
X156768088Y-130722284D03*
X124496272Y-121985936D03*
X115971201Y-118157294D03*
X141223077Y-114829020D03*
X143368088Y-115072284D03*
X102718088Y-117147284D03*
X143168088Y-120747284D03*
X142612968Y-120317164D03*
X146307868Y-120986624D03*
X141523120Y-110857086D03*
X120307689Y-106757860D03*
X120288692Y-104940537D03*
X123868088Y-109772284D03*
X104208078Y-144597284D03*
X143553603Y-98587465D03*
X88618097Y-127686828D03*
X125168088Y-124297284D03*
X127418088Y-121997284D03*
X126107342Y-121747865D03*
X127594917Y-129288166D03*
X106608077Y-147747284D03*
X102721076Y-125233591D03*
X104586699Y-125543430D03*
X154209601Y-134155771D03*
X136206873Y-152686039D03*
X150343088Y-153272284D03*
X90309975Y-131280397D03*
X97368088Y-117297284D03*
X97293088Y-127747284D03*
X157943088Y-126622284D03*
X159593088Y-126622284D03*
X141618088Y-153722284D03*
X138793088Y-155272284D03*
X147643088Y-104547284D03*
X145918088Y-103147284D03*
X105393088Y-126972284D03*
X154843088Y-152372284D03*
X158793088Y-151722284D03*
X153218088Y-132272284D03*
X152843088Y-130547284D03*
X134393088Y-105072284D03*
X131043088Y-105072284D03*
X131943088Y-105072284D03*
X133523046Y-105076285D03*
X132741258Y-105076286D03*
X126424844Y-104826287D03*
X100951608Y-113031924D03*
X107868088Y-113097284D03*
X100267380Y-124971412D03*
X102743088Y-135972284D03*
X101243088Y-133921762D03*
X109543088Y-150697284D03*
X105593088Y-151472284D03*
X115293088Y-102522284D03*
X111018088Y-102022284D03*
X114593088Y-98772284D03*
X121718088Y-129122284D03*
X134618088Y-111522284D03*
X143268100Y-111187274D03*
X126264086Y-106826286D03*
X142368088Y-110847284D03*
X141868088Y-106447284D03*
X141868088Y-102947284D03*
X164068088Y-135947284D03*
X162268088Y-134947284D03*
X159768088Y-139347284D03*
X162868088Y-140342044D03*
X163468088Y-130647284D03*
X162568088Y-130647284D03*
X161568088Y-130647284D03*
X132268088Y-121947284D03*
X134368088Y-126047284D03*
X133768088Y-125147284D03*
X133268088Y-124247284D03*
X132668088Y-123147284D03*
X125468088Y-121947284D03*
X126747602Y-125200769D03*
X133268088Y-129034164D03*
X84168088Y-121747284D03*
X83368088Y-126935194D03*
X81768088Y-128747284D03*
X123643088Y-96497284D03*
X125893088Y-101597284D03*
X139193088Y-98897284D03*
X84833078Y-125226920D03*
X135993088Y-103247284D03*
X138205730Y-98771563D03*
X136043088Y-104172284D03*
X85393088Y-127097284D03*
X121636687Y-102919377D03*
X121143088Y-94772284D03*
X122186178Y-102394328D03*
X122618088Y-94447284D03*
X146318088Y-127447284D03*
X148318088Y-147497284D03*
X127243088Y-152097284D03*
X102185288Y-132380084D03*
X115893088Y-121972284D03*
X109893088Y-121972284D03*
X106618088Y-131172284D03*
X129343088Y-117597284D03*
X136168088Y-108472284D03*
X137344393Y-108586254D03*
X130167613Y-118647759D03*
X126518088Y-118972284D03*
X119518088Y-123822284D03*
X101218088Y-125222284D03*
X114788170Y-97472284D03*
X116718088Y-101747284D03*
X95368088Y-125697284D03*
X94843088Y-125697284D03*
X113043088Y-155422284D03*
X148468088Y-102972284D03*
X137568088Y-156847284D03*
X131868088Y-113347284D03*
X128617288Y-120837187D03*
X123528098Y-127074228D03*
X130068088Y-90422283D03*
X107118088Y-103122284D03*
X129418088Y-98497284D03*
X130548077Y-113482294D03*
X139641018Y-124399043D03*
X140361566Y-123701553D03*
X146268088Y-124047262D03*
X145168088Y-124047284D03*
X131918088Y-119197284D03*
X130705023Y-119185168D03*
X121649922Y-122798019D03*
X140803098Y-115594285D03*
X139250764Y-103472640D03*
X89043088Y-126422284D03*
X89873169Y-133492203D03*
X127268088Y-113047284D03*
X129788064Y-113482294D03*
X118133078Y-114768399D03*
X116968088Y-108797284D03*
X112361840Y-111325852D03*
X117493088Y-112722284D03*
X109018088Y-121122284D03*
X91993088Y-121822284D03*
X126693088Y-112372284D03*
X129868088Y-107797284D03*
X128394492Y-112898776D03*
X125670136Y-129189621D03*
X129123107Y-121710717D03*
X116893088Y-110497284D03*
X123425140Y-120250792D03*
X123218088Y-115422284D03*
X112638418Y-114299655D03*
X124568088Y-129722284D03*
X111493088Y-112147284D03*
X110168088Y-149447284D03*
X136093088Y-118297284D03*
X149768088Y-118397284D03*
X146868088Y-108847284D03*
X129057879Y-118329999D03*
X122593088Y-118647284D03*
X142343088Y-114947284D03*
X139795912Y-153282648D03*
X125543088Y-114697284D03*
X117768088Y-98672284D03*
X154868088Y-130747284D03*
X156069590Y-133097283D03*
X149208078Y-116422873D03*
X141887081Y-115555294D03*
X139468088Y-102422284D03*
X140765207Y-100697168D03*
X139582358Y-101141040D03*
X158018088Y-138922284D03*
X160768088Y-133947284D03*
X139866647Y-118932294D03*
X139643088Y-110047284D03*
X150578088Y-122822284D03*
X158806133Y-135460329D03*
X127689075Y-115343271D03*
X149863163Y-122500771D03*
X126418088Y-109897284D03*
X157989068Y-135768264D03*
X128660482Y-98557710D03*
X144443088Y-91997284D03*
X130168088Y-87947284D03*
X156924494Y-135949064D03*
X137610963Y-111274539D03*
X137948067Y-112891842D03*
X136833829Y-160534766D03*
X108073928Y-97357657D03*
X116718088Y-94522284D03*
X111718088Y-98197284D03*
X142968088Y-156847284D03*
X144068088Y-157647284D03*
X136994569Y-105631001D03*
X128612256Y-105047284D03*
X146812403Y-117537274D03*
X139500011Y-117737274D03*
X139068088Y-110647284D03*
X138018088Y-110597284D03*
X147529293Y-117284910D03*
X137180669Y-116759865D03*
X126143088Y-97947284D03*
X124820903Y-96575099D03*
X87018091Y-118847281D03*
X146118088Y-95972284D03*
X140943088Y-99522284D03*
X134443088Y-159387274D03*
X119602961Y-105413104D03*
X108242015Y-155473357D03*
X143143088Y-159122284D03*
X145798557Y-92557294D03*
X141667984Y-99293933D03*
X149643088Y-100447284D03*
X118693088Y-104922284D03*
X104768088Y-153247284D03*
X131043088Y-90322284D03*
X103468088Y-103322284D03*
X133393088Y-98432286D03*
D43*
X132643088Y-115297284D03*
X131373088Y-115297284D03*
X134159000Y-90156372D03*
D42*
X134268088Y-98097284D03*
X134980475Y-97263792D03*
D43*
X135393088Y-90547284D03*
D42*
X135445094Y-97865247D03*
D43*
X136593088Y-90797284D03*
D42*
X136293088Y-97647284D03*
D43*
X137843088Y-90722284D03*
D42*
X137168088Y-97897284D03*
D43*
X139068088Y-90222284D03*
D42*
X131953562Y-90527256D03*
D43*
X140292629Y-91474224D03*
D42*
X130570806Y-98373046D03*
X132393088Y-91147284D03*
D43*
X141519355Y-91802924D03*
D42*
X131368088Y-98497284D03*
X128193088Y-96347284D03*
D43*
X142746081Y-92131624D03*
D42*
X126159601Y-100255771D03*
D44*
X135210587Y-114979868D02*
X135210587Y-114314783D01*
X135210587Y-114314783D02*
X135193088Y-114297284D01*
X110993088Y-111447284D02*
X110893088Y-111547284D01*
X110993088Y-111372284D02*
X110993088Y-111447284D01*
X111536288Y-110502724D02*
X111536288Y-110829084D01*
X111536288Y-110829084D02*
X110993088Y-111372284D01*
X110662648Y-111777724D02*
X110893088Y-111547284D01*
X110511288Y-111777724D02*
X110662648Y-111777724D01*
X109405928Y-110870284D02*
X109541088Y-110870284D01*
X109541088Y-110870284D02*
X109648528Y-110977724D01*
X109648528Y-110977724D02*
X110511288Y-110977724D01*
X144904432Y-99257103D02*
X146007316Y-100086292D01*
X132478337Y-97665605D02*
X133336409Y-97665605D01*
X133336409Y-97665605D02*
X133343088Y-97672284D01*
X124293088Y-108672284D02*
X124843088Y-108672284D01*
X124843088Y-108672284D02*
X125393088Y-108122284D01*
X125393088Y-108122284D02*
X125393088Y-107424456D01*
X125393088Y-107424456D02*
X125520260Y-107297284D01*
X139069065Y-107326286D02*
X139073067Y-107322284D01*
X138291258Y-107326286D02*
X139069065Y-107326286D01*
X140310337Y-107275605D02*
X139119746Y-107275605D01*
X140305257Y-102919085D02*
X140316056Y-102908286D01*
X140594316Y-102908286D02*
X140321800Y-102908286D01*
X140293088Y-102906916D02*
X140294458Y-102908286D01*
X143802949Y-99699653D02*
X140594316Y-102908286D01*
X140294458Y-102908286D02*
X140321800Y-102908286D01*
X139119746Y-107275605D02*
X139073067Y-107322284D01*
X140305257Y-103369085D02*
X140305257Y-102919085D01*
X140316056Y-102908286D02*
X140321800Y-102908286D01*
X143802949Y-99699653D02*
X144461882Y-99699653D01*
X144461882Y-99699653D02*
X144904432Y-99257103D01*
X132478337Y-98252761D02*
X132483814Y-98247284D01*
X132478337Y-98272284D02*
X132478337Y-98252761D01*
X132483814Y-98247284D02*
X132583078Y-98247284D01*
X113868089Y-113597285D02*
X114168088Y-113897284D01*
X112961288Y-113377724D02*
X113648528Y-113377724D01*
X113648528Y-113377724D02*
X113868089Y-113597285D01*
X110643088Y-152622284D02*
X109358864Y-154353625D01*
X110753316Y-151682080D02*
X110643088Y-152622284D01*
X132478337Y-97665605D02*
X132478337Y-98272284D01*
X132478337Y-98272284D02*
X132478337Y-99513365D01*
X132478337Y-97665605D02*
X132478337Y-97715605D01*
X140300177Y-108047765D02*
X140300177Y-107285765D01*
X140300177Y-107285765D02*
X140310337Y-107275605D01*
X115800248Y-113851484D02*
X114213888Y-113851484D01*
X114213888Y-113851484D02*
X114168088Y-113897284D01*
X110511288Y-110577724D02*
X110511288Y-110977724D01*
X110511288Y-110977724D02*
X110511288Y-111377724D01*
X110511288Y-111377724D02*
X110511288Y-111777724D01*
X109405928Y-110870284D02*
X109405928Y-111779604D01*
X109405928Y-111779604D02*
X109411008Y-111784684D01*
X109358864Y-154353625D02*
X108203300Y-153517276D01*
X132478337Y-99513365D02*
X132491258Y-99526286D01*
X132463097Y-97680845D02*
X132478337Y-97665605D01*
X124918087Y-102172283D02*
X124618088Y-101872284D01*
X124993088Y-102247284D02*
X124918087Y-102172283D01*
X124993088Y-102372284D02*
X124993088Y-102247284D01*
X125520260Y-106873020D02*
X125520260Y-107297284D01*
X125520260Y-106741310D02*
X125520260Y-106873020D01*
X125995285Y-106266285D02*
X125520260Y-106741310D01*
X127131257Y-106266285D02*
X125995285Y-106266285D01*
X127191258Y-106326286D02*
X127131257Y-106266285D01*
X140279857Y-104308885D02*
X139779857Y-104308885D01*
X139779857Y-104308885D02*
X139262456Y-104826286D01*
X139262456Y-104826286D02*
X138991258Y-104826286D01*
X138991258Y-104826286D02*
X138291258Y-104826286D01*
X140305257Y-103369085D02*
X140305257Y-104283485D01*
X140305257Y-104283485D02*
X140279857Y-104308885D01*
X110536888Y-154717927D02*
X110536888Y-154576684D01*
X110231552Y-155023263D02*
X110536888Y-154717927D01*
X133461409Y-96565605D02*
X133468089Y-96572285D01*
X133468089Y-96605582D02*
X133560465Y-96697958D01*
X133560465Y-96697958D02*
X133860464Y-96997957D01*
X133468089Y-96572285D02*
X133468089Y-96605582D01*
X133343088Y-96572284D02*
X133468089Y-96572285D01*
X132478337Y-96565605D02*
X133461409Y-96565605D01*
X122468088Y-88652284D02*
X123738088Y-88652284D01*
X132643088Y-116997284D02*
X132814195Y-116997284D01*
X132814195Y-116997284D02*
X133072885Y-116738594D01*
X131368088Y-116997284D02*
X132643088Y-116997284D01*
X134143088Y-88322284D02*
X133643088Y-88322284D01*
X133643088Y-88322284D02*
X133343088Y-88622284D01*
X135368088Y-88322284D02*
X134143088Y-88322284D01*
X136593088Y-88322284D02*
X135368088Y-88322284D01*
X137843088Y-88322284D02*
X136593088Y-88322284D01*
X139068088Y-88322284D02*
X137843088Y-88322284D01*
X140293088Y-88322284D02*
X139068088Y-88322284D01*
X141518088Y-88322284D02*
X140293088Y-88322284D01*
X142743088Y-88322284D02*
X141518088Y-88322284D01*
X133768088Y-113997284D02*
X133768088Y-114456823D01*
X133768088Y-114456823D02*
X133741734Y-114483177D01*
X155748888Y-109665924D02*
X155817528Y-109597284D01*
X155817528Y-109597284D02*
X161318088Y-109597284D01*
X110673530Y-112577724D02*
X110868090Y-112772284D01*
X110511288Y-112577724D02*
X110673530Y-112577724D01*
X161679006Y-133022284D02*
X161943088Y-133022284D01*
X161943088Y-133022284D02*
X162093088Y-133172284D01*
X160768088Y-132597284D02*
X161254006Y-132597284D01*
X161254006Y-132597284D02*
X161679006Y-133022284D01*
X156768088Y-130822284D02*
X156768088Y-130722284D01*
X156768088Y-131097284D02*
X156768088Y-130822284D01*
X140923078Y-114529021D02*
X141223077Y-114829020D01*
X140239894Y-114475654D02*
X140869711Y-114475654D01*
X140869711Y-114475654D02*
X140923078Y-114529021D01*
X143998848Y-114546844D02*
X143473408Y-115072284D01*
X143998848Y-114496844D02*
X143998848Y-114546844D01*
X143473408Y-115072284D02*
X143368088Y-115072284D01*
D45*
X146307868Y-120986624D02*
X143407428Y-120986624D01*
X143407428Y-120986624D02*
X143168088Y-120747284D01*
D44*
X141441488Y-110407444D02*
X141523120Y-110489076D01*
X141523120Y-110489076D02*
X141523120Y-110857086D01*
X140991488Y-110407444D02*
X141441488Y-110407444D01*
X120307689Y-107193765D02*
X120307689Y-107182124D01*
X120307689Y-107182124D02*
X120307689Y-106757860D01*
X120309448Y-107195524D02*
X120307689Y-107193765D01*
X120288692Y-104516273D02*
X120288692Y-104940537D01*
X120288692Y-104493400D02*
X120288692Y-104516273D01*
X120289128Y-104492964D02*
X120288692Y-104493400D01*
X124293088Y-109772284D02*
X123868088Y-109772284D01*
X124293088Y-109772284D02*
X124843088Y-109772284D01*
X124843088Y-109772284D02*
X125393088Y-109222284D01*
X143543784Y-98597284D02*
X143553603Y-98587465D01*
X144031744Y-98587465D02*
X143553603Y-98587465D01*
X110511288Y-112577724D02*
X110511288Y-112977724D01*
X106529229Y-147668436D02*
X106608077Y-147747284D01*
X106529229Y-147362548D02*
X106529229Y-147668436D01*
X154689288Y-134398924D02*
X154289288Y-134398924D01*
X154209601Y-134319237D02*
X154209601Y-134155771D01*
X154289288Y-134398924D02*
X154209601Y-134319237D01*
X137803491Y-152407437D02*
X136485475Y-152407437D01*
X138065542Y-152669488D02*
X137803491Y-152407437D01*
X136485475Y-152407437D02*
X136206873Y-152686039D01*
X154689288Y-133898924D02*
X154689288Y-134398924D01*
X154689288Y-133648781D02*
X154689288Y-133898924D01*
X155800788Y-132537281D02*
X154689288Y-133648781D01*
X156708085Y-132537281D02*
X155800788Y-132537281D01*
X156768088Y-132597284D02*
X156708085Y-132537281D01*
X157425768Y-127139604D02*
X157943088Y-126622284D01*
X157367568Y-127139604D02*
X157425768Y-127139604D01*
X160083968Y-127113164D02*
X159593088Y-126622284D01*
X160083968Y-127147284D02*
X160083968Y-127113164D01*
X142183092Y-155048990D02*
X141618088Y-153722284D01*
X139046071Y-155865432D02*
X138793088Y-155272284D01*
X148047147Y-104930380D02*
X147664051Y-104547284D01*
X147664051Y-104547284D02*
X147643088Y-104547284D01*
X145931449Y-103133923D02*
X145918088Y-103147284D01*
X145931449Y-102095287D02*
X145931449Y-103133923D01*
X154653728Y-135455564D02*
X154653728Y-134434484D01*
X154653728Y-134434484D02*
X154689288Y-134398924D01*
X153606048Y-131884324D02*
X153218088Y-132272284D01*
X153613928Y-131884324D02*
X153606048Y-131884324D01*
X153170368Y-130220004D02*
X152843088Y-130547284D01*
X153170368Y-130131724D02*
X153170368Y-130220004D01*
X160768088Y-131097284D02*
X160768088Y-131597284D01*
X141410337Y-107275605D02*
X141410337Y-108037605D01*
X141410337Y-108037605D02*
X141400177Y-108047765D01*
X127191258Y-104826286D02*
X126424844Y-104826287D01*
X126547090Y-104826286D02*
X126547089Y-104826287D01*
X126547089Y-104826287D02*
X126424844Y-104826287D01*
X111936288Y-113452724D02*
X112336288Y-113452724D01*
X111536288Y-113452724D02*
X111936288Y-113452724D01*
X111136288Y-113452724D02*
X111536288Y-113452724D01*
X110511288Y-113377724D02*
X111061288Y-113377724D01*
X111061288Y-113377724D02*
X111136288Y-113452724D01*
X110511288Y-112977724D02*
X110511288Y-113377724D01*
X108305928Y-110870284D02*
X108305928Y-111779604D01*
X108305928Y-111779604D02*
X108311008Y-111784684D01*
X108289328Y-112678764D02*
X108289328Y-111806364D01*
X108289328Y-111806364D02*
X108311008Y-111784684D01*
X108286608Y-112678764D02*
X107868088Y-113097284D01*
X108289328Y-112678764D02*
X108286608Y-112678764D01*
X108744487Y-150858997D02*
X109543088Y-150697284D01*
X106457923Y-152178001D02*
X105593088Y-151472284D01*
X106457923Y-152178001D02*
X105879599Y-152931686D01*
X114920794Y-101680840D02*
X115293088Y-102522284D01*
X111023328Y-99870793D02*
X111018088Y-102022284D01*
X113819875Y-98552661D02*
X114593088Y-98772284D01*
X114150194Y-96639156D02*
X113819875Y-98552661D01*
X113748707Y-95778164D02*
X114150194Y-96639156D01*
X148331017Y-100671882D02*
X147752693Y-101425567D01*
X147752693Y-101425567D02*
X145931449Y-102095287D01*
X132463097Y-96580845D02*
X132478337Y-96565605D01*
X134491258Y-110626286D02*
X134491258Y-111395454D01*
X134618088Y-111499456D02*
X134618088Y-111522284D01*
X134491258Y-111395454D02*
X134618088Y-111522284D01*
X134468088Y-111349456D02*
X134618088Y-111499456D01*
X143648875Y-110806499D02*
X143568099Y-110887275D01*
X144920363Y-110806499D02*
X143648875Y-110806499D01*
X143568099Y-110887275D02*
X143268100Y-111187274D01*
X145192648Y-114481604D02*
X145192648Y-114546844D01*
X143998848Y-114496844D02*
X145177408Y-114496844D01*
X145177408Y-114496844D02*
X145192648Y-114481604D01*
X140239894Y-114475654D02*
X139269614Y-114475654D01*
X139269614Y-114475654D02*
X139249294Y-114495974D01*
X127191258Y-106826286D02*
X126264086Y-106826286D01*
X142012568Y-110491764D02*
X142368088Y-110847284D01*
X142012568Y-110407444D02*
X142012568Y-110491764D01*
X142012568Y-110407444D02*
X140991488Y-110407444D01*
X144910203Y-109831139D02*
X144910203Y-110796339D01*
X144910203Y-110796339D02*
X144920363Y-110806499D01*
X141410337Y-107275605D02*
X141410337Y-106905035D01*
X141410337Y-106905035D02*
X141868088Y-106447284D01*
X141497529Y-106076725D02*
X141868088Y-106447284D01*
X141410337Y-106076725D02*
X141497529Y-106076725D01*
X141384937Y-105182645D02*
X141384937Y-106051325D01*
X141384937Y-106051325D02*
X141410337Y-106076725D01*
X141379857Y-104308885D02*
X141379857Y-105177565D01*
X141379857Y-105177565D02*
X141384937Y-105182645D01*
X141405257Y-103369085D02*
X141405257Y-104283485D01*
X141405257Y-104283485D02*
X141379857Y-104308885D01*
X141446287Y-103369085D02*
X141868088Y-102947284D01*
X141405257Y-103369085D02*
X141446287Y-103369085D01*
X138641391Y-157874070D02*
X139046071Y-155865432D01*
X138641391Y-157874070D02*
X139004941Y-158751756D01*
X163706368Y-136309004D02*
X164068088Y-135947284D01*
X163624248Y-136309004D02*
X163706368Y-136309004D01*
X161886808Y-135328564D02*
X162268088Y-134947284D01*
X161846248Y-135328564D02*
X161886808Y-135328564D01*
X159518248Y-138811324D02*
X159518248Y-139097444D01*
X159518248Y-139097444D02*
X159768088Y-139347284D01*
X159378968Y-139829444D02*
X159378968Y-139736404D01*
X159378968Y-139736404D02*
X159768088Y-139347284D01*
X163768087Y-130947283D02*
X163468088Y-130647284D01*
X163770208Y-130949404D02*
X163768087Y-130947283D01*
X163770208Y-131115884D02*
X163770208Y-130949404D01*
X162868087Y-130947283D02*
X162568088Y-130647284D01*
X162868087Y-131068045D02*
X162868087Y-130947283D01*
X162810088Y-131126044D02*
X162868087Y-131068045D01*
X161910928Y-130990124D02*
X161568088Y-130647284D01*
X161910928Y-131136204D02*
X161910928Y-130990124D01*
X161910928Y-131136204D02*
X162799928Y-131136204D01*
X162799928Y-131136204D02*
X162810088Y-131126044D01*
X160768088Y-131097284D02*
X161872008Y-131097284D01*
X161872008Y-131097284D02*
X161910928Y-131136204D01*
X109389328Y-112678764D02*
X109439328Y-112678764D01*
X109439328Y-112678764D02*
X109940368Y-112177724D01*
X109940368Y-112177724D02*
X110111288Y-112177724D01*
X110111288Y-112177724D02*
X110511288Y-112177724D01*
X133768088Y-112897284D02*
X135143088Y-112897284D01*
X135143088Y-112897284D02*
X135193088Y-112847284D01*
X133991258Y-112024114D02*
X133768088Y-112247284D01*
X133768088Y-112247284D02*
X133768088Y-112897284D01*
X133991258Y-110626286D02*
X133991258Y-112024114D01*
X126268088Y-94997284D02*
X125143088Y-94997284D01*
X125143088Y-94997284D02*
X123943087Y-96197285D01*
X123943087Y-96197285D02*
X123643088Y-96497284D01*
X125893088Y-101597284D02*
X125893088Y-102372284D01*
X125893088Y-102372284D02*
X127145260Y-102372284D01*
X127145260Y-102372284D02*
X127191258Y-102326286D01*
X127191258Y-102326286D02*
X127891258Y-102326286D01*
X127891258Y-102326286D02*
X127951259Y-102386287D01*
X127951259Y-103766285D02*
X127891258Y-103826286D01*
X127951259Y-102386287D02*
X127951259Y-103766285D01*
X127891258Y-103826286D02*
X127191258Y-103826286D01*
X127164459Y-102353085D02*
X127191258Y-102326286D01*
X114944728Y-112587324D02*
X116486088Y-112587324D01*
X116486088Y-112587324D02*
X117700248Y-113801484D01*
X117700248Y-113801484D02*
X117700248Y-113851484D01*
X136347340Y-95627272D02*
X139193088Y-98473020D01*
X128461889Y-96907285D02*
X129741902Y-95627272D01*
X125280691Y-96907285D02*
X128461889Y-96907285D01*
X103255189Y-104437273D02*
X117750703Y-104437273D01*
X129741902Y-95627272D02*
X136347340Y-95627272D01*
X84833078Y-125226920D02*
X84833078Y-122859384D01*
X139193088Y-98473020D02*
X139193088Y-98897284D01*
X84833078Y-122859384D02*
X103255189Y-104437273D01*
X117750703Y-104437273D02*
X125280691Y-96907285D01*
X138291258Y-103826286D02*
X136572090Y-103826286D01*
X136572090Y-103826286D02*
X135993088Y-103247284D01*
X138205730Y-98138728D02*
X138205730Y-98347299D01*
X132038657Y-95987283D02*
X136054285Y-95987283D01*
X125429813Y-97267295D02*
X130758645Y-97267295D01*
X107693088Y-104797284D02*
X117899825Y-104797283D01*
X117899825Y-104797283D02*
X125429813Y-97267295D01*
X130758645Y-97267295D02*
X132038657Y-95987283D01*
X85393088Y-127097284D02*
X107693088Y-104797284D01*
X136054285Y-95987283D02*
X138205730Y-98138728D01*
X138205730Y-98347299D02*
X138205730Y-98771563D01*
X138291258Y-104326286D02*
X136197090Y-104326286D01*
X136197090Y-104326286D02*
X136043088Y-104172284D01*
X122043596Y-103326286D02*
X121936686Y-103219376D01*
X127191258Y-103326286D02*
X122043596Y-103326286D01*
X121936686Y-103219376D02*
X121636687Y-102919377D01*
X121168088Y-93897284D02*
X121168088Y-94747284D01*
X121168088Y-94747284D02*
X121143088Y-94772284D01*
X127191258Y-102826286D02*
X126354954Y-102826286D01*
X122739133Y-102947283D02*
X122486177Y-102694327D01*
X126233957Y-102947283D02*
X122739133Y-102947283D01*
X126354954Y-102826286D02*
X126233957Y-102947283D01*
X122486177Y-102694327D02*
X122186178Y-102394328D01*
X122468088Y-94297284D02*
X122618088Y-94447284D01*
X122468088Y-93897284D02*
X122468088Y-94297284D01*
D46*
X165192608Y-131914044D02*
X165317608Y-131914044D01*
X165317608Y-131914044D02*
X166502527Y-130729125D01*
X166502527Y-130729125D02*
X167914729Y-130729125D01*
X167914729Y-130729125D02*
X167976729Y-130667125D01*
X167976729Y-130667125D02*
X167976729Y-129171123D01*
X146318088Y-127172284D02*
X146318088Y-127447284D01*
X167976729Y-129171123D02*
X164495605Y-125689999D01*
X164495605Y-125689999D02*
X147800373Y-125689999D01*
X147800373Y-125689999D02*
X146318088Y-127172284D01*
D44*
X109893088Y-121972284D02*
X115893088Y-121972284D01*
X163770208Y-132215884D02*
X164890768Y-132215884D01*
X164890768Y-132215884D02*
X165192608Y-131914044D01*
X162810088Y-132226044D02*
X163760048Y-132226044D01*
X163760048Y-132226044D02*
X163770208Y-132215884D01*
X161910928Y-132236204D02*
X162799928Y-132236204D01*
X162799928Y-132236204D02*
X162810088Y-132226044D01*
X160768088Y-132097284D02*
X161772008Y-132097284D01*
X161772008Y-132097284D02*
X161910928Y-132236204D01*
D46*
X80456248Y-123422764D02*
X80456248Y-124222764D01*
X80456248Y-124222764D02*
X80456248Y-130622764D01*
X79056248Y-131247764D02*
X79831248Y-131247764D01*
X79831248Y-131247764D02*
X80456248Y-130622764D01*
X77306248Y-131247764D02*
X79056248Y-131247764D01*
X79056248Y-122797764D02*
X79831248Y-122797764D01*
X79831248Y-122797764D02*
X80456248Y-123422764D01*
X77306248Y-122797764D02*
X79056248Y-122797764D01*
D44*
X126278088Y-89922284D02*
X126278088Y-91687284D01*
X126278088Y-91687284D02*
X126268088Y-91697284D01*
X116750248Y-111851484D02*
X117313888Y-111851484D01*
X117313888Y-111851484D02*
X117818088Y-111347284D01*
X128093088Y-116347284D02*
X113845718Y-116347284D01*
X129343088Y-117597284D02*
X128093088Y-116347284D01*
X113845718Y-116347284D02*
X112768088Y-116347284D01*
X136814086Y-107826286D02*
X136168088Y-108472284D01*
X138291258Y-107826286D02*
X136814086Y-107826286D01*
X138291258Y-108326286D02*
X137591258Y-108326286D01*
X137344393Y-108573151D02*
X137344393Y-108586254D01*
X137591258Y-108326286D02*
X137344393Y-108573151D01*
X129867614Y-118947758D02*
X130167613Y-118647759D01*
X126518088Y-118972284D02*
X129843088Y-118972284D01*
X129843088Y-118972284D02*
X129867614Y-118947758D01*
X102193824Y-123822284D02*
X119518088Y-123822284D01*
X101218088Y-125222284D02*
X101218088Y-124798020D01*
X101218088Y-124798020D02*
X102193824Y-123822284D01*
X115937062Y-101259888D02*
X116718088Y-101747284D01*
D45*
X94843088Y-125697284D02*
X95368088Y-125697284D01*
D44*
X113093088Y-153447284D02*
X113472161Y-154862883D01*
X111393088Y-152097284D02*
X113093088Y-153447284D01*
X111293088Y-151297284D02*
X111393088Y-152097284D01*
X109193088Y-149622284D02*
X111293088Y-151297284D01*
X109208324Y-148693967D02*
X109193088Y-149622284D01*
X113472161Y-154862883D02*
X113043088Y-155422284D01*
X149692047Y-103847284D02*
X150968088Y-102097284D01*
X148343088Y-105697284D02*
X149692047Y-103847284D01*
X149692047Y-103847284D02*
X148468088Y-102972284D01*
X150968088Y-102097284D02*
X150268088Y-98447284D01*
X147377509Y-105803068D02*
X148343088Y-105697284D01*
X107198867Y-146489860D02*
X109208324Y-148693967D01*
X115526104Y-99963789D02*
X115937062Y-101259888D01*
X145467612Y-104260317D02*
X147377509Y-105803068D01*
X137049274Y-153090440D02*
X137403019Y-154381222D01*
X138168088Y-156347284D02*
X137568088Y-156847284D01*
X137403019Y-154381222D02*
X138168088Y-156347284D01*
X123374048Y-106769924D02*
X124874048Y-106769924D01*
X126491258Y-105826286D02*
X127191258Y-105826286D01*
X124874048Y-106769924D02*
X125817686Y-105826286D01*
X125817686Y-105826286D02*
X126491258Y-105826286D01*
X121911208Y-107197284D02*
X122946688Y-107197284D01*
X122946688Y-107197284D02*
X123374048Y-106769924D01*
X121409448Y-107195524D02*
X121909448Y-107195524D01*
X121909448Y-107195524D02*
X121911208Y-107197284D01*
X121389128Y-104492964D02*
X121889128Y-104492964D01*
X122012168Y-104369924D02*
X123374048Y-104369924D01*
X121889128Y-104492964D02*
X122012168Y-104369924D01*
X125461928Y-104376124D02*
X123380248Y-104376124D01*
X123380248Y-104376124D02*
X123374048Y-104369924D01*
X121198088Y-89922284D02*
X121198088Y-91267284D01*
X121198088Y-91267284D02*
X121168088Y-91297284D01*
X122468088Y-89922284D02*
X122468088Y-91297284D01*
X127131255Y-105386289D02*
X127191258Y-105326286D01*
X126072093Y-105386289D02*
X127131255Y-105386289D01*
X125961928Y-105276124D02*
X126072093Y-105386289D01*
X125461928Y-105276124D02*
X125961928Y-105276124D01*
X112961288Y-112577724D02*
X114035128Y-112577724D01*
X114035128Y-112577724D02*
X114044728Y-112587324D01*
X132268087Y-112947285D02*
X132168087Y-113047285D01*
X132268087Y-111531193D02*
X132268087Y-112947285D01*
X132491258Y-111308022D02*
X132268087Y-111531193D01*
X132491258Y-110626286D02*
X132491258Y-111308022D01*
X132168087Y-113047285D02*
X131868088Y-113347284D01*
X128560918Y-121317821D02*
X128617288Y-121261451D01*
X128560918Y-122041408D02*
X128560918Y-121317821D01*
X123528098Y-127074228D02*
X128560918Y-122041408D01*
X128617288Y-121261451D02*
X128617288Y-120837187D01*
X122368088Y-97697284D02*
X122368088Y-95884350D01*
X122368088Y-95884350D02*
X124455154Y-93797284D01*
X107118088Y-103122284D02*
X116943088Y-103122284D01*
X126693087Y-93797284D02*
X129768089Y-90722282D01*
X116943088Y-103122284D02*
X122368088Y-97697284D01*
X129768089Y-90722282D02*
X130068088Y-90422283D01*
X124455154Y-93797284D02*
X126693087Y-93797284D01*
X129418088Y-98753116D02*
X129418088Y-98497284D01*
X129491258Y-99526286D02*
X129491258Y-98826286D01*
X129491258Y-98826286D02*
X129418088Y-98753116D01*
X131991258Y-111298890D02*
X131713055Y-111577093D01*
X130848076Y-113182295D02*
X130548077Y-113482294D01*
X131991258Y-110626286D02*
X131991258Y-111298890D01*
X131713055Y-112317316D02*
X130848076Y-113182295D01*
X131713055Y-111577093D02*
X131713055Y-112317316D01*
X135491258Y-110626286D02*
X135491258Y-110845454D01*
X135491258Y-110845454D02*
X135518088Y-110872284D01*
X135518088Y-110872284D02*
X135518088Y-111382368D01*
X135518088Y-111382368D02*
X137687574Y-113551854D01*
X137687574Y-113551854D02*
X138187574Y-113551854D01*
X139249294Y-113395974D02*
X140219574Y-113395974D01*
X140219574Y-113395974D02*
X140239894Y-113375654D01*
X138187574Y-113551854D02*
X139093414Y-113551854D01*
X139093414Y-113551854D02*
X139249294Y-113395974D01*
X130405024Y-119485167D02*
X130705023Y-119185168D01*
X130199400Y-119690791D02*
X130405024Y-119485167D01*
X123156339Y-119690791D02*
X130199400Y-119690791D01*
X121649922Y-121197208D02*
X123156339Y-119690791D01*
X121649922Y-122798019D02*
X121649922Y-121197208D01*
X132342352Y-119197284D02*
X131918088Y-119197284D01*
X133868088Y-119197284D02*
X132342352Y-119197284D01*
X140803098Y-115594285D02*
X137471087Y-115594285D01*
X137471087Y-115594285D02*
X133868088Y-119197284D01*
X121225658Y-122798019D02*
X121649922Y-122798019D01*
X89043088Y-126422284D02*
X92667353Y-122798019D01*
X92667353Y-122798019D02*
X121225658Y-122798019D01*
X139250764Y-103472640D02*
X139250764Y-103048376D01*
X139250764Y-103048376D02*
X139028674Y-102826286D01*
X139028674Y-102826286D02*
X138991258Y-102826286D01*
X138991258Y-102826286D02*
X138291258Y-102826286D01*
X121168088Y-92197284D02*
X121168088Y-92997284D01*
X122468088Y-92197284D02*
X122468088Y-92997284D01*
X126843824Y-113047284D02*
X127268088Y-113047284D01*
X118133078Y-114768399D02*
X119854193Y-113047284D01*
X119854193Y-113047284D02*
X126843824Y-113047284D01*
X129788064Y-113058030D02*
X129788064Y-113482294D01*
X131491258Y-110626286D02*
X131491258Y-111289758D01*
X129788064Y-113056530D02*
X129788064Y-113058030D01*
X131353044Y-111427972D02*
X131353044Y-111491550D01*
X131491258Y-111289758D02*
X131353044Y-111427972D01*
X131353044Y-111491550D02*
X129788064Y-113056530D01*
X116518088Y-108347284D02*
X116668089Y-108497285D01*
X116668089Y-108497285D02*
X116968088Y-108797284D01*
X113868088Y-108347284D02*
X116518088Y-108347284D01*
X112961288Y-111377724D02*
X112413712Y-111377724D01*
X112361840Y-111325852D02*
X112368088Y-111322284D01*
X112413712Y-111377724D02*
X112361840Y-111325852D01*
X117493088Y-112722284D02*
X117917352Y-112722284D01*
X118718088Y-111847284D02*
X118718088Y-111347284D01*
X117917352Y-112722284D02*
X118718088Y-111921548D01*
X118718088Y-111921548D02*
X118718088Y-111847284D01*
X108618087Y-121522285D02*
X109018088Y-121122284D01*
X91993088Y-121822284D02*
X92293087Y-121522285D01*
X92293087Y-121522285D02*
X108618087Y-121522285D01*
X119118088Y-111347284D02*
X118718088Y-111347284D01*
X126693088Y-112372284D02*
X120143088Y-112372284D01*
X120143088Y-112372284D02*
X119118088Y-111347284D01*
X135620260Y-107797284D02*
X129868088Y-107797284D01*
X138291258Y-105826286D02*
X137591258Y-105826286D01*
X137591258Y-105826286D02*
X135620260Y-107797284D01*
X155867568Y-127139604D02*
X153889604Y-127139604D01*
X153889604Y-127139604D02*
X153750000Y-127000000D01*
X158156808Y-128376164D02*
X157196968Y-128376164D01*
X157196968Y-128376164D02*
X155960408Y-127139604D01*
X155960408Y-127139604D02*
X155867568Y-127139604D01*
X161583968Y-127147284D02*
X163602716Y-127147284D01*
X163602716Y-127147284D02*
X163750000Y-127000000D01*
X159218528Y-128376164D02*
X160339208Y-128376164D01*
X160339208Y-128376164D02*
X161560528Y-127154844D01*
X161560528Y-127154844D02*
X161583968Y-127154844D01*
X161649728Y-136293764D02*
X162509008Y-136293764D01*
X162509008Y-136293764D02*
X162524248Y-136309004D01*
X160746248Y-135328564D02*
X160746248Y-136290284D01*
X160746248Y-136290284D02*
X160749728Y-136293764D01*
X160018088Y-134347284D02*
X160018088Y-134600404D01*
X160018088Y-134600404D02*
X160746248Y-135328564D01*
X152883768Y-136757044D02*
X152883768Y-133714484D01*
X152883768Y-133714484D02*
X154713928Y-131884324D01*
X155398368Y-136706244D02*
X157205728Y-136706244D01*
X157205728Y-136706244D02*
X157222088Y-136722604D01*
X152883768Y-136757044D02*
X155347568Y-136757044D01*
X155347568Y-136757044D02*
X155398368Y-136706244D01*
X156768088Y-131597284D02*
X156768088Y-132097284D01*
X155717928Y-131897444D02*
X156018088Y-131597284D01*
X156018088Y-131597284D02*
X156768088Y-131597284D01*
X155672688Y-131897444D02*
X155717928Y-131897444D01*
X154713928Y-131884324D02*
X155659568Y-131884324D01*
X155659568Y-131884324D02*
X155672688Y-131897444D01*
X128394492Y-111822702D02*
X128394492Y-112474512D01*
X128318088Y-111746298D02*
X128394492Y-111822702D01*
X128394492Y-112474512D02*
X128394492Y-112898776D01*
X129473380Y-111746298D02*
X128318088Y-111746298D01*
X128318088Y-111746298D02*
X120085104Y-111746298D01*
X117317352Y-110497284D02*
X116893088Y-110497284D01*
X118836090Y-110497284D02*
X117317352Y-110497284D01*
X120085104Y-111746298D02*
X118836090Y-110497284D01*
X129991258Y-110626286D02*
X129991258Y-111228420D01*
X129991258Y-111228420D02*
X129473380Y-111746298D01*
X129123107Y-121710717D02*
X129123107Y-123692265D01*
X129123107Y-123692265D02*
X125970135Y-126845237D01*
X125970135Y-126845237D02*
X125970135Y-128889622D01*
X125970135Y-128889622D02*
X125670136Y-129189621D01*
X111136288Y-110502724D02*
X111136288Y-109990484D01*
X111136288Y-109990484D02*
X109843088Y-108697284D01*
X165233086Y-133732286D02*
X164843088Y-133732286D01*
X164843088Y-133732286D02*
X161824286Y-133732286D01*
X164868088Y-136083166D02*
X164868088Y-133757286D01*
X164868088Y-133757286D02*
X164843088Y-133732286D01*
X167041728Y-131919124D02*
X167063568Y-131897284D01*
X167063568Y-131897284D02*
X167068088Y-131897284D01*
X167068088Y-131897284D02*
X165233086Y-133732286D01*
X161824286Y-133732286D02*
X161189284Y-133097284D01*
X161189284Y-133097284D02*
X160768088Y-133097284D01*
X155398368Y-140006244D02*
X156198368Y-140006244D01*
X156198368Y-140006244D02*
X156581569Y-140389445D01*
X156581569Y-140389445D02*
X160561809Y-140389445D01*
X160561809Y-140389445D02*
X164868088Y-136083166D01*
X152883768Y-140057044D02*
X155347568Y-140057044D01*
X155347568Y-140057044D02*
X155398368Y-140006244D01*
X129491258Y-110626286D02*
X129491258Y-111219288D01*
X116445718Y-109647284D02*
X115368088Y-109647284D01*
X118495222Y-109647284D02*
X116445718Y-109647284D01*
X120234225Y-111386287D02*
X118495222Y-109647284D01*
X129324259Y-111386287D02*
X120234225Y-111386287D01*
X129491258Y-111219288D02*
X129324259Y-111386287D01*
X112961288Y-110977724D02*
X114037648Y-110977724D01*
X114037648Y-110977724D02*
X115368088Y-109647284D01*
X165192608Y-129914044D02*
X167036648Y-129914044D01*
X167036648Y-129914044D02*
X167041728Y-129919124D01*
X165192608Y-129914044D02*
X160201328Y-129914044D01*
X160201328Y-129914044D02*
X160018088Y-130097284D01*
X160018088Y-130097284D02*
X160018088Y-130347284D01*
X159518088Y-130347284D02*
X160018088Y-130347284D01*
X112293088Y-106872284D02*
X112336288Y-106915484D01*
X112336288Y-106915484D02*
X112336288Y-110102724D01*
X112336288Y-110102724D02*
X112336288Y-110502724D01*
X128991258Y-110626286D02*
X120006222Y-110626286D01*
X120006222Y-110626286D02*
X116252220Y-106872284D01*
X116252220Y-106872284D02*
X113370718Y-106872284D01*
X113370718Y-106872284D02*
X112293088Y-106872284D01*
X112961288Y-110577724D02*
X112411288Y-110577724D01*
X111493088Y-111381416D02*
X111493088Y-111723020D01*
X111936288Y-110938216D02*
X111493088Y-111381416D01*
X111936288Y-110502724D02*
X111936288Y-110938216D01*
X111493088Y-111723020D02*
X111493088Y-112147284D01*
X123578088Y-114137283D02*
X122768088Y-114947283D01*
X122768088Y-114947283D02*
X122386971Y-115328400D01*
X123218088Y-115422284D02*
X122768088Y-114972284D01*
X122768088Y-114972284D02*
X122768088Y-114947283D01*
X122764076Y-127918272D02*
X122764076Y-120911856D01*
X123125141Y-120550791D02*
X123425140Y-120250792D01*
X122764076Y-120911856D02*
X123125141Y-120550791D01*
X124568088Y-129722284D02*
X122764076Y-127918272D01*
X130491258Y-110626286D02*
X130491258Y-111602916D01*
X112938417Y-114599654D02*
X112638418Y-114299655D01*
X130491258Y-111602916D02*
X127956891Y-114137283D01*
X127956891Y-114137283D02*
X123578088Y-114137283D01*
X122386971Y-115328400D02*
X113667163Y-115328400D01*
X113667163Y-115328400D02*
X112938417Y-114599654D01*
X123268087Y-115372285D02*
X123218088Y-115422284D01*
X111230087Y-109505655D02*
X111230087Y-107784283D01*
X111230087Y-107784283D02*
X110468088Y-107022284D01*
X111936288Y-110211856D02*
X111936288Y-110502724D01*
X111230087Y-109505655D02*
X111936288Y-110211856D01*
X114245288Y-153855324D02*
X114842392Y-154452428D01*
X114842392Y-154452428D02*
X117239744Y-154452428D01*
X117239744Y-154452428D02*
X117445688Y-154246484D01*
X117445688Y-154246484D02*
X117445688Y-154221084D01*
X110168088Y-149447284D02*
X110312365Y-149447284D01*
X110312365Y-149447284D02*
X110715695Y-149850614D01*
X149243824Y-118297284D02*
X136093088Y-118297284D01*
X149768088Y-118397284D02*
X149343824Y-118397284D01*
X149343824Y-118397284D02*
X149243824Y-118297284D01*
X146174342Y-108153538D02*
X146868088Y-108847284D01*
X144959403Y-108713539D02*
X144959403Y-108213539D01*
X144959403Y-108213539D02*
X145019404Y-108153538D01*
X145019404Y-108153538D02*
X146174342Y-108153538D01*
X122910373Y-118329999D02*
X128633615Y-118329999D01*
X122593088Y-118647284D02*
X122910373Y-118329999D01*
X128633615Y-118329999D02*
X129057879Y-118329999D01*
X113718088Y-152122284D02*
X114245288Y-153855324D01*
X110715695Y-149850614D02*
X113718088Y-152122284D01*
X142611848Y-114947284D02*
X142343088Y-114947284D01*
X142850768Y-114308364D02*
X142850768Y-114708364D01*
X142850768Y-114708364D02*
X142611848Y-114947284D01*
X139535246Y-153277267D02*
X139790531Y-153277267D01*
X139790531Y-153277267D02*
X139795912Y-153282648D01*
X139158390Y-153654123D02*
X139535246Y-153277267D01*
D46*
X141016888Y-160982564D02*
X142068088Y-163397284D01*
D44*
X139468088Y-157247284D02*
X141016888Y-160982564D01*
X140043088Y-155872284D02*
X139468088Y-157247284D01*
X139158390Y-153654123D02*
X140043088Y-155872284D01*
X145618088Y-101072284D02*
X143960241Y-103103670D01*
X146793088Y-100897284D02*
X145618088Y-101072284D01*
X149260529Y-97674157D02*
X146793088Y-100897284D01*
X143960241Y-103103670D02*
X143960241Y-109658651D01*
X143960241Y-109658651D02*
X143265728Y-110353164D01*
X143265728Y-110353164D02*
X143165728Y-110353164D01*
X130989286Y-117772284D02*
X127914286Y-114697284D01*
X138087574Y-114451854D02*
X134767144Y-117772284D01*
X134767144Y-117772284D02*
X130989286Y-117772284D01*
X138187574Y-114451854D02*
X138087574Y-114451854D01*
X127914286Y-114697284D02*
X125967352Y-114697284D01*
X125967352Y-114697284D02*
X125543088Y-114697284D01*
X116393088Y-98672284D02*
X117768088Y-98672284D01*
X113456059Y-100022284D02*
X113804119Y-100766764D01*
X112743088Y-98497284D02*
X113456059Y-100022284D01*
X113456059Y-100022284D02*
X116393088Y-98672284D01*
X110218088Y-90697284D02*
X111668088Y-93647284D01*
X113593088Y-97447284D02*
X112743088Y-98497284D01*
X113243088Y-96697284D02*
X113593088Y-97447284D01*
X112918088Y-96372284D02*
X113243088Y-96697284D01*
X111668088Y-93647284D02*
X112918088Y-96372284D01*
X155589288Y-134398924D02*
X155966448Y-134398924D01*
X155966448Y-134398924D02*
X156768088Y-133597284D01*
X155772168Y-130131724D02*
X155772168Y-130897964D01*
X155772168Y-130897964D02*
X155672688Y-130997444D01*
X154868088Y-130747284D02*
X154868088Y-130135804D01*
X154868088Y-130135804D02*
X154872168Y-130131724D01*
X156093088Y-133097284D02*
X156069591Y-133097284D01*
X156768088Y-133097284D02*
X156069590Y-133097283D01*
X156069591Y-133097284D02*
X156069590Y-133097283D01*
X154070368Y-130131724D02*
X154872168Y-130131724D01*
X148908079Y-116122874D02*
X149208078Y-116422873D01*
X148640498Y-115855293D02*
X148908079Y-116122874D01*
X141887081Y-115555294D02*
X142187080Y-115855293D01*
X142187080Y-115855293D02*
X148640498Y-115855293D01*
X138291258Y-102326286D02*
X139372090Y-102326286D01*
X139372090Y-102326286D02*
X139418088Y-102372284D01*
X139418088Y-102372284D02*
X139468088Y-102422284D01*
X138291258Y-101826286D02*
X139689086Y-101826286D01*
X139689086Y-101826286D02*
X140765207Y-100750165D01*
X140765207Y-100750165D02*
X140765207Y-100697168D01*
X138291258Y-101326286D02*
X139397112Y-101326286D01*
X139397112Y-101326286D02*
X139582358Y-101141040D01*
X155553728Y-135455564D02*
X156659808Y-135455564D01*
X156659808Y-135455564D02*
X157518088Y-134597284D01*
X157518088Y-134597284D02*
X157518088Y-134347284D01*
X158156808Y-129276164D02*
X158018088Y-129414884D01*
X158018088Y-129414884D02*
X158018088Y-130347284D01*
X159513168Y-137129844D02*
X159513168Y-137906244D01*
X159513168Y-137906244D02*
X159518248Y-137911324D01*
X159518088Y-134347284D02*
X159518088Y-136224924D01*
X159518088Y-136224924D02*
X159513168Y-136229844D01*
X159218528Y-129276164D02*
X159118528Y-129276164D01*
X159118528Y-129276164D02*
X158518088Y-129876604D01*
X158518088Y-129876604D02*
X158518088Y-130347284D01*
X157222088Y-137622604D02*
X157222088Y-138586964D01*
X157222088Y-138586964D02*
X157237328Y-138602204D01*
X157237328Y-139502204D02*
X158018088Y-139502204D01*
X158018088Y-139502204D02*
X158151728Y-139502204D01*
X158018088Y-138922284D02*
X158018088Y-139346548D01*
X158018088Y-139346548D02*
X158018088Y-139502204D01*
X160768088Y-133597284D02*
X160768088Y-133947284D01*
X158151728Y-139502204D02*
X158478968Y-139829444D01*
X138041340Y-109677272D02*
X139273076Y-109677272D01*
X137510333Y-109146265D02*
X138041340Y-109677272D01*
X139343089Y-109747285D02*
X139643088Y-110047284D01*
X127191258Y-107326286D02*
X127891258Y-107326286D01*
X129711236Y-109146264D02*
X137510333Y-109146265D01*
X139273076Y-109677272D02*
X139343089Y-109747285D01*
X127891258Y-107326286D02*
X129711236Y-109146264D01*
X140290911Y-118932294D02*
X139866647Y-118932294D01*
X150578088Y-122822284D02*
X150578088Y-122398020D01*
X150578088Y-122398020D02*
X147112362Y-118932294D01*
X147112362Y-118932294D02*
X140290911Y-118932294D01*
D47*
X159018088Y-135122284D02*
X158806133Y-135334239D01*
D44*
X158806133Y-135334239D02*
X158806133Y-135460329D01*
D47*
X159018088Y-134347284D02*
X159018088Y-135122284D01*
D44*
X149863163Y-122500771D02*
X134392771Y-122500771D01*
X134392771Y-122500771D02*
X131358086Y-119466086D01*
X131358086Y-119466086D02*
X131358086Y-118650216D01*
X131358086Y-118650216D02*
X128055154Y-115347284D01*
X128055154Y-115347284D02*
X127693088Y-115347284D01*
X127693088Y-115347284D02*
X127689075Y-115343271D01*
X126418088Y-107899456D02*
X126418088Y-109897284D01*
X127191258Y-107826286D02*
X126491258Y-107826286D01*
X126491258Y-107826286D02*
X126418088Y-107899456D01*
D47*
X157943088Y-135531414D02*
X157943088Y-135722284D01*
D44*
X157943088Y-135722284D02*
X157989068Y-135768264D01*
D47*
X158518088Y-134347284D02*
X158518088Y-134956414D01*
X158518088Y-134956414D02*
X157943088Y-135531414D01*
D44*
X130168088Y-87947284D02*
X130592352Y-87947284D01*
X144443088Y-89072284D02*
X144443088Y-91997284D01*
X130592352Y-87947284D02*
X130695640Y-87843996D01*
X130695640Y-87843996D02*
X143214800Y-87843996D01*
X143214800Y-87843996D02*
X144443088Y-89072284D01*
X158018088Y-134347284D02*
X158018088Y-134855470D01*
X158018088Y-134855470D02*
X157076274Y-135797284D01*
X157076274Y-135797284D02*
X156924494Y-135949064D01*
X128991258Y-99526286D02*
X128991258Y-99151286D01*
X128991258Y-99151286D02*
X128660482Y-98820510D01*
X128660482Y-98820510D02*
X128660482Y-98557710D01*
X136962710Y-110626286D02*
X137310964Y-110974540D01*
X136491258Y-110626286D02*
X136962710Y-110626286D01*
X137310964Y-110974540D02*
X137610963Y-111274539D01*
X138248066Y-112591843D02*
X137948067Y-112891842D01*
X141534247Y-112591843D02*
X138248066Y-112591843D01*
X142350768Y-113408364D02*
X141534247Y-112591843D01*
X142850768Y-113408364D02*
X142350768Y-113408364D01*
X142850768Y-113408364D02*
X143987328Y-113408364D01*
X143987328Y-113408364D02*
X143998848Y-113396844D01*
X145192648Y-113381604D02*
X144014088Y-113381604D01*
X144014088Y-113381604D02*
X143998848Y-113396844D01*
X139747090Y-108826286D02*
X140228248Y-109307444D01*
X140228248Y-109307444D02*
X140991488Y-109307444D01*
X138291258Y-108826286D02*
X139747090Y-108826286D01*
X142012568Y-109307444D02*
X143020008Y-109307444D01*
X143020008Y-109307444D02*
X143165728Y-109453164D01*
X140991488Y-109307444D02*
X142012568Y-109307444D01*
X135991258Y-110626286D02*
X135991258Y-111219288D01*
X135991258Y-111219288D02*
X136606519Y-111834549D01*
X136606519Y-111834549D02*
X144942313Y-111834549D01*
X144942313Y-111834549D02*
X145970363Y-110806499D01*
X145970363Y-110806499D02*
X146020363Y-110806499D01*
X146010203Y-109831139D02*
X146010203Y-108864339D01*
X146010203Y-108864339D02*
X145859403Y-108713539D01*
X146020363Y-110806499D02*
X146020363Y-109841299D01*
X146020363Y-109841299D02*
X146010203Y-109831139D01*
X136867616Y-160534766D02*
X136833829Y-160534766D01*
X136952342Y-160619492D02*
X136867616Y-160534766D01*
X108073928Y-97357657D02*
X110142866Y-97931043D01*
X115075546Y-95238643D02*
X116718088Y-94522284D01*
X111718088Y-98197284D02*
X111718088Y-98007145D01*
X111718088Y-98007145D02*
X112156317Y-97568916D01*
X110142866Y-97931043D02*
X110558448Y-98873855D01*
X110142866Y-97931043D02*
X112156317Y-97568916D01*
X140673926Y-157032167D02*
X142604044Y-156065258D01*
X142604044Y-156065258D02*
X142968088Y-156847284D01*
X143647514Y-157823316D02*
X144068088Y-157647284D01*
X137294568Y-105331002D02*
X136994569Y-105631001D01*
X137299284Y-105326286D02*
X137294568Y-105331002D01*
X138291258Y-105326286D02*
X137299284Y-105326286D01*
X127191258Y-104326286D02*
X127891258Y-104326286D01*
X127891258Y-104326286D02*
X128612256Y-105047284D01*
X140310337Y-106076725D02*
X140310337Y-105208045D01*
X140310337Y-105208045D02*
X140284937Y-105182645D01*
X138291258Y-105326286D02*
X140141296Y-105326286D01*
X140141296Y-105326286D02*
X140284937Y-105182645D01*
X127191258Y-108326286D02*
X128382126Y-108326286D01*
X138768089Y-110347285D02*
X139068088Y-110647284D01*
X137361211Y-109506275D02*
X137892219Y-110037283D01*
X137892219Y-110037283D02*
X138458087Y-110037283D01*
X138458087Y-110037283D02*
X138768089Y-110347285D01*
X129562114Y-109506274D02*
X137361211Y-109506275D01*
X128382126Y-108326286D02*
X129562114Y-109506274D01*
X146812403Y-117537274D02*
X139700011Y-117537274D01*
X139700011Y-117537274D02*
X139500011Y-117737274D01*
X137593824Y-110597284D02*
X138018088Y-110597284D01*
X137543826Y-110597284D02*
X137593824Y-110597284D01*
X128931257Y-109866285D02*
X136812827Y-109866285D01*
X127891258Y-108826286D02*
X128931257Y-109866285D01*
X136812827Y-109866285D02*
X137543826Y-110597284D01*
X127191258Y-108826286D02*
X127891258Y-108826286D01*
X147004248Y-116759865D02*
X147229294Y-116984911D01*
X137180669Y-116759865D02*
X147004248Y-116759865D01*
X147229294Y-116984911D02*
X147529293Y-117284910D01*
X126443087Y-97647285D02*
X126143088Y-97947284D01*
X131991258Y-98291650D02*
X131346893Y-97647285D01*
X131991258Y-99526286D02*
X131991258Y-98291650D01*
X131346893Y-97647285D02*
X126443087Y-97647285D01*
X87018091Y-118847281D02*
X101808077Y-104057295D01*
X101808077Y-104057295D02*
X117258077Y-104057295D01*
X117258077Y-104057295D02*
X124743088Y-96572284D01*
X124743088Y-96572284D02*
X124818088Y-96572284D01*
X124818088Y-96572284D02*
X124820903Y-96575099D01*
X146118088Y-96396548D02*
X146118088Y-95972284D01*
X146418087Y-90029019D02*
X146418087Y-95672285D01*
X112380526Y-87022284D02*
X143411352Y-87022284D01*
X146418087Y-95672285D02*
X146118088Y-95972284D01*
X106943088Y-95197284D02*
X106943088Y-92459722D01*
X143411352Y-87022284D02*
X146418087Y-90029019D01*
X146118088Y-97533046D02*
X146118088Y-96396548D01*
X106943088Y-92459722D02*
X112380526Y-87022284D01*
X147163963Y-98578921D02*
X146118088Y-97533046D01*
X140368824Y-99522284D02*
X140518824Y-99522284D01*
X134187255Y-100922283D02*
X138968825Y-100922283D01*
X133491258Y-100226286D02*
X134187255Y-100922283D01*
X140518824Y-99522284D02*
X140943088Y-99522284D01*
X138968825Y-100922283D02*
X140368824Y-99522284D01*
X133491258Y-99526286D02*
X133491258Y-100226286D01*
X108718088Y-95347284D02*
X106943088Y-95197284D01*
X109762510Y-97115365D02*
X108718088Y-95347284D01*
X111353342Y-95846932D02*
X109762510Y-97115365D01*
X107893088Y-155871082D02*
X111409280Y-159387274D01*
X134018824Y-159387274D02*
X134443088Y-159387274D01*
X111409280Y-159387274D02*
X134018824Y-159387274D01*
X119602961Y-104161129D02*
X119602961Y-104988840D01*
X124241806Y-99522284D02*
X119602961Y-104161129D01*
X127951259Y-100855455D02*
X126618088Y-99522284D01*
X126618088Y-99522284D02*
X124241806Y-99522284D01*
X127951259Y-101766285D02*
X127951259Y-100855455D01*
X127891258Y-101826286D02*
X127951259Y-101766285D01*
X127191258Y-101826286D02*
X127891258Y-101826286D01*
X119602961Y-104988840D02*
X119602961Y-105413104D01*
X144868088Y-161772284D02*
X144868088Y-160694654D01*
X144868088Y-160694654D02*
X143295718Y-159122284D01*
X143295718Y-159122284D02*
X143143088Y-159122284D01*
X107046653Y-155024647D02*
X107893088Y-155871082D01*
X108242015Y-155473357D02*
X107893088Y-155822284D01*
X107893088Y-155822284D02*
X107893088Y-155871082D01*
X142816022Y-158167732D02*
X143143088Y-159122284D01*
X141401025Y-158787538D02*
X142816022Y-158167732D01*
X119733077Y-87382295D02*
X143262231Y-87382295D01*
X143262231Y-87382295D02*
X145798557Y-89918621D01*
X145798557Y-92133030D02*
X145798557Y-92557294D01*
X115168088Y-91947284D02*
X119733077Y-87382295D01*
X145798557Y-89918621D02*
X145798557Y-92133030D01*
X133991258Y-99526286D02*
X133991258Y-100217154D01*
X140303089Y-98912283D02*
X141286334Y-98912283D01*
X133991258Y-100217154D02*
X134060391Y-100286287D01*
X134060391Y-100286287D02*
X138929085Y-100286287D01*
X138929085Y-100286287D02*
X140303089Y-98912283D01*
X141286334Y-98912283D02*
X141367985Y-98993934D01*
X141367985Y-98993934D02*
X141667984Y-99293933D01*
X149643088Y-100447284D02*
X149438428Y-100447284D01*
X149438428Y-100447284D02*
X148909340Y-99918196D01*
X115168088Y-91947284D02*
X114695190Y-94422965D01*
X113347219Y-94917172D02*
X114695190Y-94422965D01*
X105301276Y-153685372D02*
X105301276Y-153780472D01*
X105301276Y-153780472D02*
X105493088Y-153972284D01*
X105493088Y-153972284D02*
X105493088Y-154392314D01*
X105493088Y-154392314D02*
X111048058Y-159947284D01*
X137456042Y-159947284D02*
X137783834Y-160275076D01*
X111048058Y-159947284D02*
X137456042Y-159947284D01*
X129991258Y-99526286D02*
X129991258Y-100226286D01*
X127891223Y-100286287D02*
X126767209Y-99162273D01*
X129991258Y-100226286D02*
X129931257Y-100286287D01*
X118693088Y-104513152D02*
X118693088Y-104922284D01*
X129931257Y-100286287D02*
X127891223Y-100286287D01*
X126767209Y-99162273D02*
X124043966Y-99162274D01*
X124043966Y-99162274D02*
X118693088Y-104513152D01*
X104778710Y-153236662D02*
X104768088Y-153247284D01*
X104852566Y-153236662D02*
X104778710Y-153236662D01*
X105301276Y-153685372D02*
X104852566Y-153236662D01*
X137783834Y-160275076D02*
X137783834Y-162881538D01*
X137783834Y-162881538D02*
X137743088Y-162922284D01*
X137783834Y-160275076D02*
X139368490Y-159629441D01*
X117108957Y-103697283D02*
X123083087Y-97723153D01*
X103843087Y-103697283D02*
X117108957Y-103697283D01*
X123083087Y-97723153D02*
X123083087Y-95678483D01*
X123083087Y-95678483D02*
X124604275Y-94157295D01*
X103468088Y-103322284D02*
X103843087Y-103697283D01*
X124604275Y-94157295D02*
X127208077Y-94157295D01*
X127208077Y-94157295D02*
X130743089Y-90622283D01*
X130743089Y-90622283D02*
X131043088Y-90322284D01*
X132991258Y-98826286D02*
X133393088Y-98432286D01*
X133393088Y-98424456D02*
X133393088Y-98432286D01*
X132991258Y-99526286D02*
X132991258Y-98826286D01*
X130991258Y-110626286D02*
X130991258Y-111326286D01*
X132643088Y-116097284D02*
X132643088Y-115297284D01*
X133491258Y-110626286D02*
X133491258Y-111326286D01*
X132988101Y-114252271D02*
X132643088Y-114597284D01*
X133491258Y-111326286D02*
X132988101Y-111829443D01*
X132643088Y-114597284D02*
X132643088Y-115297284D01*
X132988101Y-111829443D02*
X132988101Y-114252271D01*
X131368088Y-116097284D02*
X131368088Y-115302284D01*
X131368088Y-115302284D02*
X131373088Y-115297284D01*
X131873087Y-114546089D02*
X131873087Y-114797285D01*
X132991258Y-110626286D02*
X132991258Y-111317154D01*
X132628090Y-111680322D02*
X132628090Y-113791086D01*
X132628090Y-113791086D02*
X131873087Y-114546089D01*
X132991258Y-111317154D02*
X132628090Y-111680322D01*
X131873087Y-114797285D02*
X131373088Y-115297284D01*
X134159000Y-90156372D02*
X134159000Y-89238196D01*
X134159000Y-89238196D02*
X134143088Y-89222284D01*
X134491258Y-98320454D02*
X134268088Y-98097284D01*
X134491258Y-99526286D02*
X134491258Y-98320454D01*
X134991258Y-99526286D02*
X134991258Y-98236540D01*
X134991258Y-98236540D02*
X134871247Y-98116529D01*
X134871247Y-98116529D02*
X134871247Y-97373020D01*
X134871247Y-97373020D02*
X134980475Y-97263792D01*
X135393088Y-90547284D02*
X135393088Y-89247284D01*
X135393088Y-89247284D02*
X135368088Y-89222284D01*
X135491258Y-97911411D02*
X135445094Y-97865247D01*
X135491258Y-99526286D02*
X135491258Y-97911411D01*
X136593088Y-90797284D02*
X136593088Y-89222284D01*
X135991258Y-98373378D02*
X136293088Y-98071548D01*
X135991258Y-99526286D02*
X135991258Y-98373378D01*
X136293088Y-98071548D02*
X136293088Y-97647284D01*
X137843088Y-90722284D02*
X137843088Y-89222284D01*
X136868089Y-98197283D02*
X137168088Y-97897284D01*
X136491258Y-99526286D02*
X136491258Y-98574114D01*
X136491258Y-98574114D02*
X136868089Y-98197283D01*
X139068088Y-90222284D02*
X139068088Y-89222284D01*
X133001864Y-90527256D02*
X132377826Y-90527256D01*
X140292629Y-91474224D02*
X133948832Y-91474224D01*
X132377826Y-90527256D02*
X131953562Y-90527256D01*
X133948832Y-91474224D02*
X133001864Y-90527256D01*
X140292629Y-91474224D02*
X140292629Y-89222743D01*
X140292629Y-89222743D02*
X140293088Y-89222284D01*
X130991258Y-98949258D02*
X130570806Y-98528806D01*
X130991258Y-99526286D02*
X130991258Y-98949258D01*
X130570806Y-98528806D02*
X130570806Y-98373046D01*
X132693087Y-91447283D02*
X132393088Y-91147284D01*
X141119356Y-92202923D02*
X133448727Y-92202923D01*
X133448727Y-92202923D02*
X132693087Y-91447283D01*
X141519355Y-91802924D02*
X141119356Y-92202923D01*
X141519355Y-91802924D02*
X141519355Y-89223551D01*
X141519355Y-89223551D02*
X141518088Y-89222284D01*
X131491258Y-98620454D02*
X131368088Y-98497284D01*
X131491258Y-99526286D02*
X131491258Y-98620454D01*
X139610443Y-95267262D02*
X129273110Y-95267262D01*
X129273110Y-95267262D02*
X128493087Y-96047285D01*
X142746081Y-92131624D02*
X139610443Y-95267262D01*
X128493087Y-96047285D02*
X128193088Y-96347284D01*
X142746081Y-92131624D02*
X142746081Y-89225277D01*
X142746081Y-89225277D02*
X142743088Y-89222284D01*
X126159601Y-100669629D02*
X126159601Y-100255771D01*
X127191258Y-101326286D02*
X126816258Y-101326286D01*
X126816258Y-101326286D02*
X126159601Y-100669629D01*
M02*
