M48
INCH,TZ
T1C0.016
T2C0.020
T3C0.024
T4C0.026
T5C0.030
T6C0.030
T7C0.031
T8C0.039
%
G90
G05
T1
X32192Y-50688
X32822Y-49974
X33137Y-47932
X33399Y-49302
X33619Y-50038
X34259Y-46790
X34889Y-50270
X35056Y-49773
X35383Y-52556
X35555Y-51685
X36218Y-47962
X37340Y-49487
X37546Y-49487
X38304Y-50294
X38334Y-46180
X39475Y-49201
X39745Y-44501
X39850Y-49300
X39859Y-52725
X40230Y-52118
X40440Y-46121
X40441Y-49305
X40450Y-53532
X40735Y-40678
X41027Y-56928
X41176Y-49427
X41247Y-60334
X41493Y-49989
X41572Y-59635
X41972Y-58168
X41976Y-51643
X42172Y-40599
X42468Y-44526
X42549Y-38330
X42615Y-61210
X42921Y-47686
X43127Y-59330
X43265Y-48021
X43373Y-58838
X43518Y-60857
X43604Y-59717
X43649Y-44399
X43659Y-43916
X43708Y-40166
X43895Y-44152
X43983Y-38660
X44237Y-43829
X44346Y-45000
X44505Y-61190
X44948Y-44841
X45115Y-38887
X45192Y-38375
X45391Y-40363
X45627Y-48021
X45658Y-46519
X45952Y-37213
X45952Y-40058
X46021Y-43503
X46050Y-42834
X46257Y-44379
X46365Y-38847
X46509Y-45184
X46730Y-41308
X47054Y-48749
X47088Y-41501
X47320Y-38975
X47358Y-41315
X47365Y-42031
X47673Y-48632
X47694Y-37312
X47888Y-40519
X47894Y-48346
X47921Y-50836
X48105Y-40313
X48265Y-46712
X48275Y-37184
X48511Y-45442
X48593Y-47343
X48633Y-50029
X48678Y-37991
X48767Y-43217
X49014Y-48026
X49043Y-51072
X49062Y-40107
X49142Y-38022
X49279Y-48936
X49397Y-48011
X49417Y-42243
X49426Y-45156
X49476Y-50862
X49564Y-39999
X49649Y-47932
X49663Y-38562
X49669Y-39471
X49710Y-42058
X49771Y-43267
X49774Y-41270
X49810Y-46839
X49879Y-44241
X49901Y-49292
X50096Y-59881
X50106Y-44507
X50165Y-48030
X50234Y-50901
X50271Y-45411
X50470Y-37932
X50549Y-44448
X50635Y-41357
X50637Y-47574
X50654Y-38802
X50810Y-46587
X50836Y-47918
X50922Y-46298
X50952Y-38778
X51098Y-44678
X51129Y-42440
X51208Y-35599
X51247Y-46712
X51247Y-34625
X51397Y-44678
X51406Y-38730
X51459Y-46923
X51592Y-35560
X51592Y-41367
X51720Y-38778
X51722Y-45393
X51917Y-44625
X51936Y-46928
X51946Y-41367
X51950Y-35641
X52074Y-48011
X52123Y-35885
X52198Y-38680
X52222Y-45393
X52232Y-48483
X52260Y-41369
X52391Y-45960
X52468Y-48916
X52468Y-50801
X52497Y-34891
X52517Y-38753
X52568Y-41369
X52654Y-45072
X52665Y-49271
X52701Y-38188
X52819Y-35495
X52861Y-38621
X52901Y-49625
X52911Y-41367
X52930Y-62751
X52999Y-43906
X53142Y-38293
X53233Y-45268
X53304Y-35649
X53325Y-38530
X53541Y-40649
X53560Y-41013
X53580Y-46574
X53609Y-42706
X53625Y-60113
X53659Y-38444
X53777Y-35747
X53872Y-63203
X53935Y-41587
X54003Y-38542
X54008Y-45968
X54073Y-42750
X54161Y-61751
X54178Y-43809
X54269Y-35717
X54310Y-44446
X54338Y-43542
X54412Y-38886
X54643Y-61131
X54751Y-35521
X54751Y-43562
X54753Y-42253
X54800Y-38936
X54823Y-40737
X54909Y-40324
X54921Y-46353
X54954Y-39819
X54977Y-48976
X54978Y-43326
X55038Y-60347
X55066Y-46824
X55233Y-36013
X55245Y-40515
X55260Y-48701
X55419Y-39645
X55434Y-45510
X55489Y-39182
X55600Y-45208
X55716Y-36143
X55718Y-43645
X55755Y-60521
X55775Y-39092
X55854Y-40530
X55854Y-41908
X55861Y-45494
X56041Y-45255
X56050Y-43641
X56147Y-47369
X56199Y-36272
X56287Y-61751
X56356Y-62647
X56365Y-47538
X56405Y-43775
X56444Y-45304
X56517Y-38814
X56615Y-39252
X56720Y-62066
X56867Y-36219
X57153Y-48838
X57401Y-36440
X57448Y-40609
X57527Y-37784
X57586Y-48838
X57602Y-47633
X57606Y-50176
X57800Y-46275
X57822Y-42853
X58082Y-46175
X58127Y-41160
X58393Y-58070
X58452Y-40540
X58743Y-45836
X58915Y-39546
X58964Y-46613
X59001Y-48229
X59190Y-60343
X59283Y-48355
X60174Y-51397
X60322Y-52076
X60712Y-52817
X60962Y-59989
X60972Y-51475
X61445Y-52401
X61720Y-51465
X61781Y-53523
X62182Y-49851
X62200Y-53452
X62212Y-54694
X62517Y-59733
X62522Y-53331
X62832Y-49851
X62901Y-54861
X63295Y-52735
X63609Y-51436
X63816Y-52430
X63885Y-53129
X64003Y-51436
X64121Y-55253
X64358Y-51436
X64594Y-53523
T3
X43511Y-37080
X43964Y-36869
X44417Y-36658
X44674Y-60970
X44978Y-60573
X45283Y-60176
X55057Y-63570
X55518Y-63379
X55980Y-63188
X58367Y-38150
X58764Y-38454
X59161Y-38759
T4
X47716Y-34902
X47716Y-35402
X48216Y-34902
X48216Y-35402
X48716Y-34902
X48716Y-35402
X49216Y-34902
X49216Y-35402
X49716Y-34902
X49716Y-35402
T5
X44043Y-49901
X44830Y-49901
X55066Y-49901
X55854Y-49901
T6
X48459Y-65459
X49459Y-65459
X50459Y-65459
T7
X60788Y-44340
X60788Y-45127
T8
X35046Y-44487
X37212Y-45314
X39476Y-42952
X39722Y-54005
X42104Y-37479
X43245Y-42794
X43393Y-35708
X43491Y-42135
X44210Y-42076
X44397Y-45806
X44830Y-42656
X45342Y-36200
X45421Y-43168
X46238Y-60717
X46483Y-49310
X54230Y-64143
X55932Y-64330
X57035Y-63690
X59210Y-37794
X60531Y-50000
X63511Y-43149
X64469Y-50000
T2
X30573Y-48346G85X30298Y-48346
G05
X30573Y-51672G85X30298Y-51672
G05
X31262Y-48346G85X30987Y-48346
G05
X31262Y-51672G85X30987Y-51672
G05
T3
X31754Y-48592G85X31597Y-48592
G05
X31754Y-51426G85X31597Y-51426
G05
T0
M30
