  0
SECTION
  2
HEADER
  9
$ANGBASE
  50
0.0
  9
$ANGDIR
  70
  1
  9
$MEASUREMENT
  70
0
  0
ENDSEC
  0
SECTION
  2
TABLES
  0
TABLE
  2
LTYPE
  70
1
  0
LTYPE
  2
CONTINUOUS
  70
0
  3
Solid line
  72
65
  73
0
  40
0.0
  0
ENDTAB
  0
TABLE
  2
STYLE
  70
4
  0
STYLE
  2
KICAD
  70
0
  40
0
  41
1
  42
1
  50
0
  71
0
  3
isocp.shx
  0
STYLE
  2
KICADB
  70
0
  40
0
  41
1
  42
1
  50
0
  71
0
  3
isocp.shx
  0
STYLE
  2
KICADI
  70
0
  40
0
  41
1
  42
1
  50
15
  71
0
  3
isocp.shx
  0
STYLE
  2
KICADBI
  70
0
  40
0
  41
1
  42
1
  50
15
  71
0
  3
isocp.shx
  0
ENDTAB
  0
TABLE
  2
LAYER
  70
30
  0
LAYER
  2
BLACK
  70
0
  62
7
  6
CONTINUOUS
  0
LAYER
  2
GRAY1
  70
0
  62
251
  6
CONTINUOUS
  0
LAYER
  2
GRAY2
  70
0
  62
8
  6
CONTINUOUS
  0
LAYER
  2
GRAY3
  70
0
  62
9
  6
CONTINUOUS
  0
LAYER
  2
WHITE
  70
0
  62
7
  6
CONTINUOUS
  0
LAYER
  2
LYELLOW
  70
0
  62
51
  6
CONTINUOUS
  0
LAYER
  2
BLUE1
  70
0
  62
178
  6
CONTINUOUS
  0
LAYER
  2
GREEN1
  70
0
  62
98
  6
CONTINUOUS
  0
LAYER
  2
CYAN1
  70
0
  62
138
  6
CONTINUOUS
  0
LAYER
  2
RED1
  70
0
  62
18
  6
CONTINUOUS
  0
LAYER
  2
MAGENTA1
  70
0
  62
228
  6
CONTINUOUS
  0
LAYER
  2
BROWN1
  70
0
  62
58
  6
CONTINUOUS
  0
LAYER
  2
BLUE2
  70
0
  62
5
  6
CONTINUOUS
  0
LAYER
  2
GREEN2
  70
0
  62
3
  6
CONTINUOUS
  0
LAYER
  2
CYAN2
  70
0
  62
4
  6
CONTINUOUS
  0
LAYER
  2
RED2
  70
0
  62
1
  6
CONTINUOUS
  0
LAYER
  2
MAGENTA2
  70
0
  62
6
  6
CONTINUOUS
  0
LAYER
  2
BROWN2
  70
0
  62
54
  6
CONTINUOUS
  0
LAYER
  2
BLUE3
  70
0
  62
171
  6
CONTINUOUS
  0
LAYER
  2
GREEN3
  70
0
  62
91
  6
CONTINUOUS
  0
LAYER
  2
CYAN3
  70
0
  62
131
  6
CONTINUOUS
  0
LAYER
  2
RED3
  70
0
  62
11
  6
CONTINUOUS
  0
LAYER
  2
MAGENTA3
  70
0
  62
221
  6
CONTINUOUS
  0
LAYER
  2
YELLOW3
  70
0
  62
2
  6
CONTINUOUS
  0
LAYER
  2
BLUE4
  70
0
  62
5
  6
CONTINUOUS
  0
LAYER
  2
GREEN4
  70
0
  62
3
  6
CONTINUOUS
  0
LAYER
  2
CYAN4
  70
0
  62
4
  6
CONTINUOUS
  0
LAYER
  2
RED4
  70
0
  62
1
  6
CONTINUOUS
  0
LAYER
  2
MAGENTA4
  70
0
  62
6
  6
CONTINUOUS
  0
LAYER
  2
YELLOW4
  70
0
  62
2
  6
CONTINUOUS
  0
ENDTAB
  0
ENDSEC
  0
SECTION
  2
ENTITIES
0
LINE
8
Black
10
140.15
20
-85.2349
11
140.175
21
-85.2428
0
LINE
8
Black
10
140.175
20
-85.2428
11
140.183
21
-85.2453
0
LINE
8
Black
10
140.183
20
-85.2453
11
153.642
21
-92.2513
0
LINE
8
Black
10
153.642
20
-92.2513
11
153.669
21
-92.2724
0
LINE
8
Black
10
153.669
20
-92.2724
11
163.92
21
-103.459
0
LINE
8
Black
10
163.92
20
-103.459
11
163.938
21
-103.488
0
LINE
8
Black
10
163.938
20
-103.488
11
169.745
21
-117.506
0
LINE
8
Black
10
169.745
20
-117.506
11
169.745
21
-117.506
0
LINE
8
Black
10
169.745
20
-117.506
11
169.752
21
-117.54
0
LINE
8
Black
10
169.752
20
-117.54
11
170.414
21
-132.698
0
LINE
8
Black
10
170.414
20
-132.698
11
170.413
21
-132.707
0
LINE
8
Black
10
170.413
20
-132.707
11
170.41
21
-132.732
0
LINE
8
Black
10
170.41
20
-132.732
11
165.847
21
-147.203
0
LINE
8
Black
10
165.847
20
-147.203
11
165.843
21
-147.211
0
LINE
8
Black
10
165.843
20
-147.211
11
165.831
21
-147.234
0
LINE
8
Black
10
165.831
20
-147.234
11
156.595
21
-159.271
0
LINE
8
Black
10
156.595
20
-159.271
11
156.569
21
-159.294
0
LINE
8
Black
10
156.569
20
-159.294
11
143.772
21
-167.447
0
LINE
8
Black
10
143.772
20
-167.447
11
143.74
21
-167.46
0
LINE
8
Black
10
143.74
20
-167.46
11
128.927
21
-170.744
0
LINE
8
Black
10
128.927
20
-170.744
11
128.893
21
-170.746
0
LINE
8
Black
10
128.893
20
-170.746
11
113.85
21
-168.765
0
LINE
8
Black
10
113.85
20
-168.765
11
113.817
21
-168.755
0
LINE
8
Black
10
113.817
20
-168.755
11
100.358
21
-161.749
0
LINE
8
Black
10
100.358
20
-161.749
11
100.331
21
-161.728
0
LINE
8
Black
10
100.331
20
-161.728
11
100.331
21
-161.728
0
LINE
8
Black
10
100.331
20
-161.728
11
90.0802
21
-150.541
0
LINE
8
Black
10
90.0802
20
-150.541
11
90.0615
21
-150.512
0
LINE
8
Black
10
90.0615
20
-150.512
11
84.2552
21
-136.494
0
LINE
8
Black
10
84.2552
20
-136.494
11
84.2477
21
-136.46
0
LINE
8
Black
10
84.2477
20
-136.46
11
83.5859
21
-121.302
0
LINE
8
Black
10
83.5859
20
-121.302
11
83.5904
21
-121.268
0
LINE
8
Black
10
83.5904
20
-121.268
11
88.1529
21
-106.797
0
LINE
8
Black
10
88.1529
20
-106.797
11
88.1689
21
-106.766
0
LINE
8
Black
10
88.1689
20
-106.766
11
97.4055
21
-94.729
0
LINE
8
Black
10
97.4055
20
-94.729
11
97.4311
21
-94.7055
0
LINE
8
Black
10
97.4311
20
-94.7055
11
110.228
21
-86.5532
0
LINE
8
Black
10
110.228
20
-86.5532
11
110.26
21
-86.5399
0
LINE
8
Black
10
110.26
20
-86.5399
11
125.073
21
-83.256
0
LINE
8
Black
10
125.073
20
-83.256
11
125.107
21
-83.2544
0
LINE
8
Black
10
125.107
20
-83.2544
11
140.15
21
-85.2349
0
LINE
8
Black
10
110.32
20
-86.7314
11
97.5534
21
-94.8647
0
LINE
8
Black
10
97.5534
20
-94.8647
11
88.3383
21
-106.874
0
LINE
8
Black
10
88.3383
20
-106.874
11
83.7864
21
-121.311
0
LINE
8
Black
10
83.7864
20
-121.311
11
84.4467
21
-136.434
0
LINE
8
Black
10
84.4467
20
-136.434
11
90.2396
21
-150.419
0
LINE
8
Black
10
90.2396
20
-150.419
11
100.466
21
-161.579
0
LINE
8
Black
10
100.466
20
-161.579
11
113.893
21
-168.569
0
LINE
8
Black
10
113.893
20
-168.569
11
128.901
21
-170.545
0
LINE
8
Black
10
128.901
20
-170.545
11
143.68
21
-167.269
0
LINE
8
Black
10
143.68
20
-167.269
11
156.447
21
-159.135
0
LINE
8
Black
10
156.447
20
-159.135
11
165.662
21
-147.126
0
LINE
8
Black
10
165.662
20
-147.126
11
170.214
21
-132.689
0
LINE
8
Black
10
170.214
20
-132.689
11
169.553
21
-117.566
0
LINE
8
Black
10
169.553
20
-117.566
11
163.76
21
-103.581
0
LINE
8
Black
10
163.76
20
-103.581
11
153.534
21
-92.4205
0
LINE
8
Black
10
153.534
20
-92.4205
11
140.107
21
-85.4309
0
LINE
8
Black
10
140.107
20
-85.4309
11
125.099
21
-83.455
0
LINE
8
Black
10
125.099
20
-83.455
11
110.32
21
-86.7314
0
LINE
8
Black
10
123.658
20
-145.855
11
117.441
21
-143.592
0
LINE
8
Black
10
117.441
20
-143.592
11
117.411
21
-143.574
0
LINE
8
Black
10
117.411
20
-143.574
11
112.343
21
-139.322
0
LINE
8
Black
10
112.343
20
-139.322
11
112.32
21
-139.295
0
LINE
8
Black
10
112.32
20
-139.295
11
109.012
21
-133.565
0
LINE
8
Black
10
109.012
20
-133.565
11
109
21
-133.533
0
LINE
8
Black
10
109
20
-133.533
11
107.852
21
-127.017
0
LINE
8
Black
10
107.852
20
-127.017
11
107.852
21
-126.983
0
LINE
8
Black
10
107.852
20
-126.983
11
107.852
21
-126.975
0
LINE
8
Black
10
107.852
20
-126.975
11
107.863
21
-126.942
0
LINE
8
Black
10
107.863
20
-126.942
11
107.886
21
-126.916
0
LINE
8
Black
10
107.886
20
-126.916
11
107.916
21
-126.898
0
LINE
8
Black
10
107.916
20
-126.898
11
107.95
21
-126.892
0
LINE
8
Black
10
107.95
20
-126.892
11
146.05
21
-126.892
0
LINE
8
Black
10
146.05
20
-126.892
11
146.084
21
-126.898
0
LINE
8
Black
10
146.084
20
-126.898
11
146.114
21
-126.916
0
LINE
8
Black
10
146.114
20
-126.916
11
146.137
21
-126.942
0
LINE
8
Black
10
146.137
20
-126.942
11
146.148
21
-126.975
0
LINE
8
Black
10
146.148
20
-126.975
11
146.148
21
-126.983
0
LINE
8
Black
10
146.148
20
-126.983
11
146.148
21
-127.017
0
LINE
8
Black
10
146.148
20
-127.017
11
145
21
-133.533
0
LINE
8
Black
10
145
20
-133.533
11
144.988
21
-133.565
0
LINE
8
Black
10
144.988
20
-133.565
11
141.68
21
-139.295
0
LINE
8
Black
10
141.68
20
-139.295
11
141.657
21
-139.322
0
LINE
8
Black
10
141.657
20
-139.322
11
136.589
21
-143.574
0
LINE
8
Black
10
136.589
20
-143.574
11
136.559
21
-143.592
0
LINE
8
Black
10
136.559
20
-143.592
11
130.342
21
-145.855
0
LINE
8
Black
10
130.342
20
-145.855
11
130.308
21
-145.861
0
LINE
8
Black
10
130.308
20
-145.861
11
123.692
21
-145.861
0
LINE
8
Black
10
123.692
20
-145.861
11
123.658
21
-145.855
0
LINE
8
Black
10
108.068
20
-127.092
11
109.194
21
-133.481
0
LINE
8
Black
10
109.194
20
-133.481
11
112.485
21
-139.18
0
LINE
8
Black
10
112.485
20
-139.18
11
117.526
21
-143.41
0
LINE
8
Black
10
117.526
20
-143.41
11
123.71
21
-145.661
0
LINE
8
Black
10
123.71
20
-145.661
11
130.29
21
-145.661
0
LINE
8
Black
10
130.29
20
-145.661
11
136.474
21
-143.41
0
LINE
8
Black
10
136.474
20
-143.41
11
141.515
21
-139.18
0
LINE
8
Black
10
141.515
20
-139.18
11
144.806
21
-133.481
0
LINE
8
Black
10
144.806
20
-133.481
11
145.932
21
-127.092
0
LINE
8
Black
10
145.932
20
-127.092
11
108.068
21
-127.092
  0
ENDSEC
  0
EOF
