  0
SECTION
  2
HEADER
  9
$ANGBASE
  50
0.0
  9
$ANGDIR
  70
  1
  9
$MEASUREMENT
  70
0
  0
ENDSEC
  0
SECTION
  2
TABLES
  0
TABLE
  2
LTYPE
  70
1
  0
LTYPE
  2
CONTINUOUS
  70
0
  3
Solid line
  72
65
  73
0
  40
0.0
  0
ENDTAB
  0
TABLE
  2
STYLE
  70
4
  0
STYLE
  2
KICAD
  70
0
  40
0
  41
1
  42
1
  50
0
  71
0
  3
isocp.shx
  0
STYLE
  2
KICADB
  70
0
  40
0
  41
1
  42
1
  50
0
  71
0
  3
isocp.shx
  0
STYLE
  2
KICADI
  70
0
  40
0
  41
1
  42
1
  50
15
  71
0
  3
isocp.shx
  0
STYLE
  2
KICADBI
  70
0
  40
0
  41
1
  42
1
  50
15
  71
0
  3
isocp.shx
  0
ENDTAB
  0
TABLE
  2
LAYER
  70
30
  0
LAYER
  2
BLACK
  70
0
  62
7
  6
CONTINUOUS
  0
LAYER
  2
GRAY1
  70
0
  62
251
  6
CONTINUOUS
  0
LAYER
  2
GRAY2
  70
0
  62
8
  6
CONTINUOUS
  0
LAYER
  2
GRAY3
  70
0
  62
9
  6
CONTINUOUS
  0
LAYER
  2
WHITE
  70
0
  62
7
  6
CONTINUOUS
  0
LAYER
  2
LYELLOW
  70
0
  62
51
  6
CONTINUOUS
  0
LAYER
  2
BLUE1
  70
0
  62
178
  6
CONTINUOUS
  0
LAYER
  2
GREEN1
  70
0
  62
98
  6
CONTINUOUS
  0
LAYER
  2
CYAN1
  70
0
  62
138
  6
CONTINUOUS
  0
LAYER
  2
RED1
  70
0
  62
18
  6
CONTINUOUS
  0
LAYER
  2
MAGENTA1
  70
0
  62
228
  6
CONTINUOUS
  0
LAYER
  2
BROWN1
  70
0
  62
58
  6
CONTINUOUS
  0
LAYER
  2
BLUE2
  70
0
  62
5
  6
CONTINUOUS
  0
LAYER
  2
GREEN2
  70
0
  62
3
  6
CONTINUOUS
  0
LAYER
  2
CYAN2
  70
0
  62
4
  6
CONTINUOUS
  0
LAYER
  2
RED2
  70
0
  62
1
  6
CONTINUOUS
  0
LAYER
  2
MAGENTA2
  70
0
  62
6
  6
CONTINUOUS
  0
LAYER
  2
BROWN2
  70
0
  62
54
  6
CONTINUOUS
  0
LAYER
  2
BLUE3
  70
0
  62
171
  6
CONTINUOUS
  0
LAYER
  2
GREEN3
  70
0
  62
91
  6
CONTINUOUS
  0
LAYER
  2
CYAN3
  70
0
  62
131
  6
CONTINUOUS
  0
LAYER
  2
RED3
  70
0
  62
11
  6
CONTINUOUS
  0
LAYER
  2
MAGENTA3
  70
0
  62
221
  6
CONTINUOUS
  0
LAYER
  2
YELLOW3
  70
0
  62
2
  6
CONTINUOUS
  0
LAYER
  2
BLUE4
  70
0
  62
5
  6
CONTINUOUS
  0
LAYER
  2
GREEN4
  70
0
  62
3
  6
CONTINUOUS
  0
LAYER
  2
CYAN4
  70
0
  62
4
  6
CONTINUOUS
  0
LAYER
  2
RED4
  70
0
  62
1
  6
CONTINUOUS
  0
LAYER
  2
MAGENTA4
  70
0
  62
6
  6
CONTINUOUS
  0
LAYER
  2
YELLOW4
  70
0
  62
2
  6
CONTINUOUS
  0
ENDTAB
  0
ENDSEC
  0
SECTION
  2
ENTITIES
0
LINE
8
Black
10
138.958
20
-159.806
11
139.817
21
-160.302
0
LINE
8
Black
10
139.817
20
-160.302
11
140.454
21
-161.061
0
LINE
8
Black
10
140.454
20
-161.061
11
140.793
21
-161.993
0
LINE
8
Black
10
140.793
20
-161.993
11
140.793
21
-162.985
0
LINE
8
Black
10
140.793
20
-162.985
11
140.454
21
-163.916
0
LINE
8
Black
10
140.454
20
-163.916
11
139.817
21
-164.676
0
LINE
8
Black
10
139.817
20
-164.676
11
138.958
21
-165.171
0
LINE
8
Black
10
138.958
20
-165.171
11
137.982
21
-165.344
0
LINE
8
Black
10
137.982
20
-165.344
11
137.005
21
-165.171
0
LINE
8
Black
10
137.005
20
-165.171
11
136.147
21
-164.676
0
LINE
8
Black
10
136.147
20
-164.676
11
135.509
21
-163.916
0
LINE
8
Black
10
135.509
20
-163.916
11
135.17
21
-162.985
0
LINE
8
Black
10
135.17
20
-162.985
11
135.17
21
-161.993
0
LINE
8
Black
10
135.17
20
-161.993
11
135.509
21
-161.061
0
LINE
8
Black
10
135.509
20
-161.061
11
136.147
21
-160.302
0
LINE
8
Black
10
136.147
20
-160.302
11
137.005
21
-159.806
0
LINE
8
Black
10
137.005
20
-159.806
11
137.982
21
-159.634
0
LINE
8
Black
10
137.982
20
-159.634
11
138.958
21
-159.806
0
LINE
8
Black
10
112.616
20
-158.843
11
113.474
21
-159.339
0
LINE
8
Black
10
113.474
20
-159.339
11
114.112
21
-160.099
0
LINE
8
Black
10
114.112
20
-160.099
11
114.451
21
-161.03
0
LINE
8
Black
10
114.451
20
-161.03
11
114.451
21
-162.022
0
LINE
8
Black
10
114.451
20
-162.022
11
114.112
21
-162.954
0
LINE
8
Black
10
114.112
20
-162.954
11
113.474
21
-163.713
0
LINE
8
Black
10
113.474
20
-163.713
11
112.616
21
-164.209
0
LINE
8
Black
10
112.616
20
-164.209
11
111.639
21
-164.381
0
LINE
8
Black
10
111.639
20
-164.381
11
110.663
21
-164.209
0
LINE
8
Black
10
110.663
20
-164.209
11
109.804
21
-163.713
0
LINE
8
Black
10
109.804
20
-163.713
11
109.167
21
-162.954
0
LINE
8
Black
10
109.167
20
-162.954
11
108.828
21
-162.022
0
LINE
8
Black
10
108.828
20
-162.022
11
108.828
21
-161.03
0
LINE
8
Black
10
108.828
20
-161.03
11
109.167
21
-160.099
0
LINE
8
Black
10
109.167
20
-160.099
11
109.804
21
-159.339
0
LINE
8
Black
10
109.804
20
-159.339
11
110.663
21
-158.843
0
LINE
8
Black
10
110.663
20
-158.843
11
111.639
21
-158.671
0
LINE
8
Black
10
111.639
20
-158.671
11
112.616
21
-158.843
0
LINE
8
Black
10
145.685
20
-159.48
11
144.385
21
-159.48
0
LINE
8
Black
10
144.385
20
-159.48
11
144.385
21
-158.48
0
LINE
8
Black
10
144.385
20
-158.48
11
145.685
21
-158.48
0
LINE
8
Black
10
145.685
20
-158.48
11
145.685
21
-159.48
0
LINE
8
Black
10
148.2
20
-159.429
11
146.9
21
-159.429
0
LINE
8
Black
10
146.9
20
-159.429
11
146.9
21
-158.429
0
LINE
8
Black
10
146.9
20
-158.429
11
148.2
21
-158.429
0
LINE
8
Black
10
148.2
20
-158.429
11
148.2
21
-159.429
0
LINE
8
Black
10
150.88
20
-159.102
11
150.38
21
-159.102
0
LINE
8
Black
10
150.38
20
-159.102
11
150.38
21
-158.402
0
LINE
8
Black
10
150.38
20
-158.402
11
150.88
21
-158.402
0
LINE
8
Black
10
150.88
20
-158.402
11
150.88
21
-159.102
0
LINE
8
Black
10
151.78
20
-159.102
11
151.28
21
-159.102
0
LINE
8
Black
10
151.28
20
-159.102
11
151.28
21
-158.402
0
LINE
8
Black
10
151.28
20
-158.402
11
151.78
21
-158.402
0
LINE
8
Black
10
151.78
20
-158.402
11
151.78
21
-159.102
0
LINE
8
Black
10
149.739
20
-158.675
11
149.039
21
-158.675
0
LINE
8
Black
10
149.039
20
-158.675
11
149.039
21
-158.175
0
LINE
8
Black
10
149.039
20
-158.175
11
149.739
21
-158.175
0
LINE
8
Black
10
149.739
20
-158.175
11
149.739
21
-158.675
0
LINE
8
Black
10
152.02
20
-157.984
11
151.32
21
-157.984
0
LINE
8
Black
10
151.32
20
-157.984
11
151.32
21
-157.484
0
LINE
8
Black
10
151.32
20
-157.484
11
152.02
21
-157.484
0
LINE
8
Black
10
152.02
20
-157.484
11
152.02
21
-157.984
0
LINE
8
Black
10
149.739
20
-157.775
11
149.039
21
-157.775
0
LINE
8
Black
10
149.039
20
-157.775
11
149.039
21
-157.275
0
LINE
8
Black
10
149.039
20
-157.275
11
149.739
21
-157.275
0
LINE
8
Black
10
149.739
20
-157.275
11
149.739
21
-157.775
0
LINE
8
Black
10
152.02
20
-157.084
11
151.32
21
-157.084
0
LINE
8
Black
10
151.32
20
-157.084
11
151.32
21
-156.584
0
LINE
8
Black
10
151.32
20
-156.584
11
152.02
21
-156.584
0
LINE
8
Black
10
152.02
20
-156.584
11
152.02
21
-157.084
0
LINE
8
Black
10
137.232
20
-156.817
11
136.677
21
-157.047
0
LINE
8
Black
10
136.677
20
-157.047
11
136.409
21
-156.4
0
LINE
8
Black
10
136.409
20
-156.4
11
136.964
21
-156.171
0
LINE
8
Black
10
136.964
20
-156.171
11
137.232
21
-156.817
0
LINE
8
Black
10
149.723
20
-156.796
11
149.023
21
-156.796
0
LINE
8
Black
10
149.023
20
-156.796
11
149.023
21
-156.296
0
LINE
8
Black
10
149.023
20
-156.296
11
149.723
21
-156.296
0
LINE
8
Black
10
149.723
20
-156.296
11
149.723
21
-156.796
0
LINE
8
Black
10
139.653
20
-156.155
11
138.822
21
-156.5
0
LINE
8
Black
10
138.822
20
-156.5
11
138.439
21
-155.576
0
LINE
8
Black
10
138.439
20
-155.576
11
139.27
21
-155.231
0
LINE
8
Black
10
139.27
20
-155.231
11
139.653
21
-156.155
0
LINE
8
Black
10
152.015
20
-156.303
11
151.315
21
-156.303
0
LINE
8
Black
10
151.315
20
-156.303
11
151.315
21
-155.803
0
LINE
8
Black
10
151.315
20
-155.803
11
152.015
21
-155.803
0
LINE
8
Black
10
152.015
20
-155.803
11
152.015
21
-156.303
0
LINE
8
Black
10
145.685
20
-156.18
11
144.385
21
-156.18
0
LINE
8
Black
10
144.385
20
-156.18
11
144.385
21
-155.18
0
LINE
8
Black
10
144.385
20
-155.18
11
145.685
21
-155.18
0
LINE
8
Black
10
145.685
20
-155.18
11
145.685
21
-156.18
0
LINE
8
Black
10
148.2
20
-156.129
11
146.9
21
-156.129
0
LINE
8
Black
10
146.9
20
-156.129
11
146.9
21
-155.129
0
LINE
8
Black
10
146.9
20
-155.129
11
148.2
21
-155.129
0
LINE
8
Black
10
148.2
20
-155.129
11
148.2
21
-156.129
0
LINE
8
Black
10
136.811
20
-155.801
11
136.256
21
-156.031
0
LINE
8
Black
10
136.256
20
-156.031
11
135.988
21
-155.384
0
LINE
8
Black
10
135.988
20
-155.384
11
136.543
21
-155.154
0
LINE
8
Black
10
136.543
20
-155.154
11
136.811
21
-155.801
0
LINE
8
Black
10
149.723
20
-155.896
11
149.023
21
-155.896
0
LINE
8
Black
10
149.023
20
-155.896
11
149.023
21
-155.396
0
LINE
8
Black
10
149.023
20
-155.396
11
149.723
21
-155.396
0
LINE
8
Black
10
149.723
20
-155.396
11
149.723
21
-155.896
0
LINE
8
Black
10
154.051
20
-155.567
11
153.551
21
-155.567
0
LINE
8
Black
10
153.551
20
-155.567
11
153.551
21
-154.867
0
LINE
8
Black
10
153.551
20
-154.867
11
154.051
21
-154.867
0
LINE
8
Black
10
154.051
20
-154.867
11
154.051
21
-155.567
0
LINE
8
Black
10
153.151
20
-155.567
11
152.651
21
-155.567
0
LINE
8
Black
10
152.651
20
-155.567
11
152.651
21
-154.867
0
LINE
8
Black
10
152.651
20
-154.867
11
153.151
21
-154.867
0
LINE
8
Black
10
153.151
20
-154.867
11
153.151
21
-155.567
0
LINE
8
Black
10
155.026
20
-155.532
11
154.326
21
-155.532
0
LINE
8
Black
10
154.326
20
-155.532
11
154.326
21
-154.932
0
LINE
8
Black
10
154.326
20
-154.932
11
155.026
21
-154.932
0
LINE
8
Black
10
155.026
20
-154.932
11
155.026
21
-155.532
0
LINE
8
Black
10
156.126
20
-155.532
11
155.426
21
-155.532
0
LINE
8
Black
10
155.426
20
-155.532
11
155.426
21
-154.932
0
LINE
8
Black
10
155.426
20
-154.932
11
156.126
21
-154.932
0
LINE
8
Black
10
156.126
20
-154.932
11
156.126
21
-155.532
0
LINE
8
Black
10
152.015
20
-155.403
11
151.315
21
-155.403
0
LINE
8
Black
10
151.315
20
-155.403
11
151.315
21
-154.903
0
LINE
8
Black
10
151.315
20
-154.903
11
152.015
21
-154.903
0
LINE
8
Black
10
152.015
20
-154.903
11
152.015
21
-155.403
0
LINE
8
Black
10
138.01
20
-154.671
11
137.179
21
-155.015
0
LINE
8
Black
10
137.179
20
-155.015
11
136.796
21
-154.091
0
LINE
8
Black
10
136.796
20
-154.091
11
137.627
21
-153.747
0
LINE
8
Black
10
137.627
20
-153.747
11
138.01
21
-154.671
0
LINE
8
Black
10
147.955
20
-154.729
11
147.455
21
-154.729
0
LINE
8
Black
10
147.455
20
-154.729
11
147.455
21
-154.029
0
LINE
8
Black
10
147.455
20
-154.029
11
147.955
21
-154.029
0
LINE
8
Black
10
147.955
20
-154.029
11
147.955
21
-154.729
0
LINE
8
Black
10
147.055
20
-154.729
11
146.555
21
-154.729
0
LINE
8
Black
10
146.555
20
-154.729
11
146.555
21
-154.029
0
LINE
8
Black
10
146.555
20
-154.029
11
147.055
21
-154.029
0
LINE
8
Black
10
147.055
20
-154.029
11
147.055
21
-154.729
0
LINE
8
Black
10
153.248
20
-154.552
11
152.548
21
-154.552
0
LINE
8
Black
10
152.548
20
-154.552
11
152.548
21
-153.952
0
LINE
8
Black
10
152.548
20
-153.952
11
153.248
21
-153.952
0
LINE
8
Black
10
153.248
20
-153.952
11
153.248
21
-154.552
0
LINE
8
Black
10
154.348
20
-154.552
11
153.648
21
-154.552
0
LINE
8
Black
10
153.648
20
-154.552
11
153.648
21
-153.952
0
LINE
8
Black
10
153.648
20
-153.952
11
154.348
21
-153.952
0
LINE
8
Black
10
154.348
20
-153.952
11
154.348
21
-154.552
0
LINE
8
Black
10
141.672
20
-152.795
11
141.917
21
-152.936
0
LINE
8
Black
10
141.917
20
-152.936
11
142.099
21
-153.153
0
LINE
8
Black
10
142.099
20
-153.153
11
142.196
21
-153.419
0
LINE
8
Black
10
142.196
20
-153.419
11
142.196
21
-153.702
0
LINE
8
Black
10
142.196
20
-153.702
11
142.099
21
-153.968
0
LINE
8
Black
10
142.099
20
-153.968
11
141.917
21
-154.185
0
LINE
8
Black
10
141.917
20
-154.185
11
141.672
21
-154.327
0
LINE
8
Black
10
141.672
20
-154.327
11
141.393
21
-154.376
0
LINE
8
Black
10
141.393
20
-154.376
11
141.114
21
-154.327
0
LINE
8
Black
10
141.114
20
-154.327
11
140.869
21
-154.185
0
LINE
8
Black
10
140.869
20
-154.185
11
140.687
21
-153.968
0
LINE
8
Black
10
140.687
20
-153.968
11
140.59
21
-153.702
0
LINE
8
Black
10
140.59
20
-153.702
11
140.59
21
-153.419
0
LINE
8
Black
10
140.59
20
-153.419
11
140.687
21
-153.153
0
LINE
8
Black
10
140.687
20
-153.153
11
140.869
21
-152.936
0
LINE
8
Black
10
140.869
20
-152.936
11
141.114
21
-152.795
0
LINE
8
Black
10
141.114
20
-152.795
11
141.393
21
-152.746
0
LINE
8
Black
10
141.393
20
-152.746
11
141.672
21
-152.795
0
LINE
8
Black
10
139.765
20
-153.944
11
138.934
21
-154.288
0
LINE
8
Black
10
138.934
20
-154.288
11
138.551
21
-153.364
0
LINE
8
Black
10
138.551
20
-153.364
11
139.383
21
-153.02
0
LINE
8
Black
10
139.383
20
-153.02
11
139.765
21
-153.944
0
LINE
8
Black
10
150.408
20
-154.029
11
150.008
21
-154.029
0
LINE
8
Black
10
150.008
20
-154.029
11
150.008
21
-153.129
0
LINE
8
Black
10
150.008
20
-153.129
11
150.408
21
-153.129
0
LINE
8
Black
10
150.408
20
-153.129
11
150.408
21
-154.029
0
LINE
8
Black
10
149.908
20
-154.029
11
149.508
21
-154.029
0
LINE
8
Black
10
149.508
20
-154.029
11
149.508
21
-153.129
0
LINE
8
Black
10
149.508
20
-153.129
11
149.908
21
-153.129
0
LINE
8
Black
10
149.908
20
-153.129
11
149.908
21
-154.029
0
LINE
8
Black
10
152.408
20
-154.029
11
152.008
21
-154.029
0
LINE
8
Black
10
152.008
20
-154.029
11
152.008
21
-153.129
0
LINE
8
Black
10
152.008
20
-153.129
11
152.408
21
-153.129
0
LINE
8
Black
10
152.408
20
-153.129
11
152.408
21
-154.029
0
LINE
8
Black
10
151.908
20
-154.029
11
151.508
21
-154.029
0
LINE
8
Black
10
151.508
20
-154.029
11
151.508
21
-153.129
0
LINE
8
Black
10
151.508
20
-153.129
11
151.908
21
-153.129
0
LINE
8
Black
10
151.908
20
-153.129
11
151.908
21
-154.029
0
LINE
8
Black
10
151.408
20
-154.029
11
151.008
21
-154.029
0
LINE
8
Black
10
151.008
20
-154.029
11
151.008
21
-153.129
0
LINE
8
Black
10
151.008
20
-153.129
11
151.408
21
-153.129
0
LINE
8
Black
10
151.408
20
-153.129
11
151.408
21
-154.029
0
LINE
8
Black
10
150.908
20
-154.029
11
150.508
21
-154.029
0
LINE
8
Black
10
150.508
20
-154.029
11
150.508
21
-153.129
0
LINE
8
Black
10
150.508
20
-153.129
11
150.908
21
-153.129
0
LINE
8
Black
10
150.908
20
-153.129
11
150.908
21
-154.029
0
LINE
8
Black
10
113.495
20
-152.261
11
113.741
21
-152.403
0
LINE
8
Black
10
113.741
20
-152.403
11
113.922
21
-152.62
0
LINE
8
Black
10
113.922
20
-152.62
11
114.019
21
-152.886
0
LINE
8
Black
10
114.019
20
-152.886
11
114.019
21
-153.169
0
LINE
8
Black
10
114.019
20
-153.169
11
113.922
21
-153.435
0
LINE
8
Black
10
113.922
20
-153.435
11
113.741
21
-153.652
0
LINE
8
Black
10
113.741
20
-153.652
11
113.495
21
-153.793
0
LINE
8
Black
10
113.495
20
-153.793
11
113.217
21
-153.842
0
LINE
8
Black
10
113.217
20
-153.842
11
112.938
21
-153.793
0
LINE
8
Black
10
112.938
20
-153.793
11
112.693
21
-153.652
0
LINE
8
Black
10
112.693
20
-153.652
11
112.511
21
-153.435
0
LINE
8
Black
10
112.511
20
-153.435
11
112.414
21
-153.169
0
LINE
8
Black
10
112.414
20
-153.169
11
112.414
21
-152.886
0
LINE
8
Black
10
112.414
20
-152.886
11
112.511
21
-152.62
0
LINE
8
Black
10
112.511
20
-152.62
11
112.693
21
-152.403
0
LINE
8
Black
10
112.693
20
-152.403
11
112.938
21
-152.261
0
LINE
8
Black
10
112.938
20
-152.261
11
113.217
21
-152.212
0
LINE
8
Black
10
113.217
20
-152.212
11
113.495
21
-152.261
0
LINE
8
Black
10
147.091
20
-153.672
11
146.591
21
-153.672
0
LINE
8
Black
10
146.591
20
-153.672
11
146.591
21
-152.972
0
LINE
8
Black
10
146.591
20
-152.972
11
147.091
21
-152.972
0
LINE
8
Black
10
147.091
20
-152.972
11
147.091
21
-153.672
0
LINE
8
Black
10
147.991
20
-153.672
11
147.491
21
-153.672
0
LINE
8
Black
10
147.491
20
-153.672
11
147.491
21
-152.972
0
LINE
8
Black
10
147.491
20
-152.972
11
147.991
21
-152.972
0
LINE
8
Black
10
147.991
20
-152.972
11
147.991
21
-153.672
0
LINE
8
Black
10
138.147
20
-153.008
11
137.685
21
-153.199
0
LINE
8
Black
10
137.685
20
-153.199
11
137.417
21
-152.553
0
LINE
8
Black
10
137.417
20
-152.553
11
137.879
21
-152.361
0
LINE
8
Black
10
137.879
20
-152.361
11
138.147
21
-153.008
0
LINE
8
Black
10
152.408
20
-153.029
11
149.508
21
-153.029
0
LINE
8
Black
10
149.508
20
-153.029
11
149.508
21
-150.129
0
LINE
8
Black
10
149.508
20
-150.129
11
152.408
21
-150.129
0
LINE
8
Black
10
152.408
20
-150.129
11
152.408
21
-153.029
0
LINE
8
Black
10
149.408
20
-153.029
11
148.508
21
-153.029
0
LINE
8
Black
10
148.508
20
-153.029
11
148.508
21
-152.629
0
LINE
8
Black
10
148.508
20
-152.629
11
149.408
21
-152.629
0
LINE
8
Black
10
149.408
20
-152.629
11
149.408
21
-153.029
0
LINE
8
Black
10
153.408
20
-153.029
11
152.508
21
-153.029
0
LINE
8
Black
10
152.508
20
-153.029
11
152.508
21
-152.629
0
LINE
8
Black
10
152.508
20
-152.629
11
153.408
21
-152.629
0
LINE
8
Black
10
153.408
20
-152.629
11
153.408
21
-153.029
0
LINE
8
Black
10
138.978
20
-152.664
11
138.516
21
-152.855
0
LINE
8
Black
10
138.516
20
-152.855
11
138.248
21
-152.208
0
LINE
8
Black
10
138.248
20
-152.208
11
138.71
21
-152.017
0
LINE
8
Black
10
138.71
20
-152.017
11
138.978
21
-152.664
0
LINE
8
Black
10
108.591
20
-151.877
11
107.983
21
-152.67
0
LINE
8
Black
10
107.983
20
-152.67
11
107.269
21
-152.123
0
LINE
8
Black
10
107.269
20
-152.123
11
107.877
21
-151.329
0
LINE
8
Black
10
107.877
20
-151.329
11
108.591
21
-151.877
0
LINE
8
Black
10
153.408
20
-152.529
11
152.508
21
-152.529
0
LINE
8
Black
10
152.508
20
-152.529
11
152.508
21
-152.129
0
LINE
8
Black
10
152.508
20
-152.129
11
153.408
21
-152.129
0
LINE
8
Black
10
153.408
20
-152.129
11
153.408
21
-152.529
0
LINE
8
Black
10
149.408
20
-152.529
11
148.508
21
-152.529
0
LINE
8
Black
10
148.508
20
-152.529
11
148.508
21
-152.129
0
LINE
8
Black
10
148.508
20
-152.129
11
149.408
21
-152.129
0
LINE
8
Black
10
149.408
20
-152.129
11
149.408
21
-152.529
0
LINE
8
Black
10
153.408
20
-152.029
11
152.508
21
-152.029
0
LINE
8
Black
10
152.508
20
-152.029
11
152.508
21
-151.629
0
LINE
8
Black
10
152.508
20
-151.629
11
153.408
21
-151.629
0
LINE
8
Black
10
153.408
20
-151.629
11
153.408
21
-152.029
0
LINE
8
Black
10
149.408
20
-152.029
11
148.508
21
-152.029
0
LINE
8
Black
10
148.508
20
-152.029
11
148.508
21
-151.629
0
LINE
8
Black
10
148.508
20
-151.629
11
149.408
21
-151.629
0
LINE
8
Black
10
149.408
20
-151.629
11
149.408
21
-152.029
0
LINE
8
Black
10
110.563
20
-150.869
11
109.954
21
-151.662
0
LINE
8
Black
10
109.954
20
-151.662
11
109.24
21
-151.114
0
LINE
8
Black
10
109.24
20
-151.114
11
109.849
21
-150.321
0
LINE
8
Black
10
109.849
20
-150.321
11
110.563
21
-150.869
0
LINE
8
Black
10
153.408
20
-151.529
11
152.508
21
-151.529
0
LINE
8
Black
10
152.508
20
-151.529
11
152.508
21
-151.129
0
LINE
8
Black
10
152.508
20
-151.129
11
153.408
21
-151.129
0
LINE
8
Black
10
153.408
20
-151.129
11
153.408
21
-151.529
0
LINE
8
Black
10
149.408
20
-151.529
11
148.508
21
-151.529
0
LINE
8
Black
10
148.508
20
-151.529
11
148.508
21
-151.129
0
LINE
8
Black
10
148.508
20
-151.129
11
149.408
21
-151.129
0
LINE
8
Black
10
149.408
20
-151.129
11
149.408
21
-151.529
0
LINE
8
Black
10
154.362
20
-151.509
11
153.762
21
-151.509
0
LINE
8
Black
10
153.762
20
-151.509
11
153.762
21
-150.809
0
LINE
8
Black
10
153.762
20
-150.809
11
154.362
21
-150.809
0
LINE
8
Black
10
154.362
20
-150.809
11
154.362
21
-151.509
0
LINE
8
Black
10
155.261
20
-151.499
11
154.661
21
-151.499
0
LINE
8
Black
10
154.661
20
-151.499
11
154.661
21
-150.799
0
LINE
8
Black
10
154.661
20
-150.799
11
155.261
21
-150.799
0
LINE
8
Black
10
155.261
20
-150.799
11
155.261
21
-151.499
0
LINE
8
Black
10
156.222
20
-151.489
11
155.622
21
-151.489
0
LINE
8
Black
10
155.622
20
-151.489
11
155.622
21
-150.789
0
LINE
8
Black
10
155.622
20
-150.789
11
156.222
21
-150.789
0
LINE
8
Black
10
156.222
20
-150.789
11
156.222
21
-151.489
0
LINE
8
Black
10
159.868
20
-151.392
11
158.518
21
-151.392
0
LINE
8
Black
10
158.518
20
-151.392
11
158.518
21
-150.292
0
LINE
8
Black
10
158.518
20
-150.292
11
159.868
21
-150.292
0
LINE
8
Black
10
159.868
20
-150.292
11
159.868
21
-151.392
0
LINE
8
Black
10
158.019
20
-151.387
11
156.669
21
-151.387
0
LINE
8
Black
10
156.669
20
-151.387
11
156.669
21
-150.287
0
LINE
8
Black
10
156.669
20
-150.287
11
158.019
21
-150.287
0
LINE
8
Black
10
158.019
20
-150.287
11
158.019
21
-151.387
0
LINE
8
Black
10
146.115
20
-151.107
11
145.415
21
-151.107
0
LINE
8
Black
10
145.415
20
-151.107
11
145.415
21
-150.507
0
LINE
8
Black
10
145.415
20
-150.507
11
146.115
21
-150.507
0
LINE
8
Black
10
146.115
20
-150.507
11
146.115
21
-151.107
0
LINE
8
Black
10
147.215
20
-151.107
11
146.515
21
-151.107
0
LINE
8
Black
10
146.515
20
-151.107
11
146.515
21
-150.507
0
LINE
8
Black
10
146.515
20
-150.507
11
147.215
21
-150.507
0
LINE
8
Black
10
147.215
20
-150.507
11
147.215
21
-151.107
0
LINE
8
Black
10
148.174
20
-151.07
11
147.474
21
-151.07
0
LINE
8
Black
10
147.474
20
-151.07
11
147.474
21
-150.57
0
LINE
8
Black
10
147.474
20
-150.57
11
148.174
21
-150.57
0
LINE
8
Black
10
148.174
20
-150.57
11
148.174
21
-151.07
0
LINE
8
Black
10
149.408
20
-151.029
11
148.508
21
-151.029
0
LINE
8
Black
10
148.508
20
-151.029
11
148.508
21
-150.629
0
LINE
8
Black
10
148.508
20
-150.629
11
149.408
21
-150.629
0
LINE
8
Black
10
149.408
20
-150.629
11
149.408
21
-151.029
0
LINE
8
Black
10
153.408
20
-151.029
11
152.508
21
-151.029
0
LINE
8
Black
10
152.508
20
-151.029
11
152.508
21
-150.629
0
LINE
8
Black
10
152.508
20
-150.629
11
153.408
21
-150.629
0
LINE
8
Black
10
153.408
20
-150.629
11
153.408
21
-151.029
0
LINE
8
Black
10
149.408
20
-150.529
11
148.508
21
-150.529
0
LINE
8
Black
10
148.508
20
-150.529
11
148.508
21
-150.129
0
LINE
8
Black
10
148.508
20
-150.129
11
149.408
21
-150.129
0
LINE
8
Black
10
149.408
20
-150.129
11
149.408
21
-150.529
0
LINE
8
Black
10
153.408
20
-150.529
11
152.508
21
-150.529
0
LINE
8
Black
10
152.508
20
-150.529
11
152.508
21
-150.129
0
LINE
8
Black
10
152.508
20
-150.129
11
153.408
21
-150.129
0
LINE
8
Black
10
153.408
20
-150.129
11
153.408
21
-150.529
0
LINE
8
Black
10
109.055
20
-149.712
11
108.446
21
-150.505
0
LINE
8
Black
10
108.446
20
-150.505
11
107.732
21
-149.958
0
LINE
8
Black
10
107.732
20
-149.958
11
108.341
21
-149.164
0
LINE
8
Black
10
108.341
20
-149.164
11
109.055
21
-149.712
0
LINE
8
Black
10
154.362
20
-150.409
11
153.762
21
-150.409
0
LINE
8
Black
10
153.762
20
-150.409
11
153.762
21
-149.709
0
LINE
8
Black
10
153.762
20
-149.709
11
154.362
21
-149.709
0
LINE
8
Black
10
154.362
20
-149.709
11
154.362
21
-150.409
0
LINE
8
Black
10
155.261
20
-150.399
11
154.661
21
-150.399
0
LINE
8
Black
10
154.661
20
-150.399
11
154.661
21
-149.699
0
LINE
8
Black
10
154.661
20
-149.699
11
155.261
21
-149.699
0
LINE
8
Black
10
155.261
20
-149.699
11
155.261
21
-150.399
0
LINE
8
Black
10
156.222
20
-150.389
11
155.622
21
-150.389
0
LINE
8
Black
10
155.622
20
-150.389
11
155.622
21
-149.689
0
LINE
8
Black
10
155.622
20
-149.689
11
156.222
21
-149.689
0
LINE
8
Black
10
156.222
20
-149.689
11
156.222
21
-150.389
0
LINE
8
Black
10
148.174
20
-150.17
11
147.474
21
-150.17
0
LINE
8
Black
10
147.474
20
-150.17
11
147.474
21
-149.67
0
LINE
8
Black
10
147.474
20
-149.67
11
148.174
21
-149.67
0
LINE
8
Black
10
148.174
20
-149.67
11
148.174
21
-150.17
0
LINE
8
Black
10
152.408
20
-150.029
11
152.008
21
-150.029
0
LINE
8
Black
10
152.008
20
-150.029
11
152.008
21
-149.129
0
LINE
8
Black
10
152.008
20
-149.129
11
152.408
21
-149.129
0
LINE
8
Black
10
152.408
20
-149.129
11
152.408
21
-150.029
0
LINE
8
Black
10
151.908
20
-150.029
11
151.508
21
-150.029
0
LINE
8
Black
10
151.508
20
-150.029
11
151.508
21
-149.129
0
LINE
8
Black
10
151.508
20
-149.129
11
151.908
21
-149.129
0
LINE
8
Black
10
151.908
20
-149.129
11
151.908
21
-150.029
0
LINE
8
Black
10
150.908
20
-150.029
11
150.508
21
-150.029
0
LINE
8
Black
10
150.508
20
-150.029
11
150.508
21
-149.129
0
LINE
8
Black
10
150.508
20
-149.129
11
150.908
21
-149.129
0
LINE
8
Black
10
150.908
20
-149.129
11
150.908
21
-150.029
0
LINE
8
Black
10
150.408
20
-150.029
11
150.008
21
-150.029
0
LINE
8
Black
10
150.008
20
-150.029
11
150.008
21
-149.129
0
LINE
8
Black
10
150.008
20
-149.129
11
150.408
21
-149.129
0
LINE
8
Black
10
150.408
20
-149.129
11
150.408
21
-150.029
0
LINE
8
Black
10
149.908
20
-150.029
11
149.508
21
-150.029
0
LINE
8
Black
10
149.508
20
-150.029
11
149.508
21
-149.129
0
LINE
8
Black
10
149.508
20
-149.129
11
149.908
21
-149.129
0
LINE
8
Black
10
149.908
20
-149.129
11
149.908
21
-150.029
0
LINE
8
Black
10
151.408
20
-150.029
11
151.008
21
-150.029
0
LINE
8
Black
10
151.008
20
-150.029
11
151.008
21
-149.129
0
LINE
8
Black
10
151.008
20
-149.129
11
151.408
21
-149.129
0
LINE
8
Black
10
151.408
20
-149.129
11
151.408
21
-150.029
0
LINE
8
Black
10
110.67
20
-149.404
11
110.244
21
-149.959
0
LINE
8
Black
10
110.244
20
-149.959
11
109.847
21
-149.655
0
LINE
8
Black
10
109.847
20
-149.655
11
110.274
21
-149.099
0
LINE
8
Black
10
110.274
20
-149.099
11
110.67
21
-149.404
0
LINE
8
Black
10
109.956
20
-148.856
11
109.53
21
-149.411
0
LINE
8
Black
10
109.53
20
-149.411
11
109.133
21
-149.107
0
LINE
8
Black
10
109.133
20
-149.107
11
109.56
21
-148.552
0
LINE
8
Black
10
109.56
20
-148.552
11
109.956
21
-148.856
0
LINE
8
Black
10
147.274
20
-149.405
11
146.774
21
-149.405
0
LINE
8
Black
10
146.774
20
-149.405
11
146.774
21
-148.705
0
LINE
8
Black
10
146.774
20
-148.705
11
147.274
21
-148.705
0
LINE
8
Black
10
147.274
20
-148.705
11
147.274
21
-149.405
0
LINE
8
Black
10
148.174
20
-149.405
11
147.674
21
-149.405
0
LINE
8
Black
10
147.674
20
-149.405
11
147.674
21
-148.705
0
LINE
8
Black
10
147.674
20
-148.705
11
148.174
21
-148.705
0
LINE
8
Black
10
148.174
20
-148.705
11
148.174
21
-149.405
0
LINE
8
Black
10
145.572
20
-149.405
11
145.072
21
-149.405
0
LINE
8
Black
10
145.072
20
-149.405
11
145.072
21
-148.705
0
LINE
8
Black
10
145.072
20
-148.705
11
145.572
21
-148.705
0
LINE
8
Black
10
145.572
20
-148.705
11
145.572
21
-149.405
0
LINE
8
Black
10
146.472
20
-149.405
11
145.972
21
-149.405
0
LINE
8
Black
10
145.972
20
-149.405
11
145.972
21
-148.705
0
LINE
8
Black
10
145.972
20
-148.705
11
146.472
21
-148.705
0
LINE
8
Black
10
146.472
20
-148.705
11
146.472
21
-149.405
0
LINE
8
Black
10
159.868
20
-149.392
11
158.518
21
-149.392
0
LINE
8
Black
10
158.518
20
-149.392
11
158.518
21
-148.292
0
LINE
8
Black
10
158.518
20
-148.292
11
159.868
21
-148.292
0
LINE
8
Black
10
159.868
20
-148.292
11
159.868
21
-149.392
0
LINE
8
Black
10
158.019
20
-149.387
11
156.669
21
-149.387
0
LINE
8
Black
10
156.669
20
-149.387
11
156.669
21
-148.287
0
LINE
8
Black
10
156.669
20
-148.287
11
158.019
21
-148.287
0
LINE
8
Black
10
158.019
20
-148.287
11
158.019
21
-149.387
0
LINE
8
Black
10
111.616
20
-148.638
11
111.251
21
-149.114
0
LINE
8
Black
10
111.251
20
-149.114
11
110.696
21
-148.688
0
LINE
8
Black
10
110.696
20
-148.688
11
111.061
21
-148.212
0
LINE
8
Black
10
111.061
20
-148.212
11
111.616
21
-148.638
0
LINE
8
Black
10
150.658
20
-148.449
11
149.958
21
-148.449
0
LINE
8
Black
10
149.958
20
-148.449
11
149.958
21
-147.949
0
LINE
8
Black
10
149.958
20
-147.949
11
150.658
21
-147.949
0
LINE
8
Black
10
150.658
20
-147.949
11
150.658
21
-148.449
0
LINE
8
Black
10
151.72
20
-148.449
11
151.02
21
-148.449
0
LINE
8
Black
10
151.02
20
-148.449
11
151.02
21
-147.949
0
LINE
8
Black
10
151.02
20
-147.949
11
151.72
21
-147.949
0
LINE
8
Black
10
151.72
20
-147.949
11
151.72
21
-148.449
0
LINE
8
Black
10
110.744
20
-147.969
11
110.378
21
-148.445
0
LINE
8
Black
10
110.378
20
-148.445
11
109.823
21
-148.018
0
LINE
8
Black
10
109.823
20
-148.018
11
110.188
21
-147.542
0
LINE
8
Black
10
110.188
20
-147.542
11
110.744
21
-147.969
0
LINE
8
Black
10
150.658
20
-147.549
11
149.958
21
-147.549
0
LINE
8
Black
10
149.958
20
-147.549
11
149.958
21
-147.049
0
LINE
8
Black
10
149.958
20
-147.049
11
150.658
21
-147.049
0
LINE
8
Black
10
150.658
20
-147.049
11
150.658
21
-147.549
0
LINE
8
Black
10
151.72
20
-147.549
11
151.02
21
-147.549
0
LINE
8
Black
10
151.02
20
-147.549
11
151.02
21
-147.049
0
LINE
8
Black
10
151.02
20
-147.049
11
151.72
21
-147.049
0
LINE
8
Black
10
151.72
20
-147.049
11
151.72
21
-147.549
0
LINE
8
Black
10
156.111
20
-145.413
11
156.428
21
-145.596
0
LINE
8
Black
10
156.428
20
-145.596
11
156.663
21
-145.876
0
LINE
8
Black
10
156.663
20
-145.876
11
156.788
21
-146.22
0
LINE
8
Black
10
156.788
20
-146.22
11
156.788
21
-146.586
0
LINE
8
Black
10
156.788
20
-146.586
11
156.663
21
-146.93
0
LINE
8
Black
10
156.663
20
-146.93
11
156.428
21
-147.21
0
LINE
8
Black
10
156.428
20
-147.21
11
156.111
21
-147.393
0
LINE
8
Black
10
156.111
20
-147.393
11
155.75
21
-147.457
0
LINE
8
Black
10
155.75
20
-147.457
11
155.39
21
-147.393
0
LINE
8
Black
10
155.39
20
-147.393
11
155.073
21
-147.21
0
LINE
8
Black
10
155.073
20
-147.21
11
154.837
21
-146.93
0
LINE
8
Black
10
154.837
20
-146.93
11
154.712
21
-146.586
0
LINE
8
Black
10
154.712
20
-146.586
11
154.712
21
-146.22
0
LINE
8
Black
10
154.712
20
-146.22
11
154.837
21
-145.876
0
LINE
8
Black
10
154.837
20
-145.876
11
155.073
21
-145.596
0
LINE
8
Black
10
155.073
20
-145.596
11
155.39
21
-145.413
0
LINE
8
Black
10
155.39
20
-145.413
11
155.75
21
-145.349
0
LINE
8
Black
10
155.75
20
-145.349
11
156.111
21
-145.413
0
LINE
8
Black
10
146.111
20
-145.413
11
146.428
21
-145.596
0
LINE
8
Black
10
146.428
20
-145.596
11
146.663
21
-145.876
0
LINE
8
Black
10
146.663
20
-145.876
11
146.788
21
-146.22
0
LINE
8
Black
10
146.788
20
-146.22
11
146.788
21
-146.586
0
LINE
8
Black
10
146.788
20
-146.586
11
146.663
21
-146.93
0
LINE
8
Black
10
146.663
20
-146.93
11
146.428
21
-147.21
0
LINE
8
Black
10
146.428
20
-147.21
11
146.111
21
-147.393
0
LINE
8
Black
10
146.111
20
-147.393
11
145.75
21
-147.457
0
LINE
8
Black
10
145.75
20
-147.457
11
145.39
21
-147.393
0
LINE
8
Black
10
145.39
20
-147.393
11
145.073
21
-147.21
0
LINE
8
Black
10
145.073
20
-147.21
11
144.837
21
-146.93
0
LINE
8
Black
10
144.837
20
-146.93
11
144.712
21
-146.586
0
LINE
8
Black
10
144.712
20
-146.586
11
144.712
21
-146.22
0
LINE
8
Black
10
144.712
20
-146.22
11
144.837
21
-145.876
0
LINE
8
Black
10
144.837
20
-145.876
11
145.073
21
-145.596
0
LINE
8
Black
10
145.073
20
-145.596
11
145.39
21
-145.413
0
LINE
8
Black
10
145.39
20
-145.413
11
145.75
21
-145.349
0
LINE
8
Black
10
145.75
20
-145.349
11
146.111
21
-145.413
0
LINE
8
Black
10
152.685
20
-146.503
11
151.785
21
-146.503
0
LINE
8
Black
10
151.785
20
-146.503
11
151.785
21
-145.653
0
LINE
8
Black
10
151.785
20
-145.653
11
152.685
21
-145.653
0
LINE
8
Black
10
152.685
20
-145.653
11
152.685
21
-146.503
0
LINE
8
Black
10
154.185
20
-146.503
11
153.285
21
-146.503
0
LINE
8
Black
10
153.285
20
-146.503
11
153.285
21
-145.653
0
LINE
8
Black
10
153.285
20
-145.653
11
154.185
21
-145.653
0
LINE
8
Black
10
154.185
20
-145.653
11
154.185
21
-146.503
0
LINE
8
Black
10
149.969
20
-146.488
11
149.069
21
-146.488
0
LINE
8
Black
10
149.069
20
-146.488
11
149.069
21
-145.638
0
LINE
8
Black
10
149.069
20
-145.638
11
149.969
21
-145.638
0
LINE
8
Black
10
149.969
20
-145.638
11
149.969
21
-146.488
0
LINE
8
Black
10
148.469
20
-146.488
11
147.569
21
-146.488
0
LINE
8
Black
10
147.569
20
-146.488
11
147.569
21
-145.638
0
LINE
8
Black
10
147.569
20
-145.638
11
148.469
21
-145.638
0
LINE
8
Black
10
148.469
20
-145.638
11
148.469
21
-146.488
0
LINE
8
Black
10
91.9084
20
-136.255
11
92.7671
21
-136.751
0
LINE
8
Black
10
92.7671
20
-136.751
11
93.4044
21
-137.511
0
LINE
8
Black
10
93.4044
20
-137.511
11
93.7435
21
-138.442
0
LINE
8
Black
10
93.7435
20
-138.442
11
93.7435
21
-139.434
0
LINE
8
Black
10
93.7435
20
-139.434
11
93.4044
21
-140.365
0
LINE
8
Black
10
93.4044
20
-140.365
11
92.7671
21
-141.125
0
LINE
8
Black
10
92.7671
20
-141.125
11
91.9084
21
-141.621
0
LINE
8
Black
10
91.9084
20
-141.621
11
90.932
21
-141.793
0
LINE
8
Black
10
90.932
20
-141.793
11
89.9556
21
-141.621
0
LINE
8
Black
10
89.9556
20
-141.621
11
89.0969
21
-141.125
0
LINE
8
Black
10
89.0969
20
-141.125
11
88.4596
21
-140.365
0
LINE
8
Black
10
88.4596
20
-140.365
11
88.1205
21
-139.434
0
LINE
8
Black
10
88.1205
20
-139.434
11
88.1205
21
-138.442
0
LINE
8
Black
10
88.1205
20
-138.442
11
88.4596
21
-137.511
0
LINE
8
Black
10
88.4596
20
-137.511
11
89.0969
21
-136.751
0
LINE
8
Black
10
89.0969
20
-136.751
11
89.9556
21
-136.255
0
LINE
8
Black
10
89.9556
20
-136.255
11
90.932
21
-136.083
0
LINE
8
Black
10
90.932
20
-136.083
11
91.9084
21
-136.255
0
LINE
8
Black
10
146.562
20
-132.419
11
146.807
21
-132.56
0
LINE
8
Black
10
146.807
20
-132.56
11
146.989
21
-132.777
0
LINE
8
Black
10
146.989
20
-132.777
11
147.086
21
-133.043
0
LINE
8
Black
10
147.086
20
-133.043
11
147.086
21
-133.326
0
LINE
8
Black
10
147.086
20
-133.326
11
146.989
21
-133.592
0
LINE
8
Black
10
146.989
20
-133.592
11
146.807
21
-133.809
0
LINE
8
Black
10
146.807
20
-133.809
11
146.562
21
-133.951
0
LINE
8
Black
10
146.562
20
-133.951
11
146.283
21
-134
0
LINE
8
Black
10
146.283
20
-134
11
146.005
21
-133.951
0
LINE
8
Black
10
146.005
20
-133.951
11
145.76
21
-133.809
0
LINE
8
Black
10
145.76
20
-133.809
11
145.578
21
-133.592
0
LINE
8
Black
10
145.578
20
-133.592
11
145.481
21
-133.326
0
LINE
8
Black
10
145.481
20
-133.326
11
145.481
21
-133.043
0
LINE
8
Black
10
145.481
20
-133.043
11
145.578
21
-132.777
0
LINE
8
Black
10
145.578
20
-132.777
11
145.76
21
-132.56
0
LINE
8
Black
10
145.76
20
-132.56
11
146.005
21
-132.419
0
LINE
8
Black
10
146.005
20
-132.419
11
146.283
21
-132.37
0
LINE
8
Black
10
146.283
20
-132.37
11
146.562
21
-132.419
0
LINE
8
Black
10
158.166
20
-133.035
11
158.088
21
-133.63
0
LINE
8
Black
10
158.088
20
-133.63
11
157.394
21
-133.539
0
LINE
8
Black
10
157.394
20
-133.539
11
157.472
21
-132.944
0
LINE
8
Black
10
157.472
20
-132.944
11
158.166
21
-133.035
0
LINE
8
Black
10
157.076
20
-132.892
11
156.997
21
-133.487
0
LINE
8
Black
10
156.997
20
-133.487
11
156.303
21
-133.395
0
LINE
8
Black
10
156.303
20
-133.395
11
156.382
21
-132.8
0
LINE
8
Black
10
156.382
20
-132.8
11
157.076
21
-132.892
0
LINE
8
Black
10
156.554
20
-131.223
11
156.436
21
-132.115
0
LINE
8
Black
10
156.436
20
-132.115
11
155.445
21
-131.985
0
LINE
8
Black
10
155.445
20
-131.985
11
155.562
21
-131.093
0
LINE
8
Black
10
155.562
20
-131.093
11
156.554
21
-131.223
0
LINE
8
Black
10
147.047
20
-129.926
11
147.292
21
-130.067
0
LINE
8
Black
10
147.292
20
-130.067
11
147.474
21
-130.284
0
LINE
8
Black
10
147.474
20
-130.284
11
147.571
21
-130.55
0
LINE
8
Black
10
147.571
20
-130.55
11
147.571
21
-130.833
0
LINE
8
Black
10
147.571
20
-130.833
11
147.474
21
-131.099
0
LINE
8
Black
10
147.474
20
-131.099
11
147.292
21
-131.316
0
LINE
8
Black
10
147.292
20
-131.316
11
147.047
21
-131.457
0
LINE
8
Black
10
147.047
20
-131.457
11
146.768
21
-131.507
0
LINE
8
Black
10
146.768
20
-131.507
11
146.489
21
-131.457
0
LINE
8
Black
10
146.489
20
-131.457
11
146.244
21
-131.316
0
LINE
8
Black
10
146.244
20
-131.316
11
146.062
21
-131.099
0
LINE
8
Black
10
146.062
20
-131.099
11
145.965
21
-130.833
0
LINE
8
Black
10
145.965
20
-130.833
11
145.965
21
-130.55
0
LINE
8
Black
10
145.965
20
-130.55
11
146.062
21
-130.284
0
LINE
8
Black
10
146.062
20
-130.284
11
146.244
21
-130.067
0
LINE
8
Black
10
146.244
20
-130.067
11
146.489
21
-129.926
0
LINE
8
Black
10
146.489
20
-129.926
11
146.768
21
-129.876
0
LINE
8
Black
10
146.768
20
-129.876
11
147.047
21
-129.926
0
LINE
8
Black
10
158.66
20
-130.542
11
158.543
21
-131.435
0
LINE
8
Black
10
158.543
20
-131.435
11
157.551
21
-131.304
0
LINE
8
Black
10
157.551
20
-131.304
11
157.669
21
-130.412
0
LINE
8
Black
10
157.669
20
-130.412
11
158.66
21
-130.542
0
LINE
8
Black
10
155.105
20
-130.792
11
155.039
21
-131.288
0
LINE
8
Black
10
155.039
20
-131.288
11
154.345
21
-131.197
0
LINE
8
Black
10
154.345
20
-131.197
11
154.411
21
-130.701
0
LINE
8
Black
10
154.411
20
-130.701
11
155.105
21
-130.792
0
LINE
8
Black
10
86.6013
20
-130.014
11
86.7667
21
-130.109
0
LINE
8
Black
10
86.7667
20
-130.109
11
86.8895
21
-130.256
0
LINE
8
Black
10
86.8895
20
-130.256
11
86.9548
21
-130.435
0
LINE
8
Black
10
86.9548
20
-130.435
11
86.9548
21
-130.626
0
LINE
8
Black
10
86.9548
20
-130.626
11
86.8895
21
-130.806
0
LINE
8
Black
10
86.8895
20
-130.806
11
86.7667
21
-130.952
0
LINE
8
Black
10
86.7667
20
-130.952
11
86.6013
21
-131.047
0
LINE
8
Black
10
86.6013
20
-131.047
11
86.4132
21
-131.081
0
LINE
8
Black
10
86.4132
20
-131.081
11
85.8569
21
-131.081
0
LINE
8
Black
10
85.8569
20
-131.081
11
85.6688
21
-131.047
0
LINE
8
Black
10
85.6688
20
-131.047
11
85.5033
21
-130.952
0
LINE
8
Black
10
85.5033
20
-130.952
11
85.3805
21
-130.806
0
LINE
8
Black
10
85.3805
20
-130.806
11
85.3152
21
-130.626
0
LINE
8
Black
10
85.3152
20
-130.626
11
85.3152
21
-130.435
0
LINE
8
Black
10
85.3152
20
-130.435
11
85.3805
21
-130.256
0
LINE
8
Black
10
85.3805
20
-130.256
11
85.5033
21
-130.109
0
LINE
8
Black
10
85.5033
20
-130.109
11
85.6688
21
-130.014
0
LINE
8
Black
10
85.6688
20
-130.014
11
85.8569
21
-129.981
0
LINE
8
Black
10
85.8569
20
-129.981
11
86.4132
21
-129.981
0
LINE
8
Black
10
86.4132
20
-129.981
11
86.6013
21
-130.014
0
LINE
8
Black
10
155.222
20
-129.9
11
155.157
21
-130.396
0
LINE
8
Black
10
155.157
20
-130.396
11
154.463
21
-130.304
0
LINE
8
Black
10
154.463
20
-130.304
11
154.528
21
-129.809
0
LINE
8
Black
10
154.528
20
-129.809
11
155.222
21
-129.9
0
LINE
8
Black
10
156.802
20
-129.339
11
156.684
21
-130.232
0
LINE
8
Black
10
156.684
20
-130.232
11
155.693
21
-130.101
0
LINE
8
Black
10
155.693
20
-130.101
11
155.81
21
-129.209
0
LINE
8
Black
10
155.81
20
-129.209
11
156.802
21
-129.339
0
LINE
8
Black
10
89.0975
20
-128.923
11
89.2372
21
-129.041
0
LINE
8
Black
10
89.2372
20
-129.041
11
89.3284
21
-129.199
0
LINE
8
Black
10
89.3284
20
-129.199
11
89.36
21
-129.378
0
LINE
8
Black
10
89.36
20
-129.378
11
89.36
21
-129.683
0
LINE
8
Black
10
89.36
20
-129.683
11
89.3284
21
-129.863
0
LINE
8
Black
10
89.3284
20
-129.863
11
89.2372
21
-130.021
0
LINE
8
Black
10
89.2372
20
-130.021
11
89.0975
21
-130.138
0
LINE
8
Black
10
89.0975
20
-130.138
11
88.9262
21
-130.2
0
LINE
8
Black
10
88.9262
20
-130.2
11
88.7438
21
-130.2
0
LINE
8
Black
10
88.7438
20
-130.2
11
88.5725
21
-130.138
0
LINE
8
Black
10
88.5725
20
-130.138
11
88.4328
21
-130.021
0
LINE
8
Black
10
88.4328
20
-130.021
11
88.3417
21
-129.863
0
LINE
8
Black
10
88.3417
20
-129.863
11
88.31
21
-129.683
0
LINE
8
Black
10
88.31
20
-129.683
11
88.31
21
-129.378
0
LINE
8
Black
10
88.31
20
-129.378
11
88.3417
21
-129.199
0
LINE
8
Black
10
88.3417
20
-129.199
11
88.4328
21
-129.041
0
LINE
8
Black
10
88.4328
20
-129.041
11
88.5725
21
-128.923
0
LINE
8
Black
10
88.5725
20
-128.923
11
88.7438
21
-128.861
0
LINE
8
Black
10
88.7438
20
-128.861
11
88.9262
21
-128.861
0
LINE
8
Black
10
88.9262
20
-128.861
11
89.0975
21
-128.923
0
LINE
8
Black
10
165.361
20
-124.279
11
166.22
21
-124.775
0
LINE
8
Black
10
166.22
20
-124.775
11
166.857
21
-125.534
0
LINE
8
Black
10
166.857
20
-125.534
11
167.196
21
-126.466
0
LINE
8
Black
10
167.196
20
-126.466
11
167.196
21
-127.458
0
LINE
8
Black
10
167.196
20
-127.458
11
166.857
21
-128.389
0
LINE
8
Black
10
166.857
20
-128.389
11
166.22
21
-129.149
0
LINE
8
Black
10
166.22
20
-129.149
11
165.361
21
-129.644
0
LINE
8
Black
10
165.361
20
-129.644
11
164.385
21
-129.817
0
LINE
8
Black
10
164.385
20
-129.817
11
163.408
21
-129.644
0
LINE
8
Black
10
163.408
20
-129.644
11
162.55
21
-129.149
0
LINE
8
Black
10
162.55
20
-129.149
11
161.913
21
-128.389
0
LINE
8
Black
10
161.913
20
-128.389
11
161.573
21
-127.458
0
LINE
8
Black
10
161.573
20
-127.458
11
161.573
21
-126.466
0
LINE
8
Black
10
161.573
20
-126.466
11
161.913
21
-125.534
0
LINE
8
Black
10
161.913
20
-125.534
11
162.55
21
-124.775
0
LINE
8
Black
10
162.55
20
-124.775
11
163.408
21
-124.279
0
LINE
8
Black
10
163.408
20
-124.279
11
164.385
21
-124.107
0
LINE
8
Black
10
164.385
20
-124.107
11
165.361
21
-124.279
0
LINE
8
Black
10
147.532
20
-127.432
11
147.777
21
-127.574
0
LINE
8
Black
10
147.777
20
-127.574
11
147.959
21
-127.791
0
LINE
8
Black
10
147.959
20
-127.791
11
148.055
21
-128.057
0
LINE
8
Black
10
148.055
20
-128.057
11
148.055
21
-128.34
0
LINE
8
Black
10
148.055
20
-128.34
11
147.959
21
-128.606
0
LINE
8
Black
10
147.959
20
-128.606
11
147.777
21
-128.823
0
LINE
8
Black
10
147.777
20
-128.823
11
147.532
21
-128.964
0
LINE
8
Black
10
147.532
20
-128.964
11
147.253
21
-129.013
0
LINE
8
Black
10
147.253
20
-129.013
11
146.974
21
-128.964
0
LINE
8
Black
10
146.974
20
-128.964
11
146.729
21
-128.823
0
LINE
8
Black
10
146.729
20
-128.823
11
146.547
21
-128.606
0
LINE
8
Black
10
146.547
20
-128.606
11
146.45
21
-128.34
0
LINE
8
Black
10
146.45
20
-128.34
11
146.45
21
-128.057
0
LINE
8
Black
10
146.45
20
-128.057
11
146.547
21
-127.791
0
LINE
8
Black
10
146.547
20
-127.791
11
146.729
21
-127.574
0
LINE
8
Black
10
146.729
20
-127.574
11
146.974
21
-127.432
0
LINE
8
Black
10
146.974
20
-127.432
11
147.253
21
-127.383
0
LINE
8
Black
10
147.253
20
-127.383
11
147.532
21
-127.432
0
LINE
8
Black
10
98.4713
20
-127.344
11
98.7164
21
-127.485
0
LINE
8
Black
10
98.7164
20
-127.485
11
98.8984
21
-127.702
0
LINE
8
Black
10
98.8984
20
-127.702
11
98.9952
21
-127.968
0
LINE
8
Black
10
98.9952
20
-127.968
11
98.9952
21
-128.251
0
LINE
8
Black
10
98.9952
20
-128.251
11
98.8984
21
-128.517
0
LINE
8
Black
10
98.8984
20
-128.517
11
98.7164
21
-128.734
0
LINE
8
Black
10
98.7164
20
-128.734
11
98.4713
21
-128.876
0
LINE
8
Black
10
98.4713
20
-128.876
11
98.1925
21
-128.925
0
LINE
8
Black
10
98.1925
20
-128.925
11
97.9137
21
-128.876
0
LINE
8
Black
10
97.9137
20
-128.876
11
97.6686
21
-128.734
0
LINE
8
Black
10
97.6686
20
-128.734
11
97.4866
21
-128.517
0
LINE
8
Black
10
97.4866
20
-128.517
11
97.3898
21
-128.251
0
LINE
8
Black
10
97.3898
20
-128.251
11
97.3898
21
-127.968
0
LINE
8
Black
10
97.3898
20
-127.968
11
97.4866
21
-127.702
0
LINE
8
Black
10
97.4866
20
-127.702
11
97.6686
21
-127.485
0
LINE
8
Black
10
97.6686
20
-127.485
11
97.9137
21
-127.344
0
LINE
8
Black
10
97.9137
20
-127.344
11
98.1925
21
-127.295
0
LINE
8
Black
10
98.1925
20
-127.295
11
98.4713
21
-127.344
0
LINE
8
Black
10
159.038
20
-126.62
11
159.283
21
-126.762
0
LINE
8
Black
10
159.283
20
-126.762
11
159.465
21
-126.978
0
LINE
8
Black
10
159.465
20
-126.978
11
159.562
21
-127.244
0
LINE
8
Black
10
159.562
20
-127.244
11
159.562
21
-127.528
0
LINE
8
Black
10
159.562
20
-127.528
11
159.465
21
-127.794
0
LINE
8
Black
10
159.465
20
-127.794
11
159.283
21
-128.01
0
LINE
8
Black
10
159.283
20
-128.01
11
159.038
21
-128.152
0
LINE
8
Black
10
159.038
20
-128.152
11
158.759
21
-128.201
0
LINE
8
Black
10
158.759
20
-128.201
11
158.48
21
-128.152
0
LINE
8
Black
10
158.48
20
-128.152
11
158.235
21
-128.01
0
LINE
8
Black
10
158.235
20
-128.01
11
158.053
21
-127.794
0
LINE
8
Black
10
158.053
20
-127.794
11
157.956
21
-127.528
0
LINE
8
Black
10
157.956
20
-127.528
11
157.956
21
-127.244
0
LINE
8
Black
10
157.956
20
-127.244
11
158.053
21
-126.978
0
LINE
8
Black
10
158.053
20
-126.978
11
158.235
21
-126.762
0
LINE
8
Black
10
158.235
20
-126.762
11
158.48
21
-126.62
0
LINE
8
Black
10
158.48
20
-126.62
11
158.759
21
-126.571
0
LINE
8
Black
10
158.759
20
-126.571
11
159.038
21
-126.62
0
LINE
8
Black
10
89.0975
20
-123.923
11
89.2372
21
-124.041
0
LINE
8
Black
10
89.2372
20
-124.041
11
89.3284
21
-124.199
0
LINE
8
Black
10
89.3284
20
-124.199
11
89.36
21
-124.378
0
LINE
8
Black
10
89.36
20
-124.378
11
89.36
21
-124.683
0
LINE
8
Black
10
89.36
20
-124.683
11
89.3284
21
-124.863
0
LINE
8
Black
10
89.3284
20
-124.863
11
89.2372
21
-125.021
0
LINE
8
Black
10
89.2372
20
-125.021
11
89.0975
21
-125.138
0
LINE
8
Black
10
89.0975
20
-125.138
11
88.9262
21
-125.2
0
LINE
8
Black
10
88.9262
20
-125.2
11
88.7438
21
-125.2
0
LINE
8
Black
10
88.7438
20
-125.2
11
88.5725
21
-125.138
0
LINE
8
Black
10
88.5725
20
-125.138
11
88.4328
21
-125.021
0
LINE
8
Black
10
88.4328
20
-125.021
11
88.3417
21
-124.863
0
LINE
8
Black
10
88.3417
20
-124.863
11
88.31
21
-124.683
0
LINE
8
Black
10
88.31
20
-124.683
11
88.31
21
-124.378
0
LINE
8
Black
10
88.31
20
-124.378
11
88.3417
21
-124.199
0
LINE
8
Black
10
88.3417
20
-124.199
11
88.4328
21
-124.041
0
LINE
8
Black
10
88.4328
20
-124.041
11
88.5725
21
-123.923
0
LINE
8
Black
10
88.5725
20
-123.923
11
88.7438
21
-123.861
0
LINE
8
Black
10
88.7438
20
-123.861
11
88.9262
21
-123.861
0
LINE
8
Black
10
88.9262
20
-123.861
11
89.0975
21
-123.923
0
LINE
8
Black
10
98.3002
20
-123.746
11
98.1749
21
-124.638
0
LINE
8
Black
10
98.1749
20
-124.638
11
97.1847
21
-124.499
0
LINE
8
Black
10
97.1847
20
-124.499
11
97.3099
21
-123.607
0
LINE
8
Black
10
97.3099
20
-123.607
11
98.3002
21
-123.746
0
LINE
8
Black
10
99.5018
20
-123.823
11
99.4323
21
-124.318
0
LINE
8
Black
10
99.4323
20
-124.318
11
98.7391
21
-124.22
0
LINE
8
Black
10
98.7391
20
-124.22
11
98.8087
21
-123.725
0
LINE
8
Black
10
98.8087
20
-123.725
11
99.5018
21
-123.823
0
LINE
8
Black
10
86.6013
20
-123.014
11
86.7667
21
-123.109
0
LINE
8
Black
10
86.7667
20
-123.109
11
86.8895
21
-123.256
0
LINE
8
Black
10
86.8895
20
-123.256
11
86.9548
21
-123.435
0
LINE
8
Black
10
86.9548
20
-123.435
11
86.9548
21
-123.626
0
LINE
8
Black
10
86.9548
20
-123.626
11
86.8895
21
-123.806
0
LINE
8
Black
10
86.8895
20
-123.806
11
86.7667
21
-123.952
0
LINE
8
Black
10
86.7667
20
-123.952
11
86.6013
21
-124.047
0
LINE
8
Black
10
86.6013
20
-124.047
11
86.4132
21
-124.081
0
LINE
8
Black
10
86.4132
20
-124.081
11
85.8569
21
-124.081
0
LINE
8
Black
10
85.8569
20
-124.081
11
85.6688
21
-124.047
0
LINE
8
Black
10
85.6688
20
-124.047
11
85.5033
21
-123.952
0
LINE
8
Black
10
85.5033
20
-123.952
11
85.3805
21
-123.806
0
LINE
8
Black
10
85.3805
20
-123.806
11
85.3152
21
-123.626
0
LINE
8
Black
10
85.3152
20
-123.626
11
85.3152
21
-123.435
0
LINE
8
Black
10
85.3152
20
-123.435
11
85.3805
21
-123.256
0
LINE
8
Black
10
85.3805
20
-123.256
11
85.5033
21
-123.109
0
LINE
8
Black
10
85.5033
20
-123.109
11
85.6688
21
-123.014
0
LINE
8
Black
10
85.6688
20
-123.014
11
85.8569
21
-122.981
0
LINE
8
Black
10
85.8569
20
-122.981
11
86.4132
21
-122.981
0
LINE
8
Black
10
86.4132
20
-122.981
11
86.6013
21
-123.014
0
LINE
8
Black
10
99.6271
20
-122.932
11
99.5575
21
-123.427
0
LINE
8
Black
10
99.5575
20
-123.427
11
98.8643
21
-123.329
0
LINE
8
Black
10
98.8643
20
-123.329
11
98.9339
21
-122.834
0
LINE
8
Black
10
98.9339
20
-122.834
11
99.6271
21
-122.932
0
LINE
8
Black
10
96.4519
20
-122.527
11
96.3266
21
-123.419
0
LINE
8
Black
10
96.3266
20
-123.419
11
95.3364
21
-123.279
0
LINE
8
Black
10
95.3364
20
-123.279
11
95.4616
21
-122.388
0
LINE
8
Black
10
95.4616
20
-122.388
11
96.4519
21
-122.527
0
LINE
8
Black
10
155.398
20
-121.558
11
155.643
21
-121.699
0
LINE
8
Black
10
155.643
20
-121.699
11
155.825
21
-121.916
0
LINE
8
Black
10
155.825
20
-121.916
11
155.922
21
-122.182
0
LINE
8
Black
10
155.922
20
-122.182
11
155.922
21
-122.465
0
LINE
8
Black
10
155.922
20
-122.465
11
155.825
21
-122.731
0
LINE
8
Black
10
155.825
20
-122.731
11
155.643
21
-122.948
0
LINE
8
Black
10
155.643
20
-122.948
11
155.398
21
-123.09
0
LINE
8
Black
10
155.398
20
-123.09
11
155.119
21
-123.139
0
LINE
8
Black
10
155.119
20
-123.139
11
154.84
21
-123.09
0
LINE
8
Black
10
154.84
20
-123.09
11
154.595
21
-122.948
0
LINE
8
Black
10
154.595
20
-122.948
11
154.413
21
-122.731
0
LINE
8
Black
10
154.413
20
-122.731
11
154.316
21
-122.465
0
LINE
8
Black
10
154.316
20
-122.465
11
154.316
21
-122.182
0
LINE
8
Black
10
154.316
20
-122.182
11
154.413
21
-121.916
0
LINE
8
Black
10
154.413
20
-121.916
11
154.595
21
-121.699
0
LINE
8
Black
10
154.595
20
-121.699
11
154.84
21
-121.558
0
LINE
8
Black
10
154.84
20
-121.558
11
155.119
21
-121.509
0
LINE
8
Black
10
155.119
20
-121.509
11
155.398
21
-121.558
0
LINE
8
Black
10
98.5646
20
-121.865
11
98.4394
21
-122.756
0
LINE
8
Black
10
98.4394
20
-122.756
11
97.4491
21
-122.617
0
LINE
8
Black
10
97.4491
20
-122.617
11
97.5744
21
-121.726
0
LINE
8
Black
10
97.5744
20
-121.726
11
98.5646
21
-121.865
0
LINE
8
Black
10
97.7651
20
-120.445
11
97.6816
21
-121.04
0
LINE
8
Black
10
97.6816
20
-121.04
11
96.9884
21
-120.942
0
LINE
8
Black
10
96.9884
20
-120.942
11
97.0719
21
-120.348
0
LINE
8
Black
10
97.0719
20
-120.348
11
97.7651
21
-120.445
0
LINE
8
Black
10
96.6758
20
-120.292
11
96.5923
21
-120.886
0
LINE
8
Black
10
96.5923
20
-120.886
11
95.8991
21
-120.789
0
LINE
8
Black
10
95.8991
20
-120.789
11
95.9826
21
-120.195
0
LINE
8
Black
10
95.9826
20
-120.195
11
96.6758
21
-120.292
0
LINE
8
Black
10
119.35
20
-116.625
11
119.595
21
-116.767
0
LINE
8
Black
10
119.595
20
-116.767
11
119.777
21
-116.984
0
LINE
8
Black
10
119.777
20
-116.984
11
119.874
21
-117.25
0
LINE
8
Black
10
119.874
20
-117.25
11
119.874
21
-117.533
0
LINE
8
Black
10
119.874
20
-117.533
11
119.777
21
-117.799
0
LINE
8
Black
10
119.777
20
-117.799
11
119.595
21
-118.015
0
LINE
8
Black
10
119.595
20
-118.015
11
119.35
21
-118.157
0
LINE
8
Black
10
119.35
20
-118.157
11
119.071
21
-118.206
0
LINE
8
Black
10
119.071
20
-118.206
11
118.793
21
-118.157
0
LINE
8
Black
10
118.793
20
-118.157
11
118.547
21
-118.015
0
LINE
8
Black
10
118.547
20
-118.015
11
118.365
21
-117.799
0
LINE
8
Black
10
118.365
20
-117.799
11
118.269
21
-117.533
0
LINE
8
Black
10
118.269
20
-117.533
11
118.269
21
-117.25
0
LINE
8
Black
10
118.269
20
-117.25
11
118.365
21
-116.984
0
LINE
8
Black
10
118.365
20
-116.984
11
118.547
21
-116.767
0
LINE
8
Black
10
118.547
20
-116.767
11
118.793
21
-116.625
0
LINE
8
Black
10
118.793
20
-116.625
11
119.071
21
-116.576
0
LINE
8
Black
10
119.071
20
-116.576
11
119.35
21
-116.625
0
LINE
8
Black
10
158.288
20
-116.498
11
158.533
21
-116.64
0
LINE
8
Black
10
158.533
20
-116.64
11
158.715
21
-116.857
0
LINE
8
Black
10
158.715
20
-116.857
11
158.812
21
-117.123
0
LINE
8
Black
10
158.812
20
-117.123
11
158.812
21
-117.406
0
LINE
8
Black
10
158.812
20
-117.406
11
158.715
21
-117.672
0
LINE
8
Black
10
158.715
20
-117.672
11
158.533
21
-117.888
0
LINE
8
Black
10
158.533
20
-117.888
11
158.288
21
-118.03
0
LINE
8
Black
10
158.288
20
-118.03
11
158.009
21
-118.079
0
LINE
8
Black
10
158.009
20
-118.079
11
157.731
21
-118.03
0
LINE
8
Black
10
157.731
20
-118.03
11
157.486
21
-117.888
0
LINE
8
Black
10
157.486
20
-117.888
11
157.304
21
-117.672
0
LINE
8
Black
10
157.304
20
-117.672
11
157.207
21
-117.406
0
LINE
8
Black
10
157.207
20
-117.406
11
157.207
21
-117.123
0
LINE
8
Black
10
157.207
20
-117.123
11
157.304
21
-116.857
0
LINE
8
Black
10
157.304
20
-116.857
11
157.486
21
-116.64
0
LINE
8
Black
10
157.486
20
-116.64
11
157.731
21
-116.498
0
LINE
8
Black
10
157.731
20
-116.498
11
158.009
21
-116.449
0
LINE
8
Black
10
158.009
20
-116.449
11
158.288
21
-116.498
0
LINE
8
Black
10
91.9084
20
-112.379
11
92.7671
21
-112.875
0
LINE
8
Black
10
92.7671
20
-112.875
11
93.4044
21
-113.635
0
LINE
8
Black
10
93.4044
20
-113.635
11
93.7435
21
-114.566
0
LINE
8
Black
10
93.7435
20
-114.566
11
93.7435
21
-115.558
0
LINE
8
Black
10
93.7435
20
-115.558
11
93.4044
21
-116.489
0
LINE
8
Black
10
93.4044
20
-116.489
11
92.7671
21
-117.249
0
LINE
8
Black
10
92.7671
20
-117.249
11
91.9084
21
-117.745
0
LINE
8
Black
10
91.9084
20
-117.745
11
90.932
21
-117.917
0
LINE
8
Black
10
90.932
20
-117.917
11
89.9556
21
-117.745
0
LINE
8
Black
10
89.9556
20
-117.745
11
89.0969
21
-117.249
0
LINE
8
Black
10
89.0969
20
-117.249
11
88.4596
21
-116.489
0
LINE
8
Black
10
88.4596
20
-116.489
11
88.1205
21
-115.558
0
LINE
8
Black
10
88.1205
20
-115.558
11
88.1205
21
-114.566
0
LINE
8
Black
10
88.1205
20
-114.566
11
88.4596
21
-113.635
0
LINE
8
Black
10
88.4596
20
-113.635
11
89.0969
21
-112.875
0
LINE
8
Black
10
89.0969
20
-112.875
11
89.9556
21
-112.379
0
LINE
8
Black
10
89.9556
20
-112.379
11
90.932
21
-112.207
0
LINE
8
Black
10
90.932
20
-112.207
11
91.9084
21
-112.379
0
LINE
8
Black
10
160.092
20
-115.254
11
160.337
21
-115.395
0
LINE
8
Black
10
160.337
20
-115.395
11
160.519
21
-115.612
0
LINE
8
Black
10
160.519
20
-115.612
11
160.616
21
-115.878
0
LINE
8
Black
10
160.616
20
-115.878
11
160.616
21
-116.161
0
LINE
8
Black
10
160.616
20
-116.161
11
160.519
21
-116.427
0
LINE
8
Black
10
160.519
20
-116.427
11
160.337
21
-116.644
0
LINE
8
Black
10
160.337
20
-116.644
11
160.092
21
-116.785
0
LINE
8
Black
10
160.092
20
-116.785
11
159.813
21
-116.835
0
LINE
8
Black
10
159.813
20
-116.835
11
159.534
21
-116.785
0
LINE
8
Black
10
159.534
20
-116.785
11
159.289
21
-116.644
0
LINE
8
Black
10
159.289
20
-116.644
11
159.107
21
-116.427
0
LINE
8
Black
10
159.107
20
-116.427
11
159.01
21
-116.161
0
LINE
8
Black
10
159.01
20
-116.161
11
159.01
21
-115.878
0
LINE
8
Black
10
159.01
20
-115.878
11
159.107
21
-115.612
0
LINE
8
Black
10
159.107
20
-115.612
11
159.289
21
-115.395
0
LINE
8
Black
10
159.289
20
-115.395
11
159.534
21
-115.254
0
LINE
8
Black
10
159.534
20
-115.254
11
159.813
21
-115.204
0
LINE
8
Black
10
159.813
20
-115.204
11
160.092
21
-115.254
0
LINE
8
Black
10
100.706
20
-115.137
11
100.952
21
-115.278
0
LINE
8
Black
10
100.952
20
-115.278
11
101.134
21
-115.495
0
LINE
8
Black
10
101.134
20
-115.495
11
101.23
21
-115.761
0
LINE
8
Black
10
101.23
20
-115.761
11
101.23
21
-116.044
0
LINE
8
Black
10
101.23
20
-116.044
11
101.134
21
-116.31
0
LINE
8
Black
10
101.134
20
-116.31
11
100.952
21
-116.527
0
LINE
8
Black
10
100.952
20
-116.527
11
100.706
21
-116.669
0
LINE
8
Black
10
100.706
20
-116.669
11
100.428
21
-116.718
0
LINE
8
Black
10
100.428
20
-116.718
11
100.149
21
-116.669
0
LINE
8
Black
10
100.149
20
-116.669
11
99.9038
21
-116.527
0
LINE
8
Black
10
99.9038
20
-116.527
11
99.7218
21
-116.31
0
LINE
8
Black
10
99.7218
20
-116.31
11
99.625
21
-116.044
0
LINE
8
Black
10
99.625
20
-116.044
11
99.625
21
-115.761
0
LINE
8
Black
10
99.625
20
-115.761
11
99.7218
21
-115.495
0
LINE
8
Black
10
99.7218
20
-115.495
11
99.9038
21
-115.278
0
LINE
8
Black
10
99.9038
20
-115.278
11
100.149
21
-115.137
0
LINE
8
Black
10
100.149
20
-115.137
11
100.428
21
-115.088
0
LINE
8
Black
10
100.428
20
-115.088
11
100.706
21
-115.137
0
LINE
8
Black
10
131.046
20
-115.329
11
130.346
21
-115.329
0
LINE
8
Black
10
130.346
20
-115.329
11
130.346
21
-114.729
0
LINE
8
Black
10
130.346
20
-114.729
11
131.046
21
-114.729
0
LINE
8
Black
10
131.046
20
-114.729
11
131.046
21
-115.329
0
LINE
8
Black
10
129.946
20
-115.329
11
129.246
21
-115.329
0
LINE
8
Black
10
129.246
20
-115.329
11
129.246
21
-114.729
0
LINE
8
Black
10
129.246
20
-114.729
11
129.946
21
-114.729
0
LINE
8
Black
10
129.946
20
-114.729
11
129.946
21
-115.329
0
LINE
8
Black
10
161.082
20
-113.196
11
161.327
21
-113.338
0
LINE
8
Black
10
161.327
20
-113.338
11
161.509
21
-113.555
0
LINE
8
Black
10
161.509
20
-113.555
11
161.606
21
-113.821
0
LINE
8
Black
10
161.606
20
-113.821
11
161.606
21
-114.104
0
LINE
8
Black
10
161.606
20
-114.104
11
161.509
21
-114.37
0
LINE
8
Black
10
161.509
20
-114.37
11
161.327
21
-114.586
0
LINE
8
Black
10
161.327
20
-114.586
11
161.082
21
-114.728
0
LINE
8
Black
10
161.082
20
-114.728
11
160.803
21
-114.777
0
LINE
8
Black
10
160.803
20
-114.777
11
160.525
21
-114.728
0
LINE
8
Black
10
160.525
20
-114.728
11
160.28
21
-114.586
0
LINE
8
Black
10
160.28
20
-114.586
11
160.098
21
-114.37
0
LINE
8
Black
10
160.098
20
-114.37
11
160.001
21
-114.104
0
LINE
8
Black
10
160.001
20
-114.104
11
160.001
21
-113.821
0
LINE
8
Black
10
160.001
20
-113.821
11
160.098
21
-113.555
0
LINE
8
Black
10
160.098
20
-113.555
11
160.28
21
-113.338
0
LINE
8
Black
10
160.28
20
-113.338
11
160.525
21
-113.196
0
LINE
8
Black
10
160.525
20
-113.196
11
160.803
21
-113.147
0
LINE
8
Black
10
160.803
20
-113.147
11
161.082
21
-113.196
0
LINE
8
Black
10
126.486
20
-114.732
11
125.786
21
-114.732
0
LINE
8
Black
10
125.786
20
-114.732
11
125.786
21
-114.132
0
LINE
8
Black
10
125.786
20
-114.132
11
126.486
21
-114.132
0
LINE
8
Black
10
126.486
20
-114.132
11
126.486
21
-114.732
0
LINE
8
Black
10
125.386
20
-114.732
11
124.686
21
-114.732
0
LINE
8
Black
10
124.686
20
-114.732
11
124.686
21
-114.132
0
LINE
8
Black
10
124.686
20
-114.132
11
125.386
21
-114.132
0
LINE
8
Black
10
125.386
20
-114.132
11
125.386
21
-114.732
0
LINE
8
Black
10
127.901
20
-114.693
11
127.401
21
-114.693
0
LINE
8
Black
10
127.401
20
-114.693
11
127.401
21
-113.993
0
LINE
8
Black
10
127.401
20
-113.993
11
127.901
21
-113.993
0
LINE
8
Black
10
127.901
20
-113.993
11
127.901
21
-114.693
0
LINE
8
Black
10
128.801
20
-114.693
11
128.301
21
-114.693
0
LINE
8
Black
10
128.301
20
-114.693
11
128.301
21
-113.993
0
LINE
8
Black
10
128.301
20
-113.993
11
128.801
21
-113.993
0
LINE
8
Black
10
128.801
20
-113.993
11
128.801
21
-114.693
0
LINE
8
Black
10
130.995
20
-114.414
11
130.295
21
-114.414
0
LINE
8
Black
10
130.295
20
-114.414
11
130.295
21
-113.814
0
LINE
8
Black
10
130.295
20
-113.814
11
130.995
21
-113.814
0
LINE
8
Black
10
130.995
20
-113.814
11
130.995
21
-114.414
0
LINE
8
Black
10
129.895
20
-114.414
11
129.195
21
-114.414
0
LINE
8
Black
10
129.195
20
-114.414
11
129.195
21
-113.814
0
LINE
8
Black
10
129.195
20
-113.814
11
129.895
21
-113.814
0
LINE
8
Black
10
129.895
20
-113.814
11
129.895
21
-114.414
0
LINE
8
Black
10
136.872
20
-113.884
11
136.272
21
-113.884
0
LINE
8
Black
10
136.272
20
-113.884
11
136.272
21
-113.184
0
LINE
8
Black
10
136.272
20
-113.184
11
136.872
21
-113.184
0
LINE
8
Black
10
136.872
20
-113.184
11
136.872
21
-113.884
0
LINE
8
Black
10
134.51
20
-113.833
11
133.91
21
-113.833
0
LINE
8
Black
10
133.91
20
-113.833
11
133.91
21
-113.133
0
LINE
8
Black
10
133.91
20
-113.133
11
134.51
21
-113.133
0
LINE
8
Black
10
134.51
20
-113.133
11
134.51
21
-113.833
0
LINE
8
Black
10
125.399
20
-113.741
11
124.699
21
-113.741
0
LINE
8
Black
10
124.699
20
-113.741
11
124.699
21
-113.141
0
LINE
8
Black
10
124.699
20
-113.141
11
125.399
21
-113.141
0
LINE
8
Black
10
125.399
20
-113.141
11
125.399
21
-113.741
0
LINE
8
Black
10
126.499
20
-113.741
11
125.799
21
-113.741
0
LINE
8
Black
10
125.799
20
-113.741
11
125.799
21
-113.141
0
LINE
8
Black
10
125.799
20
-113.141
11
126.499
21
-113.141
0
LINE
8
Black
10
126.499
20
-113.141
11
126.499
21
-113.741
0
LINE
8
Black
10
135.741
20
-113.646
11
135.041
21
-113.646
0
LINE
8
Black
10
135.041
20
-113.646
11
135.041
21
-113.146
0
LINE
8
Black
10
135.041
20
-113.146
11
135.741
21
-113.146
0
LINE
8
Black
10
135.741
20
-113.146
11
135.741
21
-113.646
0
LINE
8
Black
10
128.95
20
-113.576
11
128.25
21
-113.576
0
LINE
8
Black
10
128.25
20
-113.576
11
128.25
21
-112.976
0
LINE
8
Black
10
128.25
20
-112.976
11
128.95
21
-112.976
0
LINE
8
Black
10
128.95
20
-112.976
11
128.95
21
-113.576
0
LINE
8
Black
10
127.85
20
-113.576
11
127.15
21
-113.576
0
LINE
8
Black
10
127.15
20
-113.576
11
127.15
21
-112.976
0
LINE
8
Black
10
127.15
20
-112.976
11
127.85
21
-112.976
0
LINE
8
Black
10
127.85
20
-112.976
11
127.85
21
-113.576
0
LINE
8
Black
10
130.668
20
-113.525
11
130.168
21
-113.525
0
LINE
8
Black
10
130.168
20
-113.525
11
130.168
21
-112.825
0
LINE
8
Black
10
130.168
20
-112.825
11
130.668
21
-112.825
0
LINE
8
Black
10
130.668
20
-112.825
11
130.668
21
-113.525
0
LINE
8
Black
10
129.768
20
-113.525
11
129.268
21
-113.525
0
LINE
8
Black
10
129.268
20
-113.525
11
129.268
21
-112.825
0
LINE
8
Black
10
129.268
20
-112.825
11
129.768
21
-112.825
0
LINE
8
Black
10
129.768
20
-112.825
11
129.768
21
-113.525
0
LINE
8
Black
10
122.804
20
-111.748
11
123.05
21
-111.89
0
LINE
8
Black
10
123.05
20
-111.89
11
123.232
21
-112.107
0
LINE
8
Black
10
123.232
20
-112.107
11
123.328
21
-112.373
0
LINE
8
Black
10
123.328
20
-112.373
11
123.328
21
-112.656
0
LINE
8
Black
10
123.328
20
-112.656
11
123.232
21
-112.922
0
LINE
8
Black
10
123.232
20
-112.922
11
123.05
21
-113.139
0
LINE
8
Black
10
123.05
20
-113.139
11
122.804
21
-113.28
0
LINE
8
Black
10
122.804
20
-113.28
11
122.526
21
-113.329
0
LINE
8
Black
10
122.526
20
-113.329
11
122.247
21
-113.28
0
LINE
8
Black
10
122.247
20
-113.28
11
122.002
21
-113.139
0
LINE
8
Black
10
122.002
20
-113.139
11
121.82
21
-112.922
0
LINE
8
Black
10
121.82
20
-112.922
11
121.723
21
-112.656
0
LINE
8
Black
10
121.723
20
-112.656
11
121.723
21
-112.373
0
LINE
8
Black
10
121.723
20
-112.373
11
121.82
21
-112.107
0
LINE
8
Black
10
121.82
20
-112.107
11
122.002
21
-111.89
0
LINE
8
Black
10
122.002
20
-111.89
11
122.247
21
-111.748
0
LINE
8
Black
10
122.247
20
-111.748
11
122.526
21
-111.699
0
LINE
8
Black
10
122.526
20
-111.699
11
122.804
21
-111.748
0
LINE
8
Black
10
158.212
20
-111.367
11
158.457
21
-111.509
0
LINE
8
Black
10
158.457
20
-111.509
11
158.639
21
-111.726
0
LINE
8
Black
10
158.639
20
-111.726
11
158.736
21
-111.992
0
LINE
8
Black
10
158.736
20
-111.992
11
158.736
21
-112.275
0
LINE
8
Black
10
158.736
20
-112.275
11
158.639
21
-112.541
0
LINE
8
Black
10
158.639
20
-112.541
11
158.457
21
-112.758
0
LINE
8
Black
10
158.457
20
-112.758
11
158.212
21
-112.899
0
LINE
8
Black
10
158.212
20
-112.899
11
157.933
21
-112.948
0
LINE
8
Black
10
157.933
20
-112.948
11
157.655
21
-112.899
0
LINE
8
Black
10
157.655
20
-112.899
11
157.409
21
-112.758
0
LINE
8
Black
10
157.409
20
-112.758
11
157.227
21
-112.541
0
LINE
8
Black
10
157.227
20
-112.541
11
157.131
21
-112.275
0
LINE
8
Black
10
157.131
20
-112.275
11
157.131
21
-111.992
0
LINE
8
Black
10
157.131
20
-111.992
11
157.227
21
-111.726
0
LINE
8
Black
10
157.227
20
-111.726
11
157.409
21
-111.509
0
LINE
8
Black
10
157.409
20
-111.509
11
157.655
21
-111.367
0
LINE
8
Black
10
157.655
20
-111.367
11
157.933
21
-111.318
0
LINE
8
Black
10
157.933
20
-111.318
11
158.212
21
-111.367
0
LINE
8
Black
10
125.551
20
-112.801
11
125.051
21
-112.801
0
LINE
8
Black
10
125.051
20
-112.801
11
125.051
21
-112.101
0
LINE
8
Black
10
125.051
20
-112.101
11
125.551
21
-112.101
0
LINE
8
Black
10
125.551
20
-112.101
11
125.551
21
-112.801
0
LINE
8
Black
10
126.451
20
-112.801
11
125.951
21
-112.801
0
LINE
8
Black
10
125.951
20
-112.801
11
125.951
21
-112.101
0
LINE
8
Black
10
125.951
20
-112.101
11
126.451
21
-112.101
0
LINE
8
Black
10
126.451
20
-112.101
11
126.451
21
-112.801
0
LINE
8
Black
10
136.872
20
-112.784
11
136.272
21
-112.784
0
LINE
8
Black
10
136.272
20
-112.784
11
136.272
21
-112.084
0
LINE
8
Black
10
136.272
20
-112.084
11
136.872
21
-112.084
0
LINE
8
Black
10
136.872
20
-112.084
11
136.872
21
-112.784
0
LINE
8
Black
10
135.741
20
-112.746
11
135.041
21
-112.746
0
LINE
8
Black
10
135.041
20
-112.746
11
135.041
21
-112.246
0
LINE
8
Black
10
135.041
20
-112.246
11
135.741
21
-112.246
0
LINE
8
Black
10
135.741
20
-112.246
11
135.741
21
-112.746
0
LINE
8
Black
10
134.51
20
-112.733
11
133.91
21
-112.733
0
LINE
8
Black
10
133.91
20
-112.733
11
133.91
21
-112.033
0
LINE
8
Black
10
133.91
20
-112.033
11
134.51
21
-112.033
0
LINE
8
Black
10
134.51
20
-112.033
11
134.51
21
-112.733
0
LINE
8
Black
10
127.812
20
-112.675
11
127.112
21
-112.675
0
LINE
8
Black
10
127.112
20
-112.675
11
127.112
21
-112.075
0
LINE
8
Black
10
127.112
20
-112.075
11
127.812
21
-112.075
0
LINE
8
Black
10
127.812
20
-112.075
11
127.812
21
-112.675
0
LINE
8
Black
10
128.912
20
-112.675
11
128.212
21
-112.675
0
LINE
8
Black
10
128.212
20
-112.675
11
128.212
21
-112.075
0
LINE
8
Black
10
128.212
20
-112.075
11
128.912
21
-112.075
0
LINE
8
Black
10
128.912
20
-112.075
11
128.912
21
-112.675
0
LINE
8
Black
10
140.156
20
-112.407
11
139.656
21
-112.407
0
LINE
8
Black
10
139.656
20
-112.407
11
139.656
21
-111.707
0
LINE
8
Black
10
139.656
20
-111.707
11
140.156
21
-111.707
0
LINE
8
Black
10
140.156
20
-111.707
11
140.156
21
-112.407
0
LINE
8
Black
10
141.056
20
-112.407
11
140.556
21
-112.407
0
LINE
8
Black
10
140.556
20
-112.407
11
140.556
21
-111.707
0
LINE
8
Black
10
140.556
20
-111.707
11
141.056
21
-111.707
0
LINE
8
Black
10
141.056
20
-111.707
11
141.056
21
-112.407
0
LINE
8
Black
10
140.118
20
-111.138
11
139.418
21
-111.138
0
LINE
8
Black
10
139.418
20
-111.138
11
139.418
21
-110.538
0
LINE
8
Black
10
139.418
20
-110.538
11
140.118
21
-110.538
0
LINE
8
Black
10
140.118
20
-110.538
11
140.118
21
-111.138
0
LINE
8
Black
10
141.218
20
-111.138
11
140.518
21
-111.138
0
LINE
8
Black
10
140.518
20
-111.138
11
140.518
21
-110.538
0
LINE
8
Black
10
140.518
20
-110.538
11
141.218
21
-110.538
0
LINE
8
Black
10
141.218
20
-110.538
11
141.218
21
-111.138
0
LINE
8
Black
10
140.118
20
-110.084
11
139.418
21
-110.084
0
LINE
8
Black
10
139.418
20
-110.084
11
139.418
21
-109.484
0
LINE
8
Black
10
139.418
20
-109.484
11
140.118
21
-109.484
0
LINE
8
Black
10
140.118
20
-109.484
11
140.118
21
-110.084
0
LINE
8
Black
10
141.218
20
-110.084
11
140.518
21
-110.084
0
LINE
8
Black
10
140.518
20
-110.084
11
140.518
21
-109.484
0
LINE
8
Black
10
140.518
20
-109.484
11
141.218
21
-109.484
0
LINE
8
Black
10
141.218
20
-109.484
11
141.218
21
-110.084
0
LINE
8
Black
10
92.1721
20
-108.319
11
92.4172
21
-108.461
0
LINE
8
Black
10
92.4172
20
-108.461
11
92.5992
21
-108.678
0
LINE
8
Black
10
92.5992
20
-108.678
11
92.696
21
-108.944
0
LINE
8
Black
10
92.696
20
-108.944
11
92.696
21
-109.227
0
LINE
8
Black
10
92.696
20
-109.227
11
92.5992
21
-109.493
0
LINE
8
Black
10
92.5992
20
-109.493
11
92.4172
21
-109.71
0
LINE
8
Black
10
92.4172
20
-109.71
11
92.1721
21
-109.851
0
LINE
8
Black
10
92.1721
20
-109.851
11
91.8933
21
-109.9
0
LINE
8
Black
10
91.8933
20
-109.9
11
91.6145
21
-109.851
0
LINE
8
Black
10
91.6145
20
-109.851
11
91.3694
21
-109.71
0
LINE
8
Black
10
91.3694
20
-109.71
11
91.1874
21
-109.493
0
LINE
8
Black
10
91.1874
20
-109.493
11
91.0906
21
-109.227
0
LINE
8
Black
10
91.0906
20
-109.227
11
91.0906
21
-108.944
0
LINE
8
Black
10
91.0906
20
-108.944
11
91.1874
21
-108.678
0
LINE
8
Black
10
91.1874
20
-108.678
11
91.3694
21
-108.461
0
LINE
8
Black
10
91.3694
20
-108.461
11
91.6145
21
-108.319
0
LINE
8
Black
10
91.6145
20
-108.319
11
91.8933
21
-108.27
0
LINE
8
Black
10
91.8933
20
-108.27
11
92.1721
21
-108.319
0
LINE
8
Black
10
162.809
20
-108.167
11
163.055
21
-108.308
0
LINE
8
Black
10
163.055
20
-108.308
11
163.237
21
-108.525
0
LINE
8
Black
10
163.237
20
-108.525
11
163.333
21
-108.791
0
LINE
8
Black
10
163.333
20
-108.791
11
163.333
21
-109.074
0
LINE
8
Black
10
163.333
20
-109.074
11
163.237
21
-109.34
0
LINE
8
Black
10
163.237
20
-109.34
11
163.055
21
-109.557
0
LINE
8
Black
10
163.055
20
-109.557
11
162.809
21
-109.699
0
LINE
8
Black
10
162.809
20
-109.699
11
162.531
21
-109.748
0
LINE
8
Black
10
162.531
20
-109.748
11
162.252
21
-109.699
0
LINE
8
Black
10
162.252
20
-109.699
11
162.007
21
-109.557
0
LINE
8
Black
10
162.007
20
-109.557
11
161.825
21
-109.34
0
LINE
8
Black
10
161.825
20
-109.34
11
161.728
21
-109.074
0
LINE
8
Black
10
161.728
20
-109.074
11
161.728
21
-108.791
0
LINE
8
Black
10
161.728
20
-108.791
11
161.825
21
-108.525
0
LINE
8
Black
10
161.825
20
-108.525
11
162.007
21
-108.308
0
LINE
8
Black
10
162.007
20
-108.308
11
162.252
21
-108.167
0
LINE
8
Black
10
162.252
20
-108.167
11
162.531
21
-108.118
0
LINE
8
Black
10
162.531
20
-108.118
11
162.809
21
-108.167
0
LINE
8
Black
10
125.74
20
-108.216
11
125.24
21
-108.216
0
LINE
8
Black
10
125.24
20
-108.216
11
125.24
21
-107.516
0
LINE
8
Black
10
125.24
20
-107.516
11
125.74
21
-107.516
0
LINE
8
Black
10
125.74
20
-107.516
11
125.74
21
-108.216
0
LINE
8
Black
10
124.84
20
-108.216
11
124.34
21
-108.216
0
LINE
8
Black
10
124.34
20
-108.216
11
124.34
21
-107.516
0
LINE
8
Black
10
124.34
20
-107.516
11
124.84
21
-107.516
0
LINE
8
Black
10
124.84
20
-107.516
11
124.84
21
-108.216
0
LINE
8
Black
10
124.726
20
-107.15
11
124.026
21
-107.15
0
LINE
8
Black
10
124.026
20
-107.15
11
124.026
21
-106.55
0
LINE
8
Black
10
124.026
20
-106.55
11
124.726
21
-106.55
0
LINE
8
Black
10
124.726
20
-106.55
11
124.726
21
-107.15
0
LINE
8
Black
10
125.826
20
-107.15
11
125.126
21
-107.15
0
LINE
8
Black
10
125.126
20
-107.15
11
125.126
21
-106.55
0
LINE
8
Black
10
125.126
20
-106.55
11
125.826
21
-106.55
0
LINE
8
Black
10
125.826
20
-106.55
11
125.826
21
-107.15
0
LINE
8
Black
10
146.461
20
-105.937
11
146.157
21
-106.333
0
LINE
8
Black
10
146.157
20
-106.333
11
145.601
21
-105.907
0
LINE
8
Black
10
145.601
20
-105.907
11
145.906
21
-105.51
0
LINE
8
Black
10
145.906
20
-105.51
11
146.461
21
-105.937
0
LINE
8
Black
10
125.851
20
-106.185
11
125.151
21
-106.185
0
LINE
8
Black
10
125.151
20
-106.185
11
125.151
21
-105.585
0
LINE
8
Black
10
125.151
20
-105.585
11
125.851
21
-105.585
0
LINE
8
Black
10
125.851
20
-105.585
11
125.851
21
-106.185
0
LINE
8
Black
10
124.751
20
-106.185
11
124.051
21
-106.185
0
LINE
8
Black
10
124.051
20
-106.185
11
124.051
21
-105.585
0
LINE
8
Black
10
124.051
20
-105.585
11
124.751
21
-105.585
0
LINE
8
Black
10
124.751
20
-105.585
11
124.751
21
-106.185
0
LINE
8
Black
10
147.009
20
-105.223
11
146.705
21
-105.619
0
LINE
8
Black
10
146.705
20
-105.619
11
146.149
21
-105.193
0
LINE
8
Black
10
146.149
20
-105.193
11
146.454
21
-104.796
0
LINE
8
Black
10
146.454
20
-104.796
11
147.009
21
-105.223
0
LINE
8
Black
10
146.129
20
-104.138
11
145.52
21
-104.931
0
LINE
8
Black
10
145.52
20
-104.931
11
144.806
21
-104.383
0
LINE
8
Black
10
144.806
20
-104.383
11
145.415
21
-103.59
0
LINE
8
Black
10
145.415
20
-103.59
11
146.129
21
-104.138
0
LINE
8
Black
10
147.559
20
-104.334
11
147.133
21
-104.889
0
LINE
8
Black
10
147.133
20
-104.889
11
146.657
21
-104.524
0
LINE
8
Black
10
146.657
20
-104.524
11
147.083
21
-103.969
0
LINE
8
Black
10
147.083
20
-103.969
11
147.559
21
-104.334
0
LINE
8
Black
10
148.229
20
-103.461
11
147.803
21
-104.017
0
LINE
8
Black
10
147.803
20
-104.017
11
147.327
21
-103.651
0
LINE
8
Black
10
147.327
20
-103.651
11
147.753
21
-103.096
0
LINE
8
Black
10
147.753
20
-103.096
11
148.229
21
-103.461
0
LINE
8
Black
10
144.622
20
-102.981
11
144.013
21
-103.774
0
LINE
8
Black
10
144.013
20
-103.774
11
143.299
21
-103.226
0
LINE
8
Black
10
143.299
20
-103.226
11
143.908
21
-102.433
0
LINE
8
Black
10
143.908
20
-102.433
11
144.622
21
-102.981
0
LINE
8
Black
10
113.661
20
-102.653
11
113.199
21
-102.844
0
LINE
8
Black
10
113.199
20
-102.844
11
112.931
21
-102.197
0
LINE
8
Black
10
112.931
20
-102.197
11
113.393
21
-102.006
0
LINE
8
Black
10
113.393
20
-102.006
11
113.661
21
-102.653
0
LINE
8
Black
10
146.593
20
-101.973
11
145.984
21
-102.766
0
LINE
8
Black
10
145.984
20
-102.766
11
145.27
21
-102.218
0
LINE
8
Black
10
145.27
20
-102.218
11
145.879
21
-101.425
0
LINE
8
Black
10
145.879
20
-101.425
11
146.593
21
-101.973
0
LINE
8
Black
10
154.409
20
-97.157
11
155.267
21
-97.6527
0
LINE
8
Black
10
155.267
20
-97.6527
11
155.905
21
-98.4123
0
LINE
8
Black
10
155.905
20
-98.4123
11
156.244
21
-99.3439
0
LINE
8
Black
10
156.244
20
-99.3439
11
156.244
21
-100.335
0
LINE
8
Black
10
156.244
20
-100.335
11
155.905
21
-101.267
0
LINE
8
Black
10
155.905
20
-101.267
11
155.267
21
-102.027
0
LINE
8
Black
10
155.267
20
-102.027
11
154.409
21
-102.522
0
LINE
8
Black
10
154.409
20
-102.522
11
153.432
21
-102.695
0
LINE
8
Black
10
153.432
20
-102.695
11
152.456
21
-102.522
0
LINE
8
Black
10
152.456
20
-102.522
11
151.597
21
-102.027
0
LINE
8
Black
10
151.597
20
-102.027
11
150.96
21
-101.267
0
LINE
8
Black
10
150.96
20
-101.267
11
150.621
21
-100.335
0
LINE
8
Black
10
150.621
20
-100.335
11
150.621
21
-99.3439
0
LINE
8
Black
10
150.621
20
-99.3439
11
150.96
21
-98.4123
0
LINE
8
Black
10
150.96
20
-98.4123
11
151.597
21
-97.6527
0
LINE
8
Black
10
151.597
20
-97.6527
11
152.456
21
-97.157
0
LINE
8
Black
10
152.456
20
-97.157
11
153.432
21
-96.9848
0
LINE
8
Black
10
153.432
20
-96.9848
11
154.409
21
-97.157
0
LINE
8
Black
10
111.679
20
-101.075
11
111.924
21
-101.217
0
LINE
8
Black
10
111.924
20
-101.217
11
112.106
21
-101.434
0
LINE
8
Black
10
112.106
20
-101.434
11
112.203
21
-101.7
0
LINE
8
Black
10
112.203
20
-101.7
11
112.203
21
-101.983
0
LINE
8
Black
10
112.203
20
-101.983
11
112.106
21
-102.249
0
LINE
8
Black
10
112.106
20
-102.249
11
111.924
21
-102.466
0
LINE
8
Black
10
111.924
20
-102.466
11
111.679
21
-102.607
0
LINE
8
Black
10
111.679
20
-102.607
11
111.4
21
-102.656
0
LINE
8
Black
10
111.4
20
-102.656
11
111.122
21
-102.607
0
LINE
8
Black
10
111.122
20
-102.607
11
110.877
21
-102.466
0
LINE
8
Black
10
110.877
20
-102.466
11
110.695
21
-102.249
0
LINE
8
Black
10
110.695
20
-102.249
11
110.598
21
-101.983
0
LINE
8
Black
10
110.598
20
-101.983
11
110.598
21
-101.7
0
LINE
8
Black
10
110.598
20
-101.7
11
110.695
21
-101.434
0
LINE
8
Black
10
110.695
20
-101.434
11
110.877
21
-101.217
0
LINE
8
Black
10
110.877
20
-101.217
11
111.122
21
-101.075
0
LINE
8
Black
10
111.122
20
-101.075
11
111.4
21
-101.026
0
LINE
8
Black
10
111.4
20
-101.026
11
111.679
21
-101.075
0
LINE
8
Black
10
114.493
20
-102.308
11
114.031
21
-102.5
0
LINE
8
Black
10
114.031
20
-102.5
11
113.763
21
-101.853
0
LINE
8
Black
10
113.763
20
-101.853
11
114.225
21
-101.661
0
LINE
8
Black
10
114.225
20
-101.661
11
114.493
21
-102.308
0
LINE
8
Black
10
115.496
20
-101.844
11
114.849
21
-102.112
0
LINE
8
Black
10
114.849
20
-102.112
11
114.62
21
-101.558
0
LINE
8
Black
10
114.62
20
-101.558
11
115.267
21
-101.29
0
LINE
8
Black
10
115.267
20
-101.29
11
115.496
21
-101.844
0
LINE
8
Black
10
116.512
20
-101.423
11
115.866
21
-101.691
0
LINE
8
Black
10
115.866
20
-101.691
11
115.636
21
-101.137
0
LINE
8
Black
10
115.636
20
-101.137
11
116.283
21
-100.869
0
LINE
8
Black
10
116.283
20
-100.869
11
116.512
21
-101.423
0
LINE
8
Black
10
114.355
20
-101.036
11
113.523
21
-101.381
0
LINE
8
Black
10
113.523
20
-101.381
11
113.14
21
-100.457
0
LINE
8
Black
10
113.14
20
-100.457
11
113.972
21
-100.112
0
LINE
8
Black
10
113.972
20
-100.112
11
114.355
21
-101.036
0
LINE
8
Black
10
116.11
20
-100.309
11
115.278
21
-100.653
0
LINE
8
Black
10
115.278
20
-100.653
11
114.896
21
-99.7296
0
LINE
8
Black
10
114.896
20
-99.7296
11
115.727
21
-99.3852
0
LINE
8
Black
10
115.727
20
-99.3852
11
116.11
21
-100.309
0
LINE
8
Black
10
147.336
20
-97.6056
11
147.581
21
-97.7472
0
LINE
8
Black
10
147.581
20
-97.7472
11
147.763
21
-97.964
0
LINE
8
Black
10
147.763
20
-97.964
11
147.86
21
-98.23
0
LINE
8
Black
10
147.86
20
-98.23
11
147.86
21
-98.5131
0
LINE
8
Black
10
147.86
20
-98.5131
11
147.763
21
-98.7791
0
LINE
8
Black
10
147.763
20
-98.7791
11
147.581
21
-98.996
0
LINE
8
Black
10
147.581
20
-98.996
11
147.336
21
-99.1375
0
LINE
8
Black
10
147.336
20
-99.1375
11
147.057
21
-99.1867
0
LINE
8
Black
10
147.057
20
-99.1867
11
146.778
21
-99.1375
0
LINE
8
Black
10
146.778
20
-99.1375
11
146.533
21
-98.996
0
LINE
8
Black
10
146.533
20
-98.996
11
146.351
21
-98.7791
0
LINE
8
Black
10
146.351
20
-98.7791
11
146.254
21
-98.5131
0
LINE
8
Black
10
146.254
20
-98.5131
11
146.254
21
-98.23
0
LINE
8
Black
10
146.254
20
-98.23
11
146.351
21
-97.964
0
LINE
8
Black
10
146.351
20
-97.964
11
146.533
21
-97.7472
0
LINE
8
Black
10
146.533
20
-97.7472
11
146.778
21
-97.6056
0
LINE
8
Black
10
146.778
20
-97.6056
11
147.057
21
-97.5565
0
LINE
8
Black
10
147.057
20
-97.5565
11
147.336
21
-97.6056
0
LINE
8
Black
10
114.467
20
-98.8248
11
113.635
21
-99.1692
0
LINE
8
Black
10
113.635
20
-99.1692
11
113.253
21
-98.2454
0
LINE
8
Black
10
113.253
20
-98.2454
11
114.084
21
-97.9009
0
LINE
8
Black
10
114.084
20
-97.9009
11
114.467
21
-98.8248
0
LINE
8
Black
10
144.005
20
-96.8591
11
142.905
21
-96.8591
0
LINE
8
Black
10
142.905
20
-96.8591
11
142.905
21
-95.7591
0
LINE
8
Black
10
142.905
20
-95.7591
11
144.005
21
-95.7591
0
LINE
8
Black
10
144.005
20
-95.7591
11
144.005
21
-96.8591
0
LINE
8
Black
10
142.375
20
-95.7923
11
142.541
21
-95.8878
0
LINE
8
Black
10
142.541
20
-95.8878
11
142.664
21
-96.0341
0
LINE
8
Black
10
142.664
20
-96.0341
11
142.729
21
-96.2136
0
LINE
8
Black
10
142.729
20
-96.2136
11
142.729
21
-96.4046
0
LINE
8
Black
10
142.729
20
-96.4046
11
142.664
21
-96.5841
0
LINE
8
Black
10
142.664
20
-96.5841
11
142.541
21
-96.7304
0
LINE
8
Black
10
142.541
20
-96.7304
11
142.375
21
-96.8259
0
LINE
8
Black
10
142.375
20
-96.8259
11
142.187
21
-96.8591
0
LINE
8
Black
10
142.187
20
-96.8591
11
142.183
21
-96.8591
0
LINE
8
Black
10
142.183
20
-96.8591
11
141.995
21
-96.8259
0
LINE
8
Black
10
141.995
20
-96.8259
11
141.83
21
-96.7304
0
LINE
8
Black
10
141.83
20
-96.7304
11
141.707
21
-96.5841
0
LINE
8
Black
10
141.707
20
-96.5841
11
141.642
21
-96.4046
0
LINE
8
Black
10
141.642
20
-96.4046
11
141.642
21
-96.2136
0
LINE
8
Black
10
141.642
20
-96.2136
11
141.707
21
-96.0341
0
LINE
8
Black
10
141.707
20
-96.0341
11
141.83
21
-95.8878
0
LINE
8
Black
10
141.83
20
-95.8878
11
141.995
21
-95.7923
0
LINE
8
Black
10
141.995
20
-95.7923
11
142.183
21
-95.7591
0
LINE
8
Black
10
142.183
20
-95.7591
11
142.187
21
-95.7591
0
LINE
8
Black
10
142.187
20
-95.7591
11
142.375
21
-95.7923
0
LINE
8
Black
10
142.375
20
-94.5223
11
142.541
21
-94.6178
0
LINE
8
Black
10
142.541
20
-94.6178
11
142.664
21
-94.7641
0
LINE
8
Black
10
142.664
20
-94.7641
11
142.729
21
-94.9436
0
LINE
8
Black
10
142.729
20
-94.9436
11
142.729
21
-95.1346
0
LINE
8
Black
10
142.729
20
-95.1346
11
142.664
21
-95.3141
0
LINE
8
Black
10
142.664
20
-95.3141
11
142.541
21
-95.4604
0
LINE
8
Black
10
142.541
20
-95.4604
11
142.375
21
-95.5559
0
LINE
8
Black
10
142.375
20
-95.5559
11
142.187
21
-95.5891
0
LINE
8
Black
10
142.187
20
-95.5891
11
142.183
21
-95.5891
0
LINE
8
Black
10
142.183
20
-95.5891
11
141.995
21
-95.5559
0
LINE
8
Black
10
141.995
20
-95.5559
11
141.83
21
-95.4604
0
LINE
8
Black
10
141.83
20
-95.4604
11
141.707
21
-95.3141
0
LINE
8
Black
10
141.707
20
-95.3141
11
141.642
21
-95.1346
0
LINE
8
Black
10
141.642
20
-95.1346
11
141.642
21
-94.9436
0
LINE
8
Black
10
141.642
20
-94.9436
11
141.707
21
-94.7641
0
LINE
8
Black
10
141.707
20
-94.7641
11
141.83
21
-94.6178
0
LINE
8
Black
10
141.83
20
-94.6178
11
141.995
21
-94.5223
0
LINE
8
Black
10
141.995
20
-94.5223
11
142.183
21
-94.4891
0
LINE
8
Black
10
142.183
20
-94.4891
11
142.187
21
-94.4891
0
LINE
8
Black
10
142.187
20
-94.4891
11
142.375
21
-94.5223
0
LINE
8
Black
10
143.645
20
-94.5223
11
143.811
21
-94.6178
0
LINE
8
Black
10
143.811
20
-94.6178
11
143.934
21
-94.7641
0
LINE
8
Black
10
143.934
20
-94.7641
11
143.999
21
-94.9436
0
LINE
8
Black
10
143.999
20
-94.9436
11
143.999
21
-95.1346
0
LINE
8
Black
10
143.999
20
-95.1346
11
143.934
21
-95.3141
0
LINE
8
Black
10
143.934
20
-95.3141
11
143.811
21
-95.4604
0
LINE
8
Black
10
143.811
20
-95.4604
11
143.645
21
-95.5559
0
LINE
8
Black
10
143.645
20
-95.5559
11
143.457
21
-95.5891
0
LINE
8
Black
10
143.457
20
-95.5891
11
143.453
21
-95.5891
0
LINE
8
Black
10
143.453
20
-95.5891
11
143.265
21
-95.5559
0
LINE
8
Black
10
143.265
20
-95.5559
11
143.1
21
-95.4604
0
LINE
8
Black
10
143.1
20
-95.4604
11
142.977
21
-95.3141
0
LINE
8
Black
10
142.977
20
-95.3141
11
142.912
21
-95.1346
0
LINE
8
Black
10
142.912
20
-95.1346
11
142.912
21
-94.9436
0
LINE
8
Black
10
142.912
20
-94.9436
11
142.977
21
-94.7641
0
LINE
8
Black
10
142.977
20
-94.7641
11
143.1
21
-94.6178
0
LINE
8
Black
10
143.1
20
-94.6178
11
143.265
21
-94.5223
0
LINE
8
Black
10
143.265
20
-94.5223
11
143.453
21
-94.4891
0
LINE
8
Black
10
143.453
20
-94.4891
11
143.457
21
-94.4891
0
LINE
8
Black
10
143.457
20
-94.4891
11
143.645
21
-94.5223
0
LINE
8
Black
10
113.281
20
-88.9477
11
114.14
21
-89.4435
0
LINE
8
Black
10
114.14
20
-89.4435
11
114.777
21
-90.203
0
LINE
8
Black
10
114.777
20
-90.203
11
115.116
21
-91.1347
0
LINE
8
Black
10
115.116
20
-91.1347
11
115.116
21
-92.1261
0
LINE
8
Black
10
115.116
20
-92.1261
11
114.777
21
-93.0578
0
LINE
8
Black
10
114.777
20
-93.0578
11
114.14
21
-93.8174
0
LINE
8
Black
10
114.14
20
-93.8174
11
113.281
21
-94.3131
0
LINE
8
Black
10
113.281
20
-94.3131
11
112.305
21
-94.4853
0
LINE
8
Black
10
112.305
20
-94.4853
11
111.328
21
-94.3131
0
LINE
8
Black
10
111.328
20
-94.3131
11
110.47
21
-93.8174
0
LINE
8
Black
10
110.47
20
-93.8174
11
109.832
21
-93.0578
0
LINE
8
Black
10
109.832
20
-93.0578
11
109.493
21
-92.1261
0
LINE
8
Black
10
109.493
20
-92.1261
11
109.493
21
-91.1347
0
LINE
8
Black
10
109.493
20
-91.1347
11
109.832
21
-90.203
0
LINE
8
Black
10
109.832
20
-90.203
11
110.47
21
-89.4435
0
LINE
8
Black
10
110.47
20
-89.4435
11
111.328
21
-88.9477
0
LINE
8
Black
10
111.328
20
-88.9477
11
112.305
21
-88.7755
0
LINE
8
Black
10
112.305
20
-88.7755
11
113.281
21
-88.9477
0
LINE
8
Black
10
143.645
20
-93.2523
11
143.811
21
-93.3478
0
LINE
8
Black
10
143.811
20
-93.3478
11
143.934
21
-93.4941
0
LINE
8
Black
10
143.934
20
-93.4941
11
143.999
21
-93.6736
0
LINE
8
Black
10
143.999
20
-93.6736
11
143.999
21
-93.8646
0
LINE
8
Black
10
143.999
20
-93.8646
11
143.934
21
-94.0441
0
LINE
8
Black
10
143.934
20
-94.0441
11
143.811
21
-94.1904
0
LINE
8
Black
10
143.811
20
-94.1904
11
143.645
21
-94.2859
0
LINE
8
Black
10
143.645
20
-94.2859
11
143.457
21
-94.3191
0
LINE
8
Black
10
143.457
20
-94.3191
11
143.453
21
-94.3191
0
LINE
8
Black
10
143.453
20
-94.3191
11
143.265
21
-94.2859
0
LINE
8
Black
10
143.265
20
-94.2859
11
143.1
21
-94.1904
0
LINE
8
Black
10
143.1
20
-94.1904
11
142.977
21
-94.0441
0
LINE
8
Black
10
142.977
20
-94.0441
11
142.912
21
-93.8646
0
LINE
8
Black
10
142.912
20
-93.8646
11
142.912
21
-93.6736
0
LINE
8
Black
10
142.912
20
-93.6736
11
142.977
21
-93.4941
0
LINE
8
Black
10
142.977
20
-93.4941
11
143.1
21
-93.3478
0
LINE
8
Black
10
143.1
20
-93.3478
11
143.265
21
-93.2523
0
LINE
8
Black
10
143.265
20
-93.2523
11
143.453
21
-93.2191
0
LINE
8
Black
10
143.453
20
-93.2191
11
143.457
21
-93.2191
0
LINE
8
Black
10
143.457
20
-93.2191
11
143.645
21
-93.2523
0
LINE
8
Black
10
142.375
20
-93.2523
11
142.541
21
-93.3478
0
LINE
8
Black
10
142.541
20
-93.3478
11
142.664
21
-93.4941
0
LINE
8
Black
10
142.664
20
-93.4941
11
142.729
21
-93.6736
0
LINE
8
Black
10
142.729
20
-93.6736
11
142.729
21
-93.8646
0
LINE
8
Black
10
142.729
20
-93.8646
11
142.664
21
-94.0441
0
LINE
8
Black
10
142.664
20
-94.0441
11
142.541
21
-94.1904
0
LINE
8
Black
10
142.541
20
-94.1904
11
142.375
21
-94.2859
0
LINE
8
Black
10
142.375
20
-94.2859
11
142.187
21
-94.3191
0
LINE
8
Black
10
142.187
20
-94.3191
11
142.183
21
-94.3191
0
LINE
8
Black
10
142.183
20
-94.3191
11
141.995
21
-94.2859
0
LINE
8
Black
10
141.995
20
-94.2859
11
141.83
21
-94.1904
0
LINE
8
Black
10
141.83
20
-94.1904
11
141.707
21
-94.0441
0
LINE
8
Black
10
141.707
20
-94.0441
11
141.642
21
-93.8646
0
LINE
8
Black
10
141.642
20
-93.8646
11
141.642
21
-93.6736
0
LINE
8
Black
10
141.642
20
-93.6736
11
141.707
21
-93.4941
0
LINE
8
Black
10
141.707
20
-93.4941
11
141.83
21
-93.3478
0
LINE
8
Black
10
141.83
20
-93.3478
11
141.995
21
-93.2523
0
LINE
8
Black
10
141.995
20
-93.2523
11
142.183
21
-93.2191
0
LINE
8
Black
10
142.183
20
-93.2191
11
142.187
21
-93.2191
0
LINE
8
Black
10
142.187
20
-93.2191
11
142.375
21
-93.2523
0
LINE
8
Black
10
142.375
20
-91.9823
11
142.541
21
-92.0778
0
LINE
8
Black
10
142.541
20
-92.0778
11
142.664
21
-92.2241
0
LINE
8
Black
10
142.664
20
-92.2241
11
142.729
21
-92.4036
0
LINE
8
Black
10
142.729
20
-92.4036
11
142.729
21
-92.5946
0
LINE
8
Black
10
142.729
20
-92.5946
11
142.664
21
-92.7741
0
LINE
8
Black
10
142.664
20
-92.7741
11
142.541
21
-92.9204
0
LINE
8
Black
10
142.541
20
-92.9204
11
142.375
21
-93.0159
0
LINE
8
Black
10
142.375
20
-93.0159
11
142.187
21
-93.0491
0
LINE
8
Black
10
142.187
20
-93.0491
11
142.183
21
-93.0491
0
LINE
8
Black
10
142.183
20
-93.0491
11
141.995
21
-93.0159
0
LINE
8
Black
10
141.995
20
-93.0159
11
141.83
21
-92.9204
0
LINE
8
Black
10
141.83
20
-92.9204
11
141.707
21
-92.7741
0
LINE
8
Black
10
141.707
20
-92.7741
11
141.642
21
-92.5946
0
LINE
8
Black
10
141.642
20
-92.5946
11
141.642
21
-92.4036
0
LINE
8
Black
10
141.642
20
-92.4036
11
141.707
21
-92.2241
0
LINE
8
Black
10
141.707
20
-92.2241
11
141.83
21
-92.0778
0
LINE
8
Black
10
141.83
20
-92.0778
11
141.995
21
-91.9823
0
LINE
8
Black
10
141.995
20
-91.9823
11
142.183
21
-91.9491
0
LINE
8
Black
10
142.183
20
-91.9491
11
142.187
21
-91.9491
0
LINE
8
Black
10
142.187
20
-91.9491
11
142.375
21
-91.9823
0
LINE
8
Black
10
143.645
20
-91.9823
11
143.811
21
-92.0778
0
LINE
8
Black
10
143.811
20
-92.0778
11
143.934
21
-92.2241
0
LINE
8
Black
10
143.934
20
-92.2241
11
143.999
21
-92.4036
0
LINE
8
Black
10
143.999
20
-92.4036
11
143.999
21
-92.5946
0
LINE
8
Black
10
143.999
20
-92.5946
11
143.934
21
-92.7741
0
LINE
8
Black
10
143.934
20
-92.7741
11
143.811
21
-92.9204
0
LINE
8
Black
10
143.811
20
-92.9204
11
143.645
21
-93.0159
0
LINE
8
Black
10
143.645
20
-93.0159
11
143.457
21
-93.0491
0
LINE
8
Black
10
143.457
20
-93.0491
11
143.453
21
-93.0491
0
LINE
8
Black
10
143.453
20
-93.0491
11
143.265
21
-93.0159
0
LINE
8
Black
10
143.265
20
-93.0159
11
143.1
21
-92.9204
0
LINE
8
Black
10
143.1
20
-92.9204
11
142.977
21
-92.7741
0
LINE
8
Black
10
142.977
20
-92.7741
11
142.912
21
-92.5946
0
LINE
8
Black
10
142.912
20
-92.5946
11
142.912
21
-92.4036
0
LINE
8
Black
10
142.912
20
-92.4036
11
142.977
21
-92.2241
0
LINE
8
Black
10
142.977
20
-92.2241
11
143.1
21
-92.0778
0
LINE
8
Black
10
143.1
20
-92.0778
11
143.265
21
-91.9823
0
LINE
8
Black
10
143.265
20
-91.9823
11
143.453
21
-91.9491
0
LINE
8
Black
10
143.453
20
-91.9491
11
143.457
21
-91.9491
0
LINE
8
Black
10
143.457
20
-91.9491
11
143.645
21
-91.9823
0
LINE
8
Black
10
142.375
20
-90.7123
11
142.541
21
-90.8078
0
LINE
8
Black
10
142.541
20
-90.8078
11
142.664
21
-90.9541
0
LINE
8
Black
10
142.664
20
-90.9541
11
142.729
21
-91.1336
0
LINE
8
Black
10
142.729
20
-91.1336
11
142.729
21
-91.3246
0
LINE
8
Black
10
142.729
20
-91.3246
11
142.664
21
-91.5041
0
LINE
8
Black
10
142.664
20
-91.5041
11
142.541
21
-91.6504
0
LINE
8
Black
10
142.541
20
-91.6504
11
142.375
21
-91.7459
0
LINE
8
Black
10
142.375
20
-91.7459
11
142.187
21
-91.7791
0
LINE
8
Black
10
142.187
20
-91.7791
11
142.183
21
-91.7791
0
LINE
8
Black
10
142.183
20
-91.7791
11
141.995
21
-91.7459
0
LINE
8
Black
10
141.995
20
-91.7459
11
141.83
21
-91.6504
0
LINE
8
Black
10
141.83
20
-91.6504
11
141.707
21
-91.5041
0
LINE
8
Black
10
141.707
20
-91.5041
11
141.642
21
-91.3246
0
LINE
8
Black
10
141.642
20
-91.3246
11
141.642
21
-91.1336
0
LINE
8
Black
10
141.642
20
-91.1336
11
141.707
21
-90.9541
0
LINE
8
Black
10
141.707
20
-90.9541
11
141.83
21
-90.8078
0
LINE
8
Black
10
141.83
20
-90.8078
11
141.995
21
-90.7123
0
LINE
8
Black
10
141.995
20
-90.7123
11
142.183
21
-90.6791
0
LINE
8
Black
10
142.183
20
-90.6791
11
142.187
21
-90.6791
0
LINE
8
Black
10
142.187
20
-90.6791
11
142.375
21
-90.7123
0
LINE
8
Black
10
143.645
20
-90.7123
11
143.811
21
-90.8078
0
LINE
8
Black
10
143.811
20
-90.8078
11
143.934
21
-90.9541
0
LINE
8
Black
10
143.934
20
-90.9541
11
143.999
21
-91.1336
0
LINE
8
Black
10
143.999
20
-91.1336
11
143.999
21
-91.3246
0
LINE
8
Black
10
143.999
20
-91.3246
11
143.934
21
-91.5041
0
LINE
8
Black
10
143.934
20
-91.5041
11
143.811
21
-91.6504
0
LINE
8
Black
10
143.811
20
-91.6504
11
143.645
21
-91.7459
0
LINE
8
Black
10
143.645
20
-91.7459
11
143.457
21
-91.7791
0
LINE
8
Black
10
143.457
20
-91.7791
11
143.453
21
-91.7791
0
LINE
8
Black
10
143.453
20
-91.7791
11
143.265
21
-91.7459
0
LINE
8
Black
10
143.265
20
-91.7459
11
143.1
21
-91.6504
0
LINE
8
Black
10
143.1
20
-91.6504
11
142.977
21
-91.5041
0
LINE
8
Black
10
142.977
20
-91.5041
11
142.912
21
-91.3246
0
LINE
8
Black
10
142.912
20
-91.3246
11
142.912
21
-91.1336
0
LINE
8
Black
10
142.912
20
-91.1336
11
142.977
21
-90.9541
0
LINE
8
Black
10
142.977
20
-90.9541
11
143.1
21
-90.8078
0
LINE
8
Black
10
143.1
20
-90.8078
11
143.265
21
-90.7123
0
LINE
8
Black
10
143.265
20
-90.7123
11
143.453
21
-90.6791
0
LINE
8
Black
10
143.453
20
-90.6791
11
143.457
21
-90.6791
0
LINE
8
Black
10
143.457
20
-90.6791
11
143.645
21
-90.7123
  0
ENDSEC
  0
EOF
