M48
INCH,TZ
T1C0.012
T2C0.016
T3C0.020
T4C0.024
T5C0.026
T6C0.030
T7C0.030
T8C0.031
T9C0.035
T10C0.039
%
G90
G05
T1
X62174Y-47719
X62174Y-48191
X62489Y-47719
X62489Y-48191
X62804Y-47719
X62804Y-48191
X63119Y-47719
X63119Y-48191
T2
X31915Y-50794
X32836Y-50183
X33137Y-47932
X33237Y-51538
X33399Y-49302
X33757Y-50191
X34259Y-46790
X35993Y-50357
X36072Y-52128
X36249Y-55396
X36414Y-48157
X38159Y-50396
X38710Y-53309
X39470Y-49282
X39655Y-52719
X39850Y-49300
X40190Y-52118
X40363Y-53742
X40430Y-49223
X41178Y-49502
X41367Y-50207
X41663Y-58506
X41722Y-39864
X41976Y-51643
X42320Y-43766
X42344Y-44164
X42356Y-43298
X42356Y-44589
X42489Y-40553
X42608Y-38742
X42765Y-40199
X42804Y-39805
X42844Y-39412
X42844Y-59451
X42921Y-47686
X42962Y-61341
X43052Y-43534
X43080Y-59136
X43159Y-43038
X43462Y-48026
X43513Y-44884
X43552Y-38349
X43651Y-40179
X43710Y-60632
X43781Y-43794
X43907Y-60199
X43985Y-44254
X44245Y-43842
X44346Y-45000
X44374Y-60853
X44472Y-40308
X44576Y-59136
X44948Y-44841
X44970Y-39136
X45127Y-39490
X45363Y-61262
X45411Y-51372
X45480Y-47924
X45639Y-41474
X45718Y-60750
X45755Y-46454
X45793Y-48828
X46021Y-43503
X46050Y-42834
X46257Y-44379
X46403Y-48014
X46509Y-45184
X46781Y-40160
X46899Y-42010
X47034Y-46595
X47096Y-37876
X47115Y-48353
X47296Y-46451
X47371Y-43270
X47560Y-35841
X47568Y-39648
X47568Y-40081
X47735Y-51016
X47755Y-48644
X47804Y-40553
X47934Y-50010
X47985Y-37451
X48041Y-40357
X48237Y-39963
X48257Y-45305
X48336Y-49107
X48543Y-48171
X48552Y-41183
X48671Y-38900
X48804Y-62421
X49025Y-46498
X49104Y-43270
X49143Y-40120
X49241Y-47886
X49270Y-37401
X49379Y-51144
X49458Y-45396
X49478Y-37935
X49478Y-42128
X49497Y-63900
X49631Y-49971
X49655Y-47886
X49663Y-38562
X49765Y-43267
X49810Y-46839
X49848Y-48940
X49940Y-47890
X50026Y-44199
X50048Y-47089
X50088Y-36105
X50100Y-51018
X50206Y-43349
X50245Y-39136
X50311Y-44668
X50363Y-37719
X50403Y-38861
X50531Y-62394
X50560Y-41656
X50567Y-44281
X50678Y-37325
X50820Y-41223
X50923Y-46298
X50937Y-64670
X51111Y-64057
X51115Y-44704
X51129Y-42440
X51218Y-45286
X51247Y-46712
X51393Y-38681
X51420Y-44673
X51592Y-41367
X51670Y-35829
X51682Y-38759
X51803Y-45474
X51946Y-41367
X52167Y-39561
X52186Y-48164
X52222Y-45393
X52260Y-41369
X52391Y-45960
X52398Y-48601
X52450Y-35986
X52482Y-45128
X52568Y-41369
X52607Y-49019
X52627Y-37778
X52797Y-49399
X52911Y-41367
X53001Y-38782
X53033Y-43963
X53034Y-49769
X53066Y-37009
X53206Y-45345
X53367Y-38789
X53529Y-36727
X53541Y-40649
X53543Y-38536
X53560Y-41013
X53592Y-62089
X53609Y-42706
X53935Y-41587
X53946Y-37246
X54056Y-60484
X54073Y-42750
X54300Y-37601
X54300Y-50829
X54338Y-43542
X54340Y-47679
X54655Y-45829
X54852Y-38388
X54852Y-40613
X54852Y-42246
X54909Y-40320
X54954Y-39819
X55046Y-43223
X55206Y-59569
X55363Y-40452
X55363Y-60672
X55560Y-38821
X55639Y-40081
X55639Y-61459
X55733Y-48191
X55735Y-37503
X55757Y-46380
X55796Y-45475
X55812Y-45824
X55854Y-40530
X56033Y-48585
X56157Y-41979
X56584Y-48309
X56604Y-60298
X56663Y-38514
X56663Y-47207
X56663Y-49648
X56690Y-39675
X56722Y-59549
X57017Y-40790
X57096Y-60593
X57214Y-40514
X57883Y-36656
X57922Y-39963
X58041Y-43231
X58080Y-44530
X58316Y-36892
X58458Y-46143
X58770Y-45817
X59025Y-56380
X59037Y-60345
X59300Y-40750
X59300Y-42876
X59401Y-48679
X59615Y-53900
X59930Y-56656
X60123Y-59337
X60245Y-48664
X60245Y-48939
X60387Y-52994
X60430Y-60124
X60702Y-57967
X61033Y-43270
X61308Y-43742
X61491Y-59998
X61529Y-46698
X61584Y-49018
X61655Y-58203
X61800Y-51203
X62174Y-35514
X62174Y-35750
X62174Y-35947
X62332Y-58034
X62654Y-58834
X63159Y-52010
X63237Y-49648
X64261Y-46892
X64419Y-52010
X64423Y-53842
X64537Y-53231
X64693Y-54705
X64812Y-52955
X65009Y-49648
X65009Y-52168
X65088Y-52679
X65521Y-47561
X65623Y-53305
T5
X47716Y-34902
X47716Y-35402
X48216Y-34902
X48216Y-35402
X48716Y-34902
X48716Y-35402
X49216Y-34902
X49216Y-35402
X49716Y-34902
X49716Y-35402
T6
X43671Y-49687
X44458Y-49687
T7
X48459Y-65459
X49459Y-65459
X50459Y-65459
T8
X35718Y-58270
X55678Y-51341
X56466Y-51341
X58237Y-33664
T9
X51363Y-33549
X52363Y-33549
X53363Y-33549
X54363Y-33549
X55363Y-33549
T10
X35046Y-44487
X39722Y-54005
X42686Y-42758
X42765Y-37069
X43237Y-41971
X44261Y-41735
X44537Y-46321
X44733Y-36183
X44733Y-42522
X45421Y-43168
X46483Y-49310
X60531Y-50000
X63511Y-43149
X64469Y-50000
T3
X30573Y-48346G85X30298Y-48346
G05
X30573Y-51672G85X30298Y-51672
G05
X31262Y-48346G85X30987Y-48346
G05
X31262Y-51672G85X30987Y-51672
G05
T4
X31754Y-48592G85X31597Y-48592
G05
X31754Y-51426G85X31597Y-51426
G05
T0
M30
