G04 #@! TF.GenerationSoftware,KiCad,Pcbnew,(5.0.2)-1*
G04 #@! TF.CreationDate,2019-01-08T10:51:14-07:00*
G04 #@! TF.ProjectId,MagSensor,4d616753-656e-4736-9f72-2e6b69636164,rev?*
G04 #@! TF.SameCoordinates,Original*
G04 #@! TF.FileFunction,Legend,Top*
G04 #@! TF.FilePolarity,Positive*
%FSLAX46Y46*%
G04 Gerber Fmt 4.6, Leading zero omitted, Abs format (unit mm)*
G04 Created by KiCad (PCBNEW (5.0.2)-1) date 1/8/2019 10:51:14 AM*
%MOMM*%
%LPD*%
G01*
G04 APERTURE LIST*
%ADD10C,0.300000*%
%ADD11C,0.187500*%
%ADD12C,0.200000*%
%ADD13C,0.150000*%
%ADD14C,0.120000*%
%ADD15C,0.125000*%
%ADD16C,0.100000*%
G04 APERTURE END LIST*
D10*
X141275945Y-125498541D02*
X141490230Y-125569969D01*
X141561659Y-125641398D01*
X141633088Y-125784255D01*
X141633088Y-125998541D01*
X141561659Y-126141398D01*
X141490230Y-126212826D01*
X141347373Y-126284255D01*
X140775945Y-126284255D01*
X140775945Y-124784255D01*
X141275945Y-124784255D01*
X141418802Y-124855684D01*
X141490230Y-124927112D01*
X141561659Y-125069969D01*
X141561659Y-125212826D01*
X141490230Y-125355684D01*
X141418802Y-125427112D01*
X141275945Y-125498541D01*
X140775945Y-125498541D01*
X142204516Y-125855684D02*
X142918802Y-125855684D01*
X142061659Y-126284255D02*
X142561659Y-124784255D01*
X143061659Y-126284255D01*
X143347373Y-124784255D02*
X144204516Y-124784255D01*
X143775945Y-126284255D02*
X143775945Y-124784255D01*
X102580230Y-95294255D02*
X102580230Y-93794255D01*
X103223088Y-93937112D02*
X103294516Y-93865684D01*
X103437373Y-93794255D01*
X103794516Y-93794255D01*
X103937373Y-93865684D01*
X104008802Y-93937112D01*
X104080230Y-94079969D01*
X104080230Y-94222826D01*
X104008802Y-94437112D01*
X103151659Y-95294255D01*
X104080230Y-95294255D01*
X105580230Y-95151398D02*
X105508802Y-95222826D01*
X105294516Y-95294255D01*
X105151659Y-95294255D01*
X104937373Y-95222826D01*
X104794516Y-95079969D01*
X104723088Y-94937112D01*
X104651659Y-94651398D01*
X104651659Y-94437112D01*
X104723088Y-94151398D01*
X104794516Y-94008541D01*
X104937373Y-93865684D01*
X105151659Y-93794255D01*
X105294516Y-93794255D01*
X105508802Y-93865684D01*
X105580230Y-93937112D01*
X106865945Y-95294255D02*
X106865945Y-93794255D01*
X106865945Y-95222826D02*
X106723088Y-95294255D01*
X106437373Y-95294255D01*
X106294516Y-95222826D01*
X106223088Y-95151398D01*
X106151659Y-95008541D01*
X106151659Y-94579969D01*
X106223088Y-94437112D01*
X106294516Y-94365684D01*
X106437373Y-94294255D01*
X106723088Y-94294255D01*
X106865945Y-94365684D01*
X112415945Y-89404255D02*
X112415945Y-87904255D01*
X113058802Y-88047112D02*
X113130230Y-87975684D01*
X113273088Y-87904255D01*
X113630230Y-87904255D01*
X113773088Y-87975684D01*
X113844516Y-88047112D01*
X113915945Y-88189969D01*
X113915945Y-88332826D01*
X113844516Y-88547112D01*
X112987373Y-89404255D01*
X113915945Y-89404255D01*
X115415945Y-89261398D02*
X115344516Y-89332826D01*
X115130230Y-89404255D01*
X114987373Y-89404255D01*
X114773088Y-89332826D01*
X114630230Y-89189969D01*
X114558802Y-89047112D01*
X114487373Y-88761398D01*
X114487373Y-88547112D01*
X114558802Y-88261398D01*
X114630230Y-88118541D01*
X114773088Y-87975684D01*
X114987373Y-87904255D01*
X115130230Y-87904255D01*
X115344516Y-87975684D01*
X115415945Y-88047112D01*
X116701659Y-89332826D02*
X116558802Y-89404255D01*
X116273088Y-89404255D01*
X116130230Y-89332826D01*
X116058802Y-89261398D01*
X115987373Y-89118541D01*
X115987373Y-88689969D01*
X116058802Y-88547112D01*
X116130230Y-88475684D01*
X116273088Y-88404255D01*
X116558802Y-88404255D01*
X116701659Y-88475684D01*
X90430230Y-110485684D02*
X90287373Y-110414255D01*
X90073088Y-110414255D01*
X89858802Y-110485684D01*
X89715945Y-110628541D01*
X89644516Y-110771398D01*
X89573088Y-111057112D01*
X89573088Y-111271398D01*
X89644516Y-111557112D01*
X89715945Y-111699969D01*
X89858802Y-111842826D01*
X90073088Y-111914255D01*
X90215945Y-111914255D01*
X90430230Y-111842826D01*
X90501659Y-111771398D01*
X90501659Y-111271398D01*
X90215945Y-111271398D01*
X91144516Y-111914255D02*
X91144516Y-110414255D01*
X92001659Y-111914255D01*
X92001659Y-110414255D01*
X92715945Y-111914255D02*
X92715945Y-110414255D01*
X93073088Y-110414255D01*
X93287373Y-110485684D01*
X93430230Y-110628541D01*
X93501659Y-110771398D01*
X93573088Y-111057112D01*
X93573088Y-111271398D01*
X93501659Y-111557112D01*
X93430230Y-111699969D01*
X93287373Y-111842826D01*
X93073088Y-111914255D01*
X92715945Y-111914255D01*
X162530230Y-108005684D02*
X162387373Y-107934255D01*
X162173088Y-107934255D01*
X161958802Y-108005684D01*
X161815945Y-108148541D01*
X161744516Y-108291398D01*
X161673088Y-108577112D01*
X161673088Y-108791398D01*
X161744516Y-109077112D01*
X161815945Y-109219969D01*
X161958802Y-109362826D01*
X162173088Y-109434255D01*
X162315945Y-109434255D01*
X162530230Y-109362826D01*
X162601659Y-109291398D01*
X162601659Y-108791398D01*
X162315945Y-108791398D01*
X163244516Y-109434255D02*
X163244516Y-107934255D01*
X164101659Y-109434255D01*
X164101659Y-107934255D01*
X164815945Y-109434255D02*
X164815945Y-107934255D01*
X165173088Y-107934255D01*
X165387373Y-108005684D01*
X165530230Y-108148541D01*
X165601659Y-108291398D01*
X165673088Y-108577112D01*
X165673088Y-108791398D01*
X165601659Y-109077112D01*
X165530230Y-109219969D01*
X165387373Y-109362826D01*
X165173088Y-109434255D01*
X164815945Y-109434255D01*
D11*
X95563802Y-105088719D02*
X95992373Y-105088719D01*
X95778088Y-105838719D02*
X95778088Y-105088719D01*
X96242373Y-105838719D02*
X96242373Y-105088719D01*
X96528088Y-105088719D01*
X96599516Y-105124434D01*
X96635230Y-105160148D01*
X96670945Y-105231576D01*
X96670945Y-105338719D01*
X96635230Y-105410148D01*
X96599516Y-105445862D01*
X96528088Y-105481576D01*
X96242373Y-105481576D01*
X97385230Y-105838719D02*
X96956659Y-105838719D01*
X97170945Y-105838719D02*
X97170945Y-105088719D01*
X97099516Y-105195862D01*
X97028088Y-105267291D01*
X96956659Y-105303005D01*
X97706659Y-105767291D02*
X97742373Y-105803005D01*
X97706659Y-105838719D01*
X97670945Y-105803005D01*
X97706659Y-105767291D01*
X97706659Y-105838719D01*
X97706659Y-105374434D02*
X97742373Y-105410148D01*
X97706659Y-105445862D01*
X97670945Y-105410148D01*
X97706659Y-105374434D01*
X97706659Y-105445862D01*
X98992373Y-105838719D02*
X98635230Y-105838719D01*
X98635230Y-105088719D01*
X99670945Y-105767291D02*
X99635230Y-105803005D01*
X99528088Y-105838719D01*
X99456659Y-105838719D01*
X99349516Y-105803005D01*
X99278088Y-105731576D01*
X99242373Y-105660148D01*
X99206659Y-105517291D01*
X99206659Y-105410148D01*
X99242373Y-105267291D01*
X99278088Y-105195862D01*
X99349516Y-105124434D01*
X99456659Y-105088719D01*
X99528088Y-105088719D01*
X99635230Y-105124434D01*
X99670945Y-105160148D01*
X99992373Y-105838719D02*
X99992373Y-105088719D01*
X100170945Y-105088719D01*
X100278088Y-105124434D01*
X100349516Y-105195862D01*
X100385230Y-105267291D01*
X100420945Y-105410148D01*
X100420945Y-105517291D01*
X100385230Y-105660148D01*
X100349516Y-105731576D01*
X100278088Y-105803005D01*
X100170945Y-105838719D01*
X99992373Y-105838719D01*
X101063802Y-105803005D02*
X100992373Y-105838719D01*
X100849516Y-105838719D01*
X100778088Y-105803005D01*
X100742373Y-105767291D01*
X100706659Y-105695862D01*
X100706659Y-105481576D01*
X100742373Y-105410148D01*
X100778088Y-105374434D01*
X100849516Y-105338719D01*
X100992373Y-105338719D01*
X101063802Y-105374434D01*
X101349516Y-105803005D02*
X101420945Y-105838719D01*
X101563802Y-105838719D01*
X101635230Y-105803005D01*
X101670945Y-105731576D01*
X101670945Y-105695862D01*
X101635230Y-105624434D01*
X101563802Y-105588719D01*
X101456659Y-105588719D01*
X101385230Y-105553005D01*
X101349516Y-105481576D01*
X101349516Y-105445862D01*
X101385230Y-105374434D01*
X101456659Y-105338719D01*
X101563802Y-105338719D01*
X101635230Y-105374434D01*
X95545945Y-106401219D02*
X95974516Y-106401219D01*
X95760230Y-107151219D02*
X95760230Y-106401219D01*
X96224516Y-107151219D02*
X96224516Y-106401219D01*
X96510230Y-106401219D01*
X96581659Y-106436934D01*
X96617373Y-106472648D01*
X96653088Y-106544076D01*
X96653088Y-106651219D01*
X96617373Y-106722648D01*
X96581659Y-106758362D01*
X96510230Y-106794076D01*
X96224516Y-106794076D01*
X96938802Y-106472648D02*
X96974516Y-106436934D01*
X97045945Y-106401219D01*
X97224516Y-106401219D01*
X97295945Y-106436934D01*
X97331659Y-106472648D01*
X97367373Y-106544076D01*
X97367373Y-106615505D01*
X97331659Y-106722648D01*
X96903088Y-107151219D01*
X97367373Y-107151219D01*
X97688802Y-107079791D02*
X97724516Y-107115505D01*
X97688802Y-107151219D01*
X97653088Y-107115505D01*
X97688802Y-107079791D01*
X97688802Y-107151219D01*
X97688802Y-106686934D02*
X97724516Y-106722648D01*
X97688802Y-106758362D01*
X97653088Y-106722648D01*
X97688802Y-106686934D01*
X97688802Y-106758362D01*
X98581659Y-106936934D02*
X98938802Y-106936934D01*
X98510230Y-107151219D02*
X98760230Y-106401219D01*
X99010230Y-107151219D01*
X99688802Y-107079791D02*
X99653088Y-107115505D01*
X99545945Y-107151219D01*
X99474516Y-107151219D01*
X99367373Y-107115505D01*
X99295945Y-107044076D01*
X99260230Y-106972648D01*
X99224516Y-106829791D01*
X99224516Y-106722648D01*
X99260230Y-106579791D01*
X99295945Y-106508362D01*
X99367373Y-106436934D01*
X99474516Y-106401219D01*
X99545945Y-106401219D01*
X99653088Y-106436934D01*
X99688802Y-106472648D01*
X100438802Y-107079791D02*
X100403088Y-107115505D01*
X100295945Y-107151219D01*
X100224516Y-107151219D01*
X100117373Y-107115505D01*
X100045945Y-107044076D01*
X100010230Y-106972648D01*
X99974516Y-106829791D01*
X99974516Y-106722648D01*
X100010230Y-106579791D01*
X100045945Y-106508362D01*
X100117373Y-106436934D01*
X100224516Y-106401219D01*
X100295945Y-106401219D01*
X100403088Y-106436934D01*
X100438802Y-106472648D01*
X101081659Y-107115505D02*
X101010230Y-107151219D01*
X100867373Y-107151219D01*
X100795945Y-107115505D01*
X100760230Y-107079791D01*
X100724516Y-107008362D01*
X100724516Y-106794076D01*
X100760230Y-106722648D01*
X100795945Y-106686934D01*
X100867373Y-106651219D01*
X101010230Y-106651219D01*
X101081659Y-106686934D01*
X101367373Y-107115505D02*
X101438802Y-107151219D01*
X101581659Y-107151219D01*
X101653088Y-107115505D01*
X101688802Y-107044076D01*
X101688802Y-107008362D01*
X101653088Y-106936934D01*
X101581659Y-106901219D01*
X101474516Y-106901219D01*
X101403088Y-106865505D01*
X101367373Y-106794076D01*
X101367373Y-106758362D01*
X101403088Y-106686934D01*
X101474516Y-106651219D01*
X101581659Y-106651219D01*
X101653088Y-106686934D01*
X96170945Y-107713719D02*
X96599516Y-107713719D01*
X96385230Y-108463719D02*
X96385230Y-107713719D01*
X96849516Y-108463719D02*
X96849516Y-107713719D01*
X97135230Y-107713719D01*
X97206659Y-107749434D01*
X97242373Y-107785148D01*
X97278088Y-107856576D01*
X97278088Y-107963719D01*
X97242373Y-108035148D01*
X97206659Y-108070862D01*
X97135230Y-108106576D01*
X96849516Y-108106576D01*
X97528088Y-107713719D02*
X97992373Y-107713719D01*
X97742373Y-107999434D01*
X97849516Y-107999434D01*
X97920945Y-108035148D01*
X97956659Y-108070862D01*
X97992373Y-108142291D01*
X97992373Y-108320862D01*
X97956659Y-108392291D01*
X97920945Y-108428005D01*
X97849516Y-108463719D01*
X97635230Y-108463719D01*
X97563802Y-108428005D01*
X97528088Y-108392291D01*
X98313802Y-108392291D02*
X98349516Y-108428005D01*
X98313802Y-108463719D01*
X98278088Y-108428005D01*
X98313802Y-108392291D01*
X98313802Y-108463719D01*
X98313802Y-107999434D02*
X98349516Y-108035148D01*
X98313802Y-108070862D01*
X98278088Y-108035148D01*
X98313802Y-107999434D01*
X98313802Y-108070862D01*
X98670945Y-108463719D02*
X98670945Y-107713719D01*
X98920945Y-108249434D01*
X99170945Y-107713719D01*
X99170945Y-108463719D01*
X99528088Y-108463719D02*
X99528088Y-107713719D01*
X99849516Y-108428005D02*
X99956659Y-108463719D01*
X100135230Y-108463719D01*
X100206659Y-108428005D01*
X100242373Y-108392291D01*
X100278088Y-108320862D01*
X100278088Y-108249434D01*
X100242373Y-108178005D01*
X100206659Y-108142291D01*
X100135230Y-108106576D01*
X99992373Y-108070862D01*
X99920945Y-108035148D01*
X99885230Y-107999434D01*
X99849516Y-107928005D01*
X99849516Y-107856576D01*
X99885230Y-107785148D01*
X99920945Y-107749434D01*
X99992373Y-107713719D01*
X100170945Y-107713719D01*
X100278088Y-107749434D01*
X100742373Y-107713719D02*
X100885230Y-107713719D01*
X100956659Y-107749434D01*
X101028088Y-107820862D01*
X101063802Y-107963719D01*
X101063802Y-108213719D01*
X101028088Y-108356576D01*
X100956659Y-108428005D01*
X100885230Y-108463719D01*
X100742373Y-108463719D01*
X100670945Y-108428005D01*
X100599516Y-108356576D01*
X100563802Y-108213719D01*
X100563802Y-107963719D01*
X100599516Y-107820862D01*
X100670945Y-107749434D01*
X100742373Y-107713719D01*
X96474516Y-109026219D02*
X96903088Y-109026219D01*
X96688802Y-109776219D02*
X96688802Y-109026219D01*
X97153088Y-109776219D02*
X97153088Y-109026219D01*
X97438802Y-109026219D01*
X97510230Y-109061934D01*
X97545945Y-109097648D01*
X97581659Y-109169076D01*
X97581659Y-109276219D01*
X97545945Y-109347648D01*
X97510230Y-109383362D01*
X97438802Y-109419076D01*
X97153088Y-109419076D01*
X98260230Y-109026219D02*
X97903088Y-109026219D01*
X97867373Y-109383362D01*
X97903088Y-109347648D01*
X97974516Y-109311934D01*
X98153088Y-109311934D01*
X98224516Y-109347648D01*
X98260230Y-109383362D01*
X98295945Y-109454791D01*
X98295945Y-109633362D01*
X98260230Y-109704791D01*
X98224516Y-109740505D01*
X98153088Y-109776219D01*
X97974516Y-109776219D01*
X97903088Y-109740505D01*
X97867373Y-109704791D01*
X98617373Y-109704791D02*
X98653088Y-109740505D01*
X98617373Y-109776219D01*
X98581659Y-109740505D01*
X98617373Y-109704791D01*
X98617373Y-109776219D01*
X98617373Y-109311934D02*
X98653088Y-109347648D01*
X98617373Y-109383362D01*
X98581659Y-109347648D01*
X98617373Y-109311934D01*
X98617373Y-109383362D01*
X99403088Y-109704791D02*
X99367373Y-109740505D01*
X99260230Y-109776219D01*
X99188802Y-109776219D01*
X99081659Y-109740505D01*
X99010230Y-109669076D01*
X98974516Y-109597648D01*
X98938802Y-109454791D01*
X98938802Y-109347648D01*
X98974516Y-109204791D01*
X99010230Y-109133362D01*
X99081659Y-109061934D01*
X99188802Y-109026219D01*
X99260230Y-109026219D01*
X99367373Y-109061934D01*
X99403088Y-109097648D01*
X100081659Y-109776219D02*
X99724516Y-109776219D01*
X99724516Y-109026219D01*
X100331659Y-109776219D02*
X100331659Y-109026219D01*
X100760230Y-109776219D02*
X100438802Y-109347648D01*
X100760230Y-109026219D02*
X100331659Y-109454791D01*
X96170945Y-110338719D02*
X96599516Y-110338719D01*
X96385230Y-111088719D02*
X96385230Y-110338719D01*
X96849516Y-111088719D02*
X96849516Y-110338719D01*
X97135230Y-110338719D01*
X97206659Y-110374434D01*
X97242373Y-110410148D01*
X97278088Y-110481576D01*
X97278088Y-110588719D01*
X97242373Y-110660148D01*
X97206659Y-110695862D01*
X97135230Y-110731576D01*
X96849516Y-110731576D01*
X97920945Y-110338719D02*
X97778088Y-110338719D01*
X97706659Y-110374434D01*
X97670945Y-110410148D01*
X97599516Y-110517291D01*
X97563802Y-110660148D01*
X97563802Y-110945862D01*
X97599516Y-111017291D01*
X97635230Y-111053005D01*
X97706659Y-111088719D01*
X97849516Y-111088719D01*
X97920945Y-111053005D01*
X97956659Y-111017291D01*
X97992373Y-110945862D01*
X97992373Y-110767291D01*
X97956659Y-110695862D01*
X97920945Y-110660148D01*
X97849516Y-110624434D01*
X97706659Y-110624434D01*
X97635230Y-110660148D01*
X97599516Y-110695862D01*
X97563802Y-110767291D01*
X98313802Y-111017291D02*
X98349516Y-111053005D01*
X98313802Y-111088719D01*
X98278088Y-111053005D01*
X98313802Y-111017291D01*
X98313802Y-111088719D01*
X98313802Y-110624434D02*
X98349516Y-110660148D01*
X98313802Y-110695862D01*
X98278088Y-110660148D01*
X98313802Y-110624434D01*
X98313802Y-110695862D01*
X98670945Y-111088719D02*
X98670945Y-110338719D01*
X98920945Y-110874434D01*
X99170945Y-110338719D01*
X99170945Y-111088719D01*
X99670945Y-110338719D02*
X99813802Y-110338719D01*
X99885230Y-110374434D01*
X99956659Y-110445862D01*
X99992373Y-110588719D01*
X99992373Y-110838719D01*
X99956659Y-110981576D01*
X99885230Y-111053005D01*
X99813802Y-111088719D01*
X99670945Y-111088719D01*
X99599516Y-111053005D01*
X99528088Y-110981576D01*
X99492373Y-110838719D01*
X99492373Y-110588719D01*
X99528088Y-110445862D01*
X99599516Y-110374434D01*
X99670945Y-110338719D01*
X100278088Y-111053005D02*
X100385230Y-111088719D01*
X100563802Y-111088719D01*
X100635230Y-111053005D01*
X100670945Y-111017291D01*
X100706659Y-110945862D01*
X100706659Y-110874434D01*
X100670945Y-110803005D01*
X100635230Y-110767291D01*
X100563802Y-110731576D01*
X100420945Y-110695862D01*
X100349516Y-110660148D01*
X100313802Y-110624434D01*
X100278088Y-110553005D01*
X100278088Y-110481576D01*
X100313802Y-110410148D01*
X100349516Y-110374434D01*
X100420945Y-110338719D01*
X100599516Y-110338719D01*
X100706659Y-110374434D01*
X101028088Y-111088719D02*
X101028088Y-110338719D01*
X96295945Y-111651219D02*
X96724516Y-111651219D01*
X96510230Y-112401219D02*
X96510230Y-111651219D01*
X96974516Y-112401219D02*
X96974516Y-111651219D01*
X97260230Y-111651219D01*
X97331659Y-111686934D01*
X97367373Y-111722648D01*
X97403088Y-111794076D01*
X97403088Y-111901219D01*
X97367373Y-111972648D01*
X97331659Y-112008362D01*
X97260230Y-112044076D01*
X96974516Y-112044076D01*
X97653088Y-111651219D02*
X98153088Y-111651219D01*
X97831659Y-112401219D01*
X98438802Y-112329791D02*
X98474516Y-112365505D01*
X98438802Y-112401219D01*
X98403088Y-112365505D01*
X98438802Y-112329791D01*
X98438802Y-112401219D01*
X98438802Y-111936934D02*
X98474516Y-111972648D01*
X98438802Y-112008362D01*
X98403088Y-111972648D01*
X98438802Y-111936934D01*
X98438802Y-112008362D01*
X98795945Y-112401219D02*
X98795945Y-111651219D01*
X99117373Y-111722648D02*
X99153088Y-111686934D01*
X99224516Y-111651219D01*
X99403088Y-111651219D01*
X99474516Y-111686934D01*
X99510230Y-111722648D01*
X99545945Y-111794076D01*
X99545945Y-111865505D01*
X99510230Y-111972648D01*
X99081659Y-112401219D01*
X99545945Y-112401219D01*
X100295945Y-112329791D02*
X100260230Y-112365505D01*
X100153088Y-112401219D01*
X100081659Y-112401219D01*
X99974516Y-112365505D01*
X99903088Y-112294076D01*
X99867373Y-112222648D01*
X99831659Y-112079791D01*
X99831659Y-111972648D01*
X99867373Y-111829791D01*
X99903088Y-111758362D01*
X99974516Y-111686934D01*
X100081659Y-111651219D01*
X100153088Y-111651219D01*
X100260230Y-111686934D01*
X100295945Y-111722648D01*
X100938802Y-112365505D02*
X100867373Y-112401219D01*
X100724516Y-112401219D01*
X100653088Y-112365505D01*
X100617373Y-112329791D01*
X100581659Y-112258362D01*
X100581659Y-112044076D01*
X100617373Y-111972648D01*
X100653088Y-111936934D01*
X100724516Y-111901219D01*
X100867373Y-111901219D01*
X100938802Y-111936934D01*
X96278088Y-112963719D02*
X96706659Y-112963719D01*
X96492373Y-113713719D02*
X96492373Y-112963719D01*
X96956659Y-113713719D02*
X96956659Y-112963719D01*
X97242373Y-112963719D01*
X97313802Y-112999434D01*
X97349516Y-113035148D01*
X97385230Y-113106576D01*
X97385230Y-113213719D01*
X97349516Y-113285148D01*
X97313802Y-113320862D01*
X97242373Y-113356576D01*
X96956659Y-113356576D01*
X97813802Y-113285148D02*
X97742373Y-113249434D01*
X97706659Y-113213719D01*
X97670945Y-113142291D01*
X97670945Y-113106576D01*
X97706659Y-113035148D01*
X97742373Y-112999434D01*
X97813802Y-112963719D01*
X97956659Y-112963719D01*
X98028088Y-112999434D01*
X98063802Y-113035148D01*
X98099516Y-113106576D01*
X98099516Y-113142291D01*
X98063802Y-113213719D01*
X98028088Y-113249434D01*
X97956659Y-113285148D01*
X97813802Y-113285148D01*
X97742373Y-113320862D01*
X97706659Y-113356576D01*
X97670945Y-113428005D01*
X97670945Y-113570862D01*
X97706659Y-113642291D01*
X97742373Y-113678005D01*
X97813802Y-113713719D01*
X97956659Y-113713719D01*
X98028088Y-113678005D01*
X98063802Y-113642291D01*
X98099516Y-113570862D01*
X98099516Y-113428005D01*
X98063802Y-113356576D01*
X98028088Y-113320862D01*
X97956659Y-113285148D01*
X98420945Y-113642291D02*
X98456659Y-113678005D01*
X98420945Y-113713719D01*
X98385230Y-113678005D01*
X98420945Y-113642291D01*
X98420945Y-113713719D01*
X98420945Y-113249434D02*
X98456659Y-113285148D01*
X98420945Y-113320862D01*
X98385230Y-113285148D01*
X98420945Y-113249434D01*
X98420945Y-113320862D01*
X98778088Y-113713719D02*
X98778088Y-112963719D01*
X99099516Y-113035148D02*
X99135230Y-112999434D01*
X99206659Y-112963719D01*
X99385230Y-112963719D01*
X99456659Y-112999434D01*
X99492373Y-113035148D01*
X99528088Y-113106576D01*
X99528088Y-113178005D01*
X99492373Y-113285148D01*
X99063802Y-113713719D01*
X99528088Y-113713719D01*
X100278088Y-113642291D02*
X100242373Y-113678005D01*
X100135230Y-113713719D01*
X100063802Y-113713719D01*
X99956659Y-113678005D01*
X99885230Y-113606576D01*
X99849516Y-113535148D01*
X99813802Y-113392291D01*
X99813802Y-113285148D01*
X99849516Y-113142291D01*
X99885230Y-113070862D01*
X99956659Y-112999434D01*
X100063802Y-112963719D01*
X100135230Y-112963719D01*
X100242373Y-112999434D01*
X100278088Y-113035148D01*
X100920945Y-113713719D02*
X100920945Y-112963719D01*
X100920945Y-113678005D02*
X100849516Y-113713719D01*
X100706659Y-113713719D01*
X100635230Y-113678005D01*
X100599516Y-113642291D01*
X100563802Y-113570862D01*
X100563802Y-113356576D01*
X100599516Y-113285148D01*
X100635230Y-113249434D01*
X100706659Y-113213719D01*
X100849516Y-113213719D01*
X100920945Y-113249434D01*
X96028088Y-114276219D02*
X96456659Y-114276219D01*
X96242373Y-115026219D02*
X96242373Y-114276219D01*
X96706659Y-115026219D02*
X96706659Y-114276219D01*
X96992373Y-114276219D01*
X97063802Y-114311934D01*
X97099516Y-114347648D01*
X97135230Y-114419076D01*
X97135230Y-114526219D01*
X97099516Y-114597648D01*
X97063802Y-114633362D01*
X96992373Y-114669076D01*
X96706659Y-114669076D01*
X97849516Y-115026219D02*
X97420945Y-115026219D01*
X97635230Y-115026219D02*
X97635230Y-114276219D01*
X97563802Y-114383362D01*
X97492373Y-114454791D01*
X97420945Y-114490505D01*
X98563802Y-115026219D02*
X98135230Y-115026219D01*
X98349516Y-115026219D02*
X98349516Y-114276219D01*
X98278088Y-114383362D01*
X98206659Y-114454791D01*
X98135230Y-114490505D01*
X98885230Y-114954791D02*
X98920945Y-114990505D01*
X98885230Y-115026219D01*
X98849516Y-114990505D01*
X98885230Y-114954791D01*
X98885230Y-115026219D01*
X98885230Y-114561934D02*
X98920945Y-114597648D01*
X98885230Y-114633362D01*
X98849516Y-114597648D01*
X98885230Y-114561934D01*
X98885230Y-114633362D01*
X99635230Y-114311934D02*
X99563802Y-114276219D01*
X99456659Y-114276219D01*
X99349516Y-114311934D01*
X99278088Y-114383362D01*
X99242373Y-114454791D01*
X99206659Y-114597648D01*
X99206659Y-114704791D01*
X99242373Y-114847648D01*
X99278088Y-114919076D01*
X99349516Y-114990505D01*
X99456659Y-115026219D01*
X99528088Y-115026219D01*
X99635230Y-114990505D01*
X99670945Y-114954791D01*
X99670945Y-114704791D01*
X99528088Y-114704791D01*
X99992373Y-115026219D02*
X99992373Y-114276219D01*
X100420945Y-115026219D01*
X100420945Y-114276219D01*
X100778088Y-115026219D02*
X100778088Y-114276219D01*
X100956659Y-114276219D01*
X101063802Y-114311934D01*
X101135230Y-114383362D01*
X101170945Y-114454791D01*
X101206659Y-114597648D01*
X101206659Y-114704791D01*
X101170945Y-114847648D01*
X101135230Y-114919076D01*
X101063802Y-114990505D01*
X100956659Y-115026219D01*
X100778088Y-115026219D01*
X96028088Y-115588719D02*
X96456659Y-115588719D01*
X96242373Y-116338719D02*
X96242373Y-115588719D01*
X96706659Y-116338719D02*
X96706659Y-115588719D01*
X96992373Y-115588719D01*
X97063802Y-115624434D01*
X97099516Y-115660148D01*
X97135230Y-115731576D01*
X97135230Y-115838719D01*
X97099516Y-115910148D01*
X97063802Y-115945862D01*
X96992373Y-115981576D01*
X96706659Y-115981576D01*
X97849516Y-116338719D02*
X97420945Y-116338719D01*
X97635230Y-116338719D02*
X97635230Y-115588719D01*
X97563802Y-115695862D01*
X97492373Y-115767291D01*
X97420945Y-115803005D01*
X98135230Y-115660148D02*
X98170945Y-115624434D01*
X98242373Y-115588719D01*
X98420945Y-115588719D01*
X98492373Y-115624434D01*
X98528088Y-115660148D01*
X98563802Y-115731576D01*
X98563802Y-115803005D01*
X98528088Y-115910148D01*
X98099516Y-116338719D01*
X98563802Y-116338719D01*
X98885230Y-116267291D02*
X98920945Y-116303005D01*
X98885230Y-116338719D01*
X98849516Y-116303005D01*
X98885230Y-116267291D01*
X98885230Y-116338719D01*
X98885230Y-115874434D02*
X98920945Y-115910148D01*
X98885230Y-115945862D01*
X98849516Y-115910148D01*
X98885230Y-115874434D01*
X98885230Y-115945862D01*
X99635230Y-115624434D02*
X99563802Y-115588719D01*
X99456659Y-115588719D01*
X99349516Y-115624434D01*
X99278088Y-115695862D01*
X99242373Y-115767291D01*
X99206659Y-115910148D01*
X99206659Y-116017291D01*
X99242373Y-116160148D01*
X99278088Y-116231576D01*
X99349516Y-116303005D01*
X99456659Y-116338719D01*
X99528088Y-116338719D01*
X99635230Y-116303005D01*
X99670945Y-116267291D01*
X99670945Y-116017291D01*
X99528088Y-116017291D01*
X99992373Y-116338719D02*
X99992373Y-115588719D01*
X100420945Y-116338719D01*
X100420945Y-115588719D01*
X100778088Y-116338719D02*
X100778088Y-115588719D01*
X100956659Y-115588719D01*
X101063802Y-115624434D01*
X101135230Y-115695862D01*
X101170945Y-115767291D01*
X101206659Y-115910148D01*
X101206659Y-116017291D01*
X101170945Y-116160148D01*
X101135230Y-116231576D01*
X101063802Y-116303005D01*
X100956659Y-116338719D01*
X100778088Y-116338719D01*
X96135230Y-116901219D02*
X96563802Y-116901219D01*
X96349516Y-117651219D02*
X96349516Y-116901219D01*
X96813802Y-117651219D02*
X96813802Y-116901219D01*
X97099516Y-116901219D01*
X97170945Y-116936934D01*
X97206659Y-116972648D01*
X97242373Y-117044076D01*
X97242373Y-117151219D01*
X97206659Y-117222648D01*
X97170945Y-117258362D01*
X97099516Y-117294076D01*
X96813802Y-117294076D01*
X97956659Y-117651219D02*
X97528088Y-117651219D01*
X97742373Y-117651219D02*
X97742373Y-116901219D01*
X97670945Y-117008362D01*
X97599516Y-117079791D01*
X97528088Y-117115505D01*
X98635230Y-116901219D02*
X98278088Y-116901219D01*
X98242373Y-117258362D01*
X98278088Y-117222648D01*
X98349516Y-117186934D01*
X98528088Y-117186934D01*
X98599516Y-117222648D01*
X98635230Y-117258362D01*
X98670945Y-117329791D01*
X98670945Y-117508362D01*
X98635230Y-117579791D01*
X98599516Y-117615505D01*
X98528088Y-117651219D01*
X98349516Y-117651219D01*
X98278088Y-117615505D01*
X98242373Y-117579791D01*
X98992373Y-117579791D02*
X99028088Y-117615505D01*
X98992373Y-117651219D01*
X98956659Y-117615505D01*
X98992373Y-117579791D01*
X98992373Y-117651219D01*
X98992373Y-117186934D02*
X99028088Y-117222648D01*
X98992373Y-117258362D01*
X98956659Y-117222648D01*
X98992373Y-117186934D01*
X98992373Y-117258362D01*
X99278088Y-116901219D02*
X99742373Y-116901219D01*
X99492373Y-117186934D01*
X99599516Y-117186934D01*
X99670945Y-117222648D01*
X99706659Y-117258362D01*
X99742373Y-117329791D01*
X99742373Y-117508362D01*
X99706659Y-117579791D01*
X99670945Y-117615505D01*
X99599516Y-117651219D01*
X99385230Y-117651219D01*
X99313802Y-117615505D01*
X99278088Y-117579791D01*
X99956659Y-116901219D02*
X100206659Y-117651219D01*
X100456659Y-116901219D01*
X100635230Y-116901219D02*
X101099516Y-116901219D01*
X100849516Y-117186934D01*
X100956659Y-117186934D01*
X101028088Y-117222648D01*
X101063802Y-117258362D01*
X101099516Y-117329791D01*
X101099516Y-117508362D01*
X101063802Y-117579791D01*
X101028088Y-117615505D01*
X100956659Y-117651219D01*
X100742373Y-117651219D01*
X100670945Y-117615505D01*
X100635230Y-117579791D01*
D12*
X106688326Y-119374255D02*
X106831183Y-119421874D01*
X106878802Y-119469493D01*
X106926421Y-119564731D01*
X106926421Y-119707588D01*
X106878802Y-119802826D01*
X106831183Y-119850445D01*
X106735945Y-119898064D01*
X106354992Y-119898064D01*
X106354992Y-118898064D01*
X106688326Y-118898064D01*
X106783564Y-118945684D01*
X106831183Y-118993303D01*
X106878802Y-119088541D01*
X106878802Y-119183779D01*
X106831183Y-119279017D01*
X106783564Y-119326636D01*
X106688326Y-119374255D01*
X106354992Y-119374255D01*
X107307373Y-119612350D02*
X107783564Y-119612350D01*
X107212135Y-119898064D02*
X107545468Y-118898064D01*
X107878802Y-119898064D01*
X108783564Y-119802826D02*
X108735945Y-119850445D01*
X108593088Y-119898064D01*
X108497849Y-119898064D01*
X108354992Y-119850445D01*
X108259754Y-119755207D01*
X108212135Y-119659969D01*
X108164516Y-119469493D01*
X108164516Y-119326636D01*
X108212135Y-119136160D01*
X108259754Y-119040922D01*
X108354992Y-118945684D01*
X108497849Y-118898064D01*
X108593088Y-118898064D01*
X108735945Y-118945684D01*
X108783564Y-118993303D01*
X109212135Y-119898064D02*
X109212135Y-118898064D01*
X109783564Y-119898064D02*
X109354992Y-119326636D01*
X109783564Y-118898064D02*
X109212135Y-119469493D01*
X110688326Y-119898064D02*
X110212135Y-119898064D01*
X110212135Y-118898064D01*
X111021659Y-119898064D02*
X111021659Y-118898064D01*
X112021659Y-118945684D02*
X111926421Y-118898064D01*
X111783564Y-118898064D01*
X111640707Y-118945684D01*
X111545468Y-119040922D01*
X111497849Y-119136160D01*
X111450230Y-119326636D01*
X111450230Y-119469493D01*
X111497849Y-119659969D01*
X111545468Y-119755207D01*
X111640707Y-119850445D01*
X111783564Y-119898064D01*
X111878802Y-119898064D01*
X112021659Y-119850445D01*
X112069278Y-119802826D01*
X112069278Y-119469493D01*
X111878802Y-119469493D01*
X112497849Y-119898064D02*
X112497849Y-118898064D01*
X112497849Y-119374255D02*
X113069278Y-119374255D01*
X113069278Y-119898064D02*
X113069278Y-118898064D01*
X113402611Y-118898064D02*
X113974040Y-118898064D01*
X113688326Y-119898064D02*
X113688326Y-118898064D01*
X104115008Y-133442284D02*
X104115008Y-120534004D01*
X116515288Y-133416884D02*
X104115008Y-133416884D01*
X116515288Y-120544164D02*
X116515288Y-133416884D01*
X104110000Y-120544164D02*
X116515288Y-120544164D01*
X98422849Y-120604426D02*
X98375230Y-120652045D01*
X98232373Y-120699664D01*
X98137135Y-120699664D01*
X97994278Y-120652045D01*
X97899040Y-120556807D01*
X97851421Y-120461569D01*
X97803802Y-120271093D01*
X97803802Y-120128236D01*
X97851421Y-119937760D01*
X97899040Y-119842522D01*
X97994278Y-119747284D01*
X98137135Y-119699664D01*
X98232373Y-119699664D01*
X98375230Y-119747284D01*
X98422849Y-119794903D01*
X98851421Y-120699664D02*
X98851421Y-119699664D01*
X98851421Y-120175855D02*
X99422849Y-120175855D01*
X99422849Y-120699664D02*
X99422849Y-119699664D01*
X99851421Y-120413950D02*
X100327611Y-120413950D01*
X99756183Y-120699664D02*
X100089516Y-119699664D01*
X100422849Y-120699664D01*
X101327611Y-120699664D02*
X100994278Y-120223474D01*
X100756183Y-120699664D02*
X100756183Y-119699664D01*
X101137135Y-119699664D01*
X101232373Y-119747284D01*
X101279992Y-119794903D01*
X101327611Y-119890141D01*
X101327611Y-120032998D01*
X101279992Y-120128236D01*
X101232373Y-120175855D01*
X101137135Y-120223474D01*
X100756183Y-120223474D01*
X102279992Y-119747284D02*
X102184754Y-119699664D01*
X102041897Y-119699664D01*
X101899040Y-119747284D01*
X101803802Y-119842522D01*
X101756183Y-119937760D01*
X101708564Y-120128236D01*
X101708564Y-120271093D01*
X101756183Y-120461569D01*
X101803802Y-120556807D01*
X101899040Y-120652045D01*
X102041897Y-120699664D01*
X102137135Y-120699664D01*
X102279992Y-120652045D01*
X102327611Y-120604426D01*
X102327611Y-120271093D01*
X102137135Y-120271093D01*
X102756183Y-120175855D02*
X103089516Y-120175855D01*
X103232373Y-120699664D02*
X102756183Y-120699664D01*
X102756183Y-119699664D01*
X103232373Y-119699664D01*
X97138100Y-121135172D02*
X103579540Y-121135172D01*
X97138100Y-128745012D02*
X97138100Y-121135172D01*
X103599860Y-128745012D02*
X97138100Y-128745012D01*
X103599860Y-121013652D02*
X103599860Y-128882572D01*
X123702135Y-169658064D02*
X123368802Y-169181874D01*
X123130707Y-169658064D02*
X123130707Y-168658064D01*
X123511659Y-168658064D01*
X123606897Y-168705684D01*
X123654516Y-168753303D01*
X123702135Y-168848541D01*
X123702135Y-168991398D01*
X123654516Y-169086636D01*
X123606897Y-169134255D01*
X123511659Y-169181874D01*
X123130707Y-169181874D01*
X124130707Y-169134255D02*
X124464040Y-169134255D01*
X124606897Y-169658064D02*
X124130707Y-169658064D01*
X124130707Y-168658064D01*
X124606897Y-168658064D01*
X125511659Y-169658064D02*
X125035468Y-169658064D01*
X125035468Y-168658064D01*
X125797373Y-169372350D02*
X126273564Y-169372350D01*
X125702135Y-169658064D02*
X126035468Y-168658064D01*
X126368802Y-169658064D01*
X126892611Y-169181874D02*
X126892611Y-169658064D01*
X126559278Y-168658064D02*
X126892611Y-169181874D01*
X127225945Y-168658064D01*
X127511659Y-169610445D02*
X127654516Y-169658064D01*
X127892611Y-169658064D01*
X127987849Y-169610445D01*
X128035468Y-169562826D01*
X128083088Y-169467588D01*
X128083088Y-169372350D01*
X128035468Y-169277112D01*
X127987849Y-169229493D01*
X127892611Y-169181874D01*
X127702135Y-169134255D01*
X127606897Y-169086636D01*
X127559278Y-169039017D01*
X127511659Y-168943779D01*
X127511659Y-168848541D01*
X127559278Y-168753303D01*
X127606897Y-168705684D01*
X127702135Y-168658064D01*
X127940230Y-168658064D01*
X128083088Y-168705684D01*
X131608214Y-153975088D02*
X131582814Y-167320248D01*
X120071534Y-153975088D02*
X131608214Y-153975088D01*
X120071534Y-167335488D02*
X120071534Y-153975088D01*
X131597142Y-167335488D02*
X120071534Y-167335488D01*
X96884992Y-137018064D02*
X97504040Y-137018064D01*
X97170707Y-137399017D01*
X97313564Y-137399017D01*
X97408802Y-137446636D01*
X97456421Y-137494255D01*
X97504040Y-137589493D01*
X97504040Y-137827588D01*
X97456421Y-137922826D01*
X97408802Y-137970445D01*
X97313564Y-138018064D01*
X97027849Y-138018064D01*
X96932611Y-137970445D01*
X96884992Y-137922826D01*
X97789754Y-137018064D02*
X98123088Y-138018064D01*
X98456421Y-137018064D01*
X98694516Y-137018064D02*
X99313564Y-137018064D01*
X98980230Y-137399017D01*
X99123088Y-137399017D01*
X99218326Y-137446636D01*
X99265945Y-137494255D01*
X99313564Y-137589493D01*
X99313564Y-137827588D01*
X99265945Y-137922826D01*
X99218326Y-137970445D01*
X99123088Y-138018064D01*
X98837373Y-138018064D01*
X98742135Y-137970445D01*
X98694516Y-137922826D01*
X99062968Y-136221084D02*
X99062968Y-131217284D01*
X105956528Y-136221084D02*
X99062968Y-136221084D01*
X105956528Y-131217284D02*
X105956528Y-136221084D01*
X99061800Y-131222364D02*
X105971768Y-131222364D01*
D13*
G04 #@! TO.C,U16*
X169750000Y-127000000D02*
G75*
G03X169750000Y-127000000I-11000000J0D01*
G01*
G04 #@! TO.C,JP1*
X146573088Y-132505684D02*
X146573088Y-128305684D01*
X146573088Y-128305684D02*
X138273088Y-128305684D01*
X138273088Y-128305684D02*
X138273088Y-132505684D01*
X138273088Y-132505684D02*
X146573088Y-132505684D01*
X145023088Y-130405684D02*
X145023088Y-131155684D01*
X145023088Y-131155684D02*
X144423088Y-131755684D01*
X144423088Y-131755684D02*
X142423088Y-131755684D01*
X139823088Y-130405684D02*
X139823088Y-131155684D01*
X139823088Y-131155684D02*
X140423088Y-131755684D01*
X140423088Y-131755684D02*
X142423088Y-131755684D01*
X143423088Y-127905684D02*
X143723088Y-127305684D01*
X143723088Y-127305684D02*
X143123088Y-127305684D01*
X143123088Y-127305684D02*
X143423088Y-127905684D01*
D14*
G04 #@! TO.C,Q4*
X152853088Y-143120684D02*
X151923088Y-143120684D01*
X149693088Y-143120684D02*
X150623088Y-143120684D01*
X149693088Y-143120684D02*
X149693088Y-145280684D01*
X152853088Y-143120684D02*
X152853088Y-144580684D01*
G04 #@! TO.C,R38*
X159948088Y-146625684D02*
X161148088Y-146625684D01*
X161148088Y-148385684D02*
X159948088Y-148385684D01*
G04 #@! TO.C,R34*
X155473088Y-151250684D02*
X154973088Y-151250684D01*
X154973088Y-152310684D02*
X155473088Y-152310684D01*
G04 #@! TO.C,C22*
X83130008Y-121203524D02*
X82630008Y-121203524D01*
X82630008Y-122143524D02*
X83130008Y-122143524D01*
D13*
G04 #@! TO.C,D4*
X83399107Y-127568764D02*
X82394109Y-127568764D01*
X83399107Y-127168764D02*
X83399107Y-127568764D01*
X83399107Y-125968764D02*
X82394109Y-125968764D01*
X83399107Y-126368764D02*
X83399107Y-125968764D01*
D14*
G04 #@! TO.C,Q5*
X163893088Y-139490684D02*
X164823088Y-139490684D01*
X167053088Y-139490684D02*
X166123088Y-139490684D01*
X167053088Y-139490684D02*
X167053088Y-137330684D01*
X163893088Y-139490684D02*
X163893088Y-138030684D01*
G04 #@! TO.C,Q6*
X159578088Y-148795684D02*
X158648088Y-148795684D01*
X156418088Y-148795684D02*
X157348088Y-148795684D01*
X156418088Y-148795684D02*
X156418088Y-150955684D01*
X159578088Y-148795684D02*
X159578088Y-150255684D01*
G04 #@! TO.C,Q8*
X107694408Y-128174444D02*
X107694408Y-127244444D01*
X107694408Y-125014444D02*
X107694408Y-125944444D01*
X107694408Y-125014444D02*
X105534408Y-125014444D01*
X107694408Y-128174444D02*
X106234408Y-128174444D01*
G04 #@! TO.C,R1*
X102180860Y-125848332D02*
X102180860Y-126348332D01*
X103240860Y-126348332D02*
X103240860Y-125848332D01*
G04 #@! TO.C,R2*
X117650508Y-119726384D02*
X117150508Y-119726384D01*
X117150508Y-120786384D02*
X117650508Y-120786384D01*
G04 #@! TO.C,R3*
X117150508Y-118500384D02*
X117650508Y-118500384D01*
X117650508Y-117440384D02*
X117150508Y-117440384D01*
G04 #@! TO.C,R6*
X101602340Y-123453332D02*
X102102340Y-123453332D01*
X102102340Y-122393332D02*
X101602340Y-122393332D01*
G04 #@! TO.C,R12*
X84904288Y-125608844D02*
X84404288Y-125608844D01*
X84404288Y-126668844D02*
X84904288Y-126668844D01*
G04 #@! TO.C,R13*
X84863648Y-126965204D02*
X84363648Y-126965204D01*
X84363648Y-128025204D02*
X84863648Y-128025204D01*
G04 #@! TO.C,R14*
X85661208Y-122530364D02*
X85161208Y-122530364D01*
X85161208Y-123590364D02*
X85661208Y-123590364D01*
G04 #@! TO.C,R15*
X85161208Y-122294964D02*
X85661208Y-122294964D01*
X85661208Y-121234964D02*
X85161208Y-121234964D01*
G04 #@! TO.C,R30*
X151643088Y-146330684D02*
X151643088Y-146830684D01*
X152703088Y-146830684D02*
X152703088Y-146330684D01*
G04 #@! TO.C,R31*
X150903088Y-146830684D02*
X150903088Y-146330684D01*
X149843088Y-146330684D02*
X149843088Y-146830684D01*
G04 #@! TO.C,R32*
X166968088Y-135580684D02*
X166968088Y-136080684D01*
X168028088Y-136080684D02*
X168028088Y-135580684D01*
G04 #@! TO.C,R33*
X166968088Y-137255684D02*
X166968088Y-137755684D01*
X168028088Y-137755684D02*
X168028088Y-137255684D01*
G04 #@! TO.C,R35*
X154973088Y-151060684D02*
X155473088Y-151060684D01*
X155473088Y-150000684D02*
X154973088Y-150000684D01*
G04 #@! TO.C,R42*
X106363568Y-123615884D02*
X105863568Y-123615884D01*
X105863568Y-124675884D02*
X106363568Y-124675884D01*
G04 #@! TO.C,R43*
X104047288Y-124466964D02*
X104047288Y-124966964D01*
X105107288Y-124966964D02*
X105107288Y-124466964D01*
G04 #@! TO.C,U2*
X100785288Y-134556764D02*
X100785288Y-133256764D01*
X102585288Y-133006764D02*
X102585288Y-134556764D01*
G04 #@! TO.C,U5*
X98657380Y-124441412D02*
X98657380Y-126241412D01*
X101877380Y-126241412D02*
X101877380Y-123791412D01*
G04 #@! TO.C,C3*
X117150508Y-119583384D02*
X117650508Y-119583384D01*
X117650508Y-118643384D02*
X117150508Y-118643384D01*
G04 #@! TO.C,D1*
X91018088Y-125597284D02*
X91018088Y-123597284D01*
X91018088Y-123597284D02*
X87118088Y-123597284D01*
X91018088Y-125597284D02*
X87118088Y-125597284D01*
G04 #@! TO.C,R36*
X151598088Y-140450684D02*
X152798088Y-140450684D01*
X152798088Y-142210684D02*
X151598088Y-142210684D01*
G04 #@! TO.C,R37*
X165848088Y-142260684D02*
X164648088Y-142260684D01*
X164648088Y-140500684D02*
X165848088Y-140500684D01*
G04 #@! TO.C,R46*
X91523088Y-144205684D02*
X91523088Y-143705684D01*
X90463088Y-143705684D02*
X90463088Y-144205684D01*
G04 #@! TO.C,C24*
X92543088Y-142205684D02*
X92543088Y-141705684D01*
X91603088Y-141705684D02*
X91603088Y-142205684D01*
D13*
G04 #@! TO.C,L3*
X83011848Y-124813804D02*
X82811848Y-124813804D01*
X83011848Y-123013804D02*
X82811848Y-123013804D01*
D14*
G04 #@! TO.C,C44*
X91023088Y-126755684D02*
X91023088Y-127455684D01*
X89823088Y-127455684D02*
X89823088Y-126755684D01*
G04 #@! TO.C,R17*
X92603088Y-144205684D02*
X92603088Y-143705684D01*
X91543088Y-143705684D02*
X91543088Y-144205684D01*
D13*
G04 #@! TO.C,P2*
X79956248Y-124272764D02*
X79956248Y-129772764D01*
X76206248Y-122797764D02*
X76206248Y-131247764D01*
D14*
G04 #@! TO.C,P4*
X111423088Y-132555684D02*
X111423088Y-128205684D01*
X111423088Y-128205684D02*
X112423088Y-128205684D01*
X112423088Y-128205684D02*
X112423088Y-132555684D01*
X110123088Y-126355684D02*
X109773088Y-126355684D01*
X109773088Y-126355684D02*
X109773088Y-124755684D01*
X109773088Y-124755684D02*
X108873088Y-124755684D01*
X108873088Y-124755684D02*
X108873088Y-132555684D01*
X108873088Y-132555684D02*
X114973088Y-132555684D01*
X114973088Y-132555684D02*
X114973088Y-124755684D01*
X114973088Y-124755684D02*
X114073088Y-124755684D01*
X114073088Y-124755684D02*
X114073088Y-126355684D01*
X114073088Y-126355684D02*
X113723088Y-126355684D01*
X108873088Y-126355684D02*
X109773088Y-126355684D01*
X114973088Y-126355684D02*
X114073088Y-126355684D01*
X109623088Y-128705684D02*
X109623088Y-130305684D01*
X109623088Y-130305684D02*
X110623088Y-130305684D01*
X110623088Y-130305684D02*
X110623088Y-128705684D01*
X110623088Y-128705684D02*
X109623088Y-128705684D01*
X114223088Y-128705684D02*
X114223088Y-130305684D01*
X114223088Y-130305684D02*
X113223088Y-130305684D01*
X113223088Y-130305684D02*
X113223088Y-128705684D01*
X113223088Y-128705684D02*
X114223088Y-128705684D01*
X110623088Y-130305684D02*
X110623088Y-132555684D01*
X110123088Y-130305684D02*
X110123088Y-132555684D01*
X110123088Y-126355684D02*
X110123088Y-125155684D01*
G04 #@! TO.C,R44*
X112868088Y-124417284D02*
X110868088Y-124417284D01*
X110868088Y-122277284D02*
X112868088Y-122277284D01*
D13*
G04 #@! TO.C,S1*
X96060000Y-141502000D02*
X96060000Y-144502000D01*
X97060000Y-146002000D02*
X101060000Y-146002000D01*
X102060000Y-141502000D02*
X102060000Y-144502000D01*
X97310000Y-140002000D02*
X100810000Y-140002000D01*
X99560000Y-143002000D02*
X100310000Y-143002000D01*
X99560000Y-142252000D02*
X99560000Y-143752000D01*
X99060000Y-142252000D02*
X99060000Y-142002000D01*
X99060000Y-143752000D02*
X99060000Y-144002000D01*
X99310000Y-142502000D02*
G75*
G03X99310000Y-142502000I-250000J0D01*
G01*
X99310000Y-143502000D02*
G75*
G03X99310000Y-143502000I-250000J0D01*
G01*
X101560000Y-144002000D02*
X101560000Y-144502000D01*
X96560000Y-144002000D02*
X101560000Y-144002000D01*
X96560000Y-144502000D02*
X96560000Y-144002000D01*
X101560000Y-142002000D02*
X101560000Y-141502000D01*
X96560000Y-142002000D02*
X101560000Y-142002000D01*
X96560000Y-141502000D02*
X96560000Y-142002000D01*
G04 #@! TO.C,P1*
X154123088Y-93805684D02*
X154123088Y-94055684D01*
X154123088Y-93055684D02*
X154123088Y-93555684D01*
X154123088Y-92555684D02*
X154123088Y-92805684D01*
X154123088Y-91305684D02*
X154123088Y-91555684D01*
X154123088Y-90555684D02*
X154123088Y-91055684D01*
X154123088Y-90055684D02*
X154123088Y-90305684D01*
X154123088Y-88805684D02*
X154123088Y-89055684D01*
X154123088Y-88055684D02*
X154123088Y-88555684D01*
X154123088Y-87555684D02*
X154123088Y-87805684D01*
X154123088Y-86305684D02*
X154123088Y-86555684D01*
X154123088Y-85555684D02*
X154123088Y-86055684D01*
X154123088Y-85055684D02*
X154123088Y-85305684D01*
X152623088Y-94055684D02*
X154623088Y-94055684D01*
X152623088Y-92555684D02*
X154623088Y-92555684D01*
X152623088Y-91555684D02*
X154623088Y-91555684D01*
X152623088Y-90055684D02*
X154623088Y-90055684D01*
X152623088Y-89055684D02*
X154623088Y-89055684D01*
X152623088Y-87555684D02*
X154623088Y-87555684D01*
X154623088Y-86555684D02*
X152623088Y-86555684D01*
X154623088Y-85055684D02*
X152623088Y-85055684D01*
X152623088Y-92555684D02*
X152623088Y-94055684D01*
X152623088Y-90055684D02*
X152623088Y-91555684D01*
X152623088Y-87555684D02*
X152623088Y-89055684D01*
X152623088Y-85055684D02*
X152623088Y-86555684D01*
X158873088Y-94555684D02*
X158623088Y-94555684D01*
X158873088Y-94305684D02*
X158873088Y-94555684D01*
X158873088Y-91805684D02*
X158873088Y-92305684D01*
X158873088Y-89305684D02*
X158873088Y-89805684D01*
X158873088Y-86805684D02*
X158873088Y-87305684D01*
X158873088Y-84555684D02*
X158873088Y-84805684D01*
X158623088Y-84555684D02*
X158873088Y-84555684D01*
X154623088Y-83305684D02*
X155123088Y-83305684D01*
X154623088Y-83805684D02*
X154623088Y-83305684D01*
X158623088Y-83305684D02*
X158123088Y-83305684D01*
X158623088Y-83805684D02*
X158623088Y-83305684D01*
X154623088Y-95805684D02*
X155123088Y-95805684D01*
X154623088Y-95305684D02*
X154623088Y-95805684D01*
X158623088Y-95805684D02*
X158123088Y-95805684D01*
X158623088Y-95305684D02*
X158623088Y-95805684D01*
X154623088Y-83805684D02*
X158623088Y-83805684D01*
X154623088Y-95305684D02*
X154623088Y-83805684D01*
X158623088Y-95305684D02*
X154623088Y-95305684D01*
X158623088Y-83805684D02*
X158623088Y-95305684D01*
D14*
G04 #@! TO.C,C4*
X99301168Y-134097284D02*
X99301168Y-133397284D01*
X100501168Y-133397284D02*
X100501168Y-134097284D01*
G04 #@! TO.C,C6*
X102118088Y-136147284D02*
X101418088Y-136147284D01*
X101418088Y-134947284D02*
X102118088Y-134947284D01*
G04 #@! TO.C,C7*
X97193088Y-127547284D02*
X97193088Y-126847284D01*
X98393088Y-126847284D02*
X98393088Y-127547284D01*
G04 #@! TO.C,C8*
X99372460Y-122323332D02*
X100072460Y-122323332D01*
X100072460Y-123523332D02*
X99372460Y-123523332D01*
D13*
G04 #@! TO.C,L1*
X82723088Y-130005684D02*
X82923088Y-130005684D01*
X82723088Y-131805684D02*
X82923088Y-131805684D01*
D14*
G04 #@! TO.C,Q7*
X162343088Y-114685684D02*
X160883088Y-114685684D01*
X162343088Y-111525684D02*
X160183088Y-111525684D01*
X162343088Y-111525684D02*
X162343088Y-112455684D01*
X162343088Y-114685684D02*
X162343088Y-113755684D01*
G04 #@! TO.C,R18*
X163913088Y-115545684D02*
X163913088Y-113545684D01*
X166053088Y-113545684D02*
X166053088Y-115545684D01*
G04 #@! TO.C,U16*
D13*
X157944992Y-116408064D02*
X157944992Y-117217588D01*
X157992611Y-117312826D01*
X158040230Y-117360445D01*
X158135468Y-117408064D01*
X158325945Y-117408064D01*
X158421183Y-117360445D01*
X158468802Y-117312826D01*
X158516421Y-117217588D01*
X158516421Y-116408064D01*
X159516421Y-117408064D02*
X158944992Y-117408064D01*
X159230707Y-117408064D02*
X159230707Y-116408064D01*
X159135468Y-116550922D01*
X159040230Y-116646160D01*
X158944992Y-116693779D01*
X160373564Y-116408064D02*
X160183088Y-116408064D01*
X160087849Y-116455684D01*
X160040230Y-116503303D01*
X159944992Y-116646160D01*
X159897373Y-116836636D01*
X159897373Y-117217588D01*
X159944992Y-117312826D01*
X159992611Y-117360445D01*
X160087849Y-117408064D01*
X160278326Y-117408064D01*
X160373564Y-117360445D01*
X160421183Y-117312826D01*
X160468802Y-117217588D01*
X160468802Y-116979493D01*
X160421183Y-116884255D01*
X160373564Y-116836636D01*
X160278326Y-116789017D01*
X160087849Y-116789017D01*
X159992611Y-116836636D01*
X159944992Y-116884255D01*
X159897373Y-116979493D01*
G04 #@! TO.C,JP1*
X140839754Y-127098064D02*
X140839754Y-127812350D01*
X140792135Y-127955207D01*
X140696897Y-128050445D01*
X140554040Y-128098064D01*
X140458802Y-128098064D01*
X141315945Y-128098064D02*
X141315945Y-127098064D01*
X141696897Y-127098064D01*
X141792135Y-127145684D01*
X141839754Y-127193303D01*
X141887373Y-127288541D01*
X141887373Y-127431398D01*
X141839754Y-127526636D01*
X141792135Y-127574255D01*
X141696897Y-127621874D01*
X141315945Y-127621874D01*
X142839754Y-128098064D02*
X142268326Y-128098064D01*
X142554040Y-128098064D02*
X142554040Y-127098064D01*
X142458802Y-127240922D01*
X142363564Y-127336160D01*
X142268326Y-127383779D01*
G04 #@! TO.C,DS2*
X164108802Y-144558064D02*
X164108802Y-143558064D01*
X164346897Y-143558064D01*
X164489754Y-143605684D01*
X164584992Y-143700922D01*
X164632611Y-143796160D01*
X164680230Y-143986636D01*
X164680230Y-144129493D01*
X164632611Y-144319969D01*
X164584992Y-144415207D01*
X164489754Y-144510445D01*
X164346897Y-144558064D01*
X164108802Y-144558064D01*
X165061183Y-144510445D02*
X165204040Y-144558064D01*
X165442135Y-144558064D01*
X165537373Y-144510445D01*
X165584992Y-144462826D01*
X165632611Y-144367588D01*
X165632611Y-144272350D01*
X165584992Y-144177112D01*
X165537373Y-144129493D01*
X165442135Y-144081874D01*
X165251659Y-144034255D01*
X165156421Y-143986636D01*
X165108802Y-143939017D01*
X165061183Y-143843779D01*
X165061183Y-143748541D01*
X165108802Y-143653303D01*
X165156421Y-143605684D01*
X165251659Y-143558064D01*
X165489754Y-143558064D01*
X165632611Y-143605684D01*
X166013564Y-143653303D02*
X166061183Y-143605684D01*
X166156421Y-143558064D01*
X166394516Y-143558064D01*
X166489754Y-143605684D01*
X166537373Y-143653303D01*
X166584992Y-143748541D01*
X166584992Y-143843779D01*
X166537373Y-143986636D01*
X165965945Y-144558064D01*
X166584992Y-144558064D01*
G04 #@! TO.C,Q4*
X148497849Y-144253303D02*
X148402611Y-144205684D01*
X148307373Y-144110445D01*
X148164516Y-143967588D01*
X148069278Y-143919969D01*
X147974040Y-143919969D01*
X148021659Y-144158064D02*
X147926421Y-144110445D01*
X147831183Y-144015207D01*
X147783564Y-143824731D01*
X147783564Y-143491398D01*
X147831183Y-143300922D01*
X147926421Y-143205684D01*
X148021659Y-143158064D01*
X148212135Y-143158064D01*
X148307373Y-143205684D01*
X148402611Y-143300922D01*
X148450230Y-143491398D01*
X148450230Y-143824731D01*
X148402611Y-144015207D01*
X148307373Y-144110445D01*
X148212135Y-144158064D01*
X148021659Y-144158064D01*
X149307373Y-143491398D02*
X149307373Y-144158064D01*
X149069278Y-143110445D02*
X148831183Y-143824731D01*
X149450230Y-143824731D01*
G04 #@! TO.C,R38*
X162805230Y-148008064D02*
X162471897Y-147531874D01*
X162233802Y-148008064D02*
X162233802Y-147008064D01*
X162614754Y-147008064D01*
X162709992Y-147055684D01*
X162757611Y-147103303D01*
X162805230Y-147198541D01*
X162805230Y-147341398D01*
X162757611Y-147436636D01*
X162709992Y-147484255D01*
X162614754Y-147531874D01*
X162233802Y-147531874D01*
X163138564Y-147008064D02*
X163757611Y-147008064D01*
X163424278Y-147389017D01*
X163567135Y-147389017D01*
X163662373Y-147436636D01*
X163709992Y-147484255D01*
X163757611Y-147579493D01*
X163757611Y-147817588D01*
X163709992Y-147912826D01*
X163662373Y-147960445D01*
X163567135Y-148008064D01*
X163281421Y-148008064D01*
X163186183Y-147960445D01*
X163138564Y-147912826D01*
X164329040Y-147436636D02*
X164233802Y-147389017D01*
X164186183Y-147341398D01*
X164138564Y-147246160D01*
X164138564Y-147198541D01*
X164186183Y-147103303D01*
X164233802Y-147055684D01*
X164329040Y-147008064D01*
X164519516Y-147008064D01*
X164614754Y-147055684D01*
X164662373Y-147103303D01*
X164709992Y-147198541D01*
X164709992Y-147246160D01*
X164662373Y-147341398D01*
X164614754Y-147389017D01*
X164519516Y-147436636D01*
X164329040Y-147436636D01*
X164233802Y-147484255D01*
X164186183Y-147531874D01*
X164138564Y-147627112D01*
X164138564Y-147817588D01*
X164186183Y-147912826D01*
X164233802Y-147960445D01*
X164329040Y-148008064D01*
X164519516Y-148008064D01*
X164614754Y-147960445D01*
X164662373Y-147912826D01*
X164709992Y-147817588D01*
X164709992Y-147627112D01*
X164662373Y-147531874D01*
X164614754Y-147484255D01*
X164519516Y-147436636D01*
G04 #@! TO.C,R34*
X154553088Y-153392350D02*
X154319754Y-153059017D01*
X154153088Y-153392350D02*
X154153088Y-152692350D01*
X154419754Y-152692350D01*
X154486421Y-152725684D01*
X154519754Y-152759017D01*
X154553088Y-152825684D01*
X154553088Y-152925684D01*
X154519754Y-152992350D01*
X154486421Y-153025684D01*
X154419754Y-153059017D01*
X154153088Y-153059017D01*
X154786421Y-152692350D02*
X155219754Y-152692350D01*
X154986421Y-152959017D01*
X155086421Y-152959017D01*
X155153088Y-152992350D01*
X155186421Y-153025684D01*
X155219754Y-153092350D01*
X155219754Y-153259017D01*
X155186421Y-153325684D01*
X155153088Y-153359017D01*
X155086421Y-153392350D01*
X154886421Y-153392350D01*
X154819754Y-153359017D01*
X154786421Y-153325684D01*
X155819754Y-152925684D02*
X155819754Y-153392350D01*
X155653088Y-152659017D02*
X155486421Y-153159017D01*
X155919754Y-153159017D01*
G04 #@! TO.C,C22*
X79553550Y-121817306D02*
X79505931Y-121864925D01*
X79363074Y-121912544D01*
X79267836Y-121912544D01*
X79124979Y-121864925D01*
X79029741Y-121769687D01*
X78982122Y-121674449D01*
X78934503Y-121483973D01*
X78934503Y-121341116D01*
X78982122Y-121150640D01*
X79029741Y-121055402D01*
X79124979Y-120960164D01*
X79267836Y-120912544D01*
X79363074Y-120912544D01*
X79505931Y-120960164D01*
X79553550Y-121007783D01*
X79934503Y-121007783D02*
X79982122Y-120960164D01*
X80077360Y-120912544D01*
X80315455Y-120912544D01*
X80410693Y-120960164D01*
X80458312Y-121007783D01*
X80505931Y-121103021D01*
X80505931Y-121198259D01*
X80458312Y-121341116D01*
X79886884Y-121912544D01*
X80505931Y-121912544D01*
X80886884Y-121007783D02*
X80934503Y-120960164D01*
X81029741Y-120912544D01*
X81267836Y-120912544D01*
X81363074Y-120960164D01*
X81410693Y-121007783D01*
X81458312Y-121103021D01*
X81458312Y-121198259D01*
X81410693Y-121341116D01*
X80839265Y-121912544D01*
X81458312Y-121912544D01*
G04 #@! TO.C,D4*
D15*
X82454040Y-128631874D02*
X82454040Y-128131874D01*
X82573088Y-128131874D01*
X82644516Y-128155684D01*
X82692135Y-128203303D01*
X82715945Y-128250922D01*
X82739754Y-128346160D01*
X82739754Y-128417588D01*
X82715945Y-128512826D01*
X82692135Y-128560445D01*
X82644516Y-128608064D01*
X82573088Y-128631874D01*
X82454040Y-128631874D01*
X83168326Y-128298541D02*
X83168326Y-128631874D01*
X83049278Y-128108064D02*
X82930230Y-128465207D01*
X83239754Y-128465207D01*
G04 #@! TO.C,Q5*
D13*
X168177849Y-139673303D02*
X168082611Y-139625684D01*
X167987373Y-139530445D01*
X167844516Y-139387588D01*
X167749278Y-139339969D01*
X167654040Y-139339969D01*
X167701659Y-139578064D02*
X167606421Y-139530445D01*
X167511183Y-139435207D01*
X167463564Y-139244731D01*
X167463564Y-138911398D01*
X167511183Y-138720922D01*
X167606421Y-138625684D01*
X167701659Y-138578064D01*
X167892135Y-138578064D01*
X167987373Y-138625684D01*
X168082611Y-138720922D01*
X168130230Y-138911398D01*
X168130230Y-139244731D01*
X168082611Y-139435207D01*
X167987373Y-139530445D01*
X167892135Y-139578064D01*
X167701659Y-139578064D01*
X169034992Y-138578064D02*
X168558802Y-138578064D01*
X168511183Y-139054255D01*
X168558802Y-139006636D01*
X168654040Y-138959017D01*
X168892135Y-138959017D01*
X168987373Y-139006636D01*
X169034992Y-139054255D01*
X169082611Y-139149493D01*
X169082611Y-139387588D01*
X169034992Y-139482826D01*
X168987373Y-139530445D01*
X168892135Y-139578064D01*
X168654040Y-139578064D01*
X168558802Y-139530445D01*
X168511183Y-139482826D01*
G04 #@! TO.C,Q6*
X157977849Y-152478303D02*
X157882611Y-152430684D01*
X157787373Y-152335445D01*
X157644516Y-152192588D01*
X157549278Y-152144969D01*
X157454040Y-152144969D01*
X157501659Y-152383064D02*
X157406421Y-152335445D01*
X157311183Y-152240207D01*
X157263564Y-152049731D01*
X157263564Y-151716398D01*
X157311183Y-151525922D01*
X157406421Y-151430684D01*
X157501659Y-151383064D01*
X157692135Y-151383064D01*
X157787373Y-151430684D01*
X157882611Y-151525922D01*
X157930230Y-151716398D01*
X157930230Y-152049731D01*
X157882611Y-152240207D01*
X157787373Y-152335445D01*
X157692135Y-152383064D01*
X157501659Y-152383064D01*
X158787373Y-151383064D02*
X158596897Y-151383064D01*
X158501659Y-151430684D01*
X158454040Y-151478303D01*
X158358802Y-151621160D01*
X158311183Y-151811636D01*
X158311183Y-152192588D01*
X158358802Y-152287826D01*
X158406421Y-152335445D01*
X158501659Y-152383064D01*
X158692135Y-152383064D01*
X158787373Y-152335445D01*
X158834992Y-152287826D01*
X158882611Y-152192588D01*
X158882611Y-151954493D01*
X158834992Y-151859255D01*
X158787373Y-151811636D01*
X158692135Y-151764017D01*
X158501659Y-151764017D01*
X158406421Y-151811636D01*
X158358802Y-151859255D01*
X158311183Y-151954493D01*
G04 #@! TO.C,Q8*
X106895049Y-129636343D02*
X106799811Y-129588724D01*
X106704573Y-129493485D01*
X106561716Y-129350628D01*
X106466478Y-129303009D01*
X106371240Y-129303009D01*
X106418859Y-129541104D02*
X106323621Y-129493485D01*
X106228383Y-129398247D01*
X106180764Y-129207771D01*
X106180764Y-128874438D01*
X106228383Y-128683962D01*
X106323621Y-128588724D01*
X106418859Y-128541104D01*
X106609335Y-128541104D01*
X106704573Y-128588724D01*
X106799811Y-128683962D01*
X106847430Y-128874438D01*
X106847430Y-129207771D01*
X106799811Y-129398247D01*
X106704573Y-129493485D01*
X106609335Y-129541104D01*
X106418859Y-129541104D01*
X107418859Y-128969676D02*
X107323621Y-128922057D01*
X107276002Y-128874438D01*
X107228383Y-128779200D01*
X107228383Y-128731581D01*
X107276002Y-128636343D01*
X107323621Y-128588724D01*
X107418859Y-128541104D01*
X107609335Y-128541104D01*
X107704573Y-128588724D01*
X107752192Y-128636343D01*
X107799811Y-128731581D01*
X107799811Y-128779200D01*
X107752192Y-128874438D01*
X107704573Y-128922057D01*
X107609335Y-128969676D01*
X107418859Y-128969676D01*
X107323621Y-129017295D01*
X107276002Y-129064914D01*
X107228383Y-129160152D01*
X107228383Y-129350628D01*
X107276002Y-129445866D01*
X107323621Y-129493485D01*
X107418859Y-129541104D01*
X107609335Y-129541104D01*
X107704573Y-129493485D01*
X107752192Y-129445866D01*
X107799811Y-129350628D01*
X107799811Y-129160152D01*
X107752192Y-129064914D01*
X107704573Y-129017295D01*
X107609335Y-128969676D01*
G04 #@! TO.C,R1*
D16*
X102623088Y-127777112D02*
X102423088Y-127491398D01*
X102280230Y-127777112D02*
X102280230Y-127177112D01*
X102508802Y-127177112D01*
X102565945Y-127205684D01*
X102594516Y-127234255D01*
X102623088Y-127291398D01*
X102623088Y-127377112D01*
X102594516Y-127434255D01*
X102565945Y-127462826D01*
X102508802Y-127491398D01*
X102280230Y-127491398D01*
X103194516Y-127777112D02*
X102851659Y-127777112D01*
X103023088Y-127777112D02*
X103023088Y-127177112D01*
X102965945Y-127262826D01*
X102908802Y-127319969D01*
X102851659Y-127348541D01*
G04 #@! TO.C,R2*
X118923088Y-120577112D02*
X118723088Y-120291398D01*
X118580230Y-120577112D02*
X118580230Y-119977112D01*
X118808802Y-119977112D01*
X118865945Y-120005684D01*
X118894516Y-120034255D01*
X118923088Y-120091398D01*
X118923088Y-120177112D01*
X118894516Y-120234255D01*
X118865945Y-120262826D01*
X118808802Y-120291398D01*
X118580230Y-120291398D01*
X119151659Y-120034255D02*
X119180230Y-120005684D01*
X119237373Y-119977112D01*
X119380230Y-119977112D01*
X119437373Y-120005684D01*
X119465945Y-120034255D01*
X119494516Y-120091398D01*
X119494516Y-120148541D01*
X119465945Y-120234255D01*
X119123088Y-120577112D01*
X119494516Y-120577112D01*
G04 #@! TO.C,R3*
X115223088Y-118279912D02*
X115023088Y-117994198D01*
X114880230Y-118279912D02*
X114880230Y-117679912D01*
X115108802Y-117679912D01*
X115165945Y-117708484D01*
X115194516Y-117737055D01*
X115223088Y-117794198D01*
X115223088Y-117879912D01*
X115194516Y-117937055D01*
X115165945Y-117965626D01*
X115108802Y-117994198D01*
X114880230Y-117994198D01*
X115423088Y-117679912D02*
X115794516Y-117679912D01*
X115594516Y-117908484D01*
X115680230Y-117908484D01*
X115737373Y-117937055D01*
X115765945Y-117965626D01*
X115794516Y-118022769D01*
X115794516Y-118165626D01*
X115765945Y-118222769D01*
X115737373Y-118251341D01*
X115680230Y-118279912D01*
X115508802Y-118279912D01*
X115451659Y-118251341D01*
X115423088Y-118222769D01*
G04 #@! TO.C,R6*
D13*
X101746633Y-122288592D02*
X101413300Y-121812402D01*
X101175204Y-122288592D02*
X101175204Y-121288592D01*
X101556157Y-121288592D01*
X101651395Y-121336212D01*
X101699014Y-121383831D01*
X101746633Y-121479069D01*
X101746633Y-121621926D01*
X101699014Y-121717164D01*
X101651395Y-121764783D01*
X101556157Y-121812402D01*
X101175204Y-121812402D01*
X102603776Y-121288592D02*
X102413300Y-121288592D01*
X102318061Y-121336212D01*
X102270442Y-121383831D01*
X102175204Y-121526688D01*
X102127585Y-121717164D01*
X102127585Y-122098116D01*
X102175204Y-122193354D01*
X102222823Y-122240973D01*
X102318061Y-122288592D01*
X102508538Y-122288592D01*
X102603776Y-122240973D01*
X102651395Y-122193354D01*
X102699014Y-122098116D01*
X102699014Y-121860021D01*
X102651395Y-121764783D01*
X102603776Y-121717164D01*
X102508538Y-121669545D01*
X102318061Y-121669545D01*
X102222823Y-121717164D01*
X102175204Y-121764783D01*
X102127585Y-121860021D01*
G04 #@! TO.C,R12*
D16*
X86035945Y-126686569D02*
X85785945Y-126329426D01*
X85607373Y-126686569D02*
X85607373Y-125936569D01*
X85893088Y-125936569D01*
X85964516Y-125972284D01*
X86000230Y-126007998D01*
X86035945Y-126079426D01*
X86035945Y-126186569D01*
X86000230Y-126257998D01*
X85964516Y-126293712D01*
X85893088Y-126329426D01*
X85607373Y-126329426D01*
X86750230Y-126686569D02*
X86321659Y-126686569D01*
X86535945Y-126686569D02*
X86535945Y-125936569D01*
X86464516Y-126043712D01*
X86393088Y-126115141D01*
X86321659Y-126150855D01*
X87035945Y-126007998D02*
X87071659Y-125972284D01*
X87143088Y-125936569D01*
X87321659Y-125936569D01*
X87393088Y-125972284D01*
X87428802Y-126007998D01*
X87464516Y-126079426D01*
X87464516Y-126150855D01*
X87428802Y-126257998D01*
X87000230Y-126686569D01*
X87464516Y-126686569D01*
G04 #@! TO.C,R13*
D13*
X84273088Y-129122350D02*
X84039754Y-128789017D01*
X83873088Y-129122350D02*
X83873088Y-128422350D01*
X84139754Y-128422350D01*
X84206421Y-128455684D01*
X84239754Y-128489017D01*
X84273088Y-128555684D01*
X84273088Y-128655684D01*
X84239754Y-128722350D01*
X84206421Y-128755684D01*
X84139754Y-128789017D01*
X83873088Y-128789017D01*
X84939754Y-129122350D02*
X84539754Y-129122350D01*
X84739754Y-129122350D02*
X84739754Y-128422350D01*
X84673088Y-128522350D01*
X84606421Y-128589017D01*
X84539754Y-128622350D01*
X85173088Y-128422350D02*
X85606421Y-128422350D01*
X85373088Y-128689017D01*
X85473088Y-128689017D01*
X85539754Y-128722350D01*
X85573088Y-128755684D01*
X85606421Y-128822350D01*
X85606421Y-128989017D01*
X85573088Y-129055684D01*
X85539754Y-129089017D01*
X85473088Y-129122350D01*
X85273088Y-129122350D01*
X85206421Y-129089017D01*
X85173088Y-129055684D01*
G04 #@! TO.C,R14*
D16*
X86711659Y-123261874D02*
X86544992Y-123023779D01*
X86425945Y-123261874D02*
X86425945Y-122761874D01*
X86616421Y-122761874D01*
X86664040Y-122785684D01*
X86687849Y-122809493D01*
X86711659Y-122857112D01*
X86711659Y-122928541D01*
X86687849Y-122976160D01*
X86664040Y-122999969D01*
X86616421Y-123023779D01*
X86425945Y-123023779D01*
X87187849Y-123261874D02*
X86902135Y-123261874D01*
X87044992Y-123261874D02*
X87044992Y-122761874D01*
X86997373Y-122833303D01*
X86949754Y-122880922D01*
X86902135Y-122904731D01*
X87616421Y-122928541D02*
X87616421Y-123261874D01*
X87497373Y-122738064D02*
X87378326Y-123095207D01*
X87687849Y-123095207D01*
G04 #@! TO.C,R15*
D13*
X84814070Y-120967664D02*
X84480737Y-120491474D01*
X84242642Y-120967664D02*
X84242642Y-119967664D01*
X84623594Y-119967664D01*
X84718832Y-120015284D01*
X84766451Y-120062903D01*
X84814070Y-120158141D01*
X84814070Y-120300998D01*
X84766451Y-120396236D01*
X84718832Y-120443855D01*
X84623594Y-120491474D01*
X84242642Y-120491474D01*
X85766451Y-120967664D02*
X85195023Y-120967664D01*
X85480737Y-120967664D02*
X85480737Y-119967664D01*
X85385499Y-120110522D01*
X85290261Y-120205760D01*
X85195023Y-120253379D01*
X86671213Y-119967664D02*
X86195023Y-119967664D01*
X86147404Y-120443855D01*
X86195023Y-120396236D01*
X86290261Y-120348617D01*
X86528356Y-120348617D01*
X86623594Y-120396236D01*
X86671213Y-120443855D01*
X86718832Y-120539093D01*
X86718832Y-120777188D01*
X86671213Y-120872426D01*
X86623594Y-120920045D01*
X86528356Y-120967664D01*
X86290261Y-120967664D01*
X86195023Y-120920045D01*
X86147404Y-120872426D01*
G04 #@! TO.C,R30*
D16*
X151830945Y-148314969D02*
X151580945Y-147957826D01*
X151402373Y-148314969D02*
X151402373Y-147564969D01*
X151688088Y-147564969D01*
X151759516Y-147600684D01*
X151795230Y-147636398D01*
X151830945Y-147707826D01*
X151830945Y-147814969D01*
X151795230Y-147886398D01*
X151759516Y-147922112D01*
X151688088Y-147957826D01*
X151402373Y-147957826D01*
X152080945Y-147564969D02*
X152545230Y-147564969D01*
X152295230Y-147850684D01*
X152402373Y-147850684D01*
X152473802Y-147886398D01*
X152509516Y-147922112D01*
X152545230Y-147993541D01*
X152545230Y-148172112D01*
X152509516Y-148243541D01*
X152473802Y-148279255D01*
X152402373Y-148314969D01*
X152188088Y-148314969D01*
X152116659Y-148279255D01*
X152080945Y-148243541D01*
X153009516Y-147564969D02*
X153080945Y-147564969D01*
X153152373Y-147600684D01*
X153188088Y-147636398D01*
X153223802Y-147707826D01*
X153259516Y-147850684D01*
X153259516Y-148029255D01*
X153223802Y-148172112D01*
X153188088Y-148243541D01*
X153152373Y-148279255D01*
X153080945Y-148314969D01*
X153009516Y-148314969D01*
X152938088Y-148279255D01*
X152902373Y-148243541D01*
X152866659Y-148172112D01*
X152830945Y-148029255D01*
X152830945Y-147850684D01*
X152866659Y-147707826D01*
X152902373Y-147636398D01*
X152938088Y-147600684D01*
X153009516Y-147564969D01*
G04 #@! TO.C,R31*
X149510945Y-148334969D02*
X149260945Y-147977826D01*
X149082373Y-148334969D02*
X149082373Y-147584969D01*
X149368088Y-147584969D01*
X149439516Y-147620684D01*
X149475230Y-147656398D01*
X149510945Y-147727826D01*
X149510945Y-147834969D01*
X149475230Y-147906398D01*
X149439516Y-147942112D01*
X149368088Y-147977826D01*
X149082373Y-147977826D01*
X149760945Y-147584969D02*
X150225230Y-147584969D01*
X149975230Y-147870684D01*
X150082373Y-147870684D01*
X150153802Y-147906398D01*
X150189516Y-147942112D01*
X150225230Y-148013541D01*
X150225230Y-148192112D01*
X150189516Y-148263541D01*
X150153802Y-148299255D01*
X150082373Y-148334969D01*
X149868088Y-148334969D01*
X149796659Y-148299255D01*
X149760945Y-148263541D01*
X150939516Y-148334969D02*
X150510945Y-148334969D01*
X150725230Y-148334969D02*
X150725230Y-147584969D01*
X150653802Y-147692112D01*
X150582373Y-147763541D01*
X150510945Y-147799255D01*
G04 #@! TO.C,R32*
X168962373Y-136152112D02*
X168762373Y-135866398D01*
X168619516Y-136152112D02*
X168619516Y-135552112D01*
X168848088Y-135552112D01*
X168905230Y-135580684D01*
X168933802Y-135609255D01*
X168962373Y-135666398D01*
X168962373Y-135752112D01*
X168933802Y-135809255D01*
X168905230Y-135837826D01*
X168848088Y-135866398D01*
X168619516Y-135866398D01*
X169162373Y-135552112D02*
X169533802Y-135552112D01*
X169333802Y-135780684D01*
X169419516Y-135780684D01*
X169476659Y-135809255D01*
X169505230Y-135837826D01*
X169533802Y-135894969D01*
X169533802Y-136037826D01*
X169505230Y-136094969D01*
X169476659Y-136123541D01*
X169419516Y-136152112D01*
X169248088Y-136152112D01*
X169190945Y-136123541D01*
X169162373Y-136094969D01*
X169762373Y-135609255D02*
X169790945Y-135580684D01*
X169848088Y-135552112D01*
X169990945Y-135552112D01*
X170048088Y-135580684D01*
X170076659Y-135609255D01*
X170105230Y-135666398D01*
X170105230Y-135723541D01*
X170076659Y-135809255D01*
X169733802Y-136152112D01*
X170105230Y-136152112D01*
G04 #@! TO.C,R33*
X168750673Y-137573912D02*
X168550673Y-137288198D01*
X168407816Y-137573912D02*
X168407816Y-136973912D01*
X168636388Y-136973912D01*
X168693530Y-137002484D01*
X168722102Y-137031055D01*
X168750673Y-137088198D01*
X168750673Y-137173912D01*
X168722102Y-137231055D01*
X168693530Y-137259626D01*
X168636388Y-137288198D01*
X168407816Y-137288198D01*
X168950673Y-136973912D02*
X169322102Y-136973912D01*
X169122102Y-137202484D01*
X169207816Y-137202484D01*
X169264959Y-137231055D01*
X169293530Y-137259626D01*
X169322102Y-137316769D01*
X169322102Y-137459626D01*
X169293530Y-137516769D01*
X169264959Y-137545341D01*
X169207816Y-137573912D01*
X169036388Y-137573912D01*
X168979245Y-137545341D01*
X168950673Y-137516769D01*
X169522102Y-136973912D02*
X169893530Y-136973912D01*
X169693530Y-137202484D01*
X169779245Y-137202484D01*
X169836388Y-137231055D01*
X169864959Y-137259626D01*
X169893530Y-137316769D01*
X169893530Y-137459626D01*
X169864959Y-137516769D01*
X169836388Y-137545341D01*
X169779245Y-137573912D01*
X169607816Y-137573912D01*
X169550673Y-137545341D01*
X169522102Y-137516769D01*
G04 #@! TO.C,R35*
X154817373Y-149697112D02*
X154617373Y-149411398D01*
X154474516Y-149697112D02*
X154474516Y-149097112D01*
X154703088Y-149097112D01*
X154760230Y-149125684D01*
X154788802Y-149154255D01*
X154817373Y-149211398D01*
X154817373Y-149297112D01*
X154788802Y-149354255D01*
X154760230Y-149382826D01*
X154703088Y-149411398D01*
X154474516Y-149411398D01*
X155017373Y-149097112D02*
X155388802Y-149097112D01*
X155188802Y-149325684D01*
X155274516Y-149325684D01*
X155331659Y-149354255D01*
X155360230Y-149382826D01*
X155388802Y-149439969D01*
X155388802Y-149582826D01*
X155360230Y-149639969D01*
X155331659Y-149668541D01*
X155274516Y-149697112D01*
X155103088Y-149697112D01*
X155045945Y-149668541D01*
X155017373Y-149639969D01*
X155931659Y-149097112D02*
X155645945Y-149097112D01*
X155617373Y-149382826D01*
X155645945Y-149354255D01*
X155703088Y-149325684D01*
X155845945Y-149325684D01*
X155903088Y-149354255D01*
X155931659Y-149382826D01*
X155960230Y-149439969D01*
X155960230Y-149582826D01*
X155931659Y-149639969D01*
X155903088Y-149668541D01*
X155845945Y-149697112D01*
X155703088Y-149697112D01*
X155645945Y-149668541D01*
X155617373Y-149639969D01*
G04 #@! TO.C,R42*
X106359596Y-123032998D02*
X106073882Y-123232998D01*
X106359596Y-123375855D02*
X105759596Y-123375855D01*
X105759596Y-123147284D01*
X105788168Y-123090141D01*
X105816739Y-123061569D01*
X105873882Y-123032998D01*
X105959596Y-123032998D01*
X106016739Y-123061569D01*
X106045310Y-123090141D01*
X106073882Y-123147284D01*
X106073882Y-123375855D01*
X105959596Y-122518712D02*
X106359596Y-122518712D01*
X105731025Y-122661569D02*
X106159596Y-122804426D01*
X106159596Y-122432998D01*
X105816739Y-122232998D02*
X105788168Y-122204426D01*
X105759596Y-122147284D01*
X105759596Y-122004426D01*
X105788168Y-121947284D01*
X105816739Y-121918712D01*
X105873882Y-121890141D01*
X105931025Y-121890141D01*
X106016739Y-121918712D01*
X106359596Y-122261569D01*
X106359596Y-121890141D01*
G04 #@! TO.C,R43*
X104909676Y-123322558D02*
X104623962Y-123522558D01*
X104909676Y-123665415D02*
X104309676Y-123665415D01*
X104309676Y-123436844D01*
X104338248Y-123379701D01*
X104366819Y-123351129D01*
X104423962Y-123322558D01*
X104509676Y-123322558D01*
X104566819Y-123351129D01*
X104595390Y-123379701D01*
X104623962Y-123436844D01*
X104623962Y-123665415D01*
X104509676Y-122808272D02*
X104909676Y-122808272D01*
X104281105Y-122951129D02*
X104709676Y-123093986D01*
X104709676Y-122722558D01*
X104309676Y-122551129D02*
X104309676Y-122179701D01*
X104538248Y-122379701D01*
X104538248Y-122293986D01*
X104566819Y-122236844D01*
X104595390Y-122208272D01*
X104652533Y-122179701D01*
X104795390Y-122179701D01*
X104852533Y-122208272D01*
X104881105Y-122236844D01*
X104909676Y-122293986D01*
X104909676Y-122465415D01*
X104881105Y-122522558D01*
X104852533Y-122551129D01*
G04 #@! TO.C,U2*
D13*
X103271183Y-133408064D02*
X103271183Y-134217588D01*
X103318802Y-134312826D01*
X103366421Y-134360445D01*
X103461659Y-134408064D01*
X103652135Y-134408064D01*
X103747373Y-134360445D01*
X103794992Y-134312826D01*
X103842611Y-134217588D01*
X103842611Y-133408064D01*
X104271183Y-133503303D02*
X104318802Y-133455684D01*
X104414040Y-133408064D01*
X104652135Y-133408064D01*
X104747373Y-133455684D01*
X104794992Y-133503303D01*
X104842611Y-133598541D01*
X104842611Y-133693779D01*
X104794992Y-133836636D01*
X104223564Y-134408064D01*
X104842611Y-134408064D01*
G04 #@! TO.C,U5*
X97425468Y-125387588D02*
X98234992Y-125387588D01*
X98330230Y-125339969D01*
X98377849Y-125292350D01*
X98425468Y-125197112D01*
X98425468Y-125006636D01*
X98377849Y-124911398D01*
X98330230Y-124863779D01*
X98234992Y-124816160D01*
X97425468Y-124816160D01*
X97425468Y-123863779D02*
X97425468Y-124339969D01*
X97901659Y-124387588D01*
X97854040Y-124339969D01*
X97806421Y-124244731D01*
X97806421Y-124006636D01*
X97854040Y-123911398D01*
X97901659Y-123863779D01*
X97996897Y-123816160D01*
X98234992Y-123816160D01*
X98330230Y-123863779D01*
X98377849Y-123911398D01*
X98425468Y-124006636D01*
X98425468Y-124244731D01*
X98377849Y-124339969D01*
X98330230Y-124387588D01*
G04 #@! TO.C,C3*
D16*
X115624108Y-119429269D02*
X115595536Y-119457841D01*
X115509822Y-119486412D01*
X115452679Y-119486412D01*
X115366965Y-119457841D01*
X115309822Y-119400698D01*
X115281250Y-119343555D01*
X115252679Y-119229269D01*
X115252679Y-119143555D01*
X115281250Y-119029269D01*
X115309822Y-118972126D01*
X115366965Y-118914984D01*
X115452679Y-118886412D01*
X115509822Y-118886412D01*
X115595536Y-118914984D01*
X115624108Y-118943555D01*
X115824108Y-118886412D02*
X116195536Y-118886412D01*
X115995536Y-119114984D01*
X116081250Y-119114984D01*
X116138393Y-119143555D01*
X116166965Y-119172126D01*
X116195536Y-119229269D01*
X116195536Y-119372126D01*
X116166965Y-119429269D01*
X116138393Y-119457841D01*
X116081250Y-119486412D01*
X115909822Y-119486412D01*
X115852679Y-119457841D01*
X115824108Y-119429269D01*
G04 #@! TO.C,VBAT_DIV1*
D13*
X110969754Y-115657588D02*
X111236421Y-116457588D01*
X111503088Y-115657588D01*
X112036421Y-116038541D02*
X112150707Y-116076636D01*
X112188802Y-116114731D01*
X112226897Y-116190922D01*
X112226897Y-116305207D01*
X112188802Y-116381398D01*
X112150707Y-116419493D01*
X112074516Y-116457588D01*
X111769754Y-116457588D01*
X111769754Y-115657588D01*
X112036421Y-115657588D01*
X112112611Y-115695684D01*
X112150707Y-115733779D01*
X112188802Y-115809969D01*
X112188802Y-115886160D01*
X112150707Y-115962350D01*
X112112611Y-116000445D01*
X112036421Y-116038541D01*
X111769754Y-116038541D01*
X112531659Y-116229017D02*
X112912611Y-116229017D01*
X112455468Y-116457588D02*
X112722135Y-115657588D01*
X112988802Y-116457588D01*
X113141183Y-115657588D02*
X113598326Y-115657588D01*
X113369754Y-116457588D02*
X113369754Y-115657588D01*
X113674516Y-116533779D02*
X114284040Y-116533779D01*
X114474516Y-116457588D02*
X114474516Y-115657588D01*
X114664992Y-115657588D01*
X114779278Y-115695684D01*
X114855468Y-115771874D01*
X114893564Y-115848064D01*
X114931659Y-116000445D01*
X114931659Y-116114731D01*
X114893564Y-116267112D01*
X114855468Y-116343303D01*
X114779278Y-116419493D01*
X114664992Y-116457588D01*
X114474516Y-116457588D01*
X115274516Y-116457588D02*
X115274516Y-115657588D01*
X115541183Y-115657588D02*
X115807849Y-116457588D01*
X116074516Y-115657588D01*
X116760230Y-116457588D02*
X116303088Y-116457588D01*
X116531659Y-116457588D02*
X116531659Y-115657588D01*
X116455468Y-115771874D01*
X116379278Y-115848064D01*
X116303088Y-115886160D01*
G04 #@! TO.C,D1*
X88584992Y-123158064D02*
X88584992Y-122158064D01*
X88823088Y-122158064D01*
X88965945Y-122205684D01*
X89061183Y-122300922D01*
X89108802Y-122396160D01*
X89156421Y-122586636D01*
X89156421Y-122729493D01*
X89108802Y-122919969D01*
X89061183Y-123015207D01*
X88965945Y-123110445D01*
X88823088Y-123158064D01*
X88584992Y-123158064D01*
X90108802Y-123158064D02*
X89537373Y-123158064D01*
X89823088Y-123158064D02*
X89823088Y-122158064D01*
X89727849Y-122300922D01*
X89632611Y-122396160D01*
X89537373Y-122443779D01*
G04 #@! TO.C,R36*
X148910945Y-141804969D02*
X148660945Y-141447826D01*
X148482373Y-141804969D02*
X148482373Y-141054969D01*
X148768088Y-141054969D01*
X148839516Y-141090684D01*
X148875230Y-141126398D01*
X148910945Y-141197826D01*
X148910945Y-141304969D01*
X148875230Y-141376398D01*
X148839516Y-141412112D01*
X148768088Y-141447826D01*
X148482373Y-141447826D01*
X149160945Y-141054969D02*
X149625230Y-141054969D01*
X149375230Y-141340684D01*
X149482373Y-141340684D01*
X149553802Y-141376398D01*
X149589516Y-141412112D01*
X149625230Y-141483541D01*
X149625230Y-141662112D01*
X149589516Y-141733541D01*
X149553802Y-141769255D01*
X149482373Y-141804969D01*
X149268088Y-141804969D01*
X149196659Y-141769255D01*
X149160945Y-141733541D01*
X150268088Y-141054969D02*
X150125230Y-141054969D01*
X150053802Y-141090684D01*
X150018088Y-141126398D01*
X149946659Y-141233541D01*
X149910945Y-141376398D01*
X149910945Y-141662112D01*
X149946659Y-141733541D01*
X149982373Y-141769255D01*
X150053802Y-141804969D01*
X150196659Y-141804969D01*
X150268088Y-141769255D01*
X150303802Y-141733541D01*
X150339516Y-141662112D01*
X150339516Y-141483541D01*
X150303802Y-141412112D01*
X150268088Y-141376398D01*
X150196659Y-141340684D01*
X150053802Y-141340684D01*
X149982373Y-141376398D01*
X149946659Y-141412112D01*
X149910945Y-141483541D01*
G04 #@! TO.C,R37*
D16*
X162327453Y-141718152D02*
X162127453Y-141432438D01*
X161984596Y-141718152D02*
X161984596Y-141118152D01*
X162213168Y-141118152D01*
X162270310Y-141146724D01*
X162298882Y-141175295D01*
X162327453Y-141232438D01*
X162327453Y-141318152D01*
X162298882Y-141375295D01*
X162270310Y-141403866D01*
X162213168Y-141432438D01*
X161984596Y-141432438D01*
X162527453Y-141118152D02*
X162898882Y-141118152D01*
X162698882Y-141346724D01*
X162784596Y-141346724D01*
X162841739Y-141375295D01*
X162870310Y-141403866D01*
X162898882Y-141461009D01*
X162898882Y-141603866D01*
X162870310Y-141661009D01*
X162841739Y-141689581D01*
X162784596Y-141718152D01*
X162613168Y-141718152D01*
X162556025Y-141689581D01*
X162527453Y-141661009D01*
X163098882Y-141118152D02*
X163498882Y-141118152D01*
X163241739Y-141718152D01*
G04 #@! TO.C,R46*
X90074516Y-144431398D02*
X89788802Y-144631398D01*
X90074516Y-144774255D02*
X89474516Y-144774255D01*
X89474516Y-144545684D01*
X89503088Y-144488541D01*
X89531659Y-144459969D01*
X89588802Y-144431398D01*
X89674516Y-144431398D01*
X89731659Y-144459969D01*
X89760230Y-144488541D01*
X89788802Y-144545684D01*
X89788802Y-144774255D01*
X89674516Y-143917112D02*
X90074516Y-143917112D01*
X89445945Y-144059969D02*
X89874516Y-144202826D01*
X89874516Y-143831398D01*
X89474516Y-143345684D02*
X89474516Y-143459969D01*
X89503088Y-143517112D01*
X89531659Y-143545684D01*
X89617373Y-143602826D01*
X89731659Y-143631398D01*
X89960230Y-143631398D01*
X90017373Y-143602826D01*
X90045945Y-143574255D01*
X90074516Y-143517112D01*
X90074516Y-143402826D01*
X90045945Y-143345684D01*
X90017373Y-143317112D01*
X89960230Y-143288541D01*
X89817373Y-143288541D01*
X89760230Y-143317112D01*
X89731659Y-143345684D01*
X89703088Y-143402826D01*
X89703088Y-143517112D01*
X89731659Y-143574255D01*
X89760230Y-143602826D01*
X89817373Y-143631398D01*
G04 #@! TO.C,C24*
X90043088Y-142235684D02*
X90009754Y-142269017D01*
X89909754Y-142302350D01*
X89843088Y-142302350D01*
X89743088Y-142269017D01*
X89676421Y-142202350D01*
X89643088Y-142135684D01*
X89609754Y-142002350D01*
X89609754Y-141902350D01*
X89643088Y-141769017D01*
X89676421Y-141702350D01*
X89743088Y-141635684D01*
X89843088Y-141602350D01*
X89909754Y-141602350D01*
X90009754Y-141635684D01*
X90043088Y-141669017D01*
X90309754Y-141669017D02*
X90343088Y-141635684D01*
X90409754Y-141602350D01*
X90576421Y-141602350D01*
X90643088Y-141635684D01*
X90676421Y-141669017D01*
X90709754Y-141735684D01*
X90709754Y-141802350D01*
X90676421Y-141902350D01*
X90276421Y-142302350D01*
X90709754Y-142302350D01*
X91309754Y-141835684D02*
X91309754Y-142302350D01*
X91143088Y-141569017D02*
X90976421Y-142069017D01*
X91409754Y-142069017D01*
G04 #@! TO.C,L3*
D13*
X84956421Y-124658064D02*
X84480230Y-124658064D01*
X84480230Y-123658064D01*
X85194516Y-123658064D02*
X85813564Y-123658064D01*
X85480230Y-124039017D01*
X85623088Y-124039017D01*
X85718326Y-124086636D01*
X85765945Y-124134255D01*
X85813564Y-124229493D01*
X85813564Y-124467588D01*
X85765945Y-124562826D01*
X85718326Y-124610445D01*
X85623088Y-124658064D01*
X85337373Y-124658064D01*
X85242135Y-124610445D01*
X85194516Y-124562826D01*
G04 #@! TO.C,C44*
X92280230Y-127362826D02*
X92232611Y-127410445D01*
X92089754Y-127458064D01*
X91994516Y-127458064D01*
X91851659Y-127410445D01*
X91756421Y-127315207D01*
X91708802Y-127219969D01*
X91661183Y-127029493D01*
X91661183Y-126886636D01*
X91708802Y-126696160D01*
X91756421Y-126600922D01*
X91851659Y-126505684D01*
X91994516Y-126458064D01*
X92089754Y-126458064D01*
X92232611Y-126505684D01*
X92280230Y-126553303D01*
X93137373Y-126791398D02*
X93137373Y-127458064D01*
X92899278Y-126410445D02*
X92661183Y-127124731D01*
X93280230Y-127124731D01*
X94089754Y-126791398D02*
X94089754Y-127458064D01*
X93851659Y-126410445D02*
X93613564Y-127124731D01*
X94232611Y-127124731D01*
G04 #@! TO.C,R17*
D16*
X92509754Y-146415684D02*
X92176421Y-146649017D01*
X92509754Y-146815684D02*
X91809754Y-146815684D01*
X91809754Y-146549017D01*
X91843088Y-146482350D01*
X91876421Y-146449017D01*
X91943088Y-146415684D01*
X92043088Y-146415684D01*
X92109754Y-146449017D01*
X92143088Y-146482350D01*
X92176421Y-146549017D01*
X92176421Y-146815684D01*
X92509754Y-145749017D02*
X92509754Y-146149017D01*
X92509754Y-145949017D02*
X91809754Y-145949017D01*
X91909754Y-146015684D01*
X91976421Y-146082350D01*
X92009754Y-146149017D01*
X91809754Y-145515684D02*
X91809754Y-145049017D01*
X92509754Y-145349017D01*
G04 #@! TO.C,P5*
D13*
X129579798Y-166461988D02*
X129579798Y-165461988D01*
X129960751Y-165461988D01*
X130055989Y-165509608D01*
X130103608Y-165557227D01*
X130151227Y-165652465D01*
X130151227Y-165795322D01*
X130103608Y-165890560D01*
X130055989Y-165938179D01*
X129960751Y-165985798D01*
X129579798Y-165985798D01*
X131055989Y-165461988D02*
X130579798Y-165461988D01*
X130532179Y-165938179D01*
X130579798Y-165890560D01*
X130675036Y-165842941D01*
X130913132Y-165842941D01*
X131008370Y-165890560D01*
X131055989Y-165938179D01*
X131103608Y-166033417D01*
X131103608Y-166271512D01*
X131055989Y-166366750D01*
X131008370Y-166414369D01*
X130913132Y-166461988D01*
X130675036Y-166461988D01*
X130579798Y-166414369D01*
X130532179Y-166366750D01*
G04 #@! TO.C,P2*
X78599188Y-129391539D02*
X77599188Y-129391539D01*
X77599188Y-129010586D01*
X77646808Y-128915348D01*
X77694427Y-128867729D01*
X77789665Y-128820110D01*
X77932522Y-128820110D01*
X78027760Y-128867729D01*
X78075379Y-128915348D01*
X78122998Y-129010586D01*
X78122998Y-129391539D01*
X77694427Y-128439158D02*
X77646808Y-128391539D01*
X77599188Y-128296301D01*
X77599188Y-128058205D01*
X77646808Y-127962967D01*
X77694427Y-127915348D01*
X77789665Y-127867729D01*
X77884903Y-127867729D01*
X78027760Y-127915348D01*
X78599188Y-128486777D01*
X78599188Y-127867729D01*
D16*
X76670533Y-129153716D02*
X76694343Y-129082287D01*
X76718152Y-129058478D01*
X76765771Y-129034668D01*
X76837200Y-129034668D01*
X76884819Y-129058478D01*
X76908628Y-129082287D01*
X76932438Y-129129906D01*
X76932438Y-129320383D01*
X76432438Y-129320383D01*
X76432438Y-129153716D01*
X76456248Y-129106097D01*
X76480057Y-129082287D01*
X76527676Y-129058478D01*
X76575295Y-129058478D01*
X76622914Y-129082287D01*
X76646724Y-129106097D01*
X76670533Y-129153716D01*
X76670533Y-129320383D01*
X76932438Y-128748954D02*
X76908628Y-128796573D01*
X76884819Y-128820383D01*
X76837200Y-128844192D01*
X76694343Y-128844192D01*
X76646724Y-128820383D01*
X76622914Y-128796573D01*
X76599105Y-128748954D01*
X76599105Y-128677525D01*
X76622914Y-128629906D01*
X76646724Y-128606097D01*
X76694343Y-128582287D01*
X76837200Y-128582287D01*
X76884819Y-128606097D01*
X76908628Y-128629906D01*
X76932438Y-128677525D01*
X76932438Y-128748954D01*
X76932438Y-128153716D02*
X76670533Y-128153716D01*
X76622914Y-128177525D01*
X76599105Y-128225144D01*
X76599105Y-128320383D01*
X76622914Y-128368002D01*
X76908628Y-128153716D02*
X76932438Y-128201335D01*
X76932438Y-128320383D01*
X76908628Y-128368002D01*
X76861009Y-128391811D01*
X76813390Y-128391811D01*
X76765771Y-128368002D01*
X76741962Y-128320383D01*
X76741962Y-128201335D01*
X76718152Y-128153716D01*
X76932438Y-127915621D02*
X76599105Y-127915621D01*
X76694343Y-127915621D02*
X76646724Y-127891811D01*
X76622914Y-127868002D01*
X76599105Y-127820383D01*
X76599105Y-127772764D01*
X76932438Y-127391811D02*
X76432438Y-127391811D01*
X76908628Y-127391811D02*
X76932438Y-127439430D01*
X76932438Y-127534668D01*
X76908628Y-127582287D01*
X76884819Y-127606097D01*
X76837200Y-127629906D01*
X76694343Y-127629906D01*
X76646724Y-127606097D01*
X76622914Y-127582287D01*
X76599105Y-127534668D01*
X76599105Y-127439430D01*
X76622914Y-127391811D01*
X76670533Y-126772764D02*
X76670533Y-126606097D01*
X76932438Y-126534668D02*
X76932438Y-126772764D01*
X76432438Y-126772764D01*
X76432438Y-126534668D01*
X76932438Y-126106097D02*
X76432438Y-126106097D01*
X76908628Y-126106097D02*
X76932438Y-126153716D01*
X76932438Y-126248954D01*
X76908628Y-126296573D01*
X76884819Y-126320383D01*
X76837200Y-126344192D01*
X76694343Y-126344192D01*
X76646724Y-126320383D01*
X76622914Y-126296573D01*
X76599105Y-126248954D01*
X76599105Y-126153716D01*
X76622914Y-126106097D01*
X76599105Y-125653716D02*
X77003867Y-125653716D01*
X77051486Y-125677525D01*
X77075295Y-125701335D01*
X77099105Y-125748954D01*
X77099105Y-125820383D01*
X77075295Y-125868002D01*
X76908628Y-125653716D02*
X76932438Y-125701335D01*
X76932438Y-125796573D01*
X76908628Y-125844192D01*
X76884819Y-125868002D01*
X76837200Y-125891811D01*
X76694343Y-125891811D01*
X76646724Y-125868002D01*
X76622914Y-125844192D01*
X76599105Y-125796573D01*
X76599105Y-125701335D01*
X76622914Y-125653716D01*
X76908628Y-125225144D02*
X76932438Y-125272764D01*
X76932438Y-125368002D01*
X76908628Y-125415621D01*
X76861009Y-125439430D01*
X76670533Y-125439430D01*
X76622914Y-125415621D01*
X76599105Y-125368002D01*
X76599105Y-125272764D01*
X76622914Y-125225144D01*
X76670533Y-125201335D01*
X76718152Y-125201335D01*
X76765771Y-125439430D01*
G04 #@! TO.C,P4*
D13*
X106435952Y-131428184D02*
X106435952Y-130428184D01*
X106816905Y-130428184D01*
X106912143Y-130475804D01*
X106959762Y-130523423D01*
X107007381Y-130618661D01*
X107007381Y-130761518D01*
X106959762Y-130856756D01*
X106912143Y-130904375D01*
X106816905Y-130951994D01*
X106435952Y-130951994D01*
X107864524Y-130761518D02*
X107864524Y-131428184D01*
X107626428Y-130380565D02*
X107388333Y-131094851D01*
X108007381Y-131094851D01*
G04 #@! TO.C,TP1*
X115531183Y-124138064D02*
X116102611Y-124138064D01*
X115816897Y-125138064D02*
X115816897Y-124138064D01*
X116435945Y-125138064D02*
X116435945Y-124138064D01*
X116816897Y-124138064D01*
X116912135Y-124185684D01*
X116959754Y-124233303D01*
X117007373Y-124328541D01*
X117007373Y-124471398D01*
X116959754Y-124566636D01*
X116912135Y-124614255D01*
X116816897Y-124661874D01*
X116435945Y-124661874D01*
X117959754Y-125138064D02*
X117388326Y-125138064D01*
X117674040Y-125138064D02*
X117674040Y-124138064D01*
X117578802Y-124280922D01*
X117483564Y-124376160D01*
X117388326Y-124423779D01*
G04 #@! TO.C,TP2*
X103961183Y-110298064D02*
X104532611Y-110298064D01*
X104246897Y-111298064D02*
X104246897Y-110298064D01*
X104865945Y-111298064D02*
X104865945Y-110298064D01*
X105246897Y-110298064D01*
X105342135Y-110345684D01*
X105389754Y-110393303D01*
X105437373Y-110488541D01*
X105437373Y-110631398D01*
X105389754Y-110726636D01*
X105342135Y-110774255D01*
X105246897Y-110821874D01*
X104865945Y-110821874D01*
X105818326Y-110393303D02*
X105865945Y-110345684D01*
X105961183Y-110298064D01*
X106199278Y-110298064D01*
X106294516Y-110345684D01*
X106342135Y-110393303D01*
X106389754Y-110488541D01*
X106389754Y-110583779D01*
X106342135Y-110726636D01*
X105770707Y-111298064D01*
X106389754Y-111298064D01*
G04 #@! TO.C,TP3*
X110691183Y-103638064D02*
X111262611Y-103638064D01*
X110976897Y-104638064D02*
X110976897Y-103638064D01*
X111595945Y-104638064D02*
X111595945Y-103638064D01*
X111976897Y-103638064D01*
X112072135Y-103685684D01*
X112119754Y-103733303D01*
X112167373Y-103828541D01*
X112167373Y-103971398D01*
X112119754Y-104066636D01*
X112072135Y-104114255D01*
X111976897Y-104161874D01*
X111595945Y-104161874D01*
X112500707Y-103638064D02*
X113119754Y-103638064D01*
X112786421Y-104019017D01*
X112929278Y-104019017D01*
X113024516Y-104066636D01*
X113072135Y-104114255D01*
X113119754Y-104209493D01*
X113119754Y-104447588D01*
X113072135Y-104542826D01*
X113024516Y-104590445D01*
X112929278Y-104638064D01*
X112643564Y-104638064D01*
X112548326Y-104590445D01*
X112500707Y-104542826D01*
G04 #@! TO.C,TP5*
X104481183Y-107598064D02*
X105052611Y-107598064D01*
X104766897Y-108598064D02*
X104766897Y-107598064D01*
X105385945Y-108598064D02*
X105385945Y-107598064D01*
X105766897Y-107598064D01*
X105862135Y-107645684D01*
X105909754Y-107693303D01*
X105957373Y-107788541D01*
X105957373Y-107931398D01*
X105909754Y-108026636D01*
X105862135Y-108074255D01*
X105766897Y-108121874D01*
X105385945Y-108121874D01*
X106862135Y-107598064D02*
X106385945Y-107598064D01*
X106338326Y-108074255D01*
X106385945Y-108026636D01*
X106481183Y-107979017D01*
X106719278Y-107979017D01*
X106814516Y-108026636D01*
X106862135Y-108074255D01*
X106909754Y-108169493D01*
X106909754Y-108407588D01*
X106862135Y-108502826D01*
X106814516Y-108550445D01*
X106719278Y-108598064D01*
X106481183Y-108598064D01*
X106385945Y-108550445D01*
X106338326Y-108502826D01*
G04 #@! TO.C,TP6*
X106651183Y-104968064D02*
X107222611Y-104968064D01*
X106936897Y-105968064D02*
X106936897Y-104968064D01*
X107555945Y-105968064D02*
X107555945Y-104968064D01*
X107936897Y-104968064D01*
X108032135Y-105015684D01*
X108079754Y-105063303D01*
X108127373Y-105158541D01*
X108127373Y-105301398D01*
X108079754Y-105396636D01*
X108032135Y-105444255D01*
X107936897Y-105491874D01*
X107555945Y-105491874D01*
X108984516Y-104968064D02*
X108794040Y-104968064D01*
X108698802Y-105015684D01*
X108651183Y-105063303D01*
X108555945Y-105206160D01*
X108508326Y-105396636D01*
X108508326Y-105777588D01*
X108555945Y-105872826D01*
X108603564Y-105920445D01*
X108698802Y-105968064D01*
X108889278Y-105968064D01*
X108984516Y-105920445D01*
X109032135Y-105872826D01*
X109079754Y-105777588D01*
X109079754Y-105539493D01*
X109032135Y-105444255D01*
X108984516Y-105396636D01*
X108889278Y-105349017D01*
X108698802Y-105349017D01*
X108603564Y-105396636D01*
X108555945Y-105444255D01*
X108508326Y-105539493D01*
G04 #@! TO.C,TP7*
X112361183Y-89858064D02*
X112932611Y-89858064D01*
X112646897Y-90858064D02*
X112646897Y-89858064D01*
X113265945Y-90858064D02*
X113265945Y-89858064D01*
X113646897Y-89858064D01*
X113742135Y-89905684D01*
X113789754Y-89953303D01*
X113837373Y-90048541D01*
X113837373Y-90191398D01*
X113789754Y-90286636D01*
X113742135Y-90334255D01*
X113646897Y-90381874D01*
X113265945Y-90381874D01*
X114170707Y-89858064D02*
X114837373Y-89858064D01*
X114408802Y-90858064D01*
G04 #@! TO.C,TP8*
X107261183Y-91838064D02*
X107832611Y-91838064D01*
X107546897Y-92838064D02*
X107546897Y-91838064D01*
X108165945Y-92838064D02*
X108165945Y-91838064D01*
X108546897Y-91838064D01*
X108642135Y-91885684D01*
X108689754Y-91933303D01*
X108737373Y-92028541D01*
X108737373Y-92171398D01*
X108689754Y-92266636D01*
X108642135Y-92314255D01*
X108546897Y-92361874D01*
X108165945Y-92361874D01*
X109308802Y-92266636D02*
X109213564Y-92219017D01*
X109165945Y-92171398D01*
X109118326Y-92076160D01*
X109118326Y-92028541D01*
X109165945Y-91933303D01*
X109213564Y-91885684D01*
X109308802Y-91838064D01*
X109499278Y-91838064D01*
X109594516Y-91885684D01*
X109642135Y-91933303D01*
X109689754Y-92028541D01*
X109689754Y-92076160D01*
X109642135Y-92171398D01*
X109594516Y-92219017D01*
X109499278Y-92266636D01*
X109308802Y-92266636D01*
X109213564Y-92314255D01*
X109165945Y-92361874D01*
X109118326Y-92457112D01*
X109118326Y-92647588D01*
X109165945Y-92742826D01*
X109213564Y-92790445D01*
X109308802Y-92838064D01*
X109499278Y-92838064D01*
X109594516Y-92790445D01*
X109642135Y-92742826D01*
X109689754Y-92647588D01*
X109689754Y-92457112D01*
X109642135Y-92361874D01*
X109594516Y-92314255D01*
X109499278Y-92266636D01*
G04 #@! TO.C,TP11*
X158364992Y-106668064D02*
X158936421Y-106668064D01*
X158650707Y-107668064D02*
X158650707Y-106668064D01*
X159269754Y-107668064D02*
X159269754Y-106668064D01*
X159650707Y-106668064D01*
X159745945Y-106715684D01*
X159793564Y-106763303D01*
X159841183Y-106858541D01*
X159841183Y-107001398D01*
X159793564Y-107096636D01*
X159745945Y-107144255D01*
X159650707Y-107191874D01*
X159269754Y-107191874D01*
X160793564Y-107668064D02*
X160222135Y-107668064D01*
X160507849Y-107668064D02*
X160507849Y-106668064D01*
X160412611Y-106810922D01*
X160317373Y-106906160D01*
X160222135Y-106953779D01*
X161745945Y-107668064D02*
X161174516Y-107668064D01*
X161460230Y-107668064D02*
X161460230Y-106668064D01*
X161364992Y-106810922D01*
X161269754Y-106906160D01*
X161174516Y-106953779D01*
G04 #@! TO.C,TP12*
X90314992Y-112658064D02*
X90886421Y-112658064D01*
X90600707Y-113658064D02*
X90600707Y-112658064D01*
X91219754Y-113658064D02*
X91219754Y-112658064D01*
X91600707Y-112658064D01*
X91695945Y-112705684D01*
X91743564Y-112753303D01*
X91791183Y-112848541D01*
X91791183Y-112991398D01*
X91743564Y-113086636D01*
X91695945Y-113134255D01*
X91600707Y-113181874D01*
X91219754Y-113181874D01*
X92743564Y-113658064D02*
X92172135Y-113658064D01*
X92457849Y-113658064D02*
X92457849Y-112658064D01*
X92362611Y-112800922D01*
X92267373Y-112896160D01*
X92172135Y-112943779D01*
X93124516Y-112753303D02*
X93172135Y-112705684D01*
X93267373Y-112658064D01*
X93505468Y-112658064D01*
X93600707Y-112705684D01*
X93648326Y-112753303D01*
X93695945Y-112848541D01*
X93695945Y-112943779D01*
X93648326Y-113086636D01*
X93076897Y-113658064D01*
X93695945Y-113658064D01*
G04 #@! TO.C,TP15*
X102084992Y-137518064D02*
X102656421Y-137518064D01*
X102370707Y-138518064D02*
X102370707Y-137518064D01*
X102989754Y-138518064D02*
X102989754Y-137518064D01*
X103370707Y-137518064D01*
X103465945Y-137565684D01*
X103513564Y-137613303D01*
X103561183Y-137708541D01*
X103561183Y-137851398D01*
X103513564Y-137946636D01*
X103465945Y-137994255D01*
X103370707Y-138041874D01*
X102989754Y-138041874D01*
X104513564Y-138518064D02*
X103942135Y-138518064D01*
X104227849Y-138518064D02*
X104227849Y-137518064D01*
X104132611Y-137660922D01*
X104037373Y-137756160D01*
X103942135Y-137803779D01*
X105418326Y-137518064D02*
X104942135Y-137518064D01*
X104894516Y-137994255D01*
X104942135Y-137946636D01*
X105037373Y-137899017D01*
X105275468Y-137899017D01*
X105370707Y-137946636D01*
X105418326Y-137994255D01*
X105465945Y-138089493D01*
X105465945Y-138327588D01*
X105418326Y-138422826D01*
X105370707Y-138470445D01*
X105275468Y-138518064D01*
X105037373Y-138518064D01*
X104942135Y-138470445D01*
X104894516Y-138422826D01*
G04 #@! TO.C,R44*
X111225230Y-121949664D02*
X110891897Y-121473474D01*
X110653802Y-121949664D02*
X110653802Y-120949664D01*
X111034754Y-120949664D01*
X111129992Y-120997284D01*
X111177611Y-121044903D01*
X111225230Y-121140141D01*
X111225230Y-121282998D01*
X111177611Y-121378236D01*
X111129992Y-121425855D01*
X111034754Y-121473474D01*
X110653802Y-121473474D01*
X112082373Y-121282998D02*
X112082373Y-121949664D01*
X111844278Y-120902045D02*
X111606183Y-121616331D01*
X112225230Y-121616331D01*
X113034754Y-121282998D02*
X113034754Y-121949664D01*
X112796659Y-120902045D02*
X112558564Y-121616331D01*
X113177611Y-121616331D01*
G04 #@! TO.C,S1*
X105355383Y-143475245D02*
X105498240Y-143522864D01*
X105736335Y-143522864D01*
X105831573Y-143475245D01*
X105879192Y-143427626D01*
X105926811Y-143332388D01*
X105926811Y-143237150D01*
X105879192Y-143141912D01*
X105831573Y-143094293D01*
X105736335Y-143046674D01*
X105545859Y-142999055D01*
X105450621Y-142951436D01*
X105403002Y-142903817D01*
X105355383Y-142808579D01*
X105355383Y-142713341D01*
X105403002Y-142618103D01*
X105450621Y-142570484D01*
X105545859Y-142522864D01*
X105783954Y-142522864D01*
X105926811Y-142570484D01*
X106879192Y-143522864D02*
X106307764Y-143522864D01*
X106593478Y-143522864D02*
X106593478Y-142522864D01*
X106498240Y-142665722D01*
X106403002Y-142760960D01*
X106307764Y-142808579D01*
G04 #@! TO.C,ADJ_1*
X91746897Y-148172350D02*
X92223088Y-148172350D01*
X91651659Y-148458064D02*
X91984992Y-147458064D01*
X92318326Y-148458064D01*
X92651659Y-148458064D02*
X92651659Y-147458064D01*
X92889754Y-147458064D01*
X93032611Y-147505684D01*
X93127849Y-147600922D01*
X93175468Y-147696160D01*
X93223088Y-147886636D01*
X93223088Y-148029493D01*
X93175468Y-148219969D01*
X93127849Y-148315207D01*
X93032611Y-148410445D01*
X92889754Y-148458064D01*
X92651659Y-148458064D01*
X93937373Y-147458064D02*
X93937373Y-148172350D01*
X93889754Y-148315207D01*
X93794516Y-148410445D01*
X93651659Y-148458064D01*
X93556421Y-148458064D01*
X94175468Y-148553303D02*
X94937373Y-148553303D01*
X95699278Y-148458064D02*
X95127849Y-148458064D01*
X95413564Y-148458064D02*
X95413564Y-147458064D01*
X95318326Y-147600922D01*
X95223088Y-147696160D01*
X95127849Y-147743779D01*
G04 #@! TO.C,ADJ_2*
X145946897Y-83872350D02*
X146423088Y-83872350D01*
X145851659Y-84158064D02*
X146184992Y-83158064D01*
X146518326Y-84158064D01*
X146851659Y-84158064D02*
X146851659Y-83158064D01*
X147089754Y-83158064D01*
X147232611Y-83205684D01*
X147327849Y-83300922D01*
X147375468Y-83396160D01*
X147423088Y-83586636D01*
X147423088Y-83729493D01*
X147375468Y-83919969D01*
X147327849Y-84015207D01*
X147232611Y-84110445D01*
X147089754Y-84158064D01*
X146851659Y-84158064D01*
X148137373Y-83158064D02*
X148137373Y-83872350D01*
X148089754Y-84015207D01*
X147994516Y-84110445D01*
X147851659Y-84158064D01*
X147756421Y-84158064D01*
X148375468Y-84253303D02*
X149137373Y-84253303D01*
X149327849Y-83253303D02*
X149375468Y-83205684D01*
X149470707Y-83158064D01*
X149708802Y-83158064D01*
X149804040Y-83205684D01*
X149851659Y-83253303D01*
X149899278Y-83348541D01*
X149899278Y-83443779D01*
X149851659Y-83586636D01*
X149280230Y-84158064D01*
X149899278Y-84158064D01*
G04 #@! TO.C,P1*
X155984992Y-97858064D02*
X155984992Y-96858064D01*
X156365945Y-96858064D01*
X156461183Y-96905684D01*
X156508802Y-96953303D01*
X156556421Y-97048541D01*
X156556421Y-97191398D01*
X156508802Y-97286636D01*
X156461183Y-97334255D01*
X156365945Y-97381874D01*
X155984992Y-97381874D01*
X157508802Y-97858064D02*
X156937373Y-97858064D01*
X157223088Y-97858064D02*
X157223088Y-96858064D01*
X157127849Y-97000922D01*
X157032611Y-97096160D01*
X156937373Y-97143779D01*
G04 #@! TO.C,C4*
X99836421Y-131842826D02*
X99788802Y-131890445D01*
X99645945Y-131938064D01*
X99550707Y-131938064D01*
X99407849Y-131890445D01*
X99312611Y-131795207D01*
X99264992Y-131699969D01*
X99217373Y-131509493D01*
X99217373Y-131366636D01*
X99264992Y-131176160D01*
X99312611Y-131080922D01*
X99407849Y-130985684D01*
X99550707Y-130938064D01*
X99645945Y-130938064D01*
X99788802Y-130985684D01*
X99836421Y-131033303D01*
X100693564Y-131271398D02*
X100693564Y-131938064D01*
X100455468Y-130890445D02*
X100217373Y-131604731D01*
X100836421Y-131604731D01*
G04 #@! TO.C,C6*
X104246421Y-136142826D02*
X104198802Y-136190445D01*
X104055945Y-136238064D01*
X103960707Y-136238064D01*
X103817849Y-136190445D01*
X103722611Y-136095207D01*
X103674992Y-135999969D01*
X103627373Y-135809493D01*
X103627373Y-135666636D01*
X103674992Y-135476160D01*
X103722611Y-135380922D01*
X103817849Y-135285684D01*
X103960707Y-135238064D01*
X104055945Y-135238064D01*
X104198802Y-135285684D01*
X104246421Y-135333303D01*
X105103564Y-135238064D02*
X104913088Y-135238064D01*
X104817849Y-135285684D01*
X104770230Y-135333303D01*
X104674992Y-135476160D01*
X104627373Y-135666636D01*
X104627373Y-136047588D01*
X104674992Y-136142826D01*
X104722611Y-136190445D01*
X104817849Y-136238064D01*
X105008326Y-136238064D01*
X105103564Y-136190445D01*
X105151183Y-136142826D01*
X105198802Y-136047588D01*
X105198802Y-135809493D01*
X105151183Y-135714255D01*
X105103564Y-135666636D01*
X105008326Y-135619017D01*
X104817849Y-135619017D01*
X104722611Y-135666636D01*
X104674992Y-135714255D01*
X104627373Y-135809493D01*
G04 #@! TO.C,C7*
X97656421Y-130062826D02*
X97608802Y-130110445D01*
X97465945Y-130158064D01*
X97370707Y-130158064D01*
X97227849Y-130110445D01*
X97132611Y-130015207D01*
X97084992Y-129919969D01*
X97037373Y-129729493D01*
X97037373Y-129586636D01*
X97084992Y-129396160D01*
X97132611Y-129300922D01*
X97227849Y-129205684D01*
X97370707Y-129158064D01*
X97465945Y-129158064D01*
X97608802Y-129205684D01*
X97656421Y-129253303D01*
X97989754Y-129158064D02*
X98656421Y-129158064D01*
X98227849Y-130158064D01*
G04 #@! TO.C,C8*
X99356421Y-122162826D02*
X99308802Y-122210445D01*
X99165945Y-122258064D01*
X99070707Y-122258064D01*
X98927849Y-122210445D01*
X98832611Y-122115207D01*
X98784992Y-122019969D01*
X98737373Y-121829493D01*
X98737373Y-121686636D01*
X98784992Y-121496160D01*
X98832611Y-121400922D01*
X98927849Y-121305684D01*
X99070707Y-121258064D01*
X99165945Y-121258064D01*
X99308802Y-121305684D01*
X99356421Y-121353303D01*
X99927849Y-121686636D02*
X99832611Y-121639017D01*
X99784992Y-121591398D01*
X99737373Y-121496160D01*
X99737373Y-121448541D01*
X99784992Y-121353303D01*
X99832611Y-121305684D01*
X99927849Y-121258064D01*
X100118326Y-121258064D01*
X100213564Y-121305684D01*
X100261183Y-121353303D01*
X100308802Y-121448541D01*
X100308802Y-121496160D01*
X100261183Y-121591398D01*
X100213564Y-121639017D01*
X100118326Y-121686636D01*
X99927849Y-121686636D01*
X99832611Y-121734255D01*
X99784992Y-121781874D01*
X99737373Y-121877112D01*
X99737373Y-122067588D01*
X99784992Y-122162826D01*
X99832611Y-122210445D01*
X99927849Y-122258064D01*
X100118326Y-122258064D01*
X100213564Y-122210445D01*
X100261183Y-122162826D01*
X100308802Y-122067588D01*
X100308802Y-121877112D01*
X100261183Y-121781874D01*
X100213564Y-121734255D01*
X100118326Y-121686636D01*
G04 #@! TO.C,L1*
X84056421Y-133258064D02*
X83580230Y-133258064D01*
X83580230Y-132258064D01*
X84913564Y-133258064D02*
X84342135Y-133258064D01*
X84627849Y-133258064D02*
X84627849Y-132258064D01*
X84532611Y-132400922D01*
X84437373Y-132496160D01*
X84342135Y-132543779D01*
G04 #@! TO.C,P6*
X134804992Y-88208064D02*
X134804992Y-87208064D01*
X135185945Y-87208064D01*
X135281183Y-87255684D01*
X135328802Y-87303303D01*
X135376421Y-87398541D01*
X135376421Y-87541398D01*
X135328802Y-87636636D01*
X135281183Y-87684255D01*
X135185945Y-87731874D01*
X134804992Y-87731874D01*
X136233564Y-87208064D02*
X136043088Y-87208064D01*
X135947849Y-87255684D01*
X135900230Y-87303303D01*
X135804992Y-87446160D01*
X135757373Y-87636636D01*
X135757373Y-88017588D01*
X135804992Y-88112826D01*
X135852611Y-88160445D01*
X135947849Y-88208064D01*
X136138326Y-88208064D01*
X136233564Y-88160445D01*
X136281183Y-88112826D01*
X136328802Y-88017588D01*
X136328802Y-87779493D01*
X136281183Y-87684255D01*
X136233564Y-87636636D01*
X136138326Y-87589017D01*
X135947849Y-87589017D01*
X135852611Y-87636636D01*
X135804992Y-87684255D01*
X135757373Y-87779493D01*
G04 #@! TO.C,Q7*
X161487849Y-111153303D02*
X161392611Y-111105684D01*
X161297373Y-111010445D01*
X161154516Y-110867588D01*
X161059278Y-110819969D01*
X160964040Y-110819969D01*
X161011659Y-111058064D02*
X160916421Y-111010445D01*
X160821183Y-110915207D01*
X160773564Y-110724731D01*
X160773564Y-110391398D01*
X160821183Y-110200922D01*
X160916421Y-110105684D01*
X161011659Y-110058064D01*
X161202135Y-110058064D01*
X161297373Y-110105684D01*
X161392611Y-110200922D01*
X161440230Y-110391398D01*
X161440230Y-110724731D01*
X161392611Y-110915207D01*
X161297373Y-111010445D01*
X161202135Y-111058064D01*
X161011659Y-111058064D01*
X161773564Y-110058064D02*
X162440230Y-110058064D01*
X162011659Y-111058064D01*
G04 #@! TO.C,R18*
X167445468Y-115188541D02*
X166969278Y-115521874D01*
X167445468Y-115759969D02*
X166445468Y-115759969D01*
X166445468Y-115379017D01*
X166493088Y-115283779D01*
X166540707Y-115236160D01*
X166635945Y-115188541D01*
X166778802Y-115188541D01*
X166874040Y-115236160D01*
X166921659Y-115283779D01*
X166969278Y-115379017D01*
X166969278Y-115759969D01*
X167445468Y-114236160D02*
X167445468Y-114807588D01*
X167445468Y-114521874D02*
X166445468Y-114521874D01*
X166588326Y-114617112D01*
X166683564Y-114712350D01*
X166731183Y-114807588D01*
X166874040Y-113664731D02*
X166826421Y-113759969D01*
X166778802Y-113807588D01*
X166683564Y-113855207D01*
X166635945Y-113855207D01*
X166540707Y-113807588D01*
X166493088Y-113759969D01*
X166445468Y-113664731D01*
X166445468Y-113474255D01*
X166493088Y-113379017D01*
X166540707Y-113331398D01*
X166635945Y-113283779D01*
X166683564Y-113283779D01*
X166778802Y-113331398D01*
X166826421Y-113379017D01*
X166874040Y-113474255D01*
X166874040Y-113664731D01*
X166921659Y-113759969D01*
X166969278Y-113807588D01*
X167064516Y-113855207D01*
X167254992Y-113855207D01*
X167350230Y-113807588D01*
X167397849Y-113759969D01*
X167445468Y-113664731D01*
X167445468Y-113474255D01*
X167397849Y-113379017D01*
X167350230Y-113331398D01*
X167254992Y-113283779D01*
X167064516Y-113283779D01*
X166969278Y-113331398D01*
X166921659Y-113379017D01*
X166874040Y-113474255D01*
G04 #@! TO.C,MP1*
X122913564Y-114758064D02*
X122913564Y-113758064D01*
X123246897Y-114472350D01*
X123580230Y-113758064D01*
X123580230Y-114758064D01*
X124056421Y-114758064D02*
X124056421Y-113758064D01*
X124437373Y-113758064D01*
X124532611Y-113805684D01*
X124580230Y-113853303D01*
X124627849Y-113948541D01*
X124627849Y-114091398D01*
X124580230Y-114186636D01*
X124532611Y-114234255D01*
X124437373Y-114281874D01*
X124056421Y-114281874D01*
X125580230Y-114758064D02*
X125008802Y-114758064D01*
X125294516Y-114758064D02*
X125294516Y-113758064D01*
X125199278Y-113900922D01*
X125104040Y-113996160D01*
X125008802Y-114043779D01*
G04 #@! TO.C,MP2*
X113563564Y-108978064D02*
X113563564Y-107978064D01*
X113896897Y-108692350D01*
X114230230Y-107978064D01*
X114230230Y-108978064D01*
X114706421Y-108978064D02*
X114706421Y-107978064D01*
X115087373Y-107978064D01*
X115182611Y-108025684D01*
X115230230Y-108073303D01*
X115277849Y-108168541D01*
X115277849Y-108311398D01*
X115230230Y-108406636D01*
X115182611Y-108454255D01*
X115087373Y-108501874D01*
X114706421Y-108501874D01*
X115658802Y-108073303D02*
X115706421Y-108025684D01*
X115801659Y-107978064D01*
X116039754Y-107978064D01*
X116134992Y-108025684D01*
X116182611Y-108073303D01*
X116230230Y-108168541D01*
X116230230Y-108263779D01*
X116182611Y-108406636D01*
X115611183Y-108978064D01*
X116230230Y-108978064D01*
G04 #@! TO.C,MP3*
X127933564Y-117598064D02*
X127933564Y-116598064D01*
X128266897Y-117312350D01*
X128600230Y-116598064D01*
X128600230Y-117598064D01*
X129076421Y-117598064D02*
X129076421Y-116598064D01*
X129457373Y-116598064D01*
X129552611Y-116645684D01*
X129600230Y-116693303D01*
X129647849Y-116788541D01*
X129647849Y-116931398D01*
X129600230Y-117026636D01*
X129552611Y-117074255D01*
X129457373Y-117121874D01*
X129076421Y-117121874D01*
X129981183Y-116598064D02*
X130600230Y-116598064D01*
X130266897Y-116979017D01*
X130409754Y-116979017D01*
X130504992Y-117026636D01*
X130552611Y-117074255D01*
X130600230Y-117169493D01*
X130600230Y-117407588D01*
X130552611Y-117502826D01*
X130504992Y-117550445D01*
X130409754Y-117598064D01*
X130124040Y-117598064D01*
X130028802Y-117550445D01*
X129981183Y-117502826D01*
G04 #@! TO.C,MP4*
X127733564Y-115628064D02*
X127733564Y-114628064D01*
X128066897Y-115342350D01*
X128400230Y-114628064D01*
X128400230Y-115628064D01*
X128876421Y-115628064D02*
X128876421Y-114628064D01*
X129257373Y-114628064D01*
X129352611Y-114675684D01*
X129400230Y-114723303D01*
X129447849Y-114818541D01*
X129447849Y-114961398D01*
X129400230Y-115056636D01*
X129352611Y-115104255D01*
X129257373Y-115151874D01*
X128876421Y-115151874D01*
X130304992Y-114961398D02*
X130304992Y-115628064D01*
X130066897Y-114580445D02*
X129828802Y-115294731D01*
X130447849Y-115294731D01*
G04 #@! TO.C,MP5*
X146063564Y-109308064D02*
X146063564Y-108308064D01*
X146396897Y-109022350D01*
X146730230Y-108308064D01*
X146730230Y-109308064D01*
X147206421Y-109308064D02*
X147206421Y-108308064D01*
X147587373Y-108308064D01*
X147682611Y-108355684D01*
X147730230Y-108403303D01*
X147777849Y-108498541D01*
X147777849Y-108641398D01*
X147730230Y-108736636D01*
X147682611Y-108784255D01*
X147587373Y-108831874D01*
X147206421Y-108831874D01*
X148682611Y-108308064D02*
X148206421Y-108308064D01*
X148158802Y-108784255D01*
X148206421Y-108736636D01*
X148301659Y-108689017D01*
X148539754Y-108689017D01*
X148634992Y-108736636D01*
X148682611Y-108784255D01*
X148730230Y-108879493D01*
X148730230Y-109117588D01*
X148682611Y-109212826D01*
X148634992Y-109260445D01*
X148539754Y-109308064D01*
X148301659Y-109308064D01*
X148206421Y-109260445D01*
X148158802Y-109212826D01*
G04 #@! TO.C,MP6*
X141203564Y-113448064D02*
X141203564Y-112448064D01*
X141536897Y-113162350D01*
X141870230Y-112448064D01*
X141870230Y-113448064D01*
X142346421Y-113448064D02*
X142346421Y-112448064D01*
X142727373Y-112448064D01*
X142822611Y-112495684D01*
X142870230Y-112543303D01*
X142917849Y-112638541D01*
X142917849Y-112781398D01*
X142870230Y-112876636D01*
X142822611Y-112924255D01*
X142727373Y-112971874D01*
X142346421Y-112971874D01*
X143774992Y-112448064D02*
X143584516Y-112448064D01*
X143489278Y-112495684D01*
X143441659Y-112543303D01*
X143346421Y-112686160D01*
X143298802Y-112876636D01*
X143298802Y-113257588D01*
X143346421Y-113352826D01*
X143394040Y-113400445D01*
X143489278Y-113448064D01*
X143679754Y-113448064D01*
X143774992Y-113400445D01*
X143822611Y-113352826D01*
X143870230Y-113257588D01*
X143870230Y-113019493D01*
X143822611Y-112924255D01*
X143774992Y-112876636D01*
X143679754Y-112829017D01*
X143489278Y-112829017D01*
X143394040Y-112876636D01*
X143346421Y-112924255D01*
X143298802Y-113019493D01*
G04 #@! TO.C,MP7*
X139583564Y-117938064D02*
X139583564Y-116938064D01*
X139916897Y-117652350D01*
X140250230Y-116938064D01*
X140250230Y-117938064D01*
X140726421Y-117938064D02*
X140726421Y-116938064D01*
X141107373Y-116938064D01*
X141202611Y-116985684D01*
X141250230Y-117033303D01*
X141297849Y-117128541D01*
X141297849Y-117271398D01*
X141250230Y-117366636D01*
X141202611Y-117414255D01*
X141107373Y-117461874D01*
X140726421Y-117461874D01*
X141631183Y-116938064D02*
X142297849Y-116938064D01*
X141869278Y-117938064D01*
G04 #@! TO.C,MP8*
X134703564Y-119698064D02*
X134703564Y-118698064D01*
X135036897Y-119412350D01*
X135370230Y-118698064D01*
X135370230Y-119698064D01*
X135846421Y-119698064D02*
X135846421Y-118698064D01*
X136227373Y-118698064D01*
X136322611Y-118745684D01*
X136370230Y-118793303D01*
X136417849Y-118888541D01*
X136417849Y-119031398D01*
X136370230Y-119126636D01*
X136322611Y-119174255D01*
X136227373Y-119221874D01*
X135846421Y-119221874D01*
X136989278Y-119126636D02*
X136894040Y-119079017D01*
X136846421Y-119031398D01*
X136798802Y-118936160D01*
X136798802Y-118888541D01*
X136846421Y-118793303D01*
X136894040Y-118745684D01*
X136989278Y-118698064D01*
X137179754Y-118698064D01*
X137274992Y-118745684D01*
X137322611Y-118793303D01*
X137370230Y-118888541D01*
X137370230Y-118936160D01*
X137322611Y-119031398D01*
X137274992Y-119079017D01*
X137179754Y-119126636D01*
X136989278Y-119126636D01*
X136894040Y-119174255D01*
X136846421Y-119221874D01*
X136798802Y-119317112D01*
X136798802Y-119507588D01*
X136846421Y-119602826D01*
X136894040Y-119650445D01*
X136989278Y-119698064D01*
X137179754Y-119698064D01*
X137274992Y-119650445D01*
X137322611Y-119602826D01*
X137370230Y-119507588D01*
X137370230Y-119317112D01*
X137322611Y-119221874D01*
X137274992Y-119174255D01*
X137179754Y-119126636D01*
G04 #@! TO.C,MP9*
X132213564Y-121488064D02*
X132213564Y-120488064D01*
X132546897Y-121202350D01*
X132880230Y-120488064D01*
X132880230Y-121488064D01*
X133356421Y-121488064D02*
X133356421Y-120488064D01*
X133737373Y-120488064D01*
X133832611Y-120535684D01*
X133880230Y-120583303D01*
X133927849Y-120678541D01*
X133927849Y-120821398D01*
X133880230Y-120916636D01*
X133832611Y-120964255D01*
X133737373Y-121011874D01*
X133356421Y-121011874D01*
X134404040Y-121488064D02*
X134594516Y-121488064D01*
X134689754Y-121440445D01*
X134737373Y-121392826D01*
X134832611Y-121249969D01*
X134880230Y-121059493D01*
X134880230Y-120678541D01*
X134832611Y-120583303D01*
X134784992Y-120535684D01*
X134689754Y-120488064D01*
X134499278Y-120488064D01*
X134404040Y-120535684D01*
X134356421Y-120583303D01*
X134308802Y-120678541D01*
X134308802Y-120916636D01*
X134356421Y-121011874D01*
X134404040Y-121059493D01*
X134499278Y-121107112D01*
X134689754Y-121107112D01*
X134784992Y-121059493D01*
X134832611Y-121011874D01*
X134880230Y-120916636D01*
G04 #@! TD*
M02*
