G04 #@! TF.GenerationSoftware,KiCad,Pcbnew,(5.1.2)-2*
G04 #@! TF.CreationDate,2019-10-03T15:28:12-06:00*
G04 #@! TF.ProjectId,MagSensor,4d616753-656e-4736-9f72-2e6b69636164,rev?*
G04 #@! TF.SameCoordinates,Original*
G04 #@! TF.FileFunction,Legend,Bot*
G04 #@! TF.FilePolarity,Positive*
%FSLAX46Y46*%
G04 Gerber Fmt 4.6, Leading zero omitted, Abs format (unit mm)*
G04 Created by KiCad (PCBNEW (5.1.2)-2) date 2019-10-03 15:28:12*
%MOMM*%
%LPD*%
G04 APERTURE LIST*
%ADD10C,1.000000*%
%ADD11C,0.300000*%
%ADD12C,0.200000*%
%ADD13C,0.100000*%
%ADD14C,0.120000*%
%ADD15C,0.150000*%
%ADD16C,0.127000*%
G04 APERTURE END LIST*
D10*
X179323088Y-176705684D02*
X65323088Y-176705684D01*
X179323088Y-76705684D02*
X65323088Y-76705684D01*
D11*
X160582459Y-136027455D02*
X160582459Y-134527455D01*
X160082459Y-135598884D01*
X159582459Y-134527455D01*
X159582459Y-136027455D01*
X158939602Y-135956026D02*
X158725316Y-136027455D01*
X158368173Y-136027455D01*
X158225316Y-135956026D01*
X158153888Y-135884598D01*
X158082459Y-135741741D01*
X158082459Y-135598884D01*
X158153888Y-135456026D01*
X158225316Y-135384598D01*
X158368173Y-135313169D01*
X158653888Y-135241741D01*
X158796745Y-135170312D01*
X158868173Y-135098884D01*
X158939602Y-134956026D01*
X158939602Y-134813169D01*
X158868173Y-134670312D01*
X158796745Y-134598884D01*
X158653888Y-134527455D01*
X158296745Y-134527455D01*
X158082459Y-134598884D01*
X157439602Y-136027455D02*
X157439602Y-135027455D01*
X157439602Y-135170312D02*
X157368173Y-135098884D01*
X157225316Y-135027455D01*
X157011030Y-135027455D01*
X156868173Y-135098884D01*
X156796745Y-135241741D01*
X156796745Y-136027455D01*
X156796745Y-135241741D02*
X156725316Y-135098884D01*
X156582459Y-135027455D01*
X156368173Y-135027455D01*
X156225316Y-135098884D01*
X156153888Y-135241741D01*
X156153888Y-136027455D01*
X155511030Y-134670312D02*
X155439602Y-134598884D01*
X155296745Y-134527455D01*
X154939602Y-134527455D01*
X154796745Y-134598884D01*
X154725316Y-134670312D01*
X154653888Y-134813169D01*
X154653888Y-134956026D01*
X154725316Y-135170312D01*
X155582459Y-136027455D01*
X154653888Y-136027455D01*
X93653459Y-119619055D02*
X93653459Y-118119055D01*
X93153459Y-119190484D01*
X92653459Y-118119055D01*
X92653459Y-119619055D01*
X92010602Y-119547626D02*
X91796316Y-119619055D01*
X91439173Y-119619055D01*
X91296316Y-119547626D01*
X91224888Y-119476198D01*
X91153459Y-119333341D01*
X91153459Y-119190484D01*
X91224888Y-119047626D01*
X91296316Y-118976198D01*
X91439173Y-118904769D01*
X91724888Y-118833341D01*
X91867745Y-118761912D01*
X91939173Y-118690484D01*
X92010602Y-118547626D01*
X92010602Y-118404769D01*
X91939173Y-118261912D01*
X91867745Y-118190484D01*
X91724888Y-118119055D01*
X91367745Y-118119055D01*
X91153459Y-118190484D01*
X90510602Y-119619055D02*
X90510602Y-118619055D01*
X90510602Y-118761912D02*
X90439173Y-118690484D01*
X90296316Y-118619055D01*
X90082030Y-118619055D01*
X89939173Y-118690484D01*
X89867745Y-118833341D01*
X89867745Y-119619055D01*
X89867745Y-118833341D02*
X89796316Y-118690484D01*
X89653459Y-118619055D01*
X89439173Y-118619055D01*
X89296316Y-118690484D01*
X89224888Y-118833341D01*
X89224888Y-119619055D01*
X87724888Y-119619055D02*
X88582030Y-119619055D01*
X88153459Y-119619055D02*
X88153459Y-118119055D01*
X88296316Y-118333341D01*
X88439173Y-118476198D01*
X88582030Y-118547626D01*
D12*
X125873088Y-102645684D02*
X125675288Y-104075684D01*
D11*
X106895945Y-95284255D02*
X106895945Y-93784255D01*
X106253088Y-93927112D02*
X106181659Y-93855684D01*
X106038802Y-93784255D01*
X105681659Y-93784255D01*
X105538802Y-93855684D01*
X105467373Y-93927112D01*
X105395945Y-94069969D01*
X105395945Y-94212826D01*
X105467373Y-94427112D01*
X106324516Y-95284255D01*
X105395945Y-95284255D01*
X103895945Y-95141398D02*
X103967373Y-95212826D01*
X104181659Y-95284255D01*
X104324516Y-95284255D01*
X104538802Y-95212826D01*
X104681659Y-95069969D01*
X104753088Y-94927112D01*
X104824516Y-94641398D01*
X104824516Y-94427112D01*
X104753088Y-94141398D01*
X104681659Y-93998541D01*
X104538802Y-93855684D01*
X104324516Y-93784255D01*
X104181659Y-93784255D01*
X103967373Y-93855684D01*
X103895945Y-93927112D01*
X102610230Y-95284255D02*
X102610230Y-93784255D01*
X102610230Y-95212826D02*
X102753088Y-95284255D01*
X103038802Y-95284255D01*
X103181659Y-95212826D01*
X103253088Y-95141398D01*
X103324516Y-94998541D01*
X103324516Y-94569969D01*
X103253088Y-94427112D01*
X103181659Y-94355684D01*
X103038802Y-94284255D01*
X102753088Y-94284255D01*
X102610230Y-94355684D01*
X115133230Y-90155055D02*
X115133230Y-88655055D01*
X114490373Y-88797912D02*
X114418945Y-88726484D01*
X114276088Y-88655055D01*
X113918945Y-88655055D01*
X113776088Y-88726484D01*
X113704659Y-88797912D01*
X113633230Y-88940769D01*
X113633230Y-89083626D01*
X113704659Y-89297912D01*
X114561802Y-90155055D01*
X113633230Y-90155055D01*
X112133230Y-90012198D02*
X112204659Y-90083626D01*
X112418945Y-90155055D01*
X112561802Y-90155055D01*
X112776088Y-90083626D01*
X112918945Y-89940769D01*
X112990373Y-89797912D01*
X113061802Y-89512198D01*
X113061802Y-89297912D01*
X112990373Y-89012198D01*
X112918945Y-88869341D01*
X112776088Y-88726484D01*
X112561802Y-88655055D01*
X112418945Y-88655055D01*
X112204659Y-88726484D01*
X112133230Y-88797912D01*
X110847516Y-90083626D02*
X110990373Y-90155055D01*
X111276088Y-90155055D01*
X111418945Y-90083626D01*
X111490373Y-90012198D01*
X111561802Y-89869341D01*
X111561802Y-89440769D01*
X111490373Y-89297912D01*
X111418945Y-89226484D01*
X111276088Y-89155055D01*
X110990373Y-89155055D01*
X110847516Y-89226484D01*
D12*
X111943564Y-116788064D02*
X111610230Y-117788064D01*
X111276897Y-116788064D01*
X110610230Y-117264255D02*
X110467373Y-117311874D01*
X110419754Y-117359493D01*
X110372135Y-117454731D01*
X110372135Y-117597588D01*
X110419754Y-117692826D01*
X110467373Y-117740445D01*
X110562611Y-117788064D01*
X110943564Y-117788064D01*
X110943564Y-116788064D01*
X110610230Y-116788064D01*
X110514992Y-116835684D01*
X110467373Y-116883303D01*
X110419754Y-116978541D01*
X110419754Y-117073779D01*
X110467373Y-117169017D01*
X110514992Y-117216636D01*
X110610230Y-117264255D01*
X110943564Y-117264255D01*
X109991183Y-117502350D02*
X109514992Y-117502350D01*
X110086421Y-117788064D02*
X109753088Y-116788064D01*
X109419754Y-117788064D01*
X109229278Y-116788064D02*
X108657849Y-116788064D01*
X108943564Y-117788064D02*
X108943564Y-116788064D01*
X108562611Y-117883303D02*
X107800707Y-117883303D01*
X107562611Y-117788064D02*
X107562611Y-116788064D01*
X107324516Y-116788064D01*
X107181659Y-116835684D01*
X107086421Y-116930922D01*
X107038802Y-117026160D01*
X106991183Y-117216636D01*
X106991183Y-117359493D01*
X107038802Y-117549969D01*
X107086421Y-117645207D01*
X107181659Y-117740445D01*
X107324516Y-117788064D01*
X107562611Y-117788064D01*
X106562611Y-117788064D02*
X106562611Y-116788064D01*
X106229278Y-116788064D02*
X105895945Y-117788064D01*
X105562611Y-116788064D01*
X161711183Y-106578064D02*
X161139754Y-106578064D01*
X161425468Y-107578064D02*
X161425468Y-106578064D01*
X160806421Y-107578064D02*
X160806421Y-106578064D01*
X160425468Y-106578064D01*
X160330230Y-106625684D01*
X160282611Y-106673303D01*
X160234992Y-106768541D01*
X160234992Y-106911398D01*
X160282611Y-107006636D01*
X160330230Y-107054255D01*
X160425468Y-107101874D01*
X160806421Y-107101874D01*
X159282611Y-107578064D02*
X159854040Y-107578064D01*
X159568326Y-107578064D02*
X159568326Y-106578064D01*
X159663564Y-106720922D01*
X159758802Y-106816160D01*
X159854040Y-106863779D01*
X158330230Y-107578064D02*
X158901659Y-107578064D01*
X158615945Y-107578064D02*
X158615945Y-106578064D01*
X158711183Y-106720922D01*
X158806421Y-106816160D01*
X158901659Y-106863779D01*
X143837783Y-127581255D02*
X143694926Y-127628874D01*
X143647307Y-127676493D01*
X143599688Y-127771731D01*
X143599688Y-127914588D01*
X143647307Y-128009826D01*
X143694926Y-128057445D01*
X143790164Y-128105064D01*
X144171116Y-128105064D01*
X144171116Y-127105064D01*
X143837783Y-127105064D01*
X143742545Y-127152684D01*
X143694926Y-127200303D01*
X143647307Y-127295541D01*
X143647307Y-127390779D01*
X143694926Y-127486017D01*
X143742545Y-127533636D01*
X143837783Y-127581255D01*
X144171116Y-127581255D01*
X143218735Y-127819350D02*
X142742545Y-127819350D01*
X143313973Y-128105064D02*
X142980640Y-127105064D01*
X142647307Y-128105064D01*
X142456830Y-127105064D02*
X141885402Y-127105064D01*
X142171116Y-128105064D02*
X142171116Y-127105064D01*
X112951049Y-123669655D02*
X112808192Y-123717274D01*
X112760573Y-123764893D01*
X112712954Y-123860131D01*
X112712954Y-124002988D01*
X112760573Y-124098226D01*
X112808192Y-124145845D01*
X112903430Y-124193464D01*
X113284383Y-124193464D01*
X113284383Y-123193464D01*
X112951049Y-123193464D01*
X112855811Y-123241084D01*
X112808192Y-123288703D01*
X112760573Y-123383941D01*
X112760573Y-123479179D01*
X112808192Y-123574417D01*
X112855811Y-123622036D01*
X112951049Y-123669655D01*
X113284383Y-123669655D01*
X112332002Y-123907750D02*
X111855811Y-123907750D01*
X112427240Y-124193464D02*
X112093907Y-123193464D01*
X111760573Y-124193464D01*
X110855811Y-124098226D02*
X110903430Y-124145845D01*
X111046288Y-124193464D01*
X111141526Y-124193464D01*
X111284383Y-124145845D01*
X111379621Y-124050607D01*
X111427240Y-123955369D01*
X111474859Y-123764893D01*
X111474859Y-123622036D01*
X111427240Y-123431560D01*
X111379621Y-123336322D01*
X111284383Y-123241084D01*
X111141526Y-123193464D01*
X111046288Y-123193464D01*
X110903430Y-123241084D01*
X110855811Y-123288703D01*
X110427240Y-124193464D02*
X110427240Y-123193464D01*
X109855811Y-124193464D02*
X110284383Y-123622036D01*
X109855811Y-123193464D02*
X110427240Y-123764893D01*
X108951049Y-124193464D02*
X109427240Y-124193464D01*
X109427240Y-123193464D01*
X108617716Y-124193464D02*
X108617716Y-123193464D01*
X107617716Y-123241084D02*
X107712954Y-123193464D01*
X107855811Y-123193464D01*
X107998668Y-123241084D01*
X108093907Y-123336322D01*
X108141526Y-123431560D01*
X108189145Y-123622036D01*
X108189145Y-123764893D01*
X108141526Y-123955369D01*
X108093907Y-124050607D01*
X107998668Y-124145845D01*
X107855811Y-124193464D01*
X107760573Y-124193464D01*
X107617716Y-124145845D01*
X107570097Y-124098226D01*
X107570097Y-123764893D01*
X107760573Y-123764893D01*
X107141526Y-124193464D02*
X107141526Y-123193464D01*
X107141526Y-123669655D02*
X106570097Y-123669655D01*
X106570097Y-124193464D02*
X106570097Y-123193464D01*
X106236764Y-123193464D02*
X105665335Y-123193464D01*
X105951049Y-124193464D02*
X105951049Y-123193464D01*
X106664992Y-110438064D02*
X106093564Y-110438064D01*
X106379278Y-111438064D02*
X106379278Y-110438064D01*
X105760230Y-111438064D02*
X105760230Y-110438064D01*
X105379278Y-110438064D01*
X105284040Y-110485684D01*
X105236421Y-110533303D01*
X105188802Y-110628541D01*
X105188802Y-110771398D01*
X105236421Y-110866636D01*
X105284040Y-110914255D01*
X105379278Y-110961874D01*
X105760230Y-110961874D01*
X104807849Y-110533303D02*
X104760230Y-110485684D01*
X104664992Y-110438064D01*
X104426897Y-110438064D01*
X104331659Y-110485684D01*
X104284040Y-110533303D01*
X104236421Y-110628541D01*
X104236421Y-110723779D01*
X104284040Y-110866636D01*
X104855468Y-111438064D01*
X104236421Y-111438064D01*
X107304992Y-107918064D02*
X106733564Y-107918064D01*
X107019278Y-108918064D02*
X107019278Y-107918064D01*
X106400230Y-108918064D02*
X106400230Y-107918064D01*
X106019278Y-107918064D01*
X105924040Y-107965684D01*
X105876421Y-108013303D01*
X105828802Y-108108541D01*
X105828802Y-108251398D01*
X105876421Y-108346636D01*
X105924040Y-108394255D01*
X106019278Y-108441874D01*
X106400230Y-108441874D01*
X104924040Y-107918064D02*
X105400230Y-107918064D01*
X105447849Y-108394255D01*
X105400230Y-108346636D01*
X105304992Y-108299017D01*
X105066897Y-108299017D01*
X104971659Y-108346636D01*
X104924040Y-108394255D01*
X104876421Y-108489493D01*
X104876421Y-108727588D01*
X104924040Y-108822826D01*
X104971659Y-108870445D01*
X105066897Y-108918064D01*
X105304992Y-108918064D01*
X105400230Y-108870445D01*
X105447849Y-108822826D01*
X108884992Y-105678064D02*
X108313564Y-105678064D01*
X108599278Y-106678064D02*
X108599278Y-105678064D01*
X107980230Y-106678064D02*
X107980230Y-105678064D01*
X107599278Y-105678064D01*
X107504040Y-105725684D01*
X107456421Y-105773303D01*
X107408802Y-105868541D01*
X107408802Y-106011398D01*
X107456421Y-106106636D01*
X107504040Y-106154255D01*
X107599278Y-106201874D01*
X107980230Y-106201874D01*
X106551659Y-105678064D02*
X106742135Y-105678064D01*
X106837373Y-105725684D01*
X106884992Y-105773303D01*
X106980230Y-105916160D01*
X107027849Y-106106636D01*
X107027849Y-106487588D01*
X106980230Y-106582826D01*
X106932611Y-106630445D01*
X106837373Y-106678064D01*
X106646897Y-106678064D01*
X106551659Y-106630445D01*
X106504040Y-106582826D01*
X106456421Y-106487588D01*
X106456421Y-106249493D01*
X106504040Y-106154255D01*
X106551659Y-106106636D01*
X106646897Y-106059017D01*
X106837373Y-106059017D01*
X106932611Y-106106636D01*
X106980230Y-106154255D01*
X107027849Y-106249493D01*
X116104992Y-106298064D02*
X115533564Y-106298064D01*
X115819278Y-107298064D02*
X115819278Y-106298064D01*
X115200230Y-107298064D02*
X115200230Y-106298064D01*
X114819278Y-106298064D01*
X114724040Y-106345684D01*
X114676421Y-106393303D01*
X114628802Y-106488541D01*
X114628802Y-106631398D01*
X114676421Y-106726636D01*
X114724040Y-106774255D01*
X114819278Y-106821874D01*
X115200230Y-106821874D01*
X114295468Y-106298064D02*
X113676421Y-106298064D01*
X114009754Y-106679017D01*
X113866897Y-106679017D01*
X113771659Y-106726636D01*
X113724040Y-106774255D01*
X113676421Y-106869493D01*
X113676421Y-107107588D01*
X113724040Y-107202826D01*
X113771659Y-107250445D01*
X113866897Y-107298064D01*
X114152611Y-107298064D01*
X114247849Y-107250445D01*
X114295468Y-107202826D01*
X162280935Y-137565264D02*
X161709507Y-137565264D01*
X161995221Y-138565264D02*
X161995221Y-137565264D01*
X161376173Y-138565264D02*
X161376173Y-137565264D01*
X160995221Y-137565264D01*
X160899983Y-137612884D01*
X160852364Y-137660503D01*
X160804745Y-137755741D01*
X160804745Y-137898598D01*
X160852364Y-137993836D01*
X160899983Y-138041455D01*
X160995221Y-138089074D01*
X161376173Y-138089074D01*
X159852364Y-138565264D02*
X160423792Y-138565264D01*
X160138078Y-138565264D02*
X160138078Y-137565264D01*
X160233316Y-137708122D01*
X160328554Y-137803360D01*
X160423792Y-137850979D01*
X159423792Y-138470026D02*
X159376173Y-138517645D01*
X159423792Y-138565264D01*
X159471411Y-138517645D01*
X159423792Y-138470026D01*
X159423792Y-138565264D01*
X159423792Y-137946217D02*
X159376173Y-137993836D01*
X159423792Y-138041455D01*
X159471411Y-137993836D01*
X159423792Y-137946217D01*
X159423792Y-138041455D01*
X157709507Y-138565264D02*
X158185697Y-138565264D01*
X158185697Y-137565264D01*
X156804745Y-138470026D02*
X156852364Y-138517645D01*
X156995221Y-138565264D01*
X157090459Y-138565264D01*
X157233316Y-138517645D01*
X157328554Y-138422407D01*
X157376173Y-138327169D01*
X157423792Y-138136693D01*
X157423792Y-137993836D01*
X157376173Y-137803360D01*
X157328554Y-137708122D01*
X157233316Y-137612884D01*
X157090459Y-137565264D01*
X156995221Y-137565264D01*
X156852364Y-137612884D01*
X156804745Y-137660503D01*
X156376173Y-138565264D02*
X156376173Y-137565264D01*
X156138078Y-137565264D01*
X155995221Y-137612884D01*
X155899983Y-137708122D01*
X155852364Y-137803360D01*
X155804745Y-137993836D01*
X155804745Y-138136693D01*
X155852364Y-138327169D01*
X155899983Y-138422407D01*
X155995221Y-138517645D01*
X156138078Y-138565264D01*
X156376173Y-138565264D01*
X154947602Y-138517645D02*
X155042840Y-138565264D01*
X155233316Y-138565264D01*
X155328554Y-138517645D01*
X155376173Y-138470026D01*
X155423792Y-138374788D01*
X155423792Y-138089074D01*
X155376173Y-137993836D01*
X155328554Y-137946217D01*
X155233316Y-137898598D01*
X155042840Y-137898598D01*
X154947602Y-137946217D01*
X154566649Y-138517645D02*
X154471411Y-138565264D01*
X154280935Y-138565264D01*
X154185697Y-138517645D01*
X154138078Y-138422407D01*
X154138078Y-138374788D01*
X154185697Y-138279550D01*
X154280935Y-138231931D01*
X154423792Y-138231931D01*
X154519030Y-138184312D01*
X154566649Y-138089074D01*
X154566649Y-138041455D01*
X154519030Y-137946217D01*
X154423792Y-137898598D01*
X154280935Y-137898598D01*
X154185697Y-137946217D01*
X161923792Y-139265264D02*
X161352364Y-139265264D01*
X161638078Y-140265264D02*
X161638078Y-139265264D01*
X161019030Y-140265264D02*
X161019030Y-139265264D01*
X160638078Y-139265264D01*
X160542840Y-139312884D01*
X160495221Y-139360503D01*
X160447602Y-139455741D01*
X160447602Y-139598598D01*
X160495221Y-139693836D01*
X160542840Y-139741455D01*
X160638078Y-139789074D01*
X161019030Y-139789074D01*
X160066649Y-139360503D02*
X160019030Y-139312884D01*
X159923792Y-139265264D01*
X159685697Y-139265264D01*
X159590459Y-139312884D01*
X159542840Y-139360503D01*
X159495221Y-139455741D01*
X159495221Y-139550979D01*
X159542840Y-139693836D01*
X160114268Y-140265264D01*
X159495221Y-140265264D01*
X159066649Y-140170026D02*
X159019030Y-140217645D01*
X159066649Y-140265264D01*
X159114268Y-140217645D01*
X159066649Y-140170026D01*
X159066649Y-140265264D01*
X159066649Y-139646217D02*
X159019030Y-139693836D01*
X159066649Y-139741455D01*
X159114268Y-139693836D01*
X159066649Y-139646217D01*
X159066649Y-139741455D01*
X158638078Y-139979550D02*
X158161888Y-139979550D01*
X158733316Y-140265264D02*
X158399983Y-139265264D01*
X158066649Y-140265264D01*
X157161888Y-140170026D02*
X157209507Y-140217645D01*
X157352364Y-140265264D01*
X157447602Y-140265264D01*
X157590459Y-140217645D01*
X157685697Y-140122407D01*
X157733316Y-140027169D01*
X157780935Y-139836693D01*
X157780935Y-139693836D01*
X157733316Y-139503360D01*
X157685697Y-139408122D01*
X157590459Y-139312884D01*
X157447602Y-139265264D01*
X157352364Y-139265264D01*
X157209507Y-139312884D01*
X157161888Y-139360503D01*
X156161888Y-140170026D02*
X156209507Y-140217645D01*
X156352364Y-140265264D01*
X156447602Y-140265264D01*
X156590459Y-140217645D01*
X156685697Y-140122407D01*
X156733316Y-140027169D01*
X156780935Y-139836693D01*
X156780935Y-139693836D01*
X156733316Y-139503360D01*
X156685697Y-139408122D01*
X156590459Y-139312884D01*
X156447602Y-139265264D01*
X156352364Y-139265264D01*
X156209507Y-139312884D01*
X156161888Y-139360503D01*
X155304745Y-140217645D02*
X155399983Y-140265264D01*
X155590459Y-140265264D01*
X155685697Y-140217645D01*
X155733316Y-140170026D01*
X155780935Y-140074788D01*
X155780935Y-139789074D01*
X155733316Y-139693836D01*
X155685697Y-139646217D01*
X155590459Y-139598598D01*
X155399983Y-139598598D01*
X155304745Y-139646217D01*
X154923792Y-140217645D02*
X154828554Y-140265264D01*
X154638078Y-140265264D01*
X154542840Y-140217645D01*
X154495221Y-140122407D01*
X154495221Y-140074788D01*
X154542840Y-139979550D01*
X154638078Y-139931931D01*
X154780935Y-139931931D01*
X154876173Y-139884312D01*
X154923792Y-139789074D01*
X154923792Y-139741455D01*
X154876173Y-139646217D01*
X154780935Y-139598598D01*
X154638078Y-139598598D01*
X154542840Y-139646217D01*
X161471411Y-140965264D02*
X160899983Y-140965264D01*
X161185697Y-141965264D02*
X161185697Y-140965264D01*
X160566649Y-141965264D02*
X160566649Y-140965264D01*
X160185697Y-140965264D01*
X160090459Y-141012884D01*
X160042840Y-141060503D01*
X159995221Y-141155741D01*
X159995221Y-141298598D01*
X160042840Y-141393836D01*
X160090459Y-141441455D01*
X160185697Y-141489074D01*
X160566649Y-141489074D01*
X159661888Y-140965264D02*
X159042840Y-140965264D01*
X159376173Y-141346217D01*
X159233316Y-141346217D01*
X159138078Y-141393836D01*
X159090459Y-141441455D01*
X159042840Y-141536693D01*
X159042840Y-141774788D01*
X159090459Y-141870026D01*
X159138078Y-141917645D01*
X159233316Y-141965264D01*
X159519030Y-141965264D01*
X159614268Y-141917645D01*
X159661888Y-141870026D01*
X158614268Y-141870026D02*
X158566649Y-141917645D01*
X158614268Y-141965264D01*
X158661888Y-141917645D01*
X158614268Y-141870026D01*
X158614268Y-141965264D01*
X158614268Y-141346217D02*
X158566649Y-141393836D01*
X158614268Y-141441455D01*
X158661888Y-141393836D01*
X158614268Y-141346217D01*
X158614268Y-141441455D01*
X158138078Y-141965264D02*
X158138078Y-140965264D01*
X157804745Y-141679550D01*
X157471411Y-140965264D01*
X157471411Y-141965264D01*
X156995221Y-141965264D02*
X156995221Y-140965264D01*
X156566649Y-141917645D02*
X156423792Y-141965264D01*
X156185697Y-141965264D01*
X156090459Y-141917645D01*
X156042840Y-141870026D01*
X155995221Y-141774788D01*
X155995221Y-141679550D01*
X156042840Y-141584312D01*
X156090459Y-141536693D01*
X156185697Y-141489074D01*
X156376173Y-141441455D01*
X156471411Y-141393836D01*
X156519030Y-141346217D01*
X156566649Y-141250979D01*
X156566649Y-141155741D01*
X156519030Y-141060503D01*
X156471411Y-141012884D01*
X156376173Y-140965264D01*
X156138078Y-140965264D01*
X155995221Y-141012884D01*
X155376173Y-140965264D02*
X155185697Y-140965264D01*
X155090459Y-141012884D01*
X154995221Y-141108122D01*
X154947602Y-141298598D01*
X154947602Y-141631931D01*
X154995221Y-141822407D01*
X155090459Y-141917645D01*
X155185697Y-141965264D01*
X155376173Y-141965264D01*
X155471411Y-141917645D01*
X155566649Y-141822407D01*
X155614268Y-141631931D01*
X155614268Y-141298598D01*
X155566649Y-141108122D01*
X155471411Y-141012884D01*
X155376173Y-140965264D01*
X161066649Y-142665264D02*
X160495221Y-142665264D01*
X160780935Y-143665264D02*
X160780935Y-142665264D01*
X160161888Y-143665264D02*
X160161888Y-142665264D01*
X159780935Y-142665264D01*
X159685697Y-142712884D01*
X159638078Y-142760503D01*
X159590459Y-142855741D01*
X159590459Y-142998598D01*
X159638078Y-143093836D01*
X159685697Y-143141455D01*
X159780935Y-143189074D01*
X160161888Y-143189074D01*
X158685697Y-142665264D02*
X159161888Y-142665264D01*
X159209507Y-143141455D01*
X159161888Y-143093836D01*
X159066649Y-143046217D01*
X158828554Y-143046217D01*
X158733316Y-143093836D01*
X158685697Y-143141455D01*
X158638078Y-143236693D01*
X158638078Y-143474788D01*
X158685697Y-143570026D01*
X158733316Y-143617645D01*
X158828554Y-143665264D01*
X159066649Y-143665264D01*
X159161888Y-143617645D01*
X159209507Y-143570026D01*
X158209507Y-143570026D02*
X158161888Y-143617645D01*
X158209507Y-143665264D01*
X158257126Y-143617645D01*
X158209507Y-143570026D01*
X158209507Y-143665264D01*
X158209507Y-143046217D02*
X158161888Y-143093836D01*
X158209507Y-143141455D01*
X158257126Y-143093836D01*
X158209507Y-143046217D01*
X158209507Y-143141455D01*
X157161888Y-143570026D02*
X157209507Y-143617645D01*
X157352364Y-143665264D01*
X157447602Y-143665264D01*
X157590459Y-143617645D01*
X157685697Y-143522407D01*
X157733316Y-143427169D01*
X157780935Y-143236693D01*
X157780935Y-143093836D01*
X157733316Y-142903360D01*
X157685697Y-142808122D01*
X157590459Y-142712884D01*
X157447602Y-142665264D01*
X157352364Y-142665264D01*
X157209507Y-142712884D01*
X157161888Y-142760503D01*
X156257126Y-143665264D02*
X156733316Y-143665264D01*
X156733316Y-142665264D01*
X155923792Y-143665264D02*
X155923792Y-142665264D01*
X155352364Y-143665264D02*
X155780935Y-143093836D01*
X155352364Y-142665264D02*
X155923792Y-143236693D01*
X161471411Y-144365264D02*
X160899983Y-144365264D01*
X161185697Y-145365264D02*
X161185697Y-144365264D01*
X160566649Y-145365264D02*
X160566649Y-144365264D01*
X160185697Y-144365264D01*
X160090459Y-144412884D01*
X160042840Y-144460503D01*
X159995221Y-144555741D01*
X159995221Y-144698598D01*
X160042840Y-144793836D01*
X160090459Y-144841455D01*
X160185697Y-144889074D01*
X160566649Y-144889074D01*
X159138078Y-144365264D02*
X159328554Y-144365264D01*
X159423792Y-144412884D01*
X159471411Y-144460503D01*
X159566649Y-144603360D01*
X159614268Y-144793836D01*
X159614268Y-145174788D01*
X159566649Y-145270026D01*
X159519030Y-145317645D01*
X159423792Y-145365264D01*
X159233316Y-145365264D01*
X159138078Y-145317645D01*
X159090459Y-145270026D01*
X159042840Y-145174788D01*
X159042840Y-144936693D01*
X159090459Y-144841455D01*
X159138078Y-144793836D01*
X159233316Y-144746217D01*
X159423792Y-144746217D01*
X159519030Y-144793836D01*
X159566649Y-144841455D01*
X159614268Y-144936693D01*
X158614268Y-145270026D02*
X158566649Y-145317645D01*
X158614268Y-145365264D01*
X158661888Y-145317645D01*
X158614268Y-145270026D01*
X158614268Y-145365264D01*
X158614268Y-144746217D02*
X158566649Y-144793836D01*
X158614268Y-144841455D01*
X158661888Y-144793836D01*
X158614268Y-144746217D01*
X158614268Y-144841455D01*
X158138078Y-145365264D02*
X158138078Y-144365264D01*
X157804745Y-145079550D01*
X157471411Y-144365264D01*
X157471411Y-145365264D01*
X156804745Y-144365264D02*
X156614268Y-144365264D01*
X156519030Y-144412884D01*
X156423792Y-144508122D01*
X156376173Y-144698598D01*
X156376173Y-145031931D01*
X156423792Y-145222407D01*
X156519030Y-145317645D01*
X156614268Y-145365264D01*
X156804745Y-145365264D01*
X156899983Y-145317645D01*
X156995221Y-145222407D01*
X157042840Y-145031931D01*
X157042840Y-144698598D01*
X156995221Y-144508122D01*
X156899983Y-144412884D01*
X156804745Y-144365264D01*
X155995221Y-145317645D02*
X155852364Y-145365264D01*
X155614268Y-145365264D01*
X155519030Y-145317645D01*
X155471411Y-145270026D01*
X155423792Y-145174788D01*
X155423792Y-145079550D01*
X155471411Y-144984312D01*
X155519030Y-144936693D01*
X155614268Y-144889074D01*
X155804745Y-144841455D01*
X155899983Y-144793836D01*
X155947602Y-144746217D01*
X155995221Y-144650979D01*
X155995221Y-144555741D01*
X155947602Y-144460503D01*
X155899983Y-144412884D01*
X155804745Y-144365264D01*
X155566649Y-144365264D01*
X155423792Y-144412884D01*
X154995221Y-145365264D02*
X154995221Y-144365264D01*
X161304745Y-146065264D02*
X160733316Y-146065264D01*
X161019030Y-147065264D02*
X161019030Y-146065264D01*
X160399983Y-147065264D02*
X160399983Y-146065264D01*
X160019030Y-146065264D01*
X159923792Y-146112884D01*
X159876173Y-146160503D01*
X159828554Y-146255741D01*
X159828554Y-146398598D01*
X159876173Y-146493836D01*
X159923792Y-146541455D01*
X160019030Y-146589074D01*
X160399983Y-146589074D01*
X159495221Y-146065264D02*
X158828554Y-146065264D01*
X159257126Y-147065264D01*
X158447602Y-146970026D02*
X158399983Y-147017645D01*
X158447602Y-147065264D01*
X158495221Y-147017645D01*
X158447602Y-146970026D01*
X158447602Y-147065264D01*
X158447602Y-146446217D02*
X158399983Y-146493836D01*
X158447602Y-146541455D01*
X158495221Y-146493836D01*
X158447602Y-146446217D01*
X158447602Y-146541455D01*
X157971411Y-147065264D02*
X157971411Y-146065264D01*
X157542840Y-146160503D02*
X157495221Y-146112884D01*
X157399983Y-146065264D01*
X157161888Y-146065264D01*
X157066649Y-146112884D01*
X157019030Y-146160503D01*
X156971411Y-146255741D01*
X156971411Y-146350979D01*
X157019030Y-146493836D01*
X157590459Y-147065264D01*
X156971411Y-147065264D01*
X155971411Y-146970026D02*
X156019030Y-147017645D01*
X156161888Y-147065264D01*
X156257126Y-147065264D01*
X156399983Y-147017645D01*
X156495221Y-146922407D01*
X156542840Y-146827169D01*
X156590459Y-146636693D01*
X156590459Y-146493836D01*
X156542840Y-146303360D01*
X156495221Y-146208122D01*
X156399983Y-146112884D01*
X156257126Y-146065264D01*
X156161888Y-146065264D01*
X156019030Y-146112884D01*
X155971411Y-146160503D01*
X155114268Y-147017645D02*
X155209507Y-147065264D01*
X155399983Y-147065264D01*
X155495221Y-147017645D01*
X155542840Y-146970026D01*
X155590459Y-146874788D01*
X155590459Y-146589074D01*
X155542840Y-146493836D01*
X155495221Y-146446217D01*
X155399983Y-146398598D01*
X155209507Y-146398598D01*
X155114268Y-146446217D01*
X163233316Y-147765264D02*
X162661888Y-147765264D01*
X162947602Y-148765264D02*
X162947602Y-147765264D01*
X162328554Y-148765264D02*
X162328554Y-147765264D01*
X161947602Y-147765264D01*
X161852364Y-147812884D01*
X161804745Y-147860503D01*
X161757126Y-147955741D01*
X161757126Y-148098598D01*
X161804745Y-148193836D01*
X161852364Y-148241455D01*
X161947602Y-148289074D01*
X162328554Y-148289074D01*
X161185697Y-148193836D02*
X161280935Y-148146217D01*
X161328554Y-148098598D01*
X161376173Y-148003360D01*
X161376173Y-147955741D01*
X161328554Y-147860503D01*
X161280935Y-147812884D01*
X161185697Y-147765264D01*
X160995221Y-147765264D01*
X160899983Y-147812884D01*
X160852364Y-147860503D01*
X160804745Y-147955741D01*
X160804745Y-148003360D01*
X160852364Y-148098598D01*
X160899983Y-148146217D01*
X160995221Y-148193836D01*
X161185697Y-148193836D01*
X161280935Y-148241455D01*
X161328554Y-148289074D01*
X161376173Y-148384312D01*
X161376173Y-148574788D01*
X161328554Y-148670026D01*
X161280935Y-148717645D01*
X161185697Y-148765264D01*
X160995221Y-148765264D01*
X160899983Y-148717645D01*
X160852364Y-148670026D01*
X160804745Y-148574788D01*
X160804745Y-148384312D01*
X160852364Y-148289074D01*
X160899983Y-148241455D01*
X160995221Y-148193836D01*
X160376173Y-148670026D02*
X160328554Y-148717645D01*
X160376173Y-148765264D01*
X160423792Y-148717645D01*
X160376173Y-148670026D01*
X160376173Y-148765264D01*
X160376173Y-148146217D02*
X160328554Y-148193836D01*
X160376173Y-148241455D01*
X160423792Y-148193836D01*
X160376173Y-148146217D01*
X160376173Y-148241455D01*
X156090459Y-148765264D02*
X156090459Y-147765264D01*
X155661888Y-147860503D02*
X155614268Y-147812884D01*
X155519030Y-147765264D01*
X155280935Y-147765264D01*
X155185697Y-147812884D01*
X155138078Y-147860503D01*
X155090459Y-147955741D01*
X155090459Y-148050979D01*
X155138078Y-148193836D01*
X155709507Y-148765264D01*
X155090459Y-148765264D01*
X154090459Y-148670026D02*
X154138078Y-148717645D01*
X154280935Y-148765264D01*
X154376173Y-148765264D01*
X154519030Y-148717645D01*
X154614268Y-148622407D01*
X154661888Y-148527169D01*
X154709507Y-148336693D01*
X154709507Y-148193836D01*
X154661888Y-148003360D01*
X154614268Y-147908122D01*
X154519030Y-147812884D01*
X154376173Y-147765264D01*
X154280935Y-147765264D01*
X154138078Y-147812884D01*
X154090459Y-147860503D01*
X153233316Y-148765264D02*
X153233316Y-147765264D01*
X153233316Y-148717645D02*
X153328554Y-148765264D01*
X153519030Y-148765264D01*
X153614268Y-148717645D01*
X153661888Y-148670026D01*
X153709507Y-148574788D01*
X153709507Y-148289074D01*
X153661888Y-148193836D01*
X153614268Y-148146217D01*
X153519030Y-148098598D01*
X153328554Y-148098598D01*
X153233316Y-148146217D01*
X161661888Y-149465264D02*
X161090459Y-149465264D01*
X161376173Y-150465264D02*
X161376173Y-149465264D01*
X160757126Y-150465264D02*
X160757126Y-149465264D01*
X160376173Y-149465264D01*
X160280935Y-149512884D01*
X160233316Y-149560503D01*
X160185697Y-149655741D01*
X160185697Y-149798598D01*
X160233316Y-149893836D01*
X160280935Y-149941455D01*
X160376173Y-149989074D01*
X160757126Y-149989074D01*
X159233316Y-150465264D02*
X159804745Y-150465264D01*
X159519030Y-150465264D02*
X159519030Y-149465264D01*
X159614268Y-149608122D01*
X159709507Y-149703360D01*
X159804745Y-149750979D01*
X158280935Y-150465264D02*
X158852364Y-150465264D01*
X158566649Y-150465264D02*
X158566649Y-149465264D01*
X158661888Y-149608122D01*
X158757126Y-149703360D01*
X158852364Y-149750979D01*
X157852364Y-150370026D02*
X157804745Y-150417645D01*
X157852364Y-150465264D01*
X157899983Y-150417645D01*
X157852364Y-150370026D01*
X157852364Y-150465264D01*
X157852364Y-149846217D02*
X157804745Y-149893836D01*
X157852364Y-149941455D01*
X157899983Y-149893836D01*
X157852364Y-149846217D01*
X157852364Y-149941455D01*
X156852364Y-149512884D02*
X156947602Y-149465264D01*
X157090459Y-149465264D01*
X157233316Y-149512884D01*
X157328554Y-149608122D01*
X157376173Y-149703360D01*
X157423792Y-149893836D01*
X157423792Y-150036693D01*
X157376173Y-150227169D01*
X157328554Y-150322407D01*
X157233316Y-150417645D01*
X157090459Y-150465264D01*
X156995221Y-150465264D01*
X156852364Y-150417645D01*
X156804745Y-150370026D01*
X156804745Y-150036693D01*
X156995221Y-150036693D01*
X156376173Y-150465264D02*
X156376173Y-149465264D01*
X155804745Y-150465264D01*
X155804745Y-149465264D01*
X155328554Y-150465264D02*
X155328554Y-149465264D01*
X155090459Y-149465264D01*
X154947602Y-149512884D01*
X154852364Y-149608122D01*
X154804745Y-149703360D01*
X154757126Y-149893836D01*
X154757126Y-150036693D01*
X154804745Y-150227169D01*
X154852364Y-150322407D01*
X154947602Y-150417645D01*
X155090459Y-150465264D01*
X155328554Y-150465264D01*
X161661888Y-151165264D02*
X161090459Y-151165264D01*
X161376173Y-152165264D02*
X161376173Y-151165264D01*
X160757126Y-152165264D02*
X160757126Y-151165264D01*
X160376173Y-151165264D01*
X160280935Y-151212884D01*
X160233316Y-151260503D01*
X160185697Y-151355741D01*
X160185697Y-151498598D01*
X160233316Y-151593836D01*
X160280935Y-151641455D01*
X160376173Y-151689074D01*
X160757126Y-151689074D01*
X159233316Y-152165264D02*
X159804745Y-152165264D01*
X159519030Y-152165264D02*
X159519030Y-151165264D01*
X159614268Y-151308122D01*
X159709507Y-151403360D01*
X159804745Y-151450979D01*
X158852364Y-151260503D02*
X158804745Y-151212884D01*
X158709507Y-151165264D01*
X158471411Y-151165264D01*
X158376173Y-151212884D01*
X158328554Y-151260503D01*
X158280935Y-151355741D01*
X158280935Y-151450979D01*
X158328554Y-151593836D01*
X158899983Y-152165264D01*
X158280935Y-152165264D01*
X157852364Y-152070026D02*
X157804745Y-152117645D01*
X157852364Y-152165264D01*
X157899983Y-152117645D01*
X157852364Y-152070026D01*
X157852364Y-152165264D01*
X157852364Y-151546217D02*
X157804745Y-151593836D01*
X157852364Y-151641455D01*
X157899983Y-151593836D01*
X157852364Y-151546217D01*
X157852364Y-151641455D01*
X156852364Y-151212884D02*
X156947602Y-151165264D01*
X157090459Y-151165264D01*
X157233316Y-151212884D01*
X157328554Y-151308122D01*
X157376173Y-151403360D01*
X157423792Y-151593836D01*
X157423792Y-151736693D01*
X157376173Y-151927169D01*
X157328554Y-152022407D01*
X157233316Y-152117645D01*
X157090459Y-152165264D01*
X156995221Y-152165264D01*
X156852364Y-152117645D01*
X156804745Y-152070026D01*
X156804745Y-151736693D01*
X156995221Y-151736693D01*
X156376173Y-152165264D02*
X156376173Y-151165264D01*
X155804745Y-152165264D01*
X155804745Y-151165264D01*
X155328554Y-152165264D02*
X155328554Y-151165264D01*
X155090459Y-151165264D01*
X154947602Y-151212884D01*
X154852364Y-151308122D01*
X154804745Y-151403360D01*
X154757126Y-151593836D01*
X154757126Y-151736693D01*
X154804745Y-151927169D01*
X154852364Y-152022407D01*
X154947602Y-152117645D01*
X155090459Y-152165264D01*
X155328554Y-152165264D01*
X161519030Y-152865264D02*
X160947602Y-152865264D01*
X161233316Y-153865264D02*
X161233316Y-152865264D01*
X160614268Y-153865264D02*
X160614268Y-152865264D01*
X160233316Y-152865264D01*
X160138078Y-152912884D01*
X160090459Y-152960503D01*
X160042840Y-153055741D01*
X160042840Y-153198598D01*
X160090459Y-153293836D01*
X160138078Y-153341455D01*
X160233316Y-153389074D01*
X160614268Y-153389074D01*
X159090459Y-153865264D02*
X159661888Y-153865264D01*
X159376173Y-153865264D02*
X159376173Y-152865264D01*
X159471411Y-153008122D01*
X159566649Y-153103360D01*
X159661888Y-153150979D01*
X158185697Y-152865264D02*
X158661888Y-152865264D01*
X158709507Y-153341455D01*
X158661888Y-153293836D01*
X158566649Y-153246217D01*
X158328554Y-153246217D01*
X158233316Y-153293836D01*
X158185697Y-153341455D01*
X158138078Y-153436693D01*
X158138078Y-153674788D01*
X158185697Y-153770026D01*
X158233316Y-153817645D01*
X158328554Y-153865264D01*
X158566649Y-153865264D01*
X158661888Y-153817645D01*
X158709507Y-153770026D01*
X157709507Y-153770026D02*
X157661888Y-153817645D01*
X157709507Y-153865264D01*
X157757126Y-153817645D01*
X157709507Y-153770026D01*
X157709507Y-153865264D01*
X157709507Y-153246217D02*
X157661888Y-153293836D01*
X157709507Y-153341455D01*
X157757126Y-153293836D01*
X157709507Y-153246217D01*
X157709507Y-153341455D01*
X157328554Y-152865264D02*
X156709507Y-152865264D01*
X157042840Y-153246217D01*
X156899983Y-153246217D01*
X156804745Y-153293836D01*
X156757126Y-153341455D01*
X156709507Y-153436693D01*
X156709507Y-153674788D01*
X156757126Y-153770026D01*
X156804745Y-153817645D01*
X156899983Y-153865264D01*
X157185697Y-153865264D01*
X157280935Y-153817645D01*
X157328554Y-153770026D01*
X156423792Y-152865264D02*
X156090459Y-153865264D01*
X155757126Y-152865264D01*
X155519030Y-152865264D02*
X154899983Y-152865264D01*
X155233316Y-153246217D01*
X155090459Y-153246217D01*
X154995221Y-153293836D01*
X154947602Y-153341455D01*
X154899983Y-153436693D01*
X154899983Y-153674788D01*
X154947602Y-153770026D01*
X154995221Y-153817645D01*
X155090459Y-153865264D01*
X155376173Y-153865264D01*
X155471411Y-153817645D01*
X155519030Y-153770026D01*
D11*
X98378002Y-136711855D02*
X97449430Y-136711855D01*
X97949430Y-137283284D01*
X97735145Y-137283284D01*
X97592288Y-137354712D01*
X97520859Y-137426141D01*
X97449430Y-137568998D01*
X97449430Y-137926141D01*
X97520859Y-138068998D01*
X97592288Y-138140426D01*
X97735145Y-138211855D01*
X98163716Y-138211855D01*
X98306573Y-138140426D01*
X98378002Y-138068998D01*
X96949430Y-137211855D02*
X96592288Y-138211855D01*
X96235145Y-137211855D01*
X95806573Y-136711855D02*
X94878002Y-136711855D01*
X95378002Y-137283284D01*
X95163716Y-137283284D01*
X95020859Y-137354712D01*
X94949430Y-137426141D01*
X94878002Y-137568998D01*
X94878002Y-137926141D01*
X94949430Y-138068998D01*
X95020859Y-138140426D01*
X95163716Y-138211855D01*
X95592288Y-138211855D01*
X95735145Y-138140426D01*
X95806573Y-138068998D01*
X89985945Y-114935684D02*
X90128802Y-114864255D01*
X90343088Y-114864255D01*
X90557373Y-114935684D01*
X90700230Y-115078541D01*
X90771659Y-115221398D01*
X90843088Y-115507112D01*
X90843088Y-115721398D01*
X90771659Y-116007112D01*
X90700230Y-116149969D01*
X90557373Y-116292826D01*
X90343088Y-116364255D01*
X90200230Y-116364255D01*
X89985945Y-116292826D01*
X89914516Y-116221398D01*
X89914516Y-115721398D01*
X90200230Y-115721398D01*
X89271659Y-116364255D02*
X89271659Y-114864255D01*
X88414516Y-116364255D01*
X88414516Y-114864255D01*
X87700230Y-116364255D02*
X87700230Y-114864255D01*
X87343088Y-114864255D01*
X87128802Y-114935684D01*
X86985945Y-115078541D01*
X86914516Y-115221398D01*
X86843088Y-115507112D01*
X86843088Y-115721398D01*
X86914516Y-116007112D01*
X86985945Y-116149969D01*
X87128802Y-116292826D01*
X87343088Y-116364255D01*
X87700230Y-116364255D01*
X164835945Y-108025684D02*
X164978802Y-107954255D01*
X165193088Y-107954255D01*
X165407373Y-108025684D01*
X165550230Y-108168541D01*
X165621659Y-108311398D01*
X165693088Y-108597112D01*
X165693088Y-108811398D01*
X165621659Y-109097112D01*
X165550230Y-109239969D01*
X165407373Y-109382826D01*
X165193088Y-109454255D01*
X165050230Y-109454255D01*
X164835945Y-109382826D01*
X164764516Y-109311398D01*
X164764516Y-108811398D01*
X165050230Y-108811398D01*
X164121659Y-109454255D02*
X164121659Y-107954255D01*
X163264516Y-109454255D01*
X163264516Y-107954255D01*
X162550230Y-109454255D02*
X162550230Y-107954255D01*
X162193088Y-107954255D01*
X161978802Y-108025684D01*
X161835945Y-108168541D01*
X161764516Y-108311398D01*
X161693088Y-108597112D01*
X161693088Y-108811398D01*
X161764516Y-109097112D01*
X161835945Y-109239969D01*
X161978802Y-109382826D01*
X162193088Y-109454255D01*
X162550230Y-109454255D01*
D13*
X146469754Y-132835684D02*
X146369754Y-132869017D01*
X146336421Y-132902350D01*
X146303088Y-132969017D01*
X146303088Y-133069017D01*
X146336421Y-133135684D01*
X146369754Y-133169017D01*
X146436421Y-133202350D01*
X146703088Y-133202350D01*
X146703088Y-132502350D01*
X146469754Y-132502350D01*
X146403088Y-132535684D01*
X146369754Y-132569017D01*
X146336421Y-132635684D01*
X146336421Y-132702350D01*
X146369754Y-132769017D01*
X146403088Y-132802350D01*
X146469754Y-132835684D01*
X146703088Y-132835684D01*
X146036421Y-133002350D02*
X145703088Y-133002350D01*
X146103088Y-133202350D02*
X145869754Y-132502350D01*
X145636421Y-133202350D01*
X145503088Y-132502350D02*
X145103088Y-132502350D01*
X145303088Y-133202350D02*
X145303088Y-132502350D01*
X144336421Y-133202350D02*
X144336421Y-132502350D01*
X144169754Y-132502350D01*
X144069754Y-132535684D01*
X144003088Y-132602350D01*
X143969754Y-132669017D01*
X143936421Y-132802350D01*
X143936421Y-132902350D01*
X143969754Y-133035684D01*
X144003088Y-133102350D01*
X144069754Y-133169017D01*
X144169754Y-133202350D01*
X144336421Y-133202350D01*
X143636421Y-133202350D02*
X143636421Y-132502350D01*
X143336421Y-133169017D02*
X143236421Y-133202350D01*
X143069754Y-133202350D01*
X143003088Y-133169017D01*
X142969754Y-133135684D01*
X142936421Y-133069017D01*
X142936421Y-133002350D01*
X142969754Y-132935684D01*
X143003088Y-132902350D01*
X143069754Y-132869017D01*
X143203088Y-132835684D01*
X143269754Y-132802350D01*
X143303088Y-132769017D01*
X143336421Y-132702350D01*
X143336421Y-132635684D01*
X143303088Y-132569017D01*
X143269754Y-132535684D01*
X143203088Y-132502350D01*
X143036421Y-132502350D01*
X142936421Y-132535684D01*
X142236421Y-133135684D02*
X142269754Y-133169017D01*
X142369754Y-133202350D01*
X142436421Y-133202350D01*
X142536421Y-133169017D01*
X142603088Y-133102350D01*
X142636421Y-133035684D01*
X142669754Y-132902350D01*
X142669754Y-132802350D01*
X142636421Y-132669017D01*
X142603088Y-132602350D01*
X142536421Y-132535684D01*
X142436421Y-132502350D01*
X142369754Y-132502350D01*
X142269754Y-132535684D01*
X142236421Y-132569017D01*
X141803088Y-132502350D02*
X141669754Y-132502350D01*
X141603088Y-132535684D01*
X141536421Y-132602350D01*
X141503088Y-132735684D01*
X141503088Y-132969017D01*
X141536421Y-133102350D01*
X141603088Y-133169017D01*
X141669754Y-133202350D01*
X141803088Y-133202350D01*
X141869754Y-133169017D01*
X141936421Y-133102350D01*
X141969754Y-132969017D01*
X141969754Y-132735684D01*
X141936421Y-132602350D01*
X141869754Y-132535684D01*
X141803088Y-132502350D01*
X141203088Y-133202350D02*
X141203088Y-132502350D01*
X140803088Y-133202350D01*
X140803088Y-132502350D01*
X140469754Y-133202350D02*
X140469754Y-132502350D01*
X140069754Y-133202350D01*
X140069754Y-132502350D01*
X139736421Y-132835684D02*
X139503088Y-132835684D01*
X139403088Y-133202350D02*
X139736421Y-133202350D01*
X139736421Y-132502350D01*
X139403088Y-132502350D01*
X138703088Y-133135684D02*
X138736421Y-133169017D01*
X138836421Y-133202350D01*
X138903088Y-133202350D01*
X139003088Y-133169017D01*
X139069754Y-133102350D01*
X139103088Y-133035684D01*
X139136421Y-132902350D01*
X139136421Y-132802350D01*
X139103088Y-132669017D01*
X139069754Y-132602350D01*
X139003088Y-132535684D01*
X138903088Y-132502350D01*
X138836421Y-132502350D01*
X138736421Y-132535684D01*
X138703088Y-132569017D01*
X138503088Y-132502350D02*
X138103088Y-132502350D01*
X138303088Y-133202350D02*
X138303088Y-132502350D01*
D11*
X106651659Y-156514255D02*
X106651659Y-155014255D01*
X106151659Y-156085684D01*
X105651659Y-155014255D01*
X105651659Y-156514255D01*
X105008802Y-156442826D02*
X104794516Y-156514255D01*
X104437373Y-156514255D01*
X104294516Y-156442826D01*
X104223088Y-156371398D01*
X104151659Y-156228541D01*
X104151659Y-156085684D01*
X104223088Y-155942826D01*
X104294516Y-155871398D01*
X104437373Y-155799969D01*
X104723088Y-155728541D01*
X104865945Y-155657112D01*
X104937373Y-155585684D01*
X105008802Y-155442826D01*
X105008802Y-155299969D01*
X104937373Y-155157112D01*
X104865945Y-155085684D01*
X104723088Y-155014255D01*
X104365945Y-155014255D01*
X104151659Y-155085684D01*
X103580230Y-155157112D02*
X103508802Y-155085684D01*
X103365945Y-155014255D01*
X103008802Y-155014255D01*
X102865945Y-155085684D01*
X102794516Y-155157112D01*
X102723088Y-155299969D01*
X102723088Y-155442826D01*
X102794516Y-155657112D01*
X103651659Y-156514255D01*
X102723088Y-156514255D01*
X142051659Y-160564255D02*
X142051659Y-159064255D01*
X141551659Y-160135684D01*
X141051659Y-159064255D01*
X141051659Y-160564255D01*
X140408802Y-160492826D02*
X140194516Y-160564255D01*
X139837373Y-160564255D01*
X139694516Y-160492826D01*
X139623088Y-160421398D01*
X139551659Y-160278541D01*
X139551659Y-160135684D01*
X139623088Y-159992826D01*
X139694516Y-159921398D01*
X139837373Y-159849969D01*
X140123088Y-159778541D01*
X140265945Y-159707112D01*
X140337373Y-159635684D01*
X140408802Y-159492826D01*
X140408802Y-159349969D01*
X140337373Y-159207112D01*
X140265945Y-159135684D01*
X140123088Y-159064255D01*
X139765945Y-159064255D01*
X139551659Y-159135684D01*
X139051659Y-159064255D02*
X138123088Y-159064255D01*
X138623088Y-159635684D01*
X138408802Y-159635684D01*
X138265945Y-159707112D01*
X138194516Y-159778541D01*
X138123088Y-159921398D01*
X138123088Y-160278541D01*
X138194516Y-160421398D01*
X138265945Y-160492826D01*
X138408802Y-160564255D01*
X138837373Y-160564255D01*
X138980230Y-160492826D01*
X139051659Y-160421398D01*
X152229159Y-96771755D02*
X152229159Y-95271755D01*
X151729159Y-96343184D01*
X151229159Y-95271755D01*
X151229159Y-96771755D01*
X150586302Y-96700326D02*
X150372016Y-96771755D01*
X150014873Y-96771755D01*
X149872016Y-96700326D01*
X149800588Y-96628898D01*
X149729159Y-96486041D01*
X149729159Y-96343184D01*
X149800588Y-96200326D01*
X149872016Y-96128898D01*
X150014873Y-96057469D01*
X150300588Y-95986041D01*
X150443445Y-95914612D01*
X150514873Y-95843184D01*
X150586302Y-95700326D01*
X150586302Y-95557469D01*
X150514873Y-95414612D01*
X150443445Y-95343184D01*
X150300588Y-95271755D01*
X149943445Y-95271755D01*
X149729159Y-95343184D01*
X148443445Y-95771755D02*
X148443445Y-96771755D01*
X148800588Y-95200326D02*
X149157730Y-96271755D01*
X148229159Y-96271755D01*
X114901659Y-96654255D02*
X114901659Y-95154255D01*
X114401659Y-96225684D01*
X113901659Y-95154255D01*
X113901659Y-96654255D01*
X113258802Y-96582826D02*
X113044516Y-96654255D01*
X112687373Y-96654255D01*
X112544516Y-96582826D01*
X112473088Y-96511398D01*
X112401659Y-96368541D01*
X112401659Y-96225684D01*
X112473088Y-96082826D01*
X112544516Y-96011398D01*
X112687373Y-95939969D01*
X112973088Y-95868541D01*
X113115945Y-95797112D01*
X113187373Y-95725684D01*
X113258802Y-95582826D01*
X113258802Y-95439969D01*
X113187373Y-95297112D01*
X113115945Y-95225684D01*
X112973088Y-95154255D01*
X112615945Y-95154255D01*
X112401659Y-95225684D01*
X110973088Y-96654255D02*
X111830230Y-96654255D01*
X111401659Y-96654255D02*
X111401659Y-95154255D01*
X111544516Y-95368541D01*
X111687373Y-95511398D01*
X111830230Y-95582826D01*
D14*
X170834715Y-130323863D02*
X170834715Y-130823863D01*
X169774715Y-130823863D02*
X169774715Y-130323863D01*
X109161088Y-149230816D02*
X110589124Y-150326586D01*
X108628912Y-152881184D02*
X106685196Y-151389719D01*
D15*
X137300275Y-101076286D02*
G75*
G03X137300275Y-101076286I-559017J0D01*
G01*
X127741258Y-100076286D02*
X127741258Y-110076286D01*
X127741258Y-110076286D02*
X137741258Y-110076286D01*
X137741258Y-110076286D02*
X137741258Y-100076286D01*
X137741258Y-100076286D02*
X127741258Y-100076286D01*
D14*
X127653088Y-125630684D02*
X127653088Y-125130684D01*
X128593088Y-125130684D02*
X128593088Y-125630684D01*
X123960688Y-108827284D02*
X123960688Y-108327284D01*
X124900688Y-108327284D02*
X124900688Y-108827284D01*
X121833088Y-87462284D02*
X127033088Y-87462284D01*
X127033088Y-87462284D02*
X127033088Y-91112284D01*
X127033088Y-91112284D02*
X120443088Y-91112284D01*
X120443088Y-91112284D02*
X120443088Y-89287284D01*
X120443088Y-89287284D02*
X121833088Y-89287284D01*
X121833088Y-89287284D02*
X121833088Y-87462284D01*
X121198088Y-87462284D02*
X120443088Y-87462284D01*
X120443088Y-87462284D02*
X120443088Y-88652284D01*
X156417288Y-120376484D02*
X157417288Y-120376484D01*
X157417288Y-122076484D02*
X156417288Y-122076484D01*
X139123088Y-120635684D02*
X139623088Y-120635684D01*
X139623088Y-121575684D02*
X139123088Y-121575684D01*
X141089088Y-106405684D02*
X140589088Y-106405684D01*
X140589088Y-105465684D02*
X141089088Y-105465684D01*
X141089088Y-109199684D02*
X140589088Y-109199684D01*
X140589088Y-108259684D02*
X141089088Y-108259684D01*
X141089088Y-103865684D02*
X140589088Y-103865684D01*
X140589088Y-102925684D02*
X141089088Y-102925684D01*
X119473088Y-106935684D02*
X119973088Y-106935684D01*
X119973088Y-107875684D02*
X119473088Y-107875684D01*
X119473088Y-105335684D02*
X119973088Y-105335684D01*
X119973088Y-106275684D02*
X119473088Y-106275684D01*
X133298088Y-113697284D02*
X133298088Y-113197284D01*
X134238088Y-113197284D02*
X134238088Y-113697284D01*
X108919088Y-98327684D02*
X109419088Y-98327684D01*
X109419088Y-99267684D02*
X108919088Y-99267684D01*
X108903088Y-113055684D02*
X108403088Y-113055684D01*
X108403088Y-112115684D02*
X108903088Y-112115684D01*
X128593088Y-122905684D02*
X128593088Y-123405684D01*
X127653088Y-123405684D02*
X127653088Y-122905684D01*
X131018088Y-121877284D02*
X131518088Y-121877284D01*
X131518088Y-122817284D02*
X131018088Y-122817284D01*
X132618088Y-125003364D02*
X133118088Y-125003364D01*
X133118088Y-125943364D02*
X132618088Y-125943364D01*
X129178088Y-125830684D02*
X129178088Y-125330684D01*
X130118088Y-125330684D02*
X130118088Y-125830684D01*
X131573088Y-122977284D02*
X132073088Y-122977284D01*
X132073088Y-123917284D02*
X131573088Y-123917284D01*
X133218088Y-125943164D02*
X133718088Y-125943164D01*
X133718088Y-126883164D02*
X133218088Y-126883164D01*
X126713008Y-125621764D02*
X126713008Y-125121764D01*
X127653008Y-125121764D02*
X127653008Y-125621764D01*
X132118088Y-124038164D02*
X132618088Y-124038164D01*
X132618088Y-124978164D02*
X132118088Y-124978164D01*
X125233088Y-125925684D02*
X125233088Y-126425684D01*
X124293088Y-126425684D02*
X124293088Y-125925684D01*
X159289288Y-117151484D02*
X159289288Y-118951484D01*
X156069288Y-118951484D02*
X156069288Y-116501484D01*
X115170248Y-112091484D02*
X116100248Y-112091484D01*
X118330248Y-112091484D02*
X117400248Y-112091484D01*
X118330248Y-112091484D02*
X118330248Y-114251484D01*
X115170248Y-112091484D02*
X115170248Y-113551484D01*
X119677488Y-90135684D02*
X119677488Y-90635684D01*
X118617488Y-90635684D02*
X118617488Y-90135684D01*
X122978088Y-91830684D02*
X122978088Y-92330684D01*
X121918088Y-92330684D02*
X121918088Y-91830684D01*
X122997088Y-118784684D02*
X122497088Y-118784684D01*
X122497088Y-117724684D02*
X122997088Y-117724684D01*
X161206488Y-117293484D02*
X161206488Y-117793484D01*
X160146488Y-117793484D02*
X160146488Y-117293484D01*
X160927088Y-114397884D02*
X160927088Y-114897884D01*
X159867088Y-114897884D02*
X159867088Y-114397884D01*
X125323088Y-106235684D02*
X124823088Y-106235684D01*
X124823088Y-105175684D02*
X125323088Y-105175684D01*
X124143088Y-95535684D02*
X123643088Y-95535684D01*
X123643088Y-94475684D02*
X124143088Y-94475684D01*
X85209088Y-126328484D02*
X84709088Y-126328484D01*
X84709088Y-125268484D02*
X85209088Y-125268484D01*
X85259888Y-128284284D02*
X84759888Y-128284284D01*
X84759888Y-127224284D02*
X85259888Y-127224284D01*
X146425920Y-100413879D02*
X146730301Y-100017202D01*
X147571256Y-100662489D02*
X147266875Y-101059166D01*
X147480020Y-101036179D02*
X147784401Y-100639502D01*
X148625356Y-101284789D02*
X148320975Y-101681466D01*
X114543088Y-113805684D02*
X114543088Y-114305684D01*
X113483088Y-114305684D02*
X113483088Y-113805684D01*
D15*
X123923088Y-109805684D02*
X123923088Y-104805684D01*
X123923088Y-104805684D02*
X120923088Y-104805684D01*
X120923088Y-104805684D02*
X120923088Y-109805684D01*
X120923088Y-109805684D02*
X123923088Y-109805684D01*
D14*
X124722888Y-104170284D02*
X125222888Y-104170284D01*
X125222888Y-105110284D02*
X124722888Y-105110284D01*
X111462868Y-149098618D02*
X111859544Y-149402998D01*
X111287308Y-150148750D02*
X110890632Y-149844370D01*
X142600022Y-101529904D02*
X142904402Y-101133228D01*
X143650154Y-101705464D02*
X143345774Y-102102140D01*
X157231488Y-127108684D02*
X155231488Y-127108684D01*
X155231488Y-127108684D02*
X155231488Y-123208684D01*
X157231488Y-127108684D02*
X157231488Y-123208684D01*
X128280888Y-92057884D02*
X128280888Y-94057884D01*
X128280888Y-94057884D02*
X124380888Y-94057884D01*
X128280888Y-92057884D02*
X124380888Y-92057884D01*
X140801088Y-151455684D02*
X140801088Y-151955684D01*
X139861088Y-151955684D02*
X139861088Y-151455684D01*
X133943088Y-95906684D02*
X133943088Y-96406684D01*
X133003088Y-96406684D02*
X133003088Y-95906684D01*
X111671535Y-101393515D02*
X111480194Y-100931575D01*
X112348641Y-100571853D02*
X112539982Y-101033793D01*
X108919088Y-97210684D02*
X109419088Y-97210684D01*
X109419088Y-98150684D02*
X108919088Y-98150684D01*
X141944088Y-151455684D02*
X141944088Y-151955684D01*
X141004088Y-151955684D02*
X141004088Y-151455684D01*
X97273088Y-135105684D02*
X97973088Y-135105684D01*
X97973088Y-133905684D02*
X97273088Y-133905684D01*
X138323919Y-153134237D02*
X137861979Y-153325578D01*
X137502257Y-152457131D02*
X137964197Y-152265790D01*
X116832088Y-151109684D02*
X116332088Y-151109684D01*
X116332088Y-150169684D02*
X116832088Y-150169684D01*
X143849088Y-98795684D02*
X143849088Y-99295684D01*
X142909088Y-99295684D02*
X142909088Y-98795684D01*
X115738092Y-100537799D02*
X114106738Y-101298512D01*
X112745908Y-98380201D02*
X114966362Y-97344786D01*
X145056912Y-104714184D02*
X143628876Y-103618414D01*
X145589088Y-101063816D02*
X147532804Y-102555281D01*
X137215388Y-153797969D02*
X138878371Y-153109139D01*
X140110612Y-156084031D02*
X137847107Y-157021605D01*
X114292088Y-151109684D02*
X113792088Y-151109684D01*
X113792088Y-150169684D02*
X114292088Y-150169684D01*
X145119088Y-98795684D02*
X145119088Y-99295684D01*
X144179088Y-99295684D02*
X144179088Y-98795684D01*
X163864088Y-130772884D02*
X163864088Y-130272884D01*
X164804088Y-130272884D02*
X164804088Y-130772884D01*
X164905488Y-130798284D02*
X164905488Y-130298284D01*
X165845488Y-130298284D02*
X165845488Y-130798284D01*
X106698088Y-102256684D02*
X106698088Y-102756684D01*
X105638088Y-102756684D02*
X105638088Y-102256684D01*
X146278088Y-151905684D02*
X146278088Y-151405684D01*
X147338088Y-151405684D02*
X147338088Y-151905684D01*
X122836088Y-104122684D02*
X123536088Y-104122684D01*
X123536088Y-102922684D02*
X122836088Y-102922684D01*
X141189088Y-104065684D02*
X140489088Y-104065684D01*
X140489088Y-105265684D02*
X141189088Y-105265684D01*
X131603088Y-96155684D02*
X131603088Y-96855684D01*
X132803088Y-96855684D02*
X132803088Y-96155684D01*
X126123088Y-108855684D02*
X126123088Y-108155684D01*
X124923088Y-108155684D02*
X124923088Y-108855684D01*
X160584488Y-121028884D02*
X160584488Y-121728884D01*
X161784488Y-121728884D02*
X161784488Y-121028884D01*
X168444888Y-133634484D02*
X167944888Y-133634484D01*
X167944888Y-132694484D02*
X168444888Y-132694484D01*
X109723088Y-102715684D02*
X107923088Y-102715684D01*
X107923088Y-99495684D02*
X110373088Y-99495684D01*
X143023088Y-150595684D02*
X144823088Y-150595684D01*
X144823088Y-153815684D02*
X142373088Y-153815684D01*
X115933088Y-152305684D02*
X115933088Y-154105684D01*
X112713088Y-154105684D02*
X112713088Y-151655684D01*
X139513088Y-99505684D02*
X139513088Y-97705684D01*
X142733088Y-97705684D02*
X142733088Y-100155684D01*
X169298515Y-129782663D02*
X169298515Y-131582663D01*
X166078515Y-131582663D02*
X166078515Y-129132663D01*
X159486688Y-124061884D02*
X159486688Y-126061884D01*
X157446688Y-126061884D02*
X157446688Y-124061884D01*
X112378488Y-114270884D02*
X112378488Y-114770884D01*
X111438488Y-114770884D02*
X111438488Y-114270884D01*
D15*
X136743088Y-128295684D02*
X134743088Y-128295684D01*
X136743088Y-128795684D02*
X136743088Y-128295684D01*
X117243088Y-128295684D02*
X119243088Y-128295684D01*
X117243088Y-128795684D02*
X117243088Y-128295684D01*
X119243088Y-132495684D02*
X119243088Y-131795684D01*
X134743088Y-132495684D02*
X134743088Y-131845684D01*
X116493088Y-131795684D02*
X116493088Y-132495684D01*
X137493088Y-132495684D02*
X116493088Y-132495684D01*
X137493088Y-132495684D02*
X137493088Y-131795684D01*
X116493088Y-131795684D02*
X137493088Y-131795684D01*
D14*
X115279451Y-102436385D02*
X115913867Y-102140552D01*
X115406725Y-101052983D02*
X114772309Y-101348816D01*
X137436836Y-150947417D02*
X136790120Y-151215295D01*
X137249340Y-152323951D02*
X137896056Y-152056073D01*
X140510337Y-107875605D02*
X141210337Y-107875605D01*
X141210337Y-106675605D02*
X140510337Y-106675605D01*
X121592288Y-122963284D02*
X120892288Y-122963284D01*
X120892288Y-124163284D02*
X121592288Y-124163284D01*
X121503088Y-126505684D02*
X121003088Y-126505684D01*
X121003088Y-125565684D02*
X121503088Y-125565684D01*
X120956488Y-125560284D02*
X121656488Y-125560284D01*
X121656488Y-124360284D02*
X120956488Y-124360284D01*
X108660172Y-148311201D02*
X109215520Y-148737334D01*
X109946034Y-147785309D02*
X109390686Y-147359176D01*
X144652143Y-105015742D02*
X144115912Y-104565791D01*
X143344567Y-105485044D02*
X143880798Y-105934995D01*
X124503088Y-120895684D02*
X124503088Y-121595684D01*
X125703088Y-121595684D02*
X125703088Y-120895684D01*
X164209088Y-125194084D02*
X165669088Y-125194084D01*
X164209088Y-122034084D02*
X166369088Y-122034084D01*
X164209088Y-122034084D02*
X164209088Y-122964084D01*
X164209088Y-125194084D02*
X164209088Y-124264084D01*
X159885888Y-124112684D02*
X159885888Y-126112684D01*
X162025888Y-126112684D02*
X162025888Y-124112684D01*
X123373088Y-122715684D02*
X120923088Y-122715684D01*
X121573088Y-119495684D02*
X123373088Y-119495684D01*
D12*
X113493088Y-111035684D02*
G75*
G03X113493088Y-111035684I-100000J0D01*
G01*
D16*
X112343088Y-110485684D02*
X112993088Y-110485684D01*
X112993088Y-110485684D02*
X112993088Y-110635684D01*
X110543088Y-110485684D02*
X109893088Y-110485684D01*
X109893088Y-110485684D02*
X109893088Y-110635684D01*
X109893088Y-112935684D02*
X109893088Y-113085684D01*
X109893088Y-113085684D02*
X110543088Y-113085684D01*
X112993088Y-112935684D02*
X112993088Y-113085684D01*
X112993088Y-113085684D02*
X112343088Y-113085684D01*
D14*
X154491488Y-114999484D02*
X154491488Y-114499484D01*
X155431488Y-114499484D02*
X155431488Y-114999484D01*
X158630088Y-115800684D02*
X156180088Y-115800684D01*
X156830088Y-112580684D02*
X158630088Y-112580684D01*
X117493088Y-152040684D02*
X117493088Y-152540684D01*
X116433088Y-152540684D02*
X116433088Y-152040684D01*
X141216088Y-101512684D02*
X140716088Y-101512684D01*
X140716088Y-100452684D02*
X141216088Y-100452684D01*
X100126888Y-124414084D02*
X100626888Y-124414084D01*
X100626888Y-125354084D02*
X100126888Y-125354084D01*
X150071888Y-128639284D02*
X150071888Y-128139284D01*
X151011888Y-128139284D02*
X151011888Y-128639284D01*
X100449088Y-127005084D02*
X99949088Y-127005084D01*
X99949088Y-126065084D02*
X100449088Y-126065084D01*
X152002488Y-128139284D02*
X152002488Y-128639284D01*
X151062488Y-128639284D02*
X151062488Y-128139284D01*
X96701286Y-126493644D02*
X96613553Y-127188124D01*
X97804090Y-127338524D02*
X97891823Y-126644044D01*
X154014290Y-130005524D02*
X154102023Y-129311044D01*
X152911486Y-129160644D02*
X152823753Y-129855124D01*
X98918715Y-126701562D02*
X98856049Y-127197619D01*
X97923461Y-127079806D02*
X97986127Y-126583749D01*
X154286061Y-130000806D02*
X154348727Y-129504749D01*
X155281315Y-129622562D02*
X155218649Y-130118619D01*
X99974488Y-118969284D02*
X100474488Y-118969284D01*
X100474488Y-120029284D02*
X99974488Y-120029284D01*
X150730888Y-133294884D02*
X151230888Y-133294884D01*
X151230888Y-134354884D02*
X150730888Y-134354884D01*
X100010288Y-120657884D02*
X101810288Y-120657884D01*
X101810288Y-123877884D02*
X99360288Y-123877884D01*
X149591088Y-129725684D02*
X152041088Y-129725684D01*
X151391088Y-132945684D02*
X149591088Y-132945684D01*
X98607105Y-122570883D02*
X98381505Y-124356690D01*
X95186895Y-123953117D02*
X95493962Y-121522436D01*
X158678193Y-130188135D02*
X158371126Y-132618816D01*
X155257983Y-131570369D02*
X155483583Y-129784562D01*
X142998088Y-126809084D02*
X141048088Y-126809084D01*
X142998088Y-126809084D02*
X144948088Y-126809084D01*
X142998088Y-121689084D02*
X141048088Y-121689084D01*
X142998088Y-121689084D02*
X146448088Y-121689084D01*
X135703088Y-113735063D02*
X135703088Y-113409505D01*
X134683088Y-113735063D02*
X134683088Y-113409505D01*
D15*
X174656421Y-173253564D02*
X174989754Y-172777374D01*
X175227849Y-173253564D02*
X175227849Y-172253564D01*
X174846897Y-172253564D01*
X174751659Y-172301184D01*
X174704040Y-172348803D01*
X174656421Y-172444041D01*
X174656421Y-172586898D01*
X174704040Y-172682136D01*
X174751659Y-172729755D01*
X174846897Y-172777374D01*
X175227849Y-172777374D01*
X174227849Y-172729755D02*
X173894516Y-172729755D01*
X173751659Y-173253564D02*
X174227849Y-173253564D01*
X174227849Y-172253564D01*
X173751659Y-172253564D01*
X172989754Y-172729755D02*
X173323088Y-172729755D01*
X173323088Y-173253564D02*
X173323088Y-172253564D01*
X172846897Y-172253564D01*
X172323088Y-172253564D02*
X172323088Y-172491660D01*
X172561183Y-172396422D02*
X172323088Y-172491660D01*
X172084992Y-172396422D01*
X172465945Y-172682136D02*
X172323088Y-172491660D01*
X172180230Y-172682136D01*
X171561183Y-172253564D02*
X171561183Y-172491660D01*
X171799278Y-172396422D02*
X171561183Y-172491660D01*
X171323088Y-172396422D01*
X171704040Y-172682136D02*
X171561183Y-172491660D01*
X171418326Y-172682136D01*
X77656421Y-173253564D02*
X77989754Y-172777374D01*
X78227849Y-173253564D02*
X78227849Y-172253564D01*
X77846897Y-172253564D01*
X77751659Y-172301184D01*
X77704040Y-172348803D01*
X77656421Y-172444041D01*
X77656421Y-172586898D01*
X77704040Y-172682136D01*
X77751659Y-172729755D01*
X77846897Y-172777374D01*
X78227849Y-172777374D01*
X77227849Y-172729755D02*
X76894516Y-172729755D01*
X76751659Y-173253564D02*
X77227849Y-173253564D01*
X77227849Y-172253564D01*
X76751659Y-172253564D01*
X75989754Y-172729755D02*
X76323088Y-172729755D01*
X76323088Y-173253564D02*
X76323088Y-172253564D01*
X75846897Y-172253564D01*
X75323088Y-172253564D02*
X75323088Y-172491660D01*
X75561183Y-172396422D02*
X75323088Y-172491660D01*
X75084992Y-172396422D01*
X75465945Y-172682136D02*
X75323088Y-172491660D01*
X75180230Y-172682136D01*
X74561183Y-172253564D02*
X74561183Y-172491660D01*
X74799278Y-172396422D02*
X74561183Y-172491660D01*
X74323088Y-172396422D01*
X74704040Y-172682136D02*
X74561183Y-172491660D01*
X74418326Y-172682136D01*
X174656421Y-85253564D02*
X174989754Y-84777374D01*
X175227849Y-85253564D02*
X175227849Y-84253564D01*
X174846897Y-84253564D01*
X174751659Y-84301184D01*
X174704040Y-84348803D01*
X174656421Y-84444041D01*
X174656421Y-84586898D01*
X174704040Y-84682136D01*
X174751659Y-84729755D01*
X174846897Y-84777374D01*
X175227849Y-84777374D01*
X174227849Y-84729755D02*
X173894516Y-84729755D01*
X173751659Y-85253564D02*
X174227849Y-85253564D01*
X174227849Y-84253564D01*
X173751659Y-84253564D01*
X172989754Y-84729755D02*
X173323088Y-84729755D01*
X173323088Y-85253564D02*
X173323088Y-84253564D01*
X172846897Y-84253564D01*
X172323088Y-84253564D02*
X172323088Y-84491660D01*
X172561183Y-84396422D02*
X172323088Y-84491660D01*
X172084992Y-84396422D01*
X172465945Y-84682136D02*
X172323088Y-84491660D01*
X172180230Y-84682136D01*
X171561183Y-84253564D02*
X171561183Y-84491660D01*
X171799278Y-84396422D02*
X171561183Y-84491660D01*
X171323088Y-84396422D01*
X171704040Y-84682136D02*
X171561183Y-84491660D01*
X171418326Y-84682136D01*
X72656421Y-85253564D02*
X72989754Y-84777374D01*
X73227849Y-85253564D02*
X73227849Y-84253564D01*
X72846897Y-84253564D01*
X72751659Y-84301184D01*
X72704040Y-84348803D01*
X72656421Y-84444041D01*
X72656421Y-84586898D01*
X72704040Y-84682136D01*
X72751659Y-84729755D01*
X72846897Y-84777374D01*
X73227849Y-84777374D01*
X72227849Y-84729755D02*
X71894516Y-84729755D01*
X71751659Y-85253564D02*
X72227849Y-85253564D01*
X72227849Y-84253564D01*
X71751659Y-84253564D01*
X70989754Y-84729755D02*
X71323088Y-84729755D01*
X71323088Y-85253564D02*
X71323088Y-84253564D01*
X70846897Y-84253564D01*
X70323088Y-84253564D02*
X70323088Y-84491660D01*
X70561183Y-84396422D02*
X70323088Y-84491660D01*
X70084992Y-84396422D01*
X70465945Y-84682136D02*
X70323088Y-84491660D01*
X70180230Y-84682136D01*
X69561183Y-84253564D02*
X69561183Y-84491660D01*
X69799278Y-84396422D02*
X69561183Y-84491660D01*
X69323088Y-84396422D01*
X69704040Y-84682136D02*
X69561183Y-84491660D01*
X69418326Y-84682136D01*
X170806268Y-127594026D02*
X170330078Y-127260693D01*
X170806268Y-127022598D02*
X169806268Y-127022598D01*
X169806268Y-127403550D01*
X169853888Y-127498788D01*
X169901507Y-127546407D01*
X169996745Y-127594026D01*
X170139602Y-127594026D01*
X170234840Y-127546407D01*
X170282459Y-127498788D01*
X170330078Y-127403550D01*
X170330078Y-127022598D01*
X169901507Y-127974979D02*
X169853888Y-128022598D01*
X169806268Y-128117836D01*
X169806268Y-128355931D01*
X169853888Y-128451169D01*
X169901507Y-128498788D01*
X169996745Y-128546407D01*
X170091983Y-128546407D01*
X170234840Y-128498788D01*
X170806268Y-127927360D01*
X170806268Y-128546407D01*
X170139602Y-129403550D02*
X170806268Y-129403550D01*
X169758649Y-129165455D02*
X170472935Y-128927360D01*
X170472935Y-129546407D01*
X108438704Y-153424933D02*
X107945897Y-154067171D01*
X107850141Y-154113740D01*
X107783374Y-154122530D01*
X107678827Y-154102332D01*
X107527713Y-153986377D01*
X107481144Y-153890621D01*
X107472354Y-153823854D01*
X107492552Y-153719307D01*
X107985359Y-153077069D01*
X107587373Y-152891729D02*
X107578583Y-152824961D01*
X107532014Y-152729205D01*
X107343121Y-152584262D01*
X107238575Y-152564064D01*
X107171807Y-152572854D01*
X107076051Y-152619423D01*
X107018074Y-152694980D01*
X106968887Y-152837305D01*
X107074368Y-153638513D01*
X106583244Y-153261661D01*
X106700882Y-152091455D02*
X106625325Y-152033478D01*
X106520779Y-152013279D01*
X106454011Y-152022070D01*
X106358255Y-152068638D01*
X106204522Y-152190765D01*
X106059579Y-152379658D01*
X105981403Y-152559762D01*
X105961204Y-152664308D01*
X105969995Y-152731075D01*
X106016563Y-152826831D01*
X106092121Y-152884809D01*
X106196667Y-152905007D01*
X106263434Y-152896217D01*
X106359190Y-152849648D01*
X106512924Y-152727522D01*
X106657867Y-152538628D01*
X106736043Y-152358525D01*
X106756241Y-152253979D01*
X106747451Y-152187211D01*
X106700882Y-152091455D01*
X138984992Y-98658064D02*
X138984992Y-99467588D01*
X138937373Y-99562826D01*
X138889754Y-99610445D01*
X138794516Y-99658064D01*
X138604040Y-99658064D01*
X138508802Y-99610445D01*
X138461183Y-99562826D01*
X138413564Y-99467588D01*
X138413564Y-98658064D01*
X137508802Y-98658064D02*
X137699278Y-98658064D01*
X137794516Y-98705684D01*
X137842135Y-98753303D01*
X137937373Y-98896160D01*
X137984992Y-99086636D01*
X137984992Y-99467588D01*
X137937373Y-99562826D01*
X137889754Y-99610445D01*
X137794516Y-99658064D01*
X137604040Y-99658064D01*
X137508802Y-99610445D01*
X137461183Y-99562826D01*
X137413564Y-99467588D01*
X137413564Y-99229493D01*
X137461183Y-99134255D01*
X137508802Y-99086636D01*
X137604040Y-99039017D01*
X137794516Y-99039017D01*
X137889754Y-99086636D01*
X137937373Y-99134255D01*
X137984992Y-99229493D01*
D13*
X128488802Y-127109969D02*
X128517373Y-127138541D01*
X128603088Y-127167112D01*
X128660230Y-127167112D01*
X128745945Y-127138541D01*
X128803088Y-127081398D01*
X128831659Y-127024255D01*
X128860230Y-126909969D01*
X128860230Y-126824255D01*
X128831659Y-126709969D01*
X128803088Y-126652826D01*
X128745945Y-126595684D01*
X128660230Y-126567112D01*
X128603088Y-126567112D01*
X128517373Y-126595684D01*
X128488802Y-126624255D01*
X128288802Y-126567112D02*
X127917373Y-126567112D01*
X128117373Y-126795684D01*
X128031659Y-126795684D01*
X127974516Y-126824255D01*
X127945945Y-126852826D01*
X127917373Y-126909969D01*
X127917373Y-127052826D01*
X127945945Y-127109969D01*
X127974516Y-127138541D01*
X128031659Y-127167112D01*
X128203088Y-127167112D01*
X128260230Y-127138541D01*
X128288802Y-127109969D01*
X127545945Y-126567112D02*
X127488802Y-126567112D01*
X127431659Y-126595684D01*
X127403088Y-126624255D01*
X127374516Y-126681398D01*
X127345945Y-126795684D01*
X127345945Y-126938541D01*
X127374516Y-127052826D01*
X127403088Y-127109969D01*
X127431659Y-127138541D01*
X127488802Y-127167112D01*
X127545945Y-127167112D01*
X127603088Y-127138541D01*
X127631659Y-127109969D01*
X127660230Y-127052826D01*
X127688802Y-126938541D01*
X127688802Y-126795684D01*
X127660230Y-126681398D01*
X127631659Y-126624255D01*
X127603088Y-126595684D01*
X127545945Y-126567112D01*
X124416373Y-110756969D02*
X124444945Y-110728398D01*
X124473516Y-110642684D01*
X124473516Y-110585541D01*
X124444945Y-110499826D01*
X124387802Y-110442684D01*
X124330659Y-110414112D01*
X124216373Y-110385541D01*
X124130659Y-110385541D01*
X124016373Y-110414112D01*
X123959230Y-110442684D01*
X123902088Y-110499826D01*
X123873516Y-110585541D01*
X123873516Y-110642684D01*
X123902088Y-110728398D01*
X123930659Y-110756969D01*
X124473516Y-111328398D02*
X124473516Y-110985541D01*
X124473516Y-111156969D02*
X123873516Y-111156969D01*
X123959230Y-111099826D01*
X124016373Y-111042684D01*
X124044945Y-110985541D01*
X124073516Y-111842684D02*
X124473516Y-111842684D01*
X123844945Y-111699826D02*
X124273516Y-111556969D01*
X124273516Y-111928398D01*
D15*
X125041183Y-87018064D02*
X125041183Y-86018064D01*
X124660230Y-86018064D01*
X124564992Y-86065684D01*
X124517373Y-86113303D01*
X124469754Y-86208541D01*
X124469754Y-86351398D01*
X124517373Y-86446636D01*
X124564992Y-86494255D01*
X124660230Y-86541874D01*
X125041183Y-86541874D01*
X124136421Y-86018064D02*
X123517373Y-86018064D01*
X123850707Y-86399017D01*
X123707849Y-86399017D01*
X123612611Y-86446636D01*
X123564992Y-86494255D01*
X123517373Y-86589493D01*
X123517373Y-86827588D01*
X123564992Y-86922826D01*
X123612611Y-86970445D01*
X123707849Y-87018064D01*
X123993564Y-87018064D01*
X124088802Y-86970445D01*
X124136421Y-86922826D01*
X154467754Y-121780464D02*
X154943945Y-121780464D01*
X154943945Y-120780464D01*
X153705849Y-121113798D02*
X153705849Y-121780464D01*
X153943945Y-120732845D02*
X154182040Y-121447131D01*
X153562992Y-121447131D01*
X139481754Y-120135826D02*
X139529373Y-120183445D01*
X139672230Y-120231064D01*
X139767468Y-120231064D01*
X139910326Y-120183445D01*
X140005564Y-120088207D01*
X140053183Y-119992969D01*
X140100802Y-119802493D01*
X140100802Y-119659636D01*
X140053183Y-119469160D01*
X140005564Y-119373922D01*
X139910326Y-119278684D01*
X139767468Y-119231064D01*
X139672230Y-119231064D01*
X139529373Y-119278684D01*
X139481754Y-119326303D01*
X138529373Y-120231064D02*
X139100802Y-120231064D01*
X138815088Y-120231064D02*
X138815088Y-119231064D01*
X138910326Y-119373922D01*
X139005564Y-119469160D01*
X139100802Y-119516779D01*
D13*
X143612402Y-106734169D02*
X143640973Y-106762741D01*
X143726688Y-106791312D01*
X143783830Y-106791312D01*
X143869545Y-106762741D01*
X143926688Y-106705598D01*
X143955259Y-106648455D01*
X143983830Y-106534169D01*
X143983830Y-106448455D01*
X143955259Y-106334169D01*
X143926688Y-106277026D01*
X143869545Y-106219884D01*
X143783830Y-106191312D01*
X143726688Y-106191312D01*
X143640973Y-106219884D01*
X143612402Y-106248455D01*
X143040973Y-106791312D02*
X143383830Y-106791312D01*
X143212402Y-106791312D02*
X143212402Y-106191312D01*
X143269545Y-106277026D01*
X143326688Y-106334169D01*
X143383830Y-106362741D01*
X142469545Y-106791312D02*
X142812402Y-106791312D01*
X142640973Y-106791312D02*
X142640973Y-106191312D01*
X142698116Y-106277026D01*
X142755259Y-106334169D01*
X142812402Y-106362741D01*
X141227713Y-109941888D02*
X141256284Y-109970460D01*
X141341999Y-109999031D01*
X141399141Y-109999031D01*
X141484856Y-109970460D01*
X141541999Y-109913317D01*
X141570570Y-109856174D01*
X141599141Y-109741888D01*
X141599141Y-109656174D01*
X141570570Y-109541888D01*
X141541999Y-109484745D01*
X141484856Y-109427603D01*
X141399141Y-109399031D01*
X141341999Y-109399031D01*
X141256284Y-109427603D01*
X141227713Y-109456174D01*
X140656284Y-109999031D02*
X140999141Y-109999031D01*
X140827713Y-109999031D02*
X140827713Y-109399031D01*
X140884856Y-109484745D01*
X140941999Y-109541888D01*
X140999141Y-109570460D01*
X140456284Y-109399031D02*
X140084856Y-109399031D01*
X140284856Y-109627603D01*
X140199141Y-109627603D01*
X140141999Y-109656174D01*
X140113427Y-109684745D01*
X140084856Y-109741888D01*
X140084856Y-109884745D01*
X140113427Y-109941888D01*
X140141999Y-109970460D01*
X140199141Y-109999031D01*
X140370570Y-109999031D01*
X140427713Y-109970460D01*
X140456284Y-109941888D01*
X142963916Y-103574255D02*
X142987726Y-103598064D01*
X143059154Y-103621874D01*
X143106773Y-103621874D01*
X143178202Y-103598064D01*
X143225821Y-103550445D01*
X143249630Y-103502826D01*
X143273440Y-103407588D01*
X143273440Y-103336160D01*
X143249630Y-103240922D01*
X143225821Y-103193303D01*
X143178202Y-103145684D01*
X143106773Y-103121874D01*
X143059154Y-103121874D01*
X142987726Y-103145684D01*
X142963916Y-103169493D01*
X142487726Y-103621874D02*
X142773440Y-103621874D01*
X142630583Y-103621874D02*
X142630583Y-103121874D01*
X142678202Y-103193303D01*
X142725821Y-103240922D01*
X142773440Y-103264731D01*
X142035345Y-103121874D02*
X142273440Y-103121874D01*
X142297249Y-103359969D01*
X142273440Y-103336160D01*
X142225821Y-103312350D01*
X142106773Y-103312350D01*
X142059154Y-103336160D01*
X142035345Y-103359969D01*
X142011535Y-103407588D01*
X142011535Y-103526636D01*
X142035345Y-103574255D01*
X142059154Y-103598064D01*
X142106773Y-103621874D01*
X142225821Y-103621874D01*
X142273440Y-103598064D01*
X142297249Y-103574255D01*
X118146993Y-107631328D02*
X118175564Y-107659900D01*
X118261279Y-107688471D01*
X118318421Y-107688471D01*
X118404136Y-107659900D01*
X118461279Y-107602757D01*
X118489850Y-107545614D01*
X118518421Y-107431328D01*
X118518421Y-107345614D01*
X118489850Y-107231328D01*
X118461279Y-107174185D01*
X118404136Y-107117043D01*
X118318421Y-107088471D01*
X118261279Y-107088471D01*
X118175564Y-107117043D01*
X118146993Y-107145614D01*
X117575564Y-107688471D02*
X117918421Y-107688471D01*
X117746993Y-107688471D02*
X117746993Y-107088471D01*
X117804136Y-107174185D01*
X117861279Y-107231328D01*
X117918421Y-107259900D01*
X117232707Y-107345614D02*
X117289850Y-107317043D01*
X117318421Y-107288471D01*
X117346993Y-107231328D01*
X117346993Y-107202757D01*
X117318421Y-107145614D01*
X117289850Y-107117043D01*
X117232707Y-107088471D01*
X117118421Y-107088471D01*
X117061279Y-107117043D01*
X117032707Y-107145614D01*
X117004136Y-107202757D01*
X117004136Y-107231328D01*
X117032707Y-107288471D01*
X117061279Y-107317043D01*
X117118421Y-107345614D01*
X117232707Y-107345614D01*
X117289850Y-107374185D01*
X117318421Y-107402757D01*
X117346993Y-107459900D01*
X117346993Y-107574185D01*
X117318421Y-107631328D01*
X117289850Y-107659900D01*
X117232707Y-107688471D01*
X117118421Y-107688471D01*
X117061279Y-107659900D01*
X117032707Y-107631328D01*
X117004136Y-107574185D01*
X117004136Y-107459900D01*
X117032707Y-107402757D01*
X117061279Y-107374185D01*
X117118421Y-107345614D01*
X118177473Y-105980528D02*
X118206044Y-106009100D01*
X118291759Y-106037671D01*
X118348901Y-106037671D01*
X118434616Y-106009100D01*
X118491759Y-105951957D01*
X118520330Y-105894814D01*
X118548901Y-105780528D01*
X118548901Y-105694814D01*
X118520330Y-105580528D01*
X118491759Y-105523385D01*
X118434616Y-105466243D01*
X118348901Y-105437671D01*
X118291759Y-105437671D01*
X118206044Y-105466243D01*
X118177473Y-105494814D01*
X117606044Y-106037671D02*
X117948901Y-106037671D01*
X117777473Y-106037671D02*
X117777473Y-105437671D01*
X117834616Y-105523385D01*
X117891759Y-105580528D01*
X117948901Y-105609100D01*
X117320330Y-106037671D02*
X117206044Y-106037671D01*
X117148901Y-106009100D01*
X117120330Y-105980528D01*
X117063187Y-105894814D01*
X117034616Y-105780528D01*
X117034616Y-105551957D01*
X117063187Y-105494814D01*
X117091759Y-105466243D01*
X117148901Y-105437671D01*
X117263187Y-105437671D01*
X117320330Y-105466243D01*
X117348901Y-105494814D01*
X117377473Y-105551957D01*
X117377473Y-105694814D01*
X117348901Y-105751957D01*
X117320330Y-105780528D01*
X117263187Y-105809100D01*
X117148901Y-105809100D01*
X117091759Y-105780528D01*
X117063187Y-105751957D01*
X117034616Y-105694814D01*
X132966373Y-113061569D02*
X132994945Y-113032998D01*
X133023516Y-112947284D01*
X133023516Y-112890141D01*
X132994945Y-112804426D01*
X132937802Y-112747284D01*
X132880659Y-112718712D01*
X132766373Y-112690141D01*
X132680659Y-112690141D01*
X132566373Y-112718712D01*
X132509230Y-112747284D01*
X132452088Y-112804426D01*
X132423516Y-112890141D01*
X132423516Y-112947284D01*
X132452088Y-113032998D01*
X132480659Y-113061569D01*
X132480659Y-113290141D02*
X132452088Y-113318712D01*
X132423516Y-113375855D01*
X132423516Y-113518712D01*
X132452088Y-113575855D01*
X132480659Y-113604426D01*
X132537802Y-113632998D01*
X132594945Y-113632998D01*
X132680659Y-113604426D01*
X133023516Y-113261569D01*
X133023516Y-113632998D01*
X132423516Y-114004426D02*
X132423516Y-114061569D01*
X132452088Y-114118712D01*
X132480659Y-114147284D01*
X132537802Y-114175855D01*
X132652088Y-114204426D01*
X132794945Y-114204426D01*
X132909230Y-114175855D01*
X132966373Y-114147284D01*
X132994945Y-114118712D01*
X133023516Y-114061569D01*
X133023516Y-114004426D01*
X132994945Y-113947284D01*
X132966373Y-113918712D01*
X132909230Y-113890141D01*
X132794945Y-113861569D01*
X132652088Y-113861569D01*
X132537802Y-113890141D01*
X132480659Y-113918712D01*
X132452088Y-113947284D01*
X132423516Y-114004426D01*
X106714802Y-98931969D02*
X106743373Y-98960541D01*
X106829088Y-98989112D01*
X106886230Y-98989112D01*
X106971945Y-98960541D01*
X107029088Y-98903398D01*
X107057659Y-98846255D01*
X107086230Y-98731969D01*
X107086230Y-98646255D01*
X107057659Y-98531969D01*
X107029088Y-98474826D01*
X106971945Y-98417684D01*
X106886230Y-98389112D01*
X106829088Y-98389112D01*
X106743373Y-98417684D01*
X106714802Y-98446255D01*
X106486230Y-98446255D02*
X106457659Y-98417684D01*
X106400516Y-98389112D01*
X106257659Y-98389112D01*
X106200516Y-98417684D01*
X106171945Y-98446255D01*
X106143373Y-98503398D01*
X106143373Y-98560541D01*
X106171945Y-98646255D01*
X106514802Y-98989112D01*
X106143373Y-98989112D01*
X105571945Y-98989112D02*
X105914802Y-98989112D01*
X105743373Y-98989112D02*
X105743373Y-98389112D01*
X105800516Y-98474826D01*
X105857659Y-98531969D01*
X105914802Y-98560541D01*
X106498802Y-112769969D02*
X106527373Y-112798541D01*
X106613088Y-112827112D01*
X106670230Y-112827112D01*
X106755945Y-112798541D01*
X106813088Y-112741398D01*
X106841659Y-112684255D01*
X106870230Y-112569969D01*
X106870230Y-112484255D01*
X106841659Y-112369969D01*
X106813088Y-112312826D01*
X106755945Y-112255684D01*
X106670230Y-112227112D01*
X106613088Y-112227112D01*
X106527373Y-112255684D01*
X106498802Y-112284255D01*
X106270230Y-112284255D02*
X106241659Y-112255684D01*
X106184516Y-112227112D01*
X106041659Y-112227112D01*
X105984516Y-112255684D01*
X105955945Y-112284255D01*
X105927373Y-112341398D01*
X105927373Y-112398541D01*
X105955945Y-112484255D01*
X106298802Y-112827112D01*
X105927373Y-112827112D01*
X105384516Y-112227112D02*
X105670230Y-112227112D01*
X105698802Y-112512826D01*
X105670230Y-112484255D01*
X105613088Y-112455684D01*
X105470230Y-112455684D01*
X105413088Y-112484255D01*
X105384516Y-112512826D01*
X105355945Y-112569969D01*
X105355945Y-112712826D01*
X105384516Y-112769969D01*
X105413088Y-112798541D01*
X105470230Y-112827112D01*
X105613088Y-112827112D01*
X105670230Y-112798541D01*
X105698802Y-112769969D01*
X128261173Y-120788769D02*
X128289745Y-120760198D01*
X128318316Y-120674484D01*
X128318316Y-120617341D01*
X128289745Y-120531626D01*
X128232602Y-120474484D01*
X128175459Y-120445912D01*
X128061173Y-120417341D01*
X127975459Y-120417341D01*
X127861173Y-120445912D01*
X127804030Y-120474484D01*
X127746888Y-120531626D01*
X127718316Y-120617341D01*
X127718316Y-120674484D01*
X127746888Y-120760198D01*
X127775459Y-120788769D01*
X127775459Y-121017341D02*
X127746888Y-121045912D01*
X127718316Y-121103055D01*
X127718316Y-121245912D01*
X127746888Y-121303055D01*
X127775459Y-121331626D01*
X127832602Y-121360198D01*
X127889745Y-121360198D01*
X127975459Y-121331626D01*
X128318316Y-120988769D01*
X128318316Y-121360198D01*
X127718316Y-121560198D02*
X127718316Y-121960198D01*
X128318316Y-121703055D01*
X134208802Y-122541249D02*
X134237373Y-122569821D01*
X134323088Y-122598392D01*
X134380230Y-122598392D01*
X134465945Y-122569821D01*
X134523088Y-122512678D01*
X134551659Y-122455535D01*
X134580230Y-122341249D01*
X134580230Y-122255535D01*
X134551659Y-122141249D01*
X134523088Y-122084106D01*
X134465945Y-122026964D01*
X134380230Y-121998392D01*
X134323088Y-121998392D01*
X134237373Y-122026964D01*
X134208802Y-122055535D01*
X133980230Y-122055535D02*
X133951659Y-122026964D01*
X133894516Y-121998392D01*
X133751659Y-121998392D01*
X133694516Y-122026964D01*
X133665945Y-122055535D01*
X133637373Y-122112678D01*
X133637373Y-122169821D01*
X133665945Y-122255535D01*
X134008802Y-122598392D01*
X133637373Y-122598392D01*
X133294516Y-122255535D02*
X133351659Y-122226964D01*
X133380230Y-122198392D01*
X133408802Y-122141249D01*
X133408802Y-122112678D01*
X133380230Y-122055535D01*
X133351659Y-122026964D01*
X133294516Y-121998392D01*
X133180230Y-121998392D01*
X133123088Y-122026964D01*
X133094516Y-122055535D01*
X133065945Y-122112678D01*
X133065945Y-122141249D01*
X133094516Y-122198392D01*
X133123088Y-122226964D01*
X133180230Y-122255535D01*
X133294516Y-122255535D01*
X133351659Y-122284106D01*
X133380230Y-122312678D01*
X133408802Y-122369821D01*
X133408802Y-122484106D01*
X133380230Y-122541249D01*
X133351659Y-122569821D01*
X133294516Y-122598392D01*
X133180230Y-122598392D01*
X133123088Y-122569821D01*
X133094516Y-122541249D01*
X133065945Y-122484106D01*
X133065945Y-122369821D01*
X133094516Y-122312678D01*
X133123088Y-122284106D01*
X133180230Y-122255535D01*
X135819202Y-125687649D02*
X135847773Y-125716221D01*
X135933488Y-125744792D01*
X135990630Y-125744792D01*
X136076345Y-125716221D01*
X136133488Y-125659078D01*
X136162059Y-125601935D01*
X136190630Y-125487649D01*
X136190630Y-125401935D01*
X136162059Y-125287649D01*
X136133488Y-125230506D01*
X136076345Y-125173364D01*
X135990630Y-125144792D01*
X135933488Y-125144792D01*
X135847773Y-125173364D01*
X135819202Y-125201935D01*
X135590630Y-125201935D02*
X135562059Y-125173364D01*
X135504916Y-125144792D01*
X135362059Y-125144792D01*
X135304916Y-125173364D01*
X135276345Y-125201935D01*
X135247773Y-125259078D01*
X135247773Y-125316221D01*
X135276345Y-125401935D01*
X135619202Y-125744792D01*
X135247773Y-125744792D01*
X134962059Y-125744792D02*
X134847773Y-125744792D01*
X134790630Y-125716221D01*
X134762059Y-125687649D01*
X134704916Y-125601935D01*
X134676345Y-125487649D01*
X134676345Y-125259078D01*
X134704916Y-125201935D01*
X134733488Y-125173364D01*
X134790630Y-125144792D01*
X134904916Y-125144792D01*
X134962059Y-125173364D01*
X134990630Y-125201935D01*
X135019202Y-125259078D01*
X135019202Y-125401935D01*
X134990630Y-125459078D01*
X134962059Y-125487649D01*
X134904916Y-125516221D01*
X134790630Y-125516221D01*
X134733488Y-125487649D01*
X134704916Y-125459078D01*
X134676345Y-125401935D01*
X129867373Y-123369969D02*
X129895945Y-123341398D01*
X129924516Y-123255684D01*
X129924516Y-123198541D01*
X129895945Y-123112826D01*
X129838802Y-123055684D01*
X129781659Y-123027112D01*
X129667373Y-122998541D01*
X129581659Y-122998541D01*
X129467373Y-123027112D01*
X129410230Y-123055684D01*
X129353088Y-123112826D01*
X129324516Y-123198541D01*
X129324516Y-123255684D01*
X129353088Y-123341398D01*
X129381659Y-123369969D01*
X129324516Y-123569969D02*
X129324516Y-123941398D01*
X129553088Y-123741398D01*
X129553088Y-123827112D01*
X129581659Y-123884255D01*
X129610230Y-123912826D01*
X129667373Y-123941398D01*
X129810230Y-123941398D01*
X129867373Y-123912826D01*
X129895945Y-123884255D01*
X129924516Y-123827112D01*
X129924516Y-123655684D01*
X129895945Y-123598541D01*
X129867373Y-123569969D01*
X129924516Y-124512826D02*
X129924516Y-124169969D01*
X129924516Y-124341398D02*
X129324516Y-124341398D01*
X129410230Y-124284255D01*
X129467373Y-124227112D01*
X129495945Y-124169969D01*
X134816202Y-123636169D02*
X134844773Y-123664741D01*
X134930488Y-123693312D01*
X134987630Y-123693312D01*
X135073345Y-123664741D01*
X135130488Y-123607598D01*
X135159059Y-123550455D01*
X135187630Y-123436169D01*
X135187630Y-123350455D01*
X135159059Y-123236169D01*
X135130488Y-123179026D01*
X135073345Y-123121884D01*
X134987630Y-123093312D01*
X134930488Y-123093312D01*
X134844773Y-123121884D01*
X134816202Y-123150455D01*
X134616202Y-123093312D02*
X134244773Y-123093312D01*
X134444773Y-123321884D01*
X134359059Y-123321884D01*
X134301916Y-123350455D01*
X134273345Y-123379026D01*
X134244773Y-123436169D01*
X134244773Y-123579026D01*
X134273345Y-123636169D01*
X134301916Y-123664741D01*
X134359059Y-123693312D01*
X134530488Y-123693312D01*
X134587630Y-123664741D01*
X134616202Y-123636169D01*
X134016202Y-123150455D02*
X133987630Y-123121884D01*
X133930488Y-123093312D01*
X133787630Y-123093312D01*
X133730488Y-123121884D01*
X133701916Y-123150455D01*
X133673345Y-123207598D01*
X133673345Y-123264741D01*
X133701916Y-123350455D01*
X134044773Y-123693312D01*
X133673345Y-123693312D01*
X136266802Y-126602049D02*
X136295373Y-126630621D01*
X136381088Y-126659192D01*
X136438230Y-126659192D01*
X136523945Y-126630621D01*
X136581088Y-126573478D01*
X136609659Y-126516335D01*
X136638230Y-126402049D01*
X136638230Y-126316335D01*
X136609659Y-126202049D01*
X136581088Y-126144906D01*
X136523945Y-126087764D01*
X136438230Y-126059192D01*
X136381088Y-126059192D01*
X136295373Y-126087764D01*
X136266802Y-126116335D01*
X136066802Y-126059192D02*
X135695373Y-126059192D01*
X135895373Y-126287764D01*
X135809659Y-126287764D01*
X135752516Y-126316335D01*
X135723945Y-126344906D01*
X135695373Y-126402049D01*
X135695373Y-126544906D01*
X135723945Y-126602049D01*
X135752516Y-126630621D01*
X135809659Y-126659192D01*
X135981088Y-126659192D01*
X136038230Y-126630621D01*
X136066802Y-126602049D01*
X135495373Y-126059192D02*
X135123945Y-126059192D01*
X135323945Y-126287764D01*
X135238230Y-126287764D01*
X135181088Y-126316335D01*
X135152516Y-126344906D01*
X135123945Y-126402049D01*
X135123945Y-126544906D01*
X135152516Y-126602049D01*
X135181088Y-126630621D01*
X135238230Y-126659192D01*
X135409659Y-126659192D01*
X135466802Y-126630621D01*
X135495373Y-126602049D01*
X126497373Y-124979969D02*
X126525945Y-124951398D01*
X126554516Y-124865684D01*
X126554516Y-124808541D01*
X126525945Y-124722826D01*
X126468802Y-124665684D01*
X126411659Y-124637112D01*
X126297373Y-124608541D01*
X126211659Y-124608541D01*
X126097373Y-124637112D01*
X126040230Y-124665684D01*
X125983088Y-124722826D01*
X125954516Y-124808541D01*
X125954516Y-124865684D01*
X125983088Y-124951398D01*
X126011659Y-124979969D01*
X125954516Y-125179969D02*
X125954516Y-125551398D01*
X126183088Y-125351398D01*
X126183088Y-125437112D01*
X126211659Y-125494255D01*
X126240230Y-125522826D01*
X126297373Y-125551398D01*
X126440230Y-125551398D01*
X126497373Y-125522826D01*
X126525945Y-125494255D01*
X126554516Y-125437112D01*
X126554516Y-125265684D01*
X126525945Y-125208541D01*
X126497373Y-125179969D01*
X126154516Y-126065684D02*
X126554516Y-126065684D01*
X125925945Y-125922826D02*
X126354516Y-125779969D01*
X126354516Y-126151398D01*
X135522402Y-124722449D02*
X135550973Y-124751021D01*
X135636688Y-124779592D01*
X135693830Y-124779592D01*
X135779545Y-124751021D01*
X135836688Y-124693878D01*
X135865259Y-124636735D01*
X135893830Y-124522449D01*
X135893830Y-124436735D01*
X135865259Y-124322449D01*
X135836688Y-124265306D01*
X135779545Y-124208164D01*
X135693830Y-124179592D01*
X135636688Y-124179592D01*
X135550973Y-124208164D01*
X135522402Y-124236735D01*
X135322402Y-124179592D02*
X134950973Y-124179592D01*
X135150973Y-124408164D01*
X135065259Y-124408164D01*
X135008116Y-124436735D01*
X134979545Y-124465306D01*
X134950973Y-124522449D01*
X134950973Y-124665306D01*
X134979545Y-124722449D01*
X135008116Y-124751021D01*
X135065259Y-124779592D01*
X135236688Y-124779592D01*
X135293830Y-124751021D01*
X135322402Y-124722449D01*
X134408116Y-124179592D02*
X134693830Y-124179592D01*
X134722402Y-124465306D01*
X134693830Y-124436735D01*
X134636688Y-124408164D01*
X134493830Y-124408164D01*
X134436688Y-124436735D01*
X134408116Y-124465306D01*
X134379545Y-124522449D01*
X134379545Y-124665306D01*
X134408116Y-124722449D01*
X134436688Y-124751021D01*
X134493830Y-124779592D01*
X134636688Y-124779592D01*
X134693830Y-124751021D01*
X134722402Y-124722449D01*
X125567373Y-123909969D02*
X125595945Y-123881398D01*
X125624516Y-123795684D01*
X125624516Y-123738541D01*
X125595945Y-123652826D01*
X125538802Y-123595684D01*
X125481659Y-123567112D01*
X125367373Y-123538541D01*
X125281659Y-123538541D01*
X125167373Y-123567112D01*
X125110230Y-123595684D01*
X125053088Y-123652826D01*
X125024516Y-123738541D01*
X125024516Y-123795684D01*
X125053088Y-123881398D01*
X125081659Y-123909969D01*
X125024516Y-124109969D02*
X125024516Y-124481398D01*
X125253088Y-124281398D01*
X125253088Y-124367112D01*
X125281659Y-124424255D01*
X125310230Y-124452826D01*
X125367373Y-124481398D01*
X125510230Y-124481398D01*
X125567373Y-124452826D01*
X125595945Y-124424255D01*
X125624516Y-124367112D01*
X125624516Y-124195684D01*
X125595945Y-124138541D01*
X125567373Y-124109969D01*
X125024516Y-124995684D02*
X125024516Y-124881398D01*
X125053088Y-124824255D01*
X125081659Y-124795684D01*
X125167373Y-124738541D01*
X125281659Y-124709969D01*
X125510230Y-124709969D01*
X125567373Y-124738541D01*
X125595945Y-124767112D01*
X125624516Y-124824255D01*
X125624516Y-124938541D01*
X125595945Y-124995684D01*
X125567373Y-125024255D01*
X125510230Y-125052826D01*
X125367373Y-125052826D01*
X125310230Y-125024255D01*
X125281659Y-124995684D01*
X125253088Y-124938541D01*
X125253088Y-124824255D01*
X125281659Y-124767112D01*
X125310230Y-124738541D01*
X125367373Y-124709969D01*
D15*
X154845573Y-116611684D02*
X154940811Y-116564064D01*
X155083668Y-116564064D01*
X155226526Y-116611684D01*
X155321764Y-116706922D01*
X155369383Y-116802160D01*
X155417002Y-116992636D01*
X155417002Y-117135493D01*
X155369383Y-117325969D01*
X155321764Y-117421207D01*
X155226526Y-117516445D01*
X155083668Y-117564064D01*
X154988430Y-117564064D01*
X154845573Y-117516445D01*
X154797954Y-117468826D01*
X154797954Y-117135493D01*
X154988430Y-117135493D01*
X153845573Y-117564064D02*
X154417002Y-117564064D01*
X154131288Y-117564064D02*
X154131288Y-116564064D01*
X154226526Y-116706922D01*
X154321764Y-116802160D01*
X154417002Y-116849779D01*
X119528326Y-113353303D02*
X119623564Y-113305684D01*
X119718802Y-113210445D01*
X119861659Y-113067588D01*
X119956897Y-113019969D01*
X120052135Y-113019969D01*
X120004516Y-113258064D02*
X120099754Y-113210445D01*
X120194992Y-113115207D01*
X120242611Y-112924731D01*
X120242611Y-112591398D01*
X120194992Y-112400922D01*
X120099754Y-112305684D01*
X120004516Y-112258064D01*
X119814040Y-112258064D01*
X119718802Y-112305684D01*
X119623564Y-112400922D01*
X119575945Y-112591398D01*
X119575945Y-112924731D01*
X119623564Y-113115207D01*
X119718802Y-113210445D01*
X119814040Y-113258064D01*
X120004516Y-113258064D01*
X118623564Y-113258064D02*
X119194992Y-113258064D01*
X118909278Y-113258064D02*
X118909278Y-112258064D01*
X119004516Y-112400922D01*
X119099754Y-112496160D01*
X119194992Y-112543779D01*
D13*
X117799688Y-90687712D02*
X117999688Y-90401998D01*
X118142545Y-90687712D02*
X118142545Y-90087712D01*
X117913973Y-90087712D01*
X117856830Y-90116284D01*
X117828259Y-90144855D01*
X117799688Y-90201998D01*
X117799688Y-90287712D01*
X117828259Y-90344855D01*
X117856830Y-90373426D01*
X117913973Y-90401998D01*
X118142545Y-90401998D01*
X117285402Y-90287712D02*
X117285402Y-90687712D01*
X117428259Y-90059141D02*
X117571116Y-90487712D01*
X117199688Y-90487712D01*
X121457288Y-93126112D02*
X121657288Y-92840398D01*
X121800145Y-93126112D02*
X121800145Y-92526112D01*
X121571573Y-92526112D01*
X121514430Y-92554684D01*
X121485859Y-92583255D01*
X121457288Y-92640398D01*
X121457288Y-92726112D01*
X121485859Y-92783255D01*
X121514430Y-92811826D01*
X121571573Y-92840398D01*
X121800145Y-92840398D01*
X120914430Y-92526112D02*
X121200145Y-92526112D01*
X121228716Y-92811826D01*
X121200145Y-92783255D01*
X121143002Y-92754684D01*
X121000145Y-92754684D01*
X120943002Y-92783255D01*
X120914430Y-92811826D01*
X120885859Y-92868969D01*
X120885859Y-93011826D01*
X120914430Y-93068969D01*
X120943002Y-93097541D01*
X121000145Y-93126112D01*
X121143002Y-93126112D01*
X121200145Y-93097541D01*
X121228716Y-93068969D01*
D15*
X121955754Y-117564064D02*
X122289088Y-117087874D01*
X122527183Y-117564064D02*
X122527183Y-116564064D01*
X122146230Y-116564064D01*
X122050992Y-116611684D01*
X122003373Y-116659303D01*
X121955754Y-116754541D01*
X121955754Y-116897398D01*
X122003373Y-116992636D01*
X122050992Y-117040255D01*
X122146230Y-117087874D01*
X122527183Y-117087874D01*
X121622421Y-116564064D02*
X120955754Y-116564064D01*
X121384326Y-117564064D01*
X162551268Y-117326017D02*
X162075078Y-116992684D01*
X162551268Y-116754588D02*
X161551268Y-116754588D01*
X161551268Y-117135541D01*
X161598888Y-117230779D01*
X161646507Y-117278398D01*
X161741745Y-117326017D01*
X161884602Y-117326017D01*
X161979840Y-117278398D01*
X162027459Y-117230779D01*
X162075078Y-117135541D01*
X162075078Y-116754588D01*
X161979840Y-117897445D02*
X161932221Y-117802207D01*
X161884602Y-117754588D01*
X161789364Y-117706969D01*
X161741745Y-117706969D01*
X161646507Y-117754588D01*
X161598888Y-117802207D01*
X161551268Y-117897445D01*
X161551268Y-118087922D01*
X161598888Y-118183160D01*
X161646507Y-118230779D01*
X161741745Y-118278398D01*
X161789364Y-118278398D01*
X161884602Y-118230779D01*
X161932221Y-118183160D01*
X161979840Y-118087922D01*
X161979840Y-117897445D01*
X162027459Y-117802207D01*
X162075078Y-117754588D01*
X162170316Y-117706969D01*
X162360792Y-117706969D01*
X162456030Y-117754588D01*
X162503649Y-117802207D01*
X162551268Y-117897445D01*
X162551268Y-118087922D01*
X162503649Y-118183160D01*
X162456030Y-118230779D01*
X162360792Y-118278398D01*
X162170316Y-118278398D01*
X162075078Y-118230779D01*
X162027459Y-118183160D01*
X161979840Y-118087922D01*
X162297268Y-114481217D02*
X161821078Y-114147884D01*
X162297268Y-113909788D02*
X161297268Y-113909788D01*
X161297268Y-114290741D01*
X161344888Y-114385979D01*
X161392507Y-114433598D01*
X161487745Y-114481217D01*
X161630602Y-114481217D01*
X161725840Y-114433598D01*
X161773459Y-114385979D01*
X161821078Y-114290741D01*
X161821078Y-113909788D01*
X162297268Y-114957407D02*
X162297268Y-115147884D01*
X162249649Y-115243122D01*
X162202030Y-115290741D01*
X162059173Y-115385979D01*
X161868697Y-115433598D01*
X161487745Y-115433598D01*
X161392507Y-115385979D01*
X161344888Y-115338360D01*
X161297268Y-115243122D01*
X161297268Y-115052645D01*
X161344888Y-114957407D01*
X161392507Y-114909788D01*
X161487745Y-114862169D01*
X161725840Y-114862169D01*
X161821078Y-114909788D01*
X161868697Y-114957407D01*
X161916316Y-115052645D01*
X161916316Y-115243122D01*
X161868697Y-115338360D01*
X161821078Y-115385979D01*
X161725840Y-115433598D01*
D13*
X125082316Y-106898474D02*
X125248983Y-106660379D01*
X125368030Y-106898474D02*
X125368030Y-106398474D01*
X125177554Y-106398474D01*
X125129935Y-106422284D01*
X125106126Y-106446093D01*
X125082316Y-106493712D01*
X125082316Y-106565141D01*
X125106126Y-106612760D01*
X125129935Y-106636569D01*
X125177554Y-106660379D01*
X125368030Y-106660379D01*
X124606126Y-106898474D02*
X124891840Y-106898474D01*
X124748983Y-106898474D02*
X124748983Y-106398474D01*
X124796602Y-106469903D01*
X124844221Y-106517522D01*
X124891840Y-106541331D01*
X124296602Y-106398474D02*
X124248983Y-106398474D01*
X124201364Y-106422284D01*
X124177554Y-106446093D01*
X124153745Y-106493712D01*
X124129935Y-106588950D01*
X124129935Y-106707998D01*
X124153745Y-106803236D01*
X124177554Y-106850855D01*
X124201364Y-106874664D01*
X124248983Y-106898474D01*
X124296602Y-106898474D01*
X124344221Y-106874664D01*
X124368030Y-106850855D01*
X124391840Y-106803236D01*
X124415649Y-106707998D01*
X124415649Y-106588950D01*
X124391840Y-106493712D01*
X124368030Y-106446093D01*
X124344221Y-106422284D01*
X124296602Y-106398474D01*
X124164516Y-96411874D02*
X124331183Y-96173779D01*
X124450230Y-96411874D02*
X124450230Y-95911874D01*
X124259754Y-95911874D01*
X124212135Y-95935684D01*
X124188326Y-95959493D01*
X124164516Y-96007112D01*
X124164516Y-96078541D01*
X124188326Y-96126160D01*
X124212135Y-96149969D01*
X124259754Y-96173779D01*
X124450230Y-96173779D01*
X123688326Y-96411874D02*
X123974040Y-96411874D01*
X123831183Y-96411874D02*
X123831183Y-95911874D01*
X123878802Y-95983303D01*
X123926421Y-96030922D01*
X123974040Y-96054731D01*
X123212135Y-96411874D02*
X123497849Y-96411874D01*
X123354992Y-96411874D02*
X123354992Y-95911874D01*
X123402611Y-95983303D01*
X123450230Y-96030922D01*
X123497849Y-96054731D01*
X85441230Y-124943969D02*
X85691230Y-124586826D01*
X85869802Y-124943969D02*
X85869802Y-124193969D01*
X85584088Y-124193969D01*
X85512659Y-124229684D01*
X85476945Y-124265398D01*
X85441230Y-124336826D01*
X85441230Y-124443969D01*
X85476945Y-124515398D01*
X85512659Y-124551112D01*
X85584088Y-124586826D01*
X85869802Y-124586826D01*
X84726945Y-124943969D02*
X85155516Y-124943969D01*
X84941230Y-124943969D02*
X84941230Y-124193969D01*
X85012659Y-124301112D01*
X85084088Y-124372541D01*
X85155516Y-124408255D01*
X84441230Y-124265398D02*
X84405516Y-124229684D01*
X84334088Y-124193969D01*
X84155516Y-124193969D01*
X84084088Y-124229684D01*
X84048373Y-124265398D01*
X84012659Y-124336826D01*
X84012659Y-124408255D01*
X84048373Y-124515398D01*
X84476945Y-124943969D01*
X84012659Y-124943969D01*
D15*
X86933088Y-129112350D02*
X87166421Y-128779017D01*
X87333088Y-129112350D02*
X87333088Y-128412350D01*
X87066421Y-128412350D01*
X86999754Y-128445684D01*
X86966421Y-128479017D01*
X86933088Y-128545684D01*
X86933088Y-128645684D01*
X86966421Y-128712350D01*
X86999754Y-128745684D01*
X87066421Y-128779017D01*
X87333088Y-128779017D01*
X86266421Y-129112350D02*
X86666421Y-129112350D01*
X86466421Y-129112350D02*
X86466421Y-128412350D01*
X86533088Y-128512350D01*
X86599754Y-128579017D01*
X86666421Y-128612350D01*
X86033088Y-128412350D02*
X85599754Y-128412350D01*
X85833088Y-128679017D01*
X85733088Y-128679017D01*
X85666421Y-128712350D01*
X85633088Y-128745684D01*
X85599754Y-128812350D01*
X85599754Y-128979017D01*
X85633088Y-129045684D01*
X85666421Y-129079017D01*
X85733088Y-129112350D01*
X85933088Y-129112350D01*
X85999754Y-129079017D01*
X86033088Y-129045684D01*
D13*
X148617134Y-98924211D02*
X148512214Y-98591609D01*
X148825852Y-98652204D02*
X148349840Y-98286947D01*
X148210695Y-98468285D01*
X148198576Y-98531013D01*
X148203850Y-98571073D01*
X148231791Y-98628527D01*
X148299793Y-98680706D01*
X148362521Y-98692826D01*
X148402581Y-98687552D01*
X148460035Y-98659610D01*
X148599180Y-98478272D01*
X148269271Y-99377556D02*
X148477989Y-99105549D01*
X148373630Y-99241552D02*
X147897618Y-98876296D01*
X148000406Y-98883141D01*
X148080527Y-98872592D01*
X148137980Y-98844651D01*
X147480181Y-99420309D02*
X147549754Y-99329640D01*
X147607208Y-99301699D01*
X147647268Y-99296425D01*
X147750056Y-99303270D01*
X147858118Y-99350175D01*
X148039456Y-99489321D01*
X148067397Y-99546775D01*
X148072671Y-99586835D01*
X148060552Y-99649563D01*
X147990980Y-99740232D01*
X147933526Y-99768173D01*
X147893466Y-99773447D01*
X147830738Y-99761328D01*
X147717402Y-99674362D01*
X147689460Y-99616908D01*
X147684186Y-99576848D01*
X147696306Y-99514120D01*
X147765878Y-99423451D01*
X147823332Y-99395510D01*
X147863392Y-99390236D01*
X147926120Y-99402355D01*
X149607733Y-99571911D02*
X149502813Y-99239309D01*
X149816451Y-99299904D02*
X149340439Y-98934647D01*
X149201294Y-99115985D01*
X149189175Y-99178713D01*
X149194449Y-99218773D01*
X149222390Y-99276227D01*
X149290392Y-99328406D01*
X149353120Y-99340526D01*
X149393180Y-99335252D01*
X149450634Y-99307310D01*
X149589779Y-99125972D01*
X149037910Y-99422778D02*
X148997850Y-99428052D01*
X148940396Y-99455994D01*
X148853430Y-99569330D01*
X148841311Y-99632058D01*
X148846585Y-99672118D01*
X148874527Y-99729572D01*
X148919861Y-99764358D01*
X149005256Y-99793870D01*
X149485981Y-99730582D01*
X149259870Y-100025256D01*
X148662105Y-99818670D02*
X148435994Y-100113344D01*
X148739084Y-100093819D01*
X148686905Y-100161820D01*
X148674785Y-100224548D01*
X148680059Y-100264608D01*
X148708001Y-100322062D01*
X148821337Y-100409028D01*
X148884065Y-100421147D01*
X148924125Y-100415873D01*
X148981579Y-100387932D01*
X149085938Y-100251928D01*
X149098057Y-100189201D01*
X149092783Y-100149140D01*
X113681659Y-112791398D02*
X113967373Y-112991398D01*
X113681659Y-113134255D02*
X114281659Y-113134255D01*
X114281659Y-112905684D01*
X114253088Y-112848541D01*
X114224516Y-112819969D01*
X114167373Y-112791398D01*
X114081659Y-112791398D01*
X114024516Y-112819969D01*
X113995945Y-112848541D01*
X113967373Y-112905684D01*
X113967373Y-113134255D01*
X114281659Y-112591398D02*
X114281659Y-112219969D01*
X114053088Y-112419969D01*
X114053088Y-112334255D01*
X114024516Y-112277112D01*
X113995945Y-112248541D01*
X113938802Y-112219969D01*
X113795945Y-112219969D01*
X113738802Y-112248541D01*
X113710230Y-112277112D01*
X113681659Y-112334255D01*
X113681659Y-112505684D01*
X113710230Y-112562826D01*
X113738802Y-112591398D01*
X113681659Y-111934255D02*
X113681659Y-111819969D01*
X113710230Y-111762826D01*
X113738802Y-111734255D01*
X113824516Y-111677112D01*
X113938802Y-111648541D01*
X114167373Y-111648541D01*
X114224516Y-111677112D01*
X114253088Y-111705684D01*
X114281659Y-111762826D01*
X114281659Y-111877112D01*
X114253088Y-111934255D01*
X114224516Y-111962826D01*
X114167373Y-111991398D01*
X114024516Y-111991398D01*
X113967373Y-111962826D01*
X113938802Y-111934255D01*
X113910230Y-111877112D01*
X113910230Y-111762826D01*
X113938802Y-111705684D01*
X113967373Y-111677112D01*
X114024516Y-111648541D01*
D15*
X122873278Y-110771074D02*
X122873278Y-111247264D01*
X123206611Y-110247264D02*
X122873278Y-110771074D01*
X122539945Y-110247264D01*
X121682802Y-111247264D02*
X122254230Y-111247264D01*
X121968516Y-111247264D02*
X121968516Y-110247264D01*
X122063754Y-110390122D01*
X122158992Y-110485360D01*
X122254230Y-110532979D01*
D13*
X125991173Y-101224569D02*
X126019745Y-101195998D01*
X126048316Y-101110284D01*
X126048316Y-101053141D01*
X126019745Y-100967426D01*
X125962602Y-100910284D01*
X125905459Y-100881712D01*
X125791173Y-100853141D01*
X125705459Y-100853141D01*
X125591173Y-100881712D01*
X125534030Y-100910284D01*
X125476888Y-100967426D01*
X125448316Y-101053141D01*
X125448316Y-101110284D01*
X125476888Y-101195998D01*
X125505459Y-101224569D01*
X126048316Y-101795998D02*
X126048316Y-101453141D01*
X126048316Y-101624569D02*
X125448316Y-101624569D01*
X125534030Y-101567426D01*
X125591173Y-101510284D01*
X125619745Y-101453141D01*
X125448316Y-102167426D02*
X125448316Y-102224569D01*
X125476888Y-102281712D01*
X125505459Y-102310284D01*
X125562602Y-102338855D01*
X125676888Y-102367426D01*
X125819745Y-102367426D01*
X125934030Y-102338855D01*
X125991173Y-102310284D01*
X126019745Y-102281712D01*
X126048316Y-102224569D01*
X126048316Y-102167426D01*
X126019745Y-102110284D01*
X125991173Y-102081712D01*
X125934030Y-102053141D01*
X125819745Y-102024569D01*
X125676888Y-102024569D01*
X125562602Y-102053141D01*
X125505459Y-102081712D01*
X125476888Y-102110284D01*
X125448316Y-102167426D01*
X111931646Y-149139496D02*
X111936920Y-149179556D01*
X111987529Y-149254403D01*
X112032863Y-149289189D01*
X112118258Y-149318702D01*
X112198379Y-149308154D01*
X112255833Y-149280212D01*
X112348073Y-149206936D01*
X112400252Y-149138935D01*
X112447158Y-149030873D01*
X112459277Y-148968145D01*
X112448729Y-148888024D01*
X112398120Y-148813177D01*
X112352786Y-148778391D01*
X112267391Y-148748879D01*
X112227330Y-148754153D01*
X111732354Y-148554412D02*
X111488850Y-148871753D01*
X111984836Y-148460040D02*
X111837274Y-148887014D01*
X111542600Y-148660903D01*
X111216843Y-148663035D02*
X111126174Y-148593462D01*
X111098233Y-148536008D01*
X111092959Y-148495948D01*
X111099804Y-148393160D01*
X111146709Y-148285098D01*
X111285855Y-148103760D01*
X111343308Y-148075819D01*
X111383369Y-148070544D01*
X111446096Y-148082664D01*
X111536765Y-148152236D01*
X111564706Y-148209690D01*
X111569981Y-148249750D01*
X111557861Y-148312478D01*
X111470896Y-148425814D01*
X111413442Y-148453756D01*
X111373381Y-148459030D01*
X111310654Y-148446910D01*
X111219985Y-148377338D01*
X111192044Y-148319884D01*
X111186770Y-148279824D01*
X111198889Y-148217096D01*
X142894900Y-100934125D02*
X142934960Y-100928851D01*
X143009807Y-100878242D01*
X143044593Y-100832908D01*
X143074106Y-100747513D01*
X143063558Y-100667392D01*
X143035616Y-100609938D01*
X142962340Y-100517698D01*
X142894339Y-100465519D01*
X142786277Y-100418613D01*
X142723549Y-100406494D01*
X142643428Y-100417042D01*
X142568581Y-100467651D01*
X142533795Y-100512985D01*
X142504283Y-100598380D01*
X142509557Y-100638441D01*
X142133752Y-101034332D02*
X142307684Y-100807659D01*
X142551749Y-100958924D01*
X142511689Y-100964198D01*
X142454235Y-100992139D01*
X142367269Y-101105475D01*
X142355150Y-101168203D01*
X142360424Y-101208264D01*
X142388365Y-101265717D01*
X142501702Y-101352683D01*
X142564429Y-101364802D01*
X142604490Y-101359528D01*
X142661943Y-101331587D01*
X142748909Y-101218251D01*
X142761028Y-101155523D01*
X142755754Y-101115463D01*
X141890247Y-101351673D02*
X141855461Y-101397008D01*
X141843342Y-101459735D01*
X141848616Y-101499796D01*
X141876557Y-101557249D01*
X141949833Y-101649489D01*
X142063169Y-101736455D01*
X142171231Y-101783361D01*
X142233959Y-101795480D01*
X142274019Y-101790206D01*
X142331473Y-101762264D01*
X142366259Y-101716930D01*
X142378378Y-101654202D01*
X142373104Y-101614142D01*
X142345163Y-101556688D01*
X142271887Y-101464448D01*
X142158551Y-101377482D01*
X142050489Y-101330577D01*
X141987761Y-101318458D01*
X141947701Y-101323732D01*
X141890247Y-101351673D01*
X154792773Y-124381312D02*
X154042773Y-124381312D01*
X154042773Y-124559884D01*
X154078488Y-124667026D01*
X154149916Y-124738455D01*
X154221345Y-124774169D01*
X154364202Y-124809884D01*
X154471345Y-124809884D01*
X154614202Y-124774169D01*
X154685630Y-124738455D01*
X154757059Y-124667026D01*
X154792773Y-124559884D01*
X154792773Y-124381312D01*
X154114202Y-125095598D02*
X154078488Y-125131312D01*
X154042773Y-125202741D01*
X154042773Y-125381312D01*
X154078488Y-125452741D01*
X154114202Y-125488455D01*
X154185630Y-125524169D01*
X154257059Y-125524169D01*
X154364202Y-125488455D01*
X154792773Y-125059884D01*
X154792773Y-125524169D01*
D15*
X127454783Y-95389864D02*
X127454783Y-94389864D01*
X127216688Y-94389864D01*
X127073830Y-94437484D01*
X126978592Y-94532722D01*
X126930973Y-94627960D01*
X126883354Y-94818436D01*
X126883354Y-94961293D01*
X126930973Y-95151769D01*
X126978592Y-95247007D01*
X127073830Y-95342245D01*
X127216688Y-95389864D01*
X127454783Y-95389864D01*
X125978592Y-94389864D02*
X126454783Y-94389864D01*
X126502402Y-94866055D01*
X126454783Y-94818436D01*
X126359545Y-94770817D01*
X126121449Y-94770817D01*
X126026211Y-94818436D01*
X125978592Y-94866055D01*
X125930973Y-94961293D01*
X125930973Y-95199388D01*
X125978592Y-95294626D01*
X126026211Y-95342245D01*
X126121449Y-95389864D01*
X126359545Y-95389864D01*
X126454783Y-95342245D01*
X126502402Y-95294626D01*
D13*
X139871088Y-150455684D02*
X139904421Y-150489017D01*
X140004421Y-150522350D01*
X140071088Y-150522350D01*
X140171088Y-150489017D01*
X140237754Y-150422350D01*
X140271088Y-150355684D01*
X140304421Y-150222350D01*
X140304421Y-150122350D01*
X140271088Y-149989017D01*
X140237754Y-149922350D01*
X140171088Y-149855684D01*
X140071088Y-149822350D01*
X140004421Y-149822350D01*
X139904421Y-149855684D01*
X139871088Y-149889017D01*
X139637754Y-149822350D02*
X139204421Y-149822350D01*
X139437754Y-150089017D01*
X139337754Y-150089017D01*
X139271088Y-150122350D01*
X139237754Y-150155684D01*
X139204421Y-150222350D01*
X139204421Y-150389017D01*
X139237754Y-150455684D01*
X139271088Y-150489017D01*
X139337754Y-150522350D01*
X139537754Y-150522350D01*
X139604421Y-150489017D01*
X139637754Y-150455684D01*
X138804421Y-150122350D02*
X138871088Y-150089017D01*
X138904421Y-150055684D01*
X138937754Y-149989017D01*
X138937754Y-149955684D01*
X138904421Y-149889017D01*
X138871088Y-149855684D01*
X138804421Y-149822350D01*
X138671088Y-149822350D01*
X138604421Y-149855684D01*
X138571088Y-149889017D01*
X138537754Y-149955684D01*
X138537754Y-149989017D01*
X138571088Y-150055684D01*
X138604421Y-150089017D01*
X138671088Y-150122350D01*
X138804421Y-150122350D01*
X138871088Y-150155684D01*
X138904421Y-150189017D01*
X138937754Y-150255684D01*
X138937754Y-150389017D01*
X138904421Y-150455684D01*
X138871088Y-150489017D01*
X138804421Y-150522350D01*
X138671088Y-150522350D01*
X138604421Y-150489017D01*
X138571088Y-150455684D01*
X138537754Y-150389017D01*
X138537754Y-150255684D01*
X138571088Y-150189017D01*
X138604421Y-150155684D01*
X138671088Y-150122350D01*
X133867373Y-93800969D02*
X133895945Y-93772398D01*
X133924516Y-93686684D01*
X133924516Y-93629541D01*
X133895945Y-93543826D01*
X133838802Y-93486684D01*
X133781659Y-93458112D01*
X133667373Y-93429541D01*
X133581659Y-93429541D01*
X133467373Y-93458112D01*
X133410230Y-93486684D01*
X133353088Y-93543826D01*
X133324516Y-93629541D01*
X133324516Y-93686684D01*
X133353088Y-93772398D01*
X133381659Y-93800969D01*
X133324516Y-94000969D02*
X133324516Y-94372398D01*
X133553088Y-94172398D01*
X133553088Y-94258112D01*
X133581659Y-94315255D01*
X133610230Y-94343826D01*
X133667373Y-94372398D01*
X133810230Y-94372398D01*
X133867373Y-94343826D01*
X133895945Y-94315255D01*
X133924516Y-94258112D01*
X133924516Y-94086684D01*
X133895945Y-94029541D01*
X133867373Y-94000969D01*
X133924516Y-94658112D02*
X133924516Y-94772398D01*
X133895945Y-94829541D01*
X133867373Y-94858112D01*
X133781659Y-94915255D01*
X133667373Y-94943826D01*
X133438802Y-94943826D01*
X133381659Y-94915255D01*
X133353088Y-94886684D01*
X133324516Y-94829541D01*
X133324516Y-94715255D01*
X133353088Y-94658112D01*
X133381659Y-94629541D01*
X133438802Y-94600969D01*
X133581659Y-94600969D01*
X133638802Y-94629541D01*
X133667373Y-94658112D01*
X133695945Y-94715255D01*
X133695945Y-94829541D01*
X133667373Y-94886684D01*
X133638802Y-94915255D01*
X133581659Y-94943826D01*
X113058045Y-102506251D02*
X113095375Y-102521714D01*
X113185498Y-102515309D01*
X113238292Y-102493441D01*
X113306547Y-102434243D01*
X113337473Y-102359583D01*
X113342002Y-102295856D01*
X113324663Y-102179336D01*
X113291862Y-102100146D01*
X113221730Y-102005494D01*
X113173466Y-101963634D01*
X113098805Y-101932709D01*
X113008682Y-101939114D01*
X112955888Y-101960981D01*
X112887633Y-102020179D01*
X112872170Y-102057510D01*
X112451701Y-102386301D02*
X112604774Y-102755853D01*
X112496213Y-102120460D02*
X112792203Y-102461739D01*
X112449048Y-102603878D01*
X111979216Y-102365532D02*
X111926423Y-102387400D01*
X111884563Y-102435664D01*
X111869101Y-102472995D01*
X111864572Y-102536722D01*
X111881910Y-102653242D01*
X111936579Y-102785224D01*
X112006711Y-102879877D01*
X112054975Y-102921736D01*
X112092306Y-102937199D01*
X112156033Y-102941728D01*
X112208826Y-102919860D01*
X112250685Y-102871596D01*
X112266148Y-102834266D01*
X112270677Y-102770539D01*
X112253338Y-102654019D01*
X112198669Y-102522036D01*
X112128537Y-102427383D01*
X112080273Y-102385524D01*
X112042943Y-102370061D01*
X111979216Y-102365532D01*
X106829088Y-97800684D02*
X106862421Y-97834017D01*
X106962421Y-97867350D01*
X107029088Y-97867350D01*
X107129088Y-97834017D01*
X107195754Y-97767350D01*
X107229088Y-97700684D01*
X107262421Y-97567350D01*
X107262421Y-97467350D01*
X107229088Y-97334017D01*
X107195754Y-97267350D01*
X107129088Y-97200684D01*
X107029088Y-97167350D01*
X106962421Y-97167350D01*
X106862421Y-97200684D01*
X106829088Y-97234017D01*
X106229088Y-97400684D02*
X106229088Y-97867350D01*
X106395754Y-97134017D02*
X106562421Y-97634017D01*
X106129088Y-97634017D01*
X105495754Y-97867350D02*
X105895754Y-97867350D01*
X105695754Y-97867350D02*
X105695754Y-97167350D01*
X105762421Y-97267350D01*
X105829088Y-97334017D01*
X105895754Y-97367350D01*
X141748373Y-149319969D02*
X141776945Y-149291398D01*
X141805516Y-149205684D01*
X141805516Y-149148541D01*
X141776945Y-149062826D01*
X141719802Y-149005684D01*
X141662659Y-148977112D01*
X141548373Y-148948541D01*
X141462659Y-148948541D01*
X141348373Y-148977112D01*
X141291230Y-149005684D01*
X141234088Y-149062826D01*
X141205516Y-149148541D01*
X141205516Y-149205684D01*
X141234088Y-149291398D01*
X141262659Y-149319969D01*
X141405516Y-149834255D02*
X141805516Y-149834255D01*
X141176945Y-149691398D02*
X141605516Y-149548541D01*
X141605516Y-149919969D01*
X141262659Y-150119969D02*
X141234088Y-150148541D01*
X141205516Y-150205684D01*
X141205516Y-150348541D01*
X141234088Y-150405684D01*
X141262659Y-150434255D01*
X141319802Y-150462826D01*
X141376945Y-150462826D01*
X141462659Y-150434255D01*
X141805516Y-150091398D01*
X141805516Y-150462826D01*
D15*
X95365945Y-134862826D02*
X95413564Y-134910445D01*
X95556421Y-134958064D01*
X95651659Y-134958064D01*
X95794516Y-134910445D01*
X95889754Y-134815207D01*
X95937373Y-134719969D01*
X95984992Y-134529493D01*
X95984992Y-134386636D01*
X95937373Y-134196160D01*
X95889754Y-134100922D01*
X95794516Y-134005684D01*
X95651659Y-133958064D01*
X95556421Y-133958064D01*
X95413564Y-134005684D01*
X95365945Y-134053303D01*
X94508802Y-134291398D02*
X94508802Y-134958064D01*
X94746897Y-133910445D02*
X94984992Y-134624731D01*
X94365945Y-134624731D01*
X94080230Y-133958064D02*
X93461183Y-133958064D01*
X93794516Y-134339017D01*
X93651659Y-134339017D01*
X93556421Y-134386636D01*
X93508802Y-134434255D01*
X93461183Y-134529493D01*
X93461183Y-134767588D01*
X93508802Y-134862826D01*
X93556421Y-134910445D01*
X93651659Y-134958064D01*
X93937373Y-134958064D01*
X94032611Y-134910445D01*
X94080230Y-134862826D01*
X135483683Y-153769630D02*
X135545900Y-153795401D01*
X135696106Y-153784726D01*
X135784094Y-153748280D01*
X135897854Y-153649617D01*
X135949397Y-153525182D01*
X135956945Y-153418971D01*
X135928047Y-153224771D01*
X135873378Y-153092788D01*
X135756492Y-152935034D01*
X135676051Y-152865268D01*
X135551617Y-152813726D01*
X135401411Y-152824401D01*
X135313422Y-152860847D01*
X135199663Y-152959510D01*
X135173891Y-153021727D01*
X134301554Y-153279976D02*
X134741497Y-153097746D01*
X134967721Y-153519465D01*
X134905504Y-153493694D01*
X134799293Y-153486146D01*
X134579321Y-153577261D01*
X134509556Y-153657701D01*
X134483785Y-153719919D01*
X134476236Y-153826130D01*
X134567351Y-154046102D01*
X134647792Y-154115867D01*
X134710009Y-154141638D01*
X134816221Y-154149187D01*
X135036192Y-154058071D01*
X135105957Y-153977631D01*
X135131729Y-153915414D01*
X134200301Y-154404309D02*
X134024324Y-154477201D01*
X133918112Y-154469653D01*
X133855895Y-154443881D01*
X133713237Y-154348345D01*
X133596351Y-154190591D01*
X133450567Y-153838637D01*
X133458115Y-153732425D01*
X133483886Y-153670208D01*
X133553652Y-153589767D01*
X133729629Y-153516875D01*
X133835840Y-153524424D01*
X133898058Y-153550195D01*
X133978498Y-153619960D01*
X134069613Y-153839932D01*
X134062065Y-153946143D01*
X134036294Y-154008360D01*
X133966528Y-154088801D01*
X133790551Y-154161693D01*
X133684340Y-154154145D01*
X133622122Y-154128373D01*
X133541682Y-154058608D01*
D13*
X118745802Y-150218969D02*
X118774373Y-150247541D01*
X118860088Y-150276112D01*
X118917230Y-150276112D01*
X119002945Y-150247541D01*
X119060088Y-150190398D01*
X119088659Y-150133255D01*
X119117230Y-150018969D01*
X119117230Y-149933255D01*
X119088659Y-149818969D01*
X119060088Y-149761826D01*
X119002945Y-149704684D01*
X118917230Y-149676112D01*
X118860088Y-149676112D01*
X118774373Y-149704684D01*
X118745802Y-149733255D01*
X118231516Y-149676112D02*
X118345802Y-149676112D01*
X118402945Y-149704684D01*
X118431516Y-149733255D01*
X118488659Y-149818969D01*
X118517230Y-149933255D01*
X118517230Y-150161826D01*
X118488659Y-150218969D01*
X118460088Y-150247541D01*
X118402945Y-150276112D01*
X118288659Y-150276112D01*
X118231516Y-150247541D01*
X118202945Y-150218969D01*
X118174373Y-150161826D01*
X118174373Y-150018969D01*
X118202945Y-149961826D01*
X118231516Y-149933255D01*
X118288659Y-149904684D01*
X118402945Y-149904684D01*
X118460088Y-149933255D01*
X118488659Y-149961826D01*
X118517230Y-150018969D01*
X117802945Y-149676112D02*
X117745802Y-149676112D01*
X117688659Y-149704684D01*
X117660088Y-149733255D01*
X117631516Y-149790398D01*
X117602945Y-149904684D01*
X117602945Y-150047541D01*
X117631516Y-150161826D01*
X117660088Y-150218969D01*
X117688659Y-150247541D01*
X117745802Y-150276112D01*
X117802945Y-150276112D01*
X117860088Y-150247541D01*
X117888659Y-150218969D01*
X117917230Y-150161826D01*
X117945802Y-150047541D01*
X117945802Y-149904684D01*
X117917230Y-149790398D01*
X117888659Y-149733255D01*
X117860088Y-149704684D01*
X117802945Y-149676112D01*
X143573373Y-96689969D02*
X143601945Y-96661398D01*
X143630516Y-96575684D01*
X143630516Y-96518541D01*
X143601945Y-96432826D01*
X143544802Y-96375684D01*
X143487659Y-96347112D01*
X143373373Y-96318541D01*
X143287659Y-96318541D01*
X143173373Y-96347112D01*
X143116230Y-96375684D01*
X143059088Y-96432826D01*
X143030516Y-96518541D01*
X143030516Y-96575684D01*
X143059088Y-96661398D01*
X143087659Y-96689969D01*
X143030516Y-97204255D02*
X143030516Y-97089969D01*
X143059088Y-97032826D01*
X143087659Y-97004255D01*
X143173373Y-96947112D01*
X143287659Y-96918541D01*
X143516230Y-96918541D01*
X143573373Y-96947112D01*
X143601945Y-96975684D01*
X143630516Y-97032826D01*
X143630516Y-97147112D01*
X143601945Y-97204255D01*
X143573373Y-97232826D01*
X143516230Y-97261398D01*
X143373373Y-97261398D01*
X143316230Y-97232826D01*
X143287659Y-97204255D01*
X143259088Y-97147112D01*
X143259088Y-97032826D01*
X143287659Y-96975684D01*
X143316230Y-96947112D01*
X143373373Y-96918541D01*
X143630516Y-97832826D02*
X143630516Y-97489969D01*
X143630516Y-97661398D02*
X143030516Y-97661398D01*
X143116230Y-97604255D01*
X143173373Y-97547112D01*
X143201945Y-97489969D01*
D15*
X118473981Y-97322086D02*
X118816101Y-98055764D01*
X118813192Y-98162204D01*
X118790160Y-98225486D01*
X118723969Y-98308893D01*
X118551339Y-98389392D01*
X118444899Y-98386484D01*
X118381617Y-98363451D01*
X118298210Y-98297260D01*
X117956091Y-97563583D01*
X117472401Y-98892509D02*
X117990292Y-98651012D01*
X117731346Y-98771761D02*
X117308728Y-97865453D01*
X117455417Y-97954676D01*
X117581982Y-98000742D01*
X117688421Y-98003650D01*
X117040826Y-99093755D02*
X116868196Y-99174254D01*
X116761756Y-99171346D01*
X116698474Y-99148313D01*
X116551785Y-99059090D01*
X116428129Y-98906585D01*
X116267132Y-98561324D01*
X116270040Y-98454885D01*
X116293073Y-98391603D01*
X116359263Y-98308196D01*
X116531893Y-98227697D01*
X116638333Y-98230605D01*
X116701615Y-98253638D01*
X116785022Y-98319828D01*
X116885645Y-98535616D01*
X116882737Y-98642056D01*
X116859704Y-98705338D01*
X116793514Y-98788745D01*
X116620884Y-98869243D01*
X116514444Y-98866335D01*
X116451162Y-98843302D01*
X116367755Y-98777112D01*
X148885704Y-105899333D02*
X148392897Y-106541571D01*
X148297141Y-106588140D01*
X148230374Y-106596930D01*
X148125827Y-106576732D01*
X147974713Y-106460777D01*
X147928144Y-106365021D01*
X147919354Y-106298254D01*
X147939552Y-106193707D01*
X148432359Y-105551469D01*
X148034373Y-105366129D02*
X148025583Y-105299361D01*
X147979014Y-105203605D01*
X147790121Y-105058662D01*
X147685575Y-105038464D01*
X147618807Y-105047254D01*
X147523051Y-105093823D01*
X147465074Y-105169380D01*
X147415887Y-105311705D01*
X147521368Y-106112913D01*
X147030244Y-105736061D01*
X146274670Y-105156288D02*
X146728014Y-105504152D01*
X146501342Y-105330220D02*
X147110104Y-104536867D01*
X147098695Y-104708180D01*
X147116275Y-104841715D01*
X147162844Y-104937471D01*
X140657374Y-156225951D02*
X140967165Y-156973853D01*
X140959617Y-157080065D01*
X140933845Y-157142282D01*
X140864080Y-157222723D01*
X140688103Y-157295615D01*
X140581891Y-157288066D01*
X140519674Y-157262295D01*
X140439234Y-157192530D01*
X140129442Y-156444627D01*
X139769940Y-156696623D02*
X139707723Y-156670852D01*
X139601511Y-156663303D01*
X139381540Y-156754419D01*
X139311774Y-156834859D01*
X139286003Y-156897076D01*
X139278455Y-157003288D01*
X139314901Y-157091276D01*
X139413564Y-157205036D01*
X140160172Y-157514291D01*
X139588246Y-157751190D01*
X138890055Y-157061083D02*
X138827838Y-157035312D01*
X138721626Y-157027764D01*
X138501655Y-157118879D01*
X138431889Y-157199319D01*
X138406118Y-157261537D01*
X138398570Y-157367748D01*
X138435016Y-157455737D01*
X138533679Y-157569496D01*
X139280287Y-157878751D01*
X138708361Y-158115651D01*
X114111088Y-150000684D02*
X114144421Y-150034017D01*
X114244421Y-150067350D01*
X114311088Y-150067350D01*
X114411088Y-150034017D01*
X114477754Y-149967350D01*
X114511088Y-149900684D01*
X114544421Y-149767350D01*
X114544421Y-149667350D01*
X114511088Y-149534017D01*
X114477754Y-149467350D01*
X114411088Y-149400684D01*
X114311088Y-149367350D01*
X114244421Y-149367350D01*
X114144421Y-149400684D01*
X114111088Y-149434017D01*
X113511088Y-149367350D02*
X113644421Y-149367350D01*
X113711088Y-149400684D01*
X113744421Y-149434017D01*
X113811088Y-149534017D01*
X113844421Y-149667350D01*
X113844421Y-149934017D01*
X113811088Y-150000684D01*
X113777754Y-150034017D01*
X113711088Y-150067350D01*
X113577754Y-150067350D01*
X113511088Y-150034017D01*
X113477754Y-150000684D01*
X113444421Y-149934017D01*
X113444421Y-149767350D01*
X113477754Y-149700684D01*
X113511088Y-149667350D01*
X113577754Y-149634017D01*
X113711088Y-149634017D01*
X113777754Y-149667350D01*
X113811088Y-149700684D01*
X113844421Y-149767350D01*
X113211088Y-149367350D02*
X112744421Y-149367350D01*
X113044421Y-150067350D01*
D13*
X144990373Y-96659969D02*
X145018945Y-96631398D01*
X145047516Y-96545684D01*
X145047516Y-96488541D01*
X145018945Y-96402826D01*
X144961802Y-96345684D01*
X144904659Y-96317112D01*
X144790373Y-96288541D01*
X144704659Y-96288541D01*
X144590373Y-96317112D01*
X144533230Y-96345684D01*
X144476088Y-96402826D01*
X144447516Y-96488541D01*
X144447516Y-96545684D01*
X144476088Y-96631398D01*
X144504659Y-96659969D01*
X144447516Y-97174255D02*
X144447516Y-97059969D01*
X144476088Y-97002826D01*
X144504659Y-96974255D01*
X144590373Y-96917112D01*
X144704659Y-96888541D01*
X144933230Y-96888541D01*
X144990373Y-96917112D01*
X145018945Y-96945684D01*
X145047516Y-97002826D01*
X145047516Y-97117112D01*
X145018945Y-97174255D01*
X144990373Y-97202826D01*
X144933230Y-97231398D01*
X144790373Y-97231398D01*
X144733230Y-97202826D01*
X144704659Y-97174255D01*
X144676088Y-97117112D01*
X144676088Y-97002826D01*
X144704659Y-96945684D01*
X144733230Y-96917112D01*
X144790373Y-96888541D01*
X144704659Y-97574255D02*
X144676088Y-97517112D01*
X144647516Y-97488541D01*
X144590373Y-97459969D01*
X144561802Y-97459969D01*
X144504659Y-97488541D01*
X144476088Y-97517112D01*
X144447516Y-97574255D01*
X144447516Y-97688541D01*
X144476088Y-97745684D01*
X144504659Y-97774255D01*
X144561802Y-97802826D01*
X144590373Y-97802826D01*
X144647516Y-97774255D01*
X144676088Y-97745684D01*
X144704659Y-97688541D01*
X144704659Y-97574255D01*
X144733230Y-97517112D01*
X144761802Y-97488541D01*
X144818945Y-97459969D01*
X144933230Y-97459969D01*
X144990373Y-97488541D01*
X145018945Y-97517112D01*
X145047516Y-97574255D01*
X145047516Y-97688541D01*
X145018945Y-97745684D01*
X144990373Y-97774255D01*
X144933230Y-97802826D01*
X144818945Y-97802826D01*
X144761802Y-97774255D01*
X144733230Y-97745684D01*
X144704659Y-97688541D01*
X164431688Y-132257284D02*
X164465021Y-132223950D01*
X164498354Y-132123950D01*
X164498354Y-132057284D01*
X164465021Y-131957284D01*
X164398354Y-131890617D01*
X164331688Y-131857284D01*
X164198354Y-131823950D01*
X164098354Y-131823950D01*
X163965021Y-131857284D01*
X163898354Y-131890617D01*
X163831688Y-131957284D01*
X163798354Y-132057284D01*
X163798354Y-132123950D01*
X163831688Y-132223950D01*
X163865021Y-132257284D01*
X163798354Y-132857284D02*
X163798354Y-132723950D01*
X163831688Y-132657284D01*
X163865021Y-132623950D01*
X163965021Y-132557284D01*
X164098354Y-132523950D01*
X164365021Y-132523950D01*
X164431688Y-132557284D01*
X164465021Y-132590617D01*
X164498354Y-132657284D01*
X164498354Y-132790617D01*
X164465021Y-132857284D01*
X164431688Y-132890617D01*
X164365021Y-132923950D01*
X164198354Y-132923950D01*
X164131688Y-132890617D01*
X164098354Y-132857284D01*
X164065021Y-132790617D01*
X164065021Y-132657284D01*
X164098354Y-132590617D01*
X164131688Y-132557284D01*
X164198354Y-132523950D01*
X164498354Y-133257284D02*
X164498354Y-133390617D01*
X164465021Y-133457284D01*
X164431688Y-133490617D01*
X164331688Y-133557284D01*
X164198354Y-133590617D01*
X163931688Y-133590617D01*
X163865021Y-133557284D01*
X163831688Y-133523950D01*
X163798354Y-133457284D01*
X163798354Y-133323950D01*
X163831688Y-133257284D01*
X163865021Y-133223950D01*
X163931688Y-133190617D01*
X164098354Y-133190617D01*
X164165021Y-133223950D01*
X164198354Y-133257284D01*
X164231688Y-133323950D01*
X164231688Y-133457284D01*
X164198354Y-133523950D01*
X164165021Y-133557284D01*
X164098354Y-133590617D01*
X165549288Y-132206484D02*
X165582621Y-132173150D01*
X165615954Y-132073150D01*
X165615954Y-132006484D01*
X165582621Y-131906484D01*
X165515954Y-131839817D01*
X165449288Y-131806484D01*
X165315954Y-131773150D01*
X165215954Y-131773150D01*
X165082621Y-131806484D01*
X165015954Y-131839817D01*
X164949288Y-131906484D01*
X164915954Y-132006484D01*
X164915954Y-132073150D01*
X164949288Y-132173150D01*
X164982621Y-132206484D01*
X164915954Y-132439817D02*
X164915954Y-132906484D01*
X165615954Y-132606484D01*
X164915954Y-133306484D02*
X164915954Y-133373150D01*
X164949288Y-133439817D01*
X164982621Y-133473150D01*
X165049288Y-133506484D01*
X165182621Y-133539817D01*
X165349288Y-133539817D01*
X165482621Y-133506484D01*
X165549288Y-133473150D01*
X165582621Y-133439817D01*
X165615954Y-133373150D01*
X165615954Y-133306484D01*
X165582621Y-133239817D01*
X165549288Y-133206484D01*
X165482621Y-133173150D01*
X165349288Y-133139817D01*
X165182621Y-133139817D01*
X165049288Y-133173150D01*
X164982621Y-133206484D01*
X164949288Y-133239817D01*
X164915954Y-133306484D01*
D15*
X104713088Y-102823350D02*
X104946421Y-102490017D01*
X105113088Y-102823350D02*
X105113088Y-102123350D01*
X104846421Y-102123350D01*
X104779754Y-102156684D01*
X104746421Y-102190017D01*
X104713088Y-102256684D01*
X104713088Y-102356684D01*
X104746421Y-102423350D01*
X104779754Y-102456684D01*
X104846421Y-102490017D01*
X105113088Y-102490017D01*
X104046421Y-102823350D02*
X104446421Y-102823350D01*
X104246421Y-102823350D02*
X104246421Y-102123350D01*
X104313088Y-102223350D01*
X104379754Y-102290017D01*
X104446421Y-102323350D01*
X103713088Y-102823350D02*
X103579754Y-102823350D01*
X103513088Y-102790017D01*
X103479754Y-102756684D01*
X103413088Y-102656684D01*
X103379754Y-102523350D01*
X103379754Y-102256684D01*
X103413088Y-102190017D01*
X103446421Y-102156684D01*
X103513088Y-102123350D01*
X103646421Y-102123350D01*
X103713088Y-102156684D01*
X103746421Y-102190017D01*
X103779754Y-102256684D01*
X103779754Y-102423350D01*
X103746421Y-102490017D01*
X103713088Y-102523350D01*
X103646421Y-102556684D01*
X103513088Y-102556684D01*
X103446421Y-102523350D01*
X103413088Y-102490017D01*
X103379754Y-102423350D01*
X148445554Y-151154884D02*
X148112221Y-150921550D01*
X148445554Y-150754884D02*
X147745554Y-150754884D01*
X147745554Y-151021550D01*
X147778888Y-151088217D01*
X147812221Y-151121550D01*
X147878888Y-151154884D01*
X147978888Y-151154884D01*
X148045554Y-151121550D01*
X148078888Y-151088217D01*
X148112221Y-151021550D01*
X148112221Y-150754884D01*
X147812221Y-151421550D02*
X147778888Y-151454884D01*
X147745554Y-151521550D01*
X147745554Y-151688217D01*
X147778888Y-151754884D01*
X147812221Y-151788217D01*
X147878888Y-151821550D01*
X147945554Y-151821550D01*
X148045554Y-151788217D01*
X148445554Y-151388217D01*
X148445554Y-151821550D01*
X147745554Y-152254884D02*
X147745554Y-152321550D01*
X147778888Y-152388217D01*
X147812221Y-152421550D01*
X147878888Y-152454884D01*
X148012221Y-152488217D01*
X148178888Y-152488217D01*
X148312221Y-152454884D01*
X148378888Y-152421550D01*
X148412221Y-152388217D01*
X148445554Y-152321550D01*
X148445554Y-152254884D01*
X148412221Y-152188217D01*
X148378888Y-152154884D01*
X148312221Y-152121550D01*
X148178888Y-152088217D01*
X148012221Y-152088217D01*
X147878888Y-152121550D01*
X147812221Y-152154884D01*
X147778888Y-152188217D01*
X147745554Y-152254884D01*
X123472754Y-102489826D02*
X123520373Y-102537445D01*
X123663230Y-102585064D01*
X123758468Y-102585064D01*
X123901326Y-102537445D01*
X123996564Y-102442207D01*
X124044183Y-102346969D01*
X124091802Y-102156493D01*
X124091802Y-102013636D01*
X124044183Y-101823160D01*
X123996564Y-101727922D01*
X123901326Y-101632684D01*
X123758468Y-101585064D01*
X123663230Y-101585064D01*
X123520373Y-101632684D01*
X123472754Y-101680303D01*
X122567992Y-101585064D02*
X123044183Y-101585064D01*
X123091802Y-102061255D01*
X123044183Y-102013636D01*
X122948945Y-101966017D01*
X122710849Y-101966017D01*
X122615611Y-102013636D01*
X122567992Y-102061255D01*
X122520373Y-102156493D01*
X122520373Y-102394588D01*
X122567992Y-102489826D01*
X122615611Y-102537445D01*
X122710849Y-102585064D01*
X122948945Y-102585064D01*
X123044183Y-102537445D01*
X123091802Y-102489826D01*
D13*
X142719459Y-104242655D02*
X142743268Y-104218845D01*
X142767078Y-104147417D01*
X142767078Y-104099798D01*
X142743268Y-104028369D01*
X142695649Y-103980750D01*
X142648030Y-103956941D01*
X142552792Y-103933131D01*
X142481364Y-103933131D01*
X142386126Y-103956941D01*
X142338507Y-103980750D01*
X142290888Y-104028369D01*
X142267078Y-104099798D01*
X142267078Y-104147417D01*
X142290888Y-104218845D01*
X142314697Y-104242655D01*
X142767078Y-104718845D02*
X142767078Y-104433131D01*
X142767078Y-104575988D02*
X142267078Y-104575988D01*
X142338507Y-104528369D01*
X142386126Y-104480750D01*
X142409935Y-104433131D01*
X142267078Y-105147417D02*
X142267078Y-105052179D01*
X142290888Y-105004560D01*
X142314697Y-104980750D01*
X142386126Y-104933131D01*
X142481364Y-104909322D01*
X142671840Y-104909322D01*
X142719459Y-104933131D01*
X142743268Y-104956941D01*
X142767078Y-105004560D01*
X142767078Y-105099798D01*
X142743268Y-105147417D01*
X142719459Y-105171226D01*
X142671840Y-105195036D01*
X142552792Y-105195036D01*
X142505173Y-105171226D01*
X142481364Y-105147417D01*
X142457554Y-105099798D01*
X142457554Y-105004560D01*
X142481364Y-104956941D01*
X142505173Y-104933131D01*
X142552792Y-104909322D01*
D15*
X132303088Y-93565684D02*
X132336421Y-93532350D01*
X132369754Y-93432350D01*
X132369754Y-93365684D01*
X132336421Y-93265684D01*
X132269754Y-93199017D01*
X132203088Y-93165684D01*
X132069754Y-93132350D01*
X131969754Y-93132350D01*
X131836421Y-93165684D01*
X131769754Y-93199017D01*
X131703088Y-93265684D01*
X131669754Y-93365684D01*
X131669754Y-93432350D01*
X131703088Y-93532350D01*
X131736421Y-93565684D01*
X132369754Y-94232350D02*
X132369754Y-93832350D01*
X132369754Y-94032350D02*
X131669754Y-94032350D01*
X131769754Y-93965684D01*
X131836421Y-93899017D01*
X131869754Y-93832350D01*
X131669754Y-94465684D02*
X131669754Y-94932350D01*
X132369754Y-94632350D01*
X125772888Y-110489484D02*
X125806221Y-110456150D01*
X125839554Y-110356150D01*
X125839554Y-110289484D01*
X125806221Y-110189484D01*
X125739554Y-110122817D01*
X125672888Y-110089484D01*
X125539554Y-110056150D01*
X125439554Y-110056150D01*
X125306221Y-110089484D01*
X125239554Y-110122817D01*
X125172888Y-110189484D01*
X125139554Y-110289484D01*
X125139554Y-110356150D01*
X125172888Y-110456150D01*
X125206221Y-110489484D01*
X125139554Y-111122817D02*
X125139554Y-110789484D01*
X125472888Y-110756150D01*
X125439554Y-110789484D01*
X125406221Y-110856150D01*
X125406221Y-111022817D01*
X125439554Y-111089484D01*
X125472888Y-111122817D01*
X125539554Y-111156150D01*
X125706221Y-111156150D01*
X125772888Y-111122817D01*
X125806221Y-111089484D01*
X125839554Y-111022817D01*
X125839554Y-110856150D01*
X125806221Y-110789484D01*
X125772888Y-110756150D01*
X125839554Y-111822817D02*
X125839554Y-111422817D01*
X125839554Y-111622817D02*
X125139554Y-111622817D01*
X125239554Y-111556150D01*
X125306221Y-111489484D01*
X125339554Y-111422817D01*
D13*
X162773145Y-121303141D02*
X162808859Y-121267426D01*
X162844573Y-121160284D01*
X162844573Y-121088855D01*
X162808859Y-120981712D01*
X162737430Y-120910284D01*
X162666002Y-120874569D01*
X162523145Y-120838855D01*
X162416002Y-120838855D01*
X162273145Y-120874569D01*
X162201716Y-120910284D01*
X162130288Y-120981712D01*
X162094573Y-121088855D01*
X162094573Y-121160284D01*
X162130288Y-121267426D01*
X162166002Y-121303141D01*
X162094573Y-121981712D02*
X162094573Y-121624569D01*
X162451716Y-121588855D01*
X162416002Y-121624569D01*
X162380288Y-121695998D01*
X162380288Y-121874569D01*
X162416002Y-121945998D01*
X162451716Y-121981712D01*
X162523145Y-122017426D01*
X162701716Y-122017426D01*
X162773145Y-121981712D01*
X162808859Y-121945998D01*
X162844573Y-121874569D01*
X162844573Y-121695998D01*
X162808859Y-121624569D01*
X162773145Y-121588855D01*
X162344573Y-122660284D02*
X162844573Y-122660284D01*
X162058859Y-122481712D02*
X162594573Y-122303141D01*
X162594573Y-122767426D01*
X168194430Y-135616741D02*
X168230145Y-135652455D01*
X168337288Y-135688169D01*
X168408716Y-135688169D01*
X168515859Y-135652455D01*
X168587288Y-135581026D01*
X168623002Y-135509598D01*
X168658716Y-135366741D01*
X168658716Y-135259598D01*
X168623002Y-135116741D01*
X168587288Y-135045312D01*
X168515859Y-134973884D01*
X168408716Y-134938169D01*
X168337288Y-134938169D01*
X168230145Y-134973884D01*
X168194430Y-135009598D01*
X167551573Y-134938169D02*
X167694430Y-134938169D01*
X167765859Y-134973884D01*
X167801573Y-135009598D01*
X167873002Y-135116741D01*
X167908716Y-135259598D01*
X167908716Y-135545312D01*
X167873002Y-135616741D01*
X167837288Y-135652455D01*
X167765859Y-135688169D01*
X167623002Y-135688169D01*
X167551573Y-135652455D01*
X167515859Y-135616741D01*
X167480145Y-135545312D01*
X167480145Y-135366741D01*
X167515859Y-135295312D01*
X167551573Y-135259598D01*
X167623002Y-135223884D01*
X167765859Y-135223884D01*
X167837288Y-135259598D01*
X167873002Y-135295312D01*
X167908716Y-135366741D01*
X166837288Y-134938169D02*
X166980145Y-134938169D01*
X167051573Y-134973884D01*
X167087288Y-135009598D01*
X167158716Y-135116741D01*
X167194430Y-135259598D01*
X167194430Y-135545312D01*
X167158716Y-135616741D01*
X167123002Y-135652455D01*
X167051573Y-135688169D01*
X166908716Y-135688169D01*
X166837288Y-135652455D01*
X166801573Y-135616741D01*
X166765859Y-135545312D01*
X166765859Y-135366741D01*
X166801573Y-135295312D01*
X166837288Y-135259598D01*
X166908716Y-135223884D01*
X167051573Y-135223884D01*
X167123002Y-135259598D01*
X167158716Y-135295312D01*
X167194430Y-135366741D01*
D15*
X109571592Y-103102064D02*
X109571592Y-103911588D01*
X109523973Y-104006826D01*
X109476354Y-104054445D01*
X109381116Y-104102064D01*
X109190640Y-104102064D01*
X109095402Y-104054445D01*
X109047783Y-104006826D01*
X109000164Y-103911588D01*
X109000164Y-103102064D01*
X108619211Y-103102064D02*
X108000164Y-103102064D01*
X108333497Y-103483017D01*
X108190640Y-103483017D01*
X108095402Y-103530636D01*
X108047783Y-103578255D01*
X108000164Y-103673493D01*
X108000164Y-103911588D01*
X108047783Y-104006826D01*
X108095402Y-104054445D01*
X108190640Y-104102064D01*
X108476354Y-104102064D01*
X108571592Y-104054445D01*
X108619211Y-104006826D01*
X144744992Y-154268064D02*
X144744992Y-155077588D01*
X144697373Y-155172826D01*
X144649754Y-155220445D01*
X144554516Y-155268064D01*
X144364040Y-155268064D01*
X144268802Y-155220445D01*
X144221183Y-155172826D01*
X144173564Y-155077588D01*
X144173564Y-154268064D01*
X143268802Y-154601398D02*
X143268802Y-155268064D01*
X143506897Y-154220445D02*
X143744992Y-154934731D01*
X143125945Y-154934731D01*
X118359992Y-153648064D02*
X118359992Y-154457588D01*
X118312373Y-154552826D01*
X118264754Y-154600445D01*
X118169516Y-154648064D01*
X117979040Y-154648064D01*
X117883802Y-154600445D01*
X117836183Y-154552826D01*
X117788564Y-154457588D01*
X117788564Y-153648064D01*
X117407611Y-153648064D02*
X116740945Y-153648064D01*
X117169516Y-154648064D01*
X140788192Y-95304264D02*
X140788192Y-96113788D01*
X140740573Y-96209026D01*
X140692954Y-96256645D01*
X140597716Y-96304264D01*
X140407240Y-96304264D01*
X140312002Y-96256645D01*
X140264383Y-96209026D01*
X140216764Y-96113788D01*
X140216764Y-95304264D01*
X139597716Y-95732836D02*
X139692954Y-95685217D01*
X139740573Y-95637598D01*
X139788192Y-95542360D01*
X139788192Y-95494741D01*
X139740573Y-95399503D01*
X139692954Y-95351884D01*
X139597716Y-95304264D01*
X139407240Y-95304264D01*
X139312002Y-95351884D01*
X139264383Y-95399503D01*
X139216764Y-95494741D01*
X139216764Y-95542360D01*
X139264383Y-95637598D01*
X139312002Y-95685217D01*
X139407240Y-95732836D01*
X139597716Y-95732836D01*
X139692954Y-95780455D01*
X139740573Y-95828074D01*
X139788192Y-95923312D01*
X139788192Y-96113788D01*
X139740573Y-96209026D01*
X139692954Y-96256645D01*
X139597716Y-96304264D01*
X139407240Y-96304264D01*
X139312002Y-96256645D01*
X139264383Y-96209026D01*
X139216764Y-96113788D01*
X139216764Y-95923312D01*
X139264383Y-95828074D01*
X139312002Y-95780455D01*
X139407240Y-95732836D01*
X167832783Y-127613064D02*
X167832783Y-128422588D01*
X167785164Y-128517826D01*
X167737545Y-128565445D01*
X167642307Y-128613064D01*
X167451830Y-128613064D01*
X167356592Y-128565445D01*
X167308973Y-128517826D01*
X167261354Y-128422588D01*
X167261354Y-127613064D01*
X166261354Y-128613064D02*
X166832783Y-128613064D01*
X166547068Y-128613064D02*
X166547068Y-127613064D01*
X166642307Y-127755922D01*
X166737545Y-127851160D01*
X166832783Y-127898779D01*
X165642307Y-127613064D02*
X165547068Y-127613064D01*
X165451830Y-127660684D01*
X165404211Y-127708303D01*
X165356592Y-127803541D01*
X165308973Y-127994017D01*
X165308973Y-128232112D01*
X165356592Y-128422588D01*
X165404211Y-128517826D01*
X165451830Y-128565445D01*
X165547068Y-128613064D01*
X165642307Y-128613064D01*
X165737545Y-128565445D01*
X165785164Y-128517826D01*
X165832783Y-128422588D01*
X165880402Y-128232112D01*
X165880402Y-127994017D01*
X165832783Y-127803541D01*
X165785164Y-127708303D01*
X165737545Y-127660684D01*
X165642307Y-127613064D01*
D13*
X158948830Y-128199941D02*
X158984545Y-128235655D01*
X159091688Y-128271369D01*
X159163116Y-128271369D01*
X159270259Y-128235655D01*
X159341688Y-128164226D01*
X159377402Y-128092798D01*
X159413116Y-127949941D01*
X159413116Y-127842798D01*
X159377402Y-127699941D01*
X159341688Y-127628512D01*
X159270259Y-127557084D01*
X159163116Y-127521369D01*
X159091688Y-127521369D01*
X158984545Y-127557084D01*
X158948830Y-127592798D01*
X158305973Y-127771369D02*
X158305973Y-128271369D01*
X158484545Y-127485655D02*
X158663116Y-128021369D01*
X158198830Y-128021369D01*
X157555973Y-127521369D02*
X157913116Y-127521369D01*
X157948830Y-127878512D01*
X157913116Y-127842798D01*
X157841688Y-127807084D01*
X157663116Y-127807084D01*
X157591688Y-127842798D01*
X157555973Y-127878512D01*
X157520259Y-127949941D01*
X157520259Y-128128512D01*
X157555973Y-128199941D01*
X157591688Y-128235655D01*
X157663116Y-128271369D01*
X157841688Y-128271369D01*
X157913116Y-128235655D01*
X157948830Y-128199941D01*
X110337288Y-115069884D02*
X110370621Y-115103217D01*
X110470621Y-115136550D01*
X110537288Y-115136550D01*
X110637288Y-115103217D01*
X110703954Y-115036550D01*
X110737288Y-114969884D01*
X110770621Y-114836550D01*
X110770621Y-114736550D01*
X110737288Y-114603217D01*
X110703954Y-114536550D01*
X110637288Y-114469884D01*
X110537288Y-114436550D01*
X110470621Y-114436550D01*
X110370621Y-114469884D01*
X110337288Y-114503217D01*
X109737288Y-114669884D02*
X109737288Y-115136550D01*
X109903954Y-114403217D02*
X110070621Y-114903217D01*
X109637288Y-114903217D01*
X109070621Y-114436550D02*
X109203954Y-114436550D01*
X109270621Y-114469884D01*
X109303954Y-114503217D01*
X109370621Y-114603217D01*
X109403954Y-114736550D01*
X109403954Y-115003217D01*
X109370621Y-115069884D01*
X109337288Y-115103217D01*
X109270621Y-115136550D01*
X109137288Y-115136550D01*
X109070621Y-115103217D01*
X109037288Y-115069884D01*
X109003954Y-115003217D01*
X109003954Y-114836550D01*
X109037288Y-114769884D01*
X109070621Y-114736550D01*
X109137288Y-114703217D01*
X109270621Y-114703217D01*
X109337288Y-114736550D01*
X109370621Y-114769884D01*
X109403954Y-114836550D01*
D15*
X137521183Y-128048064D02*
X137521183Y-127048064D01*
X137140230Y-127048064D01*
X137044992Y-127095684D01*
X136997373Y-127143303D01*
X136949754Y-127238541D01*
X136949754Y-127381398D01*
X136997373Y-127476636D01*
X137044992Y-127524255D01*
X137140230Y-127571874D01*
X137521183Y-127571874D01*
X136616421Y-127048064D02*
X135949754Y-127048064D01*
X136378326Y-128048064D01*
X117858908Y-100877330D02*
X117922190Y-100900363D01*
X118071787Y-100883147D01*
X118158102Y-100842897D01*
X118267450Y-100739366D01*
X118313516Y-100612801D01*
X118316424Y-100506362D01*
X118279083Y-100313607D01*
X118218709Y-100184135D01*
X118095053Y-100031629D01*
X118011646Y-99965439D01*
X117885081Y-99919373D01*
X117735484Y-99936590D01*
X117649169Y-99976839D01*
X117539821Y-100080371D01*
X117516788Y-100143653D01*
X117171528Y-100304650D02*
X117108246Y-100281617D01*
X117001806Y-100278709D01*
X116786019Y-100379333D01*
X116719828Y-100462739D01*
X116696796Y-100526022D01*
X116693887Y-100632461D01*
X116734137Y-100718776D01*
X116837668Y-100828124D01*
X117597055Y-101104518D01*
X117036007Y-101366139D01*
X136913741Y-150741860D02*
X136975958Y-150767631D01*
X137126164Y-150756956D01*
X137214153Y-150720510D01*
X137327912Y-150621847D01*
X137379455Y-150497412D01*
X137387003Y-150391201D01*
X137358105Y-150197001D01*
X137303436Y-150065018D01*
X137186550Y-149907264D01*
X137106110Y-149837498D01*
X136981675Y-149785956D01*
X136831469Y-149796631D01*
X136743481Y-149833077D01*
X136629721Y-149931740D01*
X136603950Y-149993957D01*
X136510244Y-151012079D02*
X136334267Y-151084971D01*
X136228056Y-151077422D01*
X136165839Y-151051651D01*
X136023181Y-150956115D01*
X135906295Y-150798360D01*
X135760510Y-150446406D01*
X135768059Y-150340195D01*
X135793830Y-150277978D01*
X135863595Y-150197537D01*
X136039573Y-150124645D01*
X136145784Y-150132193D01*
X136208001Y-150157965D01*
X136288442Y-150227730D01*
X136379557Y-150447701D01*
X136372009Y-150553913D01*
X136346237Y-150616130D01*
X136276472Y-150696571D01*
X136100495Y-150769463D01*
X135994283Y-150761914D01*
X135932066Y-150736143D01*
X135851626Y-150666378D01*
D13*
X143785030Y-107854541D02*
X143820745Y-107890255D01*
X143927888Y-107925969D01*
X143999316Y-107925969D01*
X144106459Y-107890255D01*
X144177888Y-107818826D01*
X144213602Y-107747398D01*
X144249316Y-107604541D01*
X144249316Y-107497398D01*
X144213602Y-107354541D01*
X144177888Y-107283112D01*
X144106459Y-107211684D01*
X143999316Y-107175969D01*
X143927888Y-107175969D01*
X143820745Y-107211684D01*
X143785030Y-107247398D01*
X143070745Y-107925969D02*
X143499316Y-107925969D01*
X143285030Y-107925969D02*
X143285030Y-107175969D01*
X143356459Y-107283112D01*
X143427888Y-107354541D01*
X143499316Y-107390255D01*
X142785030Y-107247398D02*
X142749316Y-107211684D01*
X142677888Y-107175969D01*
X142499316Y-107175969D01*
X142427888Y-107211684D01*
X142392173Y-107247398D01*
X142356459Y-107318826D01*
X142356459Y-107390255D01*
X142392173Y-107497398D01*
X142820745Y-107925969D01*
X142356459Y-107925969D01*
D15*
X124017088Y-124067284D02*
X124050421Y-124100617D01*
X124150421Y-124133950D01*
X124217088Y-124133950D01*
X124317088Y-124100617D01*
X124383754Y-124033950D01*
X124417088Y-123967284D01*
X124450421Y-123833950D01*
X124450421Y-123733950D01*
X124417088Y-123600617D01*
X124383754Y-123533950D01*
X124317088Y-123467284D01*
X124217088Y-123433950D01*
X124150421Y-123433950D01*
X124050421Y-123467284D01*
X124017088Y-123500617D01*
X123750421Y-123500617D02*
X123717088Y-123467284D01*
X123650421Y-123433950D01*
X123483754Y-123433950D01*
X123417088Y-123467284D01*
X123383754Y-123500617D01*
X123350421Y-123567284D01*
X123350421Y-123633950D01*
X123383754Y-123733950D01*
X123783754Y-124133950D01*
X123350421Y-124133950D01*
X123117088Y-123433950D02*
X122683754Y-123433950D01*
X122917088Y-123700617D01*
X122817088Y-123700617D01*
X122750421Y-123733950D01*
X122717088Y-123767284D01*
X122683754Y-123833950D01*
X122683754Y-124000617D01*
X122717088Y-124067284D01*
X122750421Y-124100617D01*
X122817088Y-124133950D01*
X123017088Y-124133950D01*
X123083754Y-124100617D01*
X123117088Y-124067284D01*
X119703088Y-126315684D02*
X119736421Y-126349017D01*
X119836421Y-126382350D01*
X119903088Y-126382350D01*
X120003088Y-126349017D01*
X120069754Y-126282350D01*
X120103088Y-126215684D01*
X120136421Y-126082350D01*
X120136421Y-125982350D01*
X120103088Y-125849017D01*
X120069754Y-125782350D01*
X120003088Y-125715684D01*
X119903088Y-125682350D01*
X119836421Y-125682350D01*
X119736421Y-125715684D01*
X119703088Y-125749017D01*
X119436421Y-125749017D02*
X119403088Y-125715684D01*
X119336421Y-125682350D01*
X119169754Y-125682350D01*
X119103088Y-125715684D01*
X119069754Y-125749017D01*
X119036421Y-125815684D01*
X119036421Y-125882350D01*
X119069754Y-125982350D01*
X119469754Y-126382350D01*
X119036421Y-126382350D01*
X118436421Y-125682350D02*
X118569754Y-125682350D01*
X118636421Y-125715684D01*
X118669754Y-125749017D01*
X118736421Y-125849017D01*
X118769754Y-125982350D01*
X118769754Y-126249017D01*
X118736421Y-126315684D01*
X118703088Y-126349017D01*
X118636421Y-126382350D01*
X118503088Y-126382350D01*
X118436421Y-126349017D01*
X118403088Y-126315684D01*
X118369754Y-126249017D01*
X118369754Y-126082350D01*
X118403088Y-126015684D01*
X118436421Y-125982350D01*
X118503088Y-125949017D01*
X118636421Y-125949017D01*
X118703088Y-125982350D01*
X118736421Y-126015684D01*
X118769754Y-126082350D01*
X124067888Y-125057884D02*
X124101221Y-125091217D01*
X124201221Y-125124550D01*
X124267888Y-125124550D01*
X124367888Y-125091217D01*
X124434554Y-125024550D01*
X124467888Y-124957884D01*
X124501221Y-124824550D01*
X124501221Y-124724550D01*
X124467888Y-124591217D01*
X124434554Y-124524550D01*
X124367888Y-124457884D01*
X124267888Y-124424550D01*
X124201221Y-124424550D01*
X124101221Y-124457884D01*
X124067888Y-124491217D01*
X123834554Y-124424550D02*
X123401221Y-124424550D01*
X123634554Y-124691217D01*
X123534554Y-124691217D01*
X123467888Y-124724550D01*
X123434554Y-124757884D01*
X123401221Y-124824550D01*
X123401221Y-124991217D01*
X123434554Y-125057884D01*
X123467888Y-125091217D01*
X123534554Y-125124550D01*
X123734554Y-125124550D01*
X123801221Y-125091217D01*
X123834554Y-125057884D01*
X123167888Y-124424550D02*
X122701221Y-124424550D01*
X123001221Y-125124550D01*
X107349686Y-146869371D02*
X107358476Y-146936138D01*
X107442823Y-147060883D01*
X107518381Y-147118860D01*
X107660706Y-147168047D01*
X107794240Y-147150467D01*
X107889996Y-147103898D01*
X108043730Y-146981772D01*
X108130695Y-146868436D01*
X108208871Y-146688332D01*
X108229070Y-146583786D01*
X108211490Y-146450251D01*
X108127142Y-146325507D01*
X108051585Y-146267529D01*
X107909260Y-146218342D01*
X107842492Y-146227132D01*
X107182674Y-145600791D02*
X107560461Y-145890677D01*
X107308353Y-146297453D01*
X107299563Y-146230686D01*
X107252995Y-146134930D01*
X107064101Y-145989986D01*
X106959555Y-145969788D01*
X106892787Y-145978578D01*
X106797031Y-146025147D01*
X106652088Y-146214040D01*
X106631890Y-146318586D01*
X106640680Y-146385354D01*
X106687249Y-146481110D01*
X106876142Y-146626053D01*
X106980688Y-146646252D01*
X107047456Y-146637461D01*
X106880444Y-145368881D02*
X106351542Y-144963041D01*
X106082789Y-146017292D01*
X145945248Y-107301760D02*
X145949356Y-107348721D01*
X146004534Y-107438535D01*
X146055604Y-107481387D01*
X146153635Y-107520131D01*
X146247557Y-107511914D01*
X146315944Y-107482271D01*
X146427184Y-107401558D01*
X146491463Y-107324953D01*
X146551633Y-107201388D01*
X146568951Y-107128892D01*
X146560733Y-107034970D01*
X146505555Y-106945156D01*
X146454486Y-106902304D01*
X146356455Y-106863560D01*
X146309494Y-106867668D01*
X145867185Y-106409500D02*
X146122533Y-106623762D01*
X145933805Y-106900537D01*
X145929697Y-106853576D01*
X145900053Y-106785188D01*
X145772379Y-106678057D01*
X145699883Y-106660739D01*
X145652922Y-106664848D01*
X145584535Y-106694491D01*
X145477404Y-106822165D01*
X145460086Y-106894661D01*
X145464195Y-106941622D01*
X145493838Y-107010010D01*
X145621512Y-107117141D01*
X145694008Y-107134459D01*
X145740969Y-107130350D01*
X145342396Y-106360772D02*
X145414892Y-106378089D01*
X145461853Y-106373981D01*
X145530240Y-106344338D01*
X145551667Y-106318803D01*
X145568984Y-106246307D01*
X145564876Y-106199346D01*
X145535232Y-106130958D01*
X145433093Y-106045253D01*
X145360597Y-106027936D01*
X145313636Y-106032044D01*
X145245249Y-106061688D01*
X145223823Y-106087222D01*
X145206505Y-106159718D01*
X145210613Y-106206679D01*
X145240257Y-106275067D01*
X145342396Y-106360772D01*
X145372039Y-106429159D01*
X145376148Y-106476120D01*
X145358830Y-106548616D01*
X145273125Y-106650755D01*
X145204738Y-106680399D01*
X145157777Y-106684507D01*
X145085281Y-106667190D01*
X144983142Y-106581485D01*
X144953498Y-106513097D01*
X144949390Y-106466136D01*
X144966708Y-106393640D01*
X145052413Y-106291501D01*
X145120800Y-106261858D01*
X145167761Y-106257749D01*
X145240257Y-106275067D01*
X126960230Y-120602826D02*
X127007849Y-120555207D01*
X127055468Y-120412350D01*
X127055468Y-120317112D01*
X127007849Y-120174255D01*
X126912611Y-120079017D01*
X126817373Y-120031398D01*
X126626897Y-119983779D01*
X126484040Y-119983779D01*
X126293564Y-120031398D01*
X126198326Y-120079017D01*
X126103088Y-120174255D01*
X126055468Y-120317112D01*
X126055468Y-120412350D01*
X126103088Y-120555207D01*
X126150707Y-120602826D01*
X126055468Y-121459969D02*
X126055468Y-121269493D01*
X126103088Y-121174255D01*
X126150707Y-121126636D01*
X126293564Y-121031398D01*
X126484040Y-120983779D01*
X126864992Y-120983779D01*
X126960230Y-121031398D01*
X127007849Y-121079017D01*
X127055468Y-121174255D01*
X127055468Y-121364731D01*
X127007849Y-121459969D01*
X126960230Y-121507588D01*
X126864992Y-121555207D01*
X126626897Y-121555207D01*
X126531659Y-121507588D01*
X126484040Y-121459969D01*
X126436421Y-121364731D01*
X126436421Y-121174255D01*
X126484040Y-121079017D01*
X126531659Y-121031398D01*
X126626897Y-120983779D01*
X126150707Y-121936160D02*
X126103088Y-121983779D01*
X126055468Y-122079017D01*
X126055468Y-122317112D01*
X126103088Y-122412350D01*
X126150707Y-122459969D01*
X126245945Y-122507588D01*
X126341183Y-122507588D01*
X126484040Y-122459969D01*
X127055468Y-121888541D01*
X127055468Y-122507588D01*
X165267526Y-121520103D02*
X165362764Y-121472484D01*
X165458002Y-121377245D01*
X165600859Y-121234388D01*
X165696097Y-121186769D01*
X165791335Y-121186769D01*
X165743716Y-121424864D02*
X165838954Y-121377245D01*
X165934192Y-121282007D01*
X165981811Y-121091531D01*
X165981811Y-120758198D01*
X165934192Y-120567722D01*
X165838954Y-120472484D01*
X165743716Y-120424864D01*
X165553240Y-120424864D01*
X165458002Y-120472484D01*
X165362764Y-120567722D01*
X165315145Y-120758198D01*
X165315145Y-121091531D01*
X165362764Y-121282007D01*
X165458002Y-121377245D01*
X165553240Y-121424864D01*
X165743716Y-121424864D01*
X164981811Y-120424864D02*
X164315145Y-120424864D01*
X164743716Y-121424864D01*
D13*
X161438030Y-128169769D02*
X161688030Y-127812626D01*
X161866602Y-128169769D02*
X161866602Y-127419769D01*
X161580888Y-127419769D01*
X161509459Y-127455484D01*
X161473745Y-127491198D01*
X161438030Y-127562626D01*
X161438030Y-127669769D01*
X161473745Y-127741198D01*
X161509459Y-127776912D01*
X161580888Y-127812626D01*
X161866602Y-127812626D01*
X160723745Y-128169769D02*
X161152316Y-128169769D01*
X160938030Y-128169769D02*
X160938030Y-127419769D01*
X161009459Y-127526912D01*
X161080888Y-127598341D01*
X161152316Y-127634055D01*
X160295173Y-127741198D02*
X160366602Y-127705484D01*
X160402316Y-127669769D01*
X160438030Y-127598341D01*
X160438030Y-127562626D01*
X160402316Y-127491198D01*
X160366602Y-127455484D01*
X160295173Y-127419769D01*
X160152316Y-127419769D01*
X160080888Y-127455484D01*
X160045173Y-127491198D01*
X160009459Y-127562626D01*
X160009459Y-127598341D01*
X160045173Y-127669769D01*
X160080888Y-127705484D01*
X160152316Y-127741198D01*
X160295173Y-127741198D01*
X160366602Y-127776912D01*
X160402316Y-127812626D01*
X160438030Y-127884055D01*
X160438030Y-128026912D01*
X160402316Y-128098341D01*
X160366602Y-128134055D01*
X160295173Y-128169769D01*
X160152316Y-128169769D01*
X160080888Y-128134055D01*
X160045173Y-128098341D01*
X160009459Y-128026912D01*
X160009459Y-127884055D01*
X160045173Y-127812626D01*
X160080888Y-127776912D01*
X160152316Y-127741198D01*
D15*
X119671183Y-121168064D02*
X119671183Y-121977588D01*
X119623564Y-122072826D01*
X119575945Y-122120445D01*
X119480707Y-122168064D01*
X119290230Y-122168064D01*
X119194992Y-122120445D01*
X119147373Y-122072826D01*
X119099754Y-121977588D01*
X119099754Y-121168064D01*
X118099754Y-122168064D02*
X118671183Y-122168064D01*
X118385468Y-122168064D02*
X118385468Y-121168064D01*
X118480707Y-121310922D01*
X118575945Y-121406160D01*
X118671183Y-121453779D01*
X117718802Y-121263303D02*
X117671183Y-121215684D01*
X117575945Y-121168064D01*
X117337849Y-121168064D01*
X117242611Y-121215684D01*
X117194992Y-121263303D01*
X117147373Y-121358541D01*
X117147373Y-121453779D01*
X117194992Y-121596636D01*
X117766421Y-122168064D01*
X117147373Y-122168064D01*
X114485769Y-108927506D02*
X114485769Y-109737855D01*
X114438102Y-109833191D01*
X114390434Y-109880858D01*
X114295099Y-109928526D01*
X114104428Y-109928526D01*
X114009093Y-109880858D01*
X113961426Y-109833191D01*
X113913758Y-109737855D01*
X113913758Y-108927506D01*
X113389414Y-109928526D02*
X113198744Y-109928526D01*
X113103408Y-109880858D01*
X113055741Y-109833191D01*
X112960406Y-109690188D01*
X112912738Y-109499517D01*
X112912738Y-109118176D01*
X112960406Y-109022841D01*
X113008073Y-108975174D01*
X113103408Y-108927506D01*
X113294079Y-108927506D01*
X113389414Y-108975174D01*
X113437082Y-109022841D01*
X113484749Y-109118176D01*
X113484749Y-109356514D01*
X113437082Y-109451850D01*
X113389414Y-109499517D01*
X113294079Y-109547185D01*
X113103408Y-109547185D01*
X113008073Y-109499517D01*
X112960406Y-109451850D01*
X112912738Y-109356514D01*
X155284488Y-113475484D02*
X155317821Y-113508817D01*
X155417821Y-113542150D01*
X155484488Y-113542150D01*
X155584488Y-113508817D01*
X155651154Y-113442150D01*
X155684488Y-113375484D01*
X155717821Y-113242150D01*
X155717821Y-113142150D01*
X155684488Y-113008817D01*
X155651154Y-112942150D01*
X155584488Y-112875484D01*
X155484488Y-112842150D01*
X155417821Y-112842150D01*
X155317821Y-112875484D01*
X155284488Y-112908817D01*
X154684488Y-113075484D02*
X154684488Y-113542150D01*
X154851154Y-112808817D02*
X155017821Y-113308817D01*
X154584488Y-113308817D01*
X154217821Y-113142150D02*
X154284488Y-113108817D01*
X154317821Y-113075484D01*
X154351154Y-113008817D01*
X154351154Y-112975484D01*
X154317821Y-112908817D01*
X154284488Y-112875484D01*
X154217821Y-112842150D01*
X154084488Y-112842150D01*
X154017821Y-112875484D01*
X153984488Y-112908817D01*
X153951154Y-112975484D01*
X153951154Y-113008817D01*
X153984488Y-113075484D01*
X154017821Y-113108817D01*
X154084488Y-113142150D01*
X154217821Y-113142150D01*
X154284488Y-113175484D01*
X154317821Y-113208817D01*
X154351154Y-113275484D01*
X154351154Y-113408817D01*
X154317821Y-113475484D01*
X154284488Y-113508817D01*
X154217821Y-113542150D01*
X154084488Y-113542150D01*
X154017821Y-113508817D01*
X153984488Y-113475484D01*
X153951154Y-113408817D01*
X153951154Y-113275484D01*
X153984488Y-113208817D01*
X154017821Y-113175484D01*
X154084488Y-113142150D01*
X159298183Y-111293064D02*
X159298183Y-112102588D01*
X159250564Y-112197826D01*
X159202945Y-112245445D01*
X159107707Y-112293064D01*
X158917230Y-112293064D01*
X158821992Y-112245445D01*
X158774373Y-112197826D01*
X158726754Y-112102588D01*
X158726754Y-111293064D01*
X157726754Y-112293064D02*
X158298183Y-112293064D01*
X158012468Y-112293064D02*
X158012468Y-111293064D01*
X158107707Y-111435922D01*
X158202945Y-111531160D01*
X158298183Y-111578779D01*
X157393421Y-111293064D02*
X156774373Y-111293064D01*
X157107707Y-111674017D01*
X156964849Y-111674017D01*
X156869611Y-111721636D01*
X156821992Y-111769255D01*
X156774373Y-111864493D01*
X156774373Y-112102588D01*
X156821992Y-112197826D01*
X156869611Y-112245445D01*
X156964849Y-112293064D01*
X157250564Y-112293064D01*
X157345802Y-112245445D01*
X157393421Y-112197826D01*
X119510945Y-152743064D02*
X119844278Y-152266874D01*
X120082373Y-152743064D02*
X120082373Y-151743064D01*
X119701421Y-151743064D01*
X119606183Y-151790684D01*
X119558564Y-151838303D01*
X119510945Y-151933541D01*
X119510945Y-152076398D01*
X119558564Y-152171636D01*
X119606183Y-152219255D01*
X119701421Y-152266874D01*
X120082373Y-152266874D01*
X119129992Y-151838303D02*
X119082373Y-151790684D01*
X118987135Y-151743064D01*
X118749040Y-151743064D01*
X118653802Y-151790684D01*
X118606183Y-151838303D01*
X118558564Y-151933541D01*
X118558564Y-152028779D01*
X118606183Y-152171636D01*
X119177611Y-152743064D01*
X118558564Y-152743064D01*
X117606183Y-152743064D02*
X118177611Y-152743064D01*
X117891897Y-152743064D02*
X117891897Y-151743064D01*
X117987135Y-151885922D01*
X118082373Y-151981160D01*
X118177611Y-152028779D01*
D13*
X140208802Y-102016112D02*
X140408802Y-101730398D01*
X140551659Y-102016112D02*
X140551659Y-101416112D01*
X140323088Y-101416112D01*
X140265945Y-101444684D01*
X140237373Y-101473255D01*
X140208802Y-101530398D01*
X140208802Y-101616112D01*
X140237373Y-101673255D01*
X140265945Y-101701826D01*
X140323088Y-101730398D01*
X140551659Y-101730398D01*
X139980230Y-101473255D02*
X139951659Y-101444684D01*
X139894516Y-101416112D01*
X139751659Y-101416112D01*
X139694516Y-101444684D01*
X139665945Y-101473255D01*
X139637373Y-101530398D01*
X139637373Y-101587541D01*
X139665945Y-101673255D01*
X140008802Y-102016112D01*
X139637373Y-102016112D01*
X139408802Y-101473255D02*
X139380230Y-101444684D01*
X139323088Y-101416112D01*
X139180230Y-101416112D01*
X139123088Y-101444684D01*
X139094516Y-101473255D01*
X139065945Y-101530398D01*
X139065945Y-101587541D01*
X139094516Y-101673255D01*
X139437373Y-102016112D01*
X139065945Y-102016112D01*
D15*
X106201345Y-123107626D02*
X106248964Y-123155245D01*
X106391821Y-123202864D01*
X106487059Y-123202864D01*
X106629916Y-123155245D01*
X106725154Y-123060007D01*
X106772773Y-122964769D01*
X106820392Y-122774293D01*
X106820392Y-122631436D01*
X106772773Y-122440960D01*
X106725154Y-122345722D01*
X106629916Y-122250484D01*
X106487059Y-122202864D01*
X106391821Y-122202864D01*
X106248964Y-122250484D01*
X106201345Y-122298103D01*
X105344202Y-122536198D02*
X105344202Y-123202864D01*
X105582297Y-122155245D02*
X105820392Y-122869531D01*
X105201345Y-122869531D01*
X104915630Y-122202864D02*
X104248964Y-122202864D01*
X104677535Y-123202864D01*
D13*
X149590545Y-127805541D02*
X149626259Y-127769826D01*
X149661973Y-127662684D01*
X149661973Y-127591255D01*
X149626259Y-127484112D01*
X149554830Y-127412684D01*
X149483402Y-127376969D01*
X149340545Y-127341255D01*
X149233402Y-127341255D01*
X149090545Y-127376969D01*
X149019116Y-127412684D01*
X148947688Y-127484112D01*
X148911973Y-127591255D01*
X148911973Y-127662684D01*
X148947688Y-127769826D01*
X148983402Y-127805541D01*
X148911973Y-128484112D02*
X148911973Y-128126969D01*
X149269116Y-128091255D01*
X149233402Y-128126969D01*
X149197688Y-128198398D01*
X149197688Y-128376969D01*
X149233402Y-128448398D01*
X149269116Y-128484112D01*
X149340545Y-128519826D01*
X149519116Y-128519826D01*
X149590545Y-128484112D01*
X149626259Y-128448398D01*
X149661973Y-128376969D01*
X149661973Y-128198398D01*
X149626259Y-128126969D01*
X149590545Y-128091255D01*
X148983402Y-128805541D02*
X148947688Y-128841255D01*
X148911973Y-128912684D01*
X148911973Y-129091255D01*
X148947688Y-129162684D01*
X148983402Y-129198398D01*
X149054830Y-129234112D01*
X149126259Y-129234112D01*
X149233402Y-129198398D01*
X149661973Y-128769826D01*
X149661973Y-129234112D01*
D15*
X103488987Y-127377087D02*
X103536606Y-127424706D01*
X103679463Y-127472325D01*
X103774701Y-127472325D01*
X103917558Y-127424706D01*
X104012796Y-127329468D01*
X104060415Y-127234230D01*
X104108034Y-127043754D01*
X104108034Y-126900897D01*
X104060415Y-126710421D01*
X104012796Y-126615183D01*
X103917558Y-126519945D01*
X103774701Y-126472325D01*
X103679463Y-126472325D01*
X103536606Y-126519945D01*
X103488987Y-126567564D01*
X102584225Y-126472325D02*
X103060415Y-126472325D01*
X103108034Y-126948516D01*
X103060415Y-126900897D01*
X102965177Y-126853278D01*
X102727082Y-126853278D01*
X102631844Y-126900897D01*
X102584225Y-126948516D01*
X102536606Y-127043754D01*
X102536606Y-127281849D01*
X102584225Y-127377087D01*
X102631844Y-127424706D01*
X102727082Y-127472325D01*
X102965177Y-127472325D01*
X103060415Y-127424706D01*
X103108034Y-127377087D01*
X102203272Y-126472325D02*
X101584225Y-126472325D01*
X101917558Y-126853278D01*
X101774701Y-126853278D01*
X101679463Y-126900897D01*
X101631844Y-126948516D01*
X101584225Y-127043754D01*
X101584225Y-127281849D01*
X101631844Y-127377087D01*
X101679463Y-127424706D01*
X101774701Y-127472325D01*
X102060415Y-127472325D01*
X102155653Y-127424706D01*
X102203272Y-127377087D01*
D13*
X151952745Y-124935341D02*
X151988459Y-124899626D01*
X152024173Y-124792484D01*
X152024173Y-124721055D01*
X151988459Y-124613912D01*
X151917030Y-124542484D01*
X151845602Y-124506769D01*
X151702745Y-124471055D01*
X151595602Y-124471055D01*
X151452745Y-124506769D01*
X151381316Y-124542484D01*
X151309888Y-124613912D01*
X151274173Y-124721055D01*
X151274173Y-124792484D01*
X151309888Y-124899626D01*
X151345602Y-124935341D01*
X151274173Y-125613912D02*
X151274173Y-125256769D01*
X151631316Y-125221055D01*
X151595602Y-125256769D01*
X151559888Y-125328198D01*
X151559888Y-125506769D01*
X151595602Y-125578198D01*
X151631316Y-125613912D01*
X151702745Y-125649626D01*
X151881316Y-125649626D01*
X151952745Y-125613912D01*
X151988459Y-125578198D01*
X152024173Y-125506769D01*
X152024173Y-125328198D01*
X151988459Y-125256769D01*
X151952745Y-125221055D01*
X151274173Y-126328198D02*
X151274173Y-125971055D01*
X151631316Y-125935341D01*
X151595602Y-125971055D01*
X151559888Y-126042484D01*
X151559888Y-126221055D01*
X151595602Y-126292484D01*
X151631316Y-126328198D01*
X151702745Y-126363912D01*
X151881316Y-126363912D01*
X151952745Y-126328198D01*
X151988459Y-126292484D01*
X152024173Y-126221055D01*
X152024173Y-126042484D01*
X151988459Y-125971055D01*
X151952745Y-125935341D01*
D15*
X96833411Y-129031356D02*
X96886622Y-128990081D01*
X96951771Y-128854319D01*
X96963707Y-128759832D01*
X96934368Y-128612133D01*
X96851818Y-128505709D01*
X96763299Y-128446529D01*
X96580293Y-128375412D01*
X96438562Y-128357508D01*
X96243620Y-128380878D01*
X96143164Y-128416185D01*
X96036741Y-128498736D01*
X95971592Y-128634498D01*
X95959656Y-128728985D01*
X95988995Y-128876684D01*
X96030270Y-128929896D01*
X95822386Y-129815587D02*
X95882069Y-129343152D01*
X96360473Y-129355591D01*
X96307261Y-129396866D01*
X96248081Y-129485385D01*
X96218239Y-129721603D01*
X96253546Y-129822058D01*
X96294822Y-129875270D01*
X96383341Y-129934450D01*
X96619558Y-129964291D01*
X96720014Y-129928984D01*
X96773226Y-129887709D01*
X96832406Y-129799190D01*
X96862247Y-129562972D01*
X96826940Y-129462517D01*
X96785665Y-129409305D01*
X95708989Y-130713215D02*
X95732862Y-130524241D01*
X95792043Y-130435722D01*
X95845254Y-130394446D01*
X95998922Y-130317864D01*
X96193864Y-130294493D01*
X96571812Y-130342239D01*
X96660331Y-130401420D01*
X96701607Y-130454631D01*
X96736914Y-130555087D01*
X96713041Y-130744061D01*
X96653861Y-130832580D01*
X96600649Y-130873855D01*
X96500193Y-130909162D01*
X96263976Y-130879321D01*
X96175457Y-130820141D01*
X96134182Y-130766929D01*
X96098874Y-130666474D01*
X96122747Y-130477499D01*
X96181927Y-130388981D01*
X96235139Y-130347705D01*
X96335595Y-130312398D01*
D13*
X153806057Y-131687257D02*
X153837014Y-131727166D01*
X153938835Y-131776027D01*
X154009701Y-131784979D01*
X154120475Y-131762975D01*
X154200293Y-131701062D01*
X154244678Y-131634673D01*
X154298015Y-131497419D01*
X154311444Y-131391121D01*
X154293916Y-131244914D01*
X154267435Y-131169572D01*
X154205522Y-131089755D01*
X154103701Y-131040893D01*
X154032835Y-131031941D01*
X153922061Y-131053945D01*
X153882152Y-131084902D01*
X153253317Y-130933465D02*
X153395047Y-130951370D01*
X153461436Y-130995755D01*
X153492393Y-131035664D01*
X153549830Y-131150914D01*
X153567358Y-131297121D01*
X153531548Y-131580582D01*
X153487163Y-131646971D01*
X153447254Y-131677928D01*
X153371913Y-131704408D01*
X153230182Y-131686503D01*
X153163793Y-131642118D01*
X153132836Y-131602209D01*
X153106356Y-131526868D01*
X153128737Y-131349705D01*
X153173122Y-131283315D01*
X153213031Y-131252359D01*
X153288372Y-131225879D01*
X153430103Y-131243783D01*
X153496492Y-131288168D01*
X153527449Y-131328077D01*
X153553929Y-131403419D01*
X152934423Y-130893179D02*
X152473798Y-130834989D01*
X152686017Y-131149784D01*
X152579719Y-131136355D01*
X152504378Y-131162835D01*
X152464469Y-131193792D01*
X152420084Y-131260181D01*
X152397703Y-131437344D01*
X152424183Y-131512686D01*
X152455140Y-131552595D01*
X152521529Y-131596980D01*
X152734125Y-131623837D01*
X152809466Y-131597356D01*
X152849375Y-131566400D01*
D15*
X98184576Y-128977841D02*
X98237787Y-128936566D01*
X98302936Y-128800804D01*
X98314872Y-128706317D01*
X98285533Y-128558618D01*
X98202983Y-128452194D01*
X98114464Y-128393014D01*
X97931458Y-128321897D01*
X97789727Y-128303993D01*
X97594785Y-128327363D01*
X97494329Y-128362670D01*
X97387906Y-128445221D01*
X97322757Y-128580983D01*
X97310821Y-128675470D01*
X97340160Y-128823169D01*
X97381435Y-128876381D01*
X97179519Y-129714829D02*
X97203392Y-129525854D01*
X97262573Y-129437336D01*
X97315784Y-129396060D01*
X97469451Y-129319478D01*
X97664394Y-129296107D01*
X98042342Y-129343853D01*
X98130861Y-129403033D01*
X98172137Y-129456245D01*
X98207444Y-129556701D01*
X98183571Y-129745675D01*
X98124391Y-129834194D01*
X98071179Y-129875469D01*
X97970723Y-129910776D01*
X97734506Y-129880935D01*
X97645987Y-129821755D01*
X97604711Y-129768543D01*
X97569404Y-129668088D01*
X97593277Y-129479113D01*
X97652457Y-129390594D01*
X97705669Y-129349319D01*
X97806125Y-129314012D01*
X97390859Y-130701478D02*
X98052269Y-130785033D01*
X97042752Y-130417514D02*
X97781247Y-130270820D01*
X97703660Y-130884986D01*
D13*
X155914257Y-128563057D02*
X155945214Y-128602966D01*
X156047035Y-128651827D01*
X156117901Y-128660779D01*
X156228675Y-128638775D01*
X156308493Y-128576862D01*
X156352878Y-128510473D01*
X156406215Y-128373219D01*
X156419644Y-128266921D01*
X156402116Y-128120714D01*
X156375635Y-128045372D01*
X156313722Y-127965555D01*
X156211901Y-127916693D01*
X156141035Y-127907741D01*
X156030261Y-127929745D01*
X155990352Y-127960702D01*
X155361517Y-127809265D02*
X155503247Y-127827170D01*
X155569636Y-127871555D01*
X155600593Y-127911464D01*
X155658030Y-128026714D01*
X155675558Y-128172921D01*
X155639748Y-128456382D01*
X155595363Y-128522771D01*
X155555454Y-128553728D01*
X155480113Y-128580208D01*
X155338382Y-128562303D01*
X155271993Y-128517918D01*
X155241036Y-128478009D01*
X155214556Y-128402668D01*
X155236937Y-128225505D01*
X155281322Y-128159115D01*
X155321231Y-128128159D01*
X155396572Y-128101679D01*
X155538303Y-128119583D01*
X155604692Y-128163968D01*
X155635649Y-128203877D01*
X155662129Y-128279219D01*
X154617431Y-127715265D02*
X154971757Y-127760027D01*
X154962428Y-128118830D01*
X154931472Y-128078921D01*
X154865082Y-128034536D01*
X154687919Y-128012155D01*
X154612578Y-128038635D01*
X154572669Y-128069592D01*
X154528284Y-128135981D01*
X154505903Y-128313144D01*
X154532383Y-128388486D01*
X154563340Y-128428395D01*
X154629729Y-128472780D01*
X154806892Y-128495161D01*
X154882234Y-128468680D01*
X154922142Y-128437724D01*
D15*
X100994345Y-118605464D02*
X101327678Y-118129274D01*
X101565773Y-118605464D02*
X101565773Y-117605464D01*
X101184821Y-117605464D01*
X101089583Y-117653084D01*
X101041964Y-117700703D01*
X100994345Y-117795941D01*
X100994345Y-117938798D01*
X101041964Y-118034036D01*
X101089583Y-118081655D01*
X101184821Y-118129274D01*
X101565773Y-118129274D01*
X100613392Y-117700703D02*
X100565773Y-117653084D01*
X100470535Y-117605464D01*
X100232440Y-117605464D01*
X100137202Y-117653084D01*
X100089583Y-117700703D01*
X100041964Y-117795941D01*
X100041964Y-117891179D01*
X100089583Y-118034036D01*
X100661011Y-118605464D01*
X100041964Y-118605464D01*
X99137202Y-117605464D02*
X99613392Y-117605464D01*
X99661011Y-118081655D01*
X99613392Y-118034036D01*
X99518154Y-117986417D01*
X99280059Y-117986417D01*
X99184821Y-118034036D01*
X99137202Y-118081655D01*
X99089583Y-118176893D01*
X99089583Y-118414988D01*
X99137202Y-118510226D01*
X99184821Y-118557845D01*
X99280059Y-118605464D01*
X99518154Y-118605464D01*
X99613392Y-118557845D01*
X99661011Y-118510226D01*
D13*
X153487830Y-134164169D02*
X153737830Y-133807026D01*
X153916402Y-134164169D02*
X153916402Y-133414169D01*
X153630688Y-133414169D01*
X153559259Y-133449884D01*
X153523545Y-133485598D01*
X153487830Y-133557026D01*
X153487830Y-133664169D01*
X153523545Y-133735598D01*
X153559259Y-133771312D01*
X153630688Y-133807026D01*
X153916402Y-133807026D01*
X153202116Y-133485598D02*
X153166402Y-133449884D01*
X153094973Y-133414169D01*
X152916402Y-133414169D01*
X152844973Y-133449884D01*
X152809259Y-133485598D01*
X152773545Y-133557026D01*
X152773545Y-133628455D01*
X152809259Y-133735598D01*
X153237830Y-134164169D01*
X152773545Y-134164169D01*
X152130688Y-133414169D02*
X152273545Y-133414169D01*
X152344973Y-133449884D01*
X152380688Y-133485598D01*
X152452116Y-133592741D01*
X152487830Y-133735598D01*
X152487830Y-134021312D01*
X152452116Y-134092741D01*
X152416402Y-134128455D01*
X152344973Y-134164169D01*
X152202116Y-134164169D01*
X152130688Y-134128455D01*
X152094973Y-134092741D01*
X152059259Y-134021312D01*
X152059259Y-133842741D01*
X152094973Y-133771312D01*
X152130688Y-133735598D01*
X152202116Y-133699884D01*
X152344973Y-133699884D01*
X152416402Y-133735598D01*
X152452116Y-133771312D01*
X152487830Y-133842741D01*
D15*
X105501183Y-120196264D02*
X105501183Y-121005788D01*
X105453564Y-121101026D01*
X105405945Y-121148645D01*
X105310707Y-121196264D01*
X105120230Y-121196264D01*
X105024992Y-121148645D01*
X104977373Y-121101026D01*
X104929754Y-121005788D01*
X104929754Y-120196264D01*
X103929754Y-121196264D02*
X104501183Y-121196264D01*
X104215468Y-121196264D02*
X104215468Y-120196264D01*
X104310707Y-120339122D01*
X104405945Y-120434360D01*
X104501183Y-120481979D01*
X102977373Y-121196264D02*
X103548802Y-121196264D01*
X103263088Y-121196264D02*
X103263088Y-120196264D01*
X103358326Y-120339122D01*
X103453564Y-120434360D01*
X103548802Y-120481979D01*
X148427183Y-130584864D02*
X148427183Y-131394388D01*
X148379564Y-131489626D01*
X148331945Y-131537245D01*
X148236707Y-131584864D01*
X148046230Y-131584864D01*
X147950992Y-131537245D01*
X147903373Y-131489626D01*
X147855754Y-131394388D01*
X147855754Y-130584864D01*
X146855754Y-131584864D02*
X147427183Y-131584864D01*
X147141468Y-131584864D02*
X147141468Y-130584864D01*
X147236707Y-130727722D01*
X147331945Y-130822960D01*
X147427183Y-130870579D01*
X145998611Y-130918198D02*
X145998611Y-131584864D01*
X146236707Y-130537245D02*
X146474802Y-131251531D01*
X145855754Y-131251531D01*
X93587961Y-121275716D02*
X94391102Y-121377176D01*
X94479620Y-121436356D01*
X94520896Y-121489568D01*
X94556203Y-121590024D01*
X94532330Y-121778998D01*
X94473150Y-121867517D01*
X94419938Y-121908792D01*
X94319483Y-121944099D01*
X93516342Y-121842639D01*
X94383124Y-122960087D02*
X94454743Y-122393164D01*
X94418933Y-122676625D02*
X93426818Y-122551292D01*
X93580486Y-122474710D01*
X93686909Y-122392159D01*
X93746089Y-122303640D01*
X93277612Y-123732381D02*
X93337295Y-123259946D01*
X93815698Y-123272384D01*
X93762487Y-123313660D01*
X93703307Y-123402179D01*
X93673465Y-123638396D01*
X93708772Y-123738852D01*
X93750048Y-123792064D01*
X93838567Y-123851244D01*
X94074784Y-123881085D01*
X94175240Y-123845778D01*
X94228452Y-123804503D01*
X94287632Y-123715984D01*
X94317473Y-123479766D01*
X94282166Y-123379311D01*
X94240890Y-123326099D01*
X159457094Y-129945750D02*
X160260235Y-130047210D01*
X160348753Y-130106390D01*
X160390029Y-130159602D01*
X160425336Y-130260058D01*
X160401463Y-130449032D01*
X160342283Y-130537551D01*
X160289071Y-130578826D01*
X160188616Y-130614133D01*
X159385475Y-130512673D01*
X160252257Y-131630121D02*
X160323876Y-131063198D01*
X160288066Y-131346659D02*
X159295951Y-131221326D01*
X159449619Y-131144744D01*
X159556042Y-131062193D01*
X159615222Y-130973674D01*
X159218364Y-131835492D02*
X159134809Y-132496902D01*
X160180638Y-132197043D01*
X146630192Y-120145464D02*
X146630192Y-120954988D01*
X146582573Y-121050226D01*
X146534954Y-121097845D01*
X146439716Y-121145464D01*
X146249240Y-121145464D01*
X146154002Y-121097845D01*
X146106383Y-121050226D01*
X146058764Y-120954988D01*
X146058764Y-120145464D01*
X145058764Y-121145464D02*
X145630192Y-121145464D01*
X145344478Y-121145464D02*
X145344478Y-120145464D01*
X145439716Y-120288322D01*
X145534954Y-120383560D01*
X145630192Y-120431179D01*
X137075468Y-113405617D02*
X137075468Y-112929426D01*
X136075468Y-112929426D01*
X136170707Y-113691331D02*
X136123088Y-113738950D01*
X136075468Y-113834188D01*
X136075468Y-114072284D01*
X136123088Y-114167522D01*
X136170707Y-114215141D01*
X136265945Y-114262760D01*
X136361183Y-114262760D01*
X136504040Y-114215141D01*
X137075468Y-113643712D01*
X137075468Y-114262760D01*
D13*
X147597985Y-98305687D02*
X147493065Y-97973085D01*
X147806703Y-98033680D02*
X147330691Y-97668423D01*
X147191546Y-97849761D01*
X147179427Y-97912489D01*
X147184701Y-97952549D01*
X147212642Y-98010003D01*
X147280644Y-98062182D01*
X147343372Y-98074302D01*
X147383432Y-98069028D01*
X147440886Y-98041086D01*
X147580031Y-97859748D01*
X146967567Y-98470193D02*
X147284908Y-98713697D01*
X146873195Y-98217711D02*
X147300169Y-98365273D01*
X147074058Y-98659947D01*
X146902258Y-99212377D02*
X147110976Y-98940370D01*
X147006617Y-99076373D02*
X146530605Y-98711116D01*
X146633393Y-98717961D01*
X146713514Y-98707413D01*
X146770968Y-98679472D01*
X150623734Y-100270411D02*
X150518814Y-99937809D01*
X150832452Y-99998404D02*
X150356440Y-99633147D01*
X150217295Y-99814485D01*
X150205176Y-99877213D01*
X150210450Y-99917273D01*
X150238391Y-99974727D01*
X150306393Y-100026906D01*
X150369121Y-100039026D01*
X150409181Y-100033752D01*
X150466635Y-100005810D01*
X150605780Y-99824472D01*
X149993316Y-100434917D02*
X150310657Y-100678421D01*
X149898944Y-100182435D02*
X150325918Y-100329997D01*
X150099807Y-100624671D01*
X149469388Y-100789176D02*
X149643320Y-100562504D01*
X149887385Y-100713769D01*
X149847325Y-100719043D01*
X149789871Y-100746984D01*
X149702906Y-100860320D01*
X149690786Y-100923048D01*
X149696060Y-100963108D01*
X149724002Y-101020562D01*
X149837338Y-101107528D01*
X149900066Y-101119647D01*
X149940126Y-101114373D01*
X149997580Y-101086432D01*
X150084546Y-100973095D01*
X150096665Y-100910368D01*
X150091391Y-100870307D01*
M02*
