G04 #@! TF.GenerationSoftware,KiCad,Pcbnew,(5.0.2)-1*
G04 #@! TF.CreationDate,2019-01-08T10:51:14-07:00*
G04 #@! TF.ProjectId,MagSensor,4d616753-656e-4736-9f72-2e6b69636164,rev?*
G04 #@! TF.SameCoordinates,Original*
G04 #@! TF.FileFunction,Soldermask,Bot*
G04 #@! TF.FilePolarity,Negative*
%FSLAX46Y46*%
G04 Gerber Fmt 4.6, Leading zero omitted, Abs format (unit mm)*
G04 Created by KiCad (PCBNEW (5.0.2)-1) date 1/8/2019 10:51:14 AM*
%MOMM*%
%LPD*%
G01*
G04 APERTURE LIST*
%ADD10C,0.100000*%
G04 APERTURE END LIST*
D10*
G36*
X123323387Y-165485915D02*
X123471160Y-165547125D01*
X123604158Y-165635991D01*
X123717255Y-165749088D01*
X123806121Y-165882086D01*
X123867331Y-166029859D01*
X123898535Y-166186735D01*
X123898535Y-166346687D01*
X123867331Y-166503563D01*
X123806121Y-166651336D01*
X123717255Y-166784334D01*
X123604158Y-166897431D01*
X123471160Y-166986297D01*
X123323387Y-167047507D01*
X123166511Y-167078711D01*
X123006559Y-167078711D01*
X122849683Y-167047507D01*
X122701910Y-166986297D01*
X122568912Y-166897431D01*
X122455815Y-166784334D01*
X122366949Y-166651336D01*
X122305739Y-166503563D01*
X122274535Y-166346687D01*
X122274535Y-166186735D01*
X122305739Y-166029859D01*
X122366949Y-165882086D01*
X122455815Y-165749088D01*
X122568912Y-165635991D01*
X122701910Y-165547125D01*
X122849683Y-165485915D01*
X123006559Y-165454711D01*
X123166511Y-165454711D01*
X123323387Y-165485915D01*
X123323387Y-165485915D01*
G37*
G36*
X125863387Y-165485915D02*
X126011160Y-165547125D01*
X126144158Y-165635991D01*
X126257255Y-165749088D01*
X126346121Y-165882086D01*
X126407331Y-166029859D01*
X126438535Y-166186735D01*
X126438535Y-166346687D01*
X126407331Y-166503563D01*
X126346121Y-166651336D01*
X126257255Y-166784334D01*
X126144158Y-166897431D01*
X126011160Y-166986297D01*
X125863387Y-167047507D01*
X125706511Y-167078711D01*
X125546559Y-167078711D01*
X125389683Y-167047507D01*
X125241910Y-166986297D01*
X125108912Y-166897431D01*
X124995815Y-166784334D01*
X124906949Y-166651336D01*
X124845739Y-166503563D01*
X124814535Y-166346687D01*
X124814535Y-166186735D01*
X124845739Y-166029859D01*
X124906949Y-165882086D01*
X124995815Y-165749088D01*
X125108912Y-165635991D01*
X125241910Y-165547125D01*
X125389683Y-165485915D01*
X125546559Y-165454711D01*
X125706511Y-165454711D01*
X125863387Y-165485915D01*
X125863387Y-165485915D01*
G37*
G36*
X128403387Y-165485915D02*
X128551160Y-165547125D01*
X128684158Y-165635991D01*
X128797255Y-165749088D01*
X128886121Y-165882086D01*
X128947331Y-166029859D01*
X128978535Y-166186735D01*
X128978535Y-166346687D01*
X128947331Y-166503563D01*
X128886121Y-166651336D01*
X128797255Y-166784334D01*
X128684158Y-166897431D01*
X128551160Y-166986297D01*
X128403387Y-167047507D01*
X128246511Y-167078711D01*
X128086559Y-167078711D01*
X127929683Y-167047507D01*
X127781910Y-166986297D01*
X127648912Y-166897431D01*
X127535815Y-166784334D01*
X127446949Y-166651336D01*
X127385739Y-166503563D01*
X127354535Y-166346687D01*
X127354535Y-166186735D01*
X127385739Y-166029859D01*
X127446949Y-165882086D01*
X127535815Y-165749088D01*
X127648912Y-165635991D01*
X127781910Y-165547125D01*
X127929683Y-165485915D01*
X128086559Y-165454711D01*
X128246511Y-165454711D01*
X128403387Y-165485915D01*
X128403387Y-165485915D01*
G37*
G36*
X129009095Y-164891191D02*
X127709095Y-164891191D01*
X127709095Y-163891191D01*
X129009095Y-163891191D01*
X129009095Y-164891191D01*
X129009095Y-164891191D01*
G37*
G36*
X126826095Y-164320831D02*
X125826095Y-164320831D01*
X125826095Y-163020831D01*
X126826095Y-163020831D01*
X126826095Y-164320831D01*
X126826095Y-164320831D01*
G37*
G36*
X123526095Y-164320831D02*
X122526095Y-164320831D01*
X122526095Y-163020831D01*
X123526095Y-163020831D01*
X123526095Y-164320831D01*
X123526095Y-164320831D01*
G37*
G36*
X124709535Y-162164231D02*
X123809535Y-162164231D01*
X123809535Y-161164231D01*
X124709535Y-161164231D01*
X124709535Y-162164231D01*
X124709535Y-162164231D01*
G37*
G36*
X151260251Y-155716679D02*
X151765652Y-155817209D01*
X152320717Y-156047125D01*
X152820262Y-156380910D01*
X153245090Y-156805738D01*
X153578875Y-157305283D01*
X153808791Y-157860348D01*
X153907319Y-158355684D01*
X153917265Y-158405684D01*
X153926000Y-158449601D01*
X153926000Y-159050399D01*
X153808791Y-159639652D01*
X153578875Y-160194717D01*
X153245090Y-160694262D01*
X152820262Y-161119090D01*
X152320717Y-161452875D01*
X151765652Y-161682791D01*
X151260251Y-161783321D01*
X151176400Y-161800000D01*
X150575600Y-161800000D01*
X150491749Y-161783321D01*
X149986348Y-161682791D01*
X149431283Y-161452875D01*
X148931738Y-161119090D01*
X148506910Y-160694262D01*
X148173125Y-160194717D01*
X147943209Y-159639652D01*
X147826000Y-159050399D01*
X147826000Y-158449601D01*
X147834736Y-158405684D01*
X147844681Y-158355684D01*
X147943209Y-157860348D01*
X148173125Y-157305283D01*
X148506910Y-156805738D01*
X148931738Y-156380910D01*
X149431283Y-156047125D01*
X149986348Y-155817209D01*
X150491749Y-155716679D01*
X150575600Y-155700000D01*
X151176400Y-155700000D01*
X151260251Y-155716679D01*
X151260251Y-155716679D01*
G37*
G36*
X129009095Y-161591191D02*
X127709095Y-161591191D01*
X127709095Y-160591191D01*
X129009095Y-160591191D01*
X129009095Y-161591191D01*
X129009095Y-161591191D01*
G37*
G36*
X123759535Y-160164231D02*
X122859535Y-160164231D01*
X122859535Y-159164231D01*
X123759535Y-159164231D01*
X123759535Y-160164231D01*
X123759535Y-160164231D01*
G37*
G36*
X125659535Y-160164231D02*
X124759535Y-160164231D01*
X124759535Y-159164231D01*
X125659535Y-159164231D01*
X125659535Y-160164231D01*
X125659535Y-160164231D01*
G37*
G36*
X128748088Y-159905684D02*
X127848088Y-159905684D01*
X127848088Y-158905684D01*
X128748088Y-158905684D01*
X128748088Y-159905684D01*
X128748088Y-159905684D01*
G37*
G36*
X125548088Y-158405684D02*
X124848088Y-158405684D01*
X124848088Y-157905684D01*
X125548088Y-157905684D01*
X125548088Y-158405684D01*
X125548088Y-158405684D01*
G37*
G36*
X123698088Y-158355684D02*
X122998088Y-158355684D01*
X122998088Y-157855684D01*
X123698088Y-157855684D01*
X123698088Y-158355684D01*
X123698088Y-158355684D01*
G37*
G36*
X129698088Y-157905684D02*
X128798088Y-157905684D01*
X128798088Y-156905684D01*
X129698088Y-156905684D01*
X129698088Y-157905684D01*
X129698088Y-157905684D01*
G37*
G36*
X127798088Y-157905684D02*
X126898088Y-157905684D01*
X126898088Y-156905684D01*
X127798088Y-156905684D01*
X127798088Y-157905684D01*
X127798088Y-157905684D01*
G37*
G36*
X125548088Y-157505684D02*
X124848088Y-157505684D01*
X124848088Y-157005684D01*
X125548088Y-157005684D01*
X125548088Y-157505684D01*
X125548088Y-157505684D01*
G37*
G36*
X123698088Y-157455684D02*
X122998088Y-157455684D01*
X122998088Y-156955684D01*
X123698088Y-156955684D01*
X123698088Y-157455684D01*
X123698088Y-157455684D01*
G37*
G36*
X137991241Y-154678055D02*
X138364394Y-155578925D01*
X138689639Y-156364136D01*
X137617938Y-156808049D01*
X137283090Y-155999654D01*
X136919541Y-155121969D01*
X136603826Y-154359767D01*
X137675527Y-153915854D01*
X137991241Y-154678055D01*
X137991241Y-154678055D01*
G37*
G36*
X97666251Y-150128679D02*
X98171652Y-150229209D01*
X98726717Y-150459125D01*
X99226262Y-150792910D01*
X99651090Y-151217738D01*
X99984875Y-151717283D01*
X100214791Y-152272348D01*
X100296444Y-152682849D01*
X100320878Y-152805684D01*
X100332000Y-152861601D01*
X100332000Y-153462399D01*
X100214791Y-154051652D01*
X99984875Y-154606717D01*
X99651090Y-155106262D01*
X99226262Y-155531090D01*
X98726717Y-155864875D01*
X98171652Y-156094791D01*
X97666251Y-156195321D01*
X97582400Y-156212000D01*
X96981600Y-156212000D01*
X96897749Y-156195321D01*
X96392348Y-156094791D01*
X95837283Y-155864875D01*
X95337738Y-155531090D01*
X94912910Y-155106262D01*
X94579125Y-154606717D01*
X94349209Y-154051652D01*
X94232000Y-153462399D01*
X94232000Y-152861601D01*
X94243123Y-152805684D01*
X94267556Y-152682849D01*
X94349209Y-152272348D01*
X94579125Y-151717283D01*
X94912910Y-151217738D01*
X95337738Y-150792910D01*
X95837283Y-150459125D01*
X96392348Y-150229209D01*
X96897749Y-150128679D01*
X96981600Y-150112000D01*
X97582400Y-150112000D01*
X97666251Y-150128679D01*
X97666251Y-150128679D01*
G37*
G36*
X140023775Y-153836151D02*
X140387325Y-154713837D01*
X140722174Y-155522233D01*
X139650473Y-155966146D01*
X139315625Y-155157751D01*
X138952075Y-154280065D01*
X138636361Y-153517864D01*
X139708062Y-153073951D01*
X140023775Y-153836151D01*
X140023775Y-153836151D01*
G37*
G36*
X115648088Y-154885684D02*
X112998088Y-154885684D01*
X112998088Y-153725684D01*
X115648088Y-153725684D01*
X115648088Y-154885684D01*
X115648088Y-154885684D01*
G37*
G36*
X145603088Y-153530684D02*
X144443088Y-153530684D01*
X144443088Y-150880684D01*
X145603088Y-150880684D01*
X145603088Y-153530684D01*
X145603088Y-153530684D01*
G37*
G36*
X142044154Y-150825130D02*
X142059700Y-150844072D01*
X142078642Y-150859618D01*
X142100253Y-150871169D01*
X142123702Y-150878282D01*
X142148088Y-150880684D01*
X143403088Y-150880684D01*
X143403088Y-153530684D01*
X142243088Y-153530684D01*
X142243088Y-152730684D01*
X142240686Y-152706298D01*
X142233573Y-152682849D01*
X142222022Y-152661238D01*
X142206476Y-152642296D01*
X142187534Y-152626750D01*
X142165923Y-152615199D01*
X142142474Y-152608086D01*
X142118088Y-152605684D01*
X140723088Y-152605684D01*
X140723088Y-151905684D01*
X142118088Y-151905684D01*
X142142474Y-151903282D01*
X142165923Y-151896169D01*
X142187534Y-151884618D01*
X142206476Y-151869072D01*
X142222022Y-151850130D01*
X142233573Y-151828519D01*
X142240686Y-151805070D01*
X142243088Y-151780684D01*
X142243088Y-151630684D01*
X142240686Y-151606298D01*
X142233573Y-151582849D01*
X142222022Y-151561238D01*
X142206476Y-151542296D01*
X142187534Y-151526750D01*
X142165923Y-151515199D01*
X142142474Y-151508086D01*
X142118088Y-151505684D01*
X140723088Y-151505684D01*
X140723088Y-150805684D01*
X142033760Y-150805684D01*
X142044154Y-150825130D01*
X142044154Y-150825130D01*
G37*
G36*
X112523088Y-153505684D02*
X111923088Y-153505684D01*
X111923088Y-152805684D01*
X112523088Y-152805684D01*
X112523088Y-153505684D01*
X112523088Y-153505684D01*
G37*
G36*
X137843117Y-153149385D02*
X137196401Y-153417263D01*
X136966791Y-152862935D01*
X137613507Y-152595057D01*
X137843117Y-153149385D01*
X137843117Y-153149385D01*
G37*
G36*
X111034443Y-151027526D02*
X110691624Y-151474295D01*
X110618869Y-151569112D01*
X110532214Y-151682042D01*
X110532206Y-151682054D01*
X110021988Y-152346983D01*
X109999548Y-152376227D01*
X109923453Y-152475396D01*
X109421224Y-153129912D01*
X108500934Y-152423749D01*
X109033601Y-151729565D01*
X109581487Y-151015548D01*
X109581495Y-151015536D01*
X110114153Y-150321363D01*
X111034443Y-151027526D01*
X111034443Y-151027526D01*
G37*
G36*
X138859385Y-152728433D02*
X138212669Y-152996311D01*
X137983059Y-152441983D01*
X138629775Y-152174105D01*
X138859385Y-152728433D01*
X138859385Y-152728433D01*
G37*
G36*
X110873686Y-152143138D02*
X111139342Y-152346983D01*
X110713209Y-152902330D01*
X110713208Y-152902330D01*
X110237196Y-152537073D01*
X110275194Y-152487553D01*
X110663329Y-151981726D01*
X110663330Y-151981726D01*
X110873686Y-152143138D01*
X110873686Y-152143138D01*
G37*
G36*
X115648088Y-152685684D02*
X112998088Y-152685684D01*
X112998088Y-151525684D01*
X115648088Y-151525684D01*
X115648088Y-152685684D01*
X115648088Y-152685684D01*
G37*
G36*
X137228565Y-152143139D02*
X136397072Y-152487554D01*
X136071791Y-151702255D01*
X136903284Y-151357840D01*
X137228565Y-152143139D01*
X137228565Y-152143139D01*
G37*
G36*
X112523088Y-152405684D02*
X111923088Y-152405684D01*
X111923088Y-151705684D01*
X112523088Y-151705684D01*
X112523088Y-152405684D01*
X112523088Y-152405684D01*
G37*
G36*
X111657213Y-151357840D02*
X111808980Y-151474295D01*
X111785732Y-151504593D01*
X111772794Y-151525398D01*
X111764162Y-151548331D01*
X111760171Y-151572508D01*
X111760262Y-151575303D01*
X111750253Y-151578339D01*
X111728642Y-151589890D01*
X111709700Y-151605436D01*
X111698920Y-151617728D01*
X111382847Y-152029642D01*
X111382846Y-152029642D01*
X110906834Y-151664385D01*
X110938942Y-151622541D01*
X111332967Y-151109038D01*
X111332968Y-151109038D01*
X111657213Y-151357840D01*
X111657213Y-151357840D01*
G37*
G36*
X138614385Y-151569113D02*
X137782892Y-151913528D01*
X137457611Y-151128229D01*
X138289104Y-150783814D01*
X138614385Y-151569113D01*
X138614385Y-151569113D01*
G37*
G36*
X109289066Y-149688251D02*
X108756399Y-150382435D01*
X108208513Y-151096452D01*
X108208505Y-151096464D01*
X107675847Y-151790637D01*
X106755557Y-151084474D01*
X107257786Y-150429958D01*
X107257794Y-150429946D01*
X107866547Y-149636604D01*
X108368776Y-148982088D01*
X109289066Y-149688251D01*
X109289066Y-149688251D01*
G37*
G36*
X114723088Y-151205684D02*
X114023088Y-151205684D01*
X114023088Y-150605684D01*
X114723088Y-150605684D01*
X114723088Y-151205684D01*
X114723088Y-151205684D01*
G37*
G36*
X113623088Y-151205684D02*
X112923088Y-151205684D01*
X112923088Y-150605684D01*
X113623088Y-150605684D01*
X113623088Y-151205684D01*
X113623088Y-151205684D01*
G37*
G36*
X111893836Y-149849022D02*
X111376388Y-150523373D01*
X110662370Y-149975488D01*
X111179818Y-149301137D01*
X111893836Y-149849022D01*
X111893836Y-149849022D01*
G37*
G36*
X110703806Y-148935880D02*
X110186358Y-149610231D01*
X109472340Y-149062346D01*
X109989788Y-148387995D01*
X110703806Y-148935880D01*
X110703806Y-148935880D01*
G37*
G36*
X90870826Y-147372337D02*
X90912686Y-147380663D01*
X90947333Y-147395014D01*
X91030978Y-147429661D01*
X91137442Y-147500798D01*
X91227974Y-147591330D01*
X91299111Y-147697794D01*
X91348109Y-147816087D01*
X91373088Y-147941663D01*
X91373088Y-148069705D01*
X91348109Y-148195281D01*
X91299111Y-148313574D01*
X91227974Y-148420038D01*
X91137442Y-148510570D01*
X91030978Y-148581707D01*
X90947333Y-148616354D01*
X90912686Y-148630705D01*
X90870826Y-148639031D01*
X90787109Y-148655684D01*
X90659067Y-148655684D01*
X90575350Y-148639031D01*
X90533490Y-148630705D01*
X90498843Y-148616354D01*
X90415198Y-148581707D01*
X90308734Y-148510570D01*
X90218202Y-148420038D01*
X90147065Y-148313574D01*
X90098067Y-148195281D01*
X90073088Y-148069705D01*
X90073088Y-147941663D01*
X90098067Y-147816087D01*
X90147065Y-147697794D01*
X90218202Y-147591330D01*
X90308734Y-147500798D01*
X90415198Y-147429661D01*
X90498843Y-147395014D01*
X90533490Y-147380663D01*
X90575350Y-147372337D01*
X90659067Y-147355684D01*
X90787109Y-147355684D01*
X90870826Y-147372337D01*
X90870826Y-147372337D01*
G37*
G36*
X101129940Y-136391488D02*
X101277713Y-136452698D01*
X101410711Y-136541564D01*
X101523808Y-136654661D01*
X101612674Y-136787659D01*
X101673884Y-136935432D01*
X101705088Y-137092308D01*
X101705088Y-137252260D01*
X101673884Y-137409136D01*
X101612674Y-137556909D01*
X101523808Y-137689907D01*
X101410711Y-137803004D01*
X101277713Y-137891870D01*
X101129940Y-137953080D01*
X100973064Y-137984284D01*
X100813112Y-137984284D01*
X100656236Y-137953080D01*
X100508463Y-137891870D01*
X100375465Y-137803004D01*
X100262368Y-137689907D01*
X100173502Y-137556909D01*
X100112292Y-137409136D01*
X100081088Y-137252260D01*
X100081088Y-137092308D01*
X100112292Y-136935432D01*
X100173502Y-136787659D01*
X100262368Y-136654661D01*
X100375465Y-136541564D01*
X100508463Y-136452698D01*
X100656236Y-136391488D01*
X100813112Y-136360284D01*
X100973064Y-136360284D01*
X101129940Y-136391488D01*
X101129940Y-136391488D01*
G37*
G36*
X98823088Y-134930684D02*
X97923088Y-134930684D01*
X97923088Y-134080684D01*
X98823088Y-134080684D01*
X98823088Y-134930684D01*
X98823088Y-134930684D01*
G37*
G36*
X97323088Y-134930684D02*
X96423088Y-134930684D01*
X96423088Y-134080684D01*
X97323088Y-134080684D01*
X97323088Y-134930684D01*
X97323088Y-134930684D01*
G37*
G36*
X153903088Y-134230684D02*
X152743088Y-134230684D01*
X152743088Y-131580684D01*
X153903088Y-131580684D01*
X153903088Y-134230684D01*
X153903088Y-134230684D01*
G37*
G36*
X156623088Y-131505684D02*
X156228088Y-131505684D01*
X156203702Y-131508086D01*
X156180253Y-131515199D01*
X156158642Y-131526750D01*
X156139700Y-131542296D01*
X156124154Y-131561238D01*
X156112603Y-131582849D01*
X156105490Y-131606298D01*
X156103088Y-131630684D01*
X156103088Y-134230684D01*
X154943088Y-134230684D01*
X154943088Y-131580684D01*
X155898088Y-131580684D01*
X155922474Y-131578282D01*
X155945923Y-131571169D01*
X155967534Y-131559618D01*
X155986476Y-131544072D01*
X156002022Y-131525130D01*
X156013573Y-131503519D01*
X156020686Y-131480070D01*
X156023088Y-131455684D01*
X156023088Y-130805684D01*
X156623088Y-130805684D01*
X156623088Y-131505684D01*
X156623088Y-131505684D01*
G37*
G36*
X152423088Y-134205684D02*
X151823088Y-134205684D01*
X151823088Y-133505684D01*
X152423088Y-133505684D01*
X152423088Y-134205684D01*
X152423088Y-134205684D01*
G37*
G36*
X161003088Y-133430684D02*
X159843088Y-133430684D01*
X159843088Y-132680684D01*
X161003088Y-132680684D01*
X161003088Y-133430684D01*
X161003088Y-133430684D01*
G37*
G36*
X163203088Y-133430684D02*
X162043088Y-133430684D01*
X162043088Y-130780684D01*
X163203088Y-130780684D01*
X163203088Y-133430684D01*
X163203088Y-133430684D01*
G37*
G36*
X164673088Y-133205684D02*
X163973088Y-133205684D01*
X163973088Y-132705684D01*
X164673088Y-132705684D01*
X164673088Y-133205684D01*
X164673088Y-133205684D01*
G37*
G36*
X152423088Y-133105684D02*
X151823088Y-133105684D01*
X151823088Y-132405684D01*
X152423088Y-132405684D01*
X152423088Y-133105684D01*
X152423088Y-133105684D01*
G37*
G36*
X164673088Y-132305684D02*
X163973088Y-132305684D01*
X163973088Y-131805684D01*
X164673088Y-131805684D01*
X164673088Y-132305684D01*
X164673088Y-132305684D01*
G37*
G36*
X167133088Y-132235684D02*
X166433088Y-132235684D01*
X166433088Y-131635684D01*
X167133088Y-131635684D01*
X167133088Y-132235684D01*
X167133088Y-132235684D01*
G37*
G36*
X168233088Y-132235684D02*
X167533088Y-132235684D01*
X167533088Y-131635684D01*
X168233088Y-131635684D01*
X168233088Y-132235684D01*
X168233088Y-132235684D01*
G37*
G36*
X80710200Y-130075417D02*
X80764067Y-130080722D01*
X80840766Y-130103989D01*
X80867746Y-130112173D01*
X80963287Y-130163240D01*
X81047038Y-130231974D01*
X81115772Y-130315725D01*
X81166839Y-130411266D01*
X81166840Y-130411270D01*
X81198290Y-130514945D01*
X81208909Y-130622764D01*
X81198290Y-130730583D01*
X81180799Y-130788243D01*
X81166839Y-130834262D01*
X81115772Y-130929803D01*
X81047038Y-131013554D01*
X80963287Y-131082288D01*
X80867746Y-131133355D01*
X80846021Y-131139945D01*
X80764067Y-131164806D01*
X80710200Y-131170111D01*
X80683267Y-131172764D01*
X80229229Y-131172764D01*
X80148429Y-131164806D01*
X80118094Y-131155604D01*
X80094061Y-131150824D01*
X80069557Y-131150824D01*
X80045523Y-131155605D01*
X80022884Y-131164982D01*
X80002510Y-131178596D01*
X79985183Y-131195924D01*
X79971569Y-131216298D01*
X79962192Y-131238938D01*
X79957412Y-131262969D01*
X79950771Y-131330393D01*
X79948290Y-131355583D01*
X79925023Y-131432282D01*
X79916839Y-131459262D01*
X79865772Y-131554803D01*
X79797038Y-131638554D01*
X79713287Y-131707288D01*
X79617746Y-131758355D01*
X79590766Y-131766539D01*
X79514067Y-131789806D01*
X79460200Y-131795111D01*
X79433267Y-131797764D01*
X78679229Y-131797764D01*
X78652296Y-131795111D01*
X78598429Y-131789806D01*
X78521730Y-131766539D01*
X78494750Y-131758355D01*
X78399209Y-131707288D01*
X78315458Y-131638554D01*
X78277874Y-131592758D01*
X78260547Y-131575431D01*
X78240172Y-131561817D01*
X78217533Y-131552440D01*
X78193499Y-131547660D01*
X78168995Y-131547660D01*
X78144962Y-131552441D01*
X78122323Y-131561818D01*
X78101948Y-131575432D01*
X78084622Y-131592758D01*
X78047038Y-131638554D01*
X77963287Y-131707288D01*
X77867746Y-131758355D01*
X77840766Y-131766539D01*
X77764067Y-131789806D01*
X77710200Y-131795111D01*
X77683267Y-131797764D01*
X76929229Y-131797764D01*
X76902296Y-131795111D01*
X76848429Y-131789806D01*
X76771730Y-131766539D01*
X76744750Y-131758355D01*
X76649209Y-131707288D01*
X76565458Y-131638554D01*
X76496724Y-131554803D01*
X76445657Y-131459262D01*
X76437473Y-131432282D01*
X76414206Y-131355583D01*
X76403587Y-131247764D01*
X76414206Y-131139945D01*
X76445656Y-131036270D01*
X76445657Y-131036266D01*
X76496724Y-130940725D01*
X76565458Y-130856974D01*
X76649209Y-130788240D01*
X76744750Y-130737173D01*
X76771730Y-130728989D01*
X76848429Y-130705722D01*
X76902296Y-130700417D01*
X76929229Y-130697764D01*
X77683267Y-130697764D01*
X77710200Y-130700417D01*
X77764067Y-130705722D01*
X77840766Y-130728989D01*
X77867746Y-130737173D01*
X77963287Y-130788240D01*
X78047038Y-130856974D01*
X78084622Y-130902770D01*
X78101949Y-130920097D01*
X78122324Y-130933711D01*
X78144963Y-130943088D01*
X78168997Y-130947868D01*
X78193501Y-130947868D01*
X78217534Y-130943087D01*
X78240173Y-130933710D01*
X78260548Y-130920096D01*
X78277874Y-130902770D01*
X78315458Y-130856974D01*
X78399209Y-130788240D01*
X78494750Y-130737173D01*
X78521730Y-130728989D01*
X78598429Y-130705722D01*
X78652296Y-130700417D01*
X78679229Y-130697764D01*
X79433267Y-130697764D01*
X79514067Y-130705722D01*
X79544402Y-130714924D01*
X79568435Y-130719704D01*
X79592939Y-130719704D01*
X79616973Y-130714923D01*
X79639612Y-130705546D01*
X79659986Y-130691932D01*
X79677313Y-130674604D01*
X79690927Y-130654230D01*
X79700304Y-130631590D01*
X79705084Y-130607559D01*
X79714206Y-130514947D01*
X79714206Y-130514945D01*
X79745656Y-130411270D01*
X79745657Y-130411266D01*
X79796724Y-130315725D01*
X79865458Y-130231974D01*
X79949209Y-130163240D01*
X80044750Y-130112173D01*
X80071730Y-130103989D01*
X80148429Y-130080722D01*
X80202296Y-130075417D01*
X80229229Y-130072764D01*
X80683267Y-130072764D01*
X80710200Y-130075417D01*
X80710200Y-130075417D01*
G37*
G36*
X119343088Y-131735684D02*
X116593088Y-131735684D01*
X116593088Y-129305684D01*
X119343088Y-129305684D01*
X119343088Y-131735684D01*
X119343088Y-131735684D01*
G37*
G36*
X137393088Y-131720684D02*
X134643088Y-131720684D01*
X134643088Y-129320684D01*
X137393088Y-129320684D01*
X137393088Y-131720684D01*
X137393088Y-131720684D01*
G37*
G36*
X161003088Y-131530684D02*
X159843088Y-131530684D01*
X159843088Y-130780684D01*
X161003088Y-130780684D01*
X161003088Y-131530684D01*
X161003088Y-131530684D01*
G37*
G36*
X167463088Y-131240684D02*
X166303088Y-131240684D01*
X166303088Y-128590684D01*
X167463088Y-128590684D01*
X167463088Y-131240684D01*
X167463088Y-131240684D01*
G37*
G36*
X169663088Y-131240684D02*
X168503088Y-131240684D01*
X168503088Y-128590684D01*
X169663088Y-128590684D01*
X169663088Y-131240684D01*
X169663088Y-131240684D01*
G37*
G36*
X141550522Y-129691828D02*
X141634563Y-129708545D01*
X141766504Y-129763197D01*
X141766505Y-129763198D01*
X141885252Y-129842542D01*
X141986230Y-129943520D01*
X141986232Y-129943523D01*
X142065575Y-130062268D01*
X142120227Y-130194209D01*
X142136944Y-130278250D01*
X142142401Y-130305684D01*
X142148088Y-130334278D01*
X142148088Y-130477090D01*
X142120227Y-130617159D01*
X142065575Y-130749100D01*
X142065574Y-130749101D01*
X141986230Y-130867848D01*
X141885252Y-130968826D01*
X141885249Y-130968828D01*
X141766504Y-131048171D01*
X141634563Y-131102823D01*
X141550522Y-131119540D01*
X141494496Y-131130684D01*
X141351680Y-131130684D01*
X141295654Y-131119540D01*
X141211613Y-131102823D01*
X141079672Y-131048171D01*
X140960927Y-130968828D01*
X140960924Y-130968826D01*
X140859946Y-130867848D01*
X140780602Y-130749101D01*
X140780601Y-130749100D01*
X140725949Y-130617159D01*
X140698088Y-130477090D01*
X140698088Y-130334278D01*
X140703776Y-130305684D01*
X140709232Y-130278250D01*
X140725949Y-130194209D01*
X140780601Y-130062268D01*
X140859944Y-129943523D01*
X140859946Y-129943520D01*
X140960924Y-129842542D01*
X141079671Y-129763198D01*
X141079672Y-129763197D01*
X141211613Y-129708545D01*
X141295654Y-129691828D01*
X141351680Y-129680684D01*
X141494496Y-129680684D01*
X141550522Y-129691828D01*
X141550522Y-129691828D01*
G37*
G36*
X144148088Y-131130684D02*
X142698088Y-131130684D01*
X142698088Y-129680684D01*
X144148088Y-129680684D01*
X144148088Y-131130684D01*
X144148088Y-131130684D01*
G37*
G36*
X156623088Y-130405684D02*
X156023088Y-130405684D01*
X156023088Y-129705684D01*
X156623088Y-129705684D01*
X156623088Y-130405684D01*
X156623088Y-130405684D01*
G37*
G36*
X154523088Y-130305684D02*
X153823088Y-130305684D01*
X153823088Y-129705684D01*
X154523088Y-129705684D01*
X154523088Y-130305684D01*
X154523088Y-130305684D01*
G37*
G36*
X155623088Y-130305684D02*
X154923088Y-130305684D01*
X154923088Y-129705684D01*
X155623088Y-129705684D01*
X155623088Y-130305684D01*
X155623088Y-130305684D01*
G37*
G36*
X163873088Y-129880684D02*
X162773088Y-129880684D01*
X162773088Y-128530684D01*
X163873088Y-128530684D01*
X163873088Y-129880684D01*
X163873088Y-129880684D01*
G37*
G36*
X161873088Y-129880684D02*
X160773088Y-129880684D01*
X160773088Y-128530684D01*
X161873088Y-128530684D01*
X161873088Y-129880684D01*
X161873088Y-129880684D01*
G37*
G36*
X134443088Y-129045684D02*
X119543088Y-129045684D01*
X119543088Y-127545684D01*
X134443088Y-127545684D01*
X134443088Y-129045684D01*
X134443088Y-129045684D01*
G37*
G36*
X163875888Y-125954470D02*
X164056274Y-125990350D01*
X164247362Y-126069502D01*
X164419336Y-126184411D01*
X164565589Y-126330664D01*
X164680498Y-126502638D01*
X164759650Y-126693726D01*
X164800000Y-126896584D01*
X164800000Y-127103416D01*
X164759650Y-127306274D01*
X164680498Y-127497362D01*
X164565589Y-127669336D01*
X164419336Y-127815589D01*
X164247362Y-127930498D01*
X164056274Y-128009650D01*
X163875888Y-128045530D01*
X163853417Y-128050000D01*
X163646583Y-128050000D01*
X163624112Y-128045530D01*
X163443726Y-128009650D01*
X163252638Y-127930498D01*
X163080664Y-127815589D01*
X162934411Y-127669336D01*
X162819502Y-127497362D01*
X162740350Y-127306274D01*
X162700000Y-127103416D01*
X162700000Y-126896584D01*
X162740350Y-126693726D01*
X162819502Y-126502638D01*
X162934411Y-126330664D01*
X163080664Y-126184411D01*
X163252638Y-126069502D01*
X163443726Y-125990350D01*
X163624112Y-125954470D01*
X163646583Y-125950000D01*
X163853417Y-125950000D01*
X163875888Y-125954470D01*
X163875888Y-125954470D01*
G37*
G36*
X153875888Y-125954470D02*
X154056274Y-125990350D01*
X154247362Y-126069502D01*
X154419336Y-126184411D01*
X154565589Y-126330664D01*
X154680498Y-126502638D01*
X154759650Y-126693726D01*
X154800000Y-126896584D01*
X154800000Y-127103416D01*
X154759650Y-127306274D01*
X154680498Y-127497362D01*
X154565589Y-127669336D01*
X154419336Y-127815589D01*
X154247362Y-127930498D01*
X154056274Y-128009650D01*
X153875888Y-128045530D01*
X153853417Y-128050000D01*
X153646583Y-128050000D01*
X153624112Y-128045530D01*
X153443726Y-128009650D01*
X153252638Y-127930498D01*
X153080664Y-127815589D01*
X152934411Y-127669336D01*
X152819502Y-127497362D01*
X152740350Y-127306274D01*
X152700000Y-127103416D01*
X152700000Y-126896584D01*
X152740350Y-126693726D01*
X152819502Y-126502638D01*
X152934411Y-126330664D01*
X153080664Y-126184411D01*
X153252638Y-126069502D01*
X153443726Y-125990350D01*
X153624112Y-125954470D01*
X153646583Y-125950000D01*
X153853417Y-125950000D01*
X153875888Y-125954470D01*
X153875888Y-125954470D01*
G37*
G36*
X161523088Y-127505684D02*
X160923088Y-127505684D01*
X160923088Y-126805684D01*
X161523088Y-126805684D01*
X161523088Y-127505684D01*
X161523088Y-127505684D01*
G37*
G36*
X158817488Y-127460484D02*
X158217488Y-127460484D01*
X158217488Y-126760484D01*
X158817488Y-126760484D01*
X158817488Y-127460484D01*
X158817488Y-127460484D01*
G37*
G36*
X157394288Y-127362084D02*
X156694288Y-127362084D01*
X156694288Y-126862084D01*
X157394288Y-126862084D01*
X157394288Y-127362084D01*
X157394288Y-127362084D01*
G37*
G36*
X160073088Y-127255684D02*
X159373088Y-127255684D01*
X159373088Y-126755684D01*
X160073088Y-126755684D01*
X160073088Y-127255684D01*
X160073088Y-127255684D01*
G37*
G36*
X113039085Y-125313964D02*
X113050510Y-125315089D01*
X113101919Y-125330684D01*
X113173035Y-125352257D01*
X113226218Y-125380684D01*
X113285952Y-125412612D01*
X113285953Y-125412613D01*
X113285955Y-125412614D01*
X113384931Y-125493841D01*
X113466158Y-125592816D01*
X113526515Y-125705736D01*
X113563683Y-125828262D01*
X113573088Y-125923752D01*
X113573088Y-126487616D01*
X113563683Y-126583106D01*
X113526515Y-126705632D01*
X113466158Y-126818552D01*
X113384931Y-126917527D01*
X113285956Y-126998754D01*
X113173036Y-127059111D01*
X113118402Y-127075684D01*
X113050511Y-127096279D01*
X113039086Y-127097404D01*
X112923088Y-127108829D01*
X112807091Y-127097404D01*
X112795666Y-127096279D01*
X112727775Y-127075684D01*
X112673141Y-127059111D01*
X112560221Y-126998754D01*
X112461246Y-126917527D01*
X112461245Y-126917525D01*
X112461243Y-126917524D01*
X112380018Y-126818552D01*
X112348980Y-126760484D01*
X112319661Y-126705632D01*
X112282493Y-126583106D01*
X112273088Y-126487616D01*
X112273088Y-125923753D01*
X112282493Y-125828263D01*
X112282494Y-125828261D01*
X112319661Y-125705738D01*
X112319661Y-125705737D01*
X112380018Y-125592817D01*
X112461245Y-125493841D01*
X112560220Y-125412614D01*
X112673140Y-125352257D01*
X112744256Y-125330684D01*
X112795665Y-125315089D01*
X112807090Y-125313964D01*
X112923088Y-125302539D01*
X113039085Y-125313964D01*
X113039085Y-125313964D01*
G37*
G36*
X111573088Y-127105684D02*
X110273088Y-127105684D01*
X110273088Y-125305684D01*
X111573088Y-125305684D01*
X111573088Y-127105684D01*
X111573088Y-127105684D01*
G37*
G36*
X117549940Y-125494888D02*
X117697713Y-125556098D01*
X117830711Y-125644964D01*
X117943808Y-125758061D01*
X118032674Y-125891059D01*
X118093884Y-126038832D01*
X118125088Y-126195708D01*
X118125088Y-126355660D01*
X118093884Y-126512536D01*
X118032674Y-126660309D01*
X117943808Y-126793307D01*
X117830711Y-126906404D01*
X117697713Y-126995270D01*
X117549940Y-127056480D01*
X117393064Y-127087684D01*
X117233112Y-127087684D01*
X117076236Y-127056480D01*
X116928463Y-126995270D01*
X116795465Y-126906404D01*
X116682368Y-126793307D01*
X116593502Y-126660309D01*
X116532292Y-126512536D01*
X116501088Y-126355660D01*
X116501088Y-126195708D01*
X116532292Y-126038832D01*
X116593502Y-125891059D01*
X116682368Y-125758061D01*
X116795465Y-125644964D01*
X116928463Y-125556098D01*
X117076236Y-125494888D01*
X117233112Y-125463684D01*
X117393064Y-125463684D01*
X117549940Y-125494888D01*
X117549940Y-125494888D01*
G37*
G36*
X125063088Y-127075684D02*
X124463088Y-127075684D01*
X124463088Y-126375684D01*
X125063088Y-126375684D01*
X125063088Y-127075684D01*
X125063088Y-127075684D01*
G37*
G36*
X133268088Y-126713164D02*
X132568088Y-126713164D01*
X132568088Y-126113164D01*
X133268088Y-126113164D01*
X133268088Y-126713164D01*
X133268088Y-126713164D01*
G37*
G36*
X134368088Y-126713164D02*
X133668088Y-126713164D01*
X133668088Y-126113164D01*
X134368088Y-126113164D01*
X134368088Y-126713164D01*
X134368088Y-126713164D01*
G37*
G36*
X146148088Y-126519628D02*
X144498088Y-126519628D01*
X144498088Y-125819628D01*
X146148088Y-125819628D01*
X146148088Y-126519628D01*
X146148088Y-126519628D01*
G37*
G36*
X140748088Y-126519628D02*
X139098088Y-126519628D01*
X139098088Y-125819628D01*
X140748088Y-125819628D01*
X140748088Y-126519628D01*
X140748088Y-126519628D01*
G37*
G36*
X129948088Y-126480684D02*
X129348088Y-126480684D01*
X129348088Y-125780684D01*
X129948088Y-125780684D01*
X129948088Y-126480684D01*
X129948088Y-126480684D01*
G37*
G36*
X157394288Y-126462084D02*
X156694288Y-126462084D01*
X156694288Y-125962084D01*
X157394288Y-125962084D01*
X157394288Y-126462084D01*
X157394288Y-126462084D01*
G37*
G36*
X161523088Y-126405684D02*
X160923088Y-126405684D01*
X160923088Y-125705684D01*
X161523088Y-125705684D01*
X161523088Y-126405684D01*
X161523088Y-126405684D01*
G37*
G36*
X158817488Y-126360484D02*
X158217488Y-126360484D01*
X158217488Y-125660484D01*
X158817488Y-125660484D01*
X158817488Y-126360484D01*
X158817488Y-126360484D01*
G37*
G36*
X160073088Y-126355684D02*
X159373088Y-126355684D01*
X159373088Y-125855684D01*
X160073088Y-125855684D01*
X160073088Y-126355684D01*
X160073088Y-126355684D01*
G37*
G36*
X121053088Y-126335684D02*
X120353088Y-126335684D01*
X120353088Y-125735684D01*
X121053088Y-125735684D01*
X121053088Y-126335684D01*
X121053088Y-126335684D01*
G37*
G36*
X122153088Y-126335684D02*
X121453088Y-126335684D01*
X121453088Y-125735684D01*
X122153088Y-125735684D01*
X122153088Y-126335684D01*
X122153088Y-126335684D01*
G37*
G36*
X128423088Y-126280684D02*
X127823088Y-126280684D01*
X127823088Y-125580684D01*
X128423088Y-125580684D01*
X128423088Y-126280684D01*
X128423088Y-126280684D01*
G37*
G36*
X127483008Y-126271764D02*
X126883008Y-126271764D01*
X126883008Y-125571764D01*
X127483008Y-125571764D01*
X127483008Y-126271764D01*
X127483008Y-126271764D01*
G37*
G36*
X166431088Y-126250084D02*
X165931088Y-126250084D01*
X165931088Y-125550084D01*
X166431088Y-125550084D01*
X166431088Y-126250084D01*
X166431088Y-126250084D01*
G37*
G36*
X165531088Y-126250084D02*
X165031088Y-126250084D01*
X165031088Y-125550084D01*
X165531088Y-125550084D01*
X165531088Y-126250084D01*
X165531088Y-126250084D01*
G37*
G36*
X125063088Y-125975684D02*
X124463088Y-125975684D01*
X124463088Y-125275684D01*
X125063088Y-125275684D01*
X125063088Y-125975684D01*
X125063088Y-125975684D01*
G37*
G36*
X133768088Y-125773364D02*
X133068088Y-125773364D01*
X133068088Y-125173364D01*
X133768088Y-125173364D01*
X133768088Y-125773364D01*
X133768088Y-125773364D01*
G37*
G36*
X132668088Y-125773364D02*
X131968088Y-125773364D01*
X131968088Y-125173364D01*
X132668088Y-125173364D01*
X132668088Y-125773364D01*
X132668088Y-125773364D01*
G37*
G36*
X129948088Y-125380684D02*
X129348088Y-125380684D01*
X129348088Y-124680684D01*
X129948088Y-124680684D01*
X129948088Y-125380684D01*
X129948088Y-125380684D01*
G37*
G36*
X160108088Y-125330684D02*
X159408088Y-125330684D01*
X159408088Y-123680684D01*
X160108088Y-123680684D01*
X160108088Y-125330684D01*
X160108088Y-125330684D01*
G37*
G36*
X158838088Y-125330684D02*
X158138088Y-125330684D01*
X158138088Y-123680684D01*
X158838088Y-123680684D01*
X158838088Y-125330684D01*
X158838088Y-125330684D01*
G37*
G36*
X161378088Y-125330684D02*
X160678088Y-125330684D01*
X160678088Y-123680684D01*
X161378088Y-123680684D01*
X161378088Y-125330684D01*
X161378088Y-125330684D01*
G37*
G36*
X157568088Y-125330684D02*
X156868088Y-125330684D01*
X156868088Y-123680684D01*
X157568088Y-123680684D01*
X157568088Y-125330684D01*
X157568088Y-125330684D01*
G37*
G36*
X140748088Y-125249628D02*
X139098088Y-125249628D01*
X139098088Y-124549628D01*
X140748088Y-124549628D01*
X140748088Y-125249628D01*
X140748088Y-125249628D01*
G37*
G36*
X146148088Y-125249628D02*
X144498088Y-125249628D01*
X144498088Y-124549628D01*
X146148088Y-124549628D01*
X146148088Y-125249628D01*
X146148088Y-125249628D01*
G37*
G36*
X122463088Y-125230684D02*
X121563088Y-125230684D01*
X121563088Y-124380684D01*
X122463088Y-124380684D01*
X122463088Y-125230684D01*
X122463088Y-125230684D01*
G37*
G36*
X120963088Y-125230684D02*
X120063088Y-125230684D01*
X120063088Y-124380684D01*
X120963088Y-124380684D01*
X120963088Y-125230684D01*
X120963088Y-125230684D01*
G37*
G36*
X128423088Y-125180684D02*
X127823088Y-125180684D01*
X127823088Y-124480684D01*
X128423088Y-124480684D01*
X128423088Y-125180684D01*
X128423088Y-125180684D01*
G37*
G36*
X127483008Y-125171764D02*
X126883008Y-125171764D01*
X126883008Y-124471764D01*
X127483008Y-124471764D01*
X127483008Y-125171764D01*
X127483008Y-125171764D01*
G37*
G36*
X132168088Y-124808164D02*
X131468088Y-124808164D01*
X131468088Y-124208164D01*
X132168088Y-124208164D01*
X132168088Y-124808164D01*
X132168088Y-124808164D01*
G37*
G36*
X133268088Y-124808164D02*
X132568088Y-124808164D01*
X132568088Y-124208164D01*
X133268088Y-124208164D01*
X133268088Y-124808164D01*
X133268088Y-124808164D01*
G37*
G36*
X167373088Y-124755684D02*
X166373088Y-124755684D01*
X166373088Y-123455684D01*
X167373088Y-123455684D01*
X167373088Y-124755684D01*
X167373088Y-124755684D01*
G37*
G36*
X164073088Y-124755684D02*
X163073088Y-124755684D01*
X163073088Y-123455684D01*
X164073088Y-123455684D01*
X164073088Y-124755684D01*
X164073088Y-124755684D01*
G37*
G36*
X128423088Y-124055684D02*
X127823088Y-124055684D01*
X127823088Y-123355684D01*
X128423088Y-123355684D01*
X128423088Y-124055684D01*
X128423088Y-124055684D01*
G37*
G36*
X140748088Y-123979628D02*
X139098088Y-123979628D01*
X139098088Y-123279628D01*
X140748088Y-123279628D01*
X140748088Y-123979628D01*
X140748088Y-123979628D01*
G37*
G36*
X146148088Y-123979628D02*
X144498088Y-123979628D01*
X144498088Y-123279628D01*
X146148088Y-123279628D01*
X146148088Y-123979628D01*
X146148088Y-123979628D01*
G37*
G36*
X77710200Y-122250417D02*
X77764067Y-122255722D01*
X77840766Y-122278989D01*
X77867746Y-122287173D01*
X77963287Y-122338240D01*
X78010616Y-122377083D01*
X78047038Y-122406974D01*
X78066497Y-122430684D01*
X78084622Y-122452770D01*
X78101949Y-122470097D01*
X78122324Y-122483711D01*
X78144963Y-122493088D01*
X78168997Y-122497868D01*
X78193501Y-122497868D01*
X78217534Y-122493087D01*
X78240173Y-122483710D01*
X78260548Y-122470096D01*
X78277874Y-122452770D01*
X78296000Y-122430684D01*
X78315458Y-122406974D01*
X78351880Y-122377083D01*
X78399209Y-122338240D01*
X78494750Y-122287173D01*
X78521730Y-122278989D01*
X78598429Y-122255722D01*
X78652296Y-122250417D01*
X78679229Y-122247764D01*
X79433267Y-122247764D01*
X79460200Y-122250417D01*
X79514067Y-122255722D01*
X79590766Y-122278989D01*
X79617746Y-122287173D01*
X79713287Y-122338240D01*
X79797038Y-122406974D01*
X79865772Y-122490725D01*
X79916839Y-122586266D01*
X79916840Y-122586270D01*
X79948290Y-122689945D01*
X79948290Y-122689947D01*
X79957412Y-122782559D01*
X79962193Y-122806592D01*
X79971570Y-122829231D01*
X79985184Y-122849606D01*
X80002511Y-122866933D01*
X80022886Y-122880547D01*
X80045525Y-122889924D01*
X80069559Y-122894704D01*
X80094063Y-122894704D01*
X80118094Y-122889924D01*
X80148429Y-122880722D01*
X80229229Y-122872764D01*
X80683267Y-122872764D01*
X80710200Y-122875417D01*
X80764067Y-122880722D01*
X80840766Y-122903989D01*
X80867746Y-122912173D01*
X80963287Y-122963240D01*
X81047038Y-123031974D01*
X81115772Y-123115725D01*
X81166839Y-123211266D01*
X81166840Y-123211270D01*
X81198290Y-123314945D01*
X81208909Y-123422764D01*
X81198290Y-123530583D01*
X81175023Y-123607282D01*
X81166839Y-123634262D01*
X81115772Y-123729803D01*
X81047038Y-123813554D01*
X80963287Y-123882288D01*
X80867746Y-123933355D01*
X80840766Y-123941539D01*
X80764067Y-123964806D01*
X80710200Y-123970111D01*
X80683267Y-123972764D01*
X80229229Y-123972764D01*
X80202296Y-123970111D01*
X80148429Y-123964806D01*
X80071730Y-123941539D01*
X80044750Y-123933355D01*
X79949209Y-123882288D01*
X79865458Y-123813554D01*
X79796724Y-123729803D01*
X79745657Y-123634262D01*
X79737473Y-123607282D01*
X79714206Y-123530583D01*
X79706829Y-123455684D01*
X79705084Y-123437969D01*
X79700303Y-123413936D01*
X79690926Y-123391297D01*
X79677312Y-123370922D01*
X79659985Y-123353595D01*
X79639610Y-123339981D01*
X79616971Y-123330604D01*
X79592937Y-123325824D01*
X79568433Y-123325824D01*
X79544402Y-123330604D01*
X79514067Y-123339806D01*
X79433267Y-123347764D01*
X78679229Y-123347764D01*
X78652296Y-123345111D01*
X78598429Y-123339806D01*
X78516475Y-123314945D01*
X78494750Y-123308355D01*
X78399209Y-123257288D01*
X78315458Y-123188554D01*
X78277874Y-123142758D01*
X78260547Y-123125431D01*
X78240172Y-123111817D01*
X78217533Y-123102440D01*
X78193499Y-123097660D01*
X78168995Y-123097660D01*
X78144962Y-123102441D01*
X78122323Y-123111818D01*
X78101948Y-123125432D01*
X78084622Y-123142758D01*
X78047038Y-123188554D01*
X77963287Y-123257288D01*
X77867746Y-123308355D01*
X77846021Y-123314945D01*
X77764067Y-123339806D01*
X77710200Y-123345111D01*
X77683267Y-123347764D01*
X76929229Y-123347764D01*
X76902296Y-123345111D01*
X76848429Y-123339806D01*
X76766475Y-123314945D01*
X76744750Y-123308355D01*
X76649209Y-123257288D01*
X76565458Y-123188554D01*
X76496724Y-123104803D01*
X76445657Y-123009262D01*
X76431697Y-122963243D01*
X76414206Y-122905583D01*
X76403587Y-122797764D01*
X76414206Y-122689945D01*
X76445656Y-122586270D01*
X76445657Y-122586266D01*
X76496724Y-122490725D01*
X76565458Y-122406974D01*
X76649209Y-122338240D01*
X76744750Y-122287173D01*
X76771730Y-122278989D01*
X76848429Y-122255722D01*
X76902296Y-122250417D01*
X76929229Y-122247764D01*
X77683267Y-122247764D01*
X77710200Y-122250417D01*
X77710200Y-122250417D01*
G37*
G36*
X122463088Y-123870684D02*
X121563088Y-123870684D01*
X121563088Y-123020684D01*
X122463088Y-123020684D01*
X122463088Y-123870684D01*
X122463088Y-123870684D01*
G37*
G36*
X120963088Y-123870684D02*
X120063088Y-123870684D01*
X120063088Y-123020684D01*
X120963088Y-123020684D01*
X120963088Y-123870684D01*
X120963088Y-123870684D01*
G37*
G36*
X131623088Y-123747284D02*
X130923088Y-123747284D01*
X130923088Y-123147284D01*
X131623088Y-123147284D01*
X131623088Y-123747284D01*
X131623088Y-123747284D01*
G37*
G36*
X132723088Y-123747284D02*
X132023088Y-123747284D01*
X132023088Y-123147284D01*
X132723088Y-123147284D01*
X132723088Y-123747284D01*
X132723088Y-123747284D01*
G37*
G36*
X167073088Y-123155684D02*
X165973088Y-123155684D01*
X165973088Y-121455684D01*
X167073088Y-121455684D01*
X167073088Y-123155684D01*
X167073088Y-123155684D01*
G37*
G36*
X164073088Y-123155684D02*
X162973088Y-123155684D01*
X162973088Y-121455684D01*
X164073088Y-121455684D01*
X164073088Y-123155684D01*
X164073088Y-123155684D01*
G37*
G36*
X160773088Y-123055684D02*
X157473088Y-123055684D01*
X157473088Y-120555684D01*
X160773088Y-120555684D01*
X160773088Y-123055684D01*
X160773088Y-123055684D01*
G37*
G36*
X128423088Y-122955684D02*
X127823088Y-122955684D01*
X127823088Y-122255684D01*
X128423088Y-122255684D01*
X128423088Y-122955684D01*
X128423088Y-122955684D01*
G37*
G36*
X140748088Y-122709628D02*
X139098088Y-122709628D01*
X139098088Y-122009628D01*
X140748088Y-122009628D01*
X140748088Y-122709628D01*
X140748088Y-122709628D01*
G37*
G36*
X146148088Y-122709628D02*
X144498088Y-122709628D01*
X144498088Y-122009628D01*
X146148088Y-122009628D01*
X146148088Y-122709628D01*
X146148088Y-122709628D01*
G37*
G36*
X131068088Y-122647284D02*
X130368088Y-122647284D01*
X130368088Y-122047284D01*
X131068088Y-122047284D01*
X131068088Y-122647284D01*
X131068088Y-122647284D01*
G37*
G36*
X132168088Y-122647284D02*
X131468088Y-122647284D01*
X131468088Y-122047284D01*
X132168088Y-122047284D01*
X132168088Y-122647284D01*
X132168088Y-122647284D01*
G37*
G36*
X136306440Y-120986427D02*
X136452029Y-121046732D01*
X136583061Y-121134285D01*
X136694487Y-121245711D01*
X136782040Y-121376743D01*
X136842345Y-121522332D01*
X136873088Y-121676889D01*
X136873088Y-121834479D01*
X136842345Y-121989036D01*
X136782040Y-122134625D01*
X136694487Y-122265657D01*
X136583061Y-122377083D01*
X136452029Y-122464636D01*
X136306440Y-122524941D01*
X136151883Y-122555684D01*
X135994293Y-122555684D01*
X135839736Y-122524941D01*
X135694147Y-122464636D01*
X135563115Y-122377083D01*
X135451689Y-122265657D01*
X135364136Y-122134625D01*
X135303831Y-121989036D01*
X135273088Y-121834479D01*
X135273088Y-121676889D01*
X135303831Y-121522332D01*
X135364136Y-121376743D01*
X135451689Y-121245711D01*
X135563115Y-121134285D01*
X135694147Y-121046732D01*
X135839736Y-120986427D01*
X135994293Y-120955684D01*
X136151883Y-120955684D01*
X136306440Y-120986427D01*
X136306440Y-120986427D01*
G37*
G36*
X125528088Y-122445684D02*
X124678088Y-122445684D01*
X124678088Y-121545684D01*
X125528088Y-121545684D01*
X125528088Y-122445684D01*
X125528088Y-122445684D01*
G37*
G36*
X124153088Y-122430684D02*
X122993088Y-122430684D01*
X122993088Y-119780684D01*
X124153088Y-119780684D01*
X124153088Y-122430684D01*
X124153088Y-122430684D01*
G37*
G36*
X121953088Y-122430684D02*
X120793088Y-122430684D01*
X120793088Y-119780684D01*
X121953088Y-119780684D01*
X121953088Y-122430684D01*
X121953088Y-122430684D01*
G37*
G36*
X140273088Y-121405684D02*
X139573088Y-121405684D01*
X139573088Y-120805684D01*
X140273088Y-120805684D01*
X140273088Y-121405684D01*
X140273088Y-121405684D01*
G37*
G36*
X139173088Y-121405684D02*
X138473088Y-121405684D01*
X138473088Y-120805684D01*
X139173088Y-120805684D01*
X139173088Y-121405684D01*
X139173088Y-121405684D01*
G37*
G36*
X165823088Y-121130684D02*
X164923088Y-121130684D01*
X164923088Y-120280684D01*
X165823088Y-120280684D01*
X165823088Y-121130684D01*
X165823088Y-121130684D01*
G37*
G36*
X164323088Y-121130684D02*
X163423088Y-121130684D01*
X163423088Y-120280684D01*
X164323088Y-120280684D01*
X164323088Y-121130684D01*
X164323088Y-121130684D01*
G37*
G36*
X162723088Y-121005684D02*
X162123088Y-121005684D01*
X162123088Y-120305684D01*
X162723088Y-120305684D01*
X162723088Y-121005684D01*
X162723088Y-121005684D01*
G37*
G36*
X125528088Y-120945684D02*
X124678088Y-120945684D01*
X124678088Y-120045684D01*
X125528088Y-120045684D01*
X125528088Y-120945684D01*
X125528088Y-120945684D01*
G37*
G36*
X161378088Y-119930684D02*
X160678088Y-119930684D01*
X160678088Y-118280684D01*
X161378088Y-118280684D01*
X161378088Y-119930684D01*
X161378088Y-119930684D01*
G37*
G36*
X157568088Y-119930684D02*
X156868088Y-119930684D01*
X156868088Y-118280684D01*
X157568088Y-118280684D01*
X157568088Y-119930684D01*
X157568088Y-119930684D01*
G37*
G36*
X160108088Y-119930684D02*
X159408088Y-119930684D01*
X159408088Y-118280684D01*
X160108088Y-118280684D01*
X160108088Y-119930684D01*
X160108088Y-119930684D01*
G37*
G36*
X158838088Y-119930684D02*
X158138088Y-119930684D01*
X158138088Y-118280684D01*
X158838088Y-118280684D01*
X158838088Y-119930684D01*
X158838088Y-119930684D01*
G37*
G36*
X162723088Y-119905684D02*
X162123088Y-119905684D01*
X162123088Y-119205684D01*
X162723088Y-119205684D01*
X162723088Y-119905684D01*
X162723088Y-119905684D01*
G37*
G36*
X162573088Y-118655684D02*
X162073088Y-118655684D01*
X162073088Y-117955684D01*
X162573088Y-117955684D01*
X162573088Y-118655684D01*
X162573088Y-118655684D01*
G37*
G36*
X163473088Y-118655684D02*
X162973088Y-118655684D01*
X162973088Y-117955684D01*
X163473088Y-117955684D01*
X163473088Y-118655684D01*
X163473088Y-118655684D01*
G37*
G36*
X113359940Y-116874888D02*
X113507713Y-116936098D01*
X113640711Y-117024964D01*
X113753808Y-117138061D01*
X113842674Y-117271059D01*
X113903884Y-117418832D01*
X113935088Y-117575708D01*
X113935088Y-117735660D01*
X113903884Y-117892536D01*
X113842674Y-118040309D01*
X113753808Y-118173307D01*
X113640711Y-118286404D01*
X113507713Y-118375270D01*
X113359940Y-118436480D01*
X113203064Y-118467684D01*
X113043112Y-118467684D01*
X112886236Y-118436480D01*
X112738463Y-118375270D01*
X112605465Y-118286404D01*
X112492368Y-118173307D01*
X112403502Y-118040309D01*
X112342292Y-117892536D01*
X112311088Y-117735660D01*
X112311088Y-117575708D01*
X112342292Y-117418832D01*
X112403502Y-117271059D01*
X112492368Y-117138061D01*
X112605465Y-117024964D01*
X112738463Y-116936098D01*
X112886236Y-116874888D01*
X113043112Y-116843684D01*
X113203064Y-116843684D01*
X113359940Y-116874888D01*
X113359940Y-116874888D01*
G37*
G36*
X138456440Y-116636427D02*
X138602029Y-116696732D01*
X138733061Y-116784285D01*
X138844487Y-116895711D01*
X138932040Y-117026743D01*
X138992345Y-117172332D01*
X139023088Y-117326889D01*
X139023088Y-117484479D01*
X138992345Y-117639036D01*
X138932040Y-117784625D01*
X138844487Y-117915657D01*
X138733061Y-118027083D01*
X138602029Y-118114636D01*
X138456440Y-118174941D01*
X138301883Y-118205684D01*
X138144293Y-118205684D01*
X137989736Y-118174941D01*
X137844147Y-118114636D01*
X137713115Y-118027083D01*
X137601689Y-117915657D01*
X137514136Y-117784625D01*
X137453831Y-117639036D01*
X137423088Y-117484479D01*
X137423088Y-117326889D01*
X137453831Y-117172332D01*
X137514136Y-117026743D01*
X137601689Y-116895711D01*
X137713115Y-116784285D01*
X137844147Y-116696732D01*
X137989736Y-116636427D01*
X138144293Y-116605684D01*
X138301883Y-116605684D01*
X138456440Y-116636427D01*
X138456440Y-116636427D01*
G37*
G36*
X136456440Y-116636427D02*
X136602029Y-116696732D01*
X136733061Y-116784285D01*
X136844487Y-116895711D01*
X136932040Y-117026743D01*
X136992345Y-117172332D01*
X137023088Y-117326889D01*
X137023088Y-117484479D01*
X136992345Y-117639036D01*
X136932040Y-117784625D01*
X136844487Y-117915657D01*
X136733061Y-118027083D01*
X136602029Y-118114636D01*
X136456440Y-118174941D01*
X136301883Y-118205684D01*
X136144293Y-118205684D01*
X135989736Y-118174941D01*
X135844147Y-118114636D01*
X135713115Y-118027083D01*
X135601689Y-117915657D01*
X135514136Y-117784625D01*
X135453831Y-117639036D01*
X135423088Y-117484479D01*
X135423088Y-117326889D01*
X135453831Y-117172332D01*
X135514136Y-117026743D01*
X135601689Y-116895711D01*
X135713115Y-116784285D01*
X135844147Y-116696732D01*
X135989736Y-116636427D01*
X136144293Y-116605684D01*
X136301883Y-116605684D01*
X136456440Y-116636427D01*
X136456440Y-116636427D01*
G37*
G36*
X132156440Y-116336427D02*
X132302029Y-116396732D01*
X132433061Y-116484285D01*
X132544487Y-116595711D01*
X132632040Y-116726743D01*
X132692345Y-116872332D01*
X132723088Y-117026889D01*
X132723088Y-117184479D01*
X132692345Y-117339036D01*
X132632040Y-117484625D01*
X132544487Y-117615657D01*
X132433061Y-117727083D01*
X132302029Y-117814636D01*
X132156440Y-117874941D01*
X132001883Y-117905684D01*
X131844293Y-117905684D01*
X131689736Y-117874941D01*
X131544147Y-117814636D01*
X131413115Y-117727083D01*
X131301689Y-117615657D01*
X131214136Y-117484625D01*
X131153831Y-117339036D01*
X131123088Y-117184479D01*
X131123088Y-117026889D01*
X131153831Y-116872332D01*
X131214136Y-116726743D01*
X131301689Y-116595711D01*
X131413115Y-116484285D01*
X131544147Y-116396732D01*
X131689736Y-116336427D01*
X131844293Y-116305684D01*
X132001883Y-116305684D01*
X132156440Y-116336427D01*
X132156440Y-116336427D01*
G37*
G36*
X124456440Y-115536427D02*
X124602029Y-115596732D01*
X124733061Y-115684285D01*
X124844487Y-115795711D01*
X124932040Y-115926743D01*
X124992345Y-116072332D01*
X125023088Y-116226889D01*
X125023088Y-116384479D01*
X124992345Y-116539036D01*
X124932040Y-116684625D01*
X124844487Y-116815657D01*
X124733061Y-116927083D01*
X124602029Y-117014636D01*
X124456440Y-117074941D01*
X124301883Y-117105684D01*
X124144293Y-117105684D01*
X123989736Y-117074941D01*
X123844147Y-117014636D01*
X123713115Y-116927083D01*
X123601689Y-116815657D01*
X123514136Y-116684625D01*
X123453831Y-116539036D01*
X123423088Y-116384479D01*
X123423088Y-116226889D01*
X123453831Y-116072332D01*
X123514136Y-115926743D01*
X123601689Y-115795711D01*
X123713115Y-115684285D01*
X123844147Y-115596732D01*
X123989736Y-115536427D01*
X124144293Y-115505684D01*
X124301883Y-115505684D01*
X124456440Y-115536427D01*
X124456440Y-115536427D01*
G37*
G36*
X131866440Y-114416427D02*
X132012029Y-114476732D01*
X132143061Y-114564285D01*
X132254487Y-114675711D01*
X132342040Y-114806743D01*
X132402345Y-114952332D01*
X132433088Y-115106889D01*
X132433088Y-115264479D01*
X132402345Y-115419036D01*
X132342040Y-115564625D01*
X132254487Y-115695657D01*
X132143061Y-115807083D01*
X132012029Y-115894636D01*
X131866440Y-115954941D01*
X131711883Y-115985684D01*
X131554293Y-115985684D01*
X131399736Y-115954941D01*
X131254147Y-115894636D01*
X131123115Y-115807083D01*
X131011689Y-115695657D01*
X130924136Y-115564625D01*
X130863831Y-115419036D01*
X130833088Y-115264479D01*
X130833088Y-115106889D01*
X130863831Y-114952332D01*
X130924136Y-114806743D01*
X131011689Y-114675711D01*
X131123115Y-114564285D01*
X131254147Y-114476732D01*
X131399736Y-114416427D01*
X131554293Y-114385684D01*
X131711883Y-114385684D01*
X131866440Y-114416427D01*
X131866440Y-114416427D01*
G37*
G36*
X112223088Y-115045684D02*
X111623088Y-115045684D01*
X111623088Y-114345684D01*
X112223088Y-114345684D01*
X112223088Y-115045684D01*
X112223088Y-115045684D01*
G37*
G36*
X134068088Y-113697284D02*
X134070490Y-113721670D01*
X134077603Y-113745119D01*
X134089154Y-113766730D01*
X134104700Y-113785672D01*
X134123642Y-113801218D01*
X134145253Y-113812769D01*
X134168702Y-113819882D01*
X134193088Y-113822284D01*
X136193088Y-113822284D01*
X136193088Y-114772284D01*
X134193088Y-114772284D01*
X134193088Y-114472284D01*
X134190686Y-114447898D01*
X134183573Y-114424449D01*
X134172022Y-114402838D01*
X134156476Y-114383896D01*
X134137534Y-114368350D01*
X134115923Y-114356799D01*
X134092474Y-114349686D01*
X134068088Y-114347284D01*
X133468088Y-114347284D01*
X133468088Y-113647284D01*
X134068088Y-113647284D01*
X134068088Y-113697284D01*
X134068088Y-113697284D01*
G37*
G36*
X114363088Y-114755684D02*
X113663088Y-114755684D01*
X113663088Y-114255684D01*
X114363088Y-114255684D01*
X114363088Y-114755684D01*
X114363088Y-114755684D01*
G37*
G36*
X116250248Y-114351484D02*
X115350248Y-114351484D01*
X115350248Y-113351484D01*
X116250248Y-113351484D01*
X116250248Y-114351484D01*
X116250248Y-114351484D01*
G37*
G36*
X118150248Y-114351484D02*
X117250248Y-114351484D01*
X117250248Y-113351484D01*
X118150248Y-113351484D01*
X118150248Y-114351484D01*
X118150248Y-114351484D01*
G37*
G36*
X112168088Y-110685684D02*
X112170490Y-110710070D01*
X112177603Y-110733519D01*
X112189154Y-110755130D01*
X112204700Y-110774072D01*
X112223642Y-110789618D01*
X112245253Y-110801169D01*
X112268702Y-110808282D01*
X112293088Y-110810684D01*
X112958088Y-110810684D01*
X112958088Y-112760684D01*
X112293088Y-112760684D01*
X112268702Y-112763086D01*
X112245253Y-112770199D01*
X112223642Y-112781750D01*
X112204700Y-112797296D01*
X112189154Y-112816238D01*
X112177603Y-112837849D01*
X112170490Y-112861298D01*
X112168088Y-112885684D01*
X112168088Y-113120684D01*
X112170490Y-113145070D01*
X112177603Y-113168519D01*
X112189154Y-113190130D01*
X112204700Y-113209072D01*
X112223088Y-113224163D01*
X112223088Y-113945684D01*
X111623088Y-113945684D01*
X111623088Y-113175684D01*
X111620686Y-113151298D01*
X111613573Y-113127849D01*
X111602022Y-113106238D01*
X111586476Y-113087296D01*
X111567534Y-113071750D01*
X111545923Y-113060199D01*
X111522474Y-113053086D01*
X111498088Y-113050684D01*
X110718088Y-113050684D01*
X110718088Y-112885684D01*
X110715686Y-112861298D01*
X110708573Y-112837849D01*
X110697022Y-112816238D01*
X110681476Y-112797296D01*
X110662534Y-112781750D01*
X110640923Y-112770199D01*
X110617474Y-112763086D01*
X110593088Y-112760684D01*
X109928088Y-112760684D01*
X109928088Y-111325684D01*
X110608088Y-111325684D01*
X110608088Y-112245684D01*
X110610490Y-112270070D01*
X110617603Y-112293519D01*
X110629154Y-112315130D01*
X110644700Y-112334072D01*
X110663642Y-112349618D01*
X110685253Y-112361169D01*
X110708702Y-112368282D01*
X110733088Y-112370684D01*
X112153088Y-112370684D01*
X112177474Y-112368282D01*
X112200923Y-112361169D01*
X112222534Y-112349618D01*
X112241476Y-112334072D01*
X112257022Y-112315130D01*
X112268573Y-112293519D01*
X112275686Y-112270070D01*
X112278088Y-112245684D01*
X112278088Y-111325684D01*
X112275686Y-111301298D01*
X112268573Y-111277849D01*
X112257022Y-111256238D01*
X112241476Y-111237296D01*
X112222534Y-111221750D01*
X112200923Y-111210199D01*
X112177474Y-111203086D01*
X112153088Y-111200684D01*
X110733088Y-111200684D01*
X110708702Y-111203086D01*
X110685253Y-111210199D01*
X110663642Y-111221750D01*
X110644700Y-111237296D01*
X110629154Y-111256238D01*
X110617603Y-111277849D01*
X110610490Y-111301298D01*
X110608088Y-111325684D01*
X109928088Y-111325684D01*
X109928088Y-110810684D01*
X110593088Y-110810684D01*
X110617474Y-110808282D01*
X110640923Y-110801169D01*
X110662534Y-110789618D01*
X110681476Y-110774072D01*
X110697022Y-110755130D01*
X110708573Y-110733519D01*
X110715686Y-110710070D01*
X110718088Y-110685684D01*
X110718088Y-110520684D01*
X112168088Y-110520684D01*
X112168088Y-110685684D01*
X112168088Y-110685684D01*
G37*
G36*
X114363088Y-113855684D02*
X113663088Y-113855684D01*
X113663088Y-113355684D01*
X114363088Y-113355684D01*
X114363088Y-113855684D01*
X114363088Y-113855684D01*
G37*
G36*
X89254940Y-112216488D02*
X89402713Y-112277698D01*
X89535711Y-112366564D01*
X89648808Y-112479661D01*
X89737674Y-112612659D01*
X89798884Y-112760432D01*
X89830088Y-112917308D01*
X89830088Y-113077260D01*
X89798884Y-113234136D01*
X89737674Y-113381909D01*
X89648808Y-113514907D01*
X89535711Y-113628004D01*
X89402713Y-113716870D01*
X89254940Y-113778080D01*
X89098064Y-113809284D01*
X88938112Y-113809284D01*
X88781236Y-113778080D01*
X88633463Y-113716870D01*
X88500465Y-113628004D01*
X88387368Y-113514907D01*
X88298502Y-113381909D01*
X88237292Y-113234136D01*
X88206088Y-113077260D01*
X88206088Y-112917308D01*
X88237292Y-112760432D01*
X88298502Y-112612659D01*
X88387368Y-112479661D01*
X88500465Y-112366564D01*
X88633463Y-112277698D01*
X88781236Y-112216488D01*
X88938112Y-112185284D01*
X89098064Y-112185284D01*
X89254940Y-112216488D01*
X89254940Y-112216488D01*
G37*
G36*
X140106440Y-112236427D02*
X140252029Y-112296732D01*
X140383061Y-112384285D01*
X140494487Y-112495711D01*
X140582040Y-112626743D01*
X140642345Y-112772332D01*
X140673088Y-112926889D01*
X140673088Y-113084479D01*
X140642345Y-113239036D01*
X140582040Y-113384625D01*
X140494487Y-113515657D01*
X140383061Y-113627083D01*
X140252029Y-113714636D01*
X140106440Y-113774941D01*
X139951883Y-113805684D01*
X139794293Y-113805684D01*
X139639736Y-113774941D01*
X139494147Y-113714636D01*
X139363115Y-113627083D01*
X139251689Y-113515657D01*
X139164136Y-113384625D01*
X139103831Y-113239036D01*
X139073088Y-113084479D01*
X139073088Y-112926889D01*
X139103831Y-112772332D01*
X139164136Y-112626743D01*
X139251689Y-112495711D01*
X139363115Y-112384285D01*
X139494147Y-112296732D01*
X139639736Y-112236427D01*
X139794293Y-112205684D01*
X139951883Y-112205684D01*
X140106440Y-112236427D01*
X140106440Y-112236427D01*
G37*
G36*
X136193088Y-113322284D02*
X134182416Y-113322284D01*
X134172022Y-113302838D01*
X134156476Y-113283896D01*
X134137534Y-113268350D01*
X134115923Y-113256799D01*
X134092474Y-113249686D01*
X134068088Y-113247284D01*
X133468088Y-113247284D01*
X133468088Y-112547284D01*
X134068088Y-112547284D01*
X134092474Y-112544882D01*
X134115923Y-112537769D01*
X134137534Y-112526218D01*
X134156476Y-112510672D01*
X134172022Y-112491730D01*
X134183573Y-112470119D01*
X134190686Y-112446670D01*
X134193088Y-112422284D01*
X134193088Y-112372284D01*
X136193088Y-112372284D01*
X136193088Y-113322284D01*
X136193088Y-113322284D01*
G37*
G36*
X108453088Y-112885684D02*
X107753088Y-112885684D01*
X107753088Y-112285684D01*
X108453088Y-112285684D01*
X108453088Y-112885684D01*
X108453088Y-112885684D01*
G37*
G36*
X109553088Y-112885684D02*
X108853088Y-112885684D01*
X108853088Y-112285684D01*
X109553088Y-112285684D01*
X109553088Y-112885684D01*
X109553088Y-112885684D01*
G37*
G36*
X117200248Y-112351484D02*
X116300248Y-112351484D01*
X116300248Y-111351484D01*
X117200248Y-111351484D01*
X117200248Y-112351484D01*
X117200248Y-112351484D01*
G37*
G36*
X108159940Y-109904888D02*
X108307713Y-109966098D01*
X108440711Y-110054964D01*
X108553808Y-110168061D01*
X108642674Y-110301059D01*
X108703884Y-110448832D01*
X108735088Y-110605708D01*
X108735088Y-110765660D01*
X108703884Y-110922536D01*
X108642674Y-111070309D01*
X108553808Y-111203307D01*
X108440711Y-111316404D01*
X108307713Y-111405270D01*
X108159940Y-111466480D01*
X108003064Y-111497684D01*
X107843112Y-111497684D01*
X107686236Y-111466480D01*
X107538463Y-111405270D01*
X107405465Y-111316404D01*
X107292368Y-111203307D01*
X107203502Y-111070309D01*
X107142292Y-110922536D01*
X107111088Y-110765660D01*
X107111088Y-110605708D01*
X107142292Y-110448832D01*
X107203502Y-110301059D01*
X107292368Y-110168061D01*
X107405465Y-110054964D01*
X107538463Y-109966098D01*
X107686236Y-109904888D01*
X107843112Y-109873684D01*
X108003064Y-109873684D01*
X108159940Y-109904888D01*
X108159940Y-109904888D01*
G37*
G36*
X136666258Y-111176286D02*
X128816258Y-111176286D01*
X128816258Y-110076286D01*
X136666258Y-110076286D01*
X136666258Y-111176286D01*
X136666258Y-111176286D01*
G37*
G36*
X117256440Y-108936427D02*
X117402029Y-108996732D01*
X117533061Y-109084285D01*
X117644487Y-109195711D01*
X117732040Y-109326743D01*
X117792345Y-109472332D01*
X117823088Y-109626889D01*
X117823088Y-109784479D01*
X117792345Y-109939036D01*
X117732040Y-110084625D01*
X117644487Y-110215657D01*
X117533061Y-110327083D01*
X117402029Y-110414636D01*
X117256440Y-110474941D01*
X117101883Y-110505684D01*
X116944293Y-110505684D01*
X116789736Y-110474941D01*
X116644147Y-110414636D01*
X116513115Y-110327083D01*
X116401689Y-110215657D01*
X116314136Y-110084625D01*
X116253831Y-109939036D01*
X116223088Y-109784479D01*
X116223088Y-109626889D01*
X116253831Y-109472332D01*
X116314136Y-109326743D01*
X116401689Y-109195711D01*
X116513115Y-109084285D01*
X116644147Y-108996732D01*
X116789736Y-108936427D01*
X116944293Y-108905684D01*
X117101883Y-108905684D01*
X117256440Y-108936427D01*
X117256440Y-108936427D01*
G37*
G36*
X124932603Y-108728519D02*
X124944154Y-108750130D01*
X124959700Y-108769072D01*
X124978642Y-108784618D01*
X125000253Y-108796169D01*
X125023702Y-108803282D01*
X125048088Y-108805684D01*
X125948088Y-108805684D01*
X125948088Y-109705684D01*
X125098088Y-109705684D01*
X125098088Y-109530684D01*
X125095686Y-109506298D01*
X125088573Y-109482849D01*
X125077022Y-109461238D01*
X125061476Y-109442296D01*
X125042534Y-109426750D01*
X125020923Y-109415199D01*
X124997474Y-109408086D01*
X124973088Y-109405684D01*
X124323088Y-109405684D01*
X124323088Y-108705684D01*
X124925676Y-108705684D01*
X124932603Y-108728519D01*
X124932603Y-108728519D01*
G37*
G36*
X160339940Y-107934888D02*
X160487713Y-107996098D01*
X160620711Y-108084964D01*
X160733808Y-108198061D01*
X160822674Y-108331059D01*
X160883884Y-108478832D01*
X160915088Y-108635708D01*
X160915088Y-108795660D01*
X160883884Y-108952536D01*
X160822674Y-109100309D01*
X160733808Y-109233307D01*
X160620711Y-109346404D01*
X160487713Y-109435270D01*
X160339940Y-109496480D01*
X160183064Y-109527684D01*
X160023112Y-109527684D01*
X159866236Y-109496480D01*
X159718463Y-109435270D01*
X159585465Y-109346404D01*
X159472368Y-109233307D01*
X159383502Y-109100309D01*
X159322292Y-108952536D01*
X159291088Y-108795660D01*
X159291088Y-108635708D01*
X159322292Y-108478832D01*
X159383502Y-108331059D01*
X159472368Y-108198061D01*
X159585465Y-108084964D01*
X159718463Y-107996098D01*
X159866236Y-107934888D01*
X160023112Y-107903684D01*
X160183064Y-107903684D01*
X160339940Y-107934888D01*
X160339940Y-107934888D01*
G37*
G36*
X144956440Y-107936427D02*
X145102029Y-107996732D01*
X145233061Y-108084285D01*
X145344487Y-108195711D01*
X145432040Y-108326743D01*
X145492345Y-108472332D01*
X145523088Y-108626889D01*
X145523088Y-108784479D01*
X145492345Y-108939036D01*
X145432040Y-109084625D01*
X145344487Y-109215657D01*
X145233061Y-109327083D01*
X145102029Y-109414636D01*
X144956440Y-109474941D01*
X144801883Y-109505684D01*
X144644293Y-109505684D01*
X144489736Y-109474941D01*
X144344147Y-109414636D01*
X144213115Y-109327083D01*
X144101689Y-109215657D01*
X144014136Y-109084625D01*
X143953831Y-108939036D01*
X143923088Y-108784479D01*
X143923088Y-108626889D01*
X143953831Y-108472332D01*
X144014136Y-108326743D01*
X144101689Y-108195711D01*
X144213115Y-108084285D01*
X144344147Y-107996732D01*
X144489736Y-107936427D01*
X144644293Y-107905684D01*
X144801883Y-107905684D01*
X144956440Y-107936427D01*
X144956440Y-107936427D01*
G37*
G36*
X108659940Y-107824888D02*
X108807713Y-107886098D01*
X108940711Y-107974964D01*
X109053808Y-108088061D01*
X109142674Y-108221059D01*
X109203884Y-108368832D01*
X109235088Y-108525708D01*
X109235088Y-108685660D01*
X109203884Y-108842536D01*
X109142674Y-108990309D01*
X109053808Y-109123307D01*
X108940711Y-109236404D01*
X108807713Y-109325270D01*
X108659940Y-109386480D01*
X108503064Y-109417684D01*
X108343112Y-109417684D01*
X108186236Y-109386480D01*
X108038463Y-109325270D01*
X107905465Y-109236404D01*
X107792368Y-109123307D01*
X107703502Y-108990309D01*
X107642292Y-108842536D01*
X107611088Y-108685660D01*
X107611088Y-108525708D01*
X107642292Y-108368832D01*
X107703502Y-108221059D01*
X107792368Y-108088061D01*
X107905465Y-107974964D01*
X108038463Y-107886098D01*
X108186236Y-107824888D01*
X108343112Y-107793684D01*
X108503064Y-107793684D01*
X108659940Y-107824888D01*
X108659940Y-107824888D01*
G37*
G36*
X123773088Y-109305684D02*
X121073088Y-109305684D01*
X121073088Y-107705684D01*
X123773088Y-107705684D01*
X123773088Y-109305684D01*
X123773088Y-109305684D01*
G37*
G36*
X138841258Y-109001286D02*
X137741258Y-109001286D01*
X137741258Y-101151286D01*
X138841258Y-101151286D01*
X138841258Y-109001286D01*
X138841258Y-109001286D01*
G37*
G36*
X127741258Y-109001286D02*
X126641258Y-109001286D01*
X126641258Y-101151286D01*
X127741258Y-101151286D01*
X127741258Y-109001286D01*
X127741258Y-109001286D01*
G37*
G36*
X142060337Y-107700605D02*
X141875177Y-107700605D01*
X141850791Y-107703007D01*
X141827342Y-107710120D01*
X141805731Y-107721671D01*
X141786789Y-107737217D01*
X141771243Y-107756159D01*
X141759692Y-107777770D01*
X141752579Y-107801219D01*
X141750177Y-107825605D01*
X141750177Y-108347765D01*
X141050177Y-108347765D01*
X141050177Y-107746303D01*
X141059723Y-107745363D01*
X141083172Y-107738250D01*
X141104783Y-107726699D01*
X141123725Y-107711153D01*
X141139271Y-107692211D01*
X141150822Y-107670600D01*
X141157935Y-107647151D01*
X141160337Y-107622765D01*
X141160337Y-106850605D01*
X142060337Y-106850605D01*
X142060337Y-107700605D01*
X142060337Y-107700605D01*
G37*
G36*
X140560337Y-107622765D02*
X140562739Y-107647151D01*
X140569852Y-107670600D01*
X140581403Y-107692211D01*
X140596949Y-107711153D01*
X140615891Y-107726699D01*
X140637502Y-107738250D01*
X140650177Y-107742095D01*
X140650177Y-108347765D01*
X139950177Y-108347765D01*
X139950177Y-107825605D01*
X139947775Y-107801219D01*
X139940662Y-107777770D01*
X139929111Y-107756159D01*
X139913565Y-107737217D01*
X139894623Y-107721671D01*
X139873012Y-107710120D01*
X139849563Y-107703007D01*
X139825177Y-107700605D01*
X139660337Y-107700605D01*
X139660337Y-106850605D01*
X140560337Y-106850605D01*
X140560337Y-107622765D01*
X140560337Y-107622765D01*
G37*
G36*
X125948088Y-108205684D02*
X125048088Y-108205684D01*
X125023702Y-108208086D01*
X125000253Y-108215199D01*
X124978642Y-108226750D01*
X124959700Y-108242296D01*
X124944154Y-108261238D01*
X124932603Y-108282849D01*
X124925676Y-108305684D01*
X124323088Y-108305684D01*
X124323088Y-107605684D01*
X124973088Y-107605684D01*
X124997474Y-107603282D01*
X125020923Y-107596169D01*
X125042534Y-107584618D01*
X125061476Y-107569072D01*
X125077022Y-107550130D01*
X125088573Y-107528519D01*
X125095686Y-107505070D01*
X125098088Y-107480684D01*
X125098088Y-107305684D01*
X125948088Y-107305684D01*
X125948088Y-108205684D01*
X125948088Y-108205684D01*
G37*
G36*
X120623088Y-107705684D02*
X119923088Y-107705684D01*
X119923088Y-107105684D01*
X120623088Y-107105684D01*
X120623088Y-107705684D01*
X120623088Y-107705684D01*
G37*
G36*
X119523088Y-107705684D02*
X118823088Y-107705684D01*
X118823088Y-107105684D01*
X119523088Y-107105684D01*
X119523088Y-107705684D01*
X119523088Y-107705684D01*
G37*
G36*
X135241258Y-107576286D02*
X130241258Y-107576286D01*
X130241258Y-102576286D01*
X135241258Y-102576286D01*
X135241258Y-107576286D01*
X135241258Y-107576286D01*
G37*
G36*
X110059940Y-105824888D02*
X110207713Y-105886098D01*
X110340711Y-105974964D01*
X110453808Y-106088061D01*
X110542674Y-106221059D01*
X110603884Y-106368832D01*
X110635088Y-106525708D01*
X110635088Y-106685660D01*
X110603884Y-106842536D01*
X110542674Y-106990309D01*
X110453808Y-107123307D01*
X110340711Y-107236404D01*
X110207713Y-107325270D01*
X110059940Y-107386480D01*
X109903064Y-107417684D01*
X109743112Y-107417684D01*
X109586236Y-107386480D01*
X109438463Y-107325270D01*
X109305465Y-107236404D01*
X109192368Y-107123307D01*
X109103502Y-106990309D01*
X109042292Y-106842536D01*
X109011088Y-106685660D01*
X109011088Y-106525708D01*
X109042292Y-106368832D01*
X109103502Y-106221059D01*
X109192368Y-106088061D01*
X109305465Y-105974964D01*
X109438463Y-105886098D01*
X109586236Y-105824888D01*
X109743112Y-105793684D01*
X109903064Y-105793684D01*
X110059940Y-105824888D01*
X110059940Y-105824888D01*
G37*
G36*
X123773088Y-106905684D02*
X121073088Y-106905684D01*
X121073088Y-105305684D01*
X123773088Y-105305684D01*
X123773088Y-106905684D01*
X123773088Y-106905684D01*
G37*
G36*
X112659940Y-105224888D02*
X112807713Y-105286098D01*
X112940711Y-105374964D01*
X113053808Y-105488061D01*
X113142674Y-105621059D01*
X113203884Y-105768832D01*
X113235088Y-105925708D01*
X113235088Y-106085660D01*
X113203884Y-106242536D01*
X113142674Y-106390309D01*
X113053808Y-106523307D01*
X112940711Y-106636404D01*
X112807713Y-106725270D01*
X112659940Y-106786480D01*
X112503064Y-106817684D01*
X112343112Y-106817684D01*
X112186236Y-106786480D01*
X112038463Y-106725270D01*
X111905465Y-106636404D01*
X111792368Y-106523307D01*
X111703502Y-106390309D01*
X111642292Y-106242536D01*
X111611088Y-106085660D01*
X111611088Y-105925708D01*
X111642292Y-105768832D01*
X111703502Y-105621059D01*
X111792368Y-105488061D01*
X111905465Y-105374964D01*
X112038463Y-105286098D01*
X112186236Y-105224888D01*
X112343112Y-105193684D01*
X112503064Y-105193684D01*
X112659940Y-105224888D01*
X112659940Y-105224888D01*
G37*
G36*
X120623088Y-106105684D02*
X119923088Y-106105684D01*
X119923088Y-105505684D01*
X120623088Y-105505684D01*
X120623088Y-106105684D01*
X120623088Y-106105684D01*
G37*
G36*
X119523088Y-106105684D02*
X118823088Y-106105684D01*
X118823088Y-105505684D01*
X119523088Y-105505684D01*
X119523088Y-106105684D01*
X119523088Y-106105684D01*
G37*
G36*
X124873088Y-106055684D02*
X124373088Y-106055684D01*
X124373088Y-105355684D01*
X124873088Y-105355684D01*
X124873088Y-106055684D01*
X124873088Y-106055684D01*
G37*
G36*
X125773088Y-106055684D02*
X125273088Y-106055684D01*
X125273088Y-105355684D01*
X125773088Y-105355684D01*
X125773088Y-106055684D01*
X125773088Y-106055684D01*
G37*
G36*
X158969314Y-99829133D02*
X159512652Y-99937209D01*
X160067717Y-100167125D01*
X160567262Y-100500910D01*
X160992090Y-100925738D01*
X161325875Y-101425283D01*
X161555791Y-101980348D01*
X161673000Y-102569601D01*
X161673000Y-103170399D01*
X161555791Y-103759652D01*
X161325875Y-104314717D01*
X160992090Y-104814262D01*
X160567262Y-105239090D01*
X160067717Y-105572875D01*
X159512652Y-105802791D01*
X159007251Y-105903321D01*
X158923400Y-105920000D01*
X158322600Y-105920000D01*
X158238749Y-105903321D01*
X157733348Y-105802791D01*
X157178283Y-105572875D01*
X156678738Y-105239090D01*
X156253910Y-104814262D01*
X155920125Y-104314717D01*
X155690209Y-103759652D01*
X155573000Y-103170399D01*
X155573000Y-102569601D01*
X155690209Y-101980348D01*
X155920125Y-101425283D01*
X156253910Y-100925738D01*
X156678738Y-100500910D01*
X157178283Y-100167125D01*
X157733348Y-99937209D01*
X158276686Y-99829133D01*
X158322600Y-99820000D01*
X158923400Y-99820000D01*
X158969314Y-99829133D01*
X158969314Y-99829133D01*
G37*
G36*
X145300059Y-105093551D02*
X145300059Y-105093552D01*
X144753689Y-105744689D01*
X144064249Y-105166181D01*
X144064249Y-105166180D01*
X144610619Y-104515043D01*
X145300059Y-105093551D01*
X145300059Y-105093551D01*
G37*
G36*
X140655257Y-103669085D02*
X140654857Y-103669085D01*
X140630471Y-103671487D01*
X140607022Y-103678600D01*
X140585411Y-103690151D01*
X140566469Y-103705697D01*
X140550923Y-103724639D01*
X140539372Y-103746250D01*
X140532259Y-103769699D01*
X140529857Y-103794085D01*
X140529857Y-104757645D01*
X140532259Y-104782031D01*
X140539372Y-104805480D01*
X140550923Y-104827091D01*
X140566469Y-104846033D01*
X140585411Y-104861579D01*
X140607022Y-104873130D01*
X140630471Y-104880243D01*
X140634937Y-104880683D01*
X140634937Y-105482645D01*
X139934937Y-105482645D01*
X139934937Y-104858885D01*
X139932535Y-104834499D01*
X139925422Y-104811050D01*
X139913871Y-104789439D01*
X139898325Y-104770497D01*
X139879383Y-104754951D01*
X139857772Y-104743400D01*
X139834323Y-104736287D01*
X139809937Y-104733885D01*
X139629857Y-104733885D01*
X139629857Y-103883885D01*
X139830257Y-103883885D01*
X139854643Y-103881483D01*
X139878092Y-103874370D01*
X139899703Y-103862819D01*
X139918645Y-103847273D01*
X139934191Y-103828331D01*
X139945742Y-103806720D01*
X139952855Y-103783271D01*
X139955257Y-103758885D01*
X139955257Y-103069085D01*
X140655257Y-103069085D01*
X140655257Y-103669085D01*
X140655257Y-103669085D01*
G37*
G36*
X141755257Y-103758885D02*
X141757659Y-103783271D01*
X141764772Y-103806720D01*
X141776323Y-103828331D01*
X141791869Y-103847273D01*
X141810811Y-103862819D01*
X141832422Y-103874370D01*
X141855871Y-103881483D01*
X141880257Y-103883885D01*
X142029857Y-103883885D01*
X142029857Y-104733885D01*
X141859937Y-104733885D01*
X141835551Y-104736287D01*
X141812102Y-104743400D01*
X141790491Y-104754951D01*
X141771549Y-104770497D01*
X141756003Y-104789439D01*
X141744452Y-104811050D01*
X141737339Y-104834499D01*
X141734937Y-104858885D01*
X141734937Y-105482645D01*
X141034937Y-105482645D01*
X141034937Y-104878516D01*
X141052692Y-104873130D01*
X141074303Y-104861579D01*
X141093245Y-104846033D01*
X141108791Y-104827091D01*
X141120342Y-104805480D01*
X141127455Y-104782031D01*
X141129857Y-104757645D01*
X141129857Y-103794085D01*
X141127455Y-103769699D01*
X141120342Y-103746250D01*
X141108791Y-103724639D01*
X141093245Y-103705697D01*
X141074303Y-103690151D01*
X141055257Y-103679971D01*
X141055257Y-103069085D01*
X141755257Y-103069085D01*
X141755257Y-103758885D01*
X141755257Y-103758885D01*
G37*
G36*
X125973088Y-105005684D02*
X125273088Y-105005684D01*
X125273088Y-104405684D01*
X125973088Y-104405684D01*
X125973088Y-105005684D01*
X125973088Y-105005684D01*
G37*
G36*
X124573088Y-104280684D02*
X124575490Y-104305070D01*
X124582603Y-104328519D01*
X124594154Y-104350130D01*
X124609700Y-104369072D01*
X124628642Y-104384618D01*
X124650253Y-104396169D01*
X124673702Y-104403282D01*
X124698088Y-104405684D01*
X124873088Y-104405684D01*
X124873088Y-105005684D01*
X124173088Y-105005684D01*
X124173088Y-104355684D01*
X124170686Y-104331298D01*
X124163573Y-104307849D01*
X124152022Y-104286238D01*
X124136476Y-104267296D01*
X124117534Y-104251750D01*
X124095923Y-104240199D01*
X124072474Y-104233086D01*
X124048088Y-104230684D01*
X123673088Y-104230684D01*
X123673088Y-103380684D01*
X124573088Y-103380684D01*
X124573088Y-104280684D01*
X124573088Y-104280684D01*
G37*
G36*
X147462443Y-102860526D02*
X147135293Y-103286875D01*
X147018494Y-103439091D01*
X146960214Y-103515042D01*
X146960206Y-103515054D01*
X146472008Y-104151286D01*
X146427548Y-104209227D01*
X146351453Y-104308396D01*
X145849224Y-104962912D01*
X144928934Y-104256749D01*
X145461601Y-103562565D01*
X146009487Y-102848548D01*
X146009495Y-102848536D01*
X146542153Y-102154363D01*
X147462443Y-102860526D01*
X147462443Y-102860526D01*
G37*
G36*
X144150993Y-104129369D02*
X144150993Y-104129370D01*
X143604623Y-104780507D01*
X142915183Y-104201999D01*
X142915183Y-104201998D01*
X143461553Y-103550861D01*
X144150993Y-104129369D01*
X144150993Y-104129369D01*
G37*
G36*
X123073088Y-104230684D02*
X122173088Y-104230684D01*
X122173088Y-103380684D01*
X123073088Y-103380684D01*
X123073088Y-104230684D01*
X123073088Y-104230684D01*
G37*
G36*
X97653501Y-97548143D02*
X98171652Y-97651209D01*
X98726717Y-97881125D01*
X99226262Y-98214910D01*
X99651090Y-98639738D01*
X99984875Y-99139283D01*
X100214791Y-99694348D01*
X100332000Y-100283601D01*
X100332000Y-100884399D01*
X100214791Y-101473652D01*
X99984875Y-102028717D01*
X99651090Y-102528262D01*
X99226262Y-102953090D01*
X98726717Y-103286875D01*
X98171652Y-103516791D01*
X97666251Y-103617321D01*
X97582400Y-103634000D01*
X96981600Y-103634000D01*
X96897749Y-103617321D01*
X96392348Y-103516791D01*
X95837283Y-103286875D01*
X95337738Y-102953090D01*
X94912910Y-102528262D01*
X94579125Y-102028717D01*
X94349209Y-101473652D01*
X94232000Y-100884399D01*
X94232000Y-100283601D01*
X94349209Y-99694348D01*
X94579125Y-99139283D01*
X94912910Y-98639738D01*
X95337738Y-98214910D01*
X95837283Y-97881125D01*
X96392348Y-97651209D01*
X96910499Y-97548143D01*
X96981600Y-97534000D01*
X97582400Y-97534000D01*
X97653501Y-97548143D01*
X97653501Y-97548143D01*
G37*
G36*
X145717066Y-101521251D02*
X145184399Y-102215435D01*
X144636513Y-102929452D01*
X144636505Y-102929464D01*
X144103847Y-103623637D01*
X143183557Y-102917474D01*
X143685786Y-102262958D01*
X143685794Y-102262946D01*
X144294547Y-101469604D01*
X144796776Y-100815088D01*
X145717066Y-101521251D01*
X145717066Y-101521251D01*
G37*
G36*
X149430702Y-102883744D02*
X149004569Y-103439091D01*
X148607892Y-103134710D01*
X149034025Y-102579363D01*
X149430702Y-102883744D01*
X149430702Y-102883744D01*
G37*
G36*
X148716684Y-102335858D02*
X148290551Y-102891205D01*
X147893874Y-102586824D01*
X148320007Y-102031477D01*
X148716684Y-102335858D01*
X148716684Y-102335858D01*
G37*
G36*
X143299311Y-102116266D02*
X143339342Y-102146983D01*
X142913209Y-102702330D01*
X142913208Y-102702330D01*
X142437196Y-102337073D01*
X142482519Y-102278007D01*
X142863329Y-101781726D01*
X142863330Y-101781726D01*
X143299311Y-102116266D01*
X143299311Y-102116266D01*
G37*
G36*
X108303088Y-102430684D02*
X107143088Y-102430684D01*
X107143088Y-99780684D01*
X108303088Y-99780684D01*
X108303088Y-102430684D01*
X108303088Y-102430684D01*
G37*
G36*
X110323088Y-99655684D02*
X110325490Y-99680070D01*
X110332603Y-99703519D01*
X110344154Y-99725130D01*
X110359700Y-99744072D01*
X110378642Y-99759618D01*
X110400253Y-99771169D01*
X110423702Y-99778282D01*
X110448088Y-99780684D01*
X110503088Y-99780684D01*
X110503088Y-102430684D01*
X109343088Y-102430684D01*
X109343088Y-99780192D01*
X109348088Y-99780684D01*
X109498088Y-99780684D01*
X109522474Y-99778282D01*
X109545923Y-99771169D01*
X109567534Y-99759618D01*
X109586476Y-99744072D01*
X109602022Y-99725130D01*
X109613573Y-99703519D01*
X109620686Y-99680070D01*
X109623088Y-99655684D01*
X109623088Y-99005684D01*
X110323088Y-99005684D01*
X110323088Y-99655684D01*
X110323088Y-99655684D01*
G37*
G36*
X115250809Y-101897651D02*
X114435131Y-102278008D01*
X114075905Y-101507645D01*
X114891583Y-101127288D01*
X115250809Y-101897651D01*
X115250809Y-101897651D01*
G37*
G36*
X143995202Y-101263723D02*
X144008980Y-101274295D01*
X143582847Y-101829642D01*
X143582846Y-101829642D01*
X143106834Y-101464385D01*
X143179369Y-101369856D01*
X143532967Y-100909038D01*
X143532968Y-100909038D01*
X143995202Y-101263723D01*
X143995202Y-101263723D01*
G37*
G36*
X112797185Y-100877506D02*
X112795849Y-100901973D01*
X112799312Y-100926232D01*
X112805242Y-100944346D01*
X113044667Y-101522371D01*
X112490339Y-101751981D01*
X112222461Y-101105265D01*
X112776789Y-100875655D01*
X112800138Y-100865984D01*
X112797185Y-100877506D01*
X112797185Y-100877506D01*
G37*
G36*
X116610271Y-101263723D02*
X115794593Y-101644080D01*
X115435367Y-100873717D01*
X116251045Y-100493360D01*
X116610271Y-101263723D01*
X116610271Y-101263723D01*
G37*
G36*
X113960898Y-100086599D02*
X113960903Y-100086607D01*
X114330690Y-100879619D01*
X113279372Y-101369857D01*
X113034018Y-100843694D01*
X113021536Y-100822607D01*
X113005179Y-100804361D01*
X112985577Y-100789657D01*
X112963483Y-100779059D01*
X112945965Y-100774570D01*
X112951881Y-100763501D01*
X112958994Y-100740052D01*
X112961396Y-100715666D01*
X112958994Y-100691280D01*
X112949685Y-100662839D01*
X112930713Y-100622153D01*
X112930708Y-100622145D01*
X112886231Y-100526763D01*
X112873748Y-100505676D01*
X112857391Y-100487430D01*
X112837789Y-100472726D01*
X112815695Y-100462128D01*
X112791958Y-100456045D01*
X112767490Y-100454709D01*
X112743231Y-100458172D01*
X112725107Y-100464105D01*
X112623715Y-100506103D01*
X112069387Y-100735713D01*
X111801509Y-100088998D01*
X111801509Y-100088997D01*
X112355837Y-99859387D01*
X112418908Y-99833262D01*
X112440518Y-99821711D01*
X112459460Y-99806165D01*
X112475006Y-99787223D01*
X112486557Y-99765612D01*
X112493670Y-99742163D01*
X112496072Y-99717777D01*
X112493670Y-99693391D01*
X112484360Y-99664950D01*
X112159433Y-98968141D01*
X113210751Y-98477903D01*
X113960898Y-100086599D01*
X113960898Y-100086599D01*
G37*
G36*
X115553288Y-98295847D02*
X115553293Y-98295855D01*
X115954776Y-99156839D01*
X116324567Y-99949859D01*
X115273249Y-100440097D01*
X114903458Y-99647077D01*
X114523102Y-98831401D01*
X114523097Y-98831393D01*
X114153310Y-98038381D01*
X115204628Y-97548143D01*
X115553288Y-98295847D01*
X115553288Y-98295847D01*
G37*
G36*
X142448088Y-100285684D02*
X139798088Y-100285684D01*
X139798088Y-99125684D01*
X142448088Y-99125684D01*
X142448088Y-100285684D01*
X142448088Y-100285684D01*
G37*
G36*
X136666258Y-100076286D02*
X128816258Y-100076286D01*
X128816258Y-98976286D01*
X136666258Y-98976286D01*
X136666258Y-100076286D01*
X136666258Y-100076286D01*
G37*
G36*
X144203088Y-99945684D02*
X142803088Y-99945684D01*
X142803088Y-99245684D01*
X144203088Y-99245684D01*
X144203088Y-99945684D01*
X144203088Y-99945684D01*
G37*
G36*
X147093902Y-99226144D02*
X146667769Y-99781491D01*
X146271092Y-99477110D01*
X146697225Y-98921763D01*
X147093902Y-99226144D01*
X147093902Y-99226144D01*
G37*
G36*
X109223088Y-99606176D02*
X109218088Y-99605684D01*
X108523088Y-99605684D01*
X108523088Y-99005684D01*
X109223088Y-99005684D01*
X109223088Y-99606176D01*
X109223088Y-99606176D01*
G37*
G36*
X146379884Y-98678258D02*
X145953751Y-99233605D01*
X145557074Y-98929224D01*
X145983207Y-98373877D01*
X146379884Y-98678258D01*
X146379884Y-98678258D01*
G37*
G36*
X144203088Y-98845684D02*
X142803088Y-98845684D01*
X142803088Y-98145684D01*
X144203088Y-98145684D01*
X144203088Y-98845684D01*
X144203088Y-98845684D01*
G37*
G36*
X109223088Y-98705684D02*
X108523088Y-98705684D01*
X108523088Y-98105684D01*
X109223088Y-98105684D01*
X109223088Y-98705684D01*
X109223088Y-98705684D01*
G37*
G36*
X110323088Y-98705684D02*
X109623088Y-98705684D01*
X109623088Y-98105684D01*
X110323088Y-98105684D01*
X110323088Y-98705684D01*
X110323088Y-98705684D01*
G37*
G36*
X142448088Y-98085684D02*
X139798088Y-98085684D01*
X139798088Y-96925684D01*
X142448088Y-96925684D01*
X142448088Y-98085684D01*
X142448088Y-98085684D01*
G37*
G36*
X133423088Y-97405684D02*
X132773088Y-97405684D01*
X132748702Y-97408086D01*
X132725253Y-97415199D01*
X132703642Y-97426750D01*
X132684700Y-97442296D01*
X132669154Y-97461238D01*
X132657603Y-97482849D01*
X132650490Y-97506298D01*
X132648088Y-97530684D01*
X132648088Y-97705684D01*
X131798088Y-97705684D01*
X131798088Y-96805684D01*
X132698088Y-96805684D01*
X132722474Y-96803282D01*
X132745923Y-96796169D01*
X132767534Y-96784618D01*
X132786476Y-96769072D01*
X132802022Y-96750130D01*
X132813573Y-96728519D01*
X132820500Y-96705684D01*
X133423088Y-96705684D01*
X133423088Y-97405684D01*
X133423088Y-97405684D01*
G37*
G36*
X132648088Y-95480684D02*
X132650490Y-95505070D01*
X132657603Y-95528519D01*
X132669154Y-95550130D01*
X132684700Y-95569072D01*
X132703642Y-95584618D01*
X132725253Y-95596169D01*
X132748702Y-95603282D01*
X132773088Y-95605684D01*
X133423088Y-95605684D01*
X133423088Y-96305684D01*
X132820500Y-96305684D01*
X132813573Y-96282849D01*
X132802022Y-96261238D01*
X132786476Y-96242296D01*
X132767534Y-96226750D01*
X132745923Y-96215199D01*
X132722474Y-96208086D01*
X132698088Y-96205684D01*
X131798088Y-96205684D01*
X131798088Y-95305684D01*
X132648088Y-95305684D01*
X132648088Y-95480684D01*
X132648088Y-95480684D01*
G37*
G36*
X126918088Y-95497284D02*
X125618088Y-95497284D01*
X125618088Y-94497284D01*
X126918088Y-94497284D01*
X126918088Y-95497284D01*
X126918088Y-95497284D01*
G37*
G36*
X124593088Y-95355684D02*
X124093088Y-95355684D01*
X124093088Y-94655684D01*
X124593088Y-94655684D01*
X124593088Y-95355684D01*
X124593088Y-95355684D01*
G37*
G36*
X123693088Y-95355684D02*
X123193088Y-95355684D01*
X123193088Y-94655684D01*
X123693088Y-94655684D01*
X123693088Y-95355684D01*
X123693088Y-95355684D01*
G37*
G36*
X108859940Y-93374888D02*
X109007713Y-93436098D01*
X109140711Y-93524964D01*
X109253808Y-93638061D01*
X109342674Y-93771059D01*
X109403884Y-93918832D01*
X109435088Y-94075708D01*
X109435088Y-94235660D01*
X109403884Y-94392536D01*
X109342674Y-94540309D01*
X109253808Y-94673307D01*
X109140711Y-94786404D01*
X109007713Y-94875270D01*
X108859940Y-94936480D01*
X108703064Y-94967684D01*
X108543112Y-94967684D01*
X108386236Y-94936480D01*
X108238463Y-94875270D01*
X108105465Y-94786404D01*
X107992368Y-94673307D01*
X107903502Y-94540309D01*
X107842292Y-94392536D01*
X107811088Y-94235660D01*
X107811088Y-94075708D01*
X107842292Y-93918832D01*
X107903502Y-93771059D01*
X107992368Y-93638061D01*
X108105465Y-93524964D01*
X108238463Y-93436098D01*
X108386236Y-93374888D01*
X108543112Y-93343684D01*
X108703064Y-93343684D01*
X108859940Y-93374888D01*
X108859940Y-93374888D01*
G37*
G36*
X122798088Y-92780684D02*
X122098088Y-92780684D01*
X122098088Y-92280684D01*
X122798088Y-92280684D01*
X122798088Y-92780684D01*
X122798088Y-92780684D01*
G37*
G36*
X113859940Y-91124888D02*
X114007713Y-91186098D01*
X114140711Y-91274964D01*
X114253808Y-91388061D01*
X114342674Y-91521059D01*
X114403884Y-91668832D01*
X114435088Y-91825708D01*
X114435088Y-91985660D01*
X114403884Y-92142536D01*
X114342674Y-92290309D01*
X114253808Y-92423307D01*
X114140711Y-92536404D01*
X114007713Y-92625270D01*
X113859940Y-92686480D01*
X113703064Y-92717684D01*
X113543112Y-92717684D01*
X113386236Y-92686480D01*
X113238463Y-92625270D01*
X113105465Y-92536404D01*
X112992368Y-92423307D01*
X112903502Y-92290309D01*
X112842292Y-92142536D01*
X112811088Y-91985660D01*
X112811088Y-91825708D01*
X112842292Y-91668832D01*
X112903502Y-91521059D01*
X112992368Y-91388061D01*
X113105465Y-91274964D01*
X113238463Y-91186098D01*
X113386236Y-91124888D01*
X113543112Y-91093684D01*
X113703064Y-91093684D01*
X113859940Y-91124888D01*
X113859940Y-91124888D01*
G37*
G36*
X126918088Y-92197284D02*
X125618088Y-92197284D01*
X125618088Y-91197284D01*
X126918088Y-91197284D01*
X126918088Y-92197284D01*
X126918088Y-92197284D01*
G37*
G36*
X122798088Y-91880684D02*
X122098088Y-91880684D01*
X122098088Y-91380684D01*
X122798088Y-91380684D01*
X122798088Y-91880684D01*
X122798088Y-91880684D01*
G37*
G36*
X120253088Y-91085684D02*
X119553088Y-91085684D01*
X119553088Y-90585684D01*
X120253088Y-90585684D01*
X120253088Y-91085684D01*
X120253088Y-91085684D01*
G37*
G36*
X121748088Y-88333536D02*
X121750490Y-88357922D01*
X121757603Y-88381371D01*
X121769154Y-88402982D01*
X121784700Y-88421924D01*
X121803642Y-88437470D01*
X121825253Y-88449021D01*
X121848702Y-88456134D01*
X121873088Y-88458536D01*
X121897474Y-88456134D01*
X121920923Y-88449021D01*
X121942534Y-88437470D01*
X121961476Y-88421924D01*
X121977022Y-88402982D01*
X121983328Y-88392460D01*
X122008564Y-88345245D01*
X122077298Y-88261494D01*
X122161049Y-88192760D01*
X122256590Y-88141693D01*
X122283570Y-88133509D01*
X122360269Y-88110242D01*
X122414136Y-88104937D01*
X122441069Y-88102284D01*
X122495107Y-88102284D01*
X122522040Y-88104937D01*
X122575907Y-88110242D01*
X122652606Y-88133509D01*
X122679586Y-88141693D01*
X122775127Y-88192760D01*
X122858878Y-88261494D01*
X122927612Y-88345245D01*
X122978679Y-88440786D01*
X122978680Y-88440790D01*
X122983335Y-88456134D01*
X122983470Y-88456581D01*
X122992847Y-88479220D01*
X123006461Y-88499595D01*
X123023788Y-88516922D01*
X123044163Y-88530536D01*
X123066802Y-88539913D01*
X123090835Y-88544694D01*
X123115339Y-88544694D01*
X123139373Y-88539914D01*
X123162012Y-88530537D01*
X123182387Y-88516923D01*
X123199714Y-88499596D01*
X123213328Y-88479221D01*
X123222706Y-88456581D01*
X123222842Y-88456134D01*
X123227496Y-88440790D01*
X123227497Y-88440786D01*
X123278564Y-88345245D01*
X123347298Y-88261494D01*
X123431049Y-88192760D01*
X123526590Y-88141693D01*
X123553570Y-88133509D01*
X123630269Y-88110242D01*
X123684136Y-88104937D01*
X123711069Y-88102284D01*
X123765107Y-88102284D01*
X123792040Y-88104937D01*
X123845907Y-88110242D01*
X123922606Y-88133509D01*
X123949586Y-88141693D01*
X124045127Y-88192760D01*
X124128878Y-88261494D01*
X124197612Y-88345245D01*
X124248679Y-88440786D01*
X124248680Y-88440790D01*
X124253335Y-88456134D01*
X124253470Y-88456581D01*
X124262847Y-88479220D01*
X124276461Y-88499595D01*
X124293788Y-88516922D01*
X124314163Y-88530536D01*
X124336802Y-88539913D01*
X124360835Y-88544694D01*
X124385339Y-88544694D01*
X124409373Y-88539914D01*
X124432012Y-88530537D01*
X124452387Y-88516923D01*
X124469714Y-88499596D01*
X124483328Y-88479221D01*
X124492706Y-88456581D01*
X124492842Y-88456134D01*
X124497496Y-88440790D01*
X124497497Y-88440786D01*
X124548564Y-88345245D01*
X124617298Y-88261494D01*
X124701049Y-88192760D01*
X124796590Y-88141693D01*
X124823570Y-88133509D01*
X124900269Y-88110242D01*
X124954136Y-88104937D01*
X124981069Y-88102284D01*
X125035107Y-88102284D01*
X125062040Y-88104937D01*
X125115907Y-88110242D01*
X125192606Y-88133509D01*
X125219586Y-88141693D01*
X125315127Y-88192760D01*
X125398878Y-88261494D01*
X125467612Y-88345245D01*
X125518679Y-88440786D01*
X125518680Y-88440790D01*
X125523335Y-88456134D01*
X125523470Y-88456581D01*
X125532847Y-88479220D01*
X125546461Y-88499595D01*
X125563788Y-88516922D01*
X125584163Y-88530536D01*
X125606802Y-88539913D01*
X125630835Y-88544694D01*
X125655339Y-88544694D01*
X125679373Y-88539914D01*
X125702012Y-88530537D01*
X125722387Y-88516923D01*
X125739714Y-88499596D01*
X125753328Y-88479221D01*
X125762706Y-88456581D01*
X125762842Y-88456134D01*
X125767496Y-88440790D01*
X125767497Y-88440786D01*
X125818564Y-88345245D01*
X125887298Y-88261494D01*
X125971049Y-88192760D01*
X126066590Y-88141693D01*
X126093570Y-88133509D01*
X126170269Y-88110242D01*
X126224136Y-88104937D01*
X126251069Y-88102284D01*
X126305107Y-88102284D01*
X126332040Y-88104937D01*
X126385907Y-88110242D01*
X126462606Y-88133509D01*
X126489586Y-88141693D01*
X126585127Y-88192760D01*
X126668878Y-88261494D01*
X126737612Y-88345245D01*
X126788679Y-88440786D01*
X126788680Y-88440790D01*
X126820130Y-88544465D01*
X126830749Y-88652284D01*
X126820130Y-88760103D01*
X126800338Y-88825347D01*
X126788679Y-88863782D01*
X126737612Y-88959323D01*
X126668878Y-89043074D01*
X126585127Y-89111808D01*
X126489586Y-89162875D01*
X126481960Y-89165188D01*
X126473789Y-89167667D01*
X126451152Y-89177043D01*
X126430777Y-89190657D01*
X126413450Y-89207984D01*
X126399836Y-89228359D01*
X126390459Y-89250998D01*
X126385678Y-89275031D01*
X126385678Y-89299535D01*
X126390458Y-89323569D01*
X126399835Y-89346208D01*
X126413449Y-89366583D01*
X126430776Y-89383910D01*
X126451151Y-89397524D01*
X126473789Y-89406901D01*
X126481960Y-89409380D01*
X126489586Y-89411693D01*
X126585127Y-89462760D01*
X126668878Y-89531494D01*
X126737612Y-89615245D01*
X126788679Y-89710786D01*
X126788680Y-89710790D01*
X126820130Y-89814465D01*
X126830749Y-89922284D01*
X126820130Y-90030103D01*
X126800338Y-90095347D01*
X126788679Y-90133782D01*
X126737612Y-90229323D01*
X126668878Y-90313074D01*
X126585127Y-90381808D01*
X126489586Y-90432875D01*
X126462606Y-90441059D01*
X126385907Y-90464326D01*
X126332040Y-90469631D01*
X126305107Y-90472284D01*
X126251069Y-90472284D01*
X126224136Y-90469631D01*
X126170269Y-90464326D01*
X126093570Y-90441059D01*
X126066590Y-90432875D01*
X125971049Y-90381808D01*
X125887298Y-90313074D01*
X125818564Y-90229323D01*
X125767497Y-90133782D01*
X125762706Y-90117987D01*
X125753329Y-90095348D01*
X125739715Y-90074973D01*
X125722388Y-90057646D01*
X125702013Y-90044032D01*
X125679374Y-90034655D01*
X125655341Y-90029874D01*
X125630837Y-90029874D01*
X125606803Y-90034654D01*
X125584164Y-90044031D01*
X125563789Y-90057645D01*
X125546462Y-90074972D01*
X125532848Y-90095347D01*
X125523470Y-90117987D01*
X125518679Y-90133782D01*
X125467612Y-90229323D01*
X125398878Y-90313074D01*
X125315127Y-90381808D01*
X125219586Y-90432875D01*
X125192606Y-90441059D01*
X125115907Y-90464326D01*
X125062040Y-90469631D01*
X125035107Y-90472284D01*
X124981069Y-90472284D01*
X124954136Y-90469631D01*
X124900269Y-90464326D01*
X124823570Y-90441059D01*
X124796590Y-90432875D01*
X124701049Y-90381808D01*
X124617298Y-90313074D01*
X124548564Y-90229323D01*
X124497497Y-90133782D01*
X124492706Y-90117987D01*
X124483329Y-90095348D01*
X124469715Y-90074973D01*
X124452388Y-90057646D01*
X124432013Y-90044032D01*
X124409374Y-90034655D01*
X124385341Y-90029874D01*
X124360837Y-90029874D01*
X124336803Y-90034654D01*
X124314164Y-90044031D01*
X124293789Y-90057645D01*
X124276462Y-90074972D01*
X124262848Y-90095347D01*
X124253470Y-90117987D01*
X124248679Y-90133782D01*
X124197612Y-90229323D01*
X124128878Y-90313074D01*
X124045127Y-90381808D01*
X123949586Y-90432875D01*
X123922606Y-90441059D01*
X123845907Y-90464326D01*
X123792040Y-90469631D01*
X123765107Y-90472284D01*
X123711069Y-90472284D01*
X123684136Y-90469631D01*
X123630269Y-90464326D01*
X123553570Y-90441059D01*
X123526590Y-90432875D01*
X123431049Y-90381808D01*
X123347298Y-90313074D01*
X123278564Y-90229323D01*
X123227497Y-90133782D01*
X123222706Y-90117987D01*
X123213329Y-90095348D01*
X123199715Y-90074973D01*
X123182388Y-90057646D01*
X123162013Y-90044032D01*
X123139374Y-90034655D01*
X123115341Y-90029874D01*
X123090837Y-90029874D01*
X123066803Y-90034654D01*
X123044164Y-90044031D01*
X123023789Y-90057645D01*
X123006462Y-90074972D01*
X122992848Y-90095347D01*
X122983470Y-90117987D01*
X122978679Y-90133782D01*
X122927612Y-90229323D01*
X122858878Y-90313074D01*
X122775127Y-90381808D01*
X122679586Y-90432875D01*
X122652606Y-90441059D01*
X122575907Y-90464326D01*
X122522040Y-90469631D01*
X122495107Y-90472284D01*
X122441069Y-90472284D01*
X122414136Y-90469631D01*
X122360269Y-90464326D01*
X122283570Y-90441059D01*
X122256590Y-90432875D01*
X122161049Y-90381808D01*
X122077298Y-90313074D01*
X122008564Y-90229323D01*
X121957497Y-90133782D01*
X121952706Y-90117987D01*
X121943329Y-90095348D01*
X121929715Y-90074973D01*
X121912388Y-90057646D01*
X121892013Y-90044032D01*
X121869374Y-90034655D01*
X121845341Y-90029874D01*
X121820837Y-90029874D01*
X121796803Y-90034654D01*
X121774164Y-90044031D01*
X121753789Y-90057645D01*
X121736462Y-90074972D01*
X121722848Y-90095347D01*
X121713470Y-90117987D01*
X121708679Y-90133782D01*
X121657612Y-90229323D01*
X121588878Y-90313074D01*
X121505127Y-90381808D01*
X121409586Y-90432875D01*
X121382606Y-90441059D01*
X121305907Y-90464326D01*
X121252040Y-90469631D01*
X121225107Y-90472284D01*
X121171069Y-90472284D01*
X121144136Y-90469631D01*
X121090269Y-90464326D01*
X121013570Y-90441059D01*
X120986590Y-90432875D01*
X120891049Y-90381808D01*
X120807298Y-90313074D01*
X120738564Y-90229323D01*
X120687497Y-90133782D01*
X120675838Y-90095347D01*
X120656046Y-90030103D01*
X120645427Y-89922284D01*
X120656046Y-89814465D01*
X120687496Y-89710790D01*
X120687497Y-89710786D01*
X120738564Y-89615245D01*
X120807298Y-89531494D01*
X120891049Y-89462760D01*
X120938264Y-89437524D01*
X120958639Y-89423911D01*
X120975966Y-89406584D01*
X120989580Y-89386209D01*
X120998957Y-89363570D01*
X121003738Y-89339537D01*
X121003738Y-89327284D01*
X121391836Y-89327284D01*
X121394238Y-89351670D01*
X121401351Y-89375119D01*
X121412902Y-89396730D01*
X121428448Y-89415672D01*
X121447390Y-89431218D01*
X121457912Y-89437524D01*
X121505127Y-89462760D01*
X121588878Y-89531494D01*
X121657612Y-89615245D01*
X121708679Y-89710786D01*
X121713470Y-89726581D01*
X121722847Y-89749220D01*
X121736461Y-89769595D01*
X121753788Y-89786922D01*
X121774163Y-89800536D01*
X121796802Y-89809913D01*
X121820835Y-89814694D01*
X121845339Y-89814694D01*
X121869373Y-89809914D01*
X121892012Y-89800537D01*
X121912387Y-89786923D01*
X121929714Y-89769596D01*
X121943328Y-89749221D01*
X121952706Y-89726581D01*
X121957497Y-89710786D01*
X122008564Y-89615245D01*
X122077298Y-89531494D01*
X122161049Y-89462760D01*
X122256590Y-89411693D01*
X122264216Y-89409380D01*
X122272387Y-89406901D01*
X122295024Y-89397525D01*
X122315399Y-89383911D01*
X122332726Y-89366584D01*
X122346340Y-89346209D01*
X122355717Y-89323570D01*
X122360498Y-89299537D01*
X122360498Y-89275033D01*
X122360498Y-89275031D01*
X122575678Y-89275031D01*
X122575678Y-89299535D01*
X122580458Y-89323569D01*
X122589835Y-89346208D01*
X122603449Y-89366583D01*
X122620776Y-89383910D01*
X122641151Y-89397524D01*
X122663789Y-89406901D01*
X122671960Y-89409380D01*
X122679586Y-89411693D01*
X122775127Y-89462760D01*
X122858878Y-89531494D01*
X122927612Y-89615245D01*
X122978679Y-89710786D01*
X122983470Y-89726581D01*
X122992847Y-89749220D01*
X123006461Y-89769595D01*
X123023788Y-89786922D01*
X123044163Y-89800536D01*
X123066802Y-89809913D01*
X123090835Y-89814694D01*
X123115339Y-89814694D01*
X123139373Y-89809914D01*
X123162012Y-89800537D01*
X123182387Y-89786923D01*
X123199714Y-89769596D01*
X123213328Y-89749221D01*
X123222706Y-89726581D01*
X123227497Y-89710786D01*
X123278564Y-89615245D01*
X123347298Y-89531494D01*
X123431049Y-89462760D01*
X123526590Y-89411693D01*
X123534216Y-89409380D01*
X123542387Y-89406901D01*
X123565024Y-89397525D01*
X123585399Y-89383911D01*
X123602726Y-89366584D01*
X123616340Y-89346209D01*
X123625717Y-89323570D01*
X123630498Y-89299537D01*
X123630498Y-89275033D01*
X123630498Y-89275031D01*
X123845678Y-89275031D01*
X123845678Y-89299535D01*
X123850458Y-89323569D01*
X123859835Y-89346208D01*
X123873449Y-89366583D01*
X123890776Y-89383910D01*
X123911151Y-89397524D01*
X123933789Y-89406901D01*
X123941960Y-89409380D01*
X123949586Y-89411693D01*
X124045127Y-89462760D01*
X124128878Y-89531494D01*
X124197612Y-89615245D01*
X124248679Y-89710786D01*
X124253470Y-89726581D01*
X124262847Y-89749220D01*
X124276461Y-89769595D01*
X124293788Y-89786922D01*
X124314163Y-89800536D01*
X124336802Y-89809913D01*
X124360835Y-89814694D01*
X124385339Y-89814694D01*
X124409373Y-89809914D01*
X124432012Y-89800537D01*
X124452387Y-89786923D01*
X124469714Y-89769596D01*
X124483328Y-89749221D01*
X124492706Y-89726581D01*
X124497497Y-89710786D01*
X124548564Y-89615245D01*
X124617298Y-89531494D01*
X124701049Y-89462760D01*
X124796590Y-89411693D01*
X124804216Y-89409380D01*
X124812387Y-89406901D01*
X124835024Y-89397525D01*
X124855399Y-89383911D01*
X124872726Y-89366584D01*
X124886340Y-89346209D01*
X124895717Y-89323570D01*
X124900498Y-89299537D01*
X124900498Y-89275033D01*
X124900498Y-89275031D01*
X125115678Y-89275031D01*
X125115678Y-89299535D01*
X125120458Y-89323569D01*
X125129835Y-89346208D01*
X125143449Y-89366583D01*
X125160776Y-89383910D01*
X125181151Y-89397524D01*
X125203789Y-89406901D01*
X125211960Y-89409380D01*
X125219586Y-89411693D01*
X125315127Y-89462760D01*
X125398878Y-89531494D01*
X125467612Y-89615245D01*
X125518679Y-89710786D01*
X125523470Y-89726581D01*
X125532847Y-89749220D01*
X125546461Y-89769595D01*
X125563788Y-89786922D01*
X125584163Y-89800536D01*
X125606802Y-89809913D01*
X125630835Y-89814694D01*
X125655339Y-89814694D01*
X125679373Y-89809914D01*
X125702012Y-89800537D01*
X125722387Y-89786923D01*
X125739714Y-89769596D01*
X125753328Y-89749221D01*
X125762706Y-89726581D01*
X125767497Y-89710786D01*
X125818564Y-89615245D01*
X125887298Y-89531494D01*
X125971049Y-89462760D01*
X126066590Y-89411693D01*
X126074216Y-89409380D01*
X126082387Y-89406901D01*
X126105024Y-89397525D01*
X126125399Y-89383911D01*
X126142726Y-89366584D01*
X126156340Y-89346209D01*
X126165717Y-89323570D01*
X126170498Y-89299537D01*
X126170498Y-89275033D01*
X126165718Y-89250999D01*
X126156341Y-89228360D01*
X126142727Y-89207985D01*
X126125400Y-89190658D01*
X126105025Y-89177044D01*
X126082387Y-89167667D01*
X126074216Y-89165188D01*
X126066590Y-89162875D01*
X125971049Y-89111808D01*
X125887298Y-89043074D01*
X125818564Y-88959323D01*
X125767497Y-88863782D01*
X125762706Y-88847987D01*
X125753329Y-88825348D01*
X125739715Y-88804973D01*
X125722388Y-88787646D01*
X125702013Y-88774032D01*
X125679374Y-88764655D01*
X125655341Y-88759874D01*
X125630837Y-88759874D01*
X125606803Y-88764654D01*
X125584164Y-88774031D01*
X125563789Y-88787645D01*
X125546462Y-88804972D01*
X125532848Y-88825347D01*
X125523470Y-88847987D01*
X125518679Y-88863782D01*
X125467612Y-88959323D01*
X125398878Y-89043074D01*
X125315127Y-89111808D01*
X125219586Y-89162875D01*
X125211960Y-89165188D01*
X125203789Y-89167667D01*
X125181152Y-89177043D01*
X125160777Y-89190657D01*
X125143450Y-89207984D01*
X125129836Y-89228359D01*
X125120459Y-89250998D01*
X125115678Y-89275031D01*
X124900498Y-89275031D01*
X124895718Y-89250999D01*
X124886341Y-89228360D01*
X124872727Y-89207985D01*
X124855400Y-89190658D01*
X124835025Y-89177044D01*
X124812387Y-89167667D01*
X124804216Y-89165188D01*
X124796590Y-89162875D01*
X124701049Y-89111808D01*
X124617298Y-89043074D01*
X124548564Y-88959323D01*
X124497497Y-88863782D01*
X124492706Y-88847987D01*
X124483329Y-88825348D01*
X124469715Y-88804973D01*
X124452388Y-88787646D01*
X124432013Y-88774032D01*
X124409374Y-88764655D01*
X124385341Y-88759874D01*
X124360837Y-88759874D01*
X124336803Y-88764654D01*
X124314164Y-88774031D01*
X124293789Y-88787645D01*
X124276462Y-88804972D01*
X124262848Y-88825347D01*
X124253470Y-88847987D01*
X124248679Y-88863782D01*
X124197612Y-88959323D01*
X124128878Y-89043074D01*
X124045127Y-89111808D01*
X123949586Y-89162875D01*
X123941960Y-89165188D01*
X123933789Y-89167667D01*
X123911152Y-89177043D01*
X123890777Y-89190657D01*
X123873450Y-89207984D01*
X123859836Y-89228359D01*
X123850459Y-89250998D01*
X123845678Y-89275031D01*
X123630498Y-89275031D01*
X123625718Y-89250999D01*
X123616341Y-89228360D01*
X123602727Y-89207985D01*
X123585400Y-89190658D01*
X123565025Y-89177044D01*
X123542387Y-89167667D01*
X123534216Y-89165188D01*
X123526590Y-89162875D01*
X123431049Y-89111808D01*
X123347298Y-89043074D01*
X123278564Y-88959323D01*
X123227497Y-88863782D01*
X123222706Y-88847987D01*
X123213329Y-88825348D01*
X123199715Y-88804973D01*
X123182388Y-88787646D01*
X123162013Y-88774032D01*
X123139374Y-88764655D01*
X123115341Y-88759874D01*
X123090837Y-88759874D01*
X123066803Y-88764654D01*
X123044164Y-88774031D01*
X123023789Y-88787645D01*
X123006462Y-88804972D01*
X122992848Y-88825347D01*
X122983470Y-88847987D01*
X122978679Y-88863782D01*
X122927612Y-88959323D01*
X122858878Y-89043074D01*
X122775127Y-89111808D01*
X122679586Y-89162875D01*
X122671960Y-89165188D01*
X122663789Y-89167667D01*
X122641152Y-89177043D01*
X122620777Y-89190657D01*
X122603450Y-89207984D01*
X122589836Y-89228359D01*
X122580459Y-89250998D01*
X122575678Y-89275031D01*
X122360498Y-89275031D01*
X122355718Y-89250999D01*
X122346341Y-89228360D01*
X122332727Y-89207985D01*
X122315400Y-89190658D01*
X122295025Y-89177044D01*
X122272387Y-89167667D01*
X122264216Y-89165188D01*
X122256590Y-89162875D01*
X122161049Y-89111808D01*
X122077298Y-89043074D01*
X122008564Y-88959323D01*
X121983328Y-88912108D01*
X121969715Y-88891733D01*
X121952388Y-88874406D01*
X121932013Y-88860792D01*
X121909374Y-88851415D01*
X121885341Y-88846634D01*
X121860836Y-88846634D01*
X121836803Y-88851414D01*
X121814164Y-88860792D01*
X121793789Y-88874405D01*
X121776462Y-88891732D01*
X121762848Y-88912107D01*
X121753471Y-88934746D01*
X121748690Y-88958779D01*
X121748088Y-88971032D01*
X121748088Y-89202284D01*
X121516836Y-89202284D01*
X121492450Y-89204686D01*
X121469001Y-89211799D01*
X121447390Y-89223350D01*
X121428448Y-89238896D01*
X121412902Y-89257838D01*
X121401351Y-89279449D01*
X121394238Y-89302898D01*
X121391836Y-89327284D01*
X121003738Y-89327284D01*
X121003738Y-89315032D01*
X120998958Y-89290999D01*
X120989580Y-89268360D01*
X120975967Y-89247985D01*
X120958640Y-89230658D01*
X120938265Y-89217044D01*
X120915626Y-89207667D01*
X120891593Y-89202886D01*
X120879340Y-89202284D01*
X120648088Y-89202284D01*
X120648088Y-88102284D01*
X121748088Y-88102284D01*
X121748088Y-88333536D01*
X121748088Y-88333536D01*
G37*
G36*
X120253088Y-90185684D02*
X119553088Y-90185684D01*
X119553088Y-89685684D01*
X120253088Y-89685684D01*
X120253088Y-90185684D01*
X120253088Y-90185684D01*
G37*
G36*
X148070826Y-84872337D02*
X148112686Y-84880663D01*
X148147333Y-84895014D01*
X148230978Y-84929661D01*
X148337442Y-85000798D01*
X148427974Y-85091330D01*
X148499111Y-85197794D01*
X148533758Y-85281439D01*
X148544830Y-85308169D01*
X148548109Y-85316087D01*
X148573088Y-85441663D01*
X148573088Y-85569705D01*
X148548109Y-85695281D01*
X148499111Y-85813574D01*
X148427974Y-85920038D01*
X148337442Y-86010570D01*
X148230978Y-86081707D01*
X148147333Y-86116354D01*
X148112686Y-86130705D01*
X148070826Y-86139031D01*
X147987109Y-86155684D01*
X147859067Y-86155684D01*
X147775350Y-86139031D01*
X147733490Y-86130705D01*
X147698843Y-86116354D01*
X147615198Y-86081707D01*
X147508734Y-86010570D01*
X147418202Y-85920038D01*
X147347065Y-85813574D01*
X147298067Y-85695281D01*
X147273088Y-85569705D01*
X147273088Y-85441663D01*
X147298067Y-85316087D01*
X147301347Y-85308169D01*
X147312418Y-85281439D01*
X147347065Y-85197794D01*
X147418202Y-85091330D01*
X147508734Y-85000798D01*
X147615198Y-84929661D01*
X147698843Y-84895014D01*
X147733490Y-84880663D01*
X147775350Y-84872337D01*
X147859067Y-84855684D01*
X147987109Y-84855684D01*
X148070826Y-84872337D01*
X148070826Y-84872337D01*
G37*
G36*
X131402088Y-86154684D02*
X129524088Y-86154684D01*
X129524088Y-84276684D01*
X131402088Y-84276684D01*
X131402088Y-86154684D01*
X131402088Y-86154684D01*
G37*
G36*
X133276981Y-84312769D02*
X133276983Y-84312770D01*
X133276984Y-84312770D01*
X133447871Y-84383553D01*
X133447872Y-84383554D01*
X133601668Y-84486317D01*
X133732455Y-84617104D01*
X133732457Y-84617107D01*
X133835219Y-84770901D01*
X133880683Y-84880663D01*
X133906003Y-84941791D01*
X133942088Y-85123199D01*
X133942088Y-85308169D01*
X133915534Y-85441663D01*
X133906002Y-85489580D01*
X133835219Y-85660467D01*
X133835218Y-85660468D01*
X133732455Y-85814264D01*
X133601668Y-85945051D01*
X133601665Y-85945053D01*
X133447871Y-86047815D01*
X133276984Y-86118598D01*
X133276983Y-86118598D01*
X133276981Y-86118599D01*
X133095573Y-86154684D01*
X132910603Y-86154684D01*
X132729195Y-86118599D01*
X132729193Y-86118598D01*
X132729192Y-86118598D01*
X132558305Y-86047815D01*
X132404511Y-85945053D01*
X132404508Y-85945051D01*
X132273721Y-85814264D01*
X132170958Y-85660468D01*
X132170957Y-85660467D01*
X132100174Y-85489580D01*
X132090643Y-85441663D01*
X132064088Y-85308169D01*
X132064088Y-85123199D01*
X132100173Y-84941791D01*
X132125493Y-84880663D01*
X132170957Y-84770901D01*
X132273719Y-84617107D01*
X132273721Y-84617104D01*
X132404508Y-84486317D01*
X132558304Y-84383554D01*
X132558305Y-84383553D01*
X132729192Y-84312770D01*
X132729193Y-84312770D01*
X132729195Y-84312769D01*
X132910603Y-84276684D01*
X133095573Y-84276684D01*
X133276981Y-84312769D01*
X133276981Y-84312769D01*
G37*
G36*
X135816981Y-84312769D02*
X135816983Y-84312770D01*
X135816984Y-84312770D01*
X135987871Y-84383553D01*
X135987872Y-84383554D01*
X136141668Y-84486317D01*
X136272455Y-84617104D01*
X136272457Y-84617107D01*
X136375219Y-84770901D01*
X136420683Y-84880663D01*
X136446003Y-84941791D01*
X136482088Y-85123199D01*
X136482088Y-85308169D01*
X136455534Y-85441663D01*
X136446002Y-85489580D01*
X136375219Y-85660467D01*
X136375218Y-85660468D01*
X136272455Y-85814264D01*
X136141668Y-85945051D01*
X136141665Y-85945053D01*
X135987871Y-86047815D01*
X135816984Y-86118598D01*
X135816983Y-86118598D01*
X135816981Y-86118599D01*
X135635573Y-86154684D01*
X135450603Y-86154684D01*
X135269195Y-86118599D01*
X135269193Y-86118598D01*
X135269192Y-86118598D01*
X135098305Y-86047815D01*
X134944511Y-85945053D01*
X134944508Y-85945051D01*
X134813721Y-85814264D01*
X134710958Y-85660468D01*
X134710957Y-85660467D01*
X134640174Y-85489580D01*
X134630643Y-85441663D01*
X134604088Y-85308169D01*
X134604088Y-85123199D01*
X134640173Y-84941791D01*
X134665493Y-84880663D01*
X134710957Y-84770901D01*
X134813719Y-84617107D01*
X134813721Y-84617104D01*
X134944508Y-84486317D01*
X135098304Y-84383554D01*
X135098305Y-84383553D01*
X135269192Y-84312770D01*
X135269193Y-84312770D01*
X135269195Y-84312769D01*
X135450603Y-84276684D01*
X135635573Y-84276684D01*
X135816981Y-84312769D01*
X135816981Y-84312769D01*
G37*
G36*
X138356981Y-84312769D02*
X138356983Y-84312770D01*
X138356984Y-84312770D01*
X138527871Y-84383553D01*
X138527872Y-84383554D01*
X138681668Y-84486317D01*
X138812455Y-84617104D01*
X138812457Y-84617107D01*
X138915219Y-84770901D01*
X138960683Y-84880663D01*
X138986003Y-84941791D01*
X139022088Y-85123199D01*
X139022088Y-85308169D01*
X138995534Y-85441663D01*
X138986002Y-85489580D01*
X138915219Y-85660467D01*
X138915218Y-85660468D01*
X138812455Y-85814264D01*
X138681668Y-85945051D01*
X138681665Y-85945053D01*
X138527871Y-86047815D01*
X138356984Y-86118598D01*
X138356983Y-86118598D01*
X138356981Y-86118599D01*
X138175573Y-86154684D01*
X137990603Y-86154684D01*
X137809195Y-86118599D01*
X137809193Y-86118598D01*
X137809192Y-86118598D01*
X137638305Y-86047815D01*
X137484511Y-85945053D01*
X137484508Y-85945051D01*
X137353721Y-85814264D01*
X137250958Y-85660468D01*
X137250957Y-85660467D01*
X137180174Y-85489580D01*
X137170643Y-85441663D01*
X137144088Y-85308169D01*
X137144088Y-85123199D01*
X137180173Y-84941791D01*
X137205493Y-84880663D01*
X137250957Y-84770901D01*
X137353719Y-84617107D01*
X137353721Y-84617104D01*
X137484508Y-84486317D01*
X137638304Y-84383554D01*
X137638305Y-84383553D01*
X137809192Y-84312770D01*
X137809193Y-84312770D01*
X137809195Y-84312769D01*
X137990603Y-84276684D01*
X138175573Y-84276684D01*
X138356981Y-84312769D01*
X138356981Y-84312769D01*
G37*
G36*
X140896981Y-84312769D02*
X140896983Y-84312770D01*
X140896984Y-84312770D01*
X141067871Y-84383553D01*
X141067872Y-84383554D01*
X141221668Y-84486317D01*
X141352455Y-84617104D01*
X141352457Y-84617107D01*
X141455219Y-84770901D01*
X141500683Y-84880663D01*
X141526003Y-84941791D01*
X141562088Y-85123199D01*
X141562088Y-85308169D01*
X141535534Y-85441663D01*
X141526002Y-85489580D01*
X141455219Y-85660467D01*
X141455218Y-85660468D01*
X141352455Y-85814264D01*
X141221668Y-85945051D01*
X141221665Y-85945053D01*
X141067871Y-86047815D01*
X140896984Y-86118598D01*
X140896983Y-86118598D01*
X140896981Y-86118599D01*
X140715573Y-86154684D01*
X140530603Y-86154684D01*
X140349195Y-86118599D01*
X140349193Y-86118598D01*
X140349192Y-86118598D01*
X140178305Y-86047815D01*
X140024511Y-85945053D01*
X140024508Y-85945051D01*
X139893721Y-85814264D01*
X139790958Y-85660468D01*
X139790957Y-85660467D01*
X139720174Y-85489580D01*
X139710643Y-85441663D01*
X139684088Y-85308169D01*
X139684088Y-85123199D01*
X139720173Y-84941791D01*
X139745493Y-84880663D01*
X139790957Y-84770901D01*
X139893719Y-84617107D01*
X139893721Y-84617104D01*
X140024508Y-84486317D01*
X140178304Y-84383554D01*
X140178305Y-84383553D01*
X140349192Y-84312770D01*
X140349193Y-84312770D01*
X140349195Y-84312769D01*
X140530603Y-84276684D01*
X140715573Y-84276684D01*
X140896981Y-84312769D01*
X140896981Y-84312769D01*
G37*
M02*
