G04 #@! TF.GenerationSoftware,KiCad,Pcbnew,(5.1.2)-2*
G04 #@! TF.CreationDate,2019-10-03T15:28:12-06:00*
G04 #@! TF.ProjectId,MagSensor,4d616753-656e-4736-9f72-2e6b69636164,rev?*
G04 #@! TF.SameCoordinates,Original*
G04 #@! TF.FileFunction,Soldermask,Top*
G04 #@! TF.FilePolarity,Negative*
%FSLAX46Y46*%
G04 Gerber Fmt 4.6, Leading zero omitted, Abs format (unit mm)*
G04 Created by KiCad (PCBNEW (5.1.2)-2) date 2019-10-03 15:28:12*
%MOMM*%
%LPD*%
G04 APERTURE LIST*
%ADD10C,0.100000*%
G04 APERTURE END LIST*
D10*
G36*
X173542565Y-169602301D02*
G01*
X173651238Y-169623917D01*
X173855975Y-169708722D01*
X174040233Y-169831840D01*
X174196932Y-169988539D01*
X174320050Y-170172797D01*
X174404855Y-170377534D01*
X174448088Y-170594881D01*
X174448088Y-170816487D01*
X174404855Y-171033834D01*
X174320050Y-171238571D01*
X174196932Y-171422829D01*
X174040233Y-171579528D01*
X173855975Y-171702646D01*
X173651238Y-171787451D01*
X173542564Y-171809068D01*
X173433892Y-171830684D01*
X173212284Y-171830684D01*
X173103612Y-171809068D01*
X172994938Y-171787451D01*
X172790201Y-171702646D01*
X172605943Y-171579528D01*
X172449244Y-171422829D01*
X172326126Y-171238571D01*
X172241321Y-171033834D01*
X172198088Y-170816487D01*
X172198088Y-170594881D01*
X172241321Y-170377534D01*
X172326126Y-170172797D01*
X172449244Y-169988539D01*
X172605943Y-169831840D01*
X172790201Y-169708722D01*
X172994938Y-169623917D01*
X173103611Y-169602301D01*
X173212284Y-169580684D01*
X173433892Y-169580684D01*
X173542565Y-169602301D01*
X173542565Y-169602301D01*
G37*
G36*
X76542565Y-169602301D02*
G01*
X76651238Y-169623917D01*
X76855975Y-169708722D01*
X77040233Y-169831840D01*
X77196932Y-169988539D01*
X77320050Y-170172797D01*
X77404855Y-170377534D01*
X77448088Y-170594881D01*
X77448088Y-170816487D01*
X77404855Y-171033834D01*
X77320050Y-171238571D01*
X77196932Y-171422829D01*
X77040233Y-171579528D01*
X76855975Y-171702646D01*
X76651238Y-171787451D01*
X76542564Y-171809068D01*
X76433892Y-171830684D01*
X76212284Y-171830684D01*
X76103612Y-171809068D01*
X75994938Y-171787451D01*
X75790201Y-171702646D01*
X75605943Y-171579528D01*
X75449244Y-171422829D01*
X75326126Y-171238571D01*
X75241321Y-171033834D01*
X75198088Y-170816487D01*
X75198088Y-170594881D01*
X75241321Y-170377534D01*
X75326126Y-170172797D01*
X75449244Y-169988539D01*
X75605943Y-169831840D01*
X75790201Y-169708722D01*
X75994938Y-169623917D01*
X76103611Y-169602301D01*
X76212284Y-169580684D01*
X76433892Y-169580684D01*
X76542565Y-169602301D01*
X76542565Y-169602301D01*
G37*
G36*
X128248940Y-168273888D02*
G01*
X128396713Y-168335098D01*
X128396714Y-168335099D01*
X128529708Y-168423962D01*
X128642810Y-168537064D01*
X128699017Y-168621184D01*
X128731674Y-168670059D01*
X128792884Y-168817832D01*
X128824088Y-168974708D01*
X128824088Y-169134660D01*
X128792884Y-169291536D01*
X128731674Y-169439309D01*
X128731673Y-169439310D01*
X128642810Y-169572304D01*
X128529708Y-169685406D01*
X128441613Y-169744269D01*
X128396713Y-169774270D01*
X128248940Y-169835480D01*
X128092064Y-169866684D01*
X127932112Y-169866684D01*
X127775236Y-169835480D01*
X127627463Y-169774270D01*
X127582563Y-169744269D01*
X127494468Y-169685406D01*
X127381366Y-169572304D01*
X127292503Y-169439310D01*
X127292502Y-169439309D01*
X127231292Y-169291536D01*
X127200088Y-169134660D01*
X127200088Y-168974708D01*
X127231292Y-168817832D01*
X127292502Y-168670059D01*
X127325159Y-168621184D01*
X127381366Y-168537064D01*
X127494468Y-168423962D01*
X127627462Y-168335099D01*
X127627463Y-168335098D01*
X127775236Y-168273888D01*
X127932112Y-168242684D01*
X128092064Y-168242684D01*
X128248940Y-168273888D01*
X128248940Y-168273888D01*
G37*
G36*
X124438940Y-168243888D02*
G01*
X124586713Y-168305098D01*
X124586714Y-168305099D01*
X124719708Y-168393962D01*
X124832810Y-168507064D01*
X124892187Y-168595928D01*
X124921674Y-168640059D01*
X124982884Y-168787832D01*
X125014088Y-168944708D01*
X125014088Y-169104660D01*
X124982884Y-169261536D01*
X124921674Y-169409309D01*
X124901628Y-169439310D01*
X124832810Y-169542304D01*
X124719708Y-169655406D01*
X124674809Y-169685406D01*
X124586713Y-169744270D01*
X124438940Y-169805480D01*
X124282064Y-169836684D01*
X124122112Y-169836684D01*
X123965236Y-169805480D01*
X123817463Y-169744270D01*
X123729367Y-169685406D01*
X123684468Y-169655406D01*
X123571366Y-169542304D01*
X123502548Y-169439310D01*
X123482502Y-169409309D01*
X123421292Y-169261536D01*
X123390088Y-169104660D01*
X123390088Y-168944708D01*
X123421292Y-168787832D01*
X123482502Y-168640059D01*
X123511989Y-168595928D01*
X123571366Y-168507064D01*
X123684468Y-168393962D01*
X123817462Y-168305099D01*
X123817463Y-168305098D01*
X123965236Y-168243888D01*
X124122112Y-168212684D01*
X124282064Y-168212684D01*
X124438940Y-168243888D01*
X124438940Y-168243888D01*
G37*
G36*
X120457931Y-168623890D02*
G01*
X120478451Y-168630115D01*
X120497364Y-168640224D01*
X120513942Y-168653830D01*
X120527548Y-168670408D01*
X120537657Y-168689321D01*
X120543882Y-168709841D01*
X120546588Y-168737322D01*
X120546588Y-169245046D01*
X120543882Y-169272527D01*
X120537657Y-169293047D01*
X120527548Y-169311960D01*
X120513942Y-169328538D01*
X120497364Y-169342144D01*
X120478451Y-169352253D01*
X120457931Y-169358478D01*
X120430450Y-169361184D01*
X119972726Y-169361184D01*
X119945245Y-169358478D01*
X119924725Y-169352253D01*
X119905812Y-169342144D01*
X119889234Y-169328538D01*
X119875628Y-169311960D01*
X119865519Y-169293047D01*
X119859294Y-169272527D01*
X119856588Y-169245046D01*
X119856588Y-168737322D01*
X119859294Y-168709841D01*
X119865519Y-168689321D01*
X119875628Y-168670408D01*
X119889234Y-168653830D01*
X119905812Y-168640224D01*
X119924725Y-168630115D01*
X119945245Y-168623890D01*
X119972726Y-168621184D01*
X120430450Y-168621184D01*
X120457931Y-168623890D01*
X120457931Y-168623890D01*
G37*
G36*
X121427931Y-168623890D02*
G01*
X121448451Y-168630115D01*
X121467364Y-168640224D01*
X121483942Y-168653830D01*
X121497548Y-168670408D01*
X121507657Y-168689321D01*
X121513882Y-168709841D01*
X121516588Y-168737322D01*
X121516588Y-169245046D01*
X121513882Y-169272527D01*
X121507657Y-169293047D01*
X121497548Y-169311960D01*
X121483942Y-169328538D01*
X121467364Y-169342144D01*
X121448451Y-169352253D01*
X121427931Y-169358478D01*
X121400450Y-169361184D01*
X120942726Y-169361184D01*
X120915245Y-169358478D01*
X120894725Y-169352253D01*
X120875812Y-169342144D01*
X120859234Y-169328538D01*
X120845628Y-169311960D01*
X120835519Y-169293047D01*
X120829294Y-169272527D01*
X120826588Y-169245046D01*
X120826588Y-168737322D01*
X120829294Y-168709841D01*
X120835519Y-168689321D01*
X120845628Y-168670408D01*
X120859234Y-168653830D01*
X120875812Y-168640224D01*
X120894725Y-168630115D01*
X120915245Y-168623890D01*
X120942726Y-168621184D01*
X121400450Y-168621184D01*
X121427931Y-168623890D01*
X121427931Y-168623890D01*
G37*
G36*
X132734588Y-168041684D02*
G01*
X131734588Y-168041684D01*
X131734588Y-167141684D01*
X132734588Y-167141684D01*
X132734588Y-168041684D01*
X132734588Y-168041684D01*
G37*
G36*
X120440431Y-167036390D02*
G01*
X120460951Y-167042615D01*
X120479864Y-167052724D01*
X120496442Y-167066330D01*
X120510048Y-167082908D01*
X120520157Y-167101821D01*
X120526382Y-167122341D01*
X120529088Y-167149822D01*
X120529088Y-167657546D01*
X120526382Y-167685027D01*
X120520157Y-167705547D01*
X120510048Y-167724460D01*
X120496442Y-167741038D01*
X120479864Y-167754644D01*
X120460951Y-167764753D01*
X120440431Y-167770978D01*
X120412950Y-167773684D01*
X119955226Y-167773684D01*
X119927745Y-167770978D01*
X119907225Y-167764753D01*
X119888312Y-167754644D01*
X119871734Y-167741038D01*
X119858128Y-167724460D01*
X119848019Y-167705547D01*
X119841794Y-167685027D01*
X119839088Y-167657546D01*
X119839088Y-167149822D01*
X119841794Y-167122341D01*
X119848019Y-167101821D01*
X119858128Y-167082908D01*
X119871734Y-167066330D01*
X119888312Y-167052724D01*
X119907225Y-167042615D01*
X119927745Y-167036390D01*
X119955226Y-167033684D01*
X120412950Y-167033684D01*
X120440431Y-167036390D01*
X120440431Y-167036390D01*
G37*
G36*
X121410431Y-167036390D02*
G01*
X121430951Y-167042615D01*
X121449864Y-167052724D01*
X121466442Y-167066330D01*
X121480048Y-167082908D01*
X121490157Y-167101821D01*
X121496382Y-167122341D01*
X121499088Y-167149822D01*
X121499088Y-167657546D01*
X121496382Y-167685027D01*
X121490157Y-167705547D01*
X121480048Y-167724460D01*
X121466442Y-167741038D01*
X121449864Y-167754644D01*
X121430951Y-167764753D01*
X121410431Y-167770978D01*
X121382950Y-167773684D01*
X120925226Y-167773684D01*
X120897745Y-167770978D01*
X120877225Y-167764753D01*
X120858312Y-167754644D01*
X120841734Y-167741038D01*
X120828128Y-167724460D01*
X120818019Y-167705547D01*
X120811794Y-167685027D01*
X120809088Y-167657546D01*
X120809088Y-167149822D01*
X120811794Y-167122341D01*
X120818019Y-167101821D01*
X120828128Y-167082908D01*
X120841734Y-167066330D01*
X120858312Y-167052724D01*
X120877225Y-167042615D01*
X120897745Y-167036390D01*
X120925226Y-167033684D01*
X121382950Y-167033684D01*
X121410431Y-167036390D01*
X121410431Y-167036390D01*
G37*
G36*
X128248940Y-165733888D02*
G01*
X128396713Y-165795098D01*
X128396714Y-165795099D01*
X128529708Y-165883962D01*
X128642810Y-165997064D01*
X128702187Y-166085928D01*
X128731674Y-166130059D01*
X128792884Y-166277832D01*
X128824088Y-166434708D01*
X128824088Y-166594660D01*
X128792884Y-166751536D01*
X128731674Y-166899309D01*
X128731673Y-166899310D01*
X128642810Y-167032304D01*
X128529708Y-167145406D01*
X128489112Y-167172531D01*
X128396713Y-167234270D01*
X128248940Y-167295480D01*
X128092064Y-167326684D01*
X127932112Y-167326684D01*
X127775236Y-167295480D01*
X127627463Y-167234270D01*
X127535064Y-167172531D01*
X127494468Y-167145406D01*
X127381366Y-167032304D01*
X127292503Y-166899310D01*
X127292502Y-166899309D01*
X127231292Y-166751536D01*
X127200088Y-166594660D01*
X127200088Y-166434708D01*
X127231292Y-166277832D01*
X127292502Y-166130059D01*
X127321989Y-166085928D01*
X127381366Y-165997064D01*
X127494468Y-165883962D01*
X127627462Y-165795099D01*
X127627463Y-165795098D01*
X127775236Y-165733888D01*
X127932112Y-165702684D01*
X128092064Y-165702684D01*
X128248940Y-165733888D01*
X128248940Y-165733888D01*
G37*
G36*
X124438940Y-165703888D02*
G01*
X124586713Y-165765098D01*
X124586714Y-165765099D01*
X124719708Y-165853962D01*
X124832810Y-165967064D01*
X124892187Y-166055928D01*
X124921674Y-166100059D01*
X124982884Y-166247832D01*
X125014088Y-166404708D01*
X125014088Y-166564660D01*
X124982884Y-166721536D01*
X124921674Y-166869309D01*
X124901628Y-166899310D01*
X124832810Y-167002304D01*
X124719708Y-167115406D01*
X124674809Y-167145406D01*
X124586713Y-167204270D01*
X124438940Y-167265480D01*
X124282064Y-167296684D01*
X124122112Y-167296684D01*
X123965236Y-167265480D01*
X123817463Y-167204270D01*
X123729367Y-167145406D01*
X123684468Y-167115406D01*
X123571366Y-167002304D01*
X123502548Y-166899310D01*
X123482502Y-166869309D01*
X123421292Y-166721536D01*
X123390088Y-166564660D01*
X123390088Y-166404708D01*
X123421292Y-166247832D01*
X123482502Y-166100059D01*
X123511989Y-166055928D01*
X123571366Y-165967064D01*
X123684468Y-165853962D01*
X123817462Y-165765099D01*
X123817463Y-165765098D01*
X123965236Y-165703888D01*
X124122112Y-165672684D01*
X124282064Y-165672684D01*
X124438940Y-165703888D01*
X124438940Y-165703888D01*
G37*
G36*
X130734588Y-167091684D02*
G01*
X129734588Y-167091684D01*
X129734588Y-166191684D01*
X130734588Y-166191684D01*
X130734588Y-167091684D01*
X130734588Y-167091684D01*
G37*
G36*
X121638088Y-166390684D02*
G01*
X120638088Y-166390684D01*
X120638088Y-165490684D01*
X121638088Y-165490684D01*
X121638088Y-166390684D01*
X121638088Y-166390684D01*
G37*
G36*
X132734588Y-166141684D02*
G01*
X131734588Y-166141684D01*
X131734588Y-165241684D01*
X132734588Y-165241684D01*
X132734588Y-166141684D01*
X132734588Y-166141684D01*
G37*
G36*
X119638088Y-165440684D02*
G01*
X118638088Y-165440684D01*
X118638088Y-164540684D01*
X119638088Y-164540684D01*
X119638088Y-165440684D01*
X119638088Y-165440684D01*
G37*
G36*
X128248940Y-163193888D02*
G01*
X128396713Y-163255098D01*
X128396714Y-163255099D01*
X128529708Y-163343962D01*
X128642810Y-163457064D01*
X128702187Y-163545928D01*
X128731674Y-163590059D01*
X128792884Y-163737832D01*
X128824088Y-163894708D01*
X128824088Y-164054660D01*
X128792884Y-164211536D01*
X128731674Y-164359309D01*
X128731673Y-164359310D01*
X128642810Y-164492304D01*
X128529708Y-164605406D01*
X128441613Y-164664269D01*
X128396713Y-164694270D01*
X128248940Y-164755480D01*
X128092064Y-164786684D01*
X127932112Y-164786684D01*
X127775236Y-164755480D01*
X127627463Y-164694270D01*
X127582563Y-164664269D01*
X127494468Y-164605406D01*
X127381366Y-164492304D01*
X127292503Y-164359310D01*
X127292502Y-164359309D01*
X127231292Y-164211536D01*
X127200088Y-164054660D01*
X127200088Y-163894708D01*
X127231292Y-163737832D01*
X127292502Y-163590059D01*
X127321989Y-163545928D01*
X127381366Y-163457064D01*
X127494468Y-163343962D01*
X127627462Y-163255099D01*
X127627463Y-163255098D01*
X127775236Y-163193888D01*
X127932112Y-163162684D01*
X128092064Y-163162684D01*
X128248940Y-163193888D01*
X128248940Y-163193888D01*
G37*
G36*
X124438940Y-163163888D02*
G01*
X124586713Y-163225098D01*
X124586714Y-163225099D01*
X124719708Y-163313962D01*
X124832810Y-163427064D01*
X124892187Y-163515928D01*
X124921674Y-163560059D01*
X124982884Y-163707832D01*
X125014088Y-163864708D01*
X125014088Y-164024660D01*
X124982884Y-164181536D01*
X124921674Y-164329309D01*
X124901628Y-164359310D01*
X124832810Y-164462304D01*
X124719708Y-164575406D01*
X124674809Y-164605406D01*
X124586713Y-164664270D01*
X124438940Y-164725480D01*
X124282064Y-164756684D01*
X124122112Y-164756684D01*
X123965236Y-164725480D01*
X123817463Y-164664270D01*
X123729367Y-164605406D01*
X123684468Y-164575406D01*
X123571366Y-164462304D01*
X123502548Y-164359310D01*
X123482502Y-164329309D01*
X123421292Y-164181536D01*
X123390088Y-164024660D01*
X123390088Y-163864708D01*
X123421292Y-163707832D01*
X123482502Y-163560059D01*
X123511989Y-163515928D01*
X123571366Y-163427064D01*
X123684468Y-163313962D01*
X123817462Y-163225099D01*
X123817463Y-163225098D01*
X123965236Y-163163888D01*
X124122112Y-163132684D01*
X124282064Y-163132684D01*
X124438940Y-163163888D01*
X124438940Y-163163888D01*
G37*
G36*
X121638088Y-164490684D02*
G01*
X120638088Y-164490684D01*
X120638088Y-163590684D01*
X121638088Y-163590684D01*
X121638088Y-164490684D01*
X121638088Y-164490684D01*
G37*
G36*
X130833431Y-162125890D02*
G01*
X130853951Y-162132115D01*
X130872864Y-162142224D01*
X130889442Y-162155830D01*
X130903048Y-162172408D01*
X130913157Y-162191321D01*
X130919382Y-162211841D01*
X130922088Y-162239322D01*
X130922088Y-162697046D01*
X130919382Y-162724527D01*
X130913157Y-162745047D01*
X130903048Y-162763960D01*
X130889442Y-162780538D01*
X130872864Y-162794144D01*
X130853951Y-162804253D01*
X130833431Y-162810478D01*
X130805950Y-162813184D01*
X130298226Y-162813184D01*
X130270745Y-162810478D01*
X130250225Y-162804253D01*
X130231312Y-162794144D01*
X130214734Y-162780538D01*
X130201128Y-162763960D01*
X130191019Y-162745047D01*
X130184794Y-162724527D01*
X130182088Y-162697046D01*
X130182088Y-162239322D01*
X130184794Y-162211841D01*
X130191019Y-162191321D01*
X130201128Y-162172408D01*
X130214734Y-162155830D01*
X130231312Y-162142224D01*
X130250225Y-162132115D01*
X130270745Y-162125890D01*
X130298226Y-162123184D01*
X130805950Y-162123184D01*
X130833431Y-162125890D01*
X130833431Y-162125890D01*
G37*
G36*
X131976431Y-162125890D02*
G01*
X131996951Y-162132115D01*
X132015864Y-162142224D01*
X132032442Y-162155830D01*
X132046048Y-162172408D01*
X132056157Y-162191321D01*
X132062382Y-162211841D01*
X132065088Y-162239322D01*
X132065088Y-162697046D01*
X132062382Y-162724527D01*
X132056157Y-162745047D01*
X132046048Y-162763960D01*
X132032442Y-162780538D01*
X132015864Y-162794144D01*
X131996951Y-162804253D01*
X131976431Y-162810478D01*
X131948950Y-162813184D01*
X131441226Y-162813184D01*
X131413745Y-162810478D01*
X131393225Y-162804253D01*
X131374312Y-162794144D01*
X131357734Y-162780538D01*
X131344128Y-162763960D01*
X131334019Y-162745047D01*
X131327794Y-162724527D01*
X131325088Y-162697046D01*
X131325088Y-162239322D01*
X131327794Y-162211841D01*
X131334019Y-162191321D01*
X131344128Y-162172408D01*
X131357734Y-162155830D01*
X131374312Y-162142224D01*
X131393225Y-162132115D01*
X131413745Y-162125890D01*
X131441226Y-162123184D01*
X131948950Y-162123184D01*
X131976431Y-162125890D01*
X131976431Y-162125890D01*
G37*
G36*
X130833431Y-161155890D02*
G01*
X130853951Y-161162115D01*
X130872864Y-161172224D01*
X130889442Y-161185830D01*
X130903048Y-161202408D01*
X130913157Y-161221321D01*
X130919382Y-161241841D01*
X130922088Y-161269322D01*
X130922088Y-161727046D01*
X130919382Y-161754527D01*
X130913157Y-161775047D01*
X130903048Y-161793960D01*
X130889442Y-161810538D01*
X130872864Y-161824144D01*
X130853951Y-161834253D01*
X130833431Y-161840478D01*
X130805950Y-161843184D01*
X130298226Y-161843184D01*
X130270745Y-161840478D01*
X130250225Y-161834253D01*
X130231312Y-161824144D01*
X130214734Y-161810538D01*
X130201128Y-161793960D01*
X130191019Y-161775047D01*
X130184794Y-161754527D01*
X130182088Y-161727046D01*
X130182088Y-161269322D01*
X130184794Y-161241841D01*
X130191019Y-161221321D01*
X130201128Y-161202408D01*
X130214734Y-161185830D01*
X130231312Y-161172224D01*
X130250225Y-161162115D01*
X130270745Y-161155890D01*
X130298226Y-161153184D01*
X130805950Y-161153184D01*
X130833431Y-161155890D01*
X130833431Y-161155890D01*
G37*
G36*
X131976431Y-161155890D02*
G01*
X131996951Y-161162115D01*
X132015864Y-161172224D01*
X132032442Y-161185830D01*
X132046048Y-161202408D01*
X132056157Y-161221321D01*
X132062382Y-161241841D01*
X132065088Y-161269322D01*
X132065088Y-161727046D01*
X132062382Y-161754527D01*
X132056157Y-161775047D01*
X132046048Y-161793960D01*
X132032442Y-161810538D01*
X132015864Y-161824144D01*
X131996951Y-161834253D01*
X131976431Y-161840478D01*
X131948950Y-161843184D01*
X131441226Y-161843184D01*
X131413745Y-161840478D01*
X131393225Y-161834253D01*
X131374312Y-161824144D01*
X131357734Y-161810538D01*
X131344128Y-161793960D01*
X131334019Y-161775047D01*
X131327794Y-161754527D01*
X131325088Y-161727046D01*
X131325088Y-161269322D01*
X131327794Y-161241841D01*
X131334019Y-161221321D01*
X131344128Y-161202408D01*
X131357734Y-161185830D01*
X131374312Y-161172224D01*
X131393225Y-161162115D01*
X131413745Y-161155890D01*
X131441226Y-161153184D01*
X131948950Y-161153184D01*
X131976431Y-161155890D01*
X131976431Y-161155890D01*
G37*
G36*
X151260251Y-155716679D02*
G01*
X151765652Y-155817209D01*
X152320717Y-156047125D01*
X152820262Y-156380910D01*
X153245090Y-156805738D01*
X153578875Y-157305283D01*
X153808791Y-157860348D01*
X153926000Y-158449601D01*
X153926000Y-159050399D01*
X153808791Y-159639652D01*
X153578875Y-160194717D01*
X153245090Y-160694262D01*
X152820262Y-161119090D01*
X152320717Y-161452875D01*
X151765652Y-161682791D01*
X151260251Y-161783321D01*
X151176400Y-161800000D01*
X150575600Y-161800000D01*
X150491749Y-161783321D01*
X149986348Y-161682791D01*
X149431283Y-161452875D01*
X148931738Y-161119090D01*
X148506910Y-160694262D01*
X148173125Y-160194717D01*
X147943209Y-159639652D01*
X147826000Y-159050399D01*
X147826000Y-158449601D01*
X147943209Y-157860348D01*
X148173125Y-157305283D01*
X148506910Y-156805738D01*
X148931738Y-156380910D01*
X149431283Y-156047125D01*
X149986348Y-155817209D01*
X150491749Y-155716679D01*
X150575600Y-155700000D01*
X151176400Y-155700000D01*
X151260251Y-155716679D01*
X151260251Y-155716679D01*
G37*
G36*
X97666251Y-150128679D02*
G01*
X98171652Y-150229209D01*
X98726717Y-150459125D01*
X99226262Y-150792910D01*
X99651090Y-151217738D01*
X99984875Y-151717283D01*
X100214791Y-152272348D01*
X100295385Y-152677524D01*
X100316966Y-152786017D01*
X100332000Y-152861601D01*
X100332000Y-153462399D01*
X100214791Y-154051652D01*
X99984875Y-154606717D01*
X99651090Y-155106262D01*
X99226262Y-155531090D01*
X98726717Y-155864875D01*
X98171652Y-156094791D01*
X97666251Y-156195321D01*
X97582400Y-156212000D01*
X96981600Y-156212000D01*
X96897749Y-156195321D01*
X96392348Y-156094791D01*
X95837283Y-155864875D01*
X95337738Y-155531090D01*
X94912910Y-155106262D01*
X94579125Y-154606717D01*
X94349209Y-154051652D01*
X94232000Y-153462399D01*
X94232000Y-152861601D01*
X94247035Y-152786017D01*
X94268615Y-152677524D01*
X94349209Y-152272348D01*
X94579125Y-151717283D01*
X94912910Y-151217738D01*
X95337738Y-150792910D01*
X95837283Y-150459125D01*
X96392348Y-150229209D01*
X96897749Y-150128679D01*
X96981600Y-150112000D01*
X97582400Y-150112000D01*
X97666251Y-150128679D01*
X97666251Y-150128679D01*
G37*
G36*
X129384415Y-153751438D02*
G01*
X129405410Y-153757807D01*
X129424752Y-153768146D01*
X129441710Y-153782062D01*
X129455626Y-153799020D01*
X129465965Y-153818362D01*
X129472334Y-153839357D01*
X129475088Y-153867322D01*
X129475088Y-155430046D01*
X129472334Y-155458011D01*
X129465965Y-155479006D01*
X129455626Y-155498348D01*
X129441710Y-155515306D01*
X129424752Y-155529222D01*
X129405410Y-155539561D01*
X129384415Y-155545930D01*
X129356450Y-155548684D01*
X128893726Y-155548684D01*
X128865761Y-155545930D01*
X128844766Y-155539561D01*
X128825424Y-155529222D01*
X128808466Y-155515306D01*
X128794550Y-155498348D01*
X128784211Y-155479006D01*
X128777842Y-155458011D01*
X128775088Y-155430046D01*
X128775088Y-153867322D01*
X128777842Y-153839357D01*
X128784211Y-153818362D01*
X128794550Y-153799020D01*
X128808466Y-153782062D01*
X128825424Y-153768146D01*
X128844766Y-153757807D01*
X128865761Y-153751438D01*
X128893726Y-153748684D01*
X129356450Y-153748684D01*
X129384415Y-153751438D01*
X129384415Y-153751438D01*
G37*
G36*
X128134415Y-153751438D02*
G01*
X128155410Y-153757807D01*
X128174752Y-153768146D01*
X128191710Y-153782062D01*
X128205626Y-153799020D01*
X128215965Y-153818362D01*
X128222334Y-153839357D01*
X128225088Y-153867322D01*
X128225088Y-155430046D01*
X128222334Y-155458011D01*
X128215965Y-155479006D01*
X128205626Y-155498348D01*
X128191710Y-155515306D01*
X128174752Y-155529222D01*
X128155410Y-155539561D01*
X128134415Y-155545930D01*
X128106450Y-155548684D01*
X127643726Y-155548684D01*
X127615761Y-155545930D01*
X127594766Y-155539561D01*
X127575424Y-155529222D01*
X127558466Y-155515306D01*
X127544550Y-155498348D01*
X127534211Y-155479006D01*
X127527842Y-155458011D01*
X127525088Y-155430046D01*
X127525088Y-153867322D01*
X127527842Y-153839357D01*
X127534211Y-153818362D01*
X127544550Y-153799020D01*
X127558466Y-153782062D01*
X127575424Y-153768146D01*
X127594766Y-153757807D01*
X127615761Y-153751438D01*
X127643726Y-153748684D01*
X128106450Y-153748684D01*
X128134415Y-153751438D01*
X128134415Y-153751438D01*
G37*
G36*
X125634415Y-153751438D02*
G01*
X125655410Y-153757807D01*
X125674752Y-153768146D01*
X125691710Y-153782062D01*
X125705626Y-153799020D01*
X125715965Y-153818362D01*
X125722334Y-153839357D01*
X125725088Y-153867322D01*
X125725088Y-155430046D01*
X125722334Y-155458011D01*
X125715965Y-155479006D01*
X125705626Y-155498348D01*
X125691710Y-155515306D01*
X125674752Y-155529222D01*
X125655410Y-155539561D01*
X125634415Y-155545930D01*
X125606450Y-155548684D01*
X125143726Y-155548684D01*
X125115761Y-155545930D01*
X125094766Y-155539561D01*
X125075424Y-155529222D01*
X125058466Y-155515306D01*
X125044550Y-155498348D01*
X125034211Y-155479006D01*
X125027842Y-155458011D01*
X125025088Y-155430046D01*
X125025088Y-153867322D01*
X125027842Y-153839357D01*
X125034211Y-153818362D01*
X125044550Y-153799020D01*
X125058466Y-153782062D01*
X125075424Y-153768146D01*
X125094766Y-153757807D01*
X125115761Y-153751438D01*
X125143726Y-153748684D01*
X125606450Y-153748684D01*
X125634415Y-153751438D01*
X125634415Y-153751438D01*
G37*
G36*
X126884415Y-153751438D02*
G01*
X126905410Y-153757807D01*
X126924752Y-153768146D01*
X126941710Y-153782062D01*
X126955626Y-153799020D01*
X126965965Y-153818362D01*
X126972334Y-153839357D01*
X126975088Y-153867322D01*
X126975088Y-155430046D01*
X126972334Y-155458011D01*
X126965965Y-155479006D01*
X126955626Y-155498348D01*
X126941710Y-155515306D01*
X126924752Y-155529222D01*
X126905410Y-155539561D01*
X126884415Y-155545930D01*
X126856450Y-155548684D01*
X126393726Y-155548684D01*
X126365761Y-155545930D01*
X126344766Y-155539561D01*
X126325424Y-155529222D01*
X126308466Y-155515306D01*
X126294550Y-155498348D01*
X126284211Y-155479006D01*
X126277842Y-155458011D01*
X126275088Y-155430046D01*
X126275088Y-153867322D01*
X126277842Y-153839357D01*
X126284211Y-153818362D01*
X126294550Y-153799020D01*
X126308466Y-153782062D01*
X126325424Y-153768146D01*
X126344766Y-153757807D01*
X126365761Y-153751438D01*
X126393726Y-153748684D01*
X126856450Y-153748684D01*
X126884415Y-153751438D01*
X126884415Y-153751438D01*
G37*
G36*
X131353928Y-150053360D02*
G01*
X131393676Y-150065418D01*
X131430310Y-150084999D01*
X131462421Y-150111351D01*
X131488773Y-150143462D01*
X131508354Y-150180096D01*
X131520412Y-150219844D01*
X131525088Y-150267324D01*
X131525088Y-152630044D01*
X131520412Y-152677524D01*
X131508354Y-152717272D01*
X131488773Y-152753906D01*
X131462421Y-152786017D01*
X131430310Y-152812369D01*
X131393676Y-152831950D01*
X131353928Y-152844008D01*
X131306448Y-152848684D01*
X130643728Y-152848684D01*
X130596248Y-152844008D01*
X130556500Y-152831950D01*
X130519866Y-152812369D01*
X130487755Y-152786017D01*
X130461403Y-152753906D01*
X130441822Y-152717272D01*
X130429764Y-152677524D01*
X130425088Y-152630044D01*
X130425088Y-150267324D01*
X130429764Y-150219844D01*
X130441822Y-150180096D01*
X130461403Y-150143462D01*
X130487755Y-150111351D01*
X130519866Y-150084999D01*
X130556500Y-150065418D01*
X130596248Y-150053360D01*
X130643728Y-150048684D01*
X131306448Y-150048684D01*
X131353928Y-150053360D01*
X131353928Y-150053360D01*
G37*
G36*
X123903928Y-150053360D02*
G01*
X123943676Y-150065418D01*
X123980310Y-150084999D01*
X124012421Y-150111351D01*
X124038773Y-150143462D01*
X124058354Y-150180096D01*
X124070412Y-150219844D01*
X124075088Y-150267324D01*
X124075088Y-152630044D01*
X124070412Y-152677524D01*
X124058354Y-152717272D01*
X124038773Y-152753906D01*
X124012421Y-152786017D01*
X123980310Y-152812369D01*
X123943676Y-152831950D01*
X123903928Y-152844008D01*
X123856448Y-152848684D01*
X123193728Y-152848684D01*
X123146248Y-152844008D01*
X123106500Y-152831950D01*
X123069866Y-152812369D01*
X123037755Y-152786017D01*
X123011403Y-152753906D01*
X122991822Y-152717272D01*
X122979764Y-152677524D01*
X122975088Y-152630044D01*
X122975088Y-150267324D01*
X122979764Y-150219844D01*
X122991822Y-150180096D01*
X123011403Y-150143462D01*
X123037755Y-150111351D01*
X123069866Y-150084999D01*
X123106500Y-150065418D01*
X123146248Y-150053360D01*
X123193728Y-150048684D01*
X123856448Y-150048684D01*
X123903928Y-150053360D01*
X123903928Y-150053360D01*
G37*
G36*
X155923088Y-152130684D02*
G01*
X155423088Y-152130684D01*
X155423088Y-151430684D01*
X155923088Y-151430684D01*
X155923088Y-152130684D01*
X155923088Y-152130684D01*
G37*
G36*
X155023088Y-152130684D02*
G01*
X154523088Y-152130684D01*
X154523088Y-151430684D01*
X155023088Y-151430684D01*
X155023088Y-152130684D01*
X155023088Y-152130684D01*
G37*
G36*
X157498088Y-151055684D02*
G01*
X156598088Y-151055684D01*
X156598088Y-150055684D01*
X157498088Y-150055684D01*
X157498088Y-151055684D01*
X157498088Y-151055684D01*
G37*
G36*
X159398088Y-151055684D02*
G01*
X158498088Y-151055684D01*
X158498088Y-150055684D01*
X159398088Y-150055684D01*
X159398088Y-151055684D01*
X159398088Y-151055684D01*
G37*
G36*
X155923088Y-150880684D02*
G01*
X155423088Y-150880684D01*
X155423088Y-150180684D01*
X155923088Y-150180684D01*
X155923088Y-150880684D01*
X155923088Y-150880684D01*
G37*
G36*
X155023088Y-150880684D02*
G01*
X154523088Y-150880684D01*
X154523088Y-150180684D01*
X155023088Y-150180684D01*
X155023088Y-150880684D01*
X155023088Y-150880684D01*
G37*
G36*
X162240088Y-149449684D02*
G01*
X160840088Y-149449684D01*
X160840088Y-148649684D01*
X162240088Y-148649684D01*
X162240088Y-149449684D01*
X162240088Y-149449684D01*
G37*
G36*
X158448088Y-149055684D02*
G01*
X157548088Y-149055684D01*
X157548088Y-148055684D01*
X158448088Y-148055684D01*
X158448088Y-149055684D01*
X158448088Y-149055684D01*
G37*
G36*
X90870826Y-147372337D02*
G01*
X90912686Y-147380663D01*
X90961684Y-147400959D01*
X91030977Y-147429661D01*
X91030978Y-147429662D01*
X91137439Y-147500796D01*
X91227976Y-147591333D01*
X91275506Y-147662468D01*
X91299111Y-147697795D01*
X91348109Y-147816087D01*
X91373088Y-147941663D01*
X91373088Y-148069705D01*
X91348109Y-148195281D01*
X91299111Y-148313573D01*
X91299110Y-148313574D01*
X91227976Y-148420035D01*
X91137439Y-148510572D01*
X91066304Y-148558102D01*
X91030977Y-148581707D01*
X90961684Y-148610409D01*
X90912686Y-148630705D01*
X90870826Y-148639031D01*
X90787109Y-148655684D01*
X90659067Y-148655684D01*
X90575350Y-148639031D01*
X90533490Y-148630705D01*
X90484492Y-148610409D01*
X90415199Y-148581707D01*
X90379872Y-148558102D01*
X90308737Y-148510572D01*
X90218200Y-148420035D01*
X90147066Y-148313574D01*
X90147065Y-148313573D01*
X90098067Y-148195281D01*
X90073088Y-148069705D01*
X90073088Y-147941663D01*
X90098067Y-147816087D01*
X90147065Y-147697795D01*
X90170670Y-147662468D01*
X90218200Y-147591333D01*
X90308737Y-147500796D01*
X90415198Y-147429662D01*
X90415199Y-147429661D01*
X90484492Y-147400959D01*
X90533490Y-147380663D01*
X90575350Y-147372337D01*
X90659067Y-147355684D01*
X90787109Y-147355684D01*
X90870826Y-147372337D01*
X90870826Y-147372337D01*
G37*
G36*
X162240088Y-147549684D02*
G01*
X160840088Y-147549684D01*
X160840088Y-146749684D01*
X162240088Y-146749684D01*
X162240088Y-147549684D01*
X162240088Y-147549684D01*
G37*
G36*
X150723088Y-147280684D02*
G01*
X150023088Y-147280684D01*
X150023088Y-146780684D01*
X150723088Y-146780684D01*
X150723088Y-147280684D01*
X150723088Y-147280684D01*
G37*
G36*
X152523088Y-147280684D02*
G01*
X151823088Y-147280684D01*
X151823088Y-146780684D01*
X152523088Y-146780684D01*
X152523088Y-147280684D01*
X152523088Y-147280684D01*
G37*
G36*
X150723088Y-146380684D02*
G01*
X150023088Y-146380684D01*
X150023088Y-145880684D01*
X150723088Y-145880684D01*
X150723088Y-146380684D01*
X150723088Y-146380684D01*
G37*
G36*
X152523088Y-146380684D02*
G01*
X151823088Y-146380684D01*
X151823088Y-145880684D01*
X152523088Y-145880684D01*
X152523088Y-146380684D01*
X152523088Y-146380684D01*
G37*
G36*
X163600000Y-146302000D02*
G01*
X159500000Y-146302000D01*
X159500000Y-143202000D01*
X163600000Y-143202000D01*
X163600000Y-146302000D01*
X163600000Y-146302000D01*
G37*
G36*
X158000000Y-146302000D02*
G01*
X153900000Y-146302000D01*
X153900000Y-143202000D01*
X158000000Y-143202000D01*
X158000000Y-146302000D01*
X158000000Y-146302000D01*
G37*
G36*
X96985000Y-146002000D02*
G01*
X93135000Y-146002000D01*
X93135000Y-144502000D01*
X96985000Y-144502000D01*
X96985000Y-146002000D01*
X96985000Y-146002000D01*
G37*
G36*
X104985000Y-146002000D02*
G01*
X101135000Y-146002000D01*
X101135000Y-144502000D01*
X104985000Y-144502000D01*
X104985000Y-146002000D01*
X104985000Y-146002000D01*
G37*
G36*
X152673088Y-145380684D02*
G01*
X151773088Y-145380684D01*
X151773088Y-144380684D01*
X152673088Y-144380684D01*
X152673088Y-145380684D01*
X152673088Y-145380684D01*
G37*
G36*
X150773088Y-145380684D02*
G01*
X149873088Y-145380684D01*
X149873088Y-144380684D01*
X150773088Y-144380684D01*
X150773088Y-145380684D01*
X150773088Y-145380684D01*
G37*
G36*
X91343088Y-144655684D02*
G01*
X90643088Y-144655684D01*
X90643088Y-144155684D01*
X91343088Y-144155684D01*
X91343088Y-144655684D01*
X91343088Y-144655684D01*
G37*
G36*
X92423088Y-144655684D02*
G01*
X91723088Y-144655684D01*
X91723088Y-144155684D01*
X92423088Y-144155684D01*
X92423088Y-144655684D01*
X92423088Y-144655684D01*
G37*
G36*
X91343088Y-143755684D02*
G01*
X90643088Y-143755684D01*
X90643088Y-143255684D01*
X91343088Y-143255684D01*
X91343088Y-143755684D01*
X91343088Y-143755684D01*
G37*
G36*
X92423088Y-143755684D02*
G01*
X91723088Y-143755684D01*
X91723088Y-143255684D01*
X92423088Y-143255684D01*
X92423088Y-143755684D01*
X92423088Y-143755684D01*
G37*
G36*
X151723088Y-143380684D02*
G01*
X150823088Y-143380684D01*
X150823088Y-142380684D01*
X151723088Y-142380684D01*
X151723088Y-143380684D01*
X151723088Y-143380684D01*
G37*
G36*
X92373088Y-142855684D02*
G01*
X91773088Y-142855684D01*
X91773088Y-142155684D01*
X92373088Y-142155684D01*
X92373088Y-142855684D01*
X92373088Y-142855684D01*
G37*
G36*
X158000000Y-142802000D02*
G01*
X153900000Y-142802000D01*
X153900000Y-139702000D01*
X158000000Y-139702000D01*
X158000000Y-142802000D01*
X158000000Y-142802000D01*
G37*
G36*
X163600000Y-142802000D02*
G01*
X159500000Y-142802000D01*
X159500000Y-139702000D01*
X163600000Y-139702000D01*
X163600000Y-142802000D01*
X163600000Y-142802000D01*
G37*
G36*
X164698088Y-142080684D02*
G01*
X163898088Y-142080684D01*
X163898088Y-140680684D01*
X164698088Y-140680684D01*
X164698088Y-142080684D01*
X164698088Y-142080684D01*
G37*
G36*
X166598088Y-142080684D02*
G01*
X165798088Y-142080684D01*
X165798088Y-140680684D01*
X166598088Y-140680684D01*
X166598088Y-142080684D01*
X166598088Y-142080684D01*
G37*
G36*
X92373088Y-141755684D02*
G01*
X91773088Y-141755684D01*
X91773088Y-141055684D01*
X92373088Y-141055684D01*
X92373088Y-141755684D01*
X92373088Y-141755684D01*
G37*
G36*
X96985000Y-141502000D02*
G01*
X93135000Y-141502000D01*
X93135000Y-140002000D01*
X96985000Y-140002000D01*
X96985000Y-141502000D01*
X96985000Y-141502000D01*
G37*
G36*
X104985000Y-141502000D02*
G01*
X101135000Y-141502000D01*
X101135000Y-140002000D01*
X104985000Y-140002000D01*
X104985000Y-141502000D01*
X104985000Y-141502000D01*
G37*
G36*
X151338088Y-141306684D02*
G01*
X150538088Y-141306684D01*
X150538088Y-139906684D01*
X151338088Y-139906684D01*
X151338088Y-141306684D01*
X151338088Y-141306684D01*
G37*
G36*
X153238088Y-141306684D02*
G01*
X152438088Y-141306684D01*
X152438088Y-139906684D01*
X153238088Y-139906684D01*
X153238088Y-141306684D01*
X153238088Y-141306684D01*
G37*
G36*
X165923088Y-140230684D02*
G01*
X165023088Y-140230684D01*
X165023088Y-139230684D01*
X165923088Y-139230684D01*
X165923088Y-140230684D01*
X165923088Y-140230684D01*
G37*
G36*
X168798888Y-138563484D02*
G01*
X168098888Y-138563484D01*
X168098888Y-138063484D01*
X168798888Y-138063484D01*
X168798888Y-138563484D01*
X168798888Y-138563484D01*
G37*
G36*
X100240940Y-136823288D02*
G01*
X100388713Y-136884498D01*
X100388714Y-136884499D01*
X100521708Y-136973362D01*
X100634810Y-137086464D01*
X100686273Y-137163484D01*
X100723674Y-137219459D01*
X100784884Y-137367232D01*
X100816088Y-137524108D01*
X100816088Y-137684060D01*
X100784884Y-137840936D01*
X100723674Y-137988709D01*
X100723673Y-137988710D01*
X100634810Y-138121704D01*
X100521708Y-138234806D01*
X100432844Y-138294183D01*
X100388713Y-138323670D01*
X100240940Y-138384880D01*
X100084064Y-138416084D01*
X99924112Y-138416084D01*
X99767236Y-138384880D01*
X99619463Y-138323670D01*
X99575332Y-138294183D01*
X99486468Y-138234806D01*
X99373366Y-138121704D01*
X99284503Y-137988710D01*
X99284502Y-137988709D01*
X99223292Y-137840936D01*
X99192088Y-137684060D01*
X99192088Y-137524108D01*
X99223292Y-137367232D01*
X99284502Y-137219459D01*
X99321903Y-137163484D01*
X99373366Y-137086464D01*
X99486468Y-136973362D01*
X99619462Y-136884499D01*
X99619463Y-136884498D01*
X99767236Y-136823288D01*
X99924112Y-136792084D01*
X100084064Y-136792084D01*
X100240940Y-136823288D01*
X100240940Y-136823288D01*
G37*
G36*
X164973088Y-138230684D02*
G01*
X164073088Y-138230684D01*
X164073088Y-137230684D01*
X164973088Y-137230684D01*
X164973088Y-138230684D01*
X164973088Y-138230684D01*
G37*
G36*
X166873088Y-138230684D02*
G01*
X165973088Y-138230684D01*
X165973088Y-137230684D01*
X166873088Y-137230684D01*
X166873088Y-138230684D01*
X166873088Y-138230684D01*
G37*
G36*
X168798888Y-137663484D02*
G01*
X168098888Y-137663484D01*
X168098888Y-137163484D01*
X168798888Y-137163484D01*
X168798888Y-137663484D01*
X168798888Y-137663484D01*
G37*
G36*
X168748088Y-136530684D02*
G01*
X168048088Y-136530684D01*
X168048088Y-136030684D01*
X168748088Y-136030684D01*
X168748088Y-136530684D01*
X168748088Y-136530684D01*
G37*
G36*
X101612888Y-136281884D02*
G01*
X100712888Y-136281884D01*
X100712888Y-135431884D01*
X101612888Y-135431884D01*
X101612888Y-136281884D01*
X101612888Y-136281884D01*
G37*
G36*
X103112888Y-136281884D02*
G01*
X102212888Y-136281884D01*
X102212888Y-135431884D01*
X103112888Y-135431884D01*
X103112888Y-136281884D01*
X103112888Y-136281884D01*
G37*
G36*
X168748088Y-135630684D02*
G01*
X168048088Y-135630684D01*
X168048088Y-135130684D01*
X168748088Y-135130684D01*
X168748088Y-135630684D01*
X168748088Y-135630684D01*
G37*
G36*
X100326168Y-134947284D02*
G01*
X99476168Y-134947284D01*
X99476168Y-134047284D01*
X100326168Y-134047284D01*
X100326168Y-134947284D01*
X100326168Y-134947284D01*
G37*
G36*
X102385288Y-134881764D02*
G01*
X101985288Y-134881764D01*
X101985288Y-134331764D01*
X102385288Y-134331764D01*
X102385288Y-134881764D01*
X102385288Y-134881764D01*
G37*
G36*
X101385288Y-134881764D02*
G01*
X100985288Y-134881764D01*
X100985288Y-134331764D01*
X101385288Y-134331764D01*
X101385288Y-134881764D01*
X101385288Y-134881764D01*
G37*
G36*
X102385288Y-133481764D02*
G01*
X100985288Y-133481764D01*
X100985288Y-132931764D01*
X102385288Y-132931764D01*
X102385288Y-133481764D01*
X102385288Y-133481764D01*
G37*
G36*
X100326168Y-133447284D02*
G01*
X99476168Y-133447284D01*
X99476168Y-132547284D01*
X100326168Y-132547284D01*
X100326168Y-133447284D01*
X100326168Y-133447284D01*
G37*
G36*
X80710200Y-130075417D02*
G01*
X80764067Y-130080722D01*
X80835641Y-130102434D01*
X80867746Y-130112173D01*
X80963286Y-130163240D01*
X81047038Y-130231974D01*
X81115772Y-130315726D01*
X81166839Y-130411266D01*
X81166840Y-130411270D01*
X81198290Y-130514945D01*
X81208909Y-130622764D01*
X81198290Y-130730583D01*
X81180799Y-130788243D01*
X81166839Y-130834262D01*
X81115772Y-130929802D01*
X81115770Y-130929805D01*
X81115769Y-130929806D01*
X81047038Y-131013554D01*
X81004858Y-131048171D01*
X80963286Y-131082288D01*
X80867746Y-131133355D01*
X80846021Y-131139945D01*
X80764067Y-131164806D01*
X80710200Y-131170111D01*
X80683267Y-131172764D01*
X80229229Y-131172764D01*
X80148428Y-131164806D01*
X80118095Y-131155604D01*
X80094062Y-131150823D01*
X80069558Y-131150823D01*
X80045524Y-131155603D01*
X80022885Y-131164980D01*
X80002511Y-131178594D01*
X79985184Y-131195921D01*
X79971570Y-131216295D01*
X79962193Y-131238934D01*
X79957412Y-131262967D01*
X79948290Y-131355583D01*
X79925023Y-131432282D01*
X79916839Y-131459262D01*
X79865772Y-131554802D01*
X79797038Y-131638554D01*
X79713286Y-131707288D01*
X79617746Y-131758355D01*
X79590766Y-131766539D01*
X79514067Y-131789806D01*
X79460200Y-131795111D01*
X79433267Y-131797764D01*
X78679229Y-131797764D01*
X78652296Y-131795111D01*
X78598429Y-131789806D01*
X78521730Y-131766539D01*
X78494750Y-131758355D01*
X78399210Y-131707288D01*
X78315455Y-131638552D01*
X78277874Y-131592759D01*
X78260547Y-131575432D01*
X78240172Y-131561818D01*
X78217534Y-131552440D01*
X78193500Y-131547660D01*
X78168996Y-131547660D01*
X78144963Y-131552440D01*
X78122324Y-131561818D01*
X78101950Y-131575431D01*
X78084622Y-131592759D01*
X78047041Y-131638552D01*
X77963286Y-131707288D01*
X77867746Y-131758355D01*
X77840766Y-131766539D01*
X77764067Y-131789806D01*
X77710200Y-131795111D01*
X77683267Y-131797764D01*
X76929229Y-131797764D01*
X76902296Y-131795111D01*
X76848429Y-131789806D01*
X76771730Y-131766539D01*
X76744750Y-131758355D01*
X76649210Y-131707288D01*
X76565458Y-131638554D01*
X76496724Y-131554802D01*
X76445657Y-131459262D01*
X76437473Y-131432282D01*
X76414206Y-131355583D01*
X76403587Y-131247764D01*
X76414206Y-131139945D01*
X76437473Y-131063246D01*
X76445657Y-131036266D01*
X76496724Y-130940726D01*
X76565458Y-130856974D01*
X76649210Y-130788240D01*
X76744750Y-130737173D01*
X76771730Y-130728989D01*
X76848429Y-130705722D01*
X76902296Y-130700417D01*
X76929229Y-130697764D01*
X77683267Y-130697764D01*
X77710200Y-130700417D01*
X77764067Y-130705722D01*
X77840766Y-130728989D01*
X77867746Y-130737173D01*
X77963286Y-130788240D01*
X78047041Y-130856976D01*
X78084622Y-130902769D01*
X78101949Y-130920096D01*
X78122324Y-130933710D01*
X78144962Y-130943088D01*
X78168996Y-130947868D01*
X78193500Y-130947868D01*
X78217533Y-130943088D01*
X78240172Y-130933710D01*
X78260546Y-130920097D01*
X78277874Y-130902769D01*
X78315455Y-130856976D01*
X78399210Y-130788240D01*
X78494750Y-130737173D01*
X78521730Y-130728989D01*
X78598429Y-130705722D01*
X78652296Y-130700417D01*
X78679229Y-130697764D01*
X79433267Y-130697764D01*
X79514068Y-130705722D01*
X79544401Y-130714924D01*
X79568434Y-130719705D01*
X79592938Y-130719705D01*
X79616972Y-130714925D01*
X79639611Y-130705548D01*
X79659985Y-130691934D01*
X79677312Y-130674607D01*
X79690926Y-130654233D01*
X79700303Y-130631594D01*
X79705084Y-130607561D01*
X79714206Y-130514947D01*
X79714206Y-130514945D01*
X79745656Y-130411270D01*
X79745657Y-130411266D01*
X79796724Y-130315726D01*
X79865458Y-130231974D01*
X79949210Y-130163240D01*
X80044750Y-130112173D01*
X80076855Y-130102434D01*
X80148429Y-130080722D01*
X80202296Y-130075417D01*
X80229229Y-130072764D01*
X80683267Y-130072764D01*
X80710200Y-130075417D01*
X80710200Y-130075417D01*
G37*
G36*
X141634563Y-129708545D02*
G01*
X141766504Y-129763196D01*
X141885248Y-129842539D01*
X141986233Y-129943524D01*
X142065576Y-130062268D01*
X142120227Y-130194209D01*
X142148088Y-130334276D01*
X142148088Y-130477092D01*
X142120227Y-130617159D01*
X142065576Y-130749100D01*
X141986233Y-130867844D01*
X141885248Y-130968829D01*
X141766504Y-131048172D01*
X141634563Y-131102823D01*
X141494496Y-131130684D01*
X141351680Y-131130684D01*
X141211613Y-131102823D01*
X141079672Y-131048172D01*
X140960928Y-130968829D01*
X140859943Y-130867844D01*
X140780600Y-130749100D01*
X140725949Y-130617159D01*
X140698088Y-130477092D01*
X140698088Y-130334276D01*
X140725949Y-130194209D01*
X140780600Y-130062268D01*
X140859943Y-129943524D01*
X140960928Y-129842539D01*
X141079672Y-129763196D01*
X141211613Y-129708545D01*
X141351680Y-129680684D01*
X141494496Y-129680684D01*
X141634563Y-129708545D01*
X141634563Y-129708545D01*
G37*
G36*
X144148088Y-131130684D02*
G01*
X142698088Y-131130684D01*
X142698088Y-129680684D01*
X144148088Y-129680684D01*
X144148088Y-131130684D01*
X144148088Y-131130684D01*
G37*
G36*
X82811279Y-129087559D02*
G01*
X82845167Y-129097839D01*
X82876400Y-129114534D01*
X82903774Y-129136998D01*
X82926238Y-129164372D01*
X82942933Y-129195605D01*
X82953213Y-129229493D01*
X82957288Y-129270872D01*
X82957288Y-129946096D01*
X82953213Y-129987475D01*
X82942933Y-130021363D01*
X82926238Y-130052596D01*
X82903774Y-130079970D01*
X82876400Y-130102434D01*
X82845167Y-130119129D01*
X82811279Y-130129409D01*
X82769900Y-130133484D01*
X82169676Y-130133484D01*
X82128297Y-130129409D01*
X82094409Y-130119129D01*
X82063176Y-130102434D01*
X82035802Y-130079970D01*
X82013338Y-130052596D01*
X81996643Y-130021363D01*
X81986363Y-129987475D01*
X81982288Y-129946096D01*
X81982288Y-129270872D01*
X81986363Y-129229493D01*
X81996643Y-129195605D01*
X82013338Y-129164372D01*
X82035802Y-129136998D01*
X82063176Y-129114534D01*
X82094409Y-129097839D01*
X82128297Y-129087559D01*
X82169676Y-129083484D01*
X82769900Y-129083484D01*
X82811279Y-129087559D01*
X82811279Y-129087559D01*
G37*
G36*
X84386279Y-129087559D02*
G01*
X84420167Y-129097839D01*
X84451400Y-129114534D01*
X84478774Y-129136998D01*
X84501238Y-129164372D01*
X84517933Y-129195605D01*
X84528213Y-129229493D01*
X84532288Y-129270872D01*
X84532288Y-129946096D01*
X84528213Y-129987475D01*
X84517933Y-130021363D01*
X84501238Y-130052596D01*
X84478774Y-130079970D01*
X84451400Y-130102434D01*
X84420167Y-130119129D01*
X84386279Y-130129409D01*
X84344900Y-130133484D01*
X83744676Y-130133484D01*
X83703297Y-130129409D01*
X83669409Y-130119129D01*
X83638176Y-130102434D01*
X83610802Y-130079970D01*
X83588338Y-130052596D01*
X83571643Y-130021363D01*
X83561363Y-129987475D01*
X83557288Y-129946096D01*
X83557288Y-129270872D01*
X83561363Y-129229493D01*
X83571643Y-129195605D01*
X83588338Y-129164372D01*
X83610802Y-129136998D01*
X83638176Y-129114534D01*
X83669409Y-129097839D01*
X83703297Y-129087559D01*
X83744676Y-129083484D01*
X84344900Y-129083484D01*
X84386279Y-129087559D01*
X84386279Y-129087559D01*
G37*
G36*
X105067888Y-128961284D02*
G01*
X104067888Y-128961284D01*
X104067888Y-128061284D01*
X105067888Y-128061284D01*
X105067888Y-128961284D01*
X105067888Y-128961284D01*
G37*
G36*
X102600888Y-128815484D02*
G01*
X102100888Y-128815484D01*
X102100888Y-128115484D01*
X102600888Y-128115484D01*
X102600888Y-128815484D01*
X102600888Y-128815484D01*
G37*
G36*
X101700888Y-128815484D02*
G01*
X101200888Y-128815484D01*
X101200888Y-128115484D01*
X101700888Y-128115484D01*
X101700888Y-128815484D01*
X101700888Y-128815484D01*
G37*
G36*
X81706248Y-128597764D02*
G01*
X80406248Y-128597764D01*
X80406248Y-125447764D01*
X81706248Y-125447764D01*
X81706248Y-128597764D01*
X81706248Y-128597764D01*
G37*
G36*
X98218088Y-128397284D02*
G01*
X97368088Y-128397284D01*
X97368088Y-127497284D01*
X98218088Y-127497284D01*
X98218088Y-128397284D01*
X98218088Y-128397284D01*
G37*
G36*
X90489488Y-128344684D02*
G01*
X89639488Y-128344684D01*
X89639488Y-127444684D01*
X90489488Y-127444684D01*
X90489488Y-128344684D01*
X90489488Y-128344684D01*
G37*
G36*
X153878687Y-125955027D02*
G01*
X154056274Y-125990350D01*
X154247362Y-126069502D01*
X154419336Y-126184411D01*
X154565589Y-126330664D01*
X154680498Y-126502638D01*
X154759650Y-126693726D01*
X154800000Y-126896584D01*
X154800000Y-127103416D01*
X154759650Y-127306274D01*
X154680498Y-127497362D01*
X154565589Y-127669336D01*
X154419336Y-127815589D01*
X154247362Y-127930498D01*
X154056274Y-128009650D01*
X153878687Y-128044973D01*
X153853417Y-128050000D01*
X153646583Y-128050000D01*
X153621313Y-128044973D01*
X153443726Y-128009650D01*
X153252638Y-127930498D01*
X153080664Y-127815589D01*
X152934411Y-127669336D01*
X152819502Y-127497362D01*
X152740350Y-127306274D01*
X152700000Y-127103416D01*
X152700000Y-126896584D01*
X152740350Y-126693726D01*
X152819502Y-126502638D01*
X152934411Y-126330664D01*
X153080664Y-126184411D01*
X153252638Y-126069502D01*
X153443726Y-125990350D01*
X153621313Y-125955027D01*
X153646583Y-125950000D01*
X153853417Y-125950000D01*
X153878687Y-125955027D01*
X153878687Y-125955027D01*
G37*
G36*
X163878687Y-125955027D02*
G01*
X164056274Y-125990350D01*
X164247362Y-126069502D01*
X164419336Y-126184411D01*
X164565589Y-126330664D01*
X164680498Y-126502638D01*
X164759650Y-126693726D01*
X164800000Y-126896584D01*
X164800000Y-127103416D01*
X164759650Y-127306274D01*
X164680498Y-127497362D01*
X164565589Y-127669336D01*
X164419336Y-127815589D01*
X164247362Y-127930498D01*
X164056274Y-128009650D01*
X163878687Y-128044973D01*
X163853417Y-128050000D01*
X163646583Y-128050000D01*
X163621313Y-128044973D01*
X163443726Y-128009650D01*
X163252638Y-127930498D01*
X163080664Y-127815589D01*
X162934411Y-127669336D01*
X162819502Y-127497362D01*
X162740350Y-127306274D01*
X162700000Y-127103416D01*
X162700000Y-126896584D01*
X162740350Y-126693726D01*
X162819502Y-126502638D01*
X162934411Y-126330664D01*
X163080664Y-126184411D01*
X163252638Y-126069502D01*
X163443726Y-125990350D01*
X163621313Y-125955027D01*
X163646583Y-125950000D01*
X163853417Y-125950000D01*
X163878687Y-125955027D01*
X163878687Y-125955027D01*
G37*
G36*
X107067888Y-128011284D02*
G01*
X106067888Y-128011284D01*
X106067888Y-127111284D01*
X107067888Y-127111284D01*
X107067888Y-128011284D01*
X107067888Y-128011284D01*
G37*
G36*
X82669109Y-127418764D02*
G01*
X82119109Y-127418764D01*
X82119109Y-126918764D01*
X82669109Y-126918764D01*
X82669109Y-127418764D01*
X82669109Y-127418764D01*
G37*
G36*
X113039085Y-125313964D02*
G01*
X113050510Y-125315089D01*
X113111772Y-125333673D01*
X113173035Y-125352257D01*
X113285955Y-125412614D01*
X113384931Y-125493841D01*
X113466158Y-125592816D01*
X113526515Y-125705736D01*
X113563683Y-125828262D01*
X113573088Y-125923752D01*
X113573088Y-126487616D01*
X113563683Y-126583106D01*
X113526515Y-126705632D01*
X113466158Y-126818552D01*
X113384931Y-126917527D01*
X113285956Y-126998754D01*
X113173036Y-127059111D01*
X113111773Y-127077695D01*
X113050511Y-127096279D01*
X113039086Y-127097404D01*
X112923088Y-127108829D01*
X112807091Y-127097404D01*
X112795666Y-127096279D01*
X112734404Y-127077695D01*
X112673141Y-127059111D01*
X112560221Y-126998754D01*
X112461246Y-126917527D01*
X112380018Y-126818552D01*
X112319661Y-126705632D01*
X112282493Y-126583106D01*
X112273088Y-126487616D01*
X112273088Y-125923753D01*
X112282493Y-125828263D01*
X112282494Y-125828261D01*
X112319661Y-125705738D01*
X112319661Y-125705737D01*
X112380018Y-125592817D01*
X112461245Y-125493841D01*
X112560220Y-125412614D01*
X112673140Y-125352257D01*
X112734403Y-125333673D01*
X112795665Y-125315089D01*
X112807090Y-125313964D01*
X112923088Y-125302539D01*
X113039085Y-125313964D01*
X113039085Y-125313964D01*
G37*
G36*
X111573088Y-127105684D02*
G01*
X110273088Y-127105684D01*
X110273088Y-125305684D01*
X111573088Y-125305684D01*
X111573088Y-127105684D01*
X111573088Y-127105684D01*
G37*
G36*
X117549940Y-125494888D02*
G01*
X117697713Y-125556098D01*
X117697714Y-125556099D01*
X117830708Y-125644962D01*
X117943810Y-125758064D01*
X117990714Y-125828261D01*
X118032674Y-125891059D01*
X118093884Y-126038832D01*
X118125088Y-126195708D01*
X118125088Y-126355660D01*
X118093884Y-126512536D01*
X118032674Y-126660309D01*
X118032673Y-126660310D01*
X117943810Y-126793304D01*
X117830708Y-126906406D01*
X117741844Y-126965783D01*
X117697713Y-126995270D01*
X117549940Y-127056480D01*
X117393064Y-127087684D01*
X117233112Y-127087684D01*
X117076236Y-127056480D01*
X116928463Y-126995270D01*
X116884332Y-126965783D01*
X116795468Y-126906406D01*
X116682366Y-126793304D01*
X116593503Y-126660310D01*
X116593502Y-126660309D01*
X116532292Y-126512536D01*
X116501088Y-126355660D01*
X116501088Y-126195708D01*
X116532292Y-126038832D01*
X116593502Y-125891059D01*
X116635462Y-125828261D01*
X116682366Y-125758064D01*
X116795468Y-125644962D01*
X116928462Y-125556099D01*
X116928463Y-125556098D01*
X117076236Y-125494888D01*
X117233112Y-125463684D01*
X117393064Y-125463684D01*
X117549940Y-125494888D01*
X117549940Y-125494888D01*
G37*
G36*
X105067888Y-127061284D02*
G01*
X104067888Y-127061284D01*
X104067888Y-126161284D01*
X105067888Y-126161284D01*
X105067888Y-127061284D01*
X105067888Y-127061284D01*
G37*
G36*
X99692380Y-127021412D02*
G01*
X98942380Y-127021412D01*
X98942380Y-125861412D01*
X99692380Y-125861412D01*
X99692380Y-127021412D01*
X99692380Y-127021412D01*
G37*
G36*
X101592380Y-127021412D02*
G01*
X100842380Y-127021412D01*
X100842380Y-125861412D01*
X101592380Y-125861412D01*
X101592380Y-127021412D01*
X101592380Y-127021412D01*
G37*
G36*
X83674107Y-127018764D02*
G01*
X83124107Y-127018764D01*
X83124107Y-126518764D01*
X83674107Y-126518764D01*
X83674107Y-127018764D01*
X83674107Y-127018764D01*
G37*
G36*
X98218088Y-126897284D02*
G01*
X97368088Y-126897284D01*
X97368088Y-125997284D01*
X98218088Y-125997284D01*
X98218088Y-126897284D01*
X98218088Y-126897284D01*
G37*
G36*
X90489488Y-126844684D02*
G01*
X89639488Y-126844684D01*
X89639488Y-125944684D01*
X90489488Y-125944684D01*
X90489488Y-126844684D01*
X90489488Y-126844684D01*
G37*
G36*
X103060860Y-126798332D02*
G01*
X102360860Y-126798332D01*
X102360860Y-126298332D01*
X103060860Y-126298332D01*
X103060860Y-126798332D01*
X103060860Y-126798332D01*
G37*
G36*
X82669109Y-126618764D02*
G01*
X82119109Y-126618764D01*
X82119109Y-126118764D01*
X82669109Y-126118764D01*
X82669109Y-126618764D01*
X82669109Y-126618764D01*
G37*
G36*
X103060860Y-125898332D02*
G01*
X102360860Y-125898332D01*
X102360860Y-125398332D01*
X103060860Y-125398332D01*
X103060860Y-125898332D01*
X103060860Y-125898332D01*
G37*
G36*
X104927288Y-125416964D02*
G01*
X104227288Y-125416964D01*
X104227288Y-124916964D01*
X104927288Y-124916964D01*
X104927288Y-125416964D01*
X104927288Y-125416964D01*
G37*
G36*
X87188288Y-125127684D02*
G01*
X86188288Y-125127684D01*
X86188288Y-123827684D01*
X87188288Y-123827684D01*
X87188288Y-125127684D01*
X87188288Y-125127684D01*
G37*
G36*
X90488288Y-125127684D02*
G01*
X89488288Y-125127684D01*
X89488288Y-123827684D01*
X90488288Y-123827684D01*
X90488288Y-125127684D01*
X90488288Y-125127684D01*
G37*
G36*
X101592380Y-124821412D02*
G01*
X98942380Y-124821412D01*
X98942380Y-123661412D01*
X101592380Y-123661412D01*
X101592380Y-124821412D01*
X101592380Y-124821412D01*
G37*
G36*
X104927288Y-124516964D02*
G01*
X104227288Y-124516964D01*
X104227288Y-124016964D01*
X104927288Y-124016964D01*
X104927288Y-124516964D01*
X104927288Y-124516964D01*
G37*
G36*
X105913568Y-124495884D02*
G01*
X105413568Y-124495884D01*
X105413568Y-123795884D01*
X105913568Y-123795884D01*
X105913568Y-124495884D01*
X105913568Y-124495884D01*
G37*
G36*
X106813568Y-124495884D02*
G01*
X106313568Y-124495884D01*
X106313568Y-123795884D01*
X106813568Y-123795884D01*
X106813568Y-124495884D01*
X106813568Y-124495884D01*
G37*
G36*
X82465839Y-123392879D02*
G01*
X82499727Y-123403159D01*
X82530960Y-123419854D01*
X82558334Y-123442318D01*
X82580798Y-123469692D01*
X82597493Y-123500925D01*
X82607773Y-123534813D01*
X82611848Y-123576192D01*
X82611848Y-124251416D01*
X82607773Y-124292795D01*
X82597493Y-124326683D01*
X82580798Y-124357916D01*
X82558334Y-124385290D01*
X82530960Y-124407754D01*
X82499727Y-124424449D01*
X82465839Y-124434729D01*
X82424460Y-124438804D01*
X81824236Y-124438804D01*
X81782857Y-124434729D01*
X81748969Y-124424449D01*
X81717736Y-124407754D01*
X81690362Y-124385290D01*
X81667898Y-124357916D01*
X81651203Y-124326683D01*
X81640923Y-124292795D01*
X81636848Y-124251416D01*
X81636848Y-123576192D01*
X81640923Y-123534813D01*
X81651203Y-123500925D01*
X81667898Y-123469692D01*
X81690362Y-123442318D01*
X81717736Y-123419854D01*
X81748969Y-123403159D01*
X81782857Y-123392879D01*
X81824236Y-123388804D01*
X82424460Y-123388804D01*
X82465839Y-123392879D01*
X82465839Y-123392879D01*
G37*
G36*
X84040839Y-123392879D02*
G01*
X84074727Y-123403159D01*
X84105960Y-123419854D01*
X84133334Y-123442318D01*
X84155798Y-123469692D01*
X84172493Y-123500925D01*
X84182773Y-123534813D01*
X84186848Y-123576192D01*
X84186848Y-124251416D01*
X84182773Y-124292795D01*
X84172493Y-124326683D01*
X84155798Y-124357916D01*
X84133334Y-124385290D01*
X84105960Y-124407754D01*
X84074727Y-124424449D01*
X84040839Y-124434729D01*
X83999460Y-124438804D01*
X83399236Y-124438804D01*
X83357857Y-124434729D01*
X83323969Y-124424449D01*
X83292736Y-124407754D01*
X83265362Y-124385290D01*
X83242898Y-124357916D01*
X83226203Y-124326683D01*
X83215923Y-124292795D01*
X83211848Y-124251416D01*
X83211848Y-123576192D01*
X83215923Y-123534813D01*
X83226203Y-123500925D01*
X83242898Y-123469692D01*
X83265362Y-123442318D01*
X83292736Y-123419854D01*
X83323969Y-123403159D01*
X83357857Y-123392879D01*
X83399236Y-123388804D01*
X83999460Y-123388804D01*
X84040839Y-123392879D01*
X84040839Y-123392879D01*
G37*
G36*
X77710200Y-122250417D02*
G01*
X77764067Y-122255722D01*
X77840766Y-122278989D01*
X77867746Y-122287173D01*
X77963286Y-122338240D01*
X78047041Y-122406976D01*
X78084622Y-122452769D01*
X78101949Y-122470096D01*
X78122324Y-122483710D01*
X78144962Y-122493088D01*
X78168996Y-122497868D01*
X78193500Y-122497868D01*
X78217533Y-122493088D01*
X78240172Y-122483710D01*
X78260546Y-122470097D01*
X78277874Y-122452769D01*
X78315455Y-122406976D01*
X78399210Y-122338240D01*
X78494750Y-122287173D01*
X78521730Y-122278989D01*
X78598429Y-122255722D01*
X78652296Y-122250417D01*
X78679229Y-122247764D01*
X79433267Y-122247764D01*
X79460200Y-122250417D01*
X79514067Y-122255722D01*
X79590766Y-122278989D01*
X79617746Y-122287173D01*
X79713286Y-122338240D01*
X79713289Y-122338242D01*
X79713290Y-122338243D01*
X79797038Y-122406974D01*
X79844361Y-122464636D01*
X79865772Y-122490726D01*
X79916839Y-122586266D01*
X79916840Y-122586270D01*
X79948290Y-122689945D01*
X79948290Y-122689947D01*
X79957412Y-122782561D01*
X79962193Y-122806594D01*
X79971570Y-122829233D01*
X79985184Y-122849607D01*
X80002511Y-122866934D01*
X80022885Y-122880548D01*
X80045524Y-122889925D01*
X80069558Y-122894705D01*
X80094062Y-122894705D01*
X80118095Y-122889924D01*
X80148428Y-122880722D01*
X80229229Y-122872764D01*
X80683267Y-122872764D01*
X80710200Y-122875417D01*
X80764067Y-122880722D01*
X80840766Y-122903989D01*
X80867746Y-122912173D01*
X80963286Y-122963240D01*
X80963289Y-122963242D01*
X80963290Y-122963243D01*
X81047038Y-123031974D01*
X81104869Y-123102440D01*
X81115772Y-123115726D01*
X81166839Y-123211266D01*
X81166840Y-123211270D01*
X81198290Y-123314945D01*
X81208909Y-123422764D01*
X81198290Y-123530583D01*
X81195653Y-123539275D01*
X81166839Y-123634262D01*
X81115772Y-123729802D01*
X81047038Y-123813554D01*
X80963286Y-123882288D01*
X80867746Y-123933355D01*
X80840766Y-123941539D01*
X80764067Y-123964806D01*
X80710200Y-123970111D01*
X80683267Y-123972764D01*
X80229229Y-123972764D01*
X80202296Y-123970111D01*
X80148429Y-123964806D01*
X80071730Y-123941539D01*
X80044750Y-123933355D01*
X79949210Y-123882288D01*
X79865458Y-123813554D01*
X79796724Y-123729802D01*
X79745657Y-123634262D01*
X79716843Y-123539275D01*
X79714206Y-123530583D01*
X79705084Y-123437967D01*
X79700303Y-123413934D01*
X79690926Y-123391295D01*
X79677312Y-123370921D01*
X79659985Y-123353594D01*
X79639611Y-123339980D01*
X79616972Y-123330603D01*
X79592938Y-123325823D01*
X79568434Y-123325823D01*
X79544401Y-123330604D01*
X79514068Y-123339806D01*
X79433267Y-123347764D01*
X78679229Y-123347764D01*
X78652296Y-123345111D01*
X78598429Y-123339806D01*
X78516475Y-123314945D01*
X78494750Y-123308355D01*
X78399210Y-123257288D01*
X78315455Y-123188552D01*
X78277874Y-123142759D01*
X78260547Y-123125432D01*
X78240172Y-123111818D01*
X78217534Y-123102440D01*
X78193500Y-123097660D01*
X78168996Y-123097660D01*
X78144963Y-123102440D01*
X78122324Y-123111818D01*
X78101950Y-123125431D01*
X78084622Y-123142759D01*
X78047041Y-123188552D01*
X77963286Y-123257288D01*
X77867746Y-123308355D01*
X77846021Y-123314945D01*
X77764067Y-123339806D01*
X77710200Y-123345111D01*
X77683267Y-123347764D01*
X76929229Y-123347764D01*
X76902296Y-123345111D01*
X76848429Y-123339806D01*
X76766475Y-123314945D01*
X76744750Y-123308355D01*
X76649210Y-123257288D01*
X76565458Y-123188554D01*
X76496724Y-123104802D01*
X76445657Y-123009262D01*
X76431697Y-122963243D01*
X76414206Y-122905583D01*
X76403587Y-122797764D01*
X76414206Y-122689945D01*
X76445656Y-122586270D01*
X76445657Y-122586266D01*
X76496724Y-122490726D01*
X76518136Y-122464636D01*
X76565458Y-122406974D01*
X76649206Y-122338243D01*
X76649207Y-122338242D01*
X76649210Y-122338240D01*
X76744750Y-122287173D01*
X76771730Y-122278989D01*
X76848429Y-122255722D01*
X76902296Y-122250417D01*
X76929229Y-122247764D01*
X77683267Y-122247764D01*
X77710200Y-122250417D01*
X77710200Y-122250417D01*
G37*
G36*
X110933088Y-123625084D02*
G01*
X109933088Y-123625084D01*
X109933088Y-121825084D01*
X110933088Y-121825084D01*
X110933088Y-123625084D01*
X110933088Y-123625084D01*
G37*
G36*
X113833088Y-123625084D02*
G01*
X112833088Y-123625084D01*
X112833088Y-121825084D01*
X113833088Y-121825084D01*
X113833088Y-123625084D01*
X113833088Y-123625084D01*
G37*
G36*
X100725688Y-122934484D02*
G01*
X99875688Y-122934484D01*
X99875688Y-122034484D01*
X100725688Y-122034484D01*
X100725688Y-122934484D01*
X100725688Y-122934484D01*
G37*
G36*
X85267088Y-122871884D02*
G01*
X84767088Y-122871884D01*
X84767088Y-122171884D01*
X85267088Y-122171884D01*
X85267088Y-122871884D01*
X85267088Y-122871884D01*
G37*
G36*
X86167088Y-122871884D02*
G01*
X85667088Y-122871884D01*
X85667088Y-122171884D01*
X86167088Y-122171884D01*
X86167088Y-122871884D01*
X86167088Y-122871884D01*
G37*
G36*
X136306439Y-120986427D02*
G01*
X136452029Y-121046732D01*
X136583058Y-121134283D01*
X136694489Y-121245714D01*
X136782040Y-121376743D01*
X136842345Y-121522333D01*
X136873088Y-121676890D01*
X136873088Y-121834478D01*
X136842345Y-121989035D01*
X136782040Y-122134625D01*
X136694489Y-122265654D01*
X136583058Y-122377085D01*
X136452029Y-122464636D01*
X136306439Y-122524941D01*
X136151882Y-122555684D01*
X135994294Y-122555684D01*
X135839737Y-122524941D01*
X135694147Y-122464636D01*
X135563118Y-122377085D01*
X135451687Y-122265654D01*
X135364136Y-122134625D01*
X135303831Y-121989035D01*
X135273088Y-121834478D01*
X135273088Y-121676890D01*
X135303831Y-121522333D01*
X135364136Y-121376743D01*
X135451687Y-121245714D01*
X135563118Y-121134283D01*
X135694147Y-121046732D01*
X135839737Y-120986427D01*
X135994294Y-120955684D01*
X136151882Y-120955684D01*
X136306439Y-120986427D01*
X136306439Y-120986427D01*
G37*
G36*
X83780008Y-121973524D02*
G01*
X83080008Y-121973524D01*
X83080008Y-121373524D01*
X83780008Y-121373524D01*
X83780008Y-121973524D01*
X83780008Y-121973524D01*
G37*
G36*
X82680008Y-121973524D02*
G01*
X81980008Y-121973524D01*
X81980008Y-121373524D01*
X82680008Y-121373524D01*
X82680008Y-121973524D01*
X82680008Y-121973524D01*
G37*
G36*
X86141688Y-121652684D02*
G01*
X85641688Y-121652684D01*
X85641688Y-120952684D01*
X86141688Y-120952684D01*
X86141688Y-121652684D01*
X86141688Y-121652684D01*
G37*
G36*
X85241688Y-121652684D02*
G01*
X84741688Y-121652684D01*
X84741688Y-120952684D01*
X85241688Y-120952684D01*
X85241688Y-121652684D01*
X85241688Y-121652684D01*
G37*
G36*
X100725688Y-121434484D02*
G01*
X99875688Y-121434484D01*
X99875688Y-120534484D01*
X100725688Y-120534484D01*
X100725688Y-121434484D01*
X100725688Y-121434484D01*
G37*
G36*
X117200508Y-120606384D02*
G01*
X116700508Y-120606384D01*
X116700508Y-119906384D01*
X117200508Y-119906384D01*
X117200508Y-120606384D01*
X117200508Y-120606384D01*
G37*
G36*
X118100508Y-120606384D02*
G01*
X117600508Y-120606384D01*
X117600508Y-119906384D01*
X118100508Y-119906384D01*
X118100508Y-120606384D01*
X118100508Y-120606384D01*
G37*
G36*
X114786940Y-118362888D02*
G01*
X114934713Y-118424098D01*
X114934714Y-118424099D01*
X115067708Y-118512962D01*
X115180810Y-118626064D01*
X115240187Y-118714928D01*
X115269674Y-118759059D01*
X115330884Y-118906832D01*
X115362088Y-119063708D01*
X115362088Y-119223660D01*
X115330884Y-119380536D01*
X115269674Y-119528309D01*
X115269673Y-119528310D01*
X115180810Y-119661304D01*
X115067708Y-119774406D01*
X114978844Y-119833783D01*
X114934713Y-119863270D01*
X114786940Y-119924480D01*
X114630064Y-119955684D01*
X114470112Y-119955684D01*
X114313236Y-119924480D01*
X114165463Y-119863270D01*
X114121332Y-119833783D01*
X114032468Y-119774406D01*
X113919366Y-119661304D01*
X113830503Y-119528310D01*
X113830502Y-119528309D01*
X113769292Y-119380536D01*
X113738088Y-119223660D01*
X113738088Y-119063708D01*
X113769292Y-118906832D01*
X113830502Y-118759059D01*
X113859989Y-118714928D01*
X113919366Y-118626064D01*
X114032468Y-118512962D01*
X114165462Y-118424099D01*
X114165463Y-118424098D01*
X114313236Y-118362888D01*
X114470112Y-118331684D01*
X114630064Y-118331684D01*
X114786940Y-118362888D01*
X114786940Y-118362888D01*
G37*
G36*
X117200508Y-119413384D02*
G01*
X116500508Y-119413384D01*
X116500508Y-118813384D01*
X117200508Y-118813384D01*
X117200508Y-119413384D01*
X117200508Y-119413384D01*
G37*
G36*
X118300508Y-119413384D02*
G01*
X117600508Y-119413384D01*
X117600508Y-118813384D01*
X118300508Y-118813384D01*
X118300508Y-119413384D01*
X118300508Y-119413384D01*
G37*
G36*
X117200508Y-118320384D02*
G01*
X116700508Y-118320384D01*
X116700508Y-117620384D01*
X117200508Y-117620384D01*
X117200508Y-118320384D01*
X117200508Y-118320384D01*
G37*
G36*
X118100508Y-118320384D02*
G01*
X117600508Y-118320384D01*
X117600508Y-117620384D01*
X118100508Y-117620384D01*
X118100508Y-118320384D01*
X118100508Y-118320384D01*
G37*
G36*
X138456439Y-116636427D02*
G01*
X138602029Y-116696732D01*
X138733058Y-116784283D01*
X138844489Y-116895714D01*
X138932040Y-117026743D01*
X138992345Y-117172333D01*
X139023088Y-117326890D01*
X139023088Y-117484478D01*
X138992345Y-117639035D01*
X138932040Y-117784625D01*
X138844489Y-117915654D01*
X138733058Y-118027085D01*
X138602029Y-118114636D01*
X138456439Y-118174941D01*
X138301882Y-118205684D01*
X138144294Y-118205684D01*
X137989737Y-118174941D01*
X137844147Y-118114636D01*
X137713118Y-118027085D01*
X137601687Y-117915654D01*
X137514136Y-117784625D01*
X137453831Y-117639035D01*
X137423088Y-117484478D01*
X137423088Y-117326890D01*
X137453831Y-117172333D01*
X137514136Y-117026743D01*
X137601687Y-116895714D01*
X137713118Y-116784283D01*
X137844147Y-116696732D01*
X137989737Y-116636427D01*
X138144294Y-116605684D01*
X138301882Y-116605684D01*
X138456439Y-116636427D01*
X138456439Y-116636427D01*
G37*
G36*
X136456439Y-116636427D02*
G01*
X136602029Y-116696732D01*
X136733058Y-116784283D01*
X136844489Y-116895714D01*
X136932040Y-117026743D01*
X136992345Y-117172333D01*
X137023088Y-117326890D01*
X137023088Y-117484478D01*
X136992345Y-117639035D01*
X136932040Y-117784625D01*
X136844489Y-117915654D01*
X136733058Y-118027085D01*
X136602029Y-118114636D01*
X136456439Y-118174941D01*
X136301882Y-118205684D01*
X136144294Y-118205684D01*
X135989737Y-118174941D01*
X135844147Y-118114636D01*
X135713118Y-118027085D01*
X135601687Y-117915654D01*
X135514136Y-117784625D01*
X135453831Y-117639035D01*
X135423088Y-117484478D01*
X135423088Y-117326890D01*
X135453831Y-117172333D01*
X135514136Y-117026743D01*
X135601687Y-116895714D01*
X135713118Y-116784283D01*
X135844147Y-116696732D01*
X135989737Y-116636427D01*
X136144294Y-116605684D01*
X136301882Y-116605684D01*
X136456439Y-116636427D01*
X136456439Y-116636427D01*
G37*
G36*
X132156439Y-116336427D02*
G01*
X132302029Y-116396732D01*
X132433058Y-116484283D01*
X132544489Y-116595714D01*
X132632040Y-116726743D01*
X132692345Y-116872333D01*
X132723088Y-117026890D01*
X132723088Y-117184478D01*
X132692345Y-117339035D01*
X132632040Y-117484625D01*
X132544489Y-117615654D01*
X132433058Y-117727085D01*
X132302029Y-117814636D01*
X132156439Y-117874941D01*
X132001882Y-117905684D01*
X131844294Y-117905684D01*
X131689737Y-117874941D01*
X131544147Y-117814636D01*
X131413118Y-117727085D01*
X131301687Y-117615654D01*
X131214136Y-117484625D01*
X131153831Y-117339035D01*
X131123088Y-117184478D01*
X131123088Y-117026890D01*
X131153831Y-116872333D01*
X131214136Y-116726743D01*
X131301687Y-116595714D01*
X131413118Y-116484283D01*
X131544147Y-116396732D01*
X131689737Y-116336427D01*
X131844294Y-116305684D01*
X132001882Y-116305684D01*
X132156439Y-116336427D01*
X132156439Y-116336427D01*
G37*
G36*
X131866439Y-114416427D02*
G01*
X132012029Y-114476732D01*
X132143058Y-114564283D01*
X132254489Y-114675714D01*
X132342040Y-114806743D01*
X132402345Y-114952333D01*
X132433088Y-115106890D01*
X132433088Y-115264478D01*
X132402345Y-115419035D01*
X132342040Y-115564625D01*
X132254489Y-115695654D01*
X132143058Y-115807085D01*
X132012029Y-115894636D01*
X131866439Y-115954941D01*
X131711882Y-115985684D01*
X131554294Y-115985684D01*
X131399737Y-115954941D01*
X131254147Y-115894636D01*
X131123118Y-115807085D01*
X131011687Y-115695654D01*
X130924136Y-115564625D01*
X130863831Y-115419035D01*
X130833088Y-115264478D01*
X130833088Y-115106890D01*
X130863831Y-114952333D01*
X130924136Y-114806743D01*
X131011687Y-114675714D01*
X131123118Y-114564283D01*
X131254147Y-114476732D01*
X131399737Y-114416427D01*
X131554294Y-114385684D01*
X131711882Y-114385684D01*
X131866439Y-114416427D01*
X131866439Y-114416427D01*
G37*
G36*
X89254940Y-112216488D02*
G01*
X89402713Y-112277698D01*
X89402714Y-112277699D01*
X89535708Y-112366562D01*
X89648810Y-112479664D01*
X89659534Y-112495714D01*
X89737674Y-112612659D01*
X89798884Y-112760432D01*
X89830088Y-112917308D01*
X89830088Y-113077260D01*
X89798884Y-113234136D01*
X89737674Y-113381909D01*
X89708187Y-113426040D01*
X89648810Y-113514904D01*
X89535708Y-113628006D01*
X89446844Y-113687383D01*
X89402713Y-113716870D01*
X89254940Y-113778080D01*
X89098064Y-113809284D01*
X88938112Y-113809284D01*
X88781236Y-113778080D01*
X88633463Y-113716870D01*
X88589332Y-113687383D01*
X88500468Y-113628006D01*
X88387366Y-113514904D01*
X88327989Y-113426040D01*
X88298502Y-113381909D01*
X88237292Y-113234136D01*
X88206088Y-113077260D01*
X88206088Y-112917308D01*
X88237292Y-112760432D01*
X88298502Y-112612659D01*
X88376642Y-112495714D01*
X88387366Y-112479664D01*
X88500468Y-112366562D01*
X88633462Y-112277699D01*
X88633463Y-112277698D01*
X88781236Y-112216488D01*
X88938112Y-112185284D01*
X89098064Y-112185284D01*
X89254940Y-112216488D01*
X89254940Y-112216488D01*
G37*
G36*
X140106439Y-112236427D02*
G01*
X140252029Y-112296732D01*
X140383058Y-112384283D01*
X140494489Y-112495714D01*
X140582040Y-112626743D01*
X140642345Y-112772333D01*
X140673088Y-112926890D01*
X140673088Y-113084478D01*
X140642345Y-113239035D01*
X140582040Y-113384625D01*
X140494489Y-113515654D01*
X140383058Y-113627085D01*
X140252029Y-113714636D01*
X140106439Y-113774941D01*
X139951882Y-113805684D01*
X139794294Y-113805684D01*
X139639737Y-113774941D01*
X139494147Y-113714636D01*
X139363118Y-113627085D01*
X139251687Y-113515654D01*
X139164136Y-113384625D01*
X139103831Y-113239035D01*
X139073088Y-113084478D01*
X139073088Y-112926890D01*
X139103831Y-112772333D01*
X139164136Y-112626743D01*
X139251687Y-112495714D01*
X139363118Y-112384283D01*
X139494147Y-112296732D01*
X139639737Y-112236427D01*
X139794294Y-112205684D01*
X139951882Y-112205684D01*
X140106439Y-112236427D01*
X140106439Y-112236427D01*
G37*
G36*
X144250940Y-109980888D02*
G01*
X144398713Y-110042098D01*
X144398714Y-110042099D01*
X144531708Y-110130962D01*
X144644810Y-110244064D01*
X144704187Y-110332928D01*
X144733674Y-110377059D01*
X144794884Y-110524832D01*
X144826088Y-110681708D01*
X144826088Y-110841660D01*
X144794884Y-110998536D01*
X144733674Y-111146309D01*
X144733673Y-111146310D01*
X144644810Y-111279304D01*
X144531708Y-111392406D01*
X144442844Y-111451783D01*
X144398713Y-111481270D01*
X144250940Y-111542480D01*
X144094064Y-111573684D01*
X143934112Y-111573684D01*
X143777236Y-111542480D01*
X143629463Y-111481270D01*
X143585332Y-111451783D01*
X143496468Y-111392406D01*
X143383366Y-111279304D01*
X143294503Y-111146310D01*
X143294502Y-111146309D01*
X143233292Y-110998536D01*
X143202088Y-110841660D01*
X143202088Y-110681708D01*
X143233292Y-110524832D01*
X143294502Y-110377059D01*
X143323989Y-110332928D01*
X143383366Y-110244064D01*
X143496468Y-110130962D01*
X143629462Y-110042099D01*
X143629463Y-110042098D01*
X143777236Y-109980888D01*
X143934112Y-109949684D01*
X144094064Y-109949684D01*
X144250940Y-109980888D01*
X144250940Y-109980888D01*
G37*
G36*
X108159940Y-109904888D02*
G01*
X108307713Y-109966098D01*
X108329849Y-109980889D01*
X108440708Y-110054962D01*
X108553810Y-110168064D01*
X108604591Y-110244064D01*
X108642674Y-110301059D01*
X108703884Y-110448832D01*
X108735088Y-110605708D01*
X108735088Y-110765660D01*
X108703884Y-110922536D01*
X108642674Y-111070309D01*
X108642673Y-111070310D01*
X108553810Y-111203304D01*
X108440708Y-111316406D01*
X108351844Y-111375783D01*
X108307713Y-111405270D01*
X108159940Y-111466480D01*
X108003064Y-111497684D01*
X107843112Y-111497684D01*
X107686236Y-111466480D01*
X107538463Y-111405270D01*
X107494332Y-111375783D01*
X107405468Y-111316406D01*
X107292366Y-111203304D01*
X107203503Y-111070310D01*
X107203502Y-111070309D01*
X107142292Y-110922536D01*
X107111088Y-110765660D01*
X107111088Y-110605708D01*
X107142292Y-110448832D01*
X107203502Y-110301059D01*
X107241585Y-110244064D01*
X107292366Y-110168064D01*
X107405468Y-110054962D01*
X107516327Y-109980889D01*
X107538463Y-109966098D01*
X107686236Y-109904888D01*
X107843112Y-109873684D01*
X108003064Y-109873684D01*
X108159940Y-109904888D01*
X108159940Y-109904888D01*
G37*
G36*
X160339940Y-107934888D02*
G01*
X160487713Y-107996098D01*
X160488663Y-107996733D01*
X160620708Y-108084962D01*
X160733810Y-108198064D01*
X160793187Y-108286928D01*
X160822674Y-108331059D01*
X160883884Y-108478832D01*
X160915088Y-108635708D01*
X160915088Y-108795660D01*
X160883884Y-108952536D01*
X160822674Y-109100309D01*
X160822673Y-109100310D01*
X160733810Y-109233304D01*
X160620708Y-109346406D01*
X160531844Y-109405783D01*
X160487713Y-109435270D01*
X160339940Y-109496480D01*
X160183064Y-109527684D01*
X160023112Y-109527684D01*
X159866236Y-109496480D01*
X159718463Y-109435270D01*
X159674332Y-109405783D01*
X159585468Y-109346406D01*
X159472366Y-109233304D01*
X159383503Y-109100310D01*
X159383502Y-109100309D01*
X159322292Y-108952536D01*
X159291088Y-108795660D01*
X159291088Y-108635708D01*
X159322292Y-108478832D01*
X159383502Y-108331059D01*
X159412989Y-108286928D01*
X159472366Y-108198064D01*
X159585468Y-108084962D01*
X159717513Y-107996733D01*
X159718463Y-107996098D01*
X159866236Y-107934888D01*
X160023112Y-107903684D01*
X160183064Y-107903684D01*
X160339940Y-107934888D01*
X160339940Y-107934888D01*
G37*
G36*
X144956439Y-107936427D02*
G01*
X145102029Y-107996732D01*
X145233058Y-108084283D01*
X145344489Y-108195714D01*
X145432040Y-108326743D01*
X145492345Y-108472333D01*
X145523088Y-108626890D01*
X145523088Y-108784478D01*
X145492345Y-108939035D01*
X145432040Y-109084625D01*
X145344489Y-109215654D01*
X145233058Y-109327085D01*
X145102029Y-109414636D01*
X144956439Y-109474941D01*
X144801882Y-109505684D01*
X144644294Y-109505684D01*
X144489737Y-109474941D01*
X144344147Y-109414636D01*
X144213118Y-109327085D01*
X144101687Y-109215654D01*
X144014136Y-109084625D01*
X143953831Y-108939035D01*
X143923088Y-108784478D01*
X143923088Y-108626890D01*
X143953831Y-108472333D01*
X144014136Y-108326743D01*
X144101687Y-108195714D01*
X144213118Y-108084283D01*
X144344147Y-107996732D01*
X144489737Y-107936427D01*
X144644294Y-107905684D01*
X144801882Y-107905684D01*
X144956439Y-107936427D01*
X144956439Y-107936427D01*
G37*
G36*
X108659940Y-107824888D02*
G01*
X108807713Y-107886098D01*
X108807714Y-107886099D01*
X108940708Y-107974962D01*
X109053810Y-108088064D01*
X109113187Y-108176928D01*
X109142674Y-108221059D01*
X109203884Y-108368832D01*
X109235088Y-108525708D01*
X109235088Y-108685660D01*
X109203884Y-108842536D01*
X109142674Y-108990309D01*
X109142673Y-108990310D01*
X109053810Y-109123304D01*
X108940708Y-109236406D01*
X108851844Y-109295783D01*
X108807713Y-109325270D01*
X108659940Y-109386480D01*
X108503064Y-109417684D01*
X108343112Y-109417684D01*
X108186236Y-109386480D01*
X108038463Y-109325270D01*
X107994332Y-109295783D01*
X107905468Y-109236406D01*
X107792366Y-109123304D01*
X107703503Y-108990310D01*
X107703502Y-108990309D01*
X107642292Y-108842536D01*
X107611088Y-108685660D01*
X107611088Y-108525708D01*
X107642292Y-108368832D01*
X107703502Y-108221059D01*
X107732989Y-108176928D01*
X107792366Y-108088064D01*
X107905468Y-107974962D01*
X108038462Y-107886099D01*
X108038463Y-107886098D01*
X108186236Y-107824888D01*
X108343112Y-107793684D01*
X108503064Y-107793684D01*
X108659940Y-107824888D01*
X108659940Y-107824888D01*
G37*
G36*
X110059940Y-105824888D02*
G01*
X110207713Y-105886098D01*
X110207714Y-105886099D01*
X110340708Y-105974962D01*
X110453810Y-106088064D01*
X110513187Y-106176928D01*
X110542674Y-106221059D01*
X110603884Y-106368832D01*
X110635088Y-106525708D01*
X110635088Y-106685660D01*
X110603884Y-106842536D01*
X110542674Y-106990309D01*
X110542673Y-106990310D01*
X110453810Y-107123304D01*
X110340708Y-107236406D01*
X110251844Y-107295783D01*
X110207713Y-107325270D01*
X110059940Y-107386480D01*
X109903064Y-107417684D01*
X109743112Y-107417684D01*
X109586236Y-107386480D01*
X109438463Y-107325270D01*
X109394332Y-107295783D01*
X109305468Y-107236406D01*
X109192366Y-107123304D01*
X109103503Y-106990310D01*
X109103502Y-106990309D01*
X109042292Y-106842536D01*
X109011088Y-106685660D01*
X109011088Y-106525708D01*
X109042292Y-106368832D01*
X109103502Y-106221059D01*
X109132989Y-106176928D01*
X109192366Y-106088064D01*
X109305468Y-105974962D01*
X109438462Y-105886099D01*
X109438463Y-105886098D01*
X109586236Y-105824888D01*
X109743112Y-105793684D01*
X109903064Y-105793684D01*
X110059940Y-105824888D01*
X110059940Y-105824888D01*
G37*
G36*
X112659940Y-105224888D02*
G01*
X112807713Y-105286098D01*
X112807714Y-105286099D01*
X112940708Y-105374962D01*
X113053810Y-105488064D01*
X113110478Y-105572875D01*
X113142674Y-105621059D01*
X113203884Y-105768832D01*
X113235088Y-105925708D01*
X113235088Y-106085660D01*
X113203884Y-106242536D01*
X113142674Y-106390309D01*
X113142673Y-106390310D01*
X113053810Y-106523304D01*
X112940708Y-106636406D01*
X112851844Y-106695783D01*
X112807713Y-106725270D01*
X112659940Y-106786480D01*
X112503064Y-106817684D01*
X112343112Y-106817684D01*
X112186236Y-106786480D01*
X112038463Y-106725270D01*
X111994332Y-106695783D01*
X111905468Y-106636406D01*
X111792366Y-106523304D01*
X111703503Y-106390310D01*
X111703502Y-106390309D01*
X111642292Y-106242536D01*
X111611088Y-106085660D01*
X111611088Y-105925708D01*
X111642292Y-105768832D01*
X111703502Y-105621059D01*
X111735698Y-105572875D01*
X111792366Y-105488064D01*
X111905468Y-105374962D01*
X112038462Y-105286099D01*
X112038463Y-105286098D01*
X112186236Y-105224888D01*
X112343112Y-105193684D01*
X112503064Y-105193684D01*
X112659940Y-105224888D01*
X112659940Y-105224888D01*
G37*
G36*
X159007251Y-99836679D02*
G01*
X159512652Y-99937209D01*
X160067717Y-100167125D01*
X160567262Y-100500910D01*
X160992090Y-100925738D01*
X161325875Y-101425283D01*
X161555791Y-101980348D01*
X161673000Y-102569601D01*
X161673000Y-103170399D01*
X161555791Y-103759652D01*
X161325875Y-104314717D01*
X160992090Y-104814262D01*
X160567262Y-105239090D01*
X160067717Y-105572875D01*
X159512652Y-105802791D01*
X159007251Y-105903321D01*
X158923400Y-105920000D01*
X158322600Y-105920000D01*
X158238749Y-105903321D01*
X157733348Y-105802791D01*
X157178283Y-105572875D01*
X156678738Y-105239090D01*
X156253910Y-104814262D01*
X155920125Y-104314717D01*
X155690209Y-103759652D01*
X155573000Y-103170399D01*
X155573000Y-102569601D01*
X155690209Y-101980348D01*
X155920125Y-101425283D01*
X156253910Y-100925738D01*
X156678738Y-100500910D01*
X157178283Y-100167125D01*
X157733348Y-99937209D01*
X158238749Y-99836679D01*
X158322600Y-99820000D01*
X158923400Y-99820000D01*
X159007251Y-99836679D01*
X159007251Y-99836679D01*
G37*
G36*
X97666251Y-97550679D02*
G01*
X98171652Y-97651209D01*
X98726717Y-97881125D01*
X99226262Y-98214910D01*
X99651090Y-98639738D01*
X99984875Y-99139283D01*
X100214791Y-99694348D01*
X100332000Y-100283601D01*
X100332000Y-100884399D01*
X100214791Y-101473652D01*
X99984875Y-102028717D01*
X99651090Y-102528262D01*
X99226262Y-102953090D01*
X98726717Y-103286875D01*
X98171652Y-103516791D01*
X97666251Y-103617321D01*
X97582400Y-103634000D01*
X96981600Y-103634000D01*
X96897749Y-103617321D01*
X96392348Y-103516791D01*
X95837283Y-103286875D01*
X95337738Y-102953090D01*
X94912910Y-102528262D01*
X94579125Y-102028717D01*
X94349209Y-101473652D01*
X94232000Y-100884399D01*
X94232000Y-100283601D01*
X94349209Y-99694348D01*
X94579125Y-99139283D01*
X94912910Y-98639738D01*
X95337738Y-98214910D01*
X95837283Y-97881125D01*
X96392348Y-97651209D01*
X96897749Y-97550679D01*
X96981600Y-97534000D01*
X97582400Y-97534000D01*
X97666251Y-97550679D01*
X97666251Y-97550679D01*
G37*
G36*
X158115688Y-96042284D02*
G01*
X155515688Y-96042284D01*
X155515688Y-94442284D01*
X158115688Y-94442284D01*
X158115688Y-96042284D01*
X158115688Y-96042284D01*
G37*
G36*
X108859940Y-93374888D02*
G01*
X109007713Y-93436098D01*
X109007714Y-93436099D01*
X109140708Y-93524962D01*
X109253810Y-93638064D01*
X109313187Y-93726928D01*
X109342674Y-93771059D01*
X109403884Y-93918832D01*
X109435088Y-94075708D01*
X109435088Y-94235660D01*
X109403884Y-94392536D01*
X109342674Y-94540309D01*
X109342673Y-94540310D01*
X109253810Y-94673304D01*
X109140708Y-94786406D01*
X109051844Y-94845783D01*
X109007713Y-94875270D01*
X108859940Y-94936480D01*
X108703064Y-94967684D01*
X108543112Y-94967684D01*
X108386236Y-94936480D01*
X108238463Y-94875270D01*
X108194332Y-94845783D01*
X108105468Y-94786406D01*
X107992366Y-94673304D01*
X107903503Y-94540310D01*
X107903502Y-94540309D01*
X107842292Y-94392536D01*
X107811088Y-94235660D01*
X107811088Y-94075708D01*
X107842292Y-93918832D01*
X107903502Y-93771059D01*
X107932989Y-93726928D01*
X107992366Y-93638064D01*
X108105468Y-93524962D01*
X108238462Y-93436099D01*
X108238463Y-93436098D01*
X108386236Y-93374888D01*
X108543112Y-93343684D01*
X108703064Y-93343684D01*
X108859940Y-93374888D01*
X108859940Y-93374888D01*
G37*
G36*
X159515688Y-94042284D02*
G01*
X158415688Y-94042284D01*
X158415688Y-92642284D01*
X159515688Y-92642284D01*
X159515688Y-94042284D01*
X159515688Y-94042284D01*
G37*
G36*
X113859940Y-91124888D02*
G01*
X114007713Y-91186098D01*
X114007714Y-91186099D01*
X114140708Y-91274962D01*
X114253810Y-91388064D01*
X114313187Y-91476928D01*
X114342674Y-91521059D01*
X114403884Y-91668832D01*
X114435088Y-91825708D01*
X114435088Y-91985660D01*
X114403884Y-92142536D01*
X114342674Y-92290309D01*
X114342673Y-92290310D01*
X114253810Y-92423304D01*
X114140708Y-92536406D01*
X114051844Y-92595783D01*
X114007713Y-92625270D01*
X113859940Y-92686480D01*
X113703064Y-92717684D01*
X113543112Y-92717684D01*
X113386236Y-92686480D01*
X113238463Y-92625270D01*
X113194332Y-92595783D01*
X113105468Y-92536406D01*
X112992366Y-92423304D01*
X112903503Y-92290310D01*
X112903502Y-92290309D01*
X112842292Y-92142536D01*
X112811088Y-91985660D01*
X112811088Y-91825708D01*
X112842292Y-91668832D01*
X112903502Y-91521059D01*
X112932989Y-91476928D01*
X112992366Y-91388064D01*
X113105468Y-91274962D01*
X113238462Y-91186099D01*
X113238463Y-91186098D01*
X113386236Y-91124888D01*
X113543112Y-91093684D01*
X113703064Y-91093684D01*
X113859940Y-91124888D01*
X113859940Y-91124888D01*
G37*
G36*
X159515688Y-91542284D02*
G01*
X158415688Y-91542284D01*
X158415688Y-90142284D01*
X159515688Y-90142284D01*
X159515688Y-91542284D01*
X159515688Y-91542284D01*
G37*
G36*
X121748088Y-88333540D02*
G01*
X121750490Y-88357926D01*
X121757603Y-88381375D01*
X121769154Y-88402986D01*
X121784699Y-88421928D01*
X121803641Y-88437473D01*
X121825252Y-88449024D01*
X121848701Y-88456137D01*
X121873087Y-88458539D01*
X121897473Y-88456137D01*
X121920922Y-88449024D01*
X121942533Y-88437473D01*
X121961475Y-88421928D01*
X121977020Y-88402986D01*
X121983327Y-88392464D01*
X122008567Y-88345242D01*
X122077298Y-88261494D01*
X122161050Y-88192760D01*
X122256590Y-88141693D01*
X122283570Y-88133509D01*
X122360269Y-88110242D01*
X122414136Y-88104937D01*
X122441069Y-88102284D01*
X122495107Y-88102284D01*
X122522040Y-88104937D01*
X122575907Y-88110242D01*
X122652606Y-88133509D01*
X122679586Y-88141693D01*
X122775126Y-88192760D01*
X122858878Y-88261494D01*
X122927612Y-88345246D01*
X122978679Y-88440786D01*
X122978680Y-88440790D01*
X122983336Y-88456137D01*
X122983471Y-88456584D01*
X122992849Y-88479223D01*
X123006462Y-88499597D01*
X123023789Y-88516924D01*
X123044164Y-88530538D01*
X123066802Y-88539915D01*
X123090836Y-88544696D01*
X123115340Y-88544696D01*
X123139373Y-88539916D01*
X123162012Y-88530538D01*
X123182386Y-88516925D01*
X123199713Y-88499598D01*
X123213327Y-88479223D01*
X123222705Y-88456584D01*
X123222841Y-88456137D01*
X123227496Y-88440790D01*
X123227497Y-88440786D01*
X123278564Y-88345246D01*
X123347298Y-88261494D01*
X123431050Y-88192760D01*
X123526590Y-88141693D01*
X123553570Y-88133509D01*
X123630269Y-88110242D01*
X123684136Y-88104937D01*
X123711069Y-88102284D01*
X123765107Y-88102284D01*
X123792040Y-88104937D01*
X123845907Y-88110242D01*
X123922606Y-88133509D01*
X123949586Y-88141693D01*
X124045126Y-88192760D01*
X124128878Y-88261494D01*
X124197612Y-88345246D01*
X124248679Y-88440786D01*
X124248680Y-88440790D01*
X124253336Y-88456137D01*
X124253471Y-88456584D01*
X124262849Y-88479223D01*
X124276462Y-88499597D01*
X124293789Y-88516924D01*
X124314164Y-88530538D01*
X124336802Y-88539915D01*
X124360836Y-88544696D01*
X124385340Y-88544696D01*
X124409373Y-88539916D01*
X124432012Y-88530538D01*
X124452386Y-88516925D01*
X124469713Y-88499598D01*
X124483327Y-88479223D01*
X124492705Y-88456584D01*
X124492841Y-88456137D01*
X124497496Y-88440790D01*
X124497497Y-88440786D01*
X124548564Y-88345246D01*
X124617298Y-88261494D01*
X124701050Y-88192760D01*
X124796590Y-88141693D01*
X124823570Y-88133509D01*
X124900269Y-88110242D01*
X124954136Y-88104937D01*
X124981069Y-88102284D01*
X125035107Y-88102284D01*
X125062040Y-88104937D01*
X125115907Y-88110242D01*
X125192606Y-88133509D01*
X125219586Y-88141693D01*
X125315126Y-88192760D01*
X125398878Y-88261494D01*
X125467612Y-88345246D01*
X125518679Y-88440786D01*
X125518680Y-88440790D01*
X125523336Y-88456137D01*
X125523471Y-88456584D01*
X125532849Y-88479223D01*
X125546462Y-88499597D01*
X125563789Y-88516924D01*
X125584164Y-88530538D01*
X125606802Y-88539915D01*
X125630836Y-88544696D01*
X125655340Y-88544696D01*
X125679373Y-88539916D01*
X125702012Y-88530538D01*
X125722386Y-88516925D01*
X125739713Y-88499598D01*
X125753327Y-88479223D01*
X125762705Y-88456584D01*
X125762841Y-88456137D01*
X125767496Y-88440790D01*
X125767497Y-88440786D01*
X125818564Y-88345246D01*
X125887298Y-88261494D01*
X125971050Y-88192760D01*
X126066590Y-88141693D01*
X126093570Y-88133509D01*
X126170269Y-88110242D01*
X126224136Y-88104937D01*
X126251069Y-88102284D01*
X126305107Y-88102284D01*
X126332040Y-88104937D01*
X126385907Y-88110242D01*
X126462606Y-88133509D01*
X126489586Y-88141693D01*
X126585126Y-88192760D01*
X126668878Y-88261494D01*
X126737612Y-88345246D01*
X126788679Y-88440786D01*
X126788680Y-88440790D01*
X126820130Y-88544465D01*
X126830749Y-88652284D01*
X126820130Y-88760103D01*
X126806519Y-88804971D01*
X126788679Y-88863782D01*
X126737612Y-88959322D01*
X126668878Y-89043074D01*
X126585126Y-89111808D01*
X126489586Y-89162875D01*
X126473788Y-89167667D01*
X126451149Y-89177045D01*
X126430775Y-89190658D01*
X126413448Y-89207985D01*
X126399834Y-89228360D01*
X126390457Y-89250998D01*
X126385676Y-89275032D01*
X126385676Y-89299536D01*
X126390456Y-89323569D01*
X126399834Y-89346208D01*
X126413447Y-89366582D01*
X126430774Y-89383909D01*
X126451149Y-89397523D01*
X126473788Y-89406901D01*
X126489586Y-89411693D01*
X126585126Y-89462760D01*
X126668878Y-89531494D01*
X126737612Y-89615246D01*
X126788679Y-89710786D01*
X126788680Y-89710790D01*
X126820130Y-89814465D01*
X126830749Y-89922284D01*
X126820130Y-90030103D01*
X126806519Y-90074971D01*
X126788679Y-90133782D01*
X126737612Y-90229322D01*
X126668878Y-90313074D01*
X126585126Y-90381808D01*
X126489586Y-90432875D01*
X126462606Y-90441059D01*
X126385907Y-90464326D01*
X126332040Y-90469631D01*
X126305107Y-90472284D01*
X126251069Y-90472284D01*
X126224136Y-90469631D01*
X126170269Y-90464326D01*
X126093570Y-90441059D01*
X126066590Y-90432875D01*
X125971050Y-90381808D01*
X125887298Y-90313074D01*
X125818564Y-90229322D01*
X125767497Y-90133782D01*
X125762705Y-90117984D01*
X125753327Y-90095345D01*
X125739714Y-90074971D01*
X125722387Y-90057644D01*
X125702012Y-90044030D01*
X125679374Y-90034653D01*
X125655340Y-90029872D01*
X125630836Y-90029872D01*
X125606803Y-90034652D01*
X125584164Y-90044030D01*
X125563790Y-90057643D01*
X125546463Y-90074970D01*
X125532849Y-90095345D01*
X125523471Y-90117984D01*
X125518679Y-90133782D01*
X125467612Y-90229322D01*
X125398878Y-90313074D01*
X125315126Y-90381808D01*
X125219586Y-90432875D01*
X125192606Y-90441059D01*
X125115907Y-90464326D01*
X125062040Y-90469631D01*
X125035107Y-90472284D01*
X124981069Y-90472284D01*
X124954136Y-90469631D01*
X124900269Y-90464326D01*
X124823570Y-90441059D01*
X124796590Y-90432875D01*
X124701050Y-90381808D01*
X124617298Y-90313074D01*
X124548564Y-90229322D01*
X124497497Y-90133782D01*
X124492705Y-90117984D01*
X124483327Y-90095345D01*
X124469714Y-90074971D01*
X124452387Y-90057644D01*
X124432012Y-90044030D01*
X124409374Y-90034653D01*
X124385340Y-90029872D01*
X124360836Y-90029872D01*
X124336803Y-90034652D01*
X124314164Y-90044030D01*
X124293790Y-90057643D01*
X124276463Y-90074970D01*
X124262849Y-90095345D01*
X124253471Y-90117984D01*
X124248679Y-90133782D01*
X124197612Y-90229322D01*
X124128878Y-90313074D01*
X124045126Y-90381808D01*
X123949586Y-90432875D01*
X123922606Y-90441059D01*
X123845907Y-90464326D01*
X123792040Y-90469631D01*
X123765107Y-90472284D01*
X123711069Y-90472284D01*
X123684136Y-90469631D01*
X123630269Y-90464326D01*
X123553570Y-90441059D01*
X123526590Y-90432875D01*
X123431050Y-90381808D01*
X123347298Y-90313074D01*
X123278564Y-90229322D01*
X123227497Y-90133782D01*
X123222705Y-90117984D01*
X123213327Y-90095345D01*
X123199714Y-90074971D01*
X123182387Y-90057644D01*
X123162012Y-90044030D01*
X123139374Y-90034653D01*
X123115340Y-90029872D01*
X123090836Y-90029872D01*
X123066803Y-90034652D01*
X123044164Y-90044030D01*
X123023790Y-90057643D01*
X123006463Y-90074970D01*
X122992849Y-90095345D01*
X122983471Y-90117984D01*
X122978679Y-90133782D01*
X122927612Y-90229322D01*
X122858878Y-90313074D01*
X122775126Y-90381808D01*
X122679586Y-90432875D01*
X122652606Y-90441059D01*
X122575907Y-90464326D01*
X122522040Y-90469631D01*
X122495107Y-90472284D01*
X122441069Y-90472284D01*
X122414136Y-90469631D01*
X122360269Y-90464326D01*
X122283570Y-90441059D01*
X122256590Y-90432875D01*
X122161050Y-90381808D01*
X122077298Y-90313074D01*
X122008564Y-90229322D01*
X121957497Y-90133782D01*
X121952705Y-90117984D01*
X121943327Y-90095345D01*
X121929714Y-90074971D01*
X121912387Y-90057644D01*
X121892012Y-90044030D01*
X121869374Y-90034653D01*
X121845340Y-90029872D01*
X121820836Y-90029872D01*
X121796803Y-90034652D01*
X121774164Y-90044030D01*
X121753790Y-90057643D01*
X121736463Y-90074970D01*
X121722849Y-90095345D01*
X121713471Y-90117984D01*
X121708679Y-90133782D01*
X121657612Y-90229322D01*
X121588878Y-90313074D01*
X121505126Y-90381808D01*
X121409586Y-90432875D01*
X121382606Y-90441059D01*
X121305907Y-90464326D01*
X121252040Y-90469631D01*
X121225107Y-90472284D01*
X121171069Y-90472284D01*
X121144136Y-90469631D01*
X121090269Y-90464326D01*
X121013570Y-90441059D01*
X120986590Y-90432875D01*
X120891050Y-90381808D01*
X120807298Y-90313074D01*
X120738564Y-90229322D01*
X120687497Y-90133782D01*
X120669657Y-90074971D01*
X120656046Y-90030103D01*
X120645427Y-89922284D01*
X120656046Y-89814465D01*
X120687496Y-89710790D01*
X120687497Y-89710786D01*
X120738564Y-89615246D01*
X120807298Y-89531494D01*
X120891046Y-89462763D01*
X120891052Y-89462760D01*
X120938271Y-89437521D01*
X120958642Y-89423909D01*
X120975969Y-89406582D01*
X120989583Y-89386208D01*
X120998960Y-89363569D01*
X121003741Y-89339536D01*
X121003741Y-89327283D01*
X121391833Y-89327283D01*
X121394235Y-89351669D01*
X121401348Y-89375118D01*
X121412899Y-89396729D01*
X121428444Y-89415671D01*
X121447386Y-89431216D01*
X121457901Y-89437519D01*
X121505124Y-89462760D01*
X121505130Y-89462763D01*
X121588878Y-89531494D01*
X121657612Y-89615246D01*
X121708679Y-89710786D01*
X121713471Y-89726584D01*
X121722849Y-89749223D01*
X121736462Y-89769597D01*
X121753789Y-89786924D01*
X121774164Y-89800538D01*
X121796802Y-89809915D01*
X121820836Y-89814696D01*
X121845340Y-89814696D01*
X121869373Y-89809916D01*
X121892012Y-89800538D01*
X121912386Y-89786925D01*
X121929713Y-89769598D01*
X121943327Y-89749223D01*
X121952705Y-89726584D01*
X121957497Y-89710786D01*
X122008564Y-89615246D01*
X122077298Y-89531494D01*
X122161050Y-89462760D01*
X122256590Y-89411693D01*
X122272388Y-89406901D01*
X122295027Y-89397523D01*
X122315401Y-89383910D01*
X122332728Y-89366583D01*
X122346342Y-89346208D01*
X122355719Y-89323570D01*
X122360500Y-89299536D01*
X122360500Y-89275032D01*
X122575676Y-89275032D01*
X122575676Y-89299536D01*
X122580456Y-89323569D01*
X122589834Y-89346208D01*
X122603447Y-89366582D01*
X122620774Y-89383909D01*
X122641149Y-89397523D01*
X122663788Y-89406901D01*
X122679586Y-89411693D01*
X122775126Y-89462760D01*
X122858878Y-89531494D01*
X122927612Y-89615246D01*
X122978679Y-89710786D01*
X122983471Y-89726584D01*
X122992849Y-89749223D01*
X123006462Y-89769597D01*
X123023789Y-89786924D01*
X123044164Y-89800538D01*
X123066802Y-89809915D01*
X123090836Y-89814696D01*
X123115340Y-89814696D01*
X123139373Y-89809916D01*
X123162012Y-89800538D01*
X123182386Y-89786925D01*
X123199713Y-89769598D01*
X123213327Y-89749223D01*
X123222705Y-89726584D01*
X123227497Y-89710786D01*
X123278564Y-89615246D01*
X123347298Y-89531494D01*
X123431050Y-89462760D01*
X123526590Y-89411693D01*
X123542388Y-89406901D01*
X123565027Y-89397523D01*
X123585401Y-89383910D01*
X123602728Y-89366583D01*
X123616342Y-89346208D01*
X123625719Y-89323570D01*
X123630500Y-89299536D01*
X123630500Y-89275032D01*
X123845676Y-89275032D01*
X123845676Y-89299536D01*
X123850456Y-89323569D01*
X123859834Y-89346208D01*
X123873447Y-89366582D01*
X123890774Y-89383909D01*
X123911149Y-89397523D01*
X123933788Y-89406901D01*
X123949586Y-89411693D01*
X124045126Y-89462760D01*
X124128878Y-89531494D01*
X124197612Y-89615246D01*
X124248679Y-89710786D01*
X124253471Y-89726584D01*
X124262849Y-89749223D01*
X124276462Y-89769597D01*
X124293789Y-89786924D01*
X124314164Y-89800538D01*
X124336802Y-89809915D01*
X124360836Y-89814696D01*
X124385340Y-89814696D01*
X124409373Y-89809916D01*
X124432012Y-89800538D01*
X124452386Y-89786925D01*
X124469713Y-89769598D01*
X124483327Y-89749223D01*
X124492705Y-89726584D01*
X124497497Y-89710786D01*
X124548564Y-89615246D01*
X124617298Y-89531494D01*
X124701050Y-89462760D01*
X124796590Y-89411693D01*
X124812388Y-89406901D01*
X124835027Y-89397523D01*
X124855401Y-89383910D01*
X124872728Y-89366583D01*
X124886342Y-89346208D01*
X124895719Y-89323570D01*
X124900500Y-89299536D01*
X124900500Y-89275032D01*
X125115676Y-89275032D01*
X125115676Y-89299536D01*
X125120456Y-89323569D01*
X125129834Y-89346208D01*
X125143447Y-89366582D01*
X125160774Y-89383909D01*
X125181149Y-89397523D01*
X125203788Y-89406901D01*
X125219586Y-89411693D01*
X125315126Y-89462760D01*
X125398878Y-89531494D01*
X125467612Y-89615246D01*
X125518679Y-89710786D01*
X125523471Y-89726584D01*
X125532849Y-89749223D01*
X125546462Y-89769597D01*
X125563789Y-89786924D01*
X125584164Y-89800538D01*
X125606802Y-89809915D01*
X125630836Y-89814696D01*
X125655340Y-89814696D01*
X125679373Y-89809916D01*
X125702012Y-89800538D01*
X125722386Y-89786925D01*
X125739713Y-89769598D01*
X125753327Y-89749223D01*
X125762705Y-89726584D01*
X125767497Y-89710786D01*
X125818564Y-89615246D01*
X125887298Y-89531494D01*
X125971050Y-89462760D01*
X126066590Y-89411693D01*
X126082388Y-89406901D01*
X126105027Y-89397523D01*
X126125401Y-89383910D01*
X126142728Y-89366583D01*
X126156342Y-89346208D01*
X126165719Y-89323570D01*
X126170500Y-89299536D01*
X126170500Y-89275032D01*
X126165720Y-89250999D01*
X126156342Y-89228360D01*
X126142729Y-89207986D01*
X126125402Y-89190659D01*
X126105027Y-89177045D01*
X126082388Y-89167667D01*
X126066590Y-89162875D01*
X125971050Y-89111808D01*
X125887298Y-89043074D01*
X125818564Y-88959322D01*
X125767497Y-88863782D01*
X125763745Y-88851412D01*
X125762704Y-88847983D01*
X125753327Y-88825345D01*
X125739714Y-88804971D01*
X125722387Y-88787644D01*
X125702012Y-88774030D01*
X125679374Y-88764653D01*
X125655340Y-88759872D01*
X125630836Y-88759872D01*
X125606803Y-88764652D01*
X125584164Y-88774030D01*
X125563790Y-88787643D01*
X125546463Y-88804970D01*
X125532849Y-88825345D01*
X125523472Y-88847983D01*
X125522431Y-88851412D01*
X125518679Y-88863782D01*
X125467612Y-88959322D01*
X125398878Y-89043074D01*
X125315126Y-89111808D01*
X125219586Y-89162875D01*
X125203788Y-89167667D01*
X125181149Y-89177045D01*
X125160775Y-89190658D01*
X125143448Y-89207985D01*
X125129834Y-89228360D01*
X125120457Y-89250998D01*
X125115676Y-89275032D01*
X124900500Y-89275032D01*
X124895720Y-89250999D01*
X124886342Y-89228360D01*
X124872729Y-89207986D01*
X124855402Y-89190659D01*
X124835027Y-89177045D01*
X124812388Y-89167667D01*
X124796590Y-89162875D01*
X124701050Y-89111808D01*
X124617298Y-89043074D01*
X124548564Y-88959322D01*
X124497497Y-88863782D01*
X124493745Y-88851412D01*
X124492704Y-88847983D01*
X124483327Y-88825345D01*
X124469714Y-88804971D01*
X124452387Y-88787644D01*
X124432012Y-88774030D01*
X124409374Y-88764653D01*
X124385340Y-88759872D01*
X124360836Y-88759872D01*
X124336803Y-88764652D01*
X124314164Y-88774030D01*
X124293790Y-88787643D01*
X124276463Y-88804970D01*
X124262849Y-88825345D01*
X124253472Y-88847983D01*
X124252431Y-88851412D01*
X124248679Y-88863782D01*
X124197612Y-88959322D01*
X124128878Y-89043074D01*
X124045126Y-89111808D01*
X123949586Y-89162875D01*
X123933788Y-89167667D01*
X123911149Y-89177045D01*
X123890775Y-89190658D01*
X123873448Y-89207985D01*
X123859834Y-89228360D01*
X123850457Y-89250998D01*
X123845676Y-89275032D01*
X123630500Y-89275032D01*
X123625720Y-89250999D01*
X123616342Y-89228360D01*
X123602729Y-89207986D01*
X123585402Y-89190659D01*
X123565027Y-89177045D01*
X123542388Y-89167667D01*
X123526590Y-89162875D01*
X123431050Y-89111808D01*
X123347298Y-89043074D01*
X123278564Y-88959322D01*
X123227497Y-88863782D01*
X123223745Y-88851412D01*
X123222704Y-88847983D01*
X123213327Y-88825345D01*
X123199714Y-88804971D01*
X123182387Y-88787644D01*
X123162012Y-88774030D01*
X123139374Y-88764653D01*
X123115340Y-88759872D01*
X123090836Y-88759872D01*
X123066803Y-88764652D01*
X123044164Y-88774030D01*
X123023790Y-88787643D01*
X123006463Y-88804970D01*
X122992849Y-88825345D01*
X122983472Y-88847983D01*
X122982431Y-88851412D01*
X122978679Y-88863782D01*
X122927612Y-88959322D01*
X122858878Y-89043074D01*
X122775126Y-89111808D01*
X122679586Y-89162875D01*
X122663788Y-89167667D01*
X122641149Y-89177045D01*
X122620775Y-89190658D01*
X122603448Y-89207985D01*
X122589834Y-89228360D01*
X122580457Y-89250998D01*
X122575676Y-89275032D01*
X122360500Y-89275032D01*
X122355720Y-89250999D01*
X122346342Y-89228360D01*
X122332729Y-89207986D01*
X122315402Y-89190659D01*
X122295027Y-89177045D01*
X122272388Y-89167667D01*
X122256590Y-89162875D01*
X122161050Y-89111808D01*
X122077298Y-89043074D01*
X122008567Y-88959326D01*
X121983327Y-88912104D01*
X121969713Y-88891730D01*
X121952386Y-88874403D01*
X121932012Y-88860789D01*
X121909373Y-88851412D01*
X121885340Y-88846631D01*
X121860836Y-88846631D01*
X121836802Y-88851411D01*
X121814163Y-88860788D01*
X121793789Y-88874402D01*
X121776462Y-88891729D01*
X121762848Y-88912103D01*
X121753471Y-88934742D01*
X121748690Y-88958775D01*
X121748088Y-88971028D01*
X121748088Y-89202284D01*
X121516832Y-89202284D01*
X121492446Y-89204686D01*
X121468997Y-89211799D01*
X121447386Y-89223350D01*
X121428444Y-89238895D01*
X121412899Y-89257837D01*
X121401348Y-89279448D01*
X121394235Y-89302897D01*
X121391833Y-89327283D01*
X121003741Y-89327283D01*
X121003741Y-89315032D01*
X120998961Y-89290998D01*
X120989584Y-89268359D01*
X120975970Y-89247985D01*
X120958643Y-89230658D01*
X120938269Y-89217044D01*
X120915630Y-89207667D01*
X120891597Y-89202886D01*
X120879344Y-89202284D01*
X120648088Y-89202284D01*
X120648088Y-88102284D01*
X121748088Y-88102284D01*
X121748088Y-88333540D01*
X121748088Y-88333540D01*
G37*
G36*
X159515688Y-89042284D02*
G01*
X158415688Y-89042284D01*
X158415688Y-87642284D01*
X159515688Y-87642284D01*
X159515688Y-89042284D01*
X159515688Y-89042284D01*
G37*
G36*
X159515688Y-86542284D02*
G01*
X158415688Y-86542284D01*
X158415688Y-85142284D01*
X159515688Y-85142284D01*
X159515688Y-86542284D01*
X159515688Y-86542284D01*
G37*
G36*
X148070826Y-84872337D02*
G01*
X148112686Y-84880663D01*
X148161684Y-84900959D01*
X148230977Y-84929661D01*
X148230978Y-84929662D01*
X148337439Y-85000796D01*
X148427976Y-85091333D01*
X148462020Y-85142284D01*
X148499111Y-85197795D01*
X148548109Y-85316087D01*
X148573088Y-85441663D01*
X148573088Y-85569705D01*
X148548109Y-85695281D01*
X148499111Y-85813573D01*
X148499110Y-85813574D01*
X148427976Y-85920035D01*
X148337439Y-86010572D01*
X148283393Y-86046684D01*
X148230977Y-86081707D01*
X148161684Y-86110409D01*
X148112686Y-86130705D01*
X148070826Y-86139031D01*
X147987109Y-86155684D01*
X147859067Y-86155684D01*
X147775350Y-86139031D01*
X147733490Y-86130705D01*
X147684492Y-86110409D01*
X147615199Y-86081707D01*
X147562783Y-86046684D01*
X147508737Y-86010572D01*
X147418200Y-85920035D01*
X147347066Y-85813574D01*
X147347065Y-85813573D01*
X147298067Y-85695281D01*
X147273088Y-85569705D01*
X147273088Y-85441663D01*
X147298067Y-85316087D01*
X147347065Y-85197795D01*
X147384156Y-85142284D01*
X147418200Y-85091333D01*
X147508737Y-85000796D01*
X147615198Y-84929662D01*
X147615199Y-84929661D01*
X147684492Y-84900959D01*
X147733490Y-84880663D01*
X147775350Y-84872337D01*
X147859067Y-84855684D01*
X147987109Y-84855684D01*
X148070826Y-84872337D01*
X148070826Y-84872337D01*
G37*
G36*
X133238983Y-84204769D02*
G01*
X133324428Y-84240162D01*
X133409871Y-84275553D01*
X133409872Y-84275554D01*
X133563663Y-84378313D01*
X133694459Y-84509109D01*
X133762965Y-84611636D01*
X133797219Y-84662901D01*
X133830100Y-84742284D01*
X133868003Y-84833789D01*
X133904088Y-85015199D01*
X133904088Y-85200169D01*
X133868003Y-85381579D01*
X133843115Y-85441663D01*
X133797219Y-85552467D01*
X133797218Y-85552468D01*
X133694459Y-85706259D01*
X133563663Y-85837055D01*
X133461136Y-85905561D01*
X133409871Y-85939815D01*
X133324428Y-85975206D01*
X133238983Y-86010599D01*
X133057573Y-86046684D01*
X132872603Y-86046684D01*
X132691193Y-86010599D01*
X132605748Y-85975206D01*
X132520305Y-85939815D01*
X132469040Y-85905561D01*
X132366513Y-85837055D01*
X132235717Y-85706259D01*
X132132958Y-85552468D01*
X132132957Y-85552467D01*
X132087061Y-85441663D01*
X132062173Y-85381579D01*
X132026088Y-85200169D01*
X132026088Y-85015199D01*
X132062173Y-84833789D01*
X132100076Y-84742284D01*
X132132957Y-84662901D01*
X132167211Y-84611636D01*
X132235717Y-84509109D01*
X132366513Y-84378313D01*
X132520304Y-84275554D01*
X132520305Y-84275553D01*
X132605748Y-84240162D01*
X132691193Y-84204769D01*
X132872603Y-84168684D01*
X133057573Y-84168684D01*
X133238983Y-84204769D01*
X133238983Y-84204769D01*
G37*
G36*
X141524088Y-86046684D02*
G01*
X139646088Y-86046684D01*
X139646088Y-84168684D01*
X141524088Y-84168684D01*
X141524088Y-86046684D01*
X141524088Y-86046684D01*
G37*
G36*
X130698983Y-84204769D02*
G01*
X130784428Y-84240162D01*
X130869871Y-84275553D01*
X130869872Y-84275554D01*
X131023663Y-84378313D01*
X131154459Y-84509109D01*
X131222965Y-84611636D01*
X131257219Y-84662901D01*
X131290100Y-84742284D01*
X131328003Y-84833789D01*
X131364088Y-85015199D01*
X131364088Y-85200169D01*
X131328003Y-85381579D01*
X131303115Y-85441663D01*
X131257219Y-85552467D01*
X131257218Y-85552468D01*
X131154459Y-85706259D01*
X131023663Y-85837055D01*
X130921136Y-85905561D01*
X130869871Y-85939815D01*
X130784428Y-85975206D01*
X130698983Y-86010599D01*
X130517573Y-86046684D01*
X130332603Y-86046684D01*
X130151193Y-86010599D01*
X130065748Y-85975206D01*
X129980305Y-85939815D01*
X129929040Y-85905561D01*
X129826513Y-85837055D01*
X129695717Y-85706259D01*
X129592958Y-85552468D01*
X129592957Y-85552467D01*
X129547061Y-85441663D01*
X129522173Y-85381579D01*
X129486088Y-85200169D01*
X129486088Y-85015199D01*
X129522173Y-84833789D01*
X129560076Y-84742284D01*
X129592957Y-84662901D01*
X129627211Y-84611636D01*
X129695717Y-84509109D01*
X129826513Y-84378313D01*
X129980304Y-84275554D01*
X129980305Y-84275553D01*
X130065748Y-84240162D01*
X130151193Y-84204769D01*
X130332603Y-84168684D01*
X130517573Y-84168684D01*
X130698983Y-84204769D01*
X130698983Y-84204769D01*
G37*
G36*
X135778983Y-84204769D02*
G01*
X135864428Y-84240162D01*
X135949871Y-84275553D01*
X135949872Y-84275554D01*
X136103663Y-84378313D01*
X136234459Y-84509109D01*
X136302965Y-84611636D01*
X136337219Y-84662901D01*
X136370100Y-84742284D01*
X136408003Y-84833789D01*
X136444088Y-85015199D01*
X136444088Y-85200169D01*
X136408003Y-85381579D01*
X136383115Y-85441663D01*
X136337219Y-85552467D01*
X136337218Y-85552468D01*
X136234459Y-85706259D01*
X136103663Y-85837055D01*
X136001136Y-85905561D01*
X135949871Y-85939815D01*
X135864428Y-85975206D01*
X135778983Y-86010599D01*
X135597573Y-86046684D01*
X135412603Y-86046684D01*
X135231193Y-86010599D01*
X135145748Y-85975206D01*
X135060305Y-85939815D01*
X135009040Y-85905561D01*
X134906513Y-85837055D01*
X134775717Y-85706259D01*
X134672958Y-85552468D01*
X134672957Y-85552467D01*
X134627061Y-85441663D01*
X134602173Y-85381579D01*
X134566088Y-85200169D01*
X134566088Y-85015199D01*
X134602173Y-84833789D01*
X134640076Y-84742284D01*
X134672957Y-84662901D01*
X134707211Y-84611636D01*
X134775717Y-84509109D01*
X134906513Y-84378313D01*
X135060304Y-84275554D01*
X135060305Y-84275553D01*
X135145748Y-84240162D01*
X135231193Y-84204769D01*
X135412603Y-84168684D01*
X135597573Y-84168684D01*
X135778983Y-84204769D01*
X135778983Y-84204769D01*
G37*
G36*
X138318983Y-84204769D02*
G01*
X138404428Y-84240162D01*
X138489871Y-84275553D01*
X138489872Y-84275554D01*
X138643663Y-84378313D01*
X138774459Y-84509109D01*
X138842965Y-84611636D01*
X138877219Y-84662901D01*
X138910100Y-84742284D01*
X138948003Y-84833789D01*
X138984088Y-85015199D01*
X138984088Y-85200169D01*
X138948003Y-85381579D01*
X138923115Y-85441663D01*
X138877219Y-85552467D01*
X138877218Y-85552468D01*
X138774459Y-85706259D01*
X138643663Y-85837055D01*
X138541136Y-85905561D01*
X138489871Y-85939815D01*
X138404428Y-85975206D01*
X138318983Y-86010599D01*
X138137573Y-86046684D01*
X137952603Y-86046684D01*
X137771193Y-86010599D01*
X137685748Y-85975206D01*
X137600305Y-85939815D01*
X137549040Y-85905561D01*
X137446513Y-85837055D01*
X137315717Y-85706259D01*
X137212958Y-85552468D01*
X137212957Y-85552467D01*
X137167061Y-85441663D01*
X137142173Y-85381579D01*
X137106088Y-85200169D01*
X137106088Y-85015199D01*
X137142173Y-84833789D01*
X137180076Y-84742284D01*
X137212957Y-84662901D01*
X137247211Y-84611636D01*
X137315717Y-84509109D01*
X137446513Y-84378313D01*
X137600304Y-84275554D01*
X137600305Y-84275553D01*
X137685748Y-84240162D01*
X137771193Y-84204769D01*
X137952603Y-84168684D01*
X138137573Y-84168684D01*
X138318983Y-84204769D01*
X138318983Y-84204769D01*
G37*
G36*
X158115688Y-84742284D02*
G01*
X155515688Y-84742284D01*
X155515688Y-83142284D01*
X158115688Y-83142284D01*
X158115688Y-84742284D01*
X158115688Y-84742284D01*
G37*
G36*
X173542564Y-81602300D02*
G01*
X173651238Y-81623917D01*
X173855975Y-81708722D01*
X174040233Y-81831840D01*
X174196932Y-81988539D01*
X174320050Y-82172797D01*
X174404855Y-82377534D01*
X174448088Y-82594881D01*
X174448088Y-82816487D01*
X174404855Y-83033834D01*
X174320050Y-83238571D01*
X174196932Y-83422829D01*
X174040233Y-83579528D01*
X173855975Y-83702646D01*
X173651238Y-83787451D01*
X173542565Y-83809067D01*
X173433892Y-83830684D01*
X173212284Y-83830684D01*
X173103611Y-83809067D01*
X172994938Y-83787451D01*
X172790201Y-83702646D01*
X172605943Y-83579528D01*
X172449244Y-83422829D01*
X172326126Y-83238571D01*
X172241321Y-83033834D01*
X172198088Y-82816487D01*
X172198088Y-82594881D01*
X172241321Y-82377534D01*
X172326126Y-82172797D01*
X172449244Y-81988539D01*
X172605943Y-81831840D01*
X172790201Y-81708722D01*
X172994938Y-81623917D01*
X173103611Y-81602301D01*
X173212284Y-81580684D01*
X173433892Y-81580684D01*
X173542564Y-81602300D01*
X173542564Y-81602300D01*
G37*
G36*
X71542564Y-81602300D02*
G01*
X71651238Y-81623917D01*
X71855975Y-81708722D01*
X72040233Y-81831840D01*
X72196932Y-81988539D01*
X72320050Y-82172797D01*
X72404855Y-82377534D01*
X72448088Y-82594881D01*
X72448088Y-82816487D01*
X72404855Y-83033834D01*
X72320050Y-83238571D01*
X72196932Y-83422829D01*
X72040233Y-83579528D01*
X71855975Y-83702646D01*
X71651238Y-83787451D01*
X71542565Y-83809067D01*
X71433892Y-83830684D01*
X71212284Y-83830684D01*
X71103611Y-83809067D01*
X70994938Y-83787451D01*
X70790201Y-83702646D01*
X70605943Y-83579528D01*
X70449244Y-83422829D01*
X70326126Y-83238571D01*
X70241321Y-83033834D01*
X70198088Y-82816487D01*
X70198088Y-82594881D01*
X70241321Y-82377534D01*
X70326126Y-82172797D01*
X70449244Y-81988539D01*
X70605943Y-81831840D01*
X70790201Y-81708722D01*
X70994938Y-81623917D01*
X71103612Y-81602300D01*
X71212284Y-81580684D01*
X71433892Y-81580684D01*
X71542564Y-81602300D01*
X71542564Y-81602300D01*
G37*
M02*
