G04 #@! TF.GenerationSoftware,KiCad,Pcbnew,(5.0.2)-1*
G04 #@! TF.CreationDate,2019-01-08T10:51:14-07:00*
G04 #@! TF.ProjectId,MagSensor,4d616753-656e-4736-9f72-2e6b69636164,rev?*
G04 #@! TF.SameCoordinates,Original*
G04 #@! TF.FileFunction,Copper,L1,Top*
G04 #@! TF.FilePolarity,Positive*
%FSLAX46Y46*%
G04 Gerber Fmt 4.6, Leading zero omitted, Abs format (unit mm)*
G04 Created by KiCad (PCBNEW (5.0.2)-1) date 1/8/2019 10:51:14 AM*
%MOMM*%
%LPD*%
G01*
G04 APERTURE LIST*
G04 #@! TA.AperFunction,ComponentPad*
%ADD10C,2.000000*%
G04 #@! TD*
G04 #@! TA.AperFunction,ComponentPad*
%ADD11R,1.350000X1.350000*%
G04 #@! TD*
G04 #@! TA.AperFunction,ComponentPad*
%ADD12C,1.350000*%
G04 #@! TD*
G04 #@! TA.AperFunction,SMDPad,CuDef*
%ADD13R,4.000000X3.000000*%
G04 #@! TD*
G04 #@! TA.AperFunction,SMDPad,CuDef*
%ADD14R,0.800000X0.900000*%
G04 #@! TD*
G04 #@! TA.AperFunction,SMDPad,CuDef*
%ADD15R,0.700000X1.300000*%
G04 #@! TD*
G04 #@! TA.AperFunction,ComponentPad*
%ADD16R,1.000000X1.000000*%
G04 #@! TD*
G04 #@! TA.AperFunction,ComponentPad*
%ADD17O,1.000000X1.000000*%
G04 #@! TD*
G04 #@! TA.AperFunction,SMDPad,CuDef*
%ADD18R,0.400000X0.600000*%
G04 #@! TD*
G04 #@! TA.AperFunction,SMDPad,CuDef*
%ADD19R,0.600000X0.500000*%
G04 #@! TD*
G04 #@! TA.AperFunction,SMDPad,CuDef*
%ADD20R,0.450000X0.400000*%
G04 #@! TD*
G04 #@! TA.AperFunction,SMDPad,CuDef*
%ADD21R,0.900000X0.800000*%
G04 #@! TD*
G04 #@! TA.AperFunction,SMDPad,CuDef*
%ADD22R,0.600000X0.400000*%
G04 #@! TD*
G04 #@! TA.AperFunction,SMDPad,CuDef*
%ADD23R,0.300000X0.450000*%
G04 #@! TD*
G04 #@! TA.AperFunction,SMDPad,CuDef*
%ADD24R,0.650000X1.060000*%
G04 #@! TD*
G04 #@! TA.AperFunction,ComponentPad*
%ADD25C,1.524000*%
G04 #@! TD*
G04 #@! TA.AperFunction,SMDPad,CuDef*
%ADD26R,0.900000X1.200000*%
G04 #@! TD*
G04 #@! TA.AperFunction,SMDPad,CuDef*
%ADD27R,0.500000X0.600000*%
G04 #@! TD*
G04 #@! TA.AperFunction,SMDPad,CuDef*
%ADD28R,0.850000X1.900000*%
G04 #@! TD*
G04 #@! TA.AperFunction,SMDPad,CuDef*
%ADD29R,0.750000X0.800000*%
G04 #@! TD*
G04 #@! TA.AperFunction,WasherPad*
%ADD30C,6.000000*%
G04 #@! TD*
G04 #@! TA.AperFunction,ComponentPad*
%ADD31O,1.700000X1.000000*%
G04 #@! TD*
G04 #@! TA.AperFunction,ComponentPad*
%ADD32O,1.400000X1.000000*%
G04 #@! TD*
G04 #@! TA.AperFunction,SMDPad,CuDef*
%ADD33R,1.200000X0.450000*%
G04 #@! TD*
G04 #@! TA.AperFunction,ComponentPad*
%ADD34R,1.200000X1.700000*%
G04 #@! TD*
G04 #@! TA.AperFunction,ComponentPad*
%ADD35O,1.200000X1.700000*%
G04 #@! TD*
G04 #@! TA.AperFunction,SMDPad,CuDef*
%ADD36R,0.900000X1.700000*%
G04 #@! TD*
G04 #@! TA.AperFunction,SMDPad,CuDef*
%ADD37R,3.750000X1.400000*%
G04 #@! TD*
G04 #@! TA.AperFunction,ComponentPad*
%ADD38C,1.200000*%
G04 #@! TD*
G04 #@! TA.AperFunction,SMDPad,CuDef*
%ADD39R,2.500000X1.500000*%
G04 #@! TD*
G04 #@! TA.AperFunction,SMDPad,CuDef*
%ADD40R,1.000000X1.300000*%
G04 #@! TD*
G04 #@! TA.AperFunction,Conductor*
%ADD41R,3.200000X2.400000*%
G04 #@! TD*
G04 #@! TA.AperFunction,ViaPad*
%ADD42C,0.600000*%
G04 #@! TD*
G04 #@! TA.AperFunction,SMDPad,CuDef*
%ADD43R,0.800000X0.750000*%
G04 #@! TD*
G04 #@! TA.AperFunction,ComponentPad*
%ADD44R,1.778000X1.778000*%
G04 #@! TD*
G04 #@! TA.AperFunction,ComponentPad*
%ADD45C,1.778000*%
G04 #@! TD*
G04 #@! TA.AperFunction,SMDPad,CuDef*
%ADD46R,1.700000X0.900000*%
G04 #@! TD*
G04 #@! TA.AperFunction,ComponentPad*
%ADD47C,1.500000*%
G04 #@! TD*
G04 #@! TA.AperFunction,ViaPad*
%ADD48C,1.000000*%
G04 #@! TD*
G04 #@! TA.AperFunction,Conductor*
%ADD49C,0.200000*%
G04 #@! TD*
G04 #@! TA.AperFunction,Conductor*
%ADD50C,0.250000*%
G04 #@! TD*
G04 #@! TA.AperFunction,Conductor*
%ADD51C,1.000000*%
G04 #@! TD*
G04 #@! TA.AperFunction,Conductor*
%ADD52C,0.500000*%
G04 #@! TD*
G04 #@! TA.AperFunction,Conductor*
%ADD53C,0.300000*%
G04 #@! TD*
G04 APERTURE END LIST*
D10*
G04 #@! TO.P,U16,1*
G04 #@! TO.N,/Piezo/V_Piezo*
X153750000Y-127000000D03*
G04 #@! TO.P,U16,2*
G04 #@! TO.N,Net-(C55-Pad2)*
X163750000Y-127000000D03*
G04 #@! TD*
D11*
G04 #@! TO.P,JP1,1*
G04 #@! TO.N,+BATT*
X143423088Y-130405684D03*
D12*
G04 #@! TO.P,JP1,2*
G04 #@! TO.N,Net-(JP1-Pad2)*
X141423088Y-130405684D03*
G04 #@! TD*
D13*
G04 #@! TO.P,DS2,1*
G04 #@! TO.N,Net-(DS2-Pad1)*
X155950000Y-141252000D03*
G04 #@! TO.P,DS2,2*
G04 #@! TO.N,+BATT*
X155950000Y-144752000D03*
G04 #@! TO.P,DS2,3*
G04 #@! TO.N,Net-(DS2-Pad3)*
X161550000Y-144752000D03*
G04 #@! TO.P,DS2,4*
G04 #@! TO.N,Net-(DS2-Pad4)*
X161550000Y-141252000D03*
G04 #@! TD*
D14*
G04 #@! TO.P,Q4,1*
G04 #@! TO.N,Net-(Q4-Pad1)*
X150323088Y-144880684D03*
G04 #@! TO.P,Q4,2*
G04 #@! TO.N,GND*
X152223088Y-144880684D03*
G04 #@! TO.P,Q4,3*
G04 #@! TO.N,Net-(Q4-Pad3)*
X151273088Y-142880684D03*
G04 #@! TD*
D15*
G04 #@! TO.P,R38,1*
G04 #@! TO.N,Net-(DS2-Pad3)*
X161498088Y-147505684D03*
G04 #@! TO.P,R38,2*
G04 #@! TO.N,Net-(Q6-Pad3)*
X159598088Y-147505684D03*
G04 #@! TD*
D16*
G04 #@! TO.P,P3,1*
G04 #@! TO.N,+3V3*
X121198088Y-88652284D03*
D17*
G04 #@! TO.P,P3,2*
G04 #@! TO.N,Net-(P3-Pad2)*
X121198088Y-89922284D03*
G04 #@! TO.P,P3,3*
G04 #@! TO.N,GND*
X122468088Y-88652284D03*
G04 #@! TO.P,P3,4*
G04 #@! TO.N,Net-(P3-Pad4)*
X122468088Y-89922284D03*
G04 #@! TO.P,P3,5*
G04 #@! TO.N,GND*
X123738088Y-88652284D03*
G04 #@! TO.P,P3,6*
G04 #@! TO.N,N/C*
X123738088Y-89922284D03*
G04 #@! TO.P,P3,7*
X125008088Y-88652284D03*
G04 #@! TO.P,P3,8*
X125008088Y-89922284D03*
G04 #@! TO.P,P3,9*
X126278088Y-88652284D03*
G04 #@! TO.P,P3,10*
G04 #@! TO.N,Net-(D5-Pad1)*
X126278088Y-89922284D03*
G04 #@! TD*
D18*
G04 #@! TO.P,R34,1*
G04 #@! TO.N,/LEDs/LED_BLU*
X154773088Y-151780684D03*
G04 #@! TO.P,R34,2*
G04 #@! TO.N,GND*
X155673088Y-151780684D03*
G04 #@! TD*
D19*
G04 #@! TO.P,C22,1*
G04 #@! TO.N,Net-(C22-Pad1)*
X82330008Y-121673524D03*
G04 #@! TO.P,C22,2*
G04 #@! TO.N,GND*
X83430008Y-121673524D03*
G04 #@! TD*
D20*
G04 #@! TO.P,D4,1*
G04 #@! TO.N,Net-(D4-Pad1)*
X82394109Y-126368764D03*
G04 #@! TO.P,D4,2*
G04 #@! TO.N,Net-(D4-Pad2)*
X82394109Y-127168764D03*
G04 #@! TO.P,D4,3*
G04 #@! TO.N,GND*
X83399107Y-126768764D03*
G04 #@! TD*
D14*
G04 #@! TO.P,Q5,1*
G04 #@! TO.N,Net-(Q5-Pad1)*
X166423088Y-137730684D03*
G04 #@! TO.P,Q5,2*
G04 #@! TO.N,GND*
X164523088Y-137730684D03*
G04 #@! TO.P,Q5,3*
G04 #@! TO.N,Net-(Q5-Pad3)*
X165473088Y-139730684D03*
G04 #@! TD*
G04 #@! TO.P,Q6,1*
G04 #@! TO.N,Net-(Q6-Pad1)*
X157048088Y-150555684D03*
G04 #@! TO.P,Q6,2*
G04 #@! TO.N,GND*
X158948088Y-150555684D03*
G04 #@! TO.P,Q6,3*
G04 #@! TO.N,Net-(Q6-Pad3)*
X157998088Y-148555684D03*
G04 #@! TD*
D21*
G04 #@! TO.P,Q8,1*
G04 #@! TO.N,Net-(Q8-Pad1)*
X105934408Y-125644444D03*
G04 #@! TO.P,Q8,2*
G04 #@! TO.N,GND*
X105934408Y-127544444D03*
G04 #@! TO.P,Q8,3*
G04 #@! TO.N,Net-(P4-Pad1)*
X107934408Y-126594444D03*
G04 #@! TD*
D22*
G04 #@! TO.P,R1,1*
G04 #@! TO.N,Net-(R1-Pad1)*
X102710860Y-126548332D03*
G04 #@! TO.P,R1,2*
G04 #@! TO.N,GND*
X102710860Y-125648332D03*
G04 #@! TD*
D18*
G04 #@! TO.P,R2,1*
G04 #@! TO.N,+BATT*
X116950508Y-120256384D03*
G04 #@! TO.P,R2,2*
G04 #@! TO.N,/Power/VBatDiv*
X117850508Y-120256384D03*
G04 #@! TD*
G04 #@! TO.P,R3,1*
G04 #@! TO.N,/Power/VBatDiv*
X117850508Y-117970384D03*
G04 #@! TO.P,R3,2*
G04 #@! TO.N,GND*
X116950508Y-117970384D03*
G04 #@! TD*
G04 #@! TO.P,R6,1*
G04 #@! TO.N,Net-(R1-Pad1)*
X102302340Y-122923332D03*
G04 #@! TO.P,R6,2*
G04 #@! TO.N,GND*
X101402340Y-122923332D03*
G04 #@! TD*
G04 #@! TO.P,R12,1*
G04 #@! TO.N,Net-(D4-Pad1)*
X84204288Y-126138844D03*
G04 #@! TO.P,R12,2*
G04 #@! TO.N,/Sensors and Interfaces/USB-*
X85104288Y-126138844D03*
G04 #@! TD*
G04 #@! TO.P,R13,1*
G04 #@! TO.N,Net-(D4-Pad2)*
X84163648Y-127495204D03*
G04 #@! TO.P,R13,2*
G04 #@! TO.N,/Sensors and Interfaces/USB+*
X85063648Y-127495204D03*
G04 #@! TD*
G04 #@! TO.P,R14,1*
G04 #@! TO.N,Net-(L3-Pad2)*
X84961208Y-123060364D03*
G04 #@! TO.P,R14,2*
G04 #@! TO.N,/Sensors and Interfaces/VBUS_DETECT*
X85861208Y-123060364D03*
G04 #@! TD*
G04 #@! TO.P,R15,1*
G04 #@! TO.N,/Sensors and Interfaces/VBUS_DETECT*
X85861208Y-121764964D03*
G04 #@! TO.P,R15,2*
G04 #@! TO.N,GND*
X84961208Y-121764964D03*
G04 #@! TD*
D22*
G04 #@! TO.P,R30,1*
G04 #@! TO.N,/LEDs/LED_RED*
X152173088Y-147030684D03*
G04 #@! TO.P,R30,2*
G04 #@! TO.N,GND*
X152173088Y-146130684D03*
G04 #@! TD*
G04 #@! TO.P,R31,1*
G04 #@! TO.N,Net-(Q4-Pad1)*
X150373088Y-146130684D03*
G04 #@! TO.P,R31,2*
G04 #@! TO.N,/LEDs/LED_RED*
X150373088Y-147030684D03*
G04 #@! TD*
G04 #@! TO.P,R32,1*
G04 #@! TO.N,/LEDs/LED_GRN*
X167498088Y-136280684D03*
G04 #@! TO.P,R32,2*
G04 #@! TO.N,GND*
X167498088Y-135380684D03*
G04 #@! TD*
G04 #@! TO.P,R33,1*
G04 #@! TO.N,Net-(Q5-Pad1)*
X167498088Y-137955684D03*
G04 #@! TO.P,R33,2*
G04 #@! TO.N,/LEDs/LED_GRN*
X167498088Y-137055684D03*
G04 #@! TD*
D18*
G04 #@! TO.P,R35,1*
G04 #@! TO.N,Net-(Q6-Pad1)*
X155673088Y-150530684D03*
G04 #@! TO.P,R35,2*
G04 #@! TO.N,/LEDs/LED_BLU*
X154773088Y-150530684D03*
G04 #@! TD*
G04 #@! TO.P,R42,1*
G04 #@! TO.N,Net-(Q8-Pad1)*
X105663568Y-124145884D03*
G04 #@! TO.P,R42,2*
G04 #@! TO.N,/LCD/~LCD_BACKLIGHT*
X106563568Y-124145884D03*
G04 #@! TD*
D22*
G04 #@! TO.P,R43,1*
G04 #@! TO.N,GND*
X104577288Y-125166964D03*
G04 #@! TO.P,R43,2*
G04 #@! TO.N,Net-(Q8-Pad1)*
X104577288Y-124266964D03*
G04 #@! TD*
D23*
G04 #@! TO.P,U2,1*
G04 #@! TO.N,+BATT*
X102185288Y-133206764D03*
G04 #@! TO.P,U2,3*
X101185288Y-133206764D03*
G04 #@! TO.P,U2,5*
G04 #@! TO.N,N/C*
X102185288Y-134606764D03*
G04 #@! TO.P,U2,2*
G04 #@! TO.N,GND*
X101685288Y-133206764D03*
G04 #@! TO.P,U2,4*
G04 #@! TO.N,+3V3*
X101185288Y-134606764D03*
G04 #@! TD*
D24*
G04 #@! TO.P,U5,1*
G04 #@! TO.N,/Power/ChargeStat*
X101217380Y-124241412D03*
G04 #@! TO.P,U5,2*
G04 #@! TO.N,GND*
X100267380Y-124241412D03*
G04 #@! TO.P,U5,3*
G04 #@! TO.N,+BATT*
X99317380Y-124241412D03*
G04 #@! TO.P,U5,4*
G04 #@! TO.N,+V_chrg*
X99317380Y-126441412D03*
G04 #@! TO.P,U5,5*
G04 #@! TO.N,Net-(R1-Pad1)*
X101217380Y-126441412D03*
G04 #@! TD*
D19*
G04 #@! TO.P,C3,1*
G04 #@! TO.N,/Power/VBatDiv*
X117950508Y-119113384D03*
G04 #@! TO.P,C3,2*
G04 #@! TO.N,GND*
X116850508Y-119113384D03*
G04 #@! TD*
D25*
G04 #@! TO.P,VBAT_DIV1,1*
G04 #@! TO.N,/Power/VBatDiv*
X113123088Y-117655684D03*
G04 #@! TD*
D26*
G04 #@! TO.P,D1,1*
G04 #@! TO.N,+V_chrg*
X90418088Y-124597284D03*
G04 #@! TO.P,D1,2*
G04 #@! TO.N,Net-(D1-Pad2)*
X87118088Y-124597284D03*
G04 #@! TD*
D15*
G04 #@! TO.P,R36,1*
G04 #@! TO.N,Net-(DS2-Pad1)*
X153148088Y-141330684D03*
G04 #@! TO.P,R36,2*
G04 #@! TO.N,Net-(Q4-Pad3)*
X151248088Y-141330684D03*
G04 #@! TD*
G04 #@! TO.P,R37,1*
G04 #@! TO.N,Net-(DS2-Pad4)*
X164298088Y-141380684D03*
G04 #@! TO.P,R37,2*
G04 #@! TO.N,Net-(Q5-Pad3)*
X166198088Y-141380684D03*
G04 #@! TD*
D22*
G04 #@! TO.P,R46,1*
G04 #@! TO.N,/IMU_Wake/HIB_IO*
X90993088Y-143505684D03*
G04 #@! TO.P,R46,2*
G04 #@! TO.N,GND*
X90993088Y-144405684D03*
G04 #@! TD*
D27*
G04 #@! TO.P,C24,1*
G04 #@! TO.N,GND*
X92073088Y-141405684D03*
G04 #@! TO.P,C24,2*
G04 #@! TO.N,/IMU_Wake/HIB_IO*
X92073088Y-142505684D03*
G04 #@! TD*
D28*
G04 #@! TO.P,L3,1*
G04 #@! TO.N,Net-(D1-Pad2)*
X83636848Y-123913804D03*
G04 #@! TO.P,L3,2*
G04 #@! TO.N,Net-(L3-Pad2)*
X82186848Y-123913804D03*
G04 #@! TD*
D29*
G04 #@! TO.P,C44,1*
G04 #@! TO.N,+V_chrg*
X90423088Y-126355684D03*
G04 #@! TO.P,C44,2*
G04 #@! TO.N,GND*
X90423088Y-127855684D03*
G04 #@! TD*
D22*
G04 #@! TO.P,R17,1*
G04 #@! TO.N,/IMU_Wake/HIB_IO*
X92073088Y-143505684D03*
G04 #@! TO.P,R17,2*
G04 #@! TO.N,Net-(R17-Pad2)*
X92073088Y-144405684D03*
G04 #@! TD*
D25*
G04 #@! TO.P,P5,1*
G04 #@! TO.N,Net-(D7-Pad1)*
X128166535Y-166266711D03*
G04 #@! TO.P,P5,2*
G04 #@! TO.N,GND*
X125626535Y-166266711D03*
G04 #@! TO.P,P5,3*
G04 #@! TO.N,Net-(D8-Pad1)*
X123086535Y-166266711D03*
G04 #@! TD*
D30*
G04 #@! TO.P,MNT1,*
G04 #@! TO.N,*
X97282000Y-153162000D03*
G04 #@! TD*
G04 #@! TO.P,MNT2,*
G04 #@! TO.N,*
X150876000Y-158750000D03*
G04 #@! TD*
G04 #@! TO.P,MNT3,*
G04 #@! TO.N,*
X158623000Y-102870000D03*
G04 #@! TD*
G04 #@! TO.P,MNT4,*
G04 #@! TO.N,*
X97282000Y-100584000D03*
G04 #@! TD*
D31*
G04 #@! TO.P,P2,6*
G04 #@! TO.N,Net-(C22-Pad1)*
X77306248Y-122797764D03*
X77306248Y-131247764D03*
X79056248Y-122797764D03*
X79056248Y-131247764D03*
D32*
X80456248Y-130622764D03*
X80456248Y-123422764D03*
D33*
G04 #@! TO.P,P2,1*
G04 #@! TO.N,Net-(L3-Pad2)*
X81056248Y-125722764D03*
G04 #@! TO.P,P2,2*
G04 #@! TO.N,Net-(D4-Pad1)*
X81056248Y-126372764D03*
G04 #@! TO.P,P2,3*
G04 #@! TO.N,Net-(D4-Pad2)*
X81056248Y-127022764D03*
G04 #@! TO.P,P2,4*
G04 #@! TO.N,N/C*
X81056248Y-127672764D03*
G04 #@! TO.P,P2,5*
G04 #@! TO.N,Net-(L1-Pad1)*
X81056248Y-128322764D03*
G04 #@! TD*
D34*
G04 #@! TO.P,P4,1*
G04 #@! TO.N,Net-(P4-Pad1)*
X110923088Y-126205684D03*
D35*
G04 #@! TO.P,P4,2*
G04 #@! TO.N,Net-(P4-Pad2)*
X112923088Y-126205684D03*
G04 #@! TD*
D25*
G04 #@! TO.P,TP1,1*
G04 #@! TO.N,/LCD/~LCD_CS*
X117313088Y-126275684D03*
G04 #@! TD*
G04 #@! TO.P,TP2,1*
G04 #@! TO.N,/IMU_Wake/~IMU_CS*
X107923088Y-110685684D03*
G04 #@! TD*
G04 #@! TO.P,TP3,1*
G04 #@! TO.N,/IMU_Wake/SPI_MISO*
X112423088Y-106005684D03*
G04 #@! TD*
G04 #@! TO.P,TP5,1*
G04 #@! TO.N,/IMU_Wake/SPI_CLK*
X108423088Y-108605684D03*
G04 #@! TD*
G04 #@! TO.P,TP6,1*
G04 #@! TO.N,/IMU_Wake/SPI_MOSI*
X109823088Y-106605684D03*
G04 #@! TD*
G04 #@! TO.P,TP7,1*
G04 #@! TO.N,/Sensors and Interfaces/I2C_0_CLK*
X113623088Y-91905684D03*
G04 #@! TD*
G04 #@! TO.P,TP8,1*
G04 #@! TO.N,/Sensors and Interfaces/I2C_0_DTA*
X108623088Y-94155684D03*
G04 #@! TD*
G04 #@! TO.P,TP11,1*
G04 #@! TO.N,GND*
X160103088Y-108715684D03*
G04 #@! TD*
G04 #@! TO.P,TP12,1*
G04 #@! TO.N,GND*
X89018088Y-112997284D03*
G04 #@! TD*
G04 #@! TO.P,TP15,1*
G04 #@! TO.N,+3V3*
X100893088Y-137172284D03*
G04 #@! TD*
D36*
G04 #@! TO.P,R44,1*
G04 #@! TO.N,+BATT*
X110418088Y-123347284D03*
G04 #@! TO.P,R44,2*
G04 #@! TO.N,Net-(P4-Pad2)*
X113318088Y-123347284D03*
G04 #@! TD*
D37*
G04 #@! TO.P,S1,1*
G04 #@! TO.N,Net-(R17-Pad2)*
X95060000Y-145252000D03*
G04 #@! TO.P,S1,2*
X103060000Y-145252000D03*
G04 #@! TO.P,S1,3*
G04 #@! TO.N,+3V3*
X103060000Y-140752000D03*
G04 #@! TO.P,S1,4*
X95060000Y-140752000D03*
G04 #@! TD*
D38*
G04 #@! TO.P,ADJ_1,*
G04 #@! TO.N,*
X90723088Y-148005684D03*
G04 #@! TD*
G04 #@! TO.P,ADJ_2,*
G04 #@! TO.N,*
X147923088Y-85505684D03*
G04 #@! TD*
D39*
G04 #@! TO.P,P1,*
G04 #@! TO.N,*
X156623088Y-83905684D03*
X156623088Y-95205684D03*
D40*
G04 #@! TO.P,P1,1*
G04 #@! TO.N,Net-(JP1-Pad2)*
X158773088Y-85805684D03*
G04 #@! TO.P,P1,2*
G04 #@! TO.N,N/C*
X158773088Y-88305684D03*
G04 #@! TO.P,P1,3*
G04 #@! TO.N,GND*
X158773088Y-90805684D03*
G04 #@! TO.P,P1,4*
G04 #@! TO.N,N/C*
X158773088Y-93305684D03*
G04 #@! TD*
D41*
G04 #@! TO.N,GND*
G04 #@! TO.C,U11*
X159123088Y-121805684D03*
D42*
X157923088Y-121205684D03*
X158723088Y-121205684D03*
X158723088Y-122405684D03*
X157923088Y-122405684D03*
X160323088Y-121205684D03*
X159523088Y-121205684D03*
X159523088Y-122405684D03*
X160323088Y-122405684D03*
G04 #@! TD*
D29*
G04 #@! TO.P,C4,2*
G04 #@! TO.N,GND*
X99901168Y-134497284D03*
G04 #@! TO.P,C4,1*
G04 #@! TO.N,+BATT*
X99901168Y-132997284D03*
G04 #@! TD*
D43*
G04 #@! TO.P,C6,2*
G04 #@! TO.N,GND*
X102518088Y-135547284D03*
G04 #@! TO.P,C6,1*
G04 #@! TO.N,+3V3*
X101018088Y-135547284D03*
G04 #@! TD*
D29*
G04 #@! TO.P,C7,2*
G04 #@! TO.N,GND*
X97793088Y-127947284D03*
G04 #@! TO.P,C7,1*
G04 #@! TO.N,+V_chrg*
X97793088Y-126447284D03*
G04 #@! TD*
D43*
G04 #@! TO.P,C8,2*
G04 #@! TO.N,+BATT*
X98972460Y-122923332D03*
G04 #@! TO.P,C8,1*
G04 #@! TO.N,GND*
X100472460Y-122923332D03*
G04 #@! TD*
D28*
G04 #@! TO.P,L1,1*
G04 #@! TO.N,Net-(L1-Pad1)*
X82098088Y-130905684D03*
G04 #@! TO.P,L1,2*
G04 #@! TO.N,GND*
X83548088Y-130905684D03*
G04 #@! TD*
D44*
G04 #@! TO.P,P6,1*
G04 #@! TO.N,Net-(P3-Pad2)*
X130463088Y-85215684D03*
D45*
G04 #@! TO.P,P6,2*
G04 #@! TO.N,Net-(P3-Pad4)*
X133003088Y-85215684D03*
G04 #@! TO.P,P6,3*
G04 #@! TO.N,+3V3*
X135543088Y-85215684D03*
G04 #@! TO.P,P6,4*
G04 #@! TO.N,GND*
X138083088Y-85215684D03*
G04 #@! TO.P,P6,5*
G04 #@! TO.N,Net-(D5-Pad1)*
X140623088Y-85215684D03*
G04 #@! TD*
D21*
G04 #@! TO.P,Q7,3*
G04 #@! TO.N,Net-(C55-Pad2)*
X162583088Y-113105684D03*
G04 #@! TO.P,Q7,2*
G04 #@! TO.N,GND*
X160583088Y-114055684D03*
G04 #@! TO.P,Q7,1*
G04 #@! TO.N,/Piezo/PZ*
X160583088Y-112155684D03*
G04 #@! TD*
D46*
G04 #@! TO.P,R18,2*
G04 #@! TO.N,Net-(C55-Pad2)*
X164983088Y-113095684D03*
G04 #@! TO.P,R18,1*
G04 #@! TO.N,/Piezo/V_Piezo*
X164983088Y-115995684D03*
G04 #@! TD*
D47*
G04 #@! TO.P,MP1,1*
G04 #@! TO.N,Net-(MP1-Pad1)*
X124223088Y-116305684D03*
G04 #@! TD*
G04 #@! TO.P,MP2,1*
G04 #@! TO.N,Net-(MP2-Pad1)*
X117023088Y-109705684D03*
G04 #@! TD*
G04 #@! TO.P,MP3,1*
G04 #@! TO.N,Net-(MP3-Pad1)*
X131923088Y-117105684D03*
G04 #@! TD*
G04 #@! TO.P,MP4,1*
G04 #@! TO.N,Net-(MP4-Pad1)*
X131633088Y-115185684D03*
G04 #@! TD*
G04 #@! TO.P,MP5,1*
G04 #@! TO.N,Net-(MP5-Pad1)*
X144723088Y-108705684D03*
G04 #@! TD*
G04 #@! TO.P,MP6,1*
G04 #@! TO.N,Net-(MP6-Pad1)*
X139873088Y-113005684D03*
G04 #@! TD*
G04 #@! TO.P,MP7,1*
G04 #@! TO.N,Net-(MP7-Pad1)*
X138223088Y-117405684D03*
G04 #@! TD*
G04 #@! TO.P,MP8,1*
G04 #@! TO.N,Net-(MP8-Pad1)*
X136223088Y-117405684D03*
G04 #@! TD*
G04 #@! TO.P,MP9,1*
G04 #@! TO.N,Net-(MP9-Pad1)*
X136073088Y-121755684D03*
G04 #@! TD*
D42*
G04 #@! TO.N,*
X120323088Y-109905684D03*
X112959576Y-102381097D03*
X115910590Y-105543693D03*
G04 #@! TO.N,+3V3*
X109263088Y-113345684D03*
X128723088Y-94805684D03*
X141123088Y-98605684D03*
X139323088Y-107305684D03*
X119623089Y-96205685D03*
X125673088Y-107005684D03*
X141563078Y-122405684D03*
X108723088Y-101105684D03*
X108823088Y-100105684D03*
X145023088Y-153905684D03*
X132503088Y-100485684D03*
X115683088Y-111855684D03*
X111043088Y-113715684D03*
X124373088Y-123035684D03*
X140313088Y-102485684D03*
X114323088Y-155405684D03*
X159553088Y-134505684D03*
X134993088Y-115285684D03*
G04 #@! TO.N,GND*
X107403088Y-112565684D03*
X127253088Y-129585684D03*
X138023088Y-121105684D03*
X139323088Y-97505684D03*
X116218244Y-117993673D03*
X116123088Y-154305684D03*
X102523088Y-136505684D03*
X100723082Y-133905684D03*
X166423088Y-120805684D03*
X153383098Y-134605684D03*
X136643088Y-153555684D03*
X98323088Y-135405684D03*
X152223088Y-143905684D03*
X133673088Y-95955684D03*
X143923088Y-126105684D03*
X124723088Y-109905684D03*
X123323088Y-104605684D03*
X163623088Y-132105684D03*
X84423088Y-130905684D03*
X91423088Y-127905684D03*
X140623088Y-154105684D03*
X108623088Y-102105684D03*
X108223088Y-98405684D03*
X114623088Y-100305684D03*
X114223088Y-99405684D03*
X145323088Y-102905684D03*
X109423088Y-150205684D03*
X108823088Y-151005684D03*
X113223088Y-150205684D03*
X140223088Y-151305684D03*
X144073088Y-151255684D03*
X156973088Y-130055684D03*
X96923088Y-128005684D03*
X157923088Y-91305684D03*
X157923088Y-90205684D03*
X157923088Y-90805684D03*
X128423088Y-105805684D03*
X119123088Y-106705684D03*
X92073088Y-140705684D03*
X132553088Y-122335684D03*
X105073088Y-127525684D03*
X100253088Y-125175684D03*
X102693088Y-125025684D03*
X104593088Y-125735684D03*
X83403088Y-127465684D03*
X166683088Y-135395684D03*
X156186141Y-152393737D03*
X159140634Y-149439245D03*
X164319075Y-138951671D03*
X129379338Y-164261934D03*
X134705568Y-126413164D03*
X134105408Y-125473364D03*
X133620608Y-124508164D03*
X133089688Y-123447284D03*
X134393088Y-105072284D03*
X131043088Y-105072284D03*
X131943088Y-105072284D03*
X133523046Y-105076285D03*
X132741258Y-105076286D03*
X84168088Y-121747284D03*
X111543088Y-111885684D03*
X111953088Y-115515684D03*
X160593088Y-115225684D03*
X90973088Y-145125684D03*
X127033088Y-123955684D03*
X123473088Y-119345684D03*
X119343088Y-124115684D03*
X121683078Y-127025684D03*
X125543088Y-125805663D03*
X160453088Y-125705684D03*
X111243088Y-153215682D03*
X143933088Y-97555684D03*
X141313088Y-102605684D03*
X142993088Y-107145684D03*
X133623088Y-115005684D03*
X134543151Y-111775093D03*
X168883088Y-131935684D03*
X170183086Y-129905684D03*
G04 #@! TO.N,+BATT*
X129823088Y-162705684D03*
X125723088Y-162305684D03*
X91623088Y-132405684D03*
X110393088Y-121985684D03*
X115519767Y-121728228D03*
X153493088Y-152715684D03*
X106618088Y-131172284D03*
X101933088Y-131695684D03*
X90983088Y-132405708D03*
X90263064Y-132405708D03*
X166283088Y-133865684D03*
X165433088Y-134725684D03*
X164483088Y-135705684D03*
G04 #@! TO.N,Net-(D5-Pad1)*
X127223088Y-91705690D03*
G04 #@! TO.N,Net-(G1-Pad3)*
X165578688Y-126966884D03*
X165123088Y-132505684D03*
X170103088Y-130875684D03*
G04 #@! TO.N,/Power/VBatDiv*
X134613899Y-118692673D03*
X136168088Y-108365653D03*
G04 #@! TO.N,/Power/ChargeStat*
X126518088Y-118972284D03*
X101218088Y-125222284D03*
X117293088Y-122775684D03*
X135203088Y-119405684D03*
X137353523Y-108578306D03*
G04 #@! TO.N,/LCD/LCD_A0*
X121248088Y-129580684D03*
X129873088Y-114595684D03*
G04 #@! TO.N,/LCD/~LCD_BACKLIGHT*
X127923088Y-95805684D03*
X107923088Y-103005684D03*
X128023088Y-98775694D03*
G04 #@! TO.N,/LCD/~LCD_CS*
X130605806Y-113468875D03*
G04 #@! TO.N,/IMU_Wake/HIB_IO*
X92490775Y-122319971D03*
X117493088Y-112722284D03*
X109018088Y-121122284D03*
X114963088Y-114595684D03*
X129873098Y-107797284D03*
X126923088Y-112605682D03*
G04 #@! TO.N,/IMU_Wake/SPI_CLK*
X137923088Y-129105684D03*
X128440271Y-112473567D03*
X111453088Y-108605684D03*
X125963088Y-129695684D03*
X125743088Y-126925684D03*
G04 #@! TO.N,/IMU_Wake/SPI_MISO*
X127523088Y-110105684D03*
X143723088Y-122705684D03*
X143923088Y-120355694D03*
X127133268Y-119955694D03*
G04 #@! TO.N,/IMU_Wake/SPI_MOSI*
X115343088Y-130485684D03*
X113984949Y-115765694D03*
X120053088Y-116635684D03*
G04 #@! TO.N,/LEDs/LED_RED*
X139470027Y-102412444D03*
X141923121Y-115534943D03*
X149333088Y-115665684D03*
G04 #@! TO.N,/LEDs/LED_GRN*
X163634999Y-136757412D03*
X147383088Y-134925684D03*
X141310017Y-101855679D03*
G04 #@! TO.N,/LEDs/LED_BLU*
X154183088Y-147235684D03*
X139582358Y-101141040D03*
X148503100Y-142115684D03*
G04 #@! TO.N,/Piezo/PZ_EN*
X163223088Y-119105684D03*
X160423088Y-132105684D03*
X126403078Y-109897284D03*
X125731983Y-115574621D03*
X156422620Y-119094353D03*
G04 #@! TO.N,/Piezo/PZ*
X141763078Y-116391813D03*
X139323088Y-103158116D03*
X158343088Y-115605684D03*
G04 #@! TO.N,Net-(C10-Pad1)*
X136994569Y-105631001D03*
X128773078Y-104705684D03*
G04 #@! TO.N,/Sensors and Interfaces/PowerMagSense3*
X143773088Y-153155684D03*
G04 #@! TO.N,/Sensors and Interfaces/RESET*
X125144688Y-94997284D03*
X125273091Y-103405677D03*
G04 #@! TO.N,/Sensors and Interfaces/~Relay1*
X147933098Y-113105684D03*
X128053088Y-158215684D03*
G04 #@! TO.N,/Sensors and Interfaces/~Relay2*
X123963078Y-158549024D03*
X138018088Y-110597284D03*
X149053110Y-117202412D03*
X140123088Y-115705684D03*
G04 #@! TO.N,/Sensors and Interfaces/USB-*
X137023088Y-94605684D03*
X84833078Y-125226920D03*
X137123088Y-103605684D03*
G04 #@! TO.N,/Sensors and Interfaces/USB+*
X137923088Y-95505680D03*
X85743088Y-127485684D03*
X137082558Y-104354600D03*
G04 #@! TO.N,/Sensors and Interfaces/VBUS_DETECT*
X125673088Y-96355684D03*
X126143088Y-97947284D03*
X87018091Y-118847281D03*
G04 #@! TO.N,/Sensors and Interfaces/I2C_0_DTA*
X147138288Y-101668484D03*
X158323094Y-147405684D03*
X150623088Y-103505684D03*
X120148985Y-101317812D03*
X155737514Y-111094606D03*
X141623088Y-155775684D03*
X111014241Y-154034060D03*
G04 #@! TO.N,/Sensors and Interfaces/I2C_0_CLK*
X156603088Y-147835684D03*
X149953087Y-153275685D03*
X136123088Y-157705684D03*
X120823088Y-100705686D03*
X105823094Y-148605684D03*
X154823088Y-110545684D03*
G04 #@! TO.N,/Sensors and Interfaces/TMS*
X120803088Y-91035684D03*
X121073088Y-102455684D03*
G04 #@! TO.N,/Sensors and Interfaces/TCK*
X121883088Y-95125684D03*
X122023088Y-102155674D03*
D48*
G04 #@! TO.N,Net-(JP1-Pad2)*
X153023088Y-124305684D03*
X153023088Y-123181446D03*
D42*
G04 #@! TO.N,/LCD/LCD_EN*
X121373088Y-118585684D03*
X123673088Y-99015684D03*
G04 #@! TO.N,/LCD/~LCD_RESET*
X118823088Y-102005684D03*
X118923088Y-118445684D03*
G04 #@! TO.N,/Piezo/V_Piezo*
X164823088Y-117145684D03*
G04 #@! TO.N,Net-(L1-Pad1)*
X81063088Y-129015684D03*
G04 #@! TO.N,/xmc4200/~eeCs*
X127615711Y-99417303D03*
X124703088Y-118695684D03*
G04 #@! TO.N,/xmc4200/~eeWp*
X150878389Y-123645673D03*
X133223088Y-91405684D03*
X148123088Y-93705684D03*
X131213088Y-98255684D03*
G04 #@! TO.N,/Piezo/~PZ*
X139816249Y-109787275D03*
X141623084Y-117752422D03*
G04 #@! TO.N,/xmc4200/~eeHold*
X131242374Y-91005841D03*
X150623088Y-108905684D03*
X142323088Y-123405684D03*
X147023088Y-93105684D03*
X130471473Y-97691352D03*
X145153088Y-110685684D03*
G04 #@! TO.N,/Sensors and Interfaces/S_PWR1_EN*
X134623088Y-98505688D03*
X110623088Y-97405684D03*
X110873088Y-102055684D03*
X134788027Y-94003643D03*
G04 #@! TO.N,/Sensors and Interfaces/S_PWR2_EN*
X135551268Y-98525086D03*
X109123088Y-155805684D03*
X135963088Y-93285684D03*
G04 #@! TO.N,/Sensors and Interfaces/S_PWR3_EN*
X152713088Y-150715684D03*
X141567302Y-95257428D03*
X135998088Y-97880684D03*
G04 #@! TO.N,/IMU_Wake/~IMU_CS*
X129832960Y-113548466D03*
X108633088Y-115015684D03*
X127648514Y-113472092D03*
G04 #@! TO.N,Net-(MP9-Pad1)*
X135323088Y-111805684D03*
G04 #@! TO.N,/Piezo/vPU~D*
X136223088Y-106305684D03*
X141008566Y-119305706D03*
X155573088Y-119795684D03*
X164723088Y-118195684D03*
G04 #@! TO.N,/Piezo/~vPCS*
X134060395Y-115870545D03*
X133823088Y-108365653D03*
G04 #@! TD*
D49*
G04 #@! TO.N,*
X120508770Y-109905684D02*
X120323088Y-109905684D01*
X112959576Y-102381097D02*
X115910590Y-105332111D01*
X115910590Y-105332111D02*
X115910590Y-105543693D01*
G04 #@! TO.N,+3V3*
X119623089Y-95781421D02*
X119623089Y-96205685D01*
X119623089Y-89527283D02*
X119623089Y-95781421D01*
X120498088Y-88652284D02*
X119623089Y-89527283D01*
X121198088Y-88652284D02*
X120498088Y-88652284D01*
X103060000Y-140752000D02*
X95060000Y-140752000D01*
X100893088Y-137172284D02*
X98606488Y-137172284D01*
X98606488Y-137172284D02*
X96573088Y-139205684D01*
X96573088Y-139205684D02*
X96573088Y-140752000D01*
X96573088Y-140752000D02*
X95060000Y-140752000D01*
X101218088Y-135547284D02*
X101218088Y-136847284D01*
X101218088Y-136847284D02*
X100893088Y-137172284D01*
X101185288Y-134606764D02*
X101185288Y-135514484D01*
X101185288Y-135514484D02*
X101218088Y-135547284D01*
G04 #@! TO.N,GND*
X116241533Y-117970384D02*
X116218244Y-117993673D01*
X116950508Y-117970384D02*
X116241533Y-117970384D01*
X102523088Y-136081420D02*
X102523088Y-136505684D01*
X102318088Y-135547284D02*
X102523088Y-135752284D01*
X102523088Y-135752284D02*
X102523088Y-136081420D01*
X101411368Y-133905684D02*
X101147346Y-133905684D01*
X101685288Y-133206764D02*
X101685288Y-133631764D01*
X101685288Y-133631764D02*
X101411368Y-133905684D01*
X99901168Y-134297284D02*
X100331482Y-134297284D01*
X101147346Y-133905684D02*
X100723082Y-133905684D01*
X100423083Y-134205683D02*
X100723082Y-133905684D01*
X100331482Y-134297284D02*
X100423083Y-134205683D01*
X152223088Y-144880684D02*
X152223088Y-143905684D01*
D50*
X83548088Y-130905684D02*
X84423088Y-130905684D01*
D49*
X90423088Y-127855684D02*
X91423088Y-127905684D01*
X97347352Y-128005684D02*
X96923088Y-128005684D01*
X97534688Y-128005684D02*
X97347352Y-128005684D01*
X97793088Y-127747284D02*
X97534688Y-128005684D01*
D51*
X157923088Y-90805684D02*
X157923088Y-91305684D01*
X157923088Y-90805684D02*
X157923088Y-90205684D01*
X158773088Y-90805684D02*
X157923088Y-90805684D01*
D49*
X92073088Y-140905684D02*
X92073088Y-140705684D01*
X92073088Y-141405684D02*
X92073088Y-140905684D01*
X105091848Y-127544444D02*
X105073088Y-127525684D01*
X105934408Y-127544444D02*
X105091848Y-127544444D01*
X100267380Y-125161392D02*
X100253088Y-125175684D01*
X100253088Y-124987120D02*
X100253088Y-125175684D01*
X100268088Y-124972120D02*
X100253088Y-124987120D01*
X100267380Y-124241412D02*
X100267380Y-125161392D01*
X102710860Y-125043456D02*
X102693088Y-125025684D01*
X102710860Y-125648332D02*
X102710860Y-125043456D01*
X104577288Y-125166964D02*
X104577288Y-125719884D01*
X104577288Y-125719884D02*
X104593088Y-125735684D01*
X83399107Y-127461703D02*
X83403088Y-127465684D01*
X83399107Y-126768764D02*
X83399107Y-127461703D01*
X167498088Y-135380684D02*
X166698088Y-135380684D01*
X166698088Y-135380684D02*
X166683088Y-135395684D01*
X155673088Y-151880684D02*
X156073088Y-152280684D01*
X155673088Y-151780684D02*
X155673088Y-151880684D01*
X158948088Y-149631791D02*
X159140634Y-149439245D01*
X158948088Y-150555684D02*
X158948088Y-149631791D01*
X156073088Y-152280684D02*
X156186141Y-152393737D01*
X164523088Y-138747658D02*
X164319075Y-138951671D01*
X164523088Y-137730684D02*
X164523088Y-138747658D01*
X152223088Y-144880684D02*
X152223088Y-146080684D01*
X152223088Y-146080684D02*
X152173088Y-146130684D01*
X116850508Y-119113384D02*
X116850508Y-118070384D01*
X116850508Y-118070384D02*
X116950508Y-117970384D01*
X100272460Y-122923332D02*
X101402340Y-122923332D01*
X100272460Y-122923332D02*
X100272460Y-124236332D01*
X100272460Y-124236332D02*
X100267380Y-124241412D01*
X84961208Y-121764964D02*
X84185768Y-121764964D01*
X84185768Y-121764964D02*
X84168088Y-121747284D01*
X84003768Y-121747284D02*
X84168088Y-121747284D01*
X83430008Y-121673524D02*
X83930008Y-121673524D01*
X83930008Y-121673524D02*
X84003768Y-121747284D01*
X160583088Y-114055684D02*
X160583088Y-114655684D01*
X160583088Y-114655684D02*
X160583088Y-115215684D01*
X160583088Y-115215684D02*
X160593088Y-115225684D01*
X90993088Y-144805684D02*
X90983088Y-144815684D01*
X90993088Y-144405684D02*
X90993088Y-144805684D01*
X90983088Y-144815684D02*
X90983088Y-145115684D01*
X90983088Y-145115684D02*
X90973088Y-145125684D01*
D52*
G04 #@! TO.N,+BATT*
X153493088Y-149864882D02*
X153493088Y-152291420D01*
X153413086Y-146788914D02*
X153413086Y-149784880D01*
X155450000Y-144752000D02*
X153413086Y-146788914D01*
X155950000Y-144752000D02*
X155450000Y-144752000D01*
X153413086Y-149784880D02*
X153493088Y-149864882D01*
X153493088Y-152291420D02*
X153493088Y-152715684D01*
D53*
X99317380Y-124241412D02*
X99317380Y-125112780D01*
X99317380Y-125112780D02*
X100223088Y-126018488D01*
X100223088Y-126018488D02*
X100223088Y-131975364D01*
X100223088Y-131975364D02*
X99901168Y-132297284D01*
X99901168Y-132297284D02*
X99901168Y-132997284D01*
D52*
X109718088Y-123347284D02*
X110418088Y-123347284D01*
D49*
X110393088Y-121985684D02*
X110393088Y-123322284D01*
X110393088Y-123322284D02*
X110418088Y-123347284D01*
X116950508Y-120256384D02*
X116950508Y-120356384D01*
X115578664Y-121728228D02*
X115519767Y-121728228D01*
X116950508Y-120356384D02*
X115578664Y-121728228D01*
D53*
X155950000Y-144752000D02*
X155011402Y-144752000D01*
D49*
X99901168Y-133197284D02*
X100468088Y-133197284D01*
X100468088Y-133197284D02*
X101175808Y-133197284D01*
D52*
X106794409Y-130995963D02*
X106618088Y-131172284D01*
X109718088Y-123347284D02*
X106794409Y-126270963D01*
X106794409Y-126270963D02*
X106794409Y-130995963D01*
D49*
X99172460Y-122923332D02*
X99172460Y-124096492D01*
X99172460Y-124096492D02*
X99317380Y-124241412D01*
X101185288Y-133206764D02*
X101185288Y-132781764D01*
X101185288Y-132781764D02*
X101245289Y-132721763D01*
X101245289Y-132721763D02*
X102125287Y-132721763D01*
X102125287Y-132721763D02*
X102185288Y-132781764D01*
X102185288Y-132781764D02*
X102185288Y-133206764D01*
X101175808Y-133197284D02*
X101185288Y-133206764D01*
D50*
X101933088Y-131695684D02*
X102185288Y-131947884D01*
X102185288Y-131947884D02*
X102185288Y-132781764D01*
D51*
X166283088Y-133865684D02*
X165433088Y-134715684D01*
X165433088Y-134715684D02*
X165433088Y-134725684D01*
X164483088Y-135675684D02*
X164483088Y-135705684D01*
X165433088Y-134725684D02*
X164483088Y-135675684D01*
D49*
G04 #@! TO.N,Net-(C22-Pad1)*
X80456248Y-123422764D02*
X80456248Y-122722764D01*
X80456248Y-122722764D02*
X81505488Y-121673524D01*
X81505488Y-121673524D02*
X81830008Y-121673524D01*
X81830008Y-121673524D02*
X82330008Y-121673524D01*
G04 #@! TO.N,Net-(D5-Pad1)*
X127223088Y-90867284D02*
X127223088Y-91281426D01*
X127223088Y-91281426D02*
X127223088Y-91705690D01*
X126278088Y-89922284D02*
X127223088Y-90867284D01*
X138973088Y-86865684D02*
X129334688Y-86865684D01*
X140623088Y-85215684D02*
X138973088Y-86865684D01*
X129334688Y-86865684D02*
X126778087Y-89422285D01*
X126778087Y-89422285D02*
X126278088Y-89922284D01*
G04 #@! TO.N,Net-(G1-Pad3)*
X165123088Y-132505684D02*
X165123088Y-127501884D01*
X165123088Y-127501884D02*
X165121488Y-127500284D01*
X165121488Y-127500284D02*
X165121488Y-127424084D01*
X165121488Y-127424084D02*
X165578688Y-126966884D01*
X165547352Y-132505684D02*
X167177352Y-130875684D01*
X165123088Y-132505684D02*
X165547352Y-132505684D01*
X167177352Y-130875684D02*
X170103088Y-130875684D01*
G04 #@! TO.N,Net-(D4-Pad2)*
X83733166Y-128025686D02*
X84163648Y-127595204D01*
X82851031Y-128025686D02*
X83733166Y-128025686D01*
X82394109Y-127568764D02*
X82851031Y-128025686D01*
X82394109Y-127168764D02*
X82394109Y-127568764D01*
X84163648Y-127595204D02*
X84163648Y-127495204D01*
D53*
X81056248Y-127022764D02*
X82248109Y-127022764D01*
X82248109Y-127022764D02*
X82394109Y-127168764D01*
D49*
G04 #@! TO.N,/Power/VBatDiv*
X113885087Y-116893685D02*
X113123088Y-117655684D01*
X117950508Y-119113384D02*
X117950508Y-120156384D01*
X117950508Y-120156384D02*
X117850508Y-120256384D01*
X117850508Y-117870384D02*
X117850508Y-117970384D01*
X116873809Y-116893685D02*
X117850508Y-117870384D01*
X113885087Y-116893685D02*
X116873809Y-116893685D01*
X134613899Y-118692673D02*
X134613899Y-117014873D01*
X134613899Y-117014873D02*
X136168088Y-115460684D01*
X136168088Y-115460684D02*
X136168088Y-108789917D01*
X136168088Y-108789917D02*
X136168088Y-108365653D01*
X117850508Y-119013384D02*
X117950508Y-119113384D01*
X117850508Y-117970384D02*
X117850508Y-119013384D01*
G04 #@! TO.N,/Power/ChargeStat*
X101218088Y-124972120D02*
X101218088Y-125222284D01*
X101217380Y-124241412D02*
X101217380Y-124971412D01*
X101217380Y-124971412D02*
X101218088Y-124972120D01*
X126518088Y-118972284D02*
X123014687Y-122475685D01*
X117593087Y-122475685D02*
X117293088Y-122775684D01*
X123014687Y-122475685D02*
X117593087Y-122475685D01*
X135203088Y-119405684D02*
X135203088Y-116959686D01*
X135203088Y-116959686D02*
X137353523Y-114809251D01*
X137353523Y-109002570D02*
X137353523Y-108578306D01*
X137353523Y-114809251D02*
X137353523Y-109002570D01*
G04 #@! TO.N,Net-(Q4-Pad1)*
X150323088Y-144880684D02*
X150323088Y-146080684D01*
X150323088Y-146080684D02*
X150373088Y-146130684D01*
G04 #@! TO.N,Net-(D4-Pad1)*
X82394109Y-126368764D02*
X82624029Y-126138844D01*
X82624029Y-126138844D02*
X84204288Y-126138844D01*
D53*
X81056248Y-126372764D02*
X82390109Y-126372764D01*
X82390109Y-126372764D02*
X82394109Y-126368764D01*
D49*
G04 #@! TO.N,Net-(DS2-Pad1)*
X153148088Y-141330684D02*
X155871316Y-141330684D01*
X155871316Y-141330684D02*
X155950000Y-141252000D01*
G04 #@! TO.N,Net-(DS2-Pad3)*
X161550000Y-144752000D02*
X161550000Y-147453772D01*
X161550000Y-147453772D02*
X161498088Y-147505684D01*
G04 #@! TO.N,Net-(DS2-Pad4)*
X164298088Y-141380684D02*
X161678684Y-141380684D01*
X161678684Y-141380684D02*
X161550000Y-141252000D01*
G04 #@! TO.N,Net-(L3-Pad2)*
X82186848Y-123913804D02*
X82186848Y-122763804D01*
X82186848Y-122763804D02*
X82246849Y-122703803D01*
X82246849Y-122703803D02*
X84204647Y-122703803D01*
X84204647Y-122703803D02*
X84561208Y-123060364D01*
X84561208Y-123060364D02*
X84961208Y-123060364D01*
D52*
X82106728Y-125047284D02*
X82106728Y-123993924D01*
D53*
X82106728Y-123993924D02*
X82186848Y-123913804D01*
X81056248Y-125722764D02*
X81431248Y-125722764D01*
D52*
X81431248Y-125722764D02*
X82106728Y-125047284D01*
D49*
G04 #@! TO.N,Net-(Q4-Pad3)*
X151248088Y-141330684D02*
X151248088Y-142855684D01*
X151248088Y-142855684D02*
X151273088Y-142880684D01*
G04 #@! TO.N,Net-(Q5-Pad1)*
X166423088Y-137730684D02*
X167273088Y-137730684D01*
X167273088Y-137730684D02*
X167498088Y-137955684D01*
G04 #@! TO.N,Net-(Q5-Pad3)*
X165473088Y-139730684D02*
X165473088Y-141205684D01*
X165473088Y-141205684D02*
X165648088Y-141380684D01*
X165648088Y-141380684D02*
X166198088Y-141380684D01*
G04 #@! TO.N,Net-(Q6-Pad1)*
X157048088Y-150555684D02*
X155698088Y-150555684D01*
X155698088Y-150555684D02*
X155673088Y-150530684D01*
G04 #@! TO.N,Net-(Q6-Pad3)*
X158598088Y-148555684D02*
X157998088Y-148555684D01*
X158848088Y-148555684D02*
X158598088Y-148555684D01*
X159598088Y-147805684D02*
X158848088Y-148555684D01*
X159598088Y-147505684D02*
X159598088Y-147805684D01*
G04 #@! TO.N,Net-(Q8-Pad1)*
X105663568Y-124145884D02*
X105663568Y-125373604D01*
X105663568Y-125373604D02*
X105934408Y-125644444D01*
X105663568Y-124145884D02*
X104698368Y-124145884D01*
X104698368Y-124145884D02*
X104577288Y-124266964D01*
G04 #@! TO.N,/LCD/LCD_A0*
X121248088Y-129580684D02*
X124246892Y-129580684D01*
X124246892Y-129580684D02*
X128317289Y-125510287D01*
X129573089Y-114895683D02*
X129873088Y-114595684D01*
X128317289Y-125510287D02*
X128317289Y-116151483D01*
X128317289Y-116151483D02*
X129573089Y-114895683D01*
G04 #@! TO.N,/LCD/~LCD_BACKLIGHT*
X107623089Y-103305683D02*
X107923088Y-103005684D01*
X106563568Y-124145884D02*
X106563568Y-104365204D01*
X106563568Y-104365204D02*
X107623089Y-103305683D01*
X127923088Y-98675694D02*
X128023088Y-98775694D01*
X127923088Y-95805684D02*
X127923088Y-98675694D01*
G04 #@! TO.N,/LCD/~LCD_CS*
X130605806Y-115358964D02*
X128677300Y-117287470D01*
X130605806Y-113468875D02*
X130605806Y-115358964D01*
X128677300Y-117287470D02*
X128677300Y-125659408D01*
X128677300Y-125659408D02*
X124196022Y-130140685D01*
X124196022Y-130140685D02*
X120100459Y-130140685D01*
X117313088Y-127353314D02*
X117313088Y-126275684D01*
X120100459Y-130140685D02*
X117313088Y-127353314D01*
D52*
G04 #@! TO.N,+V_chrg*
X90418088Y-124597284D02*
X90423088Y-126355684D01*
X99311508Y-126447284D02*
X99317380Y-126441412D01*
X97793088Y-126447284D02*
X99311508Y-126447284D01*
X96863088Y-126495684D02*
X97429852Y-126495684D01*
X94953088Y-124585684D02*
X96863088Y-126495684D01*
X90556488Y-124585684D02*
X94953088Y-124585684D01*
X90418088Y-124597284D02*
X90418088Y-124447284D01*
X90418088Y-124447284D02*
X90556488Y-124585684D01*
G04 #@! TO.N,Net-(D1-Pad2)*
X83636848Y-123913804D02*
X86434608Y-123913804D01*
X86434608Y-123913804D02*
X87118088Y-124597284D01*
G04 #@! TO.N,Net-(P4-Pad1)*
X107934408Y-126594444D02*
X110534328Y-126594444D01*
X110534328Y-126594444D02*
X110923088Y-126205684D01*
G04 #@! TO.N,Net-(P4-Pad2)*
X113318088Y-123347284D02*
X113318088Y-125810684D01*
X113318088Y-125810684D02*
X112923088Y-126205684D01*
D49*
G04 #@! TO.N,/IMU_Wake/HIB_IO*
X90301488Y-142505684D02*
X92073088Y-142505684D01*
X92073088Y-142505684D02*
X92073088Y-143505684D01*
X117193089Y-113022283D02*
X117493088Y-112722284D01*
X115059688Y-115155684D02*
X117193089Y-113022283D01*
X89681488Y-141797284D02*
X89681488Y-141885684D01*
X89681488Y-141885684D02*
X90301488Y-142505684D01*
X90993088Y-143505684D02*
X92073088Y-143505684D01*
X115059688Y-115807888D02*
X115059688Y-115155684D01*
X114401890Y-116465686D02*
X115059688Y-115807888D01*
X112138086Y-116465686D02*
X114401890Y-116465686D01*
X109018088Y-121122284D02*
X109018088Y-119585684D01*
X109018088Y-119585684D02*
X112138086Y-116465686D01*
X88223088Y-140427284D02*
X89681488Y-141885684D01*
X88223088Y-125005684D02*
X88223088Y-140427284D01*
X90934251Y-122294521D02*
X88223088Y-125005684D01*
X92490775Y-122319971D02*
X92465325Y-122294521D01*
X92465325Y-122294521D02*
X90934251Y-122294521D01*
X114963088Y-115059084D02*
X114963088Y-115019948D01*
X115059688Y-115155684D02*
X114963088Y-115059084D01*
X114963088Y-115019948D02*
X114963088Y-114595684D01*
X129873098Y-107797284D02*
X129873098Y-109655672D01*
X127223087Y-112305683D02*
X126923088Y-112605682D01*
X129873098Y-109655672D02*
X127223087Y-112305683D01*
G04 #@! TO.N,/IMU_Wake/SPI_CLK*
X108423088Y-108605684D02*
X111453088Y-108605684D01*
X137623089Y-128805685D02*
X126853087Y-128805685D01*
X126263087Y-129395685D02*
X125963088Y-129695684D01*
X126853087Y-128805685D02*
X126263087Y-129395685D01*
X137923088Y-129105684D02*
X137623089Y-128805685D01*
X126043087Y-126625685D02*
X125743088Y-126925684D01*
X127869207Y-112473567D02*
X126944444Y-113398330D01*
X128440271Y-112473567D02*
X127869207Y-112473567D01*
X126944444Y-113398330D02*
X126944444Y-116392430D01*
X126944444Y-116392430D02*
X127768088Y-117216074D01*
X127768088Y-117216074D02*
X127768088Y-124900684D01*
X127768088Y-124900684D02*
X126043087Y-126625685D01*
G04 #@! TO.N,/IMU_Wake/SPI_MISO*
X143723088Y-122705684D02*
X143723088Y-120555694D01*
X143723088Y-120555694D02*
X143923088Y-120355694D01*
X126507174Y-113103772D02*
X126507174Y-118132568D01*
X126273087Y-112869685D02*
X126507174Y-113103772D01*
X126273087Y-111355685D02*
X126273087Y-112869685D01*
X127133268Y-118758662D02*
X127133268Y-119531430D01*
X127133268Y-119531430D02*
X127133268Y-119955694D01*
X126507174Y-118132568D02*
X127133268Y-118758662D01*
X127523088Y-110105684D02*
X126273087Y-111355685D01*
G04 #@! TO.N,/IMU_Wake/SPI_MOSI*
X113991615Y-109696581D02*
X113991615Y-115334764D01*
X113984949Y-115341430D02*
X113984949Y-115765694D01*
X110900718Y-106605684D02*
X113991615Y-109696581D01*
X109823088Y-106605684D02*
X110900718Y-106605684D01*
X113991615Y-115334764D02*
X113984949Y-115341430D01*
X115343088Y-123656882D02*
X120053088Y-118946882D01*
X120053088Y-118946882D02*
X120053088Y-117059948D01*
X120053088Y-117059948D02*
X120053088Y-116635684D01*
X115343088Y-130485684D02*
X115343088Y-123656882D01*
G04 #@! TO.N,Net-(R17-Pad2)*
X92073088Y-144405684D02*
X93023088Y-144405684D01*
X93023088Y-144405684D02*
X93869404Y-145252000D01*
X93869404Y-145252000D02*
X95060000Y-145252000D01*
X103060000Y-145252000D02*
X95060000Y-145252000D01*
G04 #@! TO.N,/LEDs/LED_RED*
X152173088Y-147030684D02*
X150373088Y-147030684D01*
X139770026Y-102806624D02*
X141923121Y-104959719D01*
X139770026Y-102712443D02*
X139770026Y-102806624D01*
X139470027Y-102412444D02*
X139770026Y-102712443D01*
X141923121Y-115110679D02*
X141923121Y-115534943D01*
X141923121Y-104959719D02*
X141923121Y-115110679D01*
X149633087Y-146390683D02*
X149633087Y-115965683D01*
X150273088Y-147030684D02*
X149633087Y-146390683D01*
X150373088Y-147030684D02*
X150273088Y-147030684D01*
X149633087Y-115965683D02*
X149333088Y-115665684D01*
G04 #@! TO.N,/LEDs/LED_GRN*
X164059263Y-136757412D02*
X163634999Y-136757412D01*
X166998088Y-137055684D02*
X166699816Y-136757412D01*
X166699816Y-136757412D02*
X164059263Y-136757412D01*
X167498088Y-137055684D02*
X166998088Y-137055684D01*
X167498088Y-136280684D02*
X167498088Y-137055684D01*
X147383088Y-107891682D02*
X141347085Y-101855679D01*
X147383088Y-134925684D02*
X147383088Y-107891682D01*
X141347085Y-101855679D02*
X141310017Y-101855679D01*
G04 #@! TO.N,/LEDs/LED_BLU*
X154483087Y-147535683D02*
X154183088Y-147235684D01*
X154773088Y-147825684D02*
X154483087Y-147535683D01*
X154773088Y-150530684D02*
X154773088Y-147825684D01*
X154773088Y-150530684D02*
X154773088Y-151780684D01*
X148343088Y-108305684D02*
X148343088Y-112686870D01*
X139582358Y-101141040D02*
X141798436Y-101141040D01*
X148503100Y-112846882D02*
X148503100Y-141691420D01*
X148343088Y-112686870D02*
X148503100Y-112846882D01*
X141798436Y-101141040D02*
X142597975Y-101940579D01*
X142597975Y-101940579D02*
X142597975Y-102560571D01*
X142597975Y-102560571D02*
X148343088Y-108305684D01*
X148503100Y-141691420D02*
X148503100Y-142115684D01*
G04 #@! TO.N,/Piezo/PZ_EN*
X160423088Y-131681420D02*
X160423088Y-132105684D01*
X160423088Y-127899686D02*
X160423088Y-131681420D01*
X163223088Y-119105684D02*
X163223088Y-125099686D01*
X163223088Y-125099686D02*
X160423088Y-127899686D01*
X125731983Y-115150357D02*
X125731983Y-115574621D01*
X125731983Y-110568379D02*
X125731983Y-115150357D01*
X126403078Y-109897284D02*
X125731983Y-110568379D01*
X156433951Y-119105684D02*
X156422620Y-119094353D01*
X163223088Y-119105684D02*
X156433951Y-119105684D01*
G04 #@! TO.N,/Piezo/PZ*
X159933088Y-112155684D02*
X158343088Y-113745684D01*
X160583088Y-112155684D02*
X159933088Y-112155684D01*
X158343088Y-113745684D02*
X158343088Y-115605684D01*
X139323088Y-103158116D02*
X141373111Y-105208139D01*
X141373111Y-116001844D02*
X141463079Y-116091814D01*
X141463079Y-116091814D02*
X141763078Y-116391813D01*
X141373111Y-105208139D02*
X141373111Y-116001844D01*
G04 #@! TO.N,Net-(D8-Pad1)*
X123026095Y-166206271D02*
X123086535Y-166266711D01*
G04 #@! TO.N,Net-(C10-Pad1)*
X136994569Y-105631001D02*
X129698395Y-105631001D01*
X129073077Y-105005683D02*
X128773078Y-104705684D01*
X129698395Y-105631001D02*
X129073077Y-105005683D01*
D50*
G04 #@! TO.N,Net-(R1-Pad1)*
X101852340Y-126150664D02*
X102038086Y-126336410D01*
X102038086Y-126336410D02*
X102143088Y-126441412D01*
X102302340Y-123023332D02*
X101852340Y-123473332D01*
X102302340Y-122923332D02*
X102302340Y-123023332D01*
X101852340Y-123473332D02*
X101852340Y-126150664D01*
D49*
X101217380Y-126441412D02*
X102143088Y-126441412D01*
X102143088Y-126441412D02*
X102603940Y-126441412D01*
G04 #@! TO.N,/Sensors and Interfaces/RESET*
X124844689Y-95297283D02*
X124844689Y-102977275D01*
X125144688Y-94997284D02*
X124844689Y-95297283D01*
X124844689Y-102977275D02*
X124973092Y-103105678D01*
X124973092Y-103105678D02*
X125273091Y-103405677D01*
G04 #@! TO.N,/Sensors and Interfaces/~Relay1*
X128353087Y-157915685D02*
X128053088Y-158215684D01*
X135843088Y-150425684D02*
X128353087Y-157915685D01*
X142003088Y-150425684D02*
X135843088Y-150425684D01*
X147933098Y-113105684D02*
X147933098Y-144495674D01*
X147933098Y-144495674D02*
X142003088Y-150425684D01*
G04 #@! TO.N,/Sensors and Interfaces/~Relay2*
X136353955Y-154665685D02*
X138491889Y-154665685D01*
X131978954Y-159040686D02*
X136353955Y-154665685D01*
X148903098Y-141686878D02*
X148903098Y-117352424D01*
X148903098Y-117352424D02*
X149053110Y-117202412D01*
X124454740Y-159040686D02*
X131978954Y-159040686D01*
X123963078Y-158549024D02*
X124454740Y-159040686D01*
X138491889Y-154665685D02*
X149063102Y-144094472D01*
X149063102Y-141846882D02*
X148903098Y-141686878D01*
X149063102Y-144094472D02*
X149063102Y-141846882D01*
X138018088Y-113600684D02*
X139823089Y-115405685D01*
X138018088Y-110597284D02*
X138018088Y-113600684D01*
X139823089Y-115405685D02*
X140123088Y-115705684D01*
G04 #@! TO.N,/Sensors and Interfaces/USB-*
X85104288Y-125498130D02*
X84833078Y-125226920D01*
X85104288Y-126138844D02*
X85104288Y-125498130D01*
X137023088Y-94605684D02*
X137023088Y-103505684D01*
X137023088Y-103505684D02*
X137123088Y-103605684D01*
G04 #@! TO.N,/Sensors and Interfaces/USB+*
X85733568Y-127495204D02*
X85743088Y-127485684D01*
X85063648Y-127495204D02*
X85733568Y-127495204D01*
X137506822Y-104354600D02*
X137082558Y-104354600D01*
X137923088Y-95505680D02*
X137923088Y-103938334D01*
X137923088Y-103938334D02*
X137506822Y-104354600D01*
G04 #@! TO.N,/Sensors and Interfaces/VBUS_DETECT*
X85861208Y-121764964D02*
X85923088Y-121703084D01*
X85923088Y-121703084D02*
X85923088Y-120005684D01*
X85923088Y-120005684D02*
X86968087Y-118960685D01*
X86968087Y-118960685D02*
X86968087Y-118797283D01*
X125673088Y-96779948D02*
X125673088Y-96355684D01*
X126143088Y-97947284D02*
X125673088Y-97477284D01*
X125673088Y-97477284D02*
X125673088Y-96779948D01*
X87018085Y-118847281D02*
X87018091Y-118847281D01*
X86968087Y-118797283D02*
X87018085Y-118847281D01*
X86993088Y-118822284D02*
X86968087Y-118797283D01*
X85861208Y-123060364D02*
X85861208Y-121764964D01*
G04 #@! TO.N,/Sensors and Interfaces/I2C_0_DTA*
X147138288Y-101668484D02*
X147925688Y-101668484D01*
X147925688Y-101668484D02*
X149762888Y-103505684D01*
X149762888Y-103505684D02*
X150623088Y-103505684D01*
X108623088Y-94155684D02*
X112986857Y-94155684D01*
X112986857Y-94155684D02*
X119848986Y-101017813D01*
X119848986Y-101017813D02*
X120148985Y-101317812D01*
X106023088Y-139505684D02*
X106023088Y-147605684D01*
X103973089Y-137455685D02*
X106023088Y-139505684D01*
X110714242Y-153734061D02*
X111014241Y-154034060D01*
X108123088Y-149705684D02*
X108123088Y-151142907D01*
X108123088Y-151142907D02*
X110714242Y-153734061D01*
X108623088Y-94155684D02*
X103973089Y-98805683D01*
X106023088Y-147605684D02*
X108123088Y-149705684D01*
X103973089Y-98805683D02*
X103973089Y-137455685D01*
X112803089Y-155822908D02*
X111014241Y-154034060D01*
X116585865Y-159605684D02*
X112803089Y-155822908D01*
X132523088Y-159605684D02*
X116585865Y-159605684D01*
X141623088Y-155775684D02*
X136353088Y-155775684D01*
X136353088Y-155775684D02*
X132523088Y-159605684D01*
X155543088Y-111289032D02*
X155737514Y-111094606D01*
X155543088Y-118081680D02*
X155543088Y-111289032D01*
X154853088Y-118771680D02*
X155543088Y-118081680D01*
X158883099Y-146845679D02*
X158883099Y-129759165D01*
X158323094Y-147405684D02*
X158883099Y-146845679D01*
X158883099Y-129759165D02*
X155993110Y-126869176D01*
X155993110Y-126869176D02*
X155993110Y-125965726D01*
X155993110Y-125965726D02*
X154853088Y-124825704D01*
X154853088Y-124825704D02*
X154853088Y-118771680D01*
G04 #@! TO.N,/Sensors and Interfaces/I2C_0_CLK*
X105823094Y-148605684D02*
X105195001Y-147977591D01*
X105195001Y-147977591D02*
X105195001Y-139843999D01*
X103413088Y-96440684D02*
X107148088Y-92705684D01*
X105195001Y-139843999D02*
X103413088Y-138062086D01*
X103413088Y-138062086D02*
X103413088Y-96440684D01*
X107148088Y-92705684D02*
X112723088Y-92705684D01*
X133423088Y-160405684D02*
X135823089Y-158005683D01*
X115423088Y-160405684D02*
X133423088Y-160405684D01*
X105823094Y-150805690D02*
X115423088Y-160405684D01*
X105823094Y-148605684D02*
X105823094Y-150805690D01*
X135823089Y-158005683D02*
X136123088Y-157705684D01*
X112723088Y-92705684D02*
X120523089Y-100505685D01*
X112723088Y-92705684D02*
X112823088Y-92705684D01*
X112823088Y-92705684D02*
X113623088Y-91905684D01*
X120723090Y-100705686D02*
X120823088Y-100705686D01*
X120523089Y-100505685D02*
X120723090Y-100705686D01*
X143173088Y-157705684D02*
X136123088Y-157705684D01*
X149953087Y-153275685D02*
X147603087Y-153275685D01*
X147603087Y-153275685D02*
X143173088Y-157705684D01*
X154823088Y-110969948D02*
X154823088Y-110545684D01*
X154823088Y-118306690D02*
X154823088Y-110969948D01*
X154503078Y-118626700D02*
X154823088Y-118306690D01*
X155643099Y-126110705D02*
X154503077Y-124970683D01*
X158523088Y-146339948D02*
X158523088Y-129908286D01*
X154503077Y-124970683D02*
X154503078Y-118626700D01*
X156603088Y-147835684D02*
X157027352Y-147835684D01*
X158523088Y-129908286D02*
X155643099Y-127028297D01*
X157027352Y-147835684D02*
X158523088Y-146339948D01*
X155643099Y-127028297D02*
X155643099Y-126110705D01*
G04 #@! TO.N,/Sensors and Interfaces/TMS*
X121373089Y-100026881D02*
X121373089Y-102155683D01*
X121373089Y-102155683D02*
X121373087Y-102155685D01*
X120803088Y-99456880D02*
X121373089Y-100026881D01*
X120803088Y-91035684D02*
X120803088Y-99456880D01*
X121373087Y-102155685D02*
X121073088Y-102455684D01*
G04 #@! TO.N,/Sensors and Interfaces/TCK*
X121883088Y-102015674D02*
X122023088Y-102155674D01*
X121883088Y-95125684D02*
X121883088Y-102015674D01*
D51*
G04 #@! TO.N,Net-(JP1-Pad2)*
X153023088Y-124305684D02*
X153023088Y-123181446D01*
X158773088Y-85805684D02*
X158773088Y-85955684D01*
X158773088Y-85955684D02*
X153023088Y-91705684D01*
X153023088Y-91705684D02*
X153023088Y-122474340D01*
X153023088Y-122474340D02*
X153023088Y-123181446D01*
D49*
G04 #@! TO.N,/LCD/LCD_EN*
X121373088Y-118585684D02*
X121373088Y-104975684D01*
X121373088Y-104975684D02*
X123673088Y-102675684D01*
X123673088Y-102675684D02*
X123673088Y-99015684D01*
G04 #@! TO.N,/LCD/~LCD_RESET*
X118523089Y-118045685D02*
X118623089Y-118145685D01*
X118623089Y-118145685D02*
X118923088Y-118445684D01*
X118523089Y-102305683D02*
X118523089Y-118045685D01*
X118823088Y-102005684D02*
X118523089Y-102305683D01*
G04 #@! TO.N,/Piezo/V_Piezo*
X164823088Y-116155684D02*
X164983088Y-115995684D01*
X164823088Y-117145684D02*
X164823088Y-116155684D01*
G04 #@! TO.N,Net-(C55-Pad2)*
X164973088Y-113105684D02*
X164983088Y-113095684D01*
X162583088Y-113105684D02*
X164973088Y-113105684D01*
X163750000Y-127000000D02*
X163750000Y-120908772D01*
X164983088Y-113745684D02*
X164983088Y-113095684D01*
X166093089Y-114855685D02*
X164983088Y-113745684D01*
X166093089Y-118565683D02*
X166093089Y-114855685D01*
X163750000Y-120908772D02*
X166093089Y-118565683D01*
D50*
G04 #@! TO.N,Net-(L1-Pad1)*
X81063088Y-129015684D02*
X81063088Y-129870684D01*
X81063088Y-129870684D02*
X82098088Y-130905684D01*
D53*
X81056248Y-128322764D02*
X81056248Y-129008844D01*
X81056248Y-129008844D02*
X81063088Y-129015684D01*
D49*
G04 #@! TO.N,/xmc4200/~eeCs*
X123223088Y-108505684D02*
X123223088Y-117215684D01*
X123223088Y-117215684D02*
X124403089Y-118395685D01*
X127615711Y-99417303D02*
X127615711Y-104113061D01*
X124403089Y-118395685D02*
X124703088Y-118695684D01*
X127615711Y-104113061D02*
X123223088Y-108505684D01*
G04 #@! TO.N,/xmc4200/~eeWp*
X151611072Y-122912990D02*
X151178388Y-123345674D01*
X148123088Y-97905684D02*
X151611072Y-101393668D01*
X148123088Y-93705684D02*
X148123088Y-97905684D01*
X151178388Y-123345674D02*
X150878389Y-123645673D01*
X151611072Y-101393668D02*
X151611072Y-122912990D01*
X131213088Y-93415684D02*
X131213088Y-97831420D01*
X133223088Y-91405684D02*
X131213088Y-93415684D01*
X131213088Y-97831420D02*
X131213088Y-98255684D01*
G04 #@! TO.N,/Piezo/~PZ*
X139816249Y-109787275D02*
X141023101Y-110994127D01*
X141023101Y-110994127D02*
X141023101Y-117152439D01*
X141023101Y-117152439D02*
X141323085Y-117452423D01*
X141323085Y-117452423D02*
X141623084Y-117752422D01*
G04 #@! TO.N,/xmc4200/~eeHold*
X150623088Y-108905684D02*
X151223088Y-108305684D01*
X151223088Y-108305684D02*
X151223088Y-103105684D01*
X147023088Y-98905684D02*
X151223088Y-103105684D01*
X147023088Y-93105684D02*
X147023088Y-98905684D01*
X130471473Y-91776742D02*
X130471473Y-97267088D01*
X131242374Y-91005841D02*
X130471473Y-91776742D01*
X130471473Y-97267088D02*
X130471473Y-97691352D01*
X143203088Y-112635684D02*
X144853089Y-110985683D01*
X144853089Y-110985683D02*
X145153088Y-110685684D01*
X143203088Y-122525684D02*
X143203088Y-112635684D01*
X142323088Y-123405684D02*
X143203088Y-122525684D01*
G04 #@! TO.N,/Sensors and Interfaces/S_PWR1_EN*
X134788027Y-94003643D02*
X134788027Y-98340749D01*
X134788027Y-98340749D02*
X134623088Y-98505688D01*
X110623088Y-101381420D02*
X110623088Y-97405684D01*
X110873088Y-102055684D02*
X110873088Y-101631420D01*
X110873088Y-101631420D02*
X110623088Y-101381420D01*
G04 #@! TO.N,/Sensors and Interfaces/S_PWR2_EN*
X135251269Y-98225087D02*
X135551268Y-98525086D01*
X135251269Y-97215121D02*
X135251269Y-98225087D01*
X135963088Y-93285684D02*
X135453509Y-93795263D01*
X135453509Y-97012881D02*
X135251269Y-97215121D01*
X135453509Y-93795263D02*
X135453509Y-97012881D01*
G04 #@! TO.N,/Sensors and Interfaces/S_PWR3_EN*
X136654287Y-93745683D02*
X140055557Y-93745683D01*
X135998088Y-94401882D02*
X136654287Y-93745683D01*
X135998088Y-97880684D02*
X135998088Y-94401882D01*
X140055557Y-93745683D02*
X141267303Y-94957429D01*
X141267303Y-94957429D02*
X141567302Y-95257428D01*
G04 #@! TO.N,/IMU_Wake/~IMU_CS*
X107923088Y-110685684D02*
X107923088Y-111763314D01*
X107923088Y-111763314D02*
X108633088Y-112473314D01*
X108633088Y-112473314D02*
X108633088Y-115015684D01*
X127724888Y-113548466D02*
X127648514Y-113472092D01*
X129832960Y-113548466D02*
X127724888Y-113548466D01*
G04 #@! TO.N,Net-(MP9-Pad1)*
X135623087Y-115459687D02*
X133863088Y-117219686D01*
X135323088Y-111805684D02*
X135623087Y-112105683D01*
X133863088Y-117219686D02*
X133863088Y-119545684D01*
X133863088Y-119545684D02*
X135323089Y-121005685D01*
X135323089Y-121005685D02*
X136073088Y-121755684D01*
X135623087Y-112105683D02*
X135623087Y-115459687D01*
G04 #@! TO.N,/Piezo/vPU~D*
X140708567Y-119005707D02*
X141008566Y-119305706D01*
X140673090Y-118970230D02*
X140708567Y-119005707D01*
X140673090Y-115441682D02*
X140673090Y-118970230D01*
X138623088Y-113391680D02*
X140673090Y-115441682D01*
X136223088Y-106305684D02*
X138623088Y-108705684D01*
X138623088Y-108705684D02*
X138623088Y-113391680D01*
X155573088Y-119371420D02*
X155873088Y-119071420D01*
X155573088Y-119795684D02*
X155573088Y-119371420D01*
X155873088Y-119071420D02*
X155873088Y-118265684D01*
X155873088Y-118265684D02*
X155943088Y-118195684D01*
X155943088Y-118195684D02*
X164723088Y-118195684D01*
G04 #@! TO.N,/Piezo/~vPCS*
X134360394Y-112406338D02*
X133823088Y-111869032D01*
X134360394Y-115570546D02*
X134360394Y-112406338D01*
X133823088Y-111869032D02*
X133823088Y-108789917D01*
X133823088Y-108789917D02*
X133823088Y-108365653D01*
X134060395Y-115870545D02*
X134360394Y-115570546D01*
G04 #@! TD*
M02*
