G04 #@! TF.GenerationSoftware,KiCad,Pcbnew,(5.1.2)-2*
G04 #@! TF.CreationDate,2019-10-03T15:28:12-06:00*
G04 #@! TF.ProjectId,MagSensor,4d616753-656e-4736-9f72-2e6b69636164,rev?*
G04 #@! TF.SameCoordinates,Original*
G04 #@! TF.FileFunction,Copper,L4,Bot*
G04 #@! TF.FilePolarity,Positive*
%FSLAX46Y46*%
G04 Gerber Fmt 4.6, Leading zero omitted, Abs format (unit mm)*
G04 Created by KiCad (PCBNEW (5.1.2)-2) date 2019-10-03 15:28:12*
%MOMM*%
%LPD*%
G04 APERTURE LIST*
%ADD10C,0.750000*%
%ADD11R,0.600000X0.400000*%
%ADD12C,2.000000*%
%ADD13R,1.350000X1.350000*%
%ADD14C,1.350000*%
%ADD15C,0.650000*%
%ADD16C,0.100000*%
%ADD17R,1.000000X0.250000*%
%ADD18R,0.250000X1.000000*%
%ADD19R,4.900000X4.900000*%
%ADD20R,0.500000X0.600000*%
%ADD21R,1.000000X1.000000*%
%ADD22O,1.000000X1.000000*%
%ADD23R,1.000000X1.250000*%
%ADD24R,0.600000X0.500000*%
%ADD25R,0.650000X1.060000*%
%ADD26R,0.800000X0.900000*%
%ADD27R,0.400000X0.600000*%
%ADD28C,0.400000*%
%ADD29R,2.600000X1.500000*%
%ADD30C,1.524000*%
%ADD31C,0.500000*%
%ADD32R,1.200000X0.900000*%
%ADD33R,0.900000X1.200000*%
%ADD34R,0.800000X0.750000*%
%ADD35C,6.000000*%
%ADD36O,1.700000X1.000000*%
%ADD37O,1.400000X1.000000*%
%ADD38R,1.200000X1.700000*%
%ADD39O,1.200000X1.700000*%
%ADD40C,1.200000*%
%ADD41R,0.750000X0.800000*%
%ADD42R,1.060000X0.650000*%
%ADD43R,1.600000X1.000000*%
%ADD44R,0.300000X1.400000*%
%ADD45R,2.650000X2.330000*%
%ADD46R,2.650000X2.300000*%
%ADD47R,0.900000X0.800000*%
%ADD48R,1.700000X0.900000*%
%ADD49R,0.350000X0.580000*%
%ADD50R,0.580000X0.350000*%
%ADD51C,1.500000*%
%ADD52R,1.778000X1.778000*%
%ADD53C,1.778000*%
%ADD54C,0.600000*%
%ADD55C,0.875000*%
%ADD56C,0.590000*%
%ADD57C,0.800000*%
%ADD58C,1.000000*%
%ADD59C,0.200000*%
%ADD60C,0.250000*%
%ADD61C,0.300000*%
%ADD62C,0.500000*%
%ADD63C,1.000000*%
G04 APERTURE END LIST*
D10*
X173323088Y-170705684D03*
X76323088Y-170705684D03*
X173323088Y-82705684D03*
X71323088Y-82705684D03*
D11*
X170304715Y-131023863D03*
X170304715Y-130123863D03*
D12*
X153750000Y-127000000D03*
X163750000Y-127000000D03*
D13*
X143423088Y-130405684D03*
D14*
X141423088Y-130405684D03*
D15*
X107443988Y-151140048D03*
D16*
G36*
X106825663Y-151075244D02*
G01*
X107221358Y-150559565D01*
X108062313Y-151204852D01*
X107666618Y-151720531D01*
X106825663Y-151075244D01*
X106825663Y-151075244D01*
G37*
D15*
X108022311Y-150386362D03*
D16*
G36*
X107403986Y-150321558D02*
G01*
X107799681Y-149805879D01*
X108640636Y-150451166D01*
X108244941Y-150966845D01*
X107403986Y-150321558D01*
X107403986Y-150321558D01*
G37*
D15*
X108600635Y-149632677D03*
D16*
G36*
X107982310Y-149567873D02*
G01*
X108378005Y-149052194D01*
X109218960Y-149697481D01*
X108823265Y-150213160D01*
X107982310Y-149567873D01*
X107982310Y-149567873D01*
G37*
D15*
X110346012Y-150971952D03*
D16*
G36*
X109727687Y-150907148D02*
G01*
X110123382Y-150391469D01*
X110964337Y-151036756D01*
X110568642Y-151552435D01*
X109727687Y-150907148D01*
X109727687Y-150907148D01*
G37*
D15*
X109189365Y-152479323D03*
D16*
G36*
X108571040Y-152414519D02*
G01*
X108966735Y-151898840D01*
X109807690Y-152544127D01*
X109411995Y-153059806D01*
X108571040Y-152414519D01*
X108571040Y-152414519D01*
G37*
D15*
X109767689Y-151725638D03*
D16*
G36*
X109149364Y-151660834D02*
G01*
X109545059Y-151145155D01*
X110386014Y-151790442D01*
X109990319Y-152306121D01*
X109149364Y-151660834D01*
X109149364Y-151660834D01*
G37*
D17*
X138291258Y-101326286D03*
X138291258Y-101826286D03*
X138291258Y-102326286D03*
X138291258Y-102826286D03*
X138291258Y-103326286D03*
X138291258Y-103826286D03*
X138291258Y-104326286D03*
X138291258Y-104826286D03*
X138291258Y-105326286D03*
X138291258Y-105826286D03*
X138291258Y-106326286D03*
X138291258Y-106826286D03*
X138291258Y-107326286D03*
X138291258Y-107826286D03*
X138291258Y-108326286D03*
X138291258Y-108826286D03*
X127191258Y-108826286D03*
X127191258Y-108326286D03*
X127191258Y-107826286D03*
X127191258Y-107326286D03*
X127191258Y-106826286D03*
X127191258Y-106326286D03*
X127191258Y-105826286D03*
X127191258Y-105326286D03*
X127191258Y-104826286D03*
X127191258Y-104326286D03*
X127191258Y-103826286D03*
X127191258Y-103326286D03*
X127191258Y-102826286D03*
X127191258Y-102326286D03*
X127191258Y-101826286D03*
X127191258Y-101326286D03*
D18*
X136491258Y-110626286D03*
X135991258Y-110626286D03*
X135491258Y-110626286D03*
X134991258Y-110626286D03*
X134491258Y-110626286D03*
X133991258Y-110626286D03*
X133491258Y-110626286D03*
X132991258Y-110626286D03*
X132491258Y-110626286D03*
X131991258Y-110626286D03*
X131491258Y-110626286D03*
X130991258Y-110626286D03*
X130491258Y-110626286D03*
X129991258Y-110626286D03*
X129491258Y-110626286D03*
X128991258Y-110626286D03*
X128991258Y-99526286D03*
X129491258Y-99526286D03*
X129991258Y-99526286D03*
X130491258Y-99526286D03*
X130991258Y-99526286D03*
X131491258Y-99526286D03*
X131991258Y-99526286D03*
X132491258Y-99526286D03*
X132991258Y-99526286D03*
X133491258Y-99526286D03*
X133991258Y-99526286D03*
X134491258Y-99526286D03*
X134991258Y-99526286D03*
X135491258Y-99526286D03*
X135991258Y-99526286D03*
X136491258Y-99526286D03*
D19*
X132741258Y-105076286D03*
D20*
X128123088Y-124830684D03*
X128123088Y-125930684D03*
X124430688Y-108027284D03*
X124430688Y-109127284D03*
D21*
X121198088Y-88652284D03*
D22*
X121198088Y-89922284D03*
X122468088Y-88652284D03*
X122468088Y-89922284D03*
X123738088Y-88652284D03*
X123738088Y-89922284D03*
X125008088Y-88652284D03*
X125008088Y-89922284D03*
X126278088Y-88652284D03*
X126278088Y-89922284D03*
D23*
X157917288Y-121226484D03*
X155917288Y-121226484D03*
D24*
X139923088Y-121105684D03*
X138823088Y-121105684D03*
X140289088Y-105935684D03*
X141389088Y-105935684D03*
X140289088Y-108729684D03*
X141389088Y-108729684D03*
X140289088Y-103395684D03*
X141389088Y-103395684D03*
X120273088Y-107405684D03*
X119173088Y-107405684D03*
X120273088Y-105805684D03*
X119173088Y-105805684D03*
D20*
X133768088Y-112897284D03*
X133768088Y-113997284D03*
D24*
X109719088Y-98797684D03*
X108619088Y-98797684D03*
X108103088Y-112585684D03*
X109203088Y-112585684D03*
D20*
X128123088Y-123705684D03*
X128123088Y-122605684D03*
D24*
X131818088Y-122347284D03*
X130718088Y-122347284D03*
X133418088Y-125473364D03*
X132318088Y-125473364D03*
D20*
X129648088Y-125030684D03*
X129648088Y-126130684D03*
D24*
X132373088Y-123447284D03*
X131273088Y-123447284D03*
X134018088Y-126413164D03*
X132918088Y-126413164D03*
D20*
X127183008Y-124821764D03*
X127183008Y-125921764D03*
D24*
X132918088Y-124508164D03*
X131818088Y-124508164D03*
D20*
X124763088Y-126725684D03*
X124763088Y-125625684D03*
D25*
X156729288Y-116951484D03*
X157679288Y-116951484D03*
X158629288Y-116951484D03*
X158629288Y-119151484D03*
X156729288Y-119151484D03*
D26*
X117700248Y-113851484D03*
X115800248Y-113851484D03*
X116750248Y-111851484D03*
D11*
X119147488Y-90835684D03*
X119147488Y-89935684D03*
X122448088Y-92530684D03*
X122448088Y-91630684D03*
D27*
X122297088Y-118254684D03*
X123197088Y-118254684D03*
D11*
X160676488Y-117993484D03*
X160676488Y-117093484D03*
X160397088Y-115097884D03*
X160397088Y-114197884D03*
D27*
X124623088Y-105705684D03*
X125523088Y-105705684D03*
X123443088Y-95005684D03*
X124343088Y-95005684D03*
X84509088Y-125798484D03*
X85409088Y-125798484D03*
X84559888Y-127754284D03*
X85459888Y-127754284D03*
D28*
X147272531Y-100181175D03*
D16*
G36*
X147156277Y-99839876D02*
G01*
X147632289Y-100205133D01*
X147388785Y-100522474D01*
X146912773Y-100157217D01*
X147156277Y-99839876D01*
X147156277Y-99839876D01*
G37*
D28*
X146724645Y-100895193D03*
D16*
G36*
X146608391Y-100553894D02*
G01*
X147084403Y-100919151D01*
X146840899Y-101236492D01*
X146364887Y-100871235D01*
X146608391Y-100553894D01*
X146608391Y-100553894D01*
G37*
D28*
X148326631Y-100803475D03*
D16*
G36*
X148210377Y-100462176D02*
G01*
X148686389Y-100827433D01*
X148442885Y-101144774D01*
X147966873Y-100779517D01*
X148210377Y-100462176D01*
X148210377Y-100462176D01*
G37*
D28*
X147778745Y-101517493D03*
D16*
G36*
X147662491Y-101176194D02*
G01*
X148138503Y-101541451D01*
X147894999Y-101858792D01*
X147418987Y-101493535D01*
X147662491Y-101176194D01*
X147662491Y-101176194D01*
G37*
D11*
X114013088Y-114505684D03*
X114013088Y-113605684D03*
D29*
X122423088Y-108505684D03*
X122423088Y-106105684D03*
D30*
X114550088Y-119143684D03*
D24*
X125522888Y-104640284D03*
X124422888Y-104640284D03*
D31*
X111811432Y-149958503D03*
D16*
G36*
X112201628Y-149942793D02*
G01*
X111897248Y-150339470D01*
X111421236Y-149974213D01*
X111725616Y-149577536D01*
X112201628Y-149942793D01*
X112201628Y-149942793D01*
G37*
D31*
X110938744Y-149288865D03*
D16*
G36*
X111328940Y-149273155D02*
G01*
X111024560Y-149669832D01*
X110548548Y-149304575D01*
X110852928Y-148907898D01*
X111328940Y-149273155D01*
X111328940Y-149273155D01*
G37*
D31*
X143459907Y-101181340D03*
D16*
G36*
X143444197Y-100791144D02*
G01*
X143840874Y-101095524D01*
X143475617Y-101571536D01*
X143078940Y-101267156D01*
X143444197Y-100791144D01*
X143444197Y-100791144D01*
G37*
D31*
X142790269Y-102054028D03*
D16*
G36*
X142774559Y-101663832D02*
G01*
X143171236Y-101968212D01*
X142805979Y-102444224D01*
X142409302Y-102139844D01*
X142774559Y-101663832D01*
X142774559Y-101663832D01*
G37*
D32*
X156231488Y-126508684D03*
X156231488Y-123208684D03*
D33*
X127680888Y-93057884D03*
X124380888Y-93057884D03*
D20*
X140331088Y-152255684D03*
X140331088Y-151155684D03*
X133473088Y-96706684D03*
X133473088Y-95606684D03*
D31*
X111799612Y-100474550D03*
D16*
G36*
X111453837Y-100293057D02*
G01*
X111915777Y-100101715D01*
X112145387Y-100656043D01*
X111683447Y-100847385D01*
X111453837Y-100293057D01*
X111453837Y-100293057D01*
G37*
D31*
X112220564Y-101490818D03*
D16*
G36*
X111874789Y-101309325D02*
G01*
X112336729Y-101117983D01*
X112566339Y-101672311D01*
X112104399Y-101863653D01*
X111874789Y-101309325D01*
X111874789Y-101309325D01*
G37*
D24*
X109719088Y-97680684D03*
X108619088Y-97680684D03*
D20*
X141474088Y-152255684D03*
X141474088Y-151155684D03*
D34*
X96873088Y-134505684D03*
X98373088Y-134505684D03*
D31*
X137404954Y-153006160D03*
D16*
G36*
X137223461Y-153351935D02*
G01*
X137032119Y-152889995D01*
X137586447Y-152660385D01*
X137777789Y-153122325D01*
X137223461Y-153351935D01*
X137223461Y-153351935D01*
G37*
D31*
X138421222Y-152585208D03*
D16*
G36*
X138239729Y-152930983D02*
G01*
X138048387Y-152469043D01*
X138602715Y-152239433D01*
X138794057Y-152701373D01*
X138239729Y-152930983D01*
X138239729Y-152930983D01*
G37*
D24*
X116032088Y-150639684D03*
X117132088Y-150639684D03*
D20*
X143379088Y-99595684D03*
X143379088Y-98495684D03*
D35*
X97282000Y-153162000D03*
X150876000Y-158750000D03*
X158623000Y-102870000D03*
X97282000Y-100584000D03*
D36*
X77306248Y-122797764D03*
X77306248Y-131247764D03*
X79056248Y-122797764D03*
X79056248Y-131247764D03*
D37*
X80456248Y-130622764D03*
X80456248Y-123422764D03*
D38*
X110923088Y-126205684D03*
D39*
X112923088Y-126205684D03*
D15*
X114837451Y-98133128D03*
D16*
G36*
X115180443Y-97614590D02*
G01*
X115455145Y-98203690D01*
X114494459Y-98651666D01*
X114219757Y-98062566D01*
X115180443Y-97614590D01*
X115180443Y-97614590D01*
G37*
D15*
X115238939Y-98994120D03*
D16*
G36*
X115581931Y-98475582D02*
G01*
X115856633Y-99064682D01*
X114895947Y-99512658D01*
X114621245Y-98923558D01*
X115581931Y-98475582D01*
X115581931Y-98475582D01*
G37*
D15*
X115640426Y-99855112D03*
D16*
G36*
X115983418Y-99336574D02*
G01*
X116258120Y-99925674D01*
X115297434Y-100373650D01*
X115022732Y-99784550D01*
X115983418Y-99336574D01*
X115983418Y-99336574D01*
G37*
D15*
X113646549Y-100784872D03*
D16*
G36*
X113989541Y-100266334D02*
G01*
X114264243Y-100855434D01*
X113303557Y-101303410D01*
X113028855Y-100714310D01*
X113989541Y-100266334D01*
X113989541Y-100266334D01*
G37*
D15*
X112843574Y-99062888D03*
D16*
G36*
X113186566Y-98544350D02*
G01*
X113461268Y-99133450D01*
X112500582Y-99581426D01*
X112225880Y-98992326D01*
X113186566Y-98544350D01*
X113186566Y-98544350D01*
G37*
D15*
X113245061Y-99923880D03*
D16*
G36*
X113588053Y-99405342D02*
G01*
X113862755Y-99994442D01*
X112902069Y-100442418D01*
X112627367Y-99853318D01*
X113588053Y-99405342D01*
X113588053Y-99405342D01*
G37*
D15*
X146774012Y-102804952D03*
D16*
G36*
X147392337Y-102869756D02*
G01*
X146996642Y-103385435D01*
X146155687Y-102740148D01*
X146551382Y-102224469D01*
X147392337Y-102869756D01*
X147392337Y-102869756D01*
G37*
D15*
X146195689Y-103558638D03*
D16*
G36*
X146814014Y-103623442D02*
G01*
X146418319Y-104139121D01*
X145577364Y-103493834D01*
X145973059Y-102978155D01*
X146814014Y-103623442D01*
X146814014Y-103623442D01*
G37*
D15*
X145617365Y-104312323D03*
D16*
G36*
X146235690Y-104377127D02*
G01*
X145839995Y-104892806D01*
X144999040Y-104247519D01*
X145394735Y-103731840D01*
X146235690Y-104377127D01*
X146235690Y-104377127D01*
G37*
D15*
X143871988Y-102973048D03*
D16*
G36*
X144490313Y-103037852D02*
G01*
X144094618Y-103553531D01*
X143253663Y-102908244D01*
X143649358Y-102392565D01*
X144490313Y-103037852D01*
X144490313Y-103037852D01*
G37*
D15*
X145028635Y-101465677D03*
D16*
G36*
X145646960Y-101530481D02*
G01*
X145251265Y-102046160D01*
X144410310Y-101400873D01*
X144806005Y-100885194D01*
X145646960Y-101530481D01*
X145646960Y-101530481D01*
G37*
D15*
X144450311Y-102219362D03*
D16*
G36*
X145068636Y-102284166D02*
G01*
X144672941Y-102799845D01*
X143831986Y-102154558D01*
X144227681Y-101638879D01*
X145068636Y-102284166D01*
X145068636Y-102284166D01*
G37*
D15*
X138010282Y-156239637D03*
D16*
G36*
X137644998Y-156742720D02*
G01*
X137396254Y-156142198D01*
X138375566Y-155736554D01*
X138624310Y-156337076D01*
X137644998Y-156742720D01*
X137644998Y-156742720D01*
G37*
D15*
X137646733Y-155361952D03*
D16*
G36*
X137281449Y-155865035D02*
G01*
X137032705Y-155264513D01*
X138012017Y-154858869D01*
X138260761Y-155459391D01*
X137281449Y-155865035D01*
X137281449Y-155865035D01*
G37*
D15*
X137283183Y-154484266D03*
D16*
G36*
X136917899Y-154987349D02*
G01*
X136669155Y-154386827D01*
X137648467Y-153981183D01*
X137897211Y-154581705D01*
X136917899Y-154987349D01*
X136917899Y-154987349D01*
G37*
D15*
X139315718Y-153642363D03*
D16*
G36*
X138950434Y-154145446D02*
G01*
X138701690Y-153544924D01*
X139681002Y-153139280D01*
X139929746Y-153739802D01*
X138950434Y-154145446D01*
X138950434Y-154145446D01*
G37*
D15*
X140042817Y-155397734D03*
D16*
G36*
X139677533Y-155900817D02*
G01*
X139428789Y-155300295D01*
X140408101Y-154894651D01*
X140656845Y-155495173D01*
X139677533Y-155900817D01*
X139677533Y-155900817D01*
G37*
D15*
X139679267Y-154520048D03*
D16*
G36*
X139313983Y-155023131D02*
G01*
X139065239Y-154422609D01*
X140044551Y-154016965D01*
X140293295Y-154617487D01*
X139313983Y-155023131D01*
X139313983Y-155023131D01*
G37*
D30*
X117313088Y-126275684D03*
X107923088Y-110685684D03*
X112423088Y-106005684D03*
X108423088Y-108605684D03*
X109823088Y-106605684D03*
X113623088Y-91905684D03*
X108623088Y-94155684D03*
X160103088Y-108715684D03*
X89018088Y-112997284D03*
X100004088Y-137604084D03*
D40*
X90723088Y-148005684D03*
X147923088Y-85505684D03*
D24*
X113492088Y-150639684D03*
X114592088Y-150639684D03*
D20*
X144649088Y-99595684D03*
X144649088Y-98495684D03*
X164334088Y-129972884D03*
X164334088Y-131072884D03*
X165375488Y-129998284D03*
X165375488Y-131098284D03*
D11*
X106168088Y-102956684D03*
X106168088Y-102056684D03*
X146808088Y-151205684D03*
X146808088Y-152105684D03*
D34*
X122436088Y-103522684D03*
X123936088Y-103522684D03*
X141589088Y-104665684D03*
X140089088Y-104665684D03*
D41*
X132203088Y-95755684D03*
X132203088Y-97255684D03*
X125523088Y-109255684D03*
X125523088Y-107755684D03*
X161184488Y-120628884D03*
X161184488Y-122128884D03*
D24*
X167644888Y-133164484D03*
X168744888Y-133164484D03*
D42*
X109923088Y-100155684D03*
X109923088Y-101105684D03*
X109923088Y-102055684D03*
X107723088Y-102055684D03*
X107723088Y-100155684D03*
X107723088Y-101105684D03*
X142823088Y-153155684D03*
X142823088Y-152205684D03*
X142823088Y-151255684D03*
X145023088Y-151255684D03*
X145023088Y-153155684D03*
X145023088Y-152205684D03*
D25*
X113373088Y-152105684D03*
X114323088Y-152105684D03*
X115273088Y-152105684D03*
X115273088Y-154305684D03*
X113373088Y-154305684D03*
X114323088Y-154305684D03*
X142073088Y-99705684D03*
X141123088Y-99705684D03*
X140173088Y-99705684D03*
X140173088Y-97505684D03*
X142073088Y-97505684D03*
X141123088Y-97505684D03*
X166738515Y-129582663D03*
X167688515Y-129582663D03*
X168638515Y-129582663D03*
X168638515Y-131782663D03*
X166738515Y-131782663D03*
X167688515Y-131782663D03*
D43*
X158466688Y-126561884D03*
X158466688Y-123561884D03*
D20*
X111908488Y-115070884D03*
X111908488Y-113970884D03*
D44*
X119743088Y-128295684D03*
X120243088Y-128295684D03*
X120743088Y-128295684D03*
X121243088Y-128295684D03*
X121743088Y-128295684D03*
X122243088Y-128295684D03*
X122743088Y-128295684D03*
X123243088Y-128295684D03*
X123743088Y-128295684D03*
X124243088Y-128295684D03*
X124743088Y-128295684D03*
X125243088Y-128295684D03*
X125743088Y-128295684D03*
X126243088Y-128295684D03*
X126743088Y-128295684D03*
X127243088Y-128295684D03*
X127743088Y-128295684D03*
X128243088Y-128295684D03*
X128743088Y-128295684D03*
X129243088Y-128295684D03*
X129743088Y-128295684D03*
X130243088Y-128295684D03*
X130743088Y-128295684D03*
X131243088Y-128295684D03*
X131743088Y-128295684D03*
X132243088Y-128295684D03*
X132743088Y-128295684D03*
X133243088Y-128295684D03*
X133743088Y-128295684D03*
X134243088Y-128295684D03*
D45*
X117968088Y-130520684D03*
D46*
X136018088Y-130520684D03*
D10*
X114663357Y-102061648D03*
D16*
G36*
X114459316Y-102570561D02*
G01*
X114142352Y-101890830D01*
X114867398Y-101552735D01*
X115184362Y-102232466D01*
X114459316Y-102570561D01*
X114459316Y-102570561D01*
G37*
D10*
X116022819Y-101427720D03*
D16*
G36*
X115818778Y-101936633D02*
G01*
X115501814Y-101256902D01*
X116226860Y-100918807D01*
X116543824Y-101598538D01*
X115818778Y-101936633D01*
X115818778Y-101936633D01*
G37*
D10*
X138035998Y-151348671D03*
D16*
G36*
X138262044Y-150849143D02*
G01*
X138549056Y-151542052D01*
X137809952Y-151848199D01*
X137522940Y-151155290D01*
X138262044Y-150849143D01*
X138262044Y-150849143D01*
G37*
D10*
X136650178Y-151922697D03*
D16*
G36*
X136876224Y-151423169D02*
G01*
X137163236Y-152116078D01*
X136424132Y-152422225D01*
X136137120Y-151729316D01*
X136876224Y-151423169D01*
X136876224Y-151423169D01*
G37*
D34*
X140110337Y-107275605D03*
X141610337Y-107275605D03*
X121992288Y-123563284D03*
X120492288Y-123563284D03*
D24*
X120703088Y-126035684D03*
X121803088Y-126035684D03*
D34*
X120556488Y-124960284D03*
X122056488Y-124960284D03*
D10*
X108708088Y-147591684D03*
D16*
G36*
X109253715Y-147537681D02*
G01*
X108797144Y-148132696D01*
X108162461Y-147645687D01*
X108619032Y-147050672D01*
X109253715Y-147537681D01*
X109253715Y-147537681D01*
G37*
D10*
X109898118Y-148504826D03*
D16*
G36*
X110443745Y-148450823D02*
G01*
X109987174Y-149045838D01*
X109352491Y-148558829D01*
X109809062Y-147963814D01*
X110443745Y-148450823D01*
X110443745Y-148450823D01*
G37*
D10*
X144572888Y-105732484D03*
D16*
G36*
X144025425Y-105762636D02*
G01*
X144507516Y-105188102D01*
X145120351Y-105702332D01*
X144638260Y-106276866D01*
X144025425Y-105762636D01*
X144025425Y-105762636D01*
G37*
D10*
X143423822Y-104768302D03*
D16*
G36*
X142876359Y-104798454D02*
G01*
X143358450Y-104223920D01*
X143971285Y-104738150D01*
X143489194Y-105312684D01*
X142876359Y-104798454D01*
X142876359Y-104798454D01*
G37*
D41*
X125103088Y-120495684D03*
X125103088Y-121995684D03*
D47*
X163969088Y-123614084D03*
X165969088Y-124564084D03*
X165969088Y-122664084D03*
D48*
X160955888Y-126562684D03*
X160955888Y-123662684D03*
D42*
X123573088Y-121105684D03*
X123573088Y-122055684D03*
X123573088Y-120155684D03*
X121373088Y-120155684D03*
X121373088Y-121105684D03*
X121373088Y-122055684D03*
D49*
X111943088Y-110860684D03*
X111443088Y-110860684D03*
X110943088Y-110860684D03*
D50*
X110268088Y-111035684D03*
X110268088Y-111535684D03*
X110268088Y-112035684D03*
X110268088Y-112535684D03*
D49*
X111943088Y-112710684D03*
X111443088Y-112710684D03*
X110943088Y-112710684D03*
D50*
X112618088Y-111035684D03*
X112618088Y-111535684D03*
X112618088Y-112035684D03*
X112618088Y-112535684D03*
D20*
X154961488Y-114199484D03*
X154961488Y-115299484D03*
D42*
X158830088Y-114190684D03*
X158830088Y-115140684D03*
X158830088Y-113240684D03*
X156630088Y-113240684D03*
X156630088Y-114190684D03*
X156630088Y-115140684D03*
D51*
X131923088Y-117105684D03*
X131633088Y-115185684D03*
X144723088Y-108705684D03*
X139873088Y-113005684D03*
X138223088Y-117405684D03*
X136223088Y-117405684D03*
X136073088Y-121755684D03*
D11*
X116963088Y-152740684D03*
X116963088Y-151840684D03*
D27*
X140516088Y-100982684D03*
X141416088Y-100982684D03*
D24*
X100926888Y-124884084D03*
X99826888Y-124884084D03*
D20*
X150541888Y-127839284D03*
X150541888Y-128939284D03*
D24*
X99649088Y-126535084D03*
X100749088Y-126535084D03*
D20*
X151532488Y-128939284D03*
X151532488Y-127839284D03*
D10*
X97346688Y-126171998D03*
D16*
G36*
X97024778Y-125728152D02*
G01*
X97768864Y-125822152D01*
X97668598Y-126615844D01*
X96924512Y-126521844D01*
X97024778Y-125728152D01*
X97024778Y-125728152D01*
G37*
D10*
X97158688Y-127660170D03*
D16*
G36*
X96836778Y-127216324D02*
G01*
X97580864Y-127310324D01*
X97480598Y-128104016D01*
X96736512Y-128010016D01*
X96836778Y-127216324D01*
X96836778Y-127216324D01*
G37*
D10*
X153368888Y-130327170D03*
D16*
G36*
X153046978Y-129883324D02*
G01*
X153791064Y-129977324D01*
X153690798Y-130771016D01*
X152946712Y-130677016D01*
X153046978Y-129883324D01*
X153046978Y-129883324D01*
G37*
D10*
X153556888Y-128838998D03*
D16*
G36*
X153234978Y-128395152D02*
G01*
X153979064Y-128489152D01*
X153878798Y-129282844D01*
X153134712Y-129188844D01*
X153234978Y-128395152D01*
X153234978Y-128395152D01*
G37*
D31*
X98352155Y-127436347D03*
D16*
G36*
X98562584Y-127765315D02*
G01*
X98066526Y-127702648D01*
X98141726Y-127107379D01*
X98637784Y-127170046D01*
X98562584Y-127765315D01*
X98562584Y-127765315D01*
G37*
D31*
X98490021Y-126345021D03*
D16*
G36*
X98700450Y-126673989D02*
G01*
X98204392Y-126611322D01*
X98279592Y-126016053D01*
X98775650Y-126078720D01*
X98700450Y-126673989D01*
X98700450Y-126673989D01*
G37*
D31*
X154852621Y-129266021D03*
D16*
G36*
X155063050Y-129594989D02*
G01*
X154566992Y-129532322D01*
X154642192Y-128937053D01*
X155138250Y-128999720D01*
X155063050Y-129594989D01*
X155063050Y-129594989D01*
G37*
D31*
X154714755Y-130357347D03*
D16*
G36*
X154925184Y-130686315D02*
G01*
X154429126Y-130623648D01*
X154504326Y-130028379D01*
X155000384Y-130091046D01*
X154925184Y-130686315D01*
X154925184Y-130686315D01*
G37*
D27*
X100674488Y-119499284D03*
X99774488Y-119499284D03*
X151430888Y-133824884D03*
X150530888Y-133824884D03*
D42*
X99810288Y-123217884D03*
X99810288Y-122267884D03*
X99810288Y-121317884D03*
X102010288Y-121317884D03*
X102010288Y-123217884D03*
X102010288Y-122267884D03*
X149391088Y-131335684D03*
X149391088Y-130385684D03*
X149391088Y-132285684D03*
X151591088Y-132285684D03*
X151591088Y-131335684D03*
X151591088Y-130385684D03*
D15*
X96092358Y-122051607D03*
D16*
G36*
X95836347Y-121485053D02*
G01*
X96481222Y-121566520D01*
X96348369Y-122618161D01*
X95703494Y-122536694D01*
X95836347Y-121485053D01*
X95836347Y-121485053D01*
G37*
D15*
X97034867Y-122170674D03*
D16*
G36*
X96778856Y-121604120D02*
G01*
X97423731Y-121685587D01*
X97290878Y-122737228D01*
X96646003Y-122655761D01*
X96778856Y-121604120D01*
X96778856Y-121604120D01*
G37*
D15*
X97977376Y-122289740D03*
D16*
G36*
X97721365Y-121723186D02*
G01*
X98366240Y-121804653D01*
X98233387Y-122856294D01*
X97588512Y-122774827D01*
X97721365Y-121723186D01*
X97721365Y-121723186D01*
G37*
D15*
X97701642Y-124472393D03*
D16*
G36*
X97445631Y-123905839D02*
G01*
X98090506Y-123987306D01*
X97957653Y-125038947D01*
X97312778Y-124957480D01*
X97445631Y-123905839D01*
X97445631Y-123905839D01*
G37*
D15*
X95816624Y-124234260D03*
D16*
G36*
X95560613Y-123667706D02*
G01*
X96205488Y-123749173D01*
X96072635Y-124800814D01*
X95427760Y-124719347D01*
X95560613Y-123667706D01*
X95560613Y-123667706D01*
G37*
D15*
X96759133Y-124353326D03*
D16*
G36*
X96503122Y-123786772D02*
G01*
X97147997Y-123868239D01*
X97015144Y-124919880D01*
X96370269Y-124838413D01*
X96503122Y-123786772D01*
X96503122Y-123786772D01*
G37*
D15*
X157105955Y-129787926D03*
D16*
G36*
X157361966Y-130354480D02*
G01*
X156717091Y-130273013D01*
X156849944Y-129221372D01*
X157494819Y-129302839D01*
X157361966Y-130354480D01*
X157361966Y-130354480D01*
G37*
D15*
X158048464Y-129906992D03*
D16*
G36*
X158304475Y-130473546D02*
G01*
X157659600Y-130392079D01*
X157792453Y-129340438D01*
X158437328Y-129421905D01*
X158304475Y-130473546D01*
X158304475Y-130473546D01*
G37*
D15*
X156163446Y-129668859D03*
D16*
G36*
X156419457Y-130235413D02*
G01*
X155774582Y-130153946D01*
X155907435Y-129102305D01*
X156552310Y-129183772D01*
X156419457Y-130235413D01*
X156419457Y-130235413D01*
G37*
D15*
X155887712Y-131851512D03*
D16*
G36*
X156143723Y-132418066D02*
G01*
X155498848Y-132336599D01*
X155631701Y-131284958D01*
X156276576Y-131366425D01*
X156143723Y-132418066D01*
X156143723Y-132418066D01*
G37*
D15*
X156830221Y-131970578D03*
D16*
G36*
X157086232Y-132537132D02*
G01*
X156441357Y-132455665D01*
X156574210Y-131404024D01*
X157219085Y-131485491D01*
X157086232Y-132537132D01*
X157086232Y-132537132D01*
G37*
D15*
X157772730Y-132089645D03*
D16*
G36*
X158028741Y-132656199D02*
G01*
X157383866Y-132574732D01*
X157516719Y-131523091D01*
X158161594Y-131604558D01*
X158028741Y-132656199D01*
X158028741Y-132656199D01*
G37*
D52*
X140585088Y-85107684D03*
D53*
X138045088Y-85107684D03*
X135505088Y-85107684D03*
X132965088Y-85107684D03*
X130425088Y-85107684D03*
D16*
G36*
X146312791Y-122044806D02*
G01*
X146327352Y-122046966D01*
X146341631Y-122050543D01*
X146355491Y-122055502D01*
X146368798Y-122061796D01*
X146381424Y-122069364D01*
X146393247Y-122078132D01*
X146404154Y-122088018D01*
X146414040Y-122098925D01*
X146422808Y-122110748D01*
X146430376Y-122123374D01*
X146436670Y-122136681D01*
X146441629Y-122150541D01*
X146445206Y-122164820D01*
X146447366Y-122179381D01*
X146448088Y-122194084D01*
X146448088Y-122494084D01*
X146447366Y-122508787D01*
X146445206Y-122523348D01*
X146441629Y-122537627D01*
X146436670Y-122551487D01*
X146430376Y-122564794D01*
X146422808Y-122577420D01*
X146414040Y-122589243D01*
X146404154Y-122600150D01*
X146393247Y-122610036D01*
X146381424Y-122618804D01*
X146368798Y-122626372D01*
X146355491Y-122632666D01*
X146341631Y-122637625D01*
X146327352Y-122641202D01*
X146312791Y-122643362D01*
X146298088Y-122644084D01*
X144648088Y-122644084D01*
X144633385Y-122643362D01*
X144618824Y-122641202D01*
X144604545Y-122637625D01*
X144590685Y-122632666D01*
X144577378Y-122626372D01*
X144564752Y-122618804D01*
X144552929Y-122610036D01*
X144542022Y-122600150D01*
X144532136Y-122589243D01*
X144523368Y-122577420D01*
X144515800Y-122564794D01*
X144509506Y-122551487D01*
X144504547Y-122537627D01*
X144500970Y-122523348D01*
X144498810Y-122508787D01*
X144498088Y-122494084D01*
X144498088Y-122194084D01*
X144498810Y-122179381D01*
X144500970Y-122164820D01*
X144504547Y-122150541D01*
X144509506Y-122136681D01*
X144515800Y-122123374D01*
X144523368Y-122110748D01*
X144532136Y-122098925D01*
X144542022Y-122088018D01*
X144552929Y-122078132D01*
X144564752Y-122069364D01*
X144577378Y-122061796D01*
X144590685Y-122055502D01*
X144604545Y-122050543D01*
X144618824Y-122046966D01*
X144633385Y-122044806D01*
X144648088Y-122044084D01*
X146298088Y-122044084D01*
X146312791Y-122044806D01*
X146312791Y-122044806D01*
G37*
D54*
X145473088Y-122344084D03*
D16*
G36*
X146312791Y-123314806D02*
G01*
X146327352Y-123316966D01*
X146341631Y-123320543D01*
X146355491Y-123325502D01*
X146368798Y-123331796D01*
X146381424Y-123339364D01*
X146393247Y-123348132D01*
X146404154Y-123358018D01*
X146414040Y-123368925D01*
X146422808Y-123380748D01*
X146430376Y-123393374D01*
X146436670Y-123406681D01*
X146441629Y-123420541D01*
X146445206Y-123434820D01*
X146447366Y-123449381D01*
X146448088Y-123464084D01*
X146448088Y-123764084D01*
X146447366Y-123778787D01*
X146445206Y-123793348D01*
X146441629Y-123807627D01*
X146436670Y-123821487D01*
X146430376Y-123834794D01*
X146422808Y-123847420D01*
X146414040Y-123859243D01*
X146404154Y-123870150D01*
X146393247Y-123880036D01*
X146381424Y-123888804D01*
X146368798Y-123896372D01*
X146355491Y-123902666D01*
X146341631Y-123907625D01*
X146327352Y-123911202D01*
X146312791Y-123913362D01*
X146298088Y-123914084D01*
X144648088Y-123914084D01*
X144633385Y-123913362D01*
X144618824Y-123911202D01*
X144604545Y-123907625D01*
X144590685Y-123902666D01*
X144577378Y-123896372D01*
X144564752Y-123888804D01*
X144552929Y-123880036D01*
X144542022Y-123870150D01*
X144532136Y-123859243D01*
X144523368Y-123847420D01*
X144515800Y-123834794D01*
X144509506Y-123821487D01*
X144504547Y-123807627D01*
X144500970Y-123793348D01*
X144498810Y-123778787D01*
X144498088Y-123764084D01*
X144498088Y-123464084D01*
X144498810Y-123449381D01*
X144500970Y-123434820D01*
X144504547Y-123420541D01*
X144509506Y-123406681D01*
X144515800Y-123393374D01*
X144523368Y-123380748D01*
X144532136Y-123368925D01*
X144542022Y-123358018D01*
X144552929Y-123348132D01*
X144564752Y-123339364D01*
X144577378Y-123331796D01*
X144590685Y-123325502D01*
X144604545Y-123320543D01*
X144618824Y-123316966D01*
X144633385Y-123314806D01*
X144648088Y-123314084D01*
X146298088Y-123314084D01*
X146312791Y-123314806D01*
X146312791Y-123314806D01*
G37*
D54*
X145473088Y-123614084D03*
D16*
G36*
X146312791Y-124584806D02*
G01*
X146327352Y-124586966D01*
X146341631Y-124590543D01*
X146355491Y-124595502D01*
X146368798Y-124601796D01*
X146381424Y-124609364D01*
X146393247Y-124618132D01*
X146404154Y-124628018D01*
X146414040Y-124638925D01*
X146422808Y-124650748D01*
X146430376Y-124663374D01*
X146436670Y-124676681D01*
X146441629Y-124690541D01*
X146445206Y-124704820D01*
X146447366Y-124719381D01*
X146448088Y-124734084D01*
X146448088Y-125034084D01*
X146447366Y-125048787D01*
X146445206Y-125063348D01*
X146441629Y-125077627D01*
X146436670Y-125091487D01*
X146430376Y-125104794D01*
X146422808Y-125117420D01*
X146414040Y-125129243D01*
X146404154Y-125140150D01*
X146393247Y-125150036D01*
X146381424Y-125158804D01*
X146368798Y-125166372D01*
X146355491Y-125172666D01*
X146341631Y-125177625D01*
X146327352Y-125181202D01*
X146312791Y-125183362D01*
X146298088Y-125184084D01*
X144648088Y-125184084D01*
X144633385Y-125183362D01*
X144618824Y-125181202D01*
X144604545Y-125177625D01*
X144590685Y-125172666D01*
X144577378Y-125166372D01*
X144564752Y-125158804D01*
X144552929Y-125150036D01*
X144542022Y-125140150D01*
X144532136Y-125129243D01*
X144523368Y-125117420D01*
X144515800Y-125104794D01*
X144509506Y-125091487D01*
X144504547Y-125077627D01*
X144500970Y-125063348D01*
X144498810Y-125048787D01*
X144498088Y-125034084D01*
X144498088Y-124734084D01*
X144498810Y-124719381D01*
X144500970Y-124704820D01*
X144504547Y-124690541D01*
X144509506Y-124676681D01*
X144515800Y-124663374D01*
X144523368Y-124650748D01*
X144532136Y-124638925D01*
X144542022Y-124628018D01*
X144552929Y-124618132D01*
X144564752Y-124609364D01*
X144577378Y-124601796D01*
X144590685Y-124595502D01*
X144604545Y-124590543D01*
X144618824Y-124586966D01*
X144633385Y-124584806D01*
X144648088Y-124584084D01*
X146298088Y-124584084D01*
X146312791Y-124584806D01*
X146312791Y-124584806D01*
G37*
D54*
X145473088Y-124884084D03*
D16*
G36*
X146312791Y-125854806D02*
G01*
X146327352Y-125856966D01*
X146341631Y-125860543D01*
X146355491Y-125865502D01*
X146368798Y-125871796D01*
X146381424Y-125879364D01*
X146393247Y-125888132D01*
X146404154Y-125898018D01*
X146414040Y-125908925D01*
X146422808Y-125920748D01*
X146430376Y-125933374D01*
X146436670Y-125946681D01*
X146441629Y-125960541D01*
X146445206Y-125974820D01*
X146447366Y-125989381D01*
X146448088Y-126004084D01*
X146448088Y-126304084D01*
X146447366Y-126318787D01*
X146445206Y-126333348D01*
X146441629Y-126347627D01*
X146436670Y-126361487D01*
X146430376Y-126374794D01*
X146422808Y-126387420D01*
X146414040Y-126399243D01*
X146404154Y-126410150D01*
X146393247Y-126420036D01*
X146381424Y-126428804D01*
X146368798Y-126436372D01*
X146355491Y-126442666D01*
X146341631Y-126447625D01*
X146327352Y-126451202D01*
X146312791Y-126453362D01*
X146298088Y-126454084D01*
X144648088Y-126454084D01*
X144633385Y-126453362D01*
X144618824Y-126451202D01*
X144604545Y-126447625D01*
X144590685Y-126442666D01*
X144577378Y-126436372D01*
X144564752Y-126428804D01*
X144552929Y-126420036D01*
X144542022Y-126410150D01*
X144532136Y-126399243D01*
X144523368Y-126387420D01*
X144515800Y-126374794D01*
X144509506Y-126361487D01*
X144504547Y-126347627D01*
X144500970Y-126333348D01*
X144498810Y-126318787D01*
X144498088Y-126304084D01*
X144498088Y-126004084D01*
X144498810Y-125989381D01*
X144500970Y-125974820D01*
X144504547Y-125960541D01*
X144509506Y-125946681D01*
X144515800Y-125933374D01*
X144523368Y-125920748D01*
X144532136Y-125908925D01*
X144542022Y-125898018D01*
X144552929Y-125888132D01*
X144564752Y-125879364D01*
X144577378Y-125871796D01*
X144590685Y-125865502D01*
X144604545Y-125860543D01*
X144618824Y-125856966D01*
X144633385Y-125854806D01*
X144648088Y-125854084D01*
X146298088Y-125854084D01*
X146312791Y-125854806D01*
X146312791Y-125854806D01*
G37*
D54*
X145473088Y-126154084D03*
D16*
G36*
X141362791Y-125854806D02*
G01*
X141377352Y-125856966D01*
X141391631Y-125860543D01*
X141405491Y-125865502D01*
X141418798Y-125871796D01*
X141431424Y-125879364D01*
X141443247Y-125888132D01*
X141454154Y-125898018D01*
X141464040Y-125908925D01*
X141472808Y-125920748D01*
X141480376Y-125933374D01*
X141486670Y-125946681D01*
X141491629Y-125960541D01*
X141495206Y-125974820D01*
X141497366Y-125989381D01*
X141498088Y-126004084D01*
X141498088Y-126304084D01*
X141497366Y-126318787D01*
X141495206Y-126333348D01*
X141491629Y-126347627D01*
X141486670Y-126361487D01*
X141480376Y-126374794D01*
X141472808Y-126387420D01*
X141464040Y-126399243D01*
X141454154Y-126410150D01*
X141443247Y-126420036D01*
X141431424Y-126428804D01*
X141418798Y-126436372D01*
X141405491Y-126442666D01*
X141391631Y-126447625D01*
X141377352Y-126451202D01*
X141362791Y-126453362D01*
X141348088Y-126454084D01*
X139698088Y-126454084D01*
X139683385Y-126453362D01*
X139668824Y-126451202D01*
X139654545Y-126447625D01*
X139640685Y-126442666D01*
X139627378Y-126436372D01*
X139614752Y-126428804D01*
X139602929Y-126420036D01*
X139592022Y-126410150D01*
X139582136Y-126399243D01*
X139573368Y-126387420D01*
X139565800Y-126374794D01*
X139559506Y-126361487D01*
X139554547Y-126347627D01*
X139550970Y-126333348D01*
X139548810Y-126318787D01*
X139548088Y-126304084D01*
X139548088Y-126004084D01*
X139548810Y-125989381D01*
X139550970Y-125974820D01*
X139554547Y-125960541D01*
X139559506Y-125946681D01*
X139565800Y-125933374D01*
X139573368Y-125920748D01*
X139582136Y-125908925D01*
X139592022Y-125898018D01*
X139602929Y-125888132D01*
X139614752Y-125879364D01*
X139627378Y-125871796D01*
X139640685Y-125865502D01*
X139654545Y-125860543D01*
X139668824Y-125856966D01*
X139683385Y-125854806D01*
X139698088Y-125854084D01*
X141348088Y-125854084D01*
X141362791Y-125854806D01*
X141362791Y-125854806D01*
G37*
D54*
X140523088Y-126154084D03*
D16*
G36*
X141362791Y-124584806D02*
G01*
X141377352Y-124586966D01*
X141391631Y-124590543D01*
X141405491Y-124595502D01*
X141418798Y-124601796D01*
X141431424Y-124609364D01*
X141443247Y-124618132D01*
X141454154Y-124628018D01*
X141464040Y-124638925D01*
X141472808Y-124650748D01*
X141480376Y-124663374D01*
X141486670Y-124676681D01*
X141491629Y-124690541D01*
X141495206Y-124704820D01*
X141497366Y-124719381D01*
X141498088Y-124734084D01*
X141498088Y-125034084D01*
X141497366Y-125048787D01*
X141495206Y-125063348D01*
X141491629Y-125077627D01*
X141486670Y-125091487D01*
X141480376Y-125104794D01*
X141472808Y-125117420D01*
X141464040Y-125129243D01*
X141454154Y-125140150D01*
X141443247Y-125150036D01*
X141431424Y-125158804D01*
X141418798Y-125166372D01*
X141405491Y-125172666D01*
X141391631Y-125177625D01*
X141377352Y-125181202D01*
X141362791Y-125183362D01*
X141348088Y-125184084D01*
X139698088Y-125184084D01*
X139683385Y-125183362D01*
X139668824Y-125181202D01*
X139654545Y-125177625D01*
X139640685Y-125172666D01*
X139627378Y-125166372D01*
X139614752Y-125158804D01*
X139602929Y-125150036D01*
X139592022Y-125140150D01*
X139582136Y-125129243D01*
X139573368Y-125117420D01*
X139565800Y-125104794D01*
X139559506Y-125091487D01*
X139554547Y-125077627D01*
X139550970Y-125063348D01*
X139548810Y-125048787D01*
X139548088Y-125034084D01*
X139548088Y-124734084D01*
X139548810Y-124719381D01*
X139550970Y-124704820D01*
X139554547Y-124690541D01*
X139559506Y-124676681D01*
X139565800Y-124663374D01*
X139573368Y-124650748D01*
X139582136Y-124638925D01*
X139592022Y-124628018D01*
X139602929Y-124618132D01*
X139614752Y-124609364D01*
X139627378Y-124601796D01*
X139640685Y-124595502D01*
X139654545Y-124590543D01*
X139668824Y-124586966D01*
X139683385Y-124584806D01*
X139698088Y-124584084D01*
X141348088Y-124584084D01*
X141362791Y-124584806D01*
X141362791Y-124584806D01*
G37*
D54*
X140523088Y-124884084D03*
D16*
G36*
X141362791Y-123314806D02*
G01*
X141377352Y-123316966D01*
X141391631Y-123320543D01*
X141405491Y-123325502D01*
X141418798Y-123331796D01*
X141431424Y-123339364D01*
X141443247Y-123348132D01*
X141454154Y-123358018D01*
X141464040Y-123368925D01*
X141472808Y-123380748D01*
X141480376Y-123393374D01*
X141486670Y-123406681D01*
X141491629Y-123420541D01*
X141495206Y-123434820D01*
X141497366Y-123449381D01*
X141498088Y-123464084D01*
X141498088Y-123764084D01*
X141497366Y-123778787D01*
X141495206Y-123793348D01*
X141491629Y-123807627D01*
X141486670Y-123821487D01*
X141480376Y-123834794D01*
X141472808Y-123847420D01*
X141464040Y-123859243D01*
X141454154Y-123870150D01*
X141443247Y-123880036D01*
X141431424Y-123888804D01*
X141418798Y-123896372D01*
X141405491Y-123902666D01*
X141391631Y-123907625D01*
X141377352Y-123911202D01*
X141362791Y-123913362D01*
X141348088Y-123914084D01*
X139698088Y-123914084D01*
X139683385Y-123913362D01*
X139668824Y-123911202D01*
X139654545Y-123907625D01*
X139640685Y-123902666D01*
X139627378Y-123896372D01*
X139614752Y-123888804D01*
X139602929Y-123880036D01*
X139592022Y-123870150D01*
X139582136Y-123859243D01*
X139573368Y-123847420D01*
X139565800Y-123834794D01*
X139559506Y-123821487D01*
X139554547Y-123807627D01*
X139550970Y-123793348D01*
X139548810Y-123778787D01*
X139548088Y-123764084D01*
X139548088Y-123464084D01*
X139548810Y-123449381D01*
X139550970Y-123434820D01*
X139554547Y-123420541D01*
X139559506Y-123406681D01*
X139565800Y-123393374D01*
X139573368Y-123380748D01*
X139582136Y-123368925D01*
X139592022Y-123358018D01*
X139602929Y-123348132D01*
X139614752Y-123339364D01*
X139627378Y-123331796D01*
X139640685Y-123325502D01*
X139654545Y-123320543D01*
X139668824Y-123316966D01*
X139683385Y-123314806D01*
X139698088Y-123314084D01*
X141348088Y-123314084D01*
X141362791Y-123314806D01*
X141362791Y-123314806D01*
G37*
D54*
X140523088Y-123614084D03*
D16*
G36*
X141362791Y-122044806D02*
G01*
X141377352Y-122046966D01*
X141391631Y-122050543D01*
X141405491Y-122055502D01*
X141418798Y-122061796D01*
X141431424Y-122069364D01*
X141443247Y-122078132D01*
X141454154Y-122088018D01*
X141464040Y-122098925D01*
X141472808Y-122110748D01*
X141480376Y-122123374D01*
X141486670Y-122136681D01*
X141491629Y-122150541D01*
X141495206Y-122164820D01*
X141497366Y-122179381D01*
X141498088Y-122194084D01*
X141498088Y-122494084D01*
X141497366Y-122508787D01*
X141495206Y-122523348D01*
X141491629Y-122537627D01*
X141486670Y-122551487D01*
X141480376Y-122564794D01*
X141472808Y-122577420D01*
X141464040Y-122589243D01*
X141454154Y-122600150D01*
X141443247Y-122610036D01*
X141431424Y-122618804D01*
X141418798Y-122626372D01*
X141405491Y-122632666D01*
X141391631Y-122637625D01*
X141377352Y-122641202D01*
X141362791Y-122643362D01*
X141348088Y-122644084D01*
X139698088Y-122644084D01*
X139683385Y-122643362D01*
X139668824Y-122641202D01*
X139654545Y-122637625D01*
X139640685Y-122632666D01*
X139627378Y-122626372D01*
X139614752Y-122618804D01*
X139602929Y-122610036D01*
X139592022Y-122600150D01*
X139582136Y-122589243D01*
X139573368Y-122577420D01*
X139565800Y-122564794D01*
X139559506Y-122551487D01*
X139554547Y-122537627D01*
X139550970Y-122523348D01*
X139548810Y-122508787D01*
X139548088Y-122494084D01*
X139548088Y-122194084D01*
X139548810Y-122179381D01*
X139550970Y-122164820D01*
X139554547Y-122150541D01*
X139559506Y-122136681D01*
X139565800Y-122123374D01*
X139573368Y-122110748D01*
X139582136Y-122098925D01*
X139592022Y-122088018D01*
X139602929Y-122078132D01*
X139614752Y-122069364D01*
X139627378Y-122061796D01*
X139640685Y-122055502D01*
X139654545Y-122050543D01*
X139668824Y-122046966D01*
X139683385Y-122044806D01*
X139698088Y-122044084D01*
X141348088Y-122044084D01*
X141362791Y-122044806D01*
X141362791Y-122044806D01*
G37*
D54*
X140523088Y-122344084D03*
D16*
G36*
X135470779Y-113923337D02*
G01*
X135492014Y-113926487D01*
X135512838Y-113931703D01*
X135533050Y-113938935D01*
X135552456Y-113948114D01*
X135570869Y-113959150D01*
X135588112Y-113971938D01*
X135604018Y-113986354D01*
X135618434Y-114002260D01*
X135631222Y-114019503D01*
X135642258Y-114037916D01*
X135651437Y-114057322D01*
X135658669Y-114077534D01*
X135663885Y-114098358D01*
X135667035Y-114119593D01*
X135668088Y-114141034D01*
X135668088Y-114578534D01*
X135667035Y-114599975D01*
X135663885Y-114621210D01*
X135658669Y-114642034D01*
X135651437Y-114662246D01*
X135642258Y-114681652D01*
X135631222Y-114700065D01*
X135618434Y-114717308D01*
X135604018Y-114733214D01*
X135588112Y-114747630D01*
X135570869Y-114760418D01*
X135552456Y-114771454D01*
X135533050Y-114780633D01*
X135512838Y-114787865D01*
X135492014Y-114793081D01*
X135470779Y-114796231D01*
X135449338Y-114797284D01*
X134936838Y-114797284D01*
X134915397Y-114796231D01*
X134894162Y-114793081D01*
X134873338Y-114787865D01*
X134853126Y-114780633D01*
X134833720Y-114771454D01*
X134815307Y-114760418D01*
X134798064Y-114747630D01*
X134782158Y-114733214D01*
X134767742Y-114717308D01*
X134754954Y-114700065D01*
X134743918Y-114681652D01*
X134734739Y-114662246D01*
X134727507Y-114642034D01*
X134722291Y-114621210D01*
X134719141Y-114599975D01*
X134718088Y-114578534D01*
X134718088Y-114141034D01*
X134719141Y-114119593D01*
X134722291Y-114098358D01*
X134727507Y-114077534D01*
X134734739Y-114057322D01*
X134743918Y-114037916D01*
X134754954Y-114019503D01*
X134767742Y-114002260D01*
X134782158Y-113986354D01*
X134798064Y-113971938D01*
X134815307Y-113959150D01*
X134833720Y-113948114D01*
X134853126Y-113938935D01*
X134873338Y-113931703D01*
X134894162Y-113926487D01*
X134915397Y-113923337D01*
X134936838Y-113922284D01*
X135449338Y-113922284D01*
X135470779Y-113923337D01*
X135470779Y-113923337D01*
G37*
D55*
X135193088Y-114359784D03*
D16*
G36*
X135470779Y-112348337D02*
G01*
X135492014Y-112351487D01*
X135512838Y-112356703D01*
X135533050Y-112363935D01*
X135552456Y-112373114D01*
X135570869Y-112384150D01*
X135588112Y-112396938D01*
X135604018Y-112411354D01*
X135618434Y-112427260D01*
X135631222Y-112444503D01*
X135642258Y-112462916D01*
X135651437Y-112482322D01*
X135658669Y-112502534D01*
X135663885Y-112523358D01*
X135667035Y-112544593D01*
X135668088Y-112566034D01*
X135668088Y-113003534D01*
X135667035Y-113024975D01*
X135663885Y-113046210D01*
X135658669Y-113067034D01*
X135651437Y-113087246D01*
X135642258Y-113106652D01*
X135631222Y-113125065D01*
X135618434Y-113142308D01*
X135604018Y-113158214D01*
X135588112Y-113172630D01*
X135570869Y-113185418D01*
X135552456Y-113196454D01*
X135533050Y-113205633D01*
X135512838Y-113212865D01*
X135492014Y-113218081D01*
X135470779Y-113221231D01*
X135449338Y-113222284D01*
X134936838Y-113222284D01*
X134915397Y-113221231D01*
X134894162Y-113218081D01*
X134873338Y-113212865D01*
X134853126Y-113205633D01*
X134833720Y-113196454D01*
X134815307Y-113185418D01*
X134798064Y-113172630D01*
X134782158Y-113158214D01*
X134767742Y-113142308D01*
X134754954Y-113125065D01*
X134743918Y-113106652D01*
X134734739Y-113087246D01*
X134727507Y-113067034D01*
X134722291Y-113046210D01*
X134719141Y-113024975D01*
X134718088Y-113003534D01*
X134718088Y-112566034D01*
X134719141Y-112544593D01*
X134722291Y-112523358D01*
X134727507Y-112502534D01*
X134734739Y-112482322D01*
X134743918Y-112462916D01*
X134754954Y-112444503D01*
X134767742Y-112427260D01*
X134782158Y-112411354D01*
X134798064Y-112396938D01*
X134815307Y-112384150D01*
X134833720Y-112373114D01*
X134853126Y-112363935D01*
X134873338Y-112356703D01*
X134894162Y-112351487D01*
X134915397Y-112348337D01*
X134936838Y-112347284D01*
X135449338Y-112347284D01*
X135470779Y-112348337D01*
X135470779Y-112348337D01*
G37*
D55*
X135193088Y-112784784D03*
D30*
X124202088Y-169024684D03*
X124202088Y-166484684D03*
X124202088Y-163944684D03*
X128012088Y-163974684D03*
X128012088Y-166514684D03*
X128012088Y-169054684D03*
D16*
G36*
X145776925Y-99918745D02*
G01*
X145791305Y-99920399D01*
X145805454Y-99923455D01*
X145819235Y-99927883D01*
X145832516Y-99933640D01*
X145845168Y-99940672D01*
X145857070Y-99948909D01*
X146130777Y-100158932D01*
X146141815Y-100168297D01*
X146151881Y-100178699D01*
X146160880Y-100190037D01*
X146168724Y-100202202D01*
X146175337Y-100215078D01*
X146180657Y-100228540D01*
X146184632Y-100242458D01*
X146187223Y-100256699D01*
X146188406Y-100271126D01*
X146188169Y-100285599D01*
X146186515Y-100299979D01*
X146183459Y-100314128D01*
X146179031Y-100327909D01*
X146173274Y-100341190D01*
X146166242Y-100353842D01*
X146158004Y-100365744D01*
X145978419Y-100599783D01*
X145969055Y-100610821D01*
X145958653Y-100620888D01*
X145947315Y-100629886D01*
X145935150Y-100637730D01*
X145922274Y-100644344D01*
X145908812Y-100649663D01*
X145894894Y-100653638D01*
X145880652Y-100656229D01*
X145866226Y-100657412D01*
X145851753Y-100657175D01*
X145837373Y-100655521D01*
X145823224Y-100652465D01*
X145809443Y-100648037D01*
X145796162Y-100642280D01*
X145783510Y-100635248D01*
X145771608Y-100627011D01*
X145497901Y-100416988D01*
X145486863Y-100407623D01*
X145476797Y-100397221D01*
X145467798Y-100385883D01*
X145459954Y-100373718D01*
X145453341Y-100360842D01*
X145448021Y-100347380D01*
X145444046Y-100333462D01*
X145441455Y-100319221D01*
X145440272Y-100304794D01*
X145440509Y-100290321D01*
X145442163Y-100275941D01*
X145445219Y-100261792D01*
X145449647Y-100248011D01*
X145455404Y-100234730D01*
X145462436Y-100222078D01*
X145470674Y-100210176D01*
X145650259Y-99976137D01*
X145659623Y-99965099D01*
X145670025Y-99955032D01*
X145681363Y-99946034D01*
X145693528Y-99938190D01*
X145706404Y-99931576D01*
X145719866Y-99926257D01*
X145733784Y-99922282D01*
X145748026Y-99919691D01*
X145762452Y-99918508D01*
X145776925Y-99918745D01*
X145776925Y-99918745D01*
G37*
D56*
X145814339Y-100287960D03*
D16*
G36*
X146367423Y-99149193D02*
G01*
X146381803Y-99150847D01*
X146395952Y-99153903D01*
X146409733Y-99158331D01*
X146423014Y-99164088D01*
X146435666Y-99171120D01*
X146447568Y-99179357D01*
X146721275Y-99389380D01*
X146732313Y-99398745D01*
X146742379Y-99409147D01*
X146751378Y-99420485D01*
X146759222Y-99432650D01*
X146765835Y-99445526D01*
X146771155Y-99458988D01*
X146775130Y-99472906D01*
X146777721Y-99487147D01*
X146778904Y-99501574D01*
X146778667Y-99516047D01*
X146777013Y-99530427D01*
X146773957Y-99544576D01*
X146769529Y-99558357D01*
X146763772Y-99571638D01*
X146756740Y-99584290D01*
X146748502Y-99596192D01*
X146568917Y-99830231D01*
X146559553Y-99841269D01*
X146549151Y-99851336D01*
X146537813Y-99860334D01*
X146525648Y-99868178D01*
X146512772Y-99874792D01*
X146499310Y-99880111D01*
X146485392Y-99884086D01*
X146471150Y-99886677D01*
X146456724Y-99887860D01*
X146442251Y-99887623D01*
X146427871Y-99885969D01*
X146413722Y-99882913D01*
X146399941Y-99878485D01*
X146386660Y-99872728D01*
X146374008Y-99865696D01*
X146362106Y-99857459D01*
X146088399Y-99647436D01*
X146077361Y-99638071D01*
X146067295Y-99627669D01*
X146058296Y-99616331D01*
X146050452Y-99604166D01*
X146043839Y-99591290D01*
X146038519Y-99577828D01*
X146034544Y-99563910D01*
X146031953Y-99549669D01*
X146030770Y-99535242D01*
X146031007Y-99520769D01*
X146032661Y-99506389D01*
X146035717Y-99492240D01*
X146040145Y-99478459D01*
X146045902Y-99465178D01*
X146052934Y-99452526D01*
X146061172Y-99440624D01*
X146240757Y-99206585D01*
X146250121Y-99195547D01*
X146260523Y-99185480D01*
X146271861Y-99176482D01*
X146284026Y-99168638D01*
X146296902Y-99162024D01*
X146310364Y-99156705D01*
X146324282Y-99152730D01*
X146338524Y-99150139D01*
X146352950Y-99148956D01*
X146367423Y-99149193D01*
X146367423Y-99149193D01*
G37*
D56*
X146404837Y-99518408D03*
D16*
G36*
X148656676Y-101891021D02*
G01*
X148671056Y-101892675D01*
X148685205Y-101895731D01*
X148698986Y-101900159D01*
X148712267Y-101905916D01*
X148724919Y-101912948D01*
X148736821Y-101921185D01*
X149010528Y-102131208D01*
X149021566Y-102140573D01*
X149031632Y-102150975D01*
X149040631Y-102162313D01*
X149048475Y-102174478D01*
X149055088Y-102187354D01*
X149060408Y-102200816D01*
X149064383Y-102214734D01*
X149066974Y-102228975D01*
X149068157Y-102243402D01*
X149067920Y-102257875D01*
X149066266Y-102272255D01*
X149063210Y-102286404D01*
X149058782Y-102300185D01*
X149053025Y-102313466D01*
X149045993Y-102326118D01*
X149037755Y-102338020D01*
X148858170Y-102572059D01*
X148848806Y-102583097D01*
X148838404Y-102593164D01*
X148827066Y-102602162D01*
X148814901Y-102610006D01*
X148802025Y-102616620D01*
X148788563Y-102621939D01*
X148774645Y-102625914D01*
X148760403Y-102628505D01*
X148745977Y-102629688D01*
X148731504Y-102629451D01*
X148717124Y-102627797D01*
X148702975Y-102624741D01*
X148689194Y-102620313D01*
X148675913Y-102614556D01*
X148663261Y-102607524D01*
X148651359Y-102599287D01*
X148377652Y-102389264D01*
X148366614Y-102379899D01*
X148356548Y-102369497D01*
X148347549Y-102358159D01*
X148339705Y-102345994D01*
X148333092Y-102333118D01*
X148327772Y-102319656D01*
X148323797Y-102305738D01*
X148321206Y-102291497D01*
X148320023Y-102277070D01*
X148320260Y-102262597D01*
X148321914Y-102248217D01*
X148324970Y-102234068D01*
X148329398Y-102220287D01*
X148335155Y-102207006D01*
X148342187Y-102194354D01*
X148350425Y-102182452D01*
X148530010Y-101948413D01*
X148539374Y-101937375D01*
X148549776Y-101927308D01*
X148561114Y-101918310D01*
X148573279Y-101910466D01*
X148586155Y-101903852D01*
X148599617Y-101898533D01*
X148613535Y-101894558D01*
X148627777Y-101891967D01*
X148642203Y-101890784D01*
X148656676Y-101891021D01*
X148656676Y-101891021D01*
G37*
D56*
X148694090Y-102260236D03*
D16*
G36*
X149247174Y-101121469D02*
G01*
X149261554Y-101123123D01*
X149275703Y-101126179D01*
X149289484Y-101130607D01*
X149302765Y-101136364D01*
X149315417Y-101143396D01*
X149327319Y-101151633D01*
X149601026Y-101361656D01*
X149612064Y-101371021D01*
X149622130Y-101381423D01*
X149631129Y-101392761D01*
X149638973Y-101404926D01*
X149645586Y-101417802D01*
X149650906Y-101431264D01*
X149654881Y-101445182D01*
X149657472Y-101459423D01*
X149658655Y-101473850D01*
X149658418Y-101488323D01*
X149656764Y-101502703D01*
X149653708Y-101516852D01*
X149649280Y-101530633D01*
X149643523Y-101543914D01*
X149636491Y-101556566D01*
X149628253Y-101568468D01*
X149448668Y-101802507D01*
X149439304Y-101813545D01*
X149428902Y-101823612D01*
X149417564Y-101832610D01*
X149405399Y-101840454D01*
X149392523Y-101847068D01*
X149379061Y-101852387D01*
X149365143Y-101856362D01*
X149350901Y-101858953D01*
X149336475Y-101860136D01*
X149322002Y-101859899D01*
X149307622Y-101858245D01*
X149293473Y-101855189D01*
X149279692Y-101850761D01*
X149266411Y-101845004D01*
X149253759Y-101837972D01*
X149241857Y-101829735D01*
X148968150Y-101619712D01*
X148957112Y-101610347D01*
X148947046Y-101599945D01*
X148938047Y-101588607D01*
X148930203Y-101576442D01*
X148923590Y-101563566D01*
X148918270Y-101550104D01*
X148914295Y-101536186D01*
X148911704Y-101521945D01*
X148910521Y-101507518D01*
X148910758Y-101493045D01*
X148912412Y-101478665D01*
X148915468Y-101464516D01*
X148919896Y-101450735D01*
X148925653Y-101437454D01*
X148932685Y-101424802D01*
X148940923Y-101412900D01*
X149120508Y-101178861D01*
X149129872Y-101167823D01*
X149140274Y-101157756D01*
X149151612Y-101148758D01*
X149163777Y-101140914D01*
X149176653Y-101134300D01*
X149190115Y-101128981D01*
X149204033Y-101125006D01*
X149218275Y-101122415D01*
X149232701Y-101121232D01*
X149247174Y-101121469D01*
X149247174Y-101121469D01*
G37*
D56*
X149284588Y-101490684D03*
D30*
X144014088Y-110761684D03*
D54*
X109263088Y-113345684D03*
X128723088Y-94805684D03*
X141123088Y-98605684D03*
X139323088Y-107305684D03*
X119623089Y-96205685D03*
X125673088Y-107005684D03*
X138426088Y-122318684D03*
X108723088Y-101105684D03*
X108823088Y-100105684D03*
X145023088Y-153905684D03*
X132503088Y-100485684D03*
X115683088Y-111855684D03*
X112848288Y-113936684D03*
X124373088Y-123035684D03*
X114323088Y-155405684D03*
X134993088Y-115285684D03*
X157542088Y-115140684D03*
X140460575Y-102366338D03*
X150592686Y-130853084D03*
X103323288Y-122267884D03*
D57*
X130298088Y-154322684D03*
D54*
X107403088Y-112565684D03*
X127253088Y-129585684D03*
X138023088Y-121105684D03*
X139323088Y-97505684D03*
X116218244Y-117993673D03*
X116123088Y-154305684D03*
X103932888Y-135856884D03*
X100723082Y-133905684D03*
X136643088Y-153555684D03*
X98323088Y-135405684D03*
X152223088Y-143905684D03*
X134235088Y-95648684D03*
X124608488Y-110025084D03*
X123323088Y-104605684D03*
X85187688Y-129608484D03*
X140623088Y-154105684D03*
X108623088Y-102105684D03*
X114623088Y-100305684D03*
X114223088Y-99405684D03*
X145323088Y-102905684D03*
X109423088Y-150205684D03*
X108823088Y-151005684D03*
X144073088Y-151255684D03*
X99081488Y-128186084D03*
X157349088Y-91711684D03*
X157349088Y-89933684D03*
X157349088Y-90797284D03*
X128423088Y-105805684D03*
X119123088Y-106705684D03*
X92073088Y-140705684D03*
X132553088Y-122335684D03*
X103247088Y-128490884D03*
X168398088Y-134510684D03*
X156186141Y-152393737D03*
X159140634Y-149439245D03*
X164319075Y-138951671D03*
X134705568Y-126413164D03*
X134105408Y-125473364D03*
X133620608Y-124508164D03*
X133089688Y-123447284D03*
X134393088Y-105072284D03*
X131043088Y-105072284D03*
X131943088Y-105072284D03*
X133523046Y-105076285D03*
X132741258Y-105076286D03*
X84168088Y-121747284D03*
X111543088Y-111885684D03*
X90973088Y-145125684D03*
X127033088Y-123955684D03*
X123473088Y-119345684D03*
X119376088Y-123563284D03*
X121683078Y-127025684D03*
X125543088Y-125805663D03*
X144014088Y-97807684D03*
X141313088Y-102605684D03*
X133623088Y-115005684D03*
X134543151Y-111775093D03*
X139450088Y-151155684D03*
X117852088Y-150639684D03*
X115150088Y-150131684D03*
X112010088Y-150766684D03*
X155698088Y-133113684D03*
X154682088Y-131589684D03*
X150491096Y-132224684D03*
X157755488Y-114190684D03*
X157679288Y-118127684D03*
X158466688Y-124706284D03*
X167001088Y-124553884D03*
X156968088Y-130776884D03*
X169353067Y-131782663D03*
X163546688Y-131107084D03*
X84222488Y-126763684D03*
X143923089Y-126105685D03*
X142236092Y-105935684D03*
X142321098Y-108348684D03*
X101494488Y-119880284D03*
X162962488Y-120362884D03*
X110917888Y-115282884D03*
X97201888Y-120870884D03*
X89048488Y-127855884D03*
X103178555Y-125027531D03*
X107565088Y-98823684D03*
D57*
X133536588Y-165689184D03*
X119249088Y-168991184D03*
X124066588Y-154648684D03*
D54*
X132584088Y-161498184D03*
X151507088Y-127144684D03*
X92452088Y-132405684D03*
X153493088Y-152715684D03*
X106618088Y-131172284D03*
X101933088Y-131695684D03*
X91309088Y-132405708D03*
X90263064Y-132405708D03*
X166283088Y-133865684D03*
X165433088Y-134725684D03*
X164483088Y-135705684D03*
X114473888Y-121023284D03*
X111273488Y-121048684D03*
X129205888Y-90390884D03*
D57*
X83587488Y-127754284D03*
D54*
X134613899Y-118692673D03*
X136175890Y-108326289D03*
X126518088Y-118972284D03*
X117293088Y-122775684D03*
X135203088Y-119405684D03*
X102307288Y-124325284D03*
X137465242Y-108363540D03*
D57*
X83308088Y-125879785D03*
D54*
X121248088Y-129580684D03*
X129873088Y-114595684D03*
X130605806Y-113468875D03*
X117493088Y-112722284D03*
X114963088Y-114595684D03*
X129873098Y-107797284D03*
X126923088Y-112605682D03*
X108581088Y-116349684D03*
X99538688Y-114571684D03*
X137923088Y-129105684D03*
X128440271Y-112473567D03*
X111453088Y-108605684D03*
X125963088Y-129695684D03*
X125743088Y-126925684D03*
X127523088Y-110105684D03*
X143723088Y-122705684D03*
X143923088Y-120355694D03*
X127133268Y-119955694D03*
X115343088Y-130485684D03*
X113984949Y-115765694D03*
X120053088Y-116635684D03*
X139470027Y-102412444D03*
X141923121Y-115534943D03*
X149333088Y-115665684D03*
X147383088Y-134925684D03*
X140983477Y-101828666D03*
X167255088Y-136288686D03*
X154183088Y-147235684D03*
X148503100Y-142115684D03*
X139569088Y-100855684D03*
X126403078Y-109897284D03*
X125731983Y-115574621D03*
X155291688Y-118305484D03*
X157831688Y-119169084D03*
X168575888Y-128338484D03*
X141575688Y-111904684D03*
X139323088Y-103158116D03*
X136994569Y-105631001D03*
X128773078Y-104705684D03*
X143773088Y-153155684D03*
X125144688Y-94997284D03*
X125273091Y-103405677D03*
X137023088Y-94605684D03*
X137123088Y-103605684D03*
D57*
X86610088Y-125874684D03*
D54*
X137082558Y-104354600D03*
X137923088Y-95505680D03*
D57*
X86584688Y-127754284D03*
D54*
X125673088Y-96355684D03*
X126143088Y-97947284D03*
X87018091Y-118847281D03*
X158323094Y-147405684D03*
X150623088Y-103505684D03*
X120148985Y-101317812D03*
X155737514Y-111094606D03*
X141623088Y-155775684D03*
X111014241Y-154034060D03*
X158884101Y-130319684D03*
X104974288Y-147994107D03*
X102688288Y-99839684D03*
X94839688Y-124045884D03*
X145665088Y-99077684D03*
X156603088Y-147835684D03*
X149953087Y-153275685D03*
X136123088Y-157705684D03*
X120823088Y-100705686D03*
X157730088Y-133367684D03*
X106447487Y-150461885D03*
X154402688Y-110431484D03*
X96287488Y-120261284D03*
X127504378Y-156418474D03*
X127504378Y-161307394D03*
X121073088Y-102455684D03*
X120925488Y-91889484D03*
X121883088Y-95125684D03*
X122023088Y-102155674D03*
D58*
X153023088Y-124305684D03*
X153023088Y-123181446D03*
D54*
X121373088Y-118585684D03*
X123673088Y-99015684D03*
X118923088Y-118445684D03*
X118893989Y-102076585D03*
X127615711Y-99417303D03*
X124703088Y-118695684D03*
X150878389Y-123645673D03*
X133223088Y-91405684D03*
X148123088Y-93705684D03*
X131213088Y-98255684D03*
X131242374Y-91005841D03*
X150623088Y-108905684D03*
X142363088Y-123334684D03*
X147023088Y-93105684D03*
X130471473Y-97691352D03*
X146744588Y-110952183D03*
X134623088Y-98505688D03*
X110623088Y-97405684D03*
X110873088Y-102055684D03*
X134788027Y-94003643D03*
X135551268Y-98525086D03*
X109123088Y-155805684D03*
X135963088Y-93285684D03*
X152713088Y-150715684D03*
X141567302Y-95257428D03*
X135998088Y-97880684D03*
X158974688Y-121201084D03*
X163165688Y-129354484D03*
X108633088Y-115015684D03*
X127648514Y-113472092D03*
X129857498Y-113548466D03*
X135323088Y-111805684D03*
X136223088Y-106305684D03*
X141059309Y-114595895D03*
X134060395Y-115870545D03*
X133830806Y-108326289D03*
X107819088Y-119931084D03*
X118563288Y-111066484D03*
X130410116Y-116364656D03*
X145995288Y-127347882D03*
X150389488Y-125011084D03*
X152853288Y-132402484D03*
X147933098Y-113105684D03*
X128054388Y-158215684D03*
X129218588Y-161371184D03*
X149053110Y-117202412D03*
X140123088Y-115705684D03*
D57*
X119439588Y-167340184D03*
D54*
X126805588Y-158640684D03*
X138016408Y-110707907D03*
X127923088Y-95805684D03*
X128023088Y-98775694D03*
X106563568Y-104665684D03*
D59*
X141123088Y-98235684D02*
X141123088Y-98605684D01*
X141123088Y-97505684D02*
X141123088Y-98235684D01*
X141123088Y-97505684D02*
X142073088Y-97505684D01*
X139353167Y-107275605D02*
X139323088Y-107305684D01*
X140310337Y-107275605D02*
X139353167Y-107275605D01*
X139302486Y-107326286D02*
X139323088Y-107305684D01*
X138291258Y-107326286D02*
X139302486Y-107326286D01*
X127191258Y-106326286D02*
X126491258Y-106326286D01*
X126491258Y-106326286D02*
X126111859Y-106705685D01*
X126111859Y-106705685D02*
X125973087Y-106705685D01*
X125973087Y-106705685D02*
X125673088Y-107005684D01*
X125523088Y-107755684D02*
X125523088Y-107155684D01*
X125523088Y-107155684D02*
X125673088Y-107005684D01*
X124623088Y-107955684D02*
X125323088Y-107955684D01*
X125323088Y-107955684D02*
X125523088Y-107755684D01*
X107723088Y-101105684D02*
X108723088Y-101105684D01*
X107723088Y-100155684D02*
X108823088Y-100105684D01*
X139923088Y-121105684D02*
X139923088Y-122359628D01*
X113373088Y-154305684D02*
X114323088Y-154305684D01*
X145023088Y-153680684D02*
X145023088Y-153905684D01*
X145023088Y-153155684D02*
X145023088Y-153680684D01*
X145023088Y-152205684D02*
X145023088Y-153155684D01*
X145173088Y-152355684D02*
X145023088Y-152205684D01*
X132503088Y-100238116D02*
X132503088Y-100485684D01*
X132491258Y-99526286D02*
X132491258Y-100226286D01*
X132491258Y-100226286D02*
X132503088Y-100238116D01*
X140300177Y-107285765D02*
X140310337Y-107275605D01*
X132478337Y-99513365D02*
X132491258Y-99526286D01*
X110295588Y-112545684D02*
X110305588Y-112535684D01*
X109243088Y-113325684D02*
X109263088Y-113345684D01*
X116150248Y-111851484D02*
X116146048Y-111855684D01*
X116750248Y-111851484D02*
X116150248Y-111851484D01*
X116146048Y-111855684D02*
X115683088Y-111855684D01*
X110255588Y-112585684D02*
X110305588Y-112535684D01*
X109203088Y-113285684D02*
X109263088Y-113345684D01*
X109203088Y-112585684D02*
X109203088Y-113285684D01*
X125043088Y-122055684D02*
X125103088Y-121995684D01*
X124373088Y-122055684D02*
X124373088Y-123035684D01*
X123573088Y-122055684D02*
X124373088Y-122055684D01*
X124373088Y-122055684D02*
X125043088Y-122055684D01*
X123573088Y-121105684D02*
X123573088Y-122055684D01*
X110218088Y-112585684D02*
X110268088Y-112535684D01*
X109203088Y-112585684D02*
X110218088Y-112585684D01*
X128723088Y-92035684D02*
X128723088Y-94805684D01*
X135543088Y-85215684D02*
X128723088Y-92035684D01*
X119953122Y-95875652D02*
X119923088Y-95905686D01*
X121923160Y-95875652D02*
X119953122Y-95875652D01*
X123443088Y-95005684D02*
X122793128Y-95005684D01*
X119923088Y-95905686D02*
X119623089Y-96205685D01*
X122793128Y-95005684D02*
X121923160Y-95875652D01*
X107723088Y-100155684D02*
X107723088Y-100625684D01*
X107723088Y-100625684D02*
X107723088Y-101105684D01*
X114323088Y-154305684D02*
X114323088Y-155405684D01*
X135193088Y-115085684D02*
X134993088Y-115285684D01*
X135193088Y-114297284D02*
X135193088Y-115085684D01*
X132203088Y-97855684D02*
X132203088Y-97255684D01*
X132471258Y-98123854D02*
X132203088Y-97855684D01*
X132491258Y-98123854D02*
X132471258Y-98123854D01*
X132491258Y-99526286D02*
X132491258Y-98123854D01*
X132924088Y-97255684D02*
X133473088Y-96706684D01*
X132203088Y-97255684D02*
X132924088Y-97255684D01*
X140289088Y-104465684D02*
X140089088Y-104665684D01*
X140289088Y-103395684D02*
X140289088Y-104465684D01*
X139928486Y-104826286D02*
X140089088Y-104665684D01*
X138291258Y-104826286D02*
X139928486Y-104826286D01*
X140289088Y-107454356D02*
X140110337Y-107275605D01*
X140289088Y-108729684D02*
X140289088Y-107454356D01*
X156630088Y-115140684D02*
X157542088Y-115140684D01*
X156471288Y-115299484D02*
X156630088Y-115140684D01*
X154961488Y-115299484D02*
X156471288Y-115299484D01*
X149391088Y-130385684D02*
X149391088Y-130878484D01*
X149391088Y-130878484D02*
X149391088Y-131335684D01*
D60*
X138451488Y-122344084D02*
X138426088Y-122318684D01*
X139814688Y-122344084D02*
X138451488Y-122344084D01*
D59*
X140432434Y-102366338D02*
X140460575Y-102366338D01*
X140289088Y-103395684D02*
X140289088Y-102537825D01*
X140305257Y-102493515D02*
X140432434Y-102366338D01*
X140289088Y-102537825D02*
X140460575Y-102366338D01*
X149416488Y-130853084D02*
X150168422Y-130853084D01*
X150168422Y-130853084D02*
X150592686Y-130853084D01*
X149391088Y-130878484D02*
X149416488Y-130853084D01*
X112814088Y-113970884D02*
X112848288Y-113936684D01*
X111908488Y-113970884D02*
X112814088Y-113970884D01*
X111908488Y-112745284D02*
X111943088Y-112710684D01*
X111908488Y-113970884D02*
X111908488Y-112745284D01*
X102010288Y-122267884D02*
X102010288Y-123217884D01*
X102010288Y-122267884D02*
X103323288Y-122267884D01*
X127253088Y-128275684D02*
X127253088Y-129585684D01*
X138823088Y-121105684D02*
X138023088Y-121105684D01*
X139648088Y-97505684D02*
X139323088Y-97505684D01*
X140173088Y-97505684D02*
X139648088Y-97505684D01*
X115273088Y-154305684D02*
X116123088Y-154305684D01*
X98323088Y-135130684D02*
X98323088Y-135405684D01*
X98373088Y-134505684D02*
X98373088Y-135080684D01*
X98373088Y-135080684D02*
X98323088Y-135130684D01*
X125523088Y-109255684D02*
X125373088Y-109255684D01*
X125373088Y-109255684D02*
X124723088Y-109905684D01*
X124623088Y-109805684D02*
X124723088Y-109905684D01*
X124623088Y-109055684D02*
X124623088Y-109805684D01*
X119173088Y-105805684D02*
X119173088Y-106655684D01*
X119173088Y-106655684D02*
X119123088Y-106705684D01*
X139679267Y-154520048D02*
X140623088Y-154105684D01*
X108573088Y-102055684D02*
X108623088Y-102105684D01*
X107723088Y-102055684D02*
X108573088Y-102055684D01*
X115640426Y-99855112D02*
X114623088Y-100305684D01*
X115640426Y-99855112D02*
X115238939Y-98994120D01*
X113245061Y-99923880D02*
X114223088Y-99405684D01*
X115238939Y-98994120D02*
X114223088Y-99405684D01*
X146195689Y-103558638D02*
X145617365Y-104312323D01*
X145323088Y-102905684D02*
X146195689Y-103558638D01*
X144450311Y-102219362D02*
X145323088Y-102905684D01*
X137283183Y-154484266D02*
X137646733Y-155361952D01*
X108600635Y-149632677D02*
X109423088Y-150205684D01*
X108022311Y-150386362D02*
X108823088Y-151005684D01*
X109767689Y-151725638D02*
X108823088Y-151005684D01*
X145023088Y-151255684D02*
X144073088Y-151255684D01*
X127191258Y-106826286D02*
X127891258Y-106826286D01*
X127891258Y-106826286D02*
X128423088Y-106294456D01*
X128423088Y-106294456D02*
X128423088Y-106229948D01*
X128423088Y-106229948D02*
X128423088Y-105805684D01*
X128423088Y-105358116D02*
X128423088Y-105805684D01*
X127191258Y-104826286D02*
X127891258Y-104826286D01*
X127891258Y-104826286D02*
X128423088Y-105358116D01*
X119173088Y-106755684D02*
X119123088Y-106705684D01*
X119173088Y-106855684D02*
X119173088Y-106755684D01*
X119173088Y-107405684D02*
X119173088Y-106855684D01*
X132541488Y-122347284D02*
X132553088Y-122335684D01*
X131818088Y-122347284D02*
X132541488Y-122347284D01*
X133253088Y-128275684D02*
X133753088Y-128275684D01*
X134018088Y-126413164D02*
X133753088Y-126678164D01*
X133753088Y-126678164D02*
X133753088Y-128275684D01*
X134018088Y-126413164D02*
X134705568Y-126413164D01*
X133418088Y-125473364D02*
X134105408Y-125473364D01*
X132918088Y-124508164D02*
X133620608Y-124508164D01*
X132373088Y-123447284D02*
X133089688Y-123447284D01*
X122468088Y-88652284D02*
X123738088Y-88652284D01*
X107423088Y-112545684D02*
X107403088Y-112565684D01*
X108083088Y-112565684D02*
X108103088Y-112585684D01*
X107403088Y-112565684D02*
X108083088Y-112565684D01*
X127183008Y-124105604D02*
X127033088Y-123955684D01*
X127183008Y-124821764D02*
X127183008Y-124105604D01*
X123573088Y-119630684D02*
X123473088Y-119530684D01*
X123573088Y-120155684D02*
X123573088Y-119630684D01*
X123473088Y-119530684D02*
X123473088Y-119345684D01*
X124763088Y-120155684D02*
X125103088Y-120495684D01*
X123573088Y-120155684D02*
X124763088Y-120155684D01*
X120703088Y-124995684D02*
X120513088Y-124805684D01*
X120703088Y-126035684D02*
X120703088Y-124995684D01*
X121683078Y-128205674D02*
X121683078Y-127449948D01*
X121683078Y-127449948D02*
X121683078Y-127025684D01*
X121753088Y-128275684D02*
X121683078Y-128205674D01*
X124763088Y-125625684D02*
X125363109Y-125625684D01*
X125363109Y-125625684D02*
X125543088Y-125805663D01*
X110943088Y-112710684D02*
X111443088Y-112710684D01*
X111443088Y-111985684D02*
X111543088Y-111885684D01*
X111443088Y-112710684D02*
X111443088Y-111985684D01*
X112468088Y-111885684D02*
X112618088Y-112035684D01*
X111543088Y-111885684D02*
X112468088Y-111885684D01*
X112618088Y-112035684D02*
X112618088Y-111535684D01*
X107673088Y-102105684D02*
X107723088Y-102055684D01*
X137283183Y-154484266D02*
X136643088Y-153555684D01*
X136643088Y-153555684D02*
X137404954Y-153006160D01*
X137404954Y-153006160D02*
X136650178Y-151922697D01*
X133768088Y-113997284D02*
X133768088Y-114860684D01*
X133768088Y-114860684D02*
X133623088Y-115005684D01*
X134491258Y-110626286D02*
X134491258Y-111723200D01*
X134491258Y-111723200D02*
X134543151Y-111775093D01*
X107722088Y-102056684D02*
X107723088Y-102055684D01*
X106168088Y-102056684D02*
X107722088Y-102056684D01*
X123197088Y-119069684D02*
X123473088Y-119345684D01*
X123197088Y-118254684D02*
X123197088Y-119069684D01*
X145753088Y-151255684D02*
X145023088Y-151255684D01*
X145858088Y-151255684D02*
X145753088Y-151255684D01*
X146708088Y-152105684D02*
X145858088Y-151255684D01*
X146808088Y-152105684D02*
X146708088Y-152105684D01*
X141474088Y-151155684D02*
X140331088Y-151155684D01*
X140331088Y-151155684D02*
X139450088Y-151155684D01*
X116123088Y-153580684D02*
X116963088Y-152740684D01*
X116123088Y-154305684D02*
X116123088Y-153580684D01*
X117132088Y-150639684D02*
X117632088Y-150639684D01*
X117632088Y-150639684D02*
X117852088Y-150639684D01*
X114642088Y-150639684D02*
X115150088Y-150131684D01*
X114592088Y-150639684D02*
X114642088Y-150639684D01*
X111811432Y-149958503D02*
X112010088Y-150766684D01*
X108708088Y-147591684D02*
X108600635Y-149632677D01*
X115640426Y-99855112D02*
X116022819Y-101427720D01*
X111799612Y-100474550D02*
X113245061Y-99923880D01*
X108619088Y-97680684D02*
X108619088Y-98797684D01*
X123390088Y-104538684D02*
X123323088Y-104605684D01*
X122436088Y-103718684D02*
X123323088Y-104605684D01*
X122436088Y-103522684D02*
X122436088Y-103718684D01*
X133324088Y-95755684D02*
X133473088Y-95606684D01*
X132203088Y-95755684D02*
X133324088Y-95755684D01*
X134193088Y-95606684D02*
X134235088Y-95648684D01*
X133473088Y-95606684D02*
X134193088Y-95606684D01*
X143379088Y-98442684D02*
X144014088Y-97807684D01*
X143379088Y-98495684D02*
X143379088Y-98442684D01*
X144014088Y-97860684D02*
X144649088Y-98495684D01*
X144014088Y-97807684D02*
X144014088Y-97860684D01*
X144450311Y-102219362D02*
X143459907Y-101181340D01*
X141313088Y-103319684D02*
X141389088Y-103395684D01*
X141313088Y-102605684D02*
X141313088Y-103319684D01*
X141389088Y-104465684D02*
X141589088Y-104665684D01*
X141389088Y-103395684D02*
X141389088Y-104465684D01*
X141589088Y-104665684D02*
X141614088Y-104665684D01*
X141389088Y-105935684D02*
X141439088Y-105935684D01*
X141610337Y-107275605D02*
X141840019Y-107275605D01*
X155887712Y-131851512D02*
X156830221Y-131970578D01*
X155887712Y-131851512D02*
X155698088Y-133113684D01*
X149391088Y-132285684D02*
X150430096Y-132285684D01*
X150430096Y-132285684D02*
X150491096Y-132224684D01*
X150422088Y-132293692D02*
X150491096Y-132224684D01*
X158837288Y-114197884D02*
X158830088Y-114190684D01*
X160397088Y-114197884D02*
X158837288Y-114197884D01*
X158830088Y-114190684D02*
X157755488Y-114190684D01*
X156630088Y-114190684D02*
X157755488Y-114190684D01*
X156621288Y-114199484D02*
X156630088Y-114190684D01*
X154961488Y-114199484D02*
X156621288Y-114199484D01*
X157679288Y-116951484D02*
X157679288Y-117681484D01*
X157679288Y-117681484D02*
X157679288Y-118127684D01*
X158466688Y-123561884D02*
X158466688Y-124261884D01*
X158466688Y-124261884D02*
X158466688Y-124706284D01*
X166619088Y-124564084D02*
X166629288Y-124553884D01*
X165969088Y-124564084D02*
X166619088Y-124564084D01*
X166629288Y-124553884D02*
X167001088Y-124553884D01*
X157105955Y-129787926D02*
X156968088Y-130776884D01*
X156830221Y-131970578D02*
X156968088Y-130776884D01*
D61*
X168744888Y-131889036D02*
X168638515Y-131782663D01*
X168744888Y-133164484D02*
X168744888Y-131889036D01*
X168638515Y-131782663D02*
X169353067Y-131782663D01*
D59*
X169545915Y-131782663D02*
X170304715Y-131023863D01*
X169353067Y-131782663D02*
X169545915Y-131782663D01*
X164359488Y-131098284D02*
X164334088Y-131072884D01*
X165375488Y-131098284D02*
X164359488Y-131098284D01*
X163884088Y-131072884D02*
X163849888Y-131107084D01*
X164334088Y-131072884D02*
X163884088Y-131072884D01*
X163849888Y-131107084D02*
X163546688Y-131107084D01*
D60*
X141610337Y-108508435D02*
X141389088Y-108729684D01*
X141610337Y-107275605D02*
X141610337Y-108466435D01*
X141610337Y-108466435D02*
X141610337Y-108508435D01*
D59*
X145323088Y-126169628D02*
X145259145Y-126105685D01*
X144347353Y-126105685D02*
X143923089Y-126105685D01*
X145259145Y-126105685D02*
X144347353Y-126105685D01*
D60*
X141389088Y-105935684D02*
X142236092Y-105935684D01*
D59*
X141613087Y-102305685D02*
X141313088Y-102605684D01*
X141416088Y-100982684D02*
X141416088Y-101082684D01*
X141816088Y-101482684D02*
X141816088Y-102102684D01*
X141816088Y-102102684D02*
X141613087Y-102305685D01*
X141416088Y-101082684D02*
X141816088Y-101482684D01*
D60*
X141610337Y-108348684D02*
X142321098Y-108348684D01*
X150530888Y-132264476D02*
X150491096Y-132224684D01*
D59*
X162696488Y-120628884D02*
X161184488Y-120628884D01*
X162962488Y-120362884D02*
X162696488Y-120628884D01*
X124388288Y-104605684D02*
X124422888Y-104640284D01*
X123323088Y-104605684D02*
X124388288Y-104605684D01*
X144572888Y-105732484D02*
X145617365Y-104312323D01*
X119376088Y-123563284D02*
X120492288Y-123563284D01*
X120556488Y-123627484D02*
X120492288Y-123563284D01*
X120556488Y-124960284D02*
X120556488Y-123627484D01*
X150491096Y-133785092D02*
X150530888Y-133824884D01*
X150491096Y-132224684D02*
X150491096Y-133785092D01*
X151029289Y-127825683D02*
X151015688Y-127839284D01*
X150541888Y-127839284D02*
X151015688Y-127839284D01*
X151015688Y-127839284D02*
X151532488Y-127839284D01*
X153368888Y-130327170D02*
X154714755Y-130357347D01*
X154682088Y-131589684D02*
X154714755Y-130357347D01*
X110917888Y-115250884D02*
X110917888Y-115282884D01*
X111129888Y-115070884D02*
X110917888Y-115282884D01*
X111908488Y-115070884D02*
X111129888Y-115070884D01*
X101055488Y-119880284D02*
X100674488Y-119499284D01*
X101494488Y-119880284D02*
X101055488Y-119880284D01*
X102010288Y-120396084D02*
X101494488Y-119880284D01*
X102010288Y-121317884D02*
X102010288Y-120396084D01*
X99081488Y-128165680D02*
X98352155Y-127436347D01*
X99081488Y-128186084D02*
X99081488Y-128165680D01*
X97977376Y-122289740D02*
X97034867Y-122170674D01*
X97034867Y-122170674D02*
X96759133Y-124353326D01*
X97158688Y-127660170D02*
X98352155Y-127436347D01*
X97034867Y-122170674D02*
X97201888Y-120870884D01*
X100901488Y-126382684D02*
X100749088Y-126535084D01*
X101070335Y-125027531D02*
X100926888Y-124884084D01*
X103178555Y-125027531D02*
X101070335Y-125027531D01*
X100926888Y-126357284D02*
X100749088Y-126535084D01*
X100926888Y-124884084D02*
X100926888Y-126357284D01*
X108619088Y-98797684D02*
X107565088Y-98823684D01*
X151532488Y-127339284D02*
X151507088Y-127313884D01*
X151532488Y-127839284D02*
X151532488Y-127339284D01*
X151507088Y-127313884D02*
X151507088Y-127144684D01*
X133768088Y-111611880D02*
X133768088Y-112397284D01*
X133991258Y-110626286D02*
X133991258Y-111388710D01*
X133768088Y-112397284D02*
X133768088Y-112897284D01*
X133991258Y-111388710D02*
X133768088Y-111611880D01*
X133768088Y-112897284D02*
X135143088Y-112897284D01*
X135143088Y-112897284D02*
X135193088Y-112847284D01*
X117700248Y-113851484D02*
X116655158Y-112806394D01*
X113378798Y-112806394D02*
X116655158Y-112806394D01*
X113108088Y-112535684D02*
X113378798Y-112806394D01*
X112618088Y-112535684D02*
X113108088Y-112535684D01*
D62*
X96873088Y-134505684D02*
X96873088Y-134455684D01*
X96873088Y-134455684D02*
X96823088Y-134405684D01*
X96823088Y-134405684D02*
X96823088Y-132380084D01*
X91648688Y-132380084D02*
X91623088Y-132405684D01*
D63*
X102456488Y-131172284D02*
X106618088Y-131172284D01*
X101933088Y-131695684D02*
X102456488Y-131172284D01*
X97477488Y-131725684D02*
X96823088Y-132380084D01*
D62*
X101933088Y-131695684D02*
X101903088Y-131725684D01*
D63*
X101903088Y-131725684D02*
X97477488Y-131725684D01*
X90983112Y-132405684D02*
X90983088Y-132405708D01*
X91623088Y-132405684D02*
X90983112Y-132405684D01*
X90983088Y-132405708D02*
X90263064Y-132405708D01*
X96823088Y-132380084D02*
X96797488Y-132405684D01*
X96797488Y-132405684D02*
X91674288Y-132405684D01*
D61*
X166283088Y-132238090D02*
X166738515Y-131782663D01*
X166283088Y-133865684D02*
X166283088Y-132238090D01*
X166738515Y-131782663D02*
X167688515Y-131782663D01*
X167644888Y-131826290D02*
X167688515Y-131782663D01*
X167644888Y-133164484D02*
X167644888Y-131826290D01*
D63*
X143423088Y-130405684D02*
X145098088Y-130405684D01*
X165858824Y-133865684D02*
X166283088Y-133865684D01*
X163130084Y-135705684D02*
X164970084Y-133865684D01*
X164970084Y-133865684D02*
X165858824Y-133865684D01*
X145098088Y-130405684D02*
X150398088Y-135705684D01*
X150398088Y-135705684D02*
X163130084Y-135705684D01*
D59*
X114473888Y-121023284D02*
X111298888Y-121023284D01*
X111298888Y-121023284D02*
X111273488Y-121048684D01*
D61*
X79456248Y-125222764D02*
X79456248Y-128822764D01*
X80456248Y-123422764D02*
X80456248Y-124222764D01*
X80456248Y-124222764D02*
X79456248Y-125222764D01*
X79456248Y-128822764D02*
X80456248Y-129822764D01*
X80456248Y-129822764D02*
X80456248Y-130622764D01*
X79056248Y-131247764D02*
X79831248Y-131247764D01*
X79831248Y-131247764D02*
X80456248Y-130622764D01*
X77306248Y-131247764D02*
X79056248Y-131247764D01*
X79056248Y-122797764D02*
X79831248Y-122797764D01*
X79831248Y-122797764D02*
X80456248Y-123422764D01*
X77306248Y-122797764D02*
X79056248Y-122797764D01*
D59*
X128951888Y-90390884D02*
X129205888Y-90390884D01*
X129205888Y-90390884D02*
X127680888Y-91915884D01*
X127680888Y-91915884D02*
X127680888Y-93057884D01*
X160354288Y-115140684D02*
X160397088Y-115097884D01*
X158830088Y-115140684D02*
X160354288Y-115140684D01*
X160397088Y-116814084D02*
X160676488Y-117093484D01*
X160397088Y-115097884D02*
X160397088Y-116814084D01*
X160534488Y-116951484D02*
X160676488Y-117093484D01*
X158629288Y-116951484D02*
X160534488Y-116951484D01*
X84559888Y-127754284D02*
X83587488Y-127754284D01*
X114550088Y-118635684D02*
X114550088Y-119143684D01*
X115780087Y-117405685D02*
X114550088Y-118635684D01*
X130038825Y-117405685D02*
X115780087Y-117405685D01*
X134613899Y-118692673D02*
X131325813Y-118692673D01*
X131325813Y-118692673D02*
X130038825Y-117405685D01*
X136475889Y-108026290D02*
X136175890Y-108326289D01*
X137591258Y-107826286D02*
X137578510Y-107813538D01*
X137578510Y-107813538D02*
X136688641Y-107813538D01*
X136688641Y-107813538D02*
X136475889Y-108026290D01*
X138291258Y-107826286D02*
X137591258Y-107826286D01*
X127375752Y-119405684D02*
X134778824Y-119405684D01*
X134778824Y-119405684D02*
X135203088Y-119405684D01*
X126942352Y-118972284D02*
X127375752Y-119405684D01*
X126518088Y-118972284D02*
X126942352Y-118972284D01*
X102731552Y-124325284D02*
X102307288Y-124325284D01*
X115743488Y-124325284D02*
X102731552Y-124325284D01*
X117293088Y-122775684D02*
X115743488Y-124325284D01*
X138291258Y-108326286D02*
X137502496Y-108326286D01*
X137502496Y-108326286D02*
X137465242Y-108363540D01*
X120273088Y-107405684D02*
X120773088Y-107405684D01*
X120773088Y-107405684D02*
X121873088Y-108505684D01*
X121873088Y-108505684D02*
X122423088Y-108505684D01*
X122423088Y-108505684D02*
X122973088Y-108505684D01*
X122973088Y-108505684D02*
X125213087Y-106265685D01*
X125213087Y-106265685D02*
X125931089Y-106265685D01*
X125931089Y-106265685D02*
X126370488Y-105826286D01*
X127191258Y-105826286D02*
X126370488Y-105826286D01*
X124623088Y-105705684D02*
X122823088Y-105705684D01*
X122823088Y-105705684D02*
X122423088Y-106105684D01*
X120273088Y-105805684D02*
X122123088Y-105805684D01*
X122123088Y-105805684D02*
X122423088Y-106105684D01*
X128123088Y-123705684D02*
X128123088Y-124830684D01*
X128123088Y-124830684D02*
X128123088Y-124880684D01*
X128123088Y-124880684D02*
X128748088Y-125505684D01*
X128748088Y-125505684D02*
X128748088Y-127455684D01*
X128748088Y-127455684D02*
X128748088Y-128280684D01*
X128123088Y-122605684D02*
X128123088Y-122655684D01*
X128123088Y-122655684D02*
X129138087Y-123670683D01*
X129138087Y-127345683D02*
X129248088Y-127455684D01*
X129248088Y-127455684D02*
X129248088Y-128280684D01*
X129138087Y-123670683D02*
X129138087Y-127345683D01*
X130718088Y-122347284D02*
X130718088Y-122984282D01*
X130718088Y-122984282D02*
X130713087Y-122989283D01*
X130713087Y-122989283D02*
X130713087Y-123905285D01*
X130713087Y-123905285D02*
X130718088Y-123910286D01*
X130718088Y-123910286D02*
X130718088Y-127425684D01*
X130718088Y-127425684D02*
X130748088Y-127455684D01*
X130748088Y-127455684D02*
X130748088Y-128280684D01*
X132318088Y-125473364D02*
X132318088Y-128210684D01*
X132318088Y-128210684D02*
X132248088Y-128280684D01*
X128123088Y-125930684D02*
X128123088Y-126430684D01*
X128123088Y-126430684D02*
X128248088Y-126555684D01*
X128248088Y-126555684D02*
X128248088Y-127455684D01*
X128248088Y-127455684D02*
X128248088Y-128280684D01*
X129648088Y-125080684D02*
X130248088Y-125680684D01*
X129648088Y-125030684D02*
X129648088Y-125080684D01*
X130248088Y-125680684D02*
X130248088Y-127455684D01*
X130248088Y-127455684D02*
X130248088Y-128280684D01*
X129648088Y-126130684D02*
X129648088Y-126630684D01*
X129648088Y-126630684D02*
X129748088Y-126730684D01*
X129748088Y-126730684D02*
X129748088Y-127455684D01*
X129748088Y-127455684D02*
X129748088Y-128280684D01*
X131273088Y-123447284D02*
X131273088Y-123897284D01*
X131273088Y-123897284D02*
X131248088Y-123922284D01*
X131248088Y-123922284D02*
X131248088Y-127455684D01*
X131248088Y-127455684D02*
X131248088Y-128280684D01*
X132753088Y-128275684D02*
X132753088Y-126578164D01*
X132753088Y-126578164D02*
X132918088Y-126413164D01*
X127183008Y-125921764D02*
X127183008Y-126421764D01*
X127183008Y-126421764D02*
X127748088Y-126986844D01*
X127748088Y-126986844D02*
X127748088Y-127455684D01*
X127748088Y-127455684D02*
X127748088Y-128280684D01*
X131818088Y-124508164D02*
X131818088Y-124958164D01*
X131818088Y-124958164D02*
X131748088Y-125028164D01*
X131748088Y-125028164D02*
X131748088Y-127455684D01*
X131748088Y-127455684D02*
X131748088Y-128280684D01*
X155917288Y-122894484D02*
X156231488Y-123208684D01*
X155917288Y-121226484D02*
X155917288Y-122894484D01*
X156204288Y-116951484D02*
X156729288Y-116951484D01*
X155917288Y-117238484D02*
X156204288Y-116951484D01*
X155917288Y-121226484D02*
X155917288Y-117238484D01*
X83389389Y-125798484D02*
X83308088Y-125879785D01*
X84509088Y-125798484D02*
X83389389Y-125798484D01*
X121173088Y-89947284D02*
X121198088Y-89922284D01*
X123274686Y-85107684D02*
X130425088Y-85107684D01*
X119147488Y-89234882D02*
X119147488Y-89935684D01*
X123274686Y-85107684D02*
X119147488Y-89234882D01*
X121184688Y-89935684D02*
X121198088Y-89922284D01*
X119147488Y-89935684D02*
X121184688Y-89935684D01*
X122448088Y-91630684D02*
X122448088Y-89942284D01*
X122448088Y-89942284D02*
X122468088Y-89922284D01*
X126893288Y-91635484D02*
X122500288Y-91635484D01*
X133003088Y-85215684D02*
X133003088Y-85525684D01*
X133003088Y-85525684D02*
X126893288Y-91635484D01*
X125523088Y-105705684D02*
X125902486Y-105326286D01*
X125902486Y-105326286D02*
X127191258Y-105326286D01*
X127131255Y-105386289D02*
X127191258Y-105326286D01*
X121248088Y-129580684D02*
X121248088Y-128280684D01*
X130297352Y-114595684D02*
X129873088Y-114595684D01*
X132491258Y-110626286D02*
X132491258Y-112401778D01*
X132491258Y-112401778D02*
X130297352Y-114595684D01*
X120248088Y-128280684D02*
X120248088Y-127427284D01*
X131983077Y-110634467D02*
X131991258Y-110626286D01*
X130605806Y-113468875D02*
X131983077Y-112091604D01*
X131983077Y-112091604D02*
X131983077Y-110634467D01*
X119096488Y-126275684D02*
X117313088Y-126275684D01*
X120248088Y-127427284D02*
X119096488Y-126275684D01*
X114013088Y-114505684D02*
X114873088Y-114505684D01*
X114873088Y-114505684D02*
X114963088Y-114595684D01*
X127191258Y-101326286D02*
X127891258Y-101326286D01*
X129873098Y-103308126D02*
X129873098Y-107373020D01*
X129873098Y-107373020D02*
X129873098Y-107797284D01*
X127891258Y-101326286D02*
X129873098Y-103308126D01*
X126806486Y-112722284D02*
X126923088Y-112605682D01*
X117493088Y-112722284D02*
X126806486Y-112722284D01*
X108581088Y-116349684D02*
X106803088Y-114571684D01*
X106803088Y-114571684D02*
X99962952Y-114571684D01*
X99962952Y-114571684D02*
X99538688Y-114571684D01*
X130297362Y-107797284D02*
X129873098Y-107797284D01*
X133545807Y-107797284D02*
X130297362Y-107797284D01*
X138291258Y-105826286D02*
X137591258Y-105826286D01*
X137591258Y-105826286D02*
X135641257Y-107776287D01*
X133566804Y-107776287D02*
X133545807Y-107797284D01*
X135641257Y-107776287D02*
X133566804Y-107776287D01*
X139923088Y-124899628D02*
X138948088Y-124899628D01*
X138948088Y-124899628D02*
X137923088Y-125924628D01*
X137923088Y-125924628D02*
X137923088Y-128681420D01*
X137923088Y-128681420D02*
X137923088Y-129105684D01*
X139817032Y-125005684D02*
X139923088Y-124899628D01*
X109185087Y-109367683D02*
X110317799Y-109367683D01*
X108423088Y-108605684D02*
X109185087Y-109367683D01*
X125663089Y-128365683D02*
X125663089Y-129395685D01*
X125753088Y-128275684D02*
X125663089Y-128365683D01*
X125663089Y-129395685D02*
X125963088Y-129695684D01*
X125748088Y-128280684D02*
X125753088Y-128275684D01*
X125753088Y-128275684D02*
X125743088Y-128265684D01*
X125743088Y-128265684D02*
X125743088Y-127349948D01*
X125743088Y-127349948D02*
X125743088Y-126925684D01*
X110317799Y-109367683D02*
X111443088Y-110492972D01*
X111443088Y-110492972D02*
X111443088Y-110860684D01*
X129991258Y-110626286D02*
X129991258Y-111247534D01*
X129991258Y-111247534D02*
X129333108Y-111905684D01*
X128440271Y-111922867D02*
X128423088Y-111905684D01*
X128440271Y-112473567D02*
X128440271Y-111922867D01*
X129333108Y-111905684D02*
X128423088Y-111905684D01*
X111877352Y-108605684D02*
X111453088Y-108605684D01*
X114983684Y-108605684D02*
X111877352Y-108605684D01*
X128423088Y-111905684D02*
X118283684Y-111905684D01*
X118283684Y-111905684D02*
X114983684Y-108605684D01*
X128991258Y-110626286D02*
X127523088Y-110626286D01*
X127523088Y-110105684D02*
X127523088Y-110626286D01*
X143723088Y-123004628D02*
X143723088Y-122705684D01*
X145323088Y-123629628D02*
X144348088Y-123629628D01*
X144348088Y-123629628D02*
X143723088Y-123004628D01*
X112618088Y-110599488D02*
X112618088Y-111035684D01*
X110893086Y-108874486D02*
X112618088Y-110599488D01*
X112423088Y-106005684D02*
X110893086Y-107535686D01*
X110893086Y-107535686D02*
X110893086Y-108874486D01*
X143523088Y-119955694D02*
X127557532Y-119955694D01*
X143923088Y-120355694D02*
X143523088Y-119955694D01*
X127557532Y-119955694D02*
X127133268Y-119955694D01*
X118986690Y-110626286D02*
X127523088Y-110626286D01*
X116316078Y-107955674D02*
X118986690Y-110626286D01*
X112423088Y-106005684D02*
X114373078Y-107955674D01*
X114373078Y-107955674D02*
X116316078Y-107955674D01*
X126223088Y-132260685D02*
X116068089Y-132260685D01*
X116068089Y-132260685D02*
X115343088Y-131535684D01*
X115343088Y-131535684D02*
X115343088Y-130485684D01*
X139923088Y-126169628D02*
X139923088Y-126669628D01*
X138632031Y-127960685D02*
X138632031Y-130996741D01*
X139923088Y-126669628D02*
X138632031Y-127960685D01*
X138632031Y-130996741D02*
X137368087Y-132260685D01*
X137368087Y-132260685D02*
X126223088Y-132260685D01*
X109823088Y-106605684D02*
X109823088Y-108340684D01*
X109823088Y-108340684D02*
X111943088Y-110460684D01*
X126573090Y-131910683D02*
X126223088Y-132260685D01*
X126253088Y-128275684D02*
X126253088Y-129156880D01*
X126573090Y-129476882D02*
X126573090Y-131910683D01*
X126253088Y-129156880D02*
X126573090Y-129476882D01*
X114409213Y-115765694D02*
X113984949Y-115765694D01*
X120063088Y-116201420D02*
X120063088Y-115765694D01*
X120053088Y-116211420D02*
X120063088Y-116201420D01*
X120053088Y-116635684D02*
X120053088Y-116211420D01*
X120063088Y-115765694D02*
X114409213Y-115765694D01*
X111943088Y-110460684D02*
X111943088Y-110860684D01*
X121949677Y-115765694D02*
X120063088Y-115765694D01*
X123693278Y-114022093D02*
X121949677Y-115765694D01*
X127912515Y-114022093D02*
X123693278Y-114022093D01*
X130491258Y-110626286D02*
X130491258Y-111443350D01*
X130491258Y-111443350D02*
X127912515Y-114022093D01*
X138291258Y-102326286D02*
X139383869Y-102326286D01*
X139383869Y-102326286D02*
X139470027Y-102412444D01*
X141923121Y-115534943D02*
X149202347Y-115534943D01*
X149202347Y-115534943D02*
X149333088Y-115665684D01*
X138991258Y-101826286D02*
X139001208Y-101816336D01*
X139001208Y-101816336D02*
X140971147Y-101816336D01*
X140971147Y-101816336D02*
X140983477Y-101828666D01*
X138291258Y-101826286D02*
X138991258Y-101826286D01*
X149046089Y-136588685D02*
X166955089Y-136588685D01*
X166955089Y-136588685D02*
X167255088Y-136288686D01*
X147383088Y-134925684D02*
X149046089Y-136588685D01*
X148803099Y-142415683D02*
X148503100Y-142115684D01*
X153623100Y-147235684D02*
X148803099Y-142415683D01*
X154183088Y-147235684D02*
X153623100Y-147235684D01*
X139569088Y-100855684D02*
X139098486Y-101326286D01*
X139098486Y-101326286D02*
X138291258Y-101326286D01*
X126403078Y-109473020D02*
X126403078Y-109897284D01*
X127191258Y-107826286D02*
X126491258Y-107826286D01*
X126403078Y-107914466D02*
X126403078Y-109473020D01*
X126491258Y-107826286D02*
X126403078Y-107914466D01*
X125731983Y-115574621D02*
X128842263Y-115574621D01*
X128842263Y-115574621D02*
X131410313Y-118142671D01*
X131410313Y-118142671D02*
X134877901Y-118142671D01*
X153611803Y-118755696D02*
X154036067Y-118755696D01*
X134877901Y-118142671D02*
X135490926Y-118755696D01*
X135490926Y-118755696D02*
X153611803Y-118755696D01*
X154047088Y-118762684D02*
X154040100Y-118755696D01*
X154036067Y-118755696D02*
X154841476Y-118755696D01*
X154841476Y-118755696D02*
X155291688Y-118305484D01*
X158611688Y-119169084D02*
X158629288Y-119151484D01*
X157831688Y-119169084D02*
X158611688Y-119169084D01*
X169179715Y-130123863D02*
X168638515Y-129582663D01*
X170304715Y-130123863D02*
X169179715Y-130123863D01*
X168575888Y-129520036D02*
X168638515Y-129582663D01*
X168575888Y-128338484D02*
X168575888Y-129520036D01*
X138991258Y-102826286D02*
X139323088Y-103158116D01*
X138291258Y-102826286D02*
X138991258Y-102826286D01*
X165969088Y-122064084D02*
X165969088Y-122664084D01*
X165969088Y-118819882D02*
X165969088Y-122064084D01*
X159847087Y-112697881D02*
X165969088Y-118819882D01*
X159844085Y-112697881D02*
X159847087Y-112697881D01*
X141575688Y-111904684D02*
X159050888Y-111904684D01*
X159050888Y-111904684D02*
X159844085Y-112697881D01*
X137294568Y-105331002D02*
X136994569Y-105631001D01*
X137299284Y-105326286D02*
X137294568Y-105331002D01*
X138291258Y-105326286D02*
X137299284Y-105326286D01*
X127191258Y-104326286D02*
X128393680Y-104326286D01*
X128393680Y-104326286D02*
X128473079Y-104405685D01*
X128473079Y-104405685D02*
X128773078Y-104705684D01*
X140289088Y-105485684D02*
X140289088Y-105935684D01*
X140129690Y-105326286D02*
X140289088Y-105485684D01*
X138291258Y-105326286D02*
X140129690Y-105326286D01*
X125522888Y-104509484D02*
X125522888Y-104640284D01*
X124536088Y-103522684D02*
X125522888Y-104509484D01*
X123936088Y-103522684D02*
X124536088Y-103522684D01*
X126491258Y-104326286D02*
X126177260Y-104640284D01*
X127191258Y-104326286D02*
X126491258Y-104326286D01*
X126177260Y-104640284D02*
X125522888Y-104640284D01*
X109923088Y-100155684D02*
X109923088Y-101105684D01*
X113646549Y-100784872D02*
X112220564Y-101490818D01*
X113646549Y-100784872D02*
X114663357Y-102061648D01*
X112220564Y-101490818D02*
X109923088Y-101105684D01*
X109719088Y-98797684D02*
X109923088Y-100155684D01*
X109719088Y-97680684D02*
X109719088Y-98797684D01*
X113323088Y-152055684D02*
X113373088Y-152105684D01*
X114323088Y-152105684D02*
X113373088Y-152105684D01*
X114373088Y-152055684D02*
X114323088Y-152105684D01*
X113373088Y-150758684D02*
X113492088Y-150639684D01*
X113373088Y-152105684D02*
X113373088Y-150758684D01*
X115532088Y-150639684D02*
X116032088Y-150639684D01*
X114846089Y-151325683D02*
X115532088Y-150639684D01*
X114373089Y-151325683D02*
X114846089Y-151325683D01*
X114323088Y-151375684D02*
X114373089Y-151325683D01*
X114323088Y-152105684D02*
X114323088Y-151375684D01*
X109898118Y-148504826D02*
X110938744Y-149288865D01*
X110346012Y-150971952D02*
X111883088Y-152036684D01*
X111883088Y-152036684D02*
X113373088Y-152105684D01*
X110938744Y-149288865D02*
X110346012Y-150971952D01*
X142073088Y-99500684D02*
X142073088Y-99705684D01*
X141123088Y-99705684D02*
X142073088Y-99705684D01*
X143269088Y-99705684D02*
X143379088Y-99595684D01*
X142073088Y-99705684D02*
X143269088Y-99705684D01*
X144649088Y-99595684D02*
X143379088Y-99595684D01*
X143871988Y-102973048D02*
X142790269Y-102054028D01*
X142790269Y-101575887D02*
X142790269Y-102054028D01*
X142790269Y-101152865D02*
X142790269Y-101575887D01*
X142073088Y-99705684D02*
X142073088Y-100435684D01*
X142073088Y-100435684D02*
X142790269Y-101152865D01*
X143760088Y-103084948D02*
X143871988Y-102973048D01*
X143423822Y-104768302D02*
X144115688Y-103954484D01*
X144115688Y-103954484D02*
X143871988Y-102973048D01*
X142823088Y-153155684D02*
X143773088Y-153155684D01*
X142823088Y-152205684D02*
X142823088Y-153155684D01*
X142773088Y-152255684D02*
X142823088Y-152205684D01*
X138035998Y-151348671D02*
X138421222Y-152585208D01*
X138421222Y-152585208D02*
X139315718Y-153642363D01*
X141524088Y-152205684D02*
X141474088Y-152255684D01*
X142823088Y-152205684D02*
X141524088Y-152205684D01*
X140331088Y-152626993D02*
X139315718Y-153642363D01*
X140331088Y-152255684D02*
X140331088Y-152626993D01*
X140331088Y-152255684D02*
X141474088Y-152255684D01*
X124343088Y-95005684D02*
X125136288Y-95005684D01*
X125136288Y-95005684D02*
X125144688Y-94997284D01*
X127191258Y-103826286D02*
X125693700Y-103826286D01*
X125693700Y-103826286D02*
X125573090Y-103705676D01*
X125573090Y-103705676D02*
X125273091Y-103405677D01*
X124343088Y-93095684D02*
X124380888Y-93057884D01*
X124343088Y-95005684D02*
X124343088Y-93095684D01*
X138291258Y-103826286D02*
X137343690Y-103826286D01*
X137343690Y-103826286D02*
X137123088Y-103605684D01*
X131413956Y-94605684D02*
X129103954Y-96915686D01*
X129103954Y-96915686D02*
X122782066Y-96915686D01*
X137023088Y-94605684D02*
X131413956Y-94605684D01*
X108533932Y-104222704D02*
X86881952Y-125874684D01*
X115475048Y-104222704D02*
X108533932Y-104222704D01*
X122782066Y-96915686D02*
X115475048Y-104222704D01*
X86279888Y-125798484D02*
X86356088Y-125874684D01*
X85409088Y-125798484D02*
X86279888Y-125798484D01*
X86610088Y-125874684D02*
X86356088Y-125874684D01*
X86881952Y-125874684D02*
X86610088Y-125874684D01*
X138291258Y-104326286D02*
X137110872Y-104326286D01*
X137110872Y-104326286D02*
X137082558Y-104354600D01*
X87260089Y-126045019D02*
X87260089Y-127256683D01*
X115620027Y-104572715D02*
X108732393Y-104572715D01*
X108732393Y-104572715D02*
X87260089Y-126045019D01*
X137923088Y-95505680D02*
X136994280Y-95505680D01*
X131503075Y-95025697D02*
X129253076Y-97275696D01*
X87260089Y-127256683D02*
X86762488Y-127754284D01*
X136514297Y-95025697D02*
X131503075Y-95025697D01*
X129253076Y-97275696D02*
X122917046Y-97275696D01*
X136994280Y-95505680D02*
X136514297Y-95025697D01*
X122917046Y-97275696D02*
X115620027Y-104572715D01*
X86762488Y-127754284D02*
X86584688Y-127754284D01*
X86584688Y-127754284D02*
X85459888Y-127754284D01*
X129686736Y-97647285D02*
X126443087Y-97647285D01*
X130931992Y-97131350D02*
X130202671Y-97131350D01*
X130202671Y-97131350D02*
X129686736Y-97647285D01*
X131991258Y-98190616D02*
X130931992Y-97131350D01*
X126443087Y-97647285D02*
X126143088Y-97947284D01*
X131991258Y-99526286D02*
X131991258Y-98190616D01*
X87018091Y-118847281D02*
X93195973Y-118847281D01*
X108170560Y-103872694D02*
X115330068Y-103872694D01*
X93195973Y-118847281D02*
X108170560Y-103872694D01*
X125248824Y-96355684D02*
X125673088Y-96355684D01*
X122847078Y-96355684D02*
X125248824Y-96355684D01*
X115330068Y-103872694D02*
X122847078Y-96355684D01*
X112042732Y-97490006D02*
X108708410Y-94155684D01*
X108708410Y-94155684D02*
X108623088Y-94155684D01*
X140042817Y-155397734D02*
X140957342Y-154977892D01*
X128687022Y-101406308D02*
X128106419Y-100825705D01*
X121651093Y-100825705D02*
X121158986Y-101317812D01*
X133811235Y-101406309D02*
X128687022Y-101406308D01*
X128106419Y-100825705D02*
X121651093Y-100825705D01*
X121158986Y-101317812D02*
X120573249Y-101317812D01*
X120573249Y-101317812D02*
X120148985Y-101317812D01*
X134991258Y-100226286D02*
X133811235Y-101406309D01*
X134991258Y-99526286D02*
X134991258Y-100226286D01*
X155737514Y-110670342D02*
X155737514Y-111094606D01*
X155737514Y-108620110D02*
X155737514Y-110670342D01*
X150623088Y-103505684D02*
X155737514Y-108620110D01*
X112843574Y-99062888D02*
X112042732Y-97490006D01*
X140957342Y-154977892D02*
X141623087Y-155805685D01*
X141623088Y-155805684D02*
X141623087Y-155805685D01*
X141623088Y-155775684D02*
X141623088Y-155805684D01*
X111023088Y-153922618D02*
X111023088Y-154025213D01*
X110744102Y-154034060D02*
X111014241Y-154034060D01*
X109189365Y-152479323D02*
X110744102Y-154034060D01*
X111023088Y-154025213D02*
X111014241Y-154034060D01*
X158023095Y-147705683D02*
X158323094Y-147405684D01*
X145133087Y-155805685D02*
X147083088Y-153855684D01*
X147083088Y-153855684D02*
X151273088Y-153855684D01*
X151273088Y-153855684D02*
X156083087Y-149045685D01*
X156083087Y-149045685D02*
X156683093Y-149045685D01*
X141623087Y-155805685D02*
X145133087Y-155805685D01*
X156683093Y-149045685D02*
X158023095Y-147705683D01*
X158471409Y-129906992D02*
X158884101Y-130319684D01*
X158048464Y-129906992D02*
X158471409Y-129906992D01*
X107861089Y-94917683D02*
X107203889Y-94917683D01*
X108623088Y-94155684D02*
X107861089Y-94917683D01*
X107203889Y-94917683D02*
X102688288Y-99433284D01*
X102688288Y-99433284D02*
X102688288Y-99839684D01*
X89454888Y-129430684D02*
X94839688Y-124045884D01*
X89454888Y-132898971D02*
X89454888Y-129430684D01*
X104550024Y-147994107D02*
X89454888Y-132898971D01*
X104974288Y-147994107D02*
X104550024Y-147994107D01*
X95028064Y-124234260D02*
X94839688Y-124045884D01*
X95816624Y-124234260D02*
X95028064Y-124234260D01*
X145665088Y-100411184D02*
X145028635Y-101465677D01*
X145665088Y-100138709D02*
X145814339Y-100287960D01*
X145665088Y-99077684D02*
X145665088Y-100138709D01*
X146724645Y-100895193D02*
X145814339Y-100287960D01*
X144122086Y-96645682D02*
X146255586Y-98779182D01*
X134973958Y-96645682D02*
X144122086Y-96645682D01*
X133491258Y-99526286D02*
X133491258Y-98128382D01*
X133491258Y-98128382D02*
X134973958Y-96645682D01*
X147272531Y-100181175D02*
X146404837Y-99518408D01*
X146404837Y-99518408D02*
X146255586Y-98779182D01*
X156303089Y-148135683D02*
X156603088Y-147835684D01*
X151163087Y-153275685D02*
X156303089Y-148135683D01*
X149953087Y-153275685D02*
X151163087Y-153275685D01*
X136107342Y-157689938D02*
X136123088Y-157705684D01*
X128836144Y-101046298D02*
X128255541Y-100465695D01*
X121247352Y-100705686D02*
X120823088Y-100705686D01*
X121487343Y-100465695D02*
X121247352Y-100705686D01*
X133171246Y-101046298D02*
X128836144Y-101046298D01*
X133991258Y-100226286D02*
X133171246Y-101046298D01*
X133991258Y-99526286D02*
X133991258Y-100226286D01*
X128255541Y-100465695D02*
X121487343Y-100465695D01*
X114132910Y-96597845D02*
X114132910Y-92415506D01*
X114132910Y-92415506D02*
X113623088Y-91905684D01*
X114837451Y-98133128D02*
X114132910Y-96597845D01*
X136123088Y-157705684D02*
X136123088Y-156905684D01*
X136123088Y-156905684D02*
X138010282Y-156239637D01*
X157772730Y-133325042D02*
X157730088Y-133367684D01*
X157772730Y-132089645D02*
X157772730Y-133325042D01*
X106765825Y-150461885D02*
X106447487Y-150461885D01*
X107443988Y-151140048D02*
X106765825Y-150461885D01*
X146774012Y-102804952D02*
X147778745Y-101517493D01*
X146776156Y-102804952D02*
X146774012Y-102804952D01*
X154402688Y-110431484D02*
X146776156Y-102804952D01*
X96287488Y-120261284D02*
X96092358Y-122051607D01*
X89104878Y-133119276D02*
X106447487Y-150461885D01*
X89104878Y-129285704D02*
X89104878Y-133119276D01*
X94280888Y-124109694D02*
X89104878Y-129285704D01*
X94280888Y-124109694D02*
X94280888Y-122928284D01*
X95157565Y-122051607D02*
X96092358Y-122051607D01*
X94280888Y-122928284D02*
X95157565Y-122051607D01*
X127504378Y-156418474D02*
X127504378Y-161307394D01*
X148694090Y-102260236D02*
X147778745Y-101517493D01*
X148255888Y-100732732D02*
X148326631Y-100803475D01*
X148255888Y-99509484D02*
X148255888Y-100732732D01*
X144812094Y-96065690D02*
X148255888Y-99509484D01*
X135044818Y-96065690D02*
X144812094Y-96065690D01*
X132991258Y-99526286D02*
X132991258Y-98119250D01*
X132991258Y-98119250D02*
X135044818Y-96065690D01*
X149284588Y-101490684D02*
X148326631Y-100803475D01*
X121373087Y-102755683D02*
X121073088Y-102455684D01*
X127191258Y-103326286D02*
X126007704Y-103326286D01*
X126007704Y-103326286D02*
X125437101Y-102755683D01*
X125437101Y-102755683D02*
X121373087Y-102755683D01*
X119871688Y-90835684D02*
X120925488Y-91889484D01*
X119147488Y-90835684D02*
X119871688Y-90835684D01*
X122448088Y-92530684D02*
X122448088Y-94560684D01*
X122183087Y-94825685D02*
X121883088Y-95125684D01*
X122448088Y-94560684D02*
X122183087Y-94825685D01*
X126491258Y-102826286D02*
X126020645Y-102355673D01*
X122223087Y-102355673D02*
X122023088Y-102155674D01*
X126020645Y-102355673D02*
X122223087Y-102355673D01*
X127191258Y-102826286D02*
X126491258Y-102826286D01*
D63*
X141423088Y-129451090D02*
X141423088Y-130405684D01*
X142347693Y-128526485D02*
X141423088Y-129451090D01*
X148245687Y-128526485D02*
X142347693Y-128526485D01*
X153023088Y-124305684D02*
X152466488Y-124305684D01*
X152466488Y-124305684D02*
X148245687Y-128526485D01*
D59*
X121373088Y-120155684D02*
X121373088Y-118585684D01*
X127613088Y-98215684D02*
X129715154Y-98215684D01*
X126813088Y-99015684D02*
X127613088Y-98215684D01*
X123673088Y-99015684D02*
X126813088Y-99015684D01*
X129715154Y-98215684D02*
X130491258Y-98991788D01*
X130491258Y-98991788D02*
X130491258Y-99526286D01*
X121704088Y-118254684D02*
X121373088Y-118585684D01*
X122297088Y-118254684D02*
X121704088Y-118254684D01*
X118763088Y-118605684D02*
X118923088Y-118445684D01*
X118763088Y-125255684D02*
X118763088Y-118605684D01*
X120748088Y-128280684D02*
X120748088Y-127240684D01*
X120748088Y-127240684D02*
X118763088Y-125255684D01*
X119193988Y-101776586D02*
X118893989Y-102076585D01*
X128423088Y-100105684D02*
X120582048Y-100105684D01*
X128803692Y-100486288D02*
X128423088Y-100105684D01*
X129731256Y-100486288D02*
X128803692Y-100486288D01*
X120582048Y-100105684D02*
X119193988Y-101493744D01*
X129991258Y-99526286D02*
X129991258Y-100226286D01*
X119193988Y-101493744D02*
X119193988Y-101776586D01*
X129991258Y-100226286D02*
X129731256Y-100486288D01*
X161236088Y-123612684D02*
X161286088Y-123662684D01*
X161184488Y-122103884D02*
X161184488Y-122128884D01*
X160559487Y-121478883D02*
X161184488Y-122103884D01*
X160559487Y-118510485D02*
X160559487Y-121478883D01*
X160676488Y-118393484D02*
X160559487Y-118510485D01*
X160676488Y-117993484D02*
X160676488Y-118393484D01*
X155740172Y-127000000D02*
X156231488Y-126508684D01*
X158413488Y-126508684D02*
X158466688Y-126561884D01*
X156231488Y-126508684D02*
X158413488Y-126508684D01*
X160955888Y-124312684D02*
X160955888Y-123662684D01*
X160955888Y-124372684D02*
X160955888Y-124312684D01*
X158766688Y-126561884D02*
X160955888Y-124372684D01*
X158466688Y-126561884D02*
X158766688Y-126561884D01*
X161184488Y-123434084D02*
X160955888Y-123662684D01*
X161184488Y-122128884D02*
X161184488Y-123434084D01*
X155740172Y-127000000D02*
X153750000Y-127000000D01*
X127724694Y-99526286D02*
X127615711Y-99417303D01*
X128991258Y-99526286D02*
X127724694Y-99526286D01*
X126513099Y-120505695D02*
X125003087Y-118995683D01*
X142994155Y-120505695D02*
X126513099Y-120505695D01*
X125003087Y-118995683D02*
X124703088Y-118695684D01*
X144848088Y-122359628D02*
X142994155Y-120505695D01*
X145323088Y-122359628D02*
X144848088Y-122359628D01*
X138823088Y-91405684D02*
X133647352Y-91405684D01*
X141123088Y-93705684D02*
X138823088Y-91405684D01*
X133647352Y-91405684D02*
X133223088Y-91405684D01*
X148123088Y-93705684D02*
X141123088Y-93705684D01*
X131491258Y-99526286D02*
X131491258Y-98533854D01*
X131491258Y-98533854D02*
X131213088Y-98255684D01*
X150878389Y-123709383D02*
X150878389Y-123645673D01*
X145323088Y-124899628D02*
X149688144Y-124899628D01*
X149688144Y-124899628D02*
X150878389Y-123709383D01*
X131542373Y-90705842D02*
X131242374Y-91005841D01*
X144623246Y-90705842D02*
X131542373Y-90705842D01*
X147023088Y-93105684D02*
X144623246Y-90705842D01*
X142099144Y-123629628D02*
X142323088Y-123405684D01*
X139923088Y-123629628D02*
X142099144Y-123629628D01*
X130471473Y-98462871D02*
X130471473Y-98115616D01*
X130991258Y-98982656D02*
X130471473Y-98462871D01*
X130471473Y-98115616D02*
X130471473Y-97691352D01*
X130991258Y-99526286D02*
X130991258Y-98982656D01*
X150623088Y-108905684D02*
X148791087Y-108905684D01*
X147044587Y-110652184D02*
X146744588Y-110952183D01*
X148791087Y-108905684D02*
X147044587Y-110652184D01*
X134491258Y-98637518D02*
X134623088Y-98505688D01*
X134491258Y-99526286D02*
X134491258Y-98637518D01*
X109923088Y-102055684D02*
X110873088Y-102055684D01*
X109923088Y-102580684D02*
X109923088Y-102055684D01*
X109547088Y-102956684D02*
X109923088Y-102580684D01*
X106168088Y-102956684D02*
X109547088Y-102956684D01*
X135491258Y-99526286D02*
X135491258Y-98585096D01*
X135491258Y-98585096D02*
X135551268Y-98525086D01*
X109547352Y-155805684D02*
X109123088Y-155805684D01*
X112881091Y-153515683D02*
X110591090Y-155805684D01*
X114593089Y-153515683D02*
X112881091Y-153515683D01*
X115273088Y-152835684D02*
X114593089Y-153515683D01*
X110591090Y-155805684D02*
X109547352Y-155805684D01*
X115273088Y-152105684D02*
X115273088Y-152835684D01*
X116698088Y-152105684D02*
X116963088Y-151840684D01*
X115273088Y-152105684D02*
X116698088Y-152105684D01*
D60*
X152413089Y-150415685D02*
X152713088Y-150715684D01*
X142823088Y-151255684D02*
X143028088Y-151255684D01*
X143028088Y-151255684D02*
X143868087Y-150415685D01*
D59*
X136298087Y-98180683D02*
X135998088Y-97880684D01*
X136298087Y-98588907D02*
X136298087Y-98180683D01*
X135991258Y-99526286D02*
X135991258Y-98895736D01*
X135991258Y-98895736D02*
X136298087Y-98588907D01*
X146808088Y-151205684D02*
X146808088Y-150415685D01*
D60*
X143868087Y-150415685D02*
X146808088Y-150415685D01*
X146808088Y-150415685D02*
X152413089Y-150415685D01*
D59*
X136491258Y-99526286D02*
X139993690Y-99526286D01*
X139993690Y-99526286D02*
X140173088Y-99705684D01*
X140173088Y-100639684D02*
X140516088Y-100982684D01*
X140173088Y-99705684D02*
X140173088Y-100639684D01*
X157217288Y-121226484D02*
X157917288Y-121226484D01*
X156729288Y-120738484D02*
X157217288Y-121226484D01*
X156729288Y-119151484D02*
X156729288Y-120738484D01*
X158617288Y-121226484D02*
X158642688Y-121201084D01*
X157917288Y-121226484D02*
X158617288Y-121226484D01*
X158642688Y-121201084D02*
X158974688Y-121201084D01*
X166738515Y-129582663D02*
X167688515Y-129582663D01*
X165791109Y-129582663D02*
X165375488Y-129998284D01*
X166738515Y-129582663D02*
X165791109Y-129582663D01*
X165350088Y-129972884D02*
X165375488Y-129998284D01*
X164334088Y-129972884D02*
X165350088Y-129972884D01*
X163884088Y-129972884D02*
X164334088Y-129972884D01*
X163784088Y-129972884D02*
X163884088Y-129972884D01*
X163165688Y-129354484D02*
X163784088Y-129972884D01*
X115554448Y-113605684D02*
X115800248Y-113851484D01*
X114013088Y-113605684D02*
X115554448Y-113605684D01*
X121373088Y-121105684D02*
X121373088Y-122055684D01*
X122243088Y-126425684D02*
X122243088Y-127395684D01*
X121853088Y-126035684D02*
X122243088Y-126425684D01*
X121803088Y-126035684D02*
X121853088Y-126035684D01*
X122243088Y-127395684D02*
X122243088Y-128295684D01*
X124763088Y-128275684D02*
X124743088Y-128295684D01*
X124763088Y-126725684D02*
X124763088Y-128275684D01*
X122243088Y-128295684D02*
X122743088Y-128295684D01*
X122743088Y-128295684D02*
X123243088Y-128295684D01*
X123243088Y-128295684D02*
X123743088Y-128295684D01*
X123743088Y-128295684D02*
X124243088Y-128295684D01*
X124243088Y-128295684D02*
X124743088Y-128295684D01*
X124743088Y-128295684D02*
X125243088Y-128295684D01*
X126743088Y-128295684D02*
X126743088Y-127096880D01*
X126743088Y-127096880D02*
X126011890Y-126365682D01*
X125123090Y-126365682D02*
X124763088Y-126725684D01*
X126011890Y-126365682D02*
X125123090Y-126365682D01*
X122056488Y-123627484D02*
X121992288Y-123563284D01*
X122056488Y-124960284D02*
X122056488Y-123627484D01*
X121803088Y-125213684D02*
X122056488Y-124960284D01*
X121803088Y-126035684D02*
X121803088Y-125213684D01*
X121373088Y-122944084D02*
X121992288Y-123563284D01*
X121373088Y-122055684D02*
X121373088Y-122944084D01*
X107923088Y-110685684D02*
X108033098Y-110575674D01*
X110943088Y-110745684D02*
X110943088Y-110860684D01*
X110568088Y-110370684D02*
X110943088Y-110745684D01*
X109315718Y-110370684D02*
X110568088Y-110370684D01*
X109000718Y-110685684D02*
X109315718Y-110370684D01*
X107923088Y-110685684D02*
X109000718Y-110685684D01*
X127224250Y-113472092D02*
X127648514Y-113472092D01*
X113553086Y-115215686D02*
X117685791Y-115215686D01*
X117685791Y-115215686D02*
X119429385Y-113472092D01*
X112673089Y-116095683D02*
X113553086Y-115215686D01*
X109713087Y-116095683D02*
X112673089Y-116095683D01*
X119429385Y-113472092D02*
X127224250Y-113472092D01*
X108633088Y-115015684D02*
X109713087Y-116095683D01*
X129857498Y-113081274D02*
X129857498Y-113124202D01*
X131491258Y-111447514D02*
X129857498Y-113081274D01*
X131491258Y-110626286D02*
X131491258Y-111447514D01*
X129857498Y-113124202D02*
X129857498Y-113548466D01*
X122507702Y-101826286D02*
X122287089Y-101605673D01*
X106493088Y-107795684D02*
X106493088Y-110768246D01*
X121759087Y-101605673D02*
X121679076Y-101685684D01*
X121679076Y-101685684D02*
X120573088Y-101685684D01*
X109305089Y-104983683D02*
X106493088Y-107795684D01*
X120573088Y-101685684D02*
X117275089Y-104983683D01*
X122287089Y-101605673D02*
X121759087Y-101605673D01*
X109778088Y-112035684D02*
X110268088Y-112035684D01*
X106493088Y-110768246D02*
X107760526Y-112035684D01*
X127191258Y-101826286D02*
X122507702Y-101826286D01*
X107760526Y-112035684D02*
X109778088Y-112035684D01*
X117275089Y-104983683D02*
X109305089Y-104983683D01*
X132673087Y-116355685D02*
X131923088Y-117105684D01*
X133491258Y-111326286D02*
X133223088Y-111594456D01*
X133491258Y-110626286D02*
X133491258Y-111326286D01*
X133223088Y-111594456D02*
X133223088Y-113805684D01*
X133223088Y-113805684D02*
X132823089Y-114205683D01*
X132823089Y-114205683D02*
X132823089Y-116205683D01*
X132823089Y-116205683D02*
X132673087Y-116355685D01*
X132991258Y-110626286D02*
X132991258Y-111326286D01*
X132991258Y-111326286D02*
X132873077Y-111444467D01*
X132873077Y-111444467D02*
X132873077Y-113095035D01*
X132873077Y-113095035D02*
X131823088Y-114145024D01*
X131823088Y-114995684D02*
X131633088Y-115185684D01*
X131823088Y-114145024D02*
X131823088Y-114995684D01*
X144602486Y-108826286D02*
X144723088Y-108705684D01*
X143662428Y-108705684D02*
X144723088Y-108705684D01*
X143138427Y-109229685D02*
X143662428Y-108705684D01*
X139069657Y-109229685D02*
X143138427Y-109229685D01*
X138666258Y-108826286D02*
X139069657Y-109229685D01*
X138291258Y-108826286D02*
X138666258Y-108826286D01*
X139123089Y-112255685D02*
X139873088Y-113005684D01*
X138445657Y-112255685D02*
X139123089Y-112255685D01*
X136816258Y-110626286D02*
X138445657Y-112255685D01*
X136491258Y-110626286D02*
X136816258Y-110626286D01*
X135991258Y-111164860D02*
X138223088Y-113396690D01*
X138223088Y-113396690D02*
X138223088Y-116345024D01*
X135991258Y-110626286D02*
X135991258Y-111164860D01*
X138223088Y-116345024D02*
X138223088Y-117405684D01*
X136973087Y-116655685D02*
X136223088Y-117405684D01*
X136973087Y-112641679D02*
X136973087Y-116655685D01*
X135491258Y-110626286D02*
X135491258Y-111159850D01*
X135491258Y-111159850D02*
X136973087Y-112641679D01*
X134991258Y-111326286D02*
X135323088Y-111658116D01*
X134991258Y-110626286D02*
X134991258Y-111326286D01*
X135323088Y-111658116D02*
X135323088Y-111805684D01*
X138291258Y-103326286D02*
X137716256Y-103326286D01*
X137716256Y-103326286D02*
X137295654Y-102905684D01*
X136223088Y-103305684D02*
X136223088Y-106305684D01*
X137295654Y-102905684D02*
X136623088Y-102905684D01*
X136623088Y-102905684D02*
X136223088Y-103305684D01*
X156630088Y-113240684D02*
X154920286Y-113240684D01*
X154920286Y-113240684D02*
X153565075Y-114595895D01*
X141483573Y-114595895D02*
X141059309Y-114595895D01*
X153565075Y-114595895D02*
X141483573Y-114595895D01*
X134060395Y-115870545D02*
X134060395Y-116667255D01*
X138703089Y-118405685D02*
X139393088Y-117715686D01*
X134060395Y-116667255D02*
X135798825Y-118405685D01*
X135798825Y-118405685D02*
X138703089Y-118405685D01*
X139393088Y-117715686D02*
X139393088Y-115484284D01*
X139393088Y-115484284D02*
X141118488Y-113758884D01*
X153907096Y-113758884D02*
X155329496Y-112336484D01*
X141118488Y-113758884D02*
X153907096Y-113758884D01*
X158100088Y-113240684D02*
X158830088Y-113240684D01*
X157195888Y-112336484D02*
X158100088Y-113240684D01*
X155329496Y-112336484D02*
X157195888Y-112336484D01*
X129323088Y-108205684D02*
X129482730Y-108365326D01*
X129482730Y-108365326D02*
X133367505Y-108365326D01*
X133406542Y-108326289D02*
X133830806Y-108326289D01*
X127191258Y-102326286D02*
X127891258Y-102326286D01*
X127891258Y-102326286D02*
X129323088Y-103758116D01*
X129323088Y-103758116D02*
X129323088Y-108205684D01*
X133367505Y-108365326D02*
X133406542Y-108326289D01*
X164004772Y-127000000D02*
X163750000Y-127000000D01*
X163312684Y-126562684D02*
X163750000Y-127000000D01*
X160955888Y-126562684D02*
X163312684Y-126562684D01*
X163969088Y-126780912D02*
X163750000Y-127000000D01*
X163969088Y-123614084D02*
X163969088Y-126780912D01*
X99810288Y-122267884D02*
X99810288Y-123217884D01*
X97701642Y-124472393D02*
X97346688Y-126171998D01*
X99649088Y-126535084D02*
X98490021Y-126345021D01*
X98490021Y-126345021D02*
X97346688Y-126171998D01*
X99826888Y-123234484D02*
X99810288Y-123217884D01*
X99826888Y-124884084D02*
X99826888Y-123234484D01*
X99826888Y-126357284D02*
X99649088Y-126535084D01*
X99826888Y-124884084D02*
X99826888Y-126357284D01*
X151676088Y-130300684D02*
X151591088Y-130385684D01*
X151591088Y-130385684D02*
X151591088Y-131335684D01*
X150541888Y-128939284D02*
X151532488Y-128939284D01*
X151532488Y-130327084D02*
X151591088Y-130385684D01*
X151532488Y-128939284D02*
X151532488Y-130327084D01*
X153456602Y-128939284D02*
X153556888Y-128838998D01*
X151532488Y-128939284D02*
X153456602Y-128939284D01*
X153556888Y-128838998D02*
X154852621Y-129266021D01*
X154852621Y-129266021D02*
X156163446Y-129668859D01*
X128616257Y-111117284D02*
X118614088Y-111117284D01*
X129491258Y-111252543D02*
X129366259Y-111127544D01*
X118614088Y-111117284D02*
X118563288Y-111066484D01*
X129491258Y-110626286D02*
X129491258Y-111252543D01*
X129366259Y-111127544D02*
X129366259Y-111326287D01*
X129366259Y-111326287D02*
X129316259Y-111376287D01*
X128616257Y-111326287D02*
X128616257Y-111117284D01*
X129316259Y-111376287D02*
X128666257Y-111376287D01*
X128666257Y-111376287D02*
X128616257Y-111326287D01*
X99774488Y-119399284D02*
X99774488Y-119499284D01*
X100224489Y-118949283D02*
X99774488Y-119399284D01*
X106837287Y-118949283D02*
X100224489Y-118949283D01*
X107819088Y-119931084D02*
X106837287Y-118949283D01*
X99774488Y-121282084D02*
X99810288Y-121317884D01*
X99774488Y-119499284D02*
X99774488Y-121282084D01*
X129307488Y-113122110D02*
X129307488Y-115079684D01*
X130991258Y-111438340D02*
X129307488Y-113122110D01*
X130991258Y-110626286D02*
X130991258Y-111438340D01*
X129307488Y-115079684D02*
X129307488Y-115435284D01*
X129307488Y-115435284D02*
X130236860Y-116364656D01*
X130236860Y-116364656D02*
X130410116Y-116364656D01*
X145995288Y-127347882D02*
X148027290Y-127347882D01*
X148027290Y-127347882D02*
X150364088Y-125011084D01*
X150364088Y-125011084D02*
X150389488Y-125011084D01*
X151707888Y-132402484D02*
X151591088Y-132285684D01*
X152853288Y-132402484D02*
X151707888Y-132402484D01*
X151430888Y-132445884D02*
X151591088Y-132285684D01*
X151430888Y-133824884D02*
X151430888Y-132445884D01*
X128354387Y-158515683D02*
X128054388Y-158215684D01*
X129218588Y-159379884D02*
X128354387Y-158515683D01*
X129218588Y-161371184D02*
X129218588Y-159379884D01*
X137160653Y-109265673D02*
X138054175Y-110159195D01*
X129321513Y-109265673D02*
X137160653Y-109265673D01*
X128382126Y-108326286D02*
X129321513Y-109265673D01*
X138054175Y-110159195D02*
X138579999Y-110159195D01*
X127191258Y-108326286D02*
X128382126Y-108326286D01*
X138579999Y-110159195D02*
X141526488Y-113105684D01*
X141526488Y-113105684D02*
X147508834Y-113105684D01*
X147508834Y-113105684D02*
X147933098Y-113105684D01*
X141619816Y-117202412D02*
X140423087Y-116005683D01*
X149053110Y-117202412D02*
X141619816Y-117202412D01*
X140423087Y-116005683D02*
X140123088Y-115705684D01*
X119439588Y-166006684D02*
X126505589Y-158940683D01*
X126505589Y-158940683D02*
X126805588Y-158640684D01*
X119439588Y-167340184D02*
X119439588Y-166006684D01*
X128355656Y-109615684D02*
X136924185Y-109615684D01*
X137716409Y-110407908D02*
X138016408Y-110707907D01*
X127566258Y-108826286D02*
X128355656Y-109615684D01*
X127191258Y-108826286D02*
X127566258Y-108826286D01*
X136924185Y-109615684D02*
X137716409Y-110407908D01*
X129390666Y-98725694D02*
X128497352Y-98725694D01*
X128447352Y-98775694D02*
X128023088Y-98775694D01*
X128497352Y-98725694D02*
X128447352Y-98775694D01*
X129491258Y-98826286D02*
X129390666Y-98725694D01*
X129491258Y-99526286D02*
X129491258Y-98826286D01*
X122902088Y-95805684D02*
X115358087Y-103349685D01*
X106863567Y-104365685D02*
X106563568Y-104665684D01*
X107879567Y-103349685D02*
X106863567Y-104365685D01*
X127923088Y-95805684D02*
X122902088Y-95805684D01*
X115358087Y-103349685D02*
X107879567Y-103349685D01*
X127191258Y-107326286D02*
X128196190Y-107326286D01*
X128196190Y-107326286D02*
X128196190Y-107580286D01*
X128196190Y-107580286D02*
X129492203Y-108876299D01*
X137266269Y-108876299D02*
X138199154Y-109809184D01*
X129492203Y-108876299D02*
X137266269Y-108876299D01*
X138199154Y-109809184D02*
X142998088Y-109809184D01*
X142998088Y-109809184D02*
X143950588Y-110761684D01*
M02*
