M48
; DRILL file {KiCad (5.1.2)-2} date 10/3/2019 3:28:17 PM
; FORMAT={-:-/ absolute / inch / decimal}
; #@! TF.CreationDate,2019-10-03T15:28:17-06:00
; #@! TF.GenerationSoftware,Kicad,Pcbnew,(5.1.2)-2
; #@! TF.FileFunction,Plated,1,4,PTH
FMAT,2
INCH
T1C0.0157
T2C0.0197
T3C0.0236
T4C0.0256
T5C0.0295
T6C0.0300
T7C0.0315
T8C0.0350
T9C0.0394
%
G90
G05
T1
X3.2798Y-4.9559
X3.2908Y-5.0297
X3.3137Y-4.7932
X3.3158Y-4.9907
X3.3538Y-5.1027
X3.4088Y-5.0297
X3.4098Y-4.9557
X3.4259Y-4.679
X3.5058Y-5.0337
X3.5537Y-5.2128
X3.5816Y-5.7136
X3.5948Y-5.2128
X3.6249Y-5.5396
X3.6398Y-5.2128
X3.7338Y-4.8837
X3.7908Y-4.7347
X3.8268Y-4.7587
X3.871Y-5.3309
X3.9008Y-5.0467
X3.9188Y-4.5107
X3.9655Y-5.2719
X3.9958Y-4.7197
X4.0131Y-5.1849
X4.0278Y-4.8947
X4.0428Y-3.9307
X4.0621Y-4.9223
X4.0648Y-5.0587
X4.0678Y-4.8137
X4.0918Y-5.3487
X4.1328Y-5.8265
X4.1908Y-5.9237
X4.1954Y-4.1207
X4.1976Y-5.1643
X4.2285Y-4.4317
X4.2348Y-3.8907
X4.2448Y-4.7217
X4.2748Y-4.5807
X4.2765Y-4.0199
X4.2769Y-4.5282
X4.2804Y-3.9805
X4.2844Y-3.9412
X4.2844Y-5.9451
X4.2962Y-6.1341
X4.3017Y-4.4624
X4.308Y-5.9136
X4.3552Y-3.8349
X4.3651Y-4.0179
X4.3668Y-4.5387
X4.3706Y-6.0643
X4.3808Y-4.7657
X4.3879Y-4.2758
X4.3915Y-4.4049
X4.4098Y-5.9357
X4.4428Y-4.4857
X4.4876Y-4.5577
X4.497Y-3.9136
X4.5009Y-6.1183
X4.5068Y-4.7647
X4.5127Y-3.949
X4.5261Y-4.5116
X4.5335Y-5.9107
X4.5411Y-5.1372
X4.5545Y-4.4038
X4.5718Y-6.075
X4.5755Y-4.6454
X4.6178Y-4.8337
X4.6257Y-4.4379
X4.6398Y-5.9307
X4.6678Y-4.3727
X4.6809Y-4.0188
X4.682Y-4.6632
X4.6899Y-4.201
X4.6948Y-6.6532
X4.6998Y-4.8647
X4.7023Y-6.5882
X4.7096Y-3.7876
X4.7265Y-4.592
X4.7303Y-3.9889
X4.7568Y-3.9648
X4.7608Y-3.6177
X4.7667Y-4.0337
X4.7735Y-5.1016
X4.7785Y-4.6687
X4.7907Y-5.001
X4.7985Y-3.7451
X4.8041Y-4.0219
X4.8552Y-4.1183
X4.8611Y-4.6986
X4.869Y-3.8983
X4.8845Y-6.0885
X4.8966Y-4.8439
X4.9058Y-4.3317
X4.9096Y-4.6731
X4.927Y-3.7401
X4.932Y-4.0711
X4.9426Y-4.953
X4.9478Y-3.7935
X4.9478Y-4.2128
X4.9501Y-4.5502
X4.9505Y-4.9971
X4.9592Y-5.1061
X4.9663Y-3.8562
X4.9765Y-4.3267
X4.981Y-4.6839
X4.9923Y-6.2457
X4.997Y-4.4333
X5.0013Y-4.8801
X5.0052Y-4.7227
X5.01Y-5.1018
X5.0199Y-6.1582
X5.0199Y-6.3507
X5.0206Y-4.3349
X5.0242Y-3.9141
X5.0255Y-4.4674
X5.0363Y-3.7719
X5.0403Y-3.8888
X5.0415Y-6.229
X5.056Y-4.1656
X5.0567Y-4.4281
X5.0678Y-3.7325
X5.0698Y-4.1223
X5.0868Y-3.5587
X5.0873Y-6.3532
X5.1125Y-4.4704
X5.1131Y-4.5116
X5.1131Y-4.244
X5.1298Y-6.0757
X5.1343Y-4.5813
X5.1367Y-3.8461
X5.142Y-4.4673
X5.1592Y-4.1367
X5.1659Y-3.8683
X5.167Y-3.5829
X5.1946Y-4.1367
X5.2167Y-3.9561
X5.2186Y-4.8164
X5.2198Y-6.3582
X5.226Y-4.1369
X5.2398Y-4.8601
X5.245Y-3.5986
X5.2568Y-4.1369
X5.2573Y-6.5232
X5.2607Y-4.9019
X5.2608Y-4.5278
X5.2689Y-4.2648
X5.278Y-4.5618
X5.2797Y-4.9399
X5.2848Y-3.7657
X5.2911Y-4.1367
X5.297Y-4.4006
X5.2998Y-4.6729
X5.3001Y-3.8782
X5.3034Y-4.9769
X5.3066Y-3.7009
X5.3147Y-4.5388
X5.323Y-4.701
X5.3277Y-4.4018
X5.3367Y-3.8789
X5.3529Y-3.6727
X5.3543Y-3.8536
X5.3592Y-6.2089
X5.3613Y-4.2648
X5.3631Y-4.1853
X5.3796Y-6.0455
X5.3935Y-4.1587
X5.3946Y-3.7246
X5.397Y-4.1084
X5.3985Y-4.079
X5.412Y-4.2663
X5.43Y-3.7601
X5.43Y-5.0829
X5.4337Y-4.3586
X5.434Y-4.7679
X5.4498Y-4.8157
X5.4852Y-3.8388
X5.4852Y-4.0613
X5.4852Y-4.2246
X5.4902Y-5.951
X5.4909Y-4.032
X5.4948Y-3.9707
X5.5167Y-4.5553
X5.5299Y-4.0302
X5.5363Y-6.0672
X5.5505Y-4.009
X5.5535Y-4.5116
X5.556Y-3.8821
X5.5635Y-4.0396
X5.5735Y-3.7503
X5.5738Y-4.4057
X5.5757Y-6.1329
X5.5875Y-4.5486
X5.5998Y-4.1707
X5.6032Y-4.2657
X5.6048Y-4.8557
X5.6584Y-4.8309
X5.6604Y-6.0298
X5.6663Y-4.7384
X5.6663Y-4.9648
X5.6698Y-3.8507
X5.6722Y-5.9549
X5.7096Y-6.0593
X5.7214Y-4.0514
X5.7348Y-3.9007
X5.7478Y-5.0137
X5.7773Y-4.3682
X5.7883Y-3.6656
X5.8025Y-5.312
X5.8241Y-4.453
X5.8316Y-3.6892
X5.8466Y-5.5951
X5.8682Y-4.6143
X5.8793Y-4.5538
X5.9037Y-6.0345
X5.9208Y-4.9217
X5.9248Y-5.2057
X5.9288Y-5.1517
X5.93Y-4.075
X5.93Y-4.2876
X5.9401Y-4.8679
X5.9648Y-5.0057
X5.993Y-5.6656
X6.0123Y-5.9337
X6.0178Y-5.2127
X6.043Y-6.0124
X6.0702Y-5.7967
X6.0788Y-4.3477
X6.0898Y-5.1807
X6.1138Y-4.6577
X6.1298Y-5.2407
X6.1314Y-4.3738
X6.1491Y-5.9998
X6.1655Y-5.8203
X6.1798Y-5.1487
X6.1948Y-3.5407
X6.1948Y-3.5747
X6.1948Y-3.6107
X6.2024Y-4.5331
X6.2078Y-4.6507
X6.2098Y-5.2507
X6.2108Y-4.4957
X6.2138Y-4.6917
X6.2332Y-5.8034
X6.2388Y-4.9097
X6.2553Y-5.1307
X6.2588Y-4.7717
X6.2654Y-5.8834
X6.4158Y-4.7387
X6.4238Y-5.0927
X6.4388Y-5.1617
X6.4693Y-5.4705
X6.4757Y-5.3427
X6.5131Y-5.3042
X6.5466Y-5.2703
X6.5748Y-4.9037
X6.5848Y-5.3657
X6.6298Y-5.2957
X6.6368Y-5.0527
X6.6674Y-5.1883
T3
X6.0245Y-4.8497
X6.0245Y-4.8939
T4
X4.7716Y-3.4902
X4.7716Y-3.5402
X4.8216Y-3.4902
X4.8216Y-3.5402
X4.8716Y-3.4902
X4.8716Y-3.5402
X4.9216Y-3.4902
X4.9216Y-3.5402
X4.9716Y-3.4902
X4.9716Y-3.5402
T5
X4.3671Y-4.9687
X4.4458Y-4.9687
T6
X4.8898Y-6.4545
X4.8898Y-6.5545
X4.8898Y-6.6545
X5.0398Y-6.4557
X5.0398Y-6.5557
X5.0398Y-6.6557
T7
X5.5068Y-4.449
X5.1824Y-4.5349
X5.1938Y-4.6105
X5.6978Y-4.2798
X5.5678Y-5.1341
X5.6466Y-5.1341
X5.3572Y-4.7935
X5.4419Y-4.6223
X5.3631Y-4.6223
X5.8237Y-3.3664
X3.5718Y-5.827
T8
X5.1348Y-3.3507
X5.2348Y-3.3507
X5.3348Y-3.3507
X5.4348Y-3.3507
X5.5348Y-3.3507
T9
X4.4261Y-4.1735
X4.2489Y-4.3577
X4.4733Y-3.6183
X4.6186Y-4.9715
X4.2765Y-3.7069
X5.6698Y-4.3607
X3.5046Y-4.4487
X4.2686Y-4.2758
X3.9372Y-5.4175
X4.3237Y-4.1971
X6.0531Y-5.0
X6.4469Y-5.0
X4.5098Y-4.6907
X6.3033Y-4.2801
T2
G00X3.0573Y-4.8346
M15
G01X3.0298Y-4.8346
M16
G05
G00X3.0573Y-5.1672
M15
G01X3.0298Y-5.1672
M16
G05
G00X3.1262Y-4.8346
M15
G01X3.0987Y-4.8346
M16
G05
G00X3.1262Y-5.1672
M15
G01X3.0987Y-5.1672
M16
G05
T3
G00X3.1754Y-4.8592
M15
G01X3.1597Y-4.8592
M16
G05
G00X3.1754Y-5.1426
M15
G01X3.1597Y-5.1426
M16
G05
T0
M30
