  0
SECTION
  2
HEADER
  9
$ANGBASE
  50
0.0
  9
$ANGDIR
  70
  1
  9
$MEASUREMENT
  70
0
  0
ENDSEC
  0
SECTION
  2
TABLES
  0
TABLE
  2
LTYPE
  70
1
  0
LTYPE
  2
CONTINUOUS
  70
0
  3
Solid line
  72
65
  73
0
  40
0.0
  0
ENDTAB
  0
TABLE
  2
STYLE
  70
4
  0
STYLE
  2
KICAD
  70
0
  40
0
  41
1
  42
1
  50
0
  71
0
  3
isocp.shx
  0
STYLE
  2
KICADB
  70
0
  40
0
  41
1
  42
1
  50
0
  71
0
  3
isocp.shx
  0
STYLE
  2
KICADI
  70
0
  40
0
  41
1
  42
1
  50
15
  71
0
  3
isocp.shx
  0
STYLE
  2
KICADBI
  70
0
  40
0
  41
1
  42
1
  50
15
  71
0
  3
isocp.shx
  0
ENDTAB
  0
TABLE
  2
LAYER
  70
30
  0
LAYER
  2
BLACK
  70
0
  62
7
  6
CONTINUOUS
  0
LAYER
  2
GRAY1
  70
0
  62
251
  6
CONTINUOUS
  0
LAYER
  2
GRAY2
  70
0
  62
8
  6
CONTINUOUS
  0
LAYER
  2
GRAY3
  70
0
  62
9
  6
CONTINUOUS
  0
LAYER
  2
WHITE
  70
0
  62
7
  6
CONTINUOUS
  0
LAYER
  2
LYELLOW
  70
0
  62
51
  6
CONTINUOUS
  0
LAYER
  2
BLUE1
  70
0
  62
178
  6
CONTINUOUS
  0
LAYER
  2
GREEN1
  70
0
  62
98
  6
CONTINUOUS
  0
LAYER
  2
CYAN1
  70
0
  62
138
  6
CONTINUOUS
  0
LAYER
  2
RED1
  70
0
  62
18
  6
CONTINUOUS
  0
LAYER
  2
MAGENTA1
  70
0
  62
228
  6
CONTINUOUS
  0
LAYER
  2
BROWN1
  70
0
  62
58
  6
CONTINUOUS
  0
LAYER
  2
BLUE2
  70
0
  62
5
  6
CONTINUOUS
  0
LAYER
  2
GREEN2
  70
0
  62
3
  6
CONTINUOUS
  0
LAYER
  2
CYAN2
  70
0
  62
4
  6
CONTINUOUS
  0
LAYER
  2
RED2
  70
0
  62
1
  6
CONTINUOUS
  0
LAYER
  2
MAGENTA2
  70
0
  62
6
  6
CONTINUOUS
  0
LAYER
  2
BROWN2
  70
0
  62
54
  6
CONTINUOUS
  0
LAYER
  2
BLUE3
  70
0
  62
171
  6
CONTINUOUS
  0
LAYER
  2
GREEN3
  70
0
  62
91
  6
CONTINUOUS
  0
LAYER
  2
CYAN3
  70
0
  62
131
  6
CONTINUOUS
  0
LAYER
  2
RED3
  70
0
  62
11
  6
CONTINUOUS
  0
LAYER
  2
MAGENTA3
  70
0
  62
221
  6
CONTINUOUS
  0
LAYER
  2
YELLOW3
  70
0
  62
2
  6
CONTINUOUS
  0
LAYER
  2
BLUE4
  70
0
  62
5
  6
CONTINUOUS
  0
LAYER
  2
GREEN4
  70
0
  62
3
  6
CONTINUOUS
  0
LAYER
  2
CYAN4
  70
0
  62
4
  6
CONTINUOUS
  0
LAYER
  2
RED4
  70
0
  62
1
  6
CONTINUOUS
  0
LAYER
  2
MAGENTA4
  70
0
  62
6
  6
CONTINUOUS
  0
LAYER
  2
YELLOW4
  70
0
  62
2
  6
CONTINUOUS
  0
ENDTAB
  0
ENDSEC
  0
SECTION
  2
ENTITIES
0
LINE
8
Black
10
138.958
20
-159.806
11
139.817
21
-160.302
0
LINE
8
Black
10
139.817
20
-160.302
11
140.454
21
-161.061
0
LINE
8
Black
10
140.454
20
-161.061
11
140.793
21
-161.993
0
LINE
8
Black
10
140.793
20
-161.993
11
140.793
21
-162.985
0
LINE
8
Black
10
140.793
20
-162.985
11
140.454
21
-163.916
0
LINE
8
Black
10
140.454
20
-163.916
11
139.817
21
-164.676
0
LINE
8
Black
10
139.817
20
-164.676
11
138.958
21
-165.171
0
LINE
8
Black
10
138.958
20
-165.171
11
137.982
21
-165.344
0
LINE
8
Black
10
137.982
20
-165.344
11
137.005
21
-165.171
0
LINE
8
Black
10
137.005
20
-165.171
11
136.147
21
-164.676
0
LINE
8
Black
10
136.147
20
-164.676
11
135.509
21
-163.916
0
LINE
8
Black
10
135.509
20
-163.916
11
135.17
21
-162.985
0
LINE
8
Black
10
135.17
20
-162.985
11
135.17
21
-161.993
0
LINE
8
Black
10
135.17
20
-161.993
11
135.509
21
-161.061
0
LINE
8
Black
10
135.509
20
-161.061
11
136.147
21
-160.302
0
LINE
8
Black
10
136.147
20
-160.302
11
137.005
21
-159.806
0
LINE
8
Black
10
137.005
20
-159.806
11
137.982
21
-159.634
0
LINE
8
Black
10
137.982
20
-159.634
11
138.958
21
-159.806
0
LINE
8
Black
10
112.616
20
-158.843
11
113.474
21
-159.339
0
LINE
8
Black
10
113.474
20
-159.339
11
114.112
21
-160.099
0
LINE
8
Black
10
114.112
20
-160.099
11
114.451
21
-161.03
0
LINE
8
Black
10
114.451
20
-161.03
11
114.451
21
-162.022
0
LINE
8
Black
10
114.451
20
-162.022
11
114.112
21
-162.954
0
LINE
8
Black
10
114.112
20
-162.954
11
113.474
21
-163.713
0
LINE
8
Black
10
113.474
20
-163.713
11
112.616
21
-164.209
0
LINE
8
Black
10
112.616
20
-164.209
11
111.639
21
-164.381
0
LINE
8
Black
10
111.639
20
-164.381
11
110.663
21
-164.209
0
LINE
8
Black
10
110.663
20
-164.209
11
109.804
21
-163.713
0
LINE
8
Black
10
109.804
20
-163.713
11
109.167
21
-162.954
0
LINE
8
Black
10
109.167
20
-162.954
11
108.828
21
-162.022
0
LINE
8
Black
10
108.828
20
-162.022
11
108.828
21
-161.03
0
LINE
8
Black
10
108.828
20
-161.03
11
109.167
21
-160.099
0
LINE
8
Black
10
109.167
20
-160.099
11
109.804
21
-159.339
0
LINE
8
Black
10
109.804
20
-159.339
11
110.663
21
-158.843
0
LINE
8
Black
10
110.663
20
-158.843
11
111.639
21
-158.671
0
LINE
8
Black
10
111.639
20
-158.671
11
112.616
21
-158.843
0
LINE
8
Black
10
141.672
20
-152.795
11
141.917
21
-152.936
0
LINE
8
Black
10
141.917
20
-152.936
11
142.099
21
-153.153
0
LINE
8
Black
10
142.099
20
-153.153
11
142.196
21
-153.419
0
LINE
8
Black
10
142.196
20
-153.419
11
142.196
21
-153.702
0
LINE
8
Black
10
142.196
20
-153.702
11
142.099
21
-153.968
0
LINE
8
Black
10
142.099
20
-153.968
11
141.917
21
-154.185
0
LINE
8
Black
10
141.917
20
-154.185
11
141.672
21
-154.327
0
LINE
8
Black
10
141.672
20
-154.327
11
141.393
21
-154.376
0
LINE
8
Black
10
141.393
20
-154.376
11
141.114
21
-154.327
0
LINE
8
Black
10
141.114
20
-154.327
11
140.869
21
-154.185
0
LINE
8
Black
10
140.869
20
-154.185
11
140.687
21
-153.968
0
LINE
8
Black
10
140.687
20
-153.968
11
140.59
21
-153.702
0
LINE
8
Black
10
140.59
20
-153.702
11
140.59
21
-153.419
0
LINE
8
Black
10
140.59
20
-153.419
11
140.687
21
-153.153
0
LINE
8
Black
10
140.687
20
-153.153
11
140.869
21
-152.936
0
LINE
8
Black
10
140.869
20
-152.936
11
141.114
21
-152.795
0
LINE
8
Black
10
141.114
20
-152.795
11
141.393
21
-152.746
0
LINE
8
Black
10
141.393
20
-152.746
11
141.672
21
-152.795
0
LINE
8
Black
10
113.495
20
-152.261
11
113.741
21
-152.403
0
LINE
8
Black
10
113.741
20
-152.403
11
113.922
21
-152.62
0
LINE
8
Black
10
113.922
20
-152.62
11
114.019
21
-152.886
0
LINE
8
Black
10
114.019
20
-152.886
11
114.019
21
-153.169
0
LINE
8
Black
10
114.019
20
-153.169
11
113.922
21
-153.435
0
LINE
8
Black
10
113.922
20
-153.435
11
113.741
21
-153.652
0
LINE
8
Black
10
113.741
20
-153.652
11
113.495
21
-153.793
0
LINE
8
Black
10
113.495
20
-153.793
11
113.217
21
-153.842
0
LINE
8
Black
10
113.217
20
-153.842
11
112.938
21
-153.793
0
LINE
8
Black
10
112.938
20
-153.793
11
112.693
21
-153.652
0
LINE
8
Black
10
112.693
20
-153.652
11
112.511
21
-153.435
0
LINE
8
Black
10
112.511
20
-153.435
11
112.414
21
-153.169
0
LINE
8
Black
10
112.414
20
-153.169
11
112.414
21
-152.886
0
LINE
8
Black
10
112.414
20
-152.886
11
112.511
21
-152.62
0
LINE
8
Black
10
112.511
20
-152.62
11
112.693
21
-152.403
0
LINE
8
Black
10
112.693
20
-152.403
11
112.938
21
-152.261
0
LINE
8
Black
10
112.938
20
-152.261
11
113.217
21
-152.212
0
LINE
8
Black
10
113.217
20
-152.212
11
113.495
21
-152.261
0
LINE
8
Black
10
105.55
20
-150.048
11
104.45
21
-150.048
0
LINE
8
Black
10
104.45
20
-150.048
11
104.45
21
-148.348
0
LINE
8
Black
10
104.45
20
-148.348
11
105.55
21
-148.348
0
LINE
8
Black
10
105.55
20
-148.348
11
105.55
21
-150.048
0
LINE
8
Black
10
100.55
20
-150.048
11
99.4503
21
-150.048
0
LINE
8
Black
10
99.4503
20
-150.048
11
99.4503
21
-148.348
0
LINE
8
Black
10
99.4503
20
-148.348
11
100.55
21
-148.348
0
LINE
8
Black
10
100.55
20
-148.348
11
100.55
21
-150.048
0
LINE
8
Black
10
156.111
20
-145.413
11
156.428
21
-145.596
0
LINE
8
Black
10
156.428
20
-145.596
11
156.663
21
-145.876
0
LINE
8
Black
10
156.663
20
-145.876
11
156.788
21
-146.22
0
LINE
8
Black
10
156.788
20
-146.22
11
156.788
21
-146.586
0
LINE
8
Black
10
156.788
20
-146.586
11
156.663
21
-146.93
0
LINE
8
Black
10
156.663
20
-146.93
11
156.428
21
-147.21
0
LINE
8
Black
10
156.428
20
-147.21
11
156.111
21
-147.393
0
LINE
8
Black
10
156.111
20
-147.393
11
155.75
21
-147.457
0
LINE
8
Black
10
155.75
20
-147.457
11
155.39
21
-147.393
0
LINE
8
Black
10
155.39
20
-147.393
11
155.073
21
-147.21
0
LINE
8
Black
10
155.073
20
-147.21
11
154.837
21
-146.93
0
LINE
8
Black
10
154.837
20
-146.93
11
154.712
21
-146.586
0
LINE
8
Black
10
154.712
20
-146.586
11
154.712
21
-146.22
0
LINE
8
Black
10
154.712
20
-146.22
11
154.837
21
-145.876
0
LINE
8
Black
10
154.837
20
-145.876
11
155.073
21
-145.596
0
LINE
8
Black
10
155.073
20
-145.596
11
155.39
21
-145.413
0
LINE
8
Black
10
155.39
20
-145.413
11
155.75
21
-145.349
0
LINE
8
Black
10
155.75
20
-145.349
11
156.111
21
-145.413
0
LINE
8
Black
10
146.111
20
-145.413
11
146.428
21
-145.596
0
LINE
8
Black
10
146.428
20
-145.596
11
146.663
21
-145.876
0
LINE
8
Black
10
146.663
20
-145.876
11
146.788
21
-146.22
0
LINE
8
Black
10
146.788
20
-146.22
11
146.788
21
-146.586
0
LINE
8
Black
10
146.788
20
-146.586
11
146.663
21
-146.93
0
LINE
8
Black
10
146.663
20
-146.93
11
146.428
21
-147.21
0
LINE
8
Black
10
146.428
20
-147.21
11
146.111
21
-147.393
0
LINE
8
Black
10
146.111
20
-147.393
11
145.75
21
-147.457
0
LINE
8
Black
10
145.75
20
-147.457
11
145.39
21
-147.393
0
LINE
8
Black
10
145.39
20
-147.393
11
145.073
21
-147.21
0
LINE
8
Black
10
145.073
20
-147.21
11
144.837
21
-146.93
0
LINE
8
Black
10
144.837
20
-146.93
11
144.712
21
-146.586
0
LINE
8
Black
10
144.712
20
-146.586
11
144.712
21
-146.22
0
LINE
8
Black
10
144.712
20
-146.22
11
144.837
21
-145.876
0
LINE
8
Black
10
144.837
20
-145.876
11
145.073
21
-145.596
0
LINE
8
Black
10
145.073
20
-145.596
11
145.39
21
-145.413
0
LINE
8
Black
10
145.39
20
-145.413
11
145.75
21
-145.349
0
LINE
8
Black
10
145.75
20
-145.349
11
146.111
21
-145.413
0
LINE
8
Black
10
97.6898
20
-146.389
11
97.0898
21
-146.389
0
LINE
8
Black
10
97.0898
20
-146.389
11
97.0898
21
-145.689
0
LINE
8
Black
10
97.0898
20
-145.689
11
97.6898
21
-145.689
0
LINE
8
Black
10
97.6898
20
-145.689
11
97.6898
21
-146.389
0
LINE
8
Black
10
97.6898
20
-145.289
11
97.0898
21
-145.289
0
LINE
8
Black
10
97.0898
20
-145.289
11
97.0898
21
-144.589
0
LINE
8
Black
10
97.0898
20
-144.589
11
97.6898
21
-144.589
0
LINE
8
Black
10
97.6898
20
-144.589
11
97.6898
21
-145.289
0
LINE
8
Black
10
105.55
20
-144.448
11
104.45
21
-144.448
0
LINE
8
Black
10
104.45
20
-144.448
11
104.45
21
-142.748
0
LINE
8
Black
10
104.45
20
-142.748
11
105.55
21
-142.748
0
LINE
8
Black
10
105.55
20
-142.748
11
105.55
21
-144.448
0
LINE
8
Black
10
100.55
20
-144.448
11
99.4503
21
-144.448
0
LINE
8
Black
10
99.4503
20
-144.448
11
99.4503
21
-142.748
0
LINE
8
Black
10
99.4503
20
-142.748
11
100.55
21
-142.748
0
LINE
8
Black
10
100.55
20
-142.748
11
100.55
21
-144.448
0
LINE
8
Black
10
98.4759
20
-143.974
11
97.9759
21
-143.974
0
LINE
8
Black
10
97.9759
20
-143.974
11
97.9759
21
-143.274
0
LINE
8
Black
10
97.9759
20
-143.274
11
98.4759
21
-143.274
0
LINE
8
Black
10
98.4759
20
-143.274
11
98.4759
21
-143.974
0
LINE
8
Black
10
97.5759
20
-143.974
11
97.0759
21
-143.974
0
LINE
8
Black
10
97.0759
20
-143.974
11
97.0759
21
-143.274
0
LINE
8
Black
10
97.0759
20
-143.274
11
97.5759
21
-143.274
0
LINE
8
Black
10
97.5759
20
-143.274
11
97.5759
21
-143.974
0
LINE
8
Black
10
91.9084
20
-136.255
11
92.7671
21
-136.751
0
LINE
8
Black
10
92.7671
20
-136.751
11
93.4044
21
-137.511
0
LINE
8
Black
10
93.4044
20
-137.511
11
93.7435
21
-138.442
0
LINE
8
Black
10
93.7435
20
-138.442
11
93.7435
21
-139.434
0
LINE
8
Black
10
93.7435
20
-139.434
11
93.4044
21
-140.365
0
LINE
8
Black
10
93.4044
20
-140.365
11
92.7671
21
-141.125
0
LINE
8
Black
10
92.7671
20
-141.125
11
91.9084
21
-141.621
0
LINE
8
Black
10
91.9084
20
-141.621
11
90.932
21
-141.793
0
LINE
8
Black
10
90.932
20
-141.793
11
89.9556
21
-141.621
0
LINE
8
Black
10
89.9556
20
-141.621
11
89.0969
21
-141.125
0
LINE
8
Black
10
89.0969
20
-141.125
11
88.4596
21
-140.365
0
LINE
8
Black
10
88.4596
20
-140.365
11
88.1205
21
-139.434
0
LINE
8
Black
10
88.1205
20
-139.434
11
88.1205
21
-138.442
0
LINE
8
Black
10
88.1205
20
-138.442
11
88.4596
21
-137.511
0
LINE
8
Black
10
88.4596
20
-137.511
11
89.0969
21
-136.751
0
LINE
8
Black
10
89.0969
20
-136.751
11
89.9556
21
-136.255
0
LINE
8
Black
10
89.9556
20
-136.255
11
90.932
21
-136.083
0
LINE
8
Black
10
90.932
20
-136.083
11
91.9084
21
-136.255
0
LINE
8
Black
10
155.161
20
-134.676
11
154.161
21
-134.676
0
LINE
8
Black
10
154.161
20
-134.676
11
154.161
21
-133.776
0
LINE
8
Black
10
154.161
20
-133.776
11
155.161
21
-133.776
0
LINE
8
Black
10
155.161
20
-133.776
11
155.161
21
-134.676
0
LINE
8
Black
10
146.562
20
-132.419
11
146.807
21
-132.56
0
LINE
8
Black
10
146.807
20
-132.56
11
146.989
21
-132.777
0
LINE
8
Black
10
146.989
20
-132.777
11
147.086
21
-133.043
0
LINE
8
Black
10
147.086
20
-133.043
11
147.086
21
-133.326
0
LINE
8
Black
10
147.086
20
-133.326
11
146.989
21
-133.592
0
LINE
8
Black
10
146.989
20
-133.592
11
146.807
21
-133.809
0
LINE
8
Black
10
146.807
20
-133.809
11
146.562
21
-133.951
0
LINE
8
Black
10
146.562
20
-133.951
11
146.283
21
-134
0
LINE
8
Black
10
146.283
20
-134
11
146.005
21
-133.951
0
LINE
8
Black
10
146.005
20
-133.951
11
145.76
21
-133.809
0
LINE
8
Black
10
145.76
20
-133.809
11
145.578
21
-133.592
0
LINE
8
Black
10
145.578
20
-133.592
11
145.481
21
-133.326
0
LINE
8
Black
10
145.481
20
-133.326
11
145.481
21
-133.043
0
LINE
8
Black
10
145.481
20
-133.043
11
145.578
21
-132.777
0
LINE
8
Black
10
145.578
20
-132.777
11
145.76
21
-132.56
0
LINE
8
Black
10
145.76
20
-132.56
11
146.005
21
-132.419
0
LINE
8
Black
10
146.005
20
-132.419
11
146.283
21
-132.37
0
LINE
8
Black
10
146.283
20
-132.37
11
146.562
21
-132.419
0
LINE
8
Black
10
151.65
20
-133.972
11
150.65
21
-133.972
0
LINE
8
Black
10
150.65
20
-133.972
11
150.65
21
-132.672
0
LINE
8
Black
10
150.65
20
-132.672
11
151.65
21
-132.672
0
LINE
8
Black
10
151.65
20
-132.672
11
151.65
21
-133.972
0
LINE
8
Black
10
148.35
20
-133.972
11
147.35
21
-133.972
0
LINE
8
Black
10
147.35
20
-133.972
11
147.35
21
-132.672
0
LINE
8
Black
10
147.35
20
-132.672
11
148.35
21
-132.672
0
LINE
8
Black
10
148.35
20
-132.672
11
148.35
21
-133.972
0
LINE
8
Black
10
153.161
20
-133.726
11
152.161
21
-133.726
0
LINE
8
Black
10
152.161
20
-133.726
11
152.161
21
-132.826
0
LINE
8
Black
10
152.161
20
-132.826
11
153.161
21
-132.826
0
LINE
8
Black
10
153.161
20
-132.826
11
153.161
21
-133.726
0
LINE
8
Black
10
155.161
20
-132.776
11
154.161
21
-132.776
0
LINE
8
Black
10
154.161
20
-132.776
11
154.161
21
-131.876
0
LINE
8
Black
10
154.161
20
-131.876
11
155.161
21
-131.876
0
LINE
8
Black
10
155.161
20
-131.876
11
155.161
21
-132.776
0
LINE
8
Black
10
93.332
20
-132.214
11
92.382
21
-132.214
0
LINE
8
Black
10
92.382
20
-132.214
11
92.382
21
-130.214
0
LINE
8
Black
10
92.382
20
-130.214
11
93.332
21
-130.214
0
LINE
8
Black
10
93.332
20
-130.214
11
93.332
21
-132.214
0
LINE
8
Black
10
91.882
20
-132.214
11
90.932
21
-132.214
0
LINE
8
Black
10
90.932
20
-132.214
11
90.932
21
-130.214
0
LINE
8
Black
10
90.932
20
-130.214
11
91.882
21
-130.214
0
LINE
8
Black
10
91.882
20
-130.214
11
91.882
21
-132.214
0
LINE
8
Black
10
149.947
20
-131.86
11
148.647
21
-131.86
0
LINE
8
Black
10
148.647
20
-131.86
11
148.647
21
-130.86
0
LINE
8
Black
10
148.647
20
-130.86
11
149.947
21
-130.86
0
LINE
8
Black
10
149.947
20
-130.86
11
149.947
21
-131.86
0
LINE
8
Black
10
147.047
20
-129.926
11
147.292
21
-130.067
0
LINE
8
Black
10
147.292
20
-130.067
11
147.474
21
-130.284
0
LINE
8
Black
10
147.474
20
-130.284
11
147.571
21
-130.55
0
LINE
8
Black
10
147.571
20
-130.55
11
147.571
21
-130.833
0
LINE
8
Black
10
147.571
20
-130.833
11
147.474
21
-131.099
0
LINE
8
Black
10
147.474
20
-131.099
11
147.292
21
-131.316
0
LINE
8
Black
10
147.292
20
-131.316
11
147.047
21
-131.457
0
LINE
8
Black
10
147.047
20
-131.457
11
146.768
21
-131.507
0
LINE
8
Black
10
146.768
20
-131.507
11
146.489
21
-131.457
0
LINE
8
Black
10
146.489
20
-131.457
11
146.244
21
-131.316
0
LINE
8
Black
10
146.244
20
-131.316
11
146.062
21
-131.099
0
LINE
8
Black
10
146.062
20
-131.099
11
145.965
21
-130.833
0
LINE
8
Black
10
145.965
20
-130.833
11
145.965
21
-130.55
0
LINE
8
Black
10
145.965
20
-130.55
11
146.062
21
-130.284
0
LINE
8
Black
10
146.062
20
-130.284
11
146.244
21
-130.067
0
LINE
8
Black
10
146.244
20
-130.067
11
146.489
21
-129.926
0
LINE
8
Black
10
146.489
20
-129.926
11
146.768
21
-129.876
0
LINE
8
Black
10
146.768
20
-129.876
11
147.047
21
-129.926
0
LINE
8
Black
10
154.843
20
-131.101
11
154.343
21
-131.101
0
LINE
8
Black
10
154.343
20
-131.101
11
154.343
21
-130.401
0
LINE
8
Black
10
154.343
20
-130.401
11
154.843
21
-130.401
0
LINE
8
Black
10
154.843
20
-130.401
11
154.843
21
-131.101
0
LINE
8
Black
10
155.743
20
-131.101
11
155.243
21
-131.101
0
LINE
8
Black
10
155.243
20
-131.101
11
155.243
21
-130.401
0
LINE
8
Black
10
155.243
20
-130.401
11
155.743
21
-130.401
0
LINE
8
Black
10
155.743
20
-130.401
11
155.743
21
-131.101
0
LINE
8
Black
10
86.6013
20
-130.014
11
86.7667
21
-130.109
0
LINE
8
Black
10
86.7667
20
-130.109
11
86.8895
21
-130.256
0
LINE
8
Black
10
86.8895
20
-130.256
11
86.9548
21
-130.435
0
LINE
8
Black
10
86.9548
20
-130.435
11
86.9548
21
-130.626
0
LINE
8
Black
10
86.9548
20
-130.626
11
86.8895
21
-130.806
0
LINE
8
Black
10
86.8895
20
-130.806
11
86.7667
21
-130.952
0
LINE
8
Black
10
86.7667
20
-130.952
11
86.6013
21
-131.047
0
LINE
8
Black
10
86.6013
20
-131.047
11
86.4132
21
-131.081
0
LINE
8
Black
10
86.4132
20
-131.081
11
85.8569
21
-131.081
0
LINE
8
Black
10
85.8569
20
-131.081
11
85.6688
21
-131.047
0
LINE
8
Black
10
85.6688
20
-131.047
11
85.5033
21
-130.952
0
LINE
8
Black
10
85.5033
20
-130.952
11
85.3805
21
-130.806
0
LINE
8
Black
10
85.3805
20
-130.806
11
85.3152
21
-130.626
0
LINE
8
Black
10
85.3152
20
-130.626
11
85.3152
21
-130.435
0
LINE
8
Black
10
85.3152
20
-130.435
11
85.3805
21
-130.256
0
LINE
8
Black
10
85.3805
20
-130.256
11
85.5033
21
-130.109
0
LINE
8
Black
10
85.5033
20
-130.109
11
85.6688
21
-130.014
0
LINE
8
Black
10
85.6688
20
-130.014
11
85.8569
21
-129.981
0
LINE
8
Black
10
85.8569
20
-129.981
11
86.4132
21
-129.981
0
LINE
8
Black
10
86.4132
20
-129.981
11
86.6013
21
-130.014
0
LINE
8
Black
10
153.804
20
-130.694
11
152.804
21
-130.694
0
LINE
8
Black
10
152.804
20
-130.694
11
152.804
21
-129.794
0
LINE
8
Black
10
152.804
20
-129.794
11
153.804
21
-129.794
0
LINE
8
Black
10
153.804
20
-129.794
11
153.804
21
-130.694
0
LINE
8
Black
10
89.0975
20
-128.923
11
89.2372
21
-129.041
0
LINE
8
Black
10
89.2372
20
-129.041
11
89.3284
21
-129.199
0
LINE
8
Black
10
89.3284
20
-129.199
11
89.36
21
-129.378
0
LINE
8
Black
10
89.36
20
-129.378
11
89.36
21
-129.683
0
LINE
8
Black
10
89.36
20
-129.683
11
89.3284
21
-129.863
0
LINE
8
Black
10
89.3284
20
-129.863
11
89.2372
21
-130.021
0
LINE
8
Black
10
89.2372
20
-130.021
11
89.0975
21
-130.138
0
LINE
8
Black
10
89.0975
20
-130.138
11
88.9262
21
-130.2
0
LINE
8
Black
10
88.9262
20
-130.2
11
88.7438
21
-130.2
0
LINE
8
Black
10
88.7438
20
-130.2
11
88.5725
21
-130.138
0
LINE
8
Black
10
88.5725
20
-130.138
11
88.4328
21
-130.021
0
LINE
8
Black
10
88.4328
20
-130.021
11
88.3417
21
-129.863
0
LINE
8
Black
10
88.3417
20
-129.863
11
88.31
21
-129.683
0
LINE
8
Black
10
88.31
20
-129.683
11
88.31
21
-129.378
0
LINE
8
Black
10
88.31
20
-129.378
11
88.3417
21
-129.199
0
LINE
8
Black
10
88.3417
20
-129.199
11
88.4328
21
-129.041
0
LINE
8
Black
10
88.4328
20
-129.041
11
88.5725
21
-128.923
0
LINE
8
Black
10
88.5725
20
-128.923
11
88.7438
21
-128.861
0
LINE
8
Black
10
88.7438
20
-128.861
11
88.9262
21
-128.861
0
LINE
8
Black
10
88.9262
20
-128.861
11
89.0975
21
-128.923
0
LINE
8
Black
10
165.361
20
-124.279
11
166.22
21
-124.775
0
LINE
8
Black
10
166.22
20
-124.775
11
166.857
21
-125.534
0
LINE
8
Black
10
166.857
20
-125.534
11
167.196
21
-126.466
0
LINE
8
Black
10
167.196
20
-126.466
11
167.196
21
-127.458
0
LINE
8
Black
10
167.196
20
-127.458
11
166.857
21
-128.389
0
LINE
8
Black
10
166.857
20
-128.389
11
166.22
21
-129.149
0
LINE
8
Black
10
166.22
20
-129.149
11
165.361
21
-129.644
0
LINE
8
Black
10
165.361
20
-129.644
11
164.385
21
-129.817
0
LINE
8
Black
10
164.385
20
-129.817
11
163.408
21
-129.644
0
LINE
8
Black
10
163.408
20
-129.644
11
162.55
21
-129.149
0
LINE
8
Black
10
162.55
20
-129.149
11
161.913
21
-128.389
0
LINE
8
Black
10
161.913
20
-128.389
11
161.573
21
-127.458
0
LINE
8
Black
10
161.573
20
-127.458
11
161.573
21
-126.466
0
LINE
8
Black
10
161.573
20
-126.466
11
161.913
21
-125.534
0
LINE
8
Black
10
161.913
20
-125.534
11
162.55
21
-124.775
0
LINE
8
Black
10
162.55
20
-124.775
11
163.408
21
-124.279
0
LINE
8
Black
10
163.408
20
-124.279
11
164.385
21
-124.107
0
LINE
8
Black
10
164.385
20
-124.107
11
165.361
21
-124.279
0
LINE
8
Black
10
151.804
20
-129.744
11
150.804
21
-129.744
0
LINE
8
Black
10
150.804
20
-129.744
11
150.804
21
-128.844
0
LINE
8
Black
10
150.804
20
-128.844
11
151.804
21
-128.844
0
LINE
8
Black
10
151.804
20
-128.844
11
151.804
21
-129.744
0
LINE
8
Black
10
147.532
20
-127.432
11
147.777
21
-127.574
0
LINE
8
Black
10
147.777
20
-127.574
11
147.959
21
-127.791
0
LINE
8
Black
10
147.959
20
-127.791
11
148.055
21
-128.057
0
LINE
8
Black
10
148.055
20
-128.057
11
148.055
21
-128.34
0
LINE
8
Black
10
148.055
20
-128.34
11
147.959
21
-128.606
0
LINE
8
Black
10
147.959
20
-128.606
11
147.777
21
-128.823
0
LINE
8
Black
10
147.777
20
-128.823
11
147.532
21
-128.964
0
LINE
8
Black
10
147.532
20
-128.964
11
147.253
21
-129.013
0
LINE
8
Black
10
147.253
20
-129.013
11
146.974
21
-128.964
0
LINE
8
Black
10
146.974
20
-128.964
11
146.729
21
-128.823
0
LINE
8
Black
10
146.729
20
-128.823
11
146.547
21
-128.606
0
LINE
8
Black
10
146.547
20
-128.606
11
146.45
21
-128.34
0
LINE
8
Black
10
146.45
20
-128.34
11
146.45
21
-128.057
0
LINE
8
Black
10
146.45
20
-128.057
11
146.547
21
-127.791
0
LINE
8
Black
10
146.547
20
-127.791
11
146.729
21
-127.574
0
LINE
8
Black
10
146.729
20
-127.574
11
146.974
21
-127.432
0
LINE
8
Black
10
146.974
20
-127.432
11
147.253
21
-127.383
0
LINE
8
Black
10
147.253
20
-127.383
11
147.532
21
-127.432
0
LINE
8
Black
10
98.4713
20
-127.344
11
98.7164
21
-127.485
0
LINE
8
Black
10
98.7164
20
-127.485
11
98.8984
21
-127.702
0
LINE
8
Black
10
98.8984
20
-127.702
11
98.9952
21
-127.968
0
LINE
8
Black
10
98.9952
20
-127.968
11
98.9952
21
-128.251
0
LINE
8
Black
10
98.9952
20
-128.251
11
98.8984
21
-128.517
0
LINE
8
Black
10
98.8984
20
-128.517
11
98.7164
21
-128.734
0
LINE
8
Black
10
98.7164
20
-128.734
11
98.4713
21
-128.876
0
LINE
8
Black
10
98.4713
20
-128.876
11
98.1925
21
-128.925
0
LINE
8
Black
10
98.1925
20
-128.925
11
97.9137
21
-128.876
0
LINE
8
Black
10
97.9137
20
-128.876
11
97.6686
21
-128.734
0
LINE
8
Black
10
97.6686
20
-128.734
11
97.4866
21
-128.517
0
LINE
8
Black
10
97.4866
20
-128.517
11
97.3898
21
-128.251
0
LINE
8
Black
10
97.3898
20
-128.251
11
97.3898
21
-127.968
0
LINE
8
Black
10
97.3898
20
-127.968
11
97.4866
21
-127.702
0
LINE
8
Black
10
97.4866
20
-127.702
11
97.6686
21
-127.485
0
LINE
8
Black
10
97.6686
20
-127.485
11
97.9137
21
-127.344
0
LINE
8
Black
10
97.9137
20
-127.344
11
98.1925
21
-127.295
0
LINE
8
Black
10
98.1925
20
-127.295
11
98.4713
21
-127.344
0
LINE
8
Black
10
153.804
20
-128.794
11
152.804
21
-128.794
0
LINE
8
Black
10
152.804
20
-128.794
11
152.804
21
-127.894
0
LINE
8
Black
10
152.804
20
-127.894
11
153.804
21
-127.894
0
LINE
8
Black
10
153.804
20
-127.894
11
153.804
21
-128.794
0
LINE
8
Black
10
91.8668
20
-128.719
11
91.3668
21
-128.719
0
LINE
8
Black
10
91.3668
20
-128.719
11
91.3668
21
-128.019
0
LINE
8
Black
10
91.3668
20
-128.019
11
91.8668
21
-128.019
0
LINE
8
Black
10
91.8668
20
-128.019
11
91.8668
21
-128.719
0
LINE
8
Black
10
90.9668
20
-128.719
11
90.4668
21
-128.719
0
LINE
8
Black
10
90.4668
20
-128.719
11
90.4668
21
-128.019
0
LINE
8
Black
10
90.4668
20
-128.019
11
90.9668
21
-128.019
0
LINE
8
Black
10
90.9668
20
-128.019
11
90.9668
21
-128.719
0
LINE
8
Black
10
89.56
20
-128.581
11
88.11
21
-128.581
0
LINE
8
Black
10
88.11
20
-128.581
11
88.11
21
-128.081
0
LINE
8
Black
10
88.11
20
-128.081
11
89.56
21
-128.081
0
LINE
8
Black
10
89.56
20
-128.081
11
89.56
21
-128.581
0
LINE
8
Black
10
149.947
20
-128.56
11
148.647
21
-128.56
0
LINE
8
Black
10
148.647
20
-128.56
11
148.647
21
-127.56
0
LINE
8
Black
10
148.647
20
-127.56
11
149.947
21
-127.56
0
LINE
8
Black
10
149.947
20
-127.56
11
149.947
21
-128.56
0
LINE
8
Black
10
159.038
20
-126.62
11
159.283
21
-126.762
0
LINE
8
Black
10
159.283
20
-126.762
11
159.465
21
-126.978
0
LINE
8
Black
10
159.465
20
-126.978
11
159.562
21
-127.244
0
LINE
8
Black
10
159.562
20
-127.244
11
159.562
21
-127.528
0
LINE
8
Black
10
159.562
20
-127.528
11
159.465
21
-127.794
0
LINE
8
Black
10
159.465
20
-127.794
11
159.283
21
-128.01
0
LINE
8
Black
10
159.283
20
-128.01
11
159.038
21
-128.152
0
LINE
8
Black
10
159.038
20
-128.152
11
158.759
21
-128.201
0
LINE
8
Black
10
158.759
20
-128.201
11
158.48
21
-128.152
0
LINE
8
Black
10
158.48
20
-128.152
11
158.235
21
-128.01
0
LINE
8
Black
10
158.235
20
-128.01
11
158.053
21
-127.794
0
LINE
8
Black
10
158.053
20
-127.794
11
157.956
21
-127.528
0
LINE
8
Black
10
157.956
20
-127.528
11
157.956
21
-127.244
0
LINE
8
Black
10
157.956
20
-127.244
11
158.053
21
-126.978
0
LINE
8
Black
10
158.053
20
-126.978
11
158.235
21
-126.762
0
LINE
8
Black
10
158.235
20
-126.762
11
158.48
21
-126.62
0
LINE
8
Black
10
158.48
20
-126.62
11
158.759
21
-126.571
0
LINE
8
Black
10
158.759
20
-126.571
11
159.038
21
-126.62
0
LINE
8
Black
10
89.56
20
-127.931
11
88.11
21
-127.931
0
LINE
8
Black
10
88.11
20
-127.931
11
88.11
21
-127.431
0
LINE
8
Black
10
88.11
20
-127.431
11
89.56
21
-127.431
0
LINE
8
Black
10
89.56
20
-127.431
11
89.56
21
-127.931
0
LINE
8
Black
10
90.9901
20
-127.317
11
90.4401
21
-127.317
0
LINE
8
Black
10
90.4401
20
-127.317
11
90.4401
21
-126.817
0
LINE
8
Black
10
90.4401
20
-126.817
11
90.9901
21
-126.817
0
LINE
8
Black
10
90.9901
20
-126.817
11
90.9901
21
-127.317
0
LINE
8
Black
10
89.56
20
-127.281
11
88.11
21
-127.281
0
LINE
8
Black
10
88.11
20
-127.281
11
88.11
21
-126.781
0
LINE
8
Black
10
88.11
20
-126.781
11
89.56
21
-126.781
0
LINE
8
Black
10
89.56
20
-126.781
11
89.56
21
-127.281
0
LINE
8
Black
10
152.72
20
-127.266
11
152.22
21
-127.266
0
LINE
8
Black
10
152.22
20
-127.266
11
152.22
21
-126.566
0
LINE
8
Black
10
152.22
20
-126.566
11
152.72
21
-126.566
0
LINE
8
Black
10
152.72
20
-126.566
11
152.72
21
-127.266
0
LINE
8
Black
10
151.82
20
-127.266
11
151.32
21
-127.266
0
LINE
8
Black
10
151.32
20
-127.266
11
151.32
21
-126.566
0
LINE
8
Black
10
151.32
20
-126.566
11
151.82
21
-126.566
0
LINE
8
Black
10
151.82
20
-126.566
11
151.82
21
-127.266
0
LINE
8
Black
10
91.9951
20
-126.917
11
91.4451
21
-126.917
0
LINE
8
Black
10
91.4451
20
-126.917
11
91.4451
21
-126.417
0
LINE
8
Black
10
91.4451
20
-126.417
11
91.9951
21
-126.417
0
LINE
8
Black
10
91.9951
20
-126.417
11
91.9951
21
-126.917
0
LINE
8
Black
10
89.56
20
-126.631
11
88.11
21
-126.631
0
LINE
8
Black
10
88.11
20
-126.631
11
88.11
21
-126.131
0
LINE
8
Black
10
88.11
20
-126.131
11
89.56
21
-126.131
0
LINE
8
Black
10
89.56
20
-126.131
11
89.56
21
-126.631
0
LINE
8
Black
10
90.9901
20
-126.517
11
90.4401
21
-126.517
0
LINE
8
Black
10
90.4401
20
-126.517
11
90.4401
21
-126.017
0
LINE
8
Black
10
90.4401
20
-126.017
11
90.9901
21
-126.017
0
LINE
8
Black
10
90.9901
20
-126.017
11
90.9901
21
-126.517
0
LINE
8
Black
10
89.56
20
-125.981
11
88.11
21
-125.981
0
LINE
8
Black
10
88.11
20
-125.981
11
88.11
21
-125.481
0
LINE
8
Black
10
88.11
20
-125.481
11
89.56
21
-125.481
0
LINE
8
Black
10
89.56
20
-125.481
11
89.56
21
-125.981
0
LINE
8
Black
10
111.424
20
-125.961
11
110.124
21
-125.961
0
LINE
8
Black
10
110.124
20
-125.961
11
110.124
21
-124.061
0
LINE
8
Black
10
110.124
20
-124.061
11
111.424
21
-124.061
0
LINE
8
Black
10
111.424
20
-124.061
11
111.424
21
-125.961
0
LINE
8
Black
10
115.024
20
-125.961
11
113.724
21
-125.961
0
LINE
8
Black
10
113.724
20
-125.961
11
113.724
21
-124.061
0
LINE
8
Black
10
113.724
20
-124.061
11
115.024
21
-124.061
0
LINE
8
Black
10
115.024
20
-124.061
11
115.024
21
-125.961
0
LINE
8
Black
10
145.025
20
-125.621
11
143.725
21
-125.621
0
LINE
8
Black
10
143.725
20
-125.621
11
143.725
21
-123.721
0
LINE
8
Black
10
143.725
20
-123.721
11
145.025
21
-123.721
0
LINE
8
Black
10
145.025
20
-123.721
11
145.025
21
-125.621
0
LINE
8
Black
10
141.425
20
-125.621
11
140.125
21
-125.621
0
LINE
8
Black
10
140.125
20
-125.621
11
140.125
21
-123.721
0
LINE
8
Black
10
140.125
20
-123.721
11
141.425
21
-123.721
0
LINE
8
Black
10
141.425
20
-123.721
11
141.425
21
-125.621
0
LINE
8
Black
10
148.419
20
-125.369
11
146.619
21
-125.369
0
LINE
8
Black
10
146.619
20
-125.369
11
146.619
21
-123.269
0
LINE
8
Black
10
146.619
20
-123.269
11
148.419
21
-123.269
0
LINE
8
Black
10
148.419
20
-123.269
11
148.419
21
-125.369
0
LINE
8
Black
10
91.4058
20
-125.265
11
90.9058
21
-125.265
0
LINE
8
Black
10
90.9058
20
-125.265
11
90.9058
21
-124.565
0
LINE
8
Black
10
90.9058
20
-124.565
11
91.4058
21
-124.565
0
LINE
8
Black
10
91.4058
20
-124.565
11
91.4058
21
-125.265
0
LINE
8
Black
10
92.3058
20
-125.265
11
91.8058
21
-125.265
0
LINE
8
Black
10
91.8058
20
-125.265
11
91.8058
21
-124.565
0
LINE
8
Black
10
91.8058
20
-124.565
11
92.3058
21
-124.565
0
LINE
8
Black
10
92.3058
20
-124.565
11
92.3058
21
-125.265
0
LINE
8
Black
10
89.0975
20
-123.923
11
89.2372
21
-124.041
0
LINE
8
Black
10
89.2372
20
-124.041
11
89.3284
21
-124.199
0
LINE
8
Black
10
89.3284
20
-124.199
11
89.36
21
-124.378
0
LINE
8
Black
10
89.36
20
-124.378
11
89.36
21
-124.683
0
LINE
8
Black
10
89.36
20
-124.683
11
89.3284
21
-124.863
0
LINE
8
Black
10
89.3284
20
-124.863
11
89.2372
21
-125.021
0
LINE
8
Black
10
89.2372
20
-125.021
11
89.0975
21
-125.138
0
LINE
8
Black
10
89.0975
20
-125.138
11
88.9262
21
-125.2
0
LINE
8
Black
10
88.9262
20
-125.2
11
88.7438
21
-125.2
0
LINE
8
Black
10
88.7438
20
-125.2
11
88.5725
21
-125.138
0
LINE
8
Black
10
88.5725
20
-125.138
11
88.4328
21
-125.021
0
LINE
8
Black
10
88.4328
20
-125.021
11
88.3417
21
-124.863
0
LINE
8
Black
10
88.3417
20
-124.863
11
88.31
21
-124.683
0
LINE
8
Black
10
88.31
20
-124.683
11
88.31
21
-124.378
0
LINE
8
Black
10
88.31
20
-124.378
11
88.3417
21
-124.199
0
LINE
8
Black
10
88.3417
20
-124.199
11
88.4328
21
-124.041
0
LINE
8
Black
10
88.4328
20
-124.041
11
88.5725
21
-123.923
0
LINE
8
Black
10
88.5725
20
-123.923
11
88.7438
21
-123.861
0
LINE
8
Black
10
88.7438
20
-123.861
11
88.9262
21
-123.861
0
LINE
8
Black
10
88.9262
20
-123.861
11
89.0975
21
-123.923
0
LINE
8
Black
10
136.863
20
-125.001
11
134.763
21
-125.001
0
LINE
8
Black
10
134.763
20
-125.001
11
134.763
21
-121.901
0
LINE
8
Black
10
134.763
20
-121.901
11
136.863
21
-121.901
0
LINE
8
Black
10
136.863
20
-121.901
11
136.863
21
-125.001
0
LINE
8
Black
10
119.323
20
-125.001
11
117.223
21
-125.001
0
LINE
8
Black
10
117.223
20
-125.001
11
117.223
21
-121.901
0
LINE
8
Black
10
117.223
20
-121.901
11
119.323
21
-121.901
0
LINE
8
Black
10
119.323
20
-121.901
11
119.323
21
-125.001
0
LINE
8
Black
10
106.515
20
-124.658
11
105.515
21
-124.658
0
LINE
8
Black
10
105.515
20
-124.658
11
105.515
21
-123.358
0
LINE
8
Black
10
105.515
20
-123.358
11
106.515
21
-123.358
0
LINE
8
Black
10
106.515
20
-123.358
11
106.515
21
-124.658
0
LINE
8
Black
10
103.215
20
-124.658
11
102.215
21
-124.658
0
LINE
8
Black
10
102.215
20
-124.658
11
102.215
21
-123.358
0
LINE
8
Black
10
102.215
20
-123.358
11
103.215
21
-123.358
0
LINE
8
Black
10
103.215
20
-123.358
11
103.215
21
-124.658
0
LINE
8
Black
10
86.6013
20
-123.014
11
86.7667
21
-123.109
0
LINE
8
Black
10
86.7667
20
-123.109
11
86.8895
21
-123.256
0
LINE
8
Black
10
86.8895
20
-123.256
11
86.9548
21
-123.435
0
LINE
8
Black
10
86.9548
20
-123.435
11
86.9548
21
-123.626
0
LINE
8
Black
10
86.9548
20
-123.626
11
86.8895
21
-123.806
0
LINE
8
Black
10
86.8895
20
-123.806
11
86.7667
21
-123.952
0
LINE
8
Black
10
86.7667
20
-123.952
11
86.6013
21
-124.047
0
LINE
8
Black
10
86.6013
20
-124.047
11
86.4132
21
-124.081
0
LINE
8
Black
10
86.4132
20
-124.081
11
85.8569
21
-124.081
0
LINE
8
Black
10
85.8569
20
-124.081
11
85.6688
21
-124.047
0
LINE
8
Black
10
85.6688
20
-124.047
11
85.5033
21
-123.952
0
LINE
8
Black
10
85.5033
20
-123.952
11
85.3805
21
-123.806
0
LINE
8
Black
10
85.3805
20
-123.806
11
85.3152
21
-123.626
0
LINE
8
Black
10
85.3152
20
-123.626
11
85.3152
21
-123.435
0
LINE
8
Black
10
85.3152
20
-123.435
11
85.3805
21
-123.256
0
LINE
8
Black
10
85.3805
20
-123.256
11
85.5033
21
-123.109
0
LINE
8
Black
10
85.5033
20
-123.109
11
85.6688
21
-123.014
0
LINE
8
Black
10
85.6688
20
-123.014
11
85.8569
21
-122.981
0
LINE
8
Black
10
85.8569
20
-122.981
11
86.4132
21
-122.981
0
LINE
8
Black
10
86.4132
20
-122.981
11
86.6013
21
-123.014
0
LINE
8
Black
10
112.424
20
-123.316
11
111.724
21
-123.316
0
LINE
8
Black
10
111.724
20
-123.316
11
111.724
21
-121.666
0
LINE
8
Black
10
111.724
20
-121.666
11
112.424
21
-121.666
0
LINE
8
Black
10
112.424
20
-121.666
11
112.424
21
-123.316
0
LINE
8
Black
10
113.424
20
-123.316
11
112.724
21
-123.316
0
LINE
8
Black
10
112.724
20
-123.316
11
112.724
21
-121.666
0
LINE
8
Black
10
112.724
20
-121.666
11
113.424
21
-121.666
0
LINE
8
Black
10
113.424
20
-121.666
11
113.424
21
-123.316
0
LINE
8
Black
10
155.398
20
-121.558
11
155.643
21
-121.699
0
LINE
8
Black
10
155.643
20
-121.699
11
155.825
21
-121.916
0
LINE
8
Black
10
155.825
20
-121.916
11
155.922
21
-122.182
0
LINE
8
Black
10
155.922
20
-122.182
11
155.922
21
-122.465
0
LINE
8
Black
10
155.922
20
-122.465
11
155.825
21
-122.731
0
LINE
8
Black
10
155.825
20
-122.731
11
155.643
21
-122.948
0
LINE
8
Black
10
155.643
20
-122.948
11
155.398
21
-123.09
0
LINE
8
Black
10
155.398
20
-123.09
11
155.119
21
-123.139
0
LINE
8
Black
10
155.119
20
-123.139
11
154.84
21
-123.09
0
LINE
8
Black
10
154.84
20
-123.09
11
154.595
21
-122.948
0
LINE
8
Black
10
154.595
20
-122.948
11
154.413
21
-122.731
0
LINE
8
Black
10
154.413
20
-122.731
11
154.316
21
-122.465
0
LINE
8
Black
10
154.316
20
-122.465
11
154.316
21
-122.182
0
LINE
8
Black
10
154.316
20
-122.182
11
154.413
21
-121.916
0
LINE
8
Black
10
154.413
20
-121.916
11
154.595
21
-121.699
0
LINE
8
Black
10
154.595
20
-121.699
11
154.84
21
-121.558
0
LINE
8
Black
10
154.84
20
-121.558
11
155.119
21
-121.509
0
LINE
8
Black
10
155.119
20
-121.509
11
155.398
21
-121.558
0
LINE
8
Black
10
92.0192
20
-123.029
11
91.5192
21
-123.029
0
LINE
8
Black
10
91.5192
20
-123.029
11
91.5192
21
-122.329
0
LINE
8
Black
10
91.5192
20
-122.329
11
92.0192
21
-122.329
0
LINE
8
Black
10
92.0192
20
-122.329
11
92.0192
21
-123.029
0
LINE
8
Black
10
91.1192
20
-123.029
11
90.6192
21
-123.029
0
LINE
8
Black
10
90.6192
20
-123.029
11
90.6192
21
-122.329
0
LINE
8
Black
10
90.6192
20
-122.329
11
91.1192
21
-122.329
0
LINE
8
Black
10
91.1192
20
-122.329
11
91.1192
21
-123.029
0
LINE
8
Black
10
143.425
20
-122.976
11
142.725
21
-122.976
0
LINE
8
Black
10
142.725
20
-122.976
11
142.725
21
-121.326
0
LINE
8
Black
10
142.725
20
-121.326
11
143.425
21
-121.326
0
LINE
8
Black
10
143.425
20
-121.326
11
143.425
21
-122.976
0
LINE
8
Black
10
142.425
20
-122.976
11
141.725
21
-122.976
0
LINE
8
Black
10
141.725
20
-122.976
11
141.725
21
-121.326
0
LINE
8
Black
10
141.725
20
-121.326
11
142.425
21
-121.326
0
LINE
8
Black
10
142.425
20
-121.326
11
142.425
21
-122.976
0
LINE
8
Black
10
101.655
20
-122.342
11
101.055
21
-122.342
0
LINE
8
Black
10
101.055
20
-122.342
11
101.055
21
-121.642
0
LINE
8
Black
10
101.055
20
-121.642
11
101.655
21
-121.642
0
LINE
8
Black
10
101.655
20
-121.642
11
101.655
21
-122.342
0
LINE
8
Black
10
106.659
20
-122.165
11
106.059
21
-122.165
0
LINE
8
Black
10
106.059
20
-122.165
11
106.059
21
-121.465
0
LINE
8
Black
10
106.059
20
-121.465
11
106.659
21
-121.465
0
LINE
8
Black
10
106.659
20
-121.465
11
106.659
21
-122.165
0
LINE
8
Black
10
103.281
20
-122.148
11
102.121
21
-122.148
0
LINE
8
Black
10
102.121
20
-122.148
11
102.121
21
-121.398
0
LINE
8
Black
10
102.121
20
-121.398
11
103.281
21
-121.398
0
LINE
8
Black
10
103.281
20
-121.398
11
103.281
21
-122.148
0
LINE
8
Black
10
105.481
20
-122.148
11
104.321
21
-122.148
0
LINE
8
Black
10
104.321
20
-122.148
11
104.321
21
-121.398
0
LINE
8
Black
10
104.321
20
-121.398
11
105.481
21
-121.398
0
LINE
8
Black
10
105.481
20
-121.398
11
105.481
21
-122.148
0
LINE
8
Black
10
134.493
20
-121.901
11
134.093
21
-121.901
0
LINE
8
Black
10
134.093
20
-121.901
11
134.093
21
-120.551
0
LINE
8
Black
10
134.093
20
-120.551
11
134.493
21
-120.551
0
LINE
8
Black
10
134.493
20
-120.551
11
134.493
21
-121.901
0
LINE
8
Black
10
132.993
20
-121.901
11
132.593
21
-121.901
0
LINE
8
Black
10
132.593
20
-121.901
11
132.593
21
-120.551
0
LINE
8
Black
10
132.593
20
-120.551
11
132.993
21
-120.551
0
LINE
8
Black
10
132.993
20
-120.551
11
132.993
21
-121.901
0
LINE
8
Black
10
133.493
20
-121.901
11
133.093
21
-121.901
0
LINE
8
Black
10
133.093
20
-121.901
11
133.093
21
-120.551
0
LINE
8
Black
10
133.093
20
-120.551
11
133.493
21
-120.551
0
LINE
8
Black
10
133.493
20
-120.551
11
133.493
21
-121.901
0
LINE
8
Black
10
132.493
20
-121.901
11
132.093
21
-121.901
0
LINE
8
Black
10
132.093
20
-121.901
11
132.093
21
-120.551
0
LINE
8
Black
10
132.093
20
-120.551
11
132.493
21
-120.551
0
LINE
8
Black
10
132.493
20
-120.551
11
132.493
21
-121.901
0
LINE
8
Black
10
131.993
20
-121.901
11
131.593
21
-121.901
0
LINE
8
Black
10
131.593
20
-121.901
11
131.593
21
-120.551
0
LINE
8
Black
10
131.593
20
-120.551
11
131.993
21
-120.551
0
LINE
8
Black
10
131.993
20
-120.551
11
131.993
21
-121.901
0
LINE
8
Black
10
131.493
20
-121.901
11
131.093
21
-121.901
0
LINE
8
Black
10
131.093
20
-121.901
11
131.093
21
-120.551
0
LINE
8
Black
10
131.093
20
-120.551
11
131.493
21
-120.551
0
LINE
8
Black
10
131.493
20
-120.551
11
131.493
21
-121.901
0
LINE
8
Black
10
130.993
20
-121.901
11
130.593
21
-121.901
0
LINE
8
Black
10
130.593
20
-121.901
11
130.593
21
-120.551
0
LINE
8
Black
10
130.593
20
-120.551
11
130.993
21
-120.551
0
LINE
8
Black
10
130.993
20
-120.551
11
130.993
21
-121.901
0
LINE
8
Black
10
130.493
20
-121.901
11
130.093
21
-121.901
0
LINE
8
Black
10
130.093
20
-121.901
11
130.093
21
-120.551
0
LINE
8
Black
10
130.093
20
-120.551
11
130.493
21
-120.551
0
LINE
8
Black
10
130.493
20
-120.551
11
130.493
21
-121.901
0
LINE
8
Black
10
133.993
20
-121.901
11
133.593
21
-121.901
0
LINE
8
Black
10
133.593
20
-121.901
11
133.593
21
-120.551
0
LINE
8
Black
10
133.593
20
-120.551
11
133.993
21
-120.551
0
LINE
8
Black
10
133.993
20
-120.551
11
133.993
21
-121.901
0
LINE
8
Black
10
123.493
20
-121.901
11
123.093
21
-121.901
0
LINE
8
Black
10
123.093
20
-121.901
11
123.093
21
-120.551
0
LINE
8
Black
10
123.093
20
-120.551
11
123.493
21
-120.551
0
LINE
8
Black
10
123.493
20
-120.551
11
123.493
21
-121.901
0
LINE
8
Black
10
124.993
20
-121.901
11
124.593
21
-121.901
0
LINE
8
Black
10
124.593
20
-121.901
11
124.593
21
-120.551
0
LINE
8
Black
10
124.593
20
-120.551
11
124.993
21
-120.551
0
LINE
8
Black
10
124.993
20
-120.551
11
124.993
21
-121.901
0
LINE
8
Black
10
124.493
20
-121.901
11
124.093
21
-121.901
0
LINE
8
Black
10
124.093
20
-121.901
11
124.093
21
-120.551
0
LINE
8
Black
10
124.093
20
-120.551
11
124.493
21
-120.551
0
LINE
8
Black
10
124.493
20
-120.551
11
124.493
21
-121.901
0
LINE
8
Black
10
125.493
20
-121.901
11
125.093
21
-121.901
0
LINE
8
Black
10
125.093
20
-121.901
11
125.093
21
-120.551
0
LINE
8
Black
10
125.093
20
-120.551
11
125.493
21
-120.551
0
LINE
8
Black
10
125.493
20
-120.551
11
125.493
21
-121.901
0
LINE
8
Black
10
125.993
20
-121.901
11
125.593
21
-121.901
0
LINE
8
Black
10
125.593
20
-121.901
11
125.593
21
-120.551
0
LINE
8
Black
10
125.593
20
-120.551
11
125.993
21
-120.551
0
LINE
8
Black
10
125.993
20
-120.551
11
125.993
21
-121.901
0
LINE
8
Black
10
126.493
20
-121.901
11
126.093
21
-121.901
0
LINE
8
Black
10
126.093
20
-121.901
11
126.093
21
-120.551
0
LINE
8
Black
10
126.093
20
-120.551
11
126.493
21
-120.551
0
LINE
8
Black
10
126.493
20
-120.551
11
126.493
21
-121.901
0
LINE
8
Black
10
126.993
20
-121.901
11
126.593
21
-121.901
0
LINE
8
Black
10
126.593
20
-121.901
11
126.593
21
-120.551
0
LINE
8
Black
10
126.593
20
-120.551
11
126.993
21
-120.551
0
LINE
8
Black
10
126.993
20
-120.551
11
126.993
21
-121.901
0
LINE
8
Black
10
120.993
20
-121.901
11
120.593
21
-121.901
0
LINE
8
Black
10
120.593
20
-121.901
11
120.593
21
-120.551
0
LINE
8
Black
10
120.593
20
-120.551
11
120.993
21
-120.551
0
LINE
8
Black
10
120.993
20
-120.551
11
120.993
21
-121.901
0
LINE
8
Black
10
121.493
20
-121.901
11
121.093
21
-121.901
0
LINE
8
Black
10
121.093
20
-121.901
11
121.093
21
-120.551
0
LINE
8
Black
10
121.093
20
-120.551
11
121.493
21
-120.551
0
LINE
8
Black
10
121.493
20
-120.551
11
121.493
21
-121.901
0
LINE
8
Black
10
120.493
20
-121.901
11
120.093
21
-121.901
0
LINE
8
Black
10
120.093
20
-121.901
11
120.093
21
-120.551
0
LINE
8
Black
10
120.093
20
-120.551
11
120.493
21
-120.551
0
LINE
8
Black
10
120.493
20
-120.551
11
120.493
21
-121.901
0
LINE
8
Black
10
121.993
20
-121.901
11
121.593
21
-121.901
0
LINE
8
Black
10
121.593
20
-121.901
11
121.593
21
-120.551
0
LINE
8
Black
10
121.593
20
-120.551
11
121.993
21
-120.551
0
LINE
8
Black
10
121.993
20
-120.551
11
121.993
21
-121.901
0
LINE
8
Black
10
123.993
20
-121.901
11
123.593
21
-121.901
0
LINE
8
Black
10
123.593
20
-121.901
11
123.593
21
-120.551
0
LINE
8
Black
10
123.593
20
-120.551
11
123.993
21
-120.551
0
LINE
8
Black
10
123.993
20
-120.551
11
123.993
21
-121.901
0
LINE
8
Black
10
122.493
20
-121.901
11
122.093
21
-121.901
0
LINE
8
Black
10
122.093
20
-121.901
11
122.093
21
-120.551
0
LINE
8
Black
10
122.093
20
-120.551
11
122.493
21
-120.551
0
LINE
8
Black
10
122.493
20
-120.551
11
122.493
21
-121.901
0
LINE
8
Black
10
119.993
20
-121.901
11
119.593
21
-121.901
0
LINE
8
Black
10
119.593
20
-121.901
11
119.593
21
-120.551
0
LINE
8
Black
10
119.593
20
-120.551
11
119.993
21
-120.551
0
LINE
8
Black
10
119.993
20
-120.551
11
119.993
21
-121.901
0
LINE
8
Black
10
127.493
20
-121.901
11
127.093
21
-121.901
0
LINE
8
Black
10
127.093
20
-121.901
11
127.093
21
-120.551
0
LINE
8
Black
10
127.093
20
-120.551
11
127.493
21
-120.551
0
LINE
8
Black
10
127.493
20
-120.551
11
127.493
21
-121.901
0
LINE
8
Black
10
127.993
20
-121.901
11
127.593
21
-121.901
0
LINE
8
Black
10
127.593
20
-121.901
11
127.593
21
-120.551
0
LINE
8
Black
10
127.593
20
-120.551
11
127.993
21
-120.551
0
LINE
8
Black
10
127.993
20
-120.551
11
127.993
21
-121.901
0
LINE
8
Black
10
128.493
20
-121.901
11
128.093
21
-121.901
0
LINE
8
Black
10
128.093
20
-121.901
11
128.093
21
-120.551
0
LINE
8
Black
10
128.093
20
-120.551
11
128.493
21
-120.551
0
LINE
8
Black
10
128.493
20
-120.551
11
128.493
21
-121.901
0
LINE
8
Black
10
128.993
20
-121.901
11
128.593
21
-121.901
0
LINE
8
Black
10
128.593
20
-121.901
11
128.593
21
-120.551
0
LINE
8
Black
10
128.593
20
-120.551
11
128.993
21
-120.551
0
LINE
8
Black
10
128.993
20
-120.551
11
128.993
21
-121.901
0
LINE
8
Black
10
129.993
20
-121.901
11
129.593
21
-121.901
0
LINE
8
Black
10
129.593
20
-121.901
11
129.593
21
-120.551
0
LINE
8
Black
10
129.593
20
-120.551
11
129.993
21
-120.551
0
LINE
8
Black
10
129.993
20
-120.551
11
129.993
21
-121.901
0
LINE
8
Black
10
122.993
20
-121.901
11
122.593
21
-121.901
0
LINE
8
Black
10
122.593
20
-121.901
11
122.593
21
-120.551
0
LINE
8
Black
10
122.593
20
-120.551
11
122.993
21
-120.551
0
LINE
8
Black
10
122.993
20
-120.551
11
122.993
21
-121.901
0
LINE
8
Black
10
129.493
20
-121.901
11
129.093
21
-121.901
0
LINE
8
Black
10
129.093
20
-121.901
11
129.093
21
-120.551
0
LINE
8
Black
10
129.093
20
-120.551
11
129.493
21
-120.551
0
LINE
8
Black
10
129.493
20
-120.551
11
129.493
21
-121.901
0
LINE
8
Black
10
88.368
20
-121.37
11
87.768
21
-121.37
0
LINE
8
Black
10
87.768
20
-121.37
11
87.768
21
-120.67
0
LINE
8
Black
10
87.768
20
-120.67
11
88.368
21
-120.67
0
LINE
8
Black
10
88.368
20
-120.67
11
88.368
21
-121.37
0
LINE
8
Black
10
148.419
20
-121.369
11
146.619
21
-121.369
0
LINE
8
Black
10
146.619
20
-121.369
11
146.619
21
-119.269
0
LINE
8
Black
10
146.619
20
-119.269
11
148.419
21
-119.269
0
LINE
8
Black
10
148.419
20
-119.269
11
148.419
21
-121.369
0
LINE
8
Black
10
101.655
20
-121.242
11
101.055
21
-121.242
0
LINE
8
Black
10
101.055
20
-121.242
11
101.055
21
-120.542
0
LINE
8
Black
10
101.055
20
-120.542
11
101.655
21
-120.542
0
LINE
8
Black
10
101.655
20
-120.542
11
101.655
21
-121.242
0
LINE
8
Black
10
103.281
20
-121.198
11
102.121
21
-121.198
0
LINE
8
Black
10
102.121
20
-121.198
11
102.121
21
-120.448
0
LINE
8
Black
10
102.121
20
-120.448
11
103.281
21
-120.448
0
LINE
8
Black
10
103.281
20
-120.448
11
103.281
21
-121.198
0
LINE
8
Black
10
90.2468
20
-121.093
11
89.5468
21
-121.093
0
LINE
8
Black
10
89.5468
20
-121.093
11
89.5468
21
-120.593
0
LINE
8
Black
10
89.5468
20
-120.593
11
90.2468
21
-120.593
0
LINE
8
Black
10
90.2468
20
-120.593
11
90.2468
21
-121.093
0
LINE
8
Black
10
106.659
20
-121.065
11
106.059
21
-121.065
0
LINE
8
Black
10
106.059
20
-121.065
11
106.059
21
-120.365
0
LINE
8
Black
10
106.059
20
-120.365
11
106.659
21
-120.365
0
LINE
8
Black
10
106.659
20
-120.365
11
106.659
21
-121.065
0
LINE
8
Black
10
117.631
20
-120.847
11
116.931
21
-120.847
0
LINE
8
Black
10
116.931
20
-120.847
11
116.931
21
-120.347
0
LINE
8
Black
10
116.931
20
-120.347
11
117.631
21
-120.347
0
LINE
8
Black
10
117.631
20
-120.347
11
117.631
21
-120.847
0
LINE
8
Black
10
153.335
20
-120.763
11
152.635
21
-120.763
0
LINE
8
Black
10
152.635
20
-120.763
11
152.635
21
-120.163
0
LINE
8
Black
10
152.635
20
-120.163
11
153.335
21
-120.163
0
LINE
8
Black
10
153.335
20
-120.163
11
153.335
21
-120.763
0
LINE
8
Black
10
154.435
20
-120.763
11
153.735
21
-120.763
0
LINE
8
Black
10
153.735
20
-120.763
11
153.735
21
-120.163
0
LINE
8
Black
10
153.735
20
-120.163
11
154.435
21
-120.163
0
LINE
8
Black
10
154.435
20
-120.163
11
154.435
21
-120.763
0
LINE
8
Black
10
113.776
20
-120.545
11
112.616
21
-120.545
0
LINE
8
Black
10
112.616
20
-120.545
11
112.616
21
-119.795
0
LINE
8
Black
10
112.616
20
-119.795
11
113.776
21
-119.795
0
LINE
8
Black
10
113.776
20
-119.795
11
113.776
21
-120.545
0
LINE
8
Black
10
115.976
20
-120.545
11
114.816
21
-120.545
0
LINE
8
Black
10
114.816
20
-120.545
11
114.816
21
-119.795
0
LINE
8
Black
10
114.816
20
-119.795
11
115.976
21
-119.795
0
LINE
8
Black
10
115.976
20
-119.795
11
115.976
21
-120.545
0
LINE
8
Black
10
112.111
20
-120.495
11
111.211
21
-120.495
0
LINE
8
Black
10
111.211
20
-120.495
11
111.211
21
-119.845
0
LINE
8
Black
10
111.211
20
-119.845
11
112.111
21
-119.845
0
LINE
8
Black
10
112.111
20
-119.845
11
112.111
21
-120.495
0
LINE
8
Black
10
109.711
20
-120.495
11
108.811
21
-120.495
0
LINE
8
Black
10
108.811
20
-120.495
11
108.811
21
-119.845
0
LINE
8
Black
10
108.811
20
-119.845
11
109.711
21
-119.845
0
LINE
8
Black
10
109.711
20
-119.845
11
109.711
21
-120.495
0
LINE
8
Black
10
88.368
20
-120.27
11
87.768
21
-120.27
0
LINE
8
Black
10
87.768
20
-120.27
11
87.768
21
-119.57
0
LINE
8
Black
10
87.768
20
-119.57
11
88.368
21
-119.57
0
LINE
8
Black
10
88.368
20
-119.57
11
88.368
21
-120.27
0
LINE
8
Black
10
105.481
20
-120.248
11
104.321
21
-120.248
0
LINE
8
Black
10
104.321
20
-120.248
11
104.321
21
-119.498
0
LINE
8
Black
10
104.321
20
-119.498
11
105.481
21
-119.498
0
LINE
8
Black
10
105.481
20
-119.498
11
105.481
21
-120.248
0
LINE
8
Black
10
103.281
20
-120.248
11
102.121
21
-120.248
0
LINE
8
Black
10
102.121
20
-120.248
11
102.121
21
-119.498
0
LINE
8
Black
10
102.121
20
-119.498
11
103.281
21
-119.498
0
LINE
8
Black
10
103.281
20
-119.498
11
103.281
21
-120.248
0
LINE
8
Black
10
90.2468
20
-120.193
11
89.5468
21
-120.193
0
LINE
8
Black
10
89.5468
20
-120.193
11
89.5468
21
-119.693
0
LINE
8
Black
10
89.5468
20
-119.693
11
90.2468
21
-119.693
0
LINE
8
Black
10
90.2468
20
-119.693
11
90.2468
21
-120.193
0
LINE
8
Black
10
100.753
20
-120.158
11
100.153
21
-120.158
0
LINE
8
Black
10
100.153
20
-120.158
11
100.153
21
-119.458
0
LINE
8
Black
10
100.153
20
-119.458
11
100.753
21
-119.458
0
LINE
8
Black
10
100.753
20
-119.458
11
100.753
21
-120.158
0
LINE
8
Black
10
134.475
20
-120.155
11
133.775
21
-120.155
0
LINE
8
Black
10
133.775
20
-120.155
11
133.775
21
-119.555
0
LINE
8
Black
10
133.775
20
-119.555
11
134.475
21
-119.555
0
LINE
8
Black
10
134.475
20
-119.555
11
134.475
21
-120.155
0
LINE
8
Black
10
133.375
20
-120.155
11
132.675
21
-120.155
0
LINE
8
Black
10
132.675
20
-120.155
11
132.675
21
-119.555
0
LINE
8
Black
10
132.675
20
-119.555
11
133.375
21
-119.555
0
LINE
8
Black
10
133.375
20
-119.555
11
133.375
21
-120.155
0
LINE
8
Black
10
121.047
20
-120.047
11
120.347
21
-120.047
0
LINE
8
Black
10
120.347
20
-120.047
11
120.347
21
-119.547
0
LINE
8
Black
10
120.347
20
-119.547
11
121.047
21
-119.547
0
LINE
8
Black
10
121.047
20
-119.547
11
121.047
21
-120.047
0
LINE
8
Black
10
99.4696
20
-119.971
11
98.7696
21
-119.971
0
LINE
8
Black
10
98.7696
20
-119.971
11
98.7696
21
-119.471
0
LINE
8
Black
10
98.7696
20
-119.471
11
99.4696
21
-119.471
0
LINE
8
Black
10
99.4696
20
-119.471
11
99.4696
21
-119.971
0
LINE
8
Black
10
117.631
20
-119.947
11
116.931
21
-119.947
0
LINE
8
Black
10
116.931
20
-119.947
11
116.931
21
-119.447
0
LINE
8
Black
10
116.931
20
-119.447
11
117.631
21
-119.447
0
LINE
8
Black
10
117.631
20
-119.447
11
117.631
21
-119.947
0
LINE
8
Black
10
130.09
20
-119.917
11
129.49
21
-119.917
0
LINE
8
Black
10
129.49
20
-119.917
11
129.49
21
-119.217
0
LINE
8
Black
10
129.49
20
-119.217
11
130.09
21
-119.217
0
LINE
8
Black
10
130.09
20
-119.217
11
130.09
21
-119.917
0
LINE
8
Black
10
127.55
20
-119.713
11
126.95
21
-119.713
0
LINE
8
Black
10
126.95
20
-119.713
11
126.95
21
-119.013
0
LINE
8
Black
10
126.95
20
-119.013
11
127.55
21
-119.013
0
LINE
8
Black
10
127.55
20
-119.013
11
127.55
21
-119.713
0
LINE
8
Black
10
125.391
20
-119.688
11
124.791
21
-119.688
0
LINE
8
Black
10
124.791
20
-119.688
11
124.791
21
-118.988
0
LINE
8
Black
10
124.791
20
-118.988
11
125.391
21
-118.988
0
LINE
8
Black
10
125.391
20
-118.988
11
125.391
21
-119.688
0
LINE
8
Black
10
128.566
20
-119.688
11
127.966
21
-119.688
0
LINE
8
Black
10
127.966
20
-119.688
11
127.966
21
-118.988
0
LINE
8
Black
10
127.966
20
-118.988
11
128.566
21
-118.988
0
LINE
8
Black
10
128.566
20
-118.988
11
128.566
21
-119.688
0
LINE
8
Black
10
154.451
20
-119.654
11
153.751
21
-119.654
0
LINE
8
Black
10
153.751
20
-119.654
11
153.751
21
-119.054
0
LINE
8
Black
10
153.751
20
-119.054
11
154.451
21
-119.054
0
LINE
8
Black
10
154.451
20
-119.054
11
154.451
21
-119.654
0
LINE
8
Black
10
153.351
20
-119.654
11
152.651
21
-119.654
0
LINE
8
Black
10
152.651
20
-119.654
11
152.651
21
-119.054
0
LINE
8
Black
10
152.651
20
-119.054
11
153.351
21
-119.054
0
LINE
8
Black
10
153.351
20
-119.054
11
153.351
21
-119.654
0
LINE
8
Black
10
115.976
20
-119.595
11
114.816
21
-119.595
0
LINE
8
Black
10
114.816
20
-119.595
11
114.816
21
-118.845
0
LINE
8
Black
10
114.816
20
-118.845
11
115.976
21
-118.845
0
LINE
8
Black
10
115.976
20
-118.845
11
115.976
21
-119.595
0
LINE
8
Black
10
113.776
20
-119.595
11
112.616
21
-119.595
0
LINE
8
Black
10
112.616
20
-119.595
11
112.616
21
-118.845
0
LINE
8
Black
10
112.616
20
-118.845
11
113.776
21
-118.845
0
LINE
8
Black
10
113.776
20
-118.845
11
113.776
21
-119.595
0
LINE
8
Black
10
109.711
20
-119.545
11
108.811
21
-119.545
0
LINE
8
Black
10
108.811
20
-119.545
11
108.811
21
-118.895
0
LINE
8
Black
10
108.811
20
-118.895
11
109.711
21
-118.895
0
LINE
8
Black
10
109.711
20
-118.895
11
109.711
21
-119.545
0
LINE
8
Black
10
134.017
20
-119.215
11
133.317
21
-119.215
0
LINE
8
Black
10
133.317
20
-119.215
11
133.317
21
-118.615
0
LINE
8
Black
10
133.317
20
-118.615
11
134.017
21
-118.615
0
LINE
8
Black
10
134.017
20
-118.615
11
134.017
21
-119.215
0
LINE
8
Black
10
132.917
20
-119.215
11
132.217
21
-119.215
0
LINE
8
Black
10
132.217
20
-119.215
11
132.217
21
-118.615
0
LINE
8
Black
10
132.217
20
-118.615
11
132.917
21
-118.615
0
LINE
8
Black
10
132.917
20
-118.615
11
132.917
21
-119.215
0
LINE
8
Black
10
121.047
20
-119.147
11
120.347
21
-119.147
0
LINE
8
Black
10
120.347
20
-119.147
11
120.347
21
-118.647
0
LINE
8
Black
10
120.347
20
-118.647
11
121.047
21
-118.647
0
LINE
8
Black
10
121.047
20
-118.647
11
121.047
21
-119.147
0
LINE
8
Black
10
99.4696
20
-119.071
11
98.7696
21
-119.071
0
LINE
8
Black
10
98.7696
20
-119.071
11
98.7696
21
-118.571
0
LINE
8
Black
10
98.7696
20
-118.571
11
99.4696
21
-118.571
0
LINE
8
Black
10
99.4696
20
-118.571
11
99.4696
21
-119.071
0
LINE
8
Black
10
100.753
20
-119.058
11
100.153
21
-119.058
0
LINE
8
Black
10
100.153
20
-119.058
11
100.153
21
-118.358
0
LINE
8
Black
10
100.153
20
-118.358
11
100.753
21
-118.358
0
LINE
8
Black
10
100.753
20
-118.358
11
100.753
21
-119.058
0
LINE
8
Black
10
130.09
20
-118.817
11
129.49
21
-118.817
0
LINE
8
Black
10
129.49
20
-118.817
11
129.49
21
-118.117
0
LINE
8
Black
10
129.49
20
-118.117
11
130.09
21
-118.117
0
LINE
8
Black
10
130.09
20
-118.117
11
130.09
21
-118.817
0
LINE
8
Black
10
152.716
20
-118.739
11
152.016
21
-118.739
0
LINE
8
Black
10
152.016
20
-118.739
11
152.016
21
-118.139
0
LINE
8
Black
10
152.016
20
-118.139
11
152.716
21
-118.139
0
LINE
8
Black
10
152.716
20
-118.139
11
152.716
21
-118.739
0
LINE
8
Black
10
153.816
20
-118.739
11
153.116
21
-118.739
0
LINE
8
Black
10
153.116
20
-118.739
11
153.116
21
-118.139
0
LINE
8
Black
10
153.116
20
-118.139
11
153.816
21
-118.139
0
LINE
8
Black
10
153.816
20
-118.139
11
153.816
21
-118.739
0
LINE
8
Black
10
105.268
20
-118.694
11
104.768
21
-118.694
0
LINE
8
Black
10
104.768
20
-118.694
11
104.768
21
-117.994
0
LINE
8
Black
10
104.768
20
-117.994
11
105.268
21
-117.994
0
LINE
8
Black
10
105.268
20
-117.994
11
105.268
21
-118.694
0
LINE
8
Black
10
104.368
20
-118.694
11
103.868
21
-118.694
0
LINE
8
Black
10
103.868
20
-118.694
11
103.868
21
-117.994
0
LINE
8
Black
10
103.868
20
-117.994
11
104.368
21
-117.994
0
LINE
8
Black
10
104.368
20
-117.994
11
104.368
21
-118.694
0
LINE
8
Black
10
113.776
20
-118.645
11
112.616
21
-118.645
0
LINE
8
Black
10
112.616
20
-118.645
11
112.616
21
-117.895
0
LINE
8
Black
10
112.616
20
-117.895
11
113.776
21
-117.895
0
LINE
8
Black
10
113.776
20
-117.895
11
113.776
21
-118.645
0
LINE
8
Black
10
115.976
20
-118.645
11
114.816
21
-118.645
0
LINE
8
Black
10
114.816
20
-118.645
11
114.816
21
-117.895
0
LINE
8
Black
10
114.816
20
-117.895
11
115.976
21
-117.895
0
LINE
8
Black
10
115.976
20
-117.895
11
115.976
21
-118.645
0
LINE
8
Black
10
127.55
20
-118.613
11
126.95
21
-118.613
0
LINE
8
Black
10
126.95
20
-118.613
11
126.95
21
-117.913
0
LINE
8
Black
10
126.95
20
-117.913
11
127.55
21
-117.913
0
LINE
8
Black
10
127.55
20
-117.913
11
127.55
21
-118.613
0
LINE
8
Black
10
109.711
20
-118.595
11
108.811
21
-118.595
0
LINE
8
Black
10
108.811
20
-118.595
11
108.811
21
-117.945
0
LINE
8
Black
10
108.811
20
-117.945
11
109.711
21
-117.945
0
LINE
8
Black
10
109.711
20
-117.945
11
109.711
21
-118.595
0
LINE
8
Black
10
112.111
20
-118.595
11
111.211
21
-118.595
0
LINE
8
Black
10
111.211
20
-118.595
11
111.211
21
-117.945
0
LINE
8
Black
10
111.211
20
-117.945
11
112.111
21
-117.945
0
LINE
8
Black
10
112.111
20
-117.945
11
112.111
21
-118.595
0
LINE
8
Black
10
125.391
20
-118.588
11
124.791
21
-118.588
0
LINE
8
Black
10
124.791
20
-118.588
11
124.791
21
-117.888
0
LINE
8
Black
10
124.791
20
-117.888
11
125.391
21
-117.888
0
LINE
8
Black
10
125.391
20
-117.888
11
125.391
21
-118.588
0
LINE
8
Black
10
128.566
20
-118.588
11
127.966
21
-118.588
0
LINE
8
Black
10
127.966
20
-118.588
11
127.966
21
-117.888
0
LINE
8
Black
10
127.966
20
-117.888
11
128.566
21
-117.888
0
LINE
8
Black
10
128.566
20
-117.888
11
128.566
21
-118.588
0
LINE
8
Black
10
132.206
20
-118.25
11
131.506
21
-118.25
0
LINE
8
Black
10
131.506
20
-118.25
11
131.506
21
-117.65
0
LINE
8
Black
10
131.506
20
-117.65
11
132.206
21
-117.65
0
LINE
8
Black
10
132.206
20
-117.65
11
132.206
21
-118.25
0
LINE
8
Black
10
133.306
20
-118.25
11
132.606
21
-118.25
0
LINE
8
Black
10
132.606
20
-118.25
11
132.606
21
-117.65
0
LINE
8
Black
10
132.606
20
-117.65
11
133.306
21
-117.65
0
LINE
8
Black
10
133.306
20
-117.65
11
133.306
21
-118.25
0
LINE
8
Black
10
119.35
20
-116.625
11
119.595
21
-116.767
0
LINE
8
Black
10
119.595
20
-116.767
11
119.777
21
-116.984
0
LINE
8
Black
10
119.777
20
-116.984
11
119.874
21
-117.25
0
LINE
8
Black
10
119.874
20
-117.25
11
119.874
21
-117.533
0
LINE
8
Black
10
119.874
20
-117.533
11
119.777
21
-117.799
0
LINE
8
Black
10
119.777
20
-117.799
11
119.595
21
-118.015
0
LINE
8
Black
10
119.595
20
-118.015
11
119.35
21
-118.157
0
LINE
8
Black
10
119.35
20
-118.157
11
119.071
21
-118.206
0
LINE
8
Black
10
119.071
20
-118.206
11
118.793
21
-118.157
0
LINE
8
Black
10
118.793
20
-118.157
11
118.547
21
-118.015
0
LINE
8
Black
10
118.547
20
-118.015
11
118.365
21
-117.799
0
LINE
8
Black
10
118.365
20
-117.799
11
118.269
21
-117.533
0
LINE
8
Black
10
118.269
20
-117.533
11
118.269
21
-117.25
0
LINE
8
Black
10
118.269
20
-117.25
11
118.365
21
-116.984
0
LINE
8
Black
10
118.365
20
-116.984
11
118.547
21
-116.767
0
LINE
8
Black
10
118.547
20
-116.767
11
118.793
21
-116.625
0
LINE
8
Black
10
118.793
20
-116.625
11
119.071
21
-116.576
0
LINE
8
Black
10
119.071
20
-116.576
11
119.35
21
-116.625
0
LINE
8
Black
10
158.288
20
-116.498
11
158.533
21
-116.64
0
LINE
8
Black
10
158.533
20
-116.64
11
158.715
21
-116.857
0
LINE
8
Black
10
158.715
20
-116.857
11
158.812
21
-117.123
0
LINE
8
Black
10
158.812
20
-117.123
11
158.812
21
-117.406
0
LINE
8
Black
10
158.812
20
-117.406
11
158.715
21
-117.672
0
LINE
8
Black
10
158.715
20
-117.672
11
158.533
21
-117.888
0
LINE
8
Black
10
158.533
20
-117.888
11
158.288
21
-118.03
0
LINE
8
Black
10
158.288
20
-118.03
11
158.009
21
-118.079
0
LINE
8
Black
10
158.009
20
-118.079
11
157.731
21
-118.03
0
LINE
8
Black
10
157.731
20
-118.03
11
157.486
21
-117.888
0
LINE
8
Black
10
157.486
20
-117.888
11
157.304
21
-117.672
0
LINE
8
Black
10
157.304
20
-117.672
11
157.207
21
-117.406
0
LINE
8
Black
10
157.207
20
-117.406
11
157.207
21
-117.123
0
LINE
8
Black
10
157.207
20
-117.123
11
157.304
21
-116.857
0
LINE
8
Black
10
157.304
20
-116.857
11
157.486
21
-116.64
0
LINE
8
Black
10
157.486
20
-116.64
11
157.731
21
-116.498
0
LINE
8
Black
10
157.731
20
-116.498
11
158.009
21
-116.449
0
LINE
8
Black
10
158.009
20
-116.449
11
158.288
21
-116.498
0
LINE
8
Black
10
121.098
20
-117.964
11
120.398
21
-117.964
0
LINE
8
Black
10
120.398
20
-117.964
11
120.398
21
-117.464
0
LINE
8
Black
10
120.398
20
-117.464
11
121.098
21
-117.464
0
LINE
8
Black
10
121.098
20
-117.464
11
121.098
21
-117.964
0
LINE
8
Black
10
91.9084
20
-112.379
11
92.7671
21
-112.875
0
LINE
8
Black
10
92.7671
20
-112.875
11
93.4044
21
-113.635
0
LINE
8
Black
10
93.4044
20
-113.635
11
93.7435
21
-114.566
0
LINE
8
Black
10
93.7435
20
-114.566
11
93.7435
21
-115.558
0
LINE
8
Black
10
93.7435
20
-115.558
11
93.4044
21
-116.489
0
LINE
8
Black
10
93.4044
20
-116.489
11
92.7671
21
-117.249
0
LINE
8
Black
10
92.7671
20
-117.249
11
91.9084
21
-117.745
0
LINE
8
Black
10
91.9084
20
-117.745
11
90.932
21
-117.917
0
LINE
8
Black
10
90.932
20
-117.917
11
89.9556
21
-117.745
0
LINE
8
Black
10
89.9556
20
-117.745
11
89.0969
21
-117.249
0
LINE
8
Black
10
89.0969
20
-117.249
11
88.4596
21
-116.489
0
LINE
8
Black
10
88.4596
20
-116.489
11
88.1205
21
-115.558
0
LINE
8
Black
10
88.1205
20
-115.558
11
88.1205
21
-114.566
0
LINE
8
Black
10
88.1205
20
-114.566
11
88.4596
21
-113.635
0
LINE
8
Black
10
88.4596
20
-113.635
11
89.0969
21
-112.875
0
LINE
8
Black
10
89.0969
20
-112.875
11
89.9556
21
-112.379
0
LINE
8
Black
10
89.9556
20
-112.379
11
90.932
21
-112.207
0
LINE
8
Black
10
90.932
20
-112.207
11
91.9084
21
-112.379
0
LINE
8
Black
10
98.448
20
-117.855
11
97.948
21
-117.855
0
LINE
8
Black
10
97.948
20
-117.855
11
97.948
21
-117.155
0
LINE
8
Black
10
97.948
20
-117.155
11
98.448
21
-117.155
0
LINE
8
Black
10
98.448
20
-117.155
11
98.448
21
-117.855
0
LINE
8
Black
10
97.548
20
-117.855
11
97.048
21
-117.855
0
LINE
8
Black
10
97.048
20
-117.855
11
97.048
21
-117.155
0
LINE
8
Black
10
97.048
20
-117.155
11
97.548
21
-117.155
0
LINE
8
Black
10
97.548
20
-117.155
11
97.548
21
-117.855
0
LINE
8
Black
10
152.718
20
-117.752
11
152.378
21
-117.752
0
LINE
8
Black
10
152.378
20
-117.752
11
152.378
21
-117.252
0
LINE
8
Black
10
152.378
20
-117.252
11
152.718
21
-117.252
0
LINE
8
Black
10
152.718
20
-117.252
11
152.718
21
-117.752
0
LINE
8
Black
10
155.518
20
-117.752
11
155.178
21
-117.752
0
LINE
8
Black
10
155.178
20
-117.752
11
155.178
21
-117.252
0
LINE
8
Black
10
155.178
20
-117.252
11
155.518
21
-117.252
0
LINE
8
Black
10
155.518
20
-117.252
11
155.518
21
-117.752
0
LINE
8
Black
10
153.918
20
-117.752
11
153.578
21
-117.752
0
LINE
8
Black
10
153.578
20
-117.752
11
153.578
21
-117.252
0
LINE
8
Black
10
153.578
20
-117.252
11
153.918
21
-117.252
0
LINE
8
Black
10
153.918
20
-117.252
11
153.918
21
-117.752
0
LINE
8
Black
10
153.118
20
-117.752
11
152.778
21
-117.752
0
LINE
8
Black
10
152.778
20
-117.752
11
152.778
21
-117.252
0
LINE
8
Black
10
152.778
20
-117.252
11
153.118
21
-117.252
0
LINE
8
Black
10
153.118
20
-117.252
11
153.118
21
-117.752
0
LINE
8
Black
10
153.518
20
-117.752
11
153.178
21
-117.752
0
LINE
8
Black
10
153.178
20
-117.752
11
153.178
21
-117.252
0
LINE
8
Black
10
153.178
20
-117.252
11
153.518
21
-117.252
0
LINE
8
Black
10
153.518
20
-117.252
11
153.518
21
-117.752
0
LINE
8
Black
10
154.318
20
-117.752
11
153.978
21
-117.752
0
LINE
8
Black
10
153.978
20
-117.752
11
153.978
21
-117.252
0
LINE
8
Black
10
153.978
20
-117.252
11
154.318
21
-117.252
0
LINE
8
Black
10
154.318
20
-117.252
11
154.318
21
-117.752
0
LINE
8
Black
10
154.718
20
-117.752
11
154.378
21
-117.752
0
LINE
8
Black
10
154.378
20
-117.752
11
154.378
21
-117.252
0
LINE
8
Black
10
154.378
20
-117.252
11
154.718
21
-117.252
0
LINE
8
Black
10
154.718
20
-117.252
11
154.718
21
-117.752
0
LINE
8
Black
10
155.118
20
-117.752
11
154.778
21
-117.752
0
LINE
8
Black
10
154.778
20
-117.752
11
154.778
21
-117.252
0
LINE
8
Black
10
154.778
20
-117.252
11
155.118
21
-117.252
0
LINE
8
Black
10
155.118
20
-117.252
11
155.118
21
-117.752
0
LINE
8
Black
10
128.769
20
-117.453
11
128.169
21
-117.453
0
LINE
8
Black
10
128.169
20
-117.453
11
128.169
21
-116.753
0
LINE
8
Black
10
128.169
20
-116.753
11
128.769
21
-116.753
0
LINE
8
Black
10
128.769
20
-116.753
11
128.769
21
-117.453
0
LINE
8
Black
10
113.764
20
-117.373
11
113.264
21
-117.373
0
LINE
8
Black
10
113.264
20
-117.373
11
113.264
21
-116.673
0
LINE
8
Black
10
113.264
20
-116.673
11
113.764
21
-116.673
0
LINE
8
Black
10
113.764
20
-116.673
11
113.764
21
-117.373
0
LINE
8
Black
10
112.864
20
-117.373
11
112.364
21
-117.373
0
LINE
8
Black
10
112.364
20
-117.373
11
112.364
21
-116.673
0
LINE
8
Black
10
112.364
20
-116.673
11
112.864
21
-116.673
0
LINE
8
Black
10
112.864
20
-116.673
11
112.864
21
-117.373
0
LINE
8
Black
10
111.859
20
-117.373
11
111.359
21
-117.373
0
LINE
8
Black
10
111.359
20
-117.373
11
111.359
21
-116.673
0
LINE
8
Black
10
111.359
20
-116.673
11
111.859
21
-116.673
0
LINE
8
Black
10
111.859
20
-116.673
11
111.859
21
-117.373
0
LINE
8
Black
10
110.959
20
-117.373
11
110.459
21
-117.373
0
LINE
8
Black
10
110.459
20
-117.373
11
110.459
21
-116.673
0
LINE
8
Black
10
110.459
20
-116.673
11
110.959
21
-116.673
0
LINE
8
Black
10
110.959
20
-116.673
11
110.959
21
-117.373
0
LINE
8
Black
10
131.707
20
-117.285
11
131.007
21
-117.285
0
LINE
8
Black
10
131.007
20
-117.285
11
131.007
21
-116.685
0
LINE
8
Black
10
131.007
20
-116.685
11
131.707
21
-116.685
0
LINE
8
Black
10
131.707
20
-116.685
11
131.707
21
-117.285
0
LINE
8
Black
10
132.807
20
-117.285
11
132.107
21
-117.285
0
LINE
8
Black
10
132.107
20
-117.285
11
132.107
21
-116.685
0
LINE
8
Black
10
132.107
20
-116.685
11
132.807
21
-116.685
0
LINE
8
Black
10
132.807
20
-116.685
11
132.807
21
-117.285
0
LINE
8
Black
10
122.478
20
-117.284
11
121.978
21
-117.284
0
LINE
8
Black
10
121.978
20
-117.284
11
121.978
21
-116.584
0
LINE
8
Black
10
121.978
20
-116.584
11
122.478
21
-116.584
0
LINE
8
Black
10
122.478
20
-116.584
11
122.478
21
-117.284
0
LINE
8
Black
10
123.378
20
-117.284
11
122.878
21
-117.284
0
LINE
8
Black
10
122.878
20
-117.284
11
122.878
21
-116.584
0
LINE
8
Black
10
122.878
20
-116.584
11
123.378
21
-116.584
0
LINE
8
Black
10
123.378
20
-116.584
11
123.378
21
-117.284
0
LINE
8
Black
10
126.483
20
-117.25
11
125.883
21
-117.25
0
LINE
8
Black
10
125.883
20
-117.25
11
125.883
21
-116.55
0
LINE
8
Black
10
125.883
20
-116.55
11
126.483
21
-116.55
0
LINE
8
Black
10
126.483
20
-116.55
11
126.483
21
-117.25
0
LINE
8
Black
10
127.525
20
-117.25
11
126.925
21
-117.25
0
LINE
8
Black
10
126.925
20
-117.25
11
126.925
21
-116.55
0
LINE
8
Black
10
126.925
20
-116.55
11
127.525
21
-116.55
0
LINE
8
Black
10
127.525
20
-116.55
11
127.525
21
-117.25
0
LINE
8
Black
10
125.442
20
-117.25
11
124.842
21
-117.25
0
LINE
8
Black
10
124.842
20
-117.25
11
124.842
21
-116.55
0
LINE
8
Black
10
124.842
20
-116.55
11
125.442
21
-116.55
0
LINE
8
Black
10
125.442
20
-116.55
11
125.442
21
-117.25
0
LINE
8
Black
10
124.426
20
-117.25
11
123.826
21
-117.25
0
LINE
8
Black
10
123.826
20
-117.25
11
123.826
21
-116.55
0
LINE
8
Black
10
123.826
20
-116.55
11
124.426
21
-116.55
0
LINE
8
Black
10
124.426
20
-116.55
11
124.426
21
-117.25
0
LINE
8
Black
10
121.098
20
-117.064
11
120.398
21
-117.064
0
LINE
8
Black
10
120.398
20
-117.064
11
120.398
21
-116.564
0
LINE
8
Black
10
120.398
20
-116.564
11
121.098
21
-116.564
0
LINE
8
Black
10
121.098
20
-116.564
11
121.098
21
-117.064
0
LINE
8
Black
10
152.723
20
-117.047
11
152.223
21
-117.047
0
LINE
8
Black
10
152.223
20
-117.047
11
152.223
21
-116.707
0
LINE
8
Black
10
152.223
20
-116.707
11
152.723
21
-116.707
0
LINE
8
Black
10
152.723
20
-116.707
11
152.723
21
-117.047
0
LINE
8
Black
10
155.673
20
-117.047
11
155.173
21
-117.047
0
LINE
8
Black
10
155.173
20
-117.047
11
155.173
21
-116.707
0
LINE
8
Black
10
155.173
20
-116.707
11
155.673
21
-116.707
0
LINE
8
Black
10
155.673
20
-116.707
11
155.673
21
-117.047
0
LINE
8
Black
10
160.092
20
-115.254
11
160.337
21
-115.395
0
LINE
8
Black
10
160.337
20
-115.395
11
160.519
21
-115.612
0
LINE
8
Black
10
160.519
20
-115.612
11
160.616
21
-115.878
0
LINE
8
Black
10
160.616
20
-115.878
11
160.616
21
-116.161
0
LINE
8
Black
10
160.616
20
-116.161
11
160.519
21
-116.427
0
LINE
8
Black
10
160.519
20
-116.427
11
160.337
21
-116.644
0
LINE
8
Black
10
160.337
20
-116.644
11
160.092
21
-116.785
0
LINE
8
Black
10
160.092
20
-116.785
11
159.813
21
-116.835
0
LINE
8
Black
10
159.813
20
-116.835
11
159.534
21
-116.785
0
LINE
8
Black
10
159.534
20
-116.785
11
159.289
21
-116.644
0
LINE
8
Black
10
159.289
20
-116.644
11
159.107
21
-116.427
0
LINE
8
Black
10
159.107
20
-116.427
11
159.01
21
-116.161
0
LINE
8
Black
10
159.01
20
-116.161
11
159.01
21
-115.878
0
LINE
8
Black
10
159.01
20
-115.878
11
159.107
21
-115.612
0
LINE
8
Black
10
159.107
20
-115.612
11
159.289
21
-115.395
0
LINE
8
Black
10
159.289
20
-115.395
11
159.534
21
-115.254
0
LINE
8
Black
10
159.534
20
-115.254
11
159.813
21
-115.204
0
LINE
8
Black
10
159.813
20
-115.204
11
160.092
21
-115.254
0
LINE
8
Black
10
100.706
20
-115.137
11
100.952
21
-115.278
0
LINE
8
Black
10
100.952
20
-115.278
11
101.134
21
-115.495
0
LINE
8
Black
10
101.134
20
-115.495
11
101.23
21
-115.761
0
LINE
8
Black
10
101.23
20
-115.761
11
101.23
21
-116.044
0
LINE
8
Black
10
101.23
20
-116.044
11
101.134
21
-116.31
0
LINE
8
Black
10
101.134
20
-116.31
11
100.952
21
-116.527
0
LINE
8
Black
10
100.952
20
-116.527
11
100.706
21
-116.669
0
LINE
8
Black
10
100.706
20
-116.669
11
100.428
21
-116.718
0
LINE
8
Black
10
100.428
20
-116.718
11
100.149
21
-116.669
0
LINE
8
Black
10
100.149
20
-116.669
11
99.9038
21
-116.527
0
LINE
8
Black
10
99.9038
20
-116.527
11
99.7218
21
-116.31
0
LINE
8
Black
10
99.7218
20
-116.31
11
99.625
21
-116.044
0
LINE
8
Black
10
99.625
20
-116.044
11
99.625
21
-115.761
0
LINE
8
Black
10
99.625
20
-115.761
11
99.7218
21
-115.495
0
LINE
8
Black
10
99.7218
20
-115.495
11
99.9038
21
-115.278
0
LINE
8
Black
10
99.9038
20
-115.278
11
100.149
21
-115.137
0
LINE
8
Black
10
100.149
20
-115.137
11
100.428
21
-115.088
0
LINE
8
Black
10
100.428
20
-115.088
11
100.706
21
-115.137
0
LINE
8
Black
10
98.648
20
-116.662
11
97.948
21
-116.662
0
LINE
8
Black
10
97.948
20
-116.662
11
97.948
21
-116.062
0
LINE
8
Black
10
97.948
20
-116.062
11
98.648
21
-116.062
0
LINE
8
Black
10
98.648
20
-116.062
11
98.648
21
-116.662
0
LINE
8
Black
10
97.548
20
-116.662
11
96.848
21
-116.662
0
LINE
8
Black
10
96.848
20
-116.662
11
96.848
21
-116.062
0
LINE
8
Black
10
96.848
20
-116.062
11
97.548
21
-116.062
0
LINE
8
Black
10
97.548
20
-116.062
11
97.548
21
-116.662
0
LINE
8
Black
10
152.723
20
-116.647
11
152.223
21
-116.647
0
LINE
8
Black
10
152.223
20
-116.647
11
152.223
21
-116.307
0
LINE
8
Black
10
152.223
20
-116.307
11
152.723
21
-116.307
0
LINE
8
Black
10
152.723
20
-116.307
11
152.723
21
-116.647
0
LINE
8
Black
10
155.673
20
-116.647
11
155.173
21
-116.647
0
LINE
8
Black
10
155.173
20
-116.647
11
155.173
21
-116.307
0
LINE
8
Black
10
155.173
20
-116.307
11
155.673
21
-116.307
0
LINE
8
Black
10
155.673
20
-116.307
11
155.673
21
-116.647
0
LINE
8
Black
10
128.769
20
-116.353
11
128.169
21
-116.353
0
LINE
8
Black
10
128.169
20
-116.353
11
128.169
21
-115.653
0
LINE
8
Black
10
128.169
20
-115.653
11
128.769
21
-115.653
0
LINE
8
Black
10
128.769
20
-115.653
11
128.769
21
-116.353
0
LINE
8
Black
10
152.723
20
-116.247
11
152.223
21
-116.247
0
LINE
8
Black
10
152.223
20
-116.247
11
152.223
21
-115.907
0
LINE
8
Black
10
152.223
20
-115.907
11
152.723
21
-115.907
0
LINE
8
Black
10
152.723
20
-115.907
11
152.723
21
-116.247
0
LINE
8
Black
10
155.673
20
-116.247
11
155.173
21
-116.247
0
LINE
8
Black
10
155.173
20
-116.247
11
155.173
21
-115.907
0
LINE
8
Black
10
155.173
20
-115.907
11
155.673
21
-115.907
0
LINE
8
Black
10
155.673
20
-115.907
11
155.673
21
-116.247
0
LINE
8
Black
10
131.139
20
-116.167
11
130.439
21
-116.167
0
LINE
8
Black
10
130.439
20
-116.167
11
130.439
21
-115.567
0
LINE
8
Black
10
130.439
20
-115.567
11
131.139
21
-115.567
0
LINE
8
Black
10
131.139
20
-115.567
11
131.139
21
-116.167
0
LINE
8
Black
10
132.239
20
-116.167
11
131.539
21
-116.167
0
LINE
8
Black
10
131.539
20
-116.167
11
131.539
21
-115.567
0
LINE
8
Black
10
131.539
20
-115.567
11
132.239
21
-115.567
0
LINE
8
Black
10
132.239
20
-115.567
11
132.239
21
-116.167
0
LINE
8
Black
10
125.442
20
-116.15
11
124.842
21
-116.15
0
LINE
8
Black
10
124.842
20
-116.15
11
124.842
21
-115.45
0
LINE
8
Black
10
124.842
20
-115.45
11
125.442
21
-115.45
0
LINE
8
Black
10
125.442
20
-115.45
11
125.442
21
-116.15
0
LINE
8
Black
10
127.525
20
-116.15
11
126.925
21
-116.15
0
LINE
8
Black
10
126.925
20
-116.15
11
126.925
21
-115.45
0
LINE
8
Black
10
126.925
20
-115.45
11
127.525
21
-115.45
0
LINE
8
Black
10
127.525
20
-115.45
11
127.525
21
-116.15
0
LINE
8
Black
10
124.426
20
-116.15
11
123.826
21
-116.15
0
LINE
8
Black
10
123.826
20
-116.15
11
123.826
21
-115.45
0
LINE
8
Black
10
123.826
20
-115.45
11
124.426
21
-115.45
0
LINE
8
Black
10
124.426
20
-115.45
11
124.426
21
-116.15
0
LINE
8
Black
10
126.483
20
-116.15
11
125.883
21
-116.15
0
LINE
8
Black
10
125.883
20
-116.15
11
125.883
21
-115.45
0
LINE
8
Black
10
125.883
20
-115.45
11
126.483
21
-115.45
0
LINE
8
Black
10
126.483
20
-115.45
11
126.483
21
-116.15
0
LINE
8
Black
10
155.673
20
-115.847
11
155.173
21
-115.847
0
LINE
8
Black
10
155.173
20
-115.847
11
155.173
21
-115.507
0
LINE
8
Black
10
155.173
20
-115.507
11
155.673
21
-115.507
0
LINE
8
Black
10
155.673
20
-115.507
11
155.673
21
-115.847
0
LINE
8
Black
10
152.723
20
-115.847
11
152.223
21
-115.847
0
LINE
8
Black
10
152.223
20
-115.847
11
152.223
21
-115.507
0
LINE
8
Black
10
152.223
20
-115.507
11
152.723
21
-115.507
0
LINE
8
Black
10
152.723
20
-115.507
11
152.723
21
-115.847
0
LINE
8
Black
10
115.675
20
-115.655
11
114.375
21
-115.655
0
LINE
8
Black
10
114.375
20
-115.655
11
114.375
21
-114.655
0
LINE
8
Black
10
114.375
20
-114.655
11
115.675
21
-114.655
0
LINE
8
Black
10
115.675
20
-114.655
11
115.675
21
-115.655
0
LINE
8
Black
10
98.448
20
-115.569
11
97.948
21
-115.569
0
LINE
8
Black
10
97.948
20
-115.569
11
97.948
21
-114.869
0
LINE
8
Black
10
97.948
20
-114.869
11
98.448
21
-114.869
0
LINE
8
Black
10
98.448
20
-114.869
11
98.448
21
-115.569
0
LINE
8
Black
10
97.548
20
-115.569
11
97.048
21
-115.569
0
LINE
8
Black
10
97.048
20
-115.569
11
97.048
21
-114.869
0
LINE
8
Black
10
97.048
20
-114.869
11
97.548
21
-114.869
0
LINE
8
Black
10
97.548
20
-114.869
11
97.548
21
-115.569
0
LINE
8
Black
10
153.918
20
-115.302
11
153.578
21
-115.302
0
LINE
8
Black
10
153.578
20
-115.302
11
153.578
21
-114.802
0
LINE
8
Black
10
153.578
20
-114.802
11
153.918
21
-114.802
0
LINE
8
Black
10
153.918
20
-114.802
11
153.918
21
-115.302
0
LINE
8
Black
10
155.518
20
-115.302
11
155.178
21
-115.302
0
LINE
8
Black
10
155.178
20
-115.302
11
155.178
21
-114.802
0
LINE
8
Black
10
155.178
20
-114.802
11
155.518
21
-114.802
0
LINE
8
Black
10
155.518
20
-114.802
11
155.518
21
-115.302
0
LINE
8
Black
10
153.518
20
-115.302
11
153.178
21
-115.302
0
LINE
8
Black
10
153.178
20
-115.302
11
153.178
21
-114.802
0
LINE
8
Black
10
153.178
20
-114.802
11
153.518
21
-114.802
0
LINE
8
Black
10
153.518
20
-114.802
11
153.518
21
-115.302
0
LINE
8
Black
10
153.118
20
-115.302
11
152.778
21
-115.302
0
LINE
8
Black
10
152.778
20
-115.302
11
152.778
21
-114.802
0
LINE
8
Black
10
152.778
20
-114.802
11
153.118
21
-114.802
0
LINE
8
Black
10
153.118
20
-114.802
11
153.118
21
-115.302
0
LINE
8
Black
10
152.718
20
-115.302
11
152.378
21
-115.302
0
LINE
8
Black
10
152.378
20
-115.302
11
152.378
21
-114.802
0
LINE
8
Black
10
152.378
20
-114.802
11
152.718
21
-114.802
0
LINE
8
Black
10
152.718
20
-114.802
11
152.718
21
-115.302
0
LINE
8
Black
10
155.118
20
-115.302
11
154.778
21
-115.302
0
LINE
8
Black
10
154.778
20
-115.302
11
154.778
21
-114.802
0
LINE
8
Black
10
154.778
20
-114.802
11
155.118
21
-114.802
0
LINE
8
Black
10
155.118
20
-114.802
11
155.118
21
-115.302
0
LINE
8
Black
10
154.318
20
-115.302
11
153.978
21
-115.302
0
LINE
8
Black
10
153.978
20
-115.302
11
153.978
21
-114.802
0
LINE
8
Black
10
153.978
20
-114.802
11
154.318
21
-114.802
0
LINE
8
Black
10
154.318
20
-114.802
11
154.318
21
-115.302
0
LINE
8
Black
10
154.718
20
-115.302
11
154.378
21
-115.302
0
LINE
8
Black
10
154.378
20
-115.302
11
154.378
21
-114.802
0
LINE
8
Black
10
154.378
20
-114.802
11
154.718
21
-114.802
0
LINE
8
Black
10
154.718
20
-114.802
11
154.718
21
-115.302
0
LINE
8
Black
10
109.96
20
-115.234
11
108.86
21
-115.234
0
LINE
8
Black
10
108.86
20
-115.234
11
108.86
21
-113.884
0
LINE
8
Black
10
108.86
20
-113.884
11
109.96
21
-113.884
0
LINE
8
Black
10
109.96
20
-113.884
11
109.96
21
-115.234
0
LINE
8
Black
10
111.96
20
-115.234
11
110.86
21
-115.234
0
LINE
8
Black
10
110.86
20
-115.234
11
110.86
21
-113.884
0
LINE
8
Black
10
110.86
20
-113.884
11
111.96
21
-113.884
0
LINE
8
Black
10
111.96
20
-113.884
11
111.96
21
-115.234
0
LINE
8
Black
10
140.517
20
-115.006
11
139.517
21
-115.006
0
LINE
8
Black
10
139.517
20
-115.006
11
139.517
21
-114.106
0
LINE
8
Black
10
139.517
20
-114.106
11
140.517
21
-114.106
0
LINE
8
Black
10
140.517
20
-114.106
11
140.517
21
-115.006
0
LINE
8
Black
10
161.082
20
-113.196
11
161.327
21
-113.338
0
LINE
8
Black
10
161.327
20
-113.338
11
161.509
21
-113.555
0
LINE
8
Black
10
161.509
20
-113.555
11
161.606
21
-113.821
0
LINE
8
Black
10
161.606
20
-113.821
11
161.606
21
-114.104
0
LINE
8
Black
10
161.606
20
-114.104
11
161.509
21
-114.37
0
LINE
8
Black
10
161.509
20
-114.37
11
161.327
21
-114.586
0
LINE
8
Black
10
161.327
20
-114.586
11
161.082
21
-114.728
0
LINE
8
Black
10
161.082
20
-114.728
11
160.803
21
-114.777
0
LINE
8
Black
10
160.803
20
-114.777
11
160.525
21
-114.728
0
LINE
8
Black
10
160.525
20
-114.728
11
160.28
21
-114.586
0
LINE
8
Black
10
160.28
20
-114.586
11
160.098
21
-114.37
0
LINE
8
Black
10
160.098
20
-114.37
11
160.001
21
-114.104
0
LINE
8
Black
10
160.001
20
-114.104
11
160.001
21
-113.821
0
LINE
8
Black
10
160.001
20
-113.821
11
160.098
21
-113.555
0
LINE
8
Black
10
160.098
20
-113.555
11
160.28
21
-113.338
0
LINE
8
Black
10
160.28
20
-113.338
11
160.525
21
-113.196
0
LINE
8
Black
10
160.525
20
-113.196
11
160.803
21
-113.147
0
LINE
8
Black
10
160.803
20
-113.147
11
161.082
21
-113.196
0
LINE
8
Black
10
154.041
20
-114.542
11
153.341
21
-114.542
0
LINE
8
Black
10
153.341
20
-114.542
11
153.341
21
-114.042
0
LINE
8
Black
10
153.341
20
-114.042
11
154.041
21
-114.042
0
LINE
8
Black
10
154.041
20
-114.042
11
154.041
21
-114.542
0
LINE
8
Black
10
132.19
20
-114.495
11
131.24
21
-114.495
0
LINE
8
Black
10
131.24
20
-114.495
11
131.24
21
-112.495
0
LINE
8
Black
10
131.24
20
-112.495
11
132.19
21
-112.495
0
LINE
8
Black
10
132.19
20
-112.495
11
132.19
21
-114.495
0
LINE
8
Black
10
133.64
20
-114.495
11
132.69
21
-114.495
0
LINE
8
Black
10
132.69
20
-114.495
11
132.69
21
-112.495
0
LINE
8
Black
10
132.69
20
-112.495
11
133.64
21
-112.495
0
LINE
8
Black
10
133.64
20
-112.495
11
133.64
21
-114.495
0
LINE
8
Black
10
138.897
20
-114.261
11
138.397
21
-114.261
0
LINE
8
Black
10
138.397
20
-114.261
11
138.397
21
-113.561
0
LINE
8
Black
10
138.397
20
-113.561
11
138.897
21
-113.561
0
LINE
8
Black
10
138.897
20
-113.561
11
138.897
21
-114.261
0
LINE
8
Black
10
137.997
20
-114.261
11
137.497
21
-114.261
0
LINE
8
Black
10
137.497
20
-114.261
11
137.497
21
-113.561
0
LINE
8
Black
10
137.497
20
-113.561
11
137.997
21
-113.561
0
LINE
8
Black
10
137.997
20
-113.561
11
137.997
21
-114.261
0
LINE
8
Black
10
142.517
20
-114.056
11
141.517
21
-114.056
0
LINE
8
Black
10
141.517
20
-114.056
11
141.517
21
-113.156
0
LINE
8
Black
10
141.517
20
-113.156
11
142.517
21
-113.156
0
LINE
8
Black
10
142.517
20
-113.156
11
142.517
21
-114.056
0
LINE
8
Black
10
154.041
20
-113.642
11
153.341
21
-113.642
0
LINE
8
Black
10
153.341
20
-113.642
11
153.341
21
-113.142
0
LINE
8
Black
10
153.341
20
-113.142
11
154.041
21
-113.142
0
LINE
8
Black
10
154.041
20
-113.142
11
154.041
21
-113.642
0
LINE
8
Black
10
122.804
20
-111.748
11
123.05
21
-111.89
0
LINE
8
Black
10
123.05
20
-111.89
11
123.232
21
-112.107
0
LINE
8
Black
10
123.232
20
-112.107
11
123.328
21
-112.373
0
LINE
8
Black
10
123.328
20
-112.373
11
123.328
21
-112.656
0
LINE
8
Black
10
123.328
20
-112.656
11
123.232
21
-112.922
0
LINE
8
Black
10
123.232
20
-112.922
11
123.05
21
-113.139
0
LINE
8
Black
10
123.05
20
-113.139
11
122.804
21
-113.28
0
LINE
8
Black
10
122.804
20
-113.28
11
122.526
21
-113.329
0
LINE
8
Black
10
122.526
20
-113.329
11
122.247
21
-113.28
0
LINE
8
Black
10
122.247
20
-113.28
11
122.002
21
-113.139
0
LINE
8
Black
10
122.002
20
-113.139
11
121.82
21
-112.922
0
LINE
8
Black
10
121.82
20
-112.922
11
121.723
21
-112.656
0
LINE
8
Black
10
121.723
20
-112.656
11
121.723
21
-112.373
0
LINE
8
Black
10
121.723
20
-112.373
11
121.82
21
-112.107
0
LINE
8
Black
10
121.82
20
-112.107
11
122.002
21
-111.89
0
LINE
8
Black
10
122.002
20
-111.89
11
122.247
21
-111.748
0
LINE
8
Black
10
122.247
20
-111.748
11
122.526
21
-111.699
0
LINE
8
Black
10
122.526
20
-111.699
11
122.804
21
-111.748
0
LINE
8
Black
10
139.005
20
-113.138
11
138.305
21
-113.138
0
LINE
8
Black
10
138.305
20
-113.138
11
138.305
21
-112.638
0
LINE
8
Black
10
138.305
20
-112.638
11
139.005
21
-112.638
0
LINE
8
Black
10
139.005
20
-112.638
11
139.005
21
-113.138
0
LINE
8
Black
10
140.517
20
-113.106
11
139.517
21
-113.106
0
LINE
8
Black
10
139.517
20
-113.106
11
139.517
21
-112.206
0
LINE
8
Black
10
139.517
20
-112.206
11
140.517
21
-112.206
0
LINE
8
Black
10
140.517
20
-112.206
11
140.517
21
-113.106
0
LINE
8
Black
10
158.212
20
-111.367
11
158.457
21
-111.509
0
LINE
8
Black
10
158.457
20
-111.509
11
158.639
21
-111.726
0
LINE
8
Black
10
158.639
20
-111.726
11
158.736
21
-111.992
0
LINE
8
Black
10
158.736
20
-111.992
11
158.736
21
-112.275
0
LINE
8
Black
10
158.736
20
-112.275
11
158.639
21
-112.541
0
LINE
8
Black
10
158.639
20
-112.541
11
158.457
21
-112.758
0
LINE
8
Black
10
158.457
20
-112.758
11
158.212
21
-112.899
0
LINE
8
Black
10
158.212
20
-112.899
11
157.933
21
-112.948
0
LINE
8
Black
10
157.933
20
-112.948
11
157.655
21
-112.899
0
LINE
8
Black
10
157.655
20
-112.899
11
157.409
21
-112.758
0
LINE
8
Black
10
157.409
20
-112.758
11
157.227
21
-112.541
0
LINE
8
Black
10
157.227
20
-112.541
11
157.131
21
-112.275
0
LINE
8
Black
10
157.131
20
-112.275
11
157.131
21
-111.992
0
LINE
8
Black
10
157.131
20
-111.992
11
157.227
21
-111.726
0
LINE
8
Black
10
157.227
20
-111.726
11
157.409
21
-111.509
0
LINE
8
Black
10
157.409
20
-111.509
11
157.655
21
-111.367
0
LINE
8
Black
10
157.655
20
-111.367
11
157.933
21
-111.318
0
LINE
8
Black
10
157.933
20
-111.318
11
158.212
21
-111.367
0
LINE
8
Black
10
156.035
20
-112.613
11
155.135
21
-112.613
0
LINE
8
Black
10
155.135
20
-112.613
11
155.135
21
-111.613
0
LINE
8
Black
10
155.135
20
-111.613
11
156.035
21
-111.613
0
LINE
8
Black
10
156.035
20
-111.613
11
156.035
21
-112.613
0
LINE
8
Black
10
154.135
20
-112.613
11
153.235
21
-112.613
0
LINE
8
Black
10
153.235
20
-112.613
11
153.235
21
-111.613
0
LINE
8
Black
10
153.235
20
-111.613
11
154.135
21
-111.613
0
LINE
8
Black
10
154.135
20
-111.613
11
154.135
21
-112.613
0
LINE
8
Black
10
113.535
20
-112.613
11
112.835
21
-112.613
0
LINE
8
Black
10
112.835
20
-112.613
11
112.835
21
-112.113
0
LINE
8
Black
10
112.835
20
-112.113
11
113.535
21
-112.113
0
LINE
8
Black
10
113.535
20
-112.113
11
113.535
21
-112.613
0
LINE
8
Black
10
110.06
20
-112.493
11
108.9
21
-112.493
0
LINE
8
Black
10
108.9
20
-112.493
11
108.9
21
-111.743
0
LINE
8
Black
10
108.9
20
-111.743
11
110.06
21
-111.743
0
LINE
8
Black
10
110.06
20
-111.743
11
110.06
21
-112.493
0
LINE
8
Black
10
112.26
20
-112.493
11
111.1
21
-112.493
0
LINE
8
Black
10
111.1
20
-112.493
11
111.1
21
-111.743
0
LINE
8
Black
10
111.1
20
-111.743
11
112.26
21
-111.743
0
LINE
8
Black
10
112.26
20
-111.743
11
112.26
21
-112.493
0
LINE
8
Black
10
115.675
20
-112.355
11
114.375
21
-112.355
0
LINE
8
Black
10
114.375
20
-112.355
11
114.375
21
-111.355
0
LINE
8
Black
10
114.375
20
-111.355
11
115.675
21
-111.355
0
LINE
8
Black
10
115.675
20
-111.355
11
115.675
21
-112.355
0
LINE
8
Black
10
139.005
20
-112.238
11
138.305
21
-112.238
0
LINE
8
Black
10
138.305
20
-112.238
11
138.305
21
-111.738
0
LINE
8
Black
10
138.305
20
-111.738
11
139.005
21
-111.738
0
LINE
8
Black
10
139.005
20
-111.738
11
139.005
21
-112.238
0
LINE
8
Black
10
133.311
20
-112.078
11
132.611
21
-112.078
0
LINE
8
Black
10
132.611
20
-112.078
11
132.611
21
-111.478
0
LINE
8
Black
10
132.611
20
-111.478
11
133.311
21
-111.478
0
LINE
8
Black
10
133.311
20
-111.478
11
133.311
21
-112.078
0
LINE
8
Black
10
132.211
20
-112.078
11
131.511
21
-112.078
0
LINE
8
Black
10
131.511
20
-112.078
11
131.511
21
-111.478
0
LINE
8
Black
10
131.511
20
-111.478
11
132.211
21
-111.478
0
LINE
8
Black
10
132.211
20
-111.478
11
132.211
21
-112.078
0
LINE
8
Black
10
124.637
20
-111.849
11
123.937
21
-111.849
0
LINE
8
Black
10
123.937
20
-111.849
11
123.937
21
-111.249
0
LINE
8
Black
10
123.937
20
-111.249
11
124.637
21
-111.249
0
LINE
8
Black
10
124.637
20
-111.249
11
124.637
21
-111.849
0
LINE
8
Black
10
125.737
20
-111.849
11
125.037
21
-111.849
0
LINE
8
Black
10
125.037
20
-111.849
11
125.037
21
-111.249
0
LINE
8
Black
10
125.037
20
-111.249
11
125.737
21
-111.249
0
LINE
8
Black
10
125.737
20
-111.249
11
125.737
21
-111.849
0
LINE
8
Black
10
113.535
20
-111.713
11
112.835
21
-111.713
0
LINE
8
Black
10
112.835
20
-111.713
11
112.835
21
-111.213
0
LINE
8
Black
10
112.835
20
-111.213
11
113.535
21
-111.213
0
LINE
8
Black
10
113.535
20
-111.213
11
113.535
21
-111.713
0
LINE
8
Black
10
112.26
20
-111.543
11
111.1
21
-111.543
0
LINE
8
Black
10
111.1
20
-111.543
11
111.1
21
-110.793
0
LINE
8
Black
10
111.1
20
-110.793
11
112.26
21
-110.793
0
LINE
8
Black
10
112.26
20
-110.793
11
112.26
21
-111.543
0
LINE
8
Black
10
123.511
20
-111.128
11
122.911
21
-111.128
0
LINE
8
Black
10
122.911
20
-111.128
11
122.911
21
-110.428
0
LINE
8
Black
10
122.911
20
-110.428
11
123.511
21
-110.428
0
LINE
8
Black
10
123.511
20
-110.428
11
123.511
21
-111.128
0
LINE
8
Black
10
125.874
20
-110.692
11
125.324
21
-110.692
0
LINE
8
Black
10
125.324
20
-110.692
11
125.324
21
-110.292
0
LINE
8
Black
10
125.324
20
-110.292
11
125.874
21
-110.292
0
LINE
8
Black
10
125.874
20
-110.292
11
125.874
21
-110.692
0
LINE
8
Black
10
124.474
20
-110.692
11
123.924
21
-110.692
0
LINE
8
Black
10
123.924
20
-110.692
11
123.924
21
-110.292
0
LINE
8
Black
10
123.924
20
-110.292
11
124.474
21
-110.292
0
LINE
8
Black
10
124.474
20
-110.292
11
124.474
21
-110.692
0
LINE
8
Black
10
155.085
20
-110.613
11
154.185
21
-110.613
0
LINE
8
Black
10
154.185
20
-110.613
11
154.185
21
-109.613
0
LINE
8
Black
10
154.185
20
-109.613
11
155.085
21
-109.613
0
LINE
8
Black
10
155.085
20
-109.613
11
155.085
21
-110.613
0
LINE
8
Black
10
110.06
20
-110.593
11
108.9
21
-110.593
0
LINE
8
Black
10
108.9
20
-110.593
11
108.9
21
-109.843
0
LINE
8
Black
10
108.9
20
-109.843
11
110.06
21
-109.843
0
LINE
8
Black
10
110.06
20
-109.843
11
110.06
21
-110.593
0
LINE
8
Black
10
112.26
20
-110.593
11
111.1
21
-110.593
0
LINE
8
Black
10
111.1
20
-110.593
11
111.1
21
-109.843
0
LINE
8
Black
10
111.1
20
-109.843
11
112.26
21
-109.843
0
LINE
8
Black
10
112.26
20
-109.843
11
112.26
21
-110.593
0
LINE
8
Black
10
134.484
20
-110.214
11
134.134
21
-110.214
0
LINE
8
Black
10
134.134
20
-110.214
11
134.134
21
-109.314
0
LINE
8
Black
10
134.134
20
-109.314
11
134.484
21
-109.314
0
LINE
8
Black
10
134.484
20
-109.314
11
134.484
21
-110.214
0
LINE
8
Black
10
135.484
20
-110.214
11
135.134
21
-110.214
0
LINE
8
Black
10
135.134
20
-110.214
11
135.134
21
-109.314
0
LINE
8
Black
10
135.134
20
-109.314
11
135.484
21
-109.314
0
LINE
8
Black
10
135.484
20
-109.314
11
135.484
21
-110.214
0
LINE
8
Black
10
134.984
20
-110.214
11
134.634
21
-110.214
0
LINE
8
Black
10
134.634
20
-110.214
11
134.634
21
-109.314
0
LINE
8
Black
10
134.634
20
-109.314
11
134.984
21
-109.314
0
LINE
8
Black
10
134.984
20
-109.314
11
134.984
21
-110.214
0
LINE
8
Black
10
129.984
20
-110.214
11
129.634
21
-110.214
0
LINE
8
Black
10
129.634
20
-110.214
11
129.634
21
-109.314
0
LINE
8
Black
10
129.634
20
-109.314
11
129.984
21
-109.314
0
LINE
8
Black
10
129.984
20
-109.314
11
129.984
21
-110.214
0
LINE
8
Black
10
130.484
20
-110.214
11
130.134
21
-110.214
0
LINE
8
Black
10
130.134
20
-110.214
11
130.134
21
-109.314
0
LINE
8
Black
10
130.134
20
-109.314
11
130.484
21
-109.314
0
LINE
8
Black
10
130.484
20
-109.314
11
130.484
21
-110.214
0
LINE
8
Black
10
130.984
20
-110.214
11
130.634
21
-110.214
0
LINE
8
Black
10
130.634
20
-110.214
11
130.634
21
-109.314
0
LINE
8
Black
10
130.634
20
-109.314
11
130.984
21
-109.314
0
LINE
8
Black
10
130.984
20
-109.314
11
130.984
21
-110.214
0
LINE
8
Black
10
131.484
20
-110.214
11
131.134
21
-110.214
0
LINE
8
Black
10
131.134
20
-110.214
11
131.134
21
-109.314
0
LINE
8
Black
10
131.134
20
-109.314
11
131.484
21
-109.314
0
LINE
8
Black
10
131.484
20
-109.314
11
131.484
21
-110.214
0
LINE
8
Black
10
131.984
20
-110.214
11
131.634
21
-110.214
0
LINE
8
Black
10
131.634
20
-110.214
11
131.634
21
-109.314
0
LINE
8
Black
10
131.634
20
-109.314
11
131.984
21
-109.314
0
LINE
8
Black
10
131.984
20
-109.314
11
131.984
21
-110.214
0
LINE
8
Black
10
132.484
20
-110.214
11
132.134
21
-110.214
0
LINE
8
Black
10
132.134
20
-110.214
11
132.134
21
-109.314
0
LINE
8
Black
10
132.134
20
-109.314
11
132.484
21
-109.314
0
LINE
8
Black
10
132.484
20
-109.314
11
132.484
21
-110.214
0
LINE
8
Black
10
132.984
20
-110.214
11
132.634
21
-110.214
0
LINE
8
Black
10
132.634
20
-110.214
11
132.634
21
-109.314
0
LINE
8
Black
10
132.634
20
-109.314
11
132.984
21
-109.314
0
LINE
8
Black
10
132.984
20
-109.314
11
132.984
21
-110.214
0
LINE
8
Black
10
133.484
20
-110.214
11
133.134
21
-110.214
0
LINE
8
Black
10
133.134
20
-110.214
11
133.134
21
-109.314
0
LINE
8
Black
10
133.134
20
-109.314
11
133.484
21
-109.314
0
LINE
8
Black
10
133.484
20
-109.314
11
133.484
21
-110.214
0
LINE
8
Black
10
133.984
20
-110.214
11
133.634
21
-110.214
0
LINE
8
Black
10
133.634
20
-110.214
11
133.634
21
-109.314
0
LINE
8
Black
10
133.634
20
-109.314
11
133.984
21
-109.314
0
LINE
8
Black
10
133.984
20
-109.314
11
133.984
21
-110.214
0
LINE
8
Black
10
124.474
20
-110.192
11
123.924
21
-110.192
0
LINE
8
Black
10
123.924
20
-110.192
11
123.924
21
-109.792
0
LINE
8
Black
10
123.924
20
-109.792
11
124.474
21
-109.792
0
LINE
8
Black
10
124.474
20
-109.792
11
124.474
21
-110.192
0
LINE
8
Black
10
123.511
20
-110.028
11
122.911
21
-110.028
0
LINE
8
Black
10
122.911
20
-110.028
11
122.911
21
-109.328
0
LINE
8
Black
10
122.911
20
-109.328
11
123.511
21
-109.328
0
LINE
8
Black
10
123.511
20
-109.328
11
123.511
21
-110.028
0
LINE
8
Black
10
92.1721
20
-108.319
11
92.4172
21
-108.461
0
LINE
8
Black
10
92.4172
20
-108.461
11
92.5992
21
-108.678
0
LINE
8
Black
10
92.5992
20
-108.678
11
92.696
21
-108.944
0
LINE
8
Black
10
92.696
20
-108.944
11
92.696
21
-109.227
0
LINE
8
Black
10
92.696
20
-109.227
11
92.5992
21
-109.493
0
LINE
8
Black
10
92.5992
20
-109.493
11
92.4172
21
-109.71
0
LINE
8
Black
10
92.4172
20
-109.71
11
92.1721
21
-109.851
0
LINE
8
Black
10
92.1721
20
-109.851
11
91.8933
21
-109.9
0
LINE
8
Black
10
91.8933
20
-109.9
11
91.6145
21
-109.851
0
LINE
8
Black
10
91.6145
20
-109.851
11
91.3694
21
-109.71
0
LINE
8
Black
10
91.3694
20
-109.71
11
91.1874
21
-109.493
0
LINE
8
Black
10
91.1874
20
-109.493
11
91.0906
21
-109.227
0
LINE
8
Black
10
91.0906
20
-109.227
11
91.0906
21
-108.944
0
LINE
8
Black
10
91.0906
20
-108.944
11
91.1874
21
-108.678
0
LINE
8
Black
10
91.1874
20
-108.678
11
91.3694
21
-108.461
0
LINE
8
Black
10
91.3694
20
-108.461
11
91.6145
21
-108.319
0
LINE
8
Black
10
91.6145
20
-108.319
11
91.8933
21
-108.27
0
LINE
8
Black
10
91.8933
20
-108.27
11
92.1721
21
-108.319
0
LINE
8
Black
10
113.749
20
-109.76
11
113.049
21
-109.76
0
LINE
8
Black
10
113.049
20
-109.76
11
113.049
21
-109.26
0
LINE
8
Black
10
113.049
20
-109.26
11
113.749
21
-109.26
0
LINE
8
Black
10
113.749
20
-109.26
11
113.749
21
-109.76
0
LINE
8
Black
10
162.809
20
-108.167
11
163.055
21
-108.308
0
LINE
8
Black
10
163.055
20
-108.308
11
163.237
21
-108.525
0
LINE
8
Black
10
163.237
20
-108.525
11
163.333
21
-108.791
0
LINE
8
Black
10
163.333
20
-108.791
11
163.333
21
-109.074
0
LINE
8
Black
10
163.333
20
-109.074
11
163.237
21
-109.34
0
LINE
8
Black
10
163.237
20
-109.34
11
163.055
21
-109.557
0
LINE
8
Black
10
163.055
20
-109.557
11
162.809
21
-109.699
0
LINE
8
Black
10
162.809
20
-109.699
11
162.531
21
-109.748
0
LINE
8
Black
10
162.531
20
-109.748
11
162.252
21
-109.699
0
LINE
8
Black
10
162.252
20
-109.699
11
162.007
21
-109.557
0
LINE
8
Black
10
162.007
20
-109.557
11
161.825
21
-109.34
0
LINE
8
Black
10
161.825
20
-109.34
11
161.728
21
-109.074
0
LINE
8
Black
10
161.728
20
-109.074
11
161.728
21
-108.791
0
LINE
8
Black
10
161.728
20
-108.791
11
161.825
21
-108.525
0
LINE
8
Black
10
161.825
20
-108.525
11
162.007
21
-108.308
0
LINE
8
Black
10
162.007
20
-108.308
11
162.252
21
-108.167
0
LINE
8
Black
10
162.252
20
-108.167
11
162.531
21
-108.118
0
LINE
8
Black
10
162.531
20
-108.118
11
162.809
21
-108.167
0
LINE
8
Black
10
97.1907
20
-109.715
11
96.6907
21
-109.715
0
LINE
8
Black
10
96.6907
20
-109.715
11
96.6907
21
-109.015
0
LINE
8
Black
10
96.6907
20
-109.015
11
97.1907
21
-109.015
0
LINE
8
Black
10
97.1907
20
-109.015
11
97.1907
21
-109.715
0
LINE
8
Black
10
96.2907
20
-109.715
11
95.7907
21
-109.715
0
LINE
8
Black
10
95.7907
20
-109.715
11
95.7907
21
-109.015
0
LINE
8
Black
10
95.7907
20
-109.015
11
96.2907
21
-109.015
0
LINE
8
Black
10
96.2907
20
-109.015
11
96.2907
21
-109.715
0
LINE
8
Black
10
124.474
20
-109.692
11
123.924
21
-109.692
0
LINE
8
Black
10
123.924
20
-109.692
11
123.924
21
-109.292
0
LINE
8
Black
10
123.924
20
-109.292
11
124.474
21
-109.292
0
LINE
8
Black
10
124.474
20
-109.292
11
124.474
21
-109.692
0
LINE
8
Black
10
125.874
20
-109.692
11
125.324
21
-109.692
0
LINE
8
Black
10
125.324
20
-109.692
11
125.324
21
-109.292
0
LINE
8
Black
10
125.324
20
-109.292
11
125.874
21
-109.292
0
LINE
8
Black
10
125.874
20
-109.292
11
125.874
21
-109.692
0
LINE
8
Black
10
143.865
20
-109.307
11
141.165
21
-109.307
0
LINE
8
Black
10
141.165
20
-109.307
11
141.165
21
-107.707
0
LINE
8
Black
10
141.165
20
-107.707
11
143.865
21
-107.707
0
LINE
8
Black
10
143.865
20
-107.707
11
143.865
21
-109.307
0
LINE
8
Black
10
116.162
20
-109.284
11
115.462
21
-109.284
0
LINE
8
Black
10
115.462
20
-109.284
11
115.462
21
-108.684
0
LINE
8
Black
10
115.462
20
-108.684
11
116.162
21
-108.684
0
LINE
8
Black
10
116.162
20
-108.684
11
116.162
21
-109.284
0
LINE
8
Black
10
115.062
20
-109.284
11
114.362
21
-109.284
0
LINE
8
Black
10
114.362
20
-109.284
11
114.362
21
-108.684
0
LINE
8
Black
10
114.362
20
-108.684
11
115.062
21
-108.684
0
LINE
8
Black
10
115.062
20
-108.684
11
115.062
21
-109.284
0
LINE
8
Black
10
153.985
20
-109.163
11
153.485
21
-109.163
0
LINE
8
Black
10
153.485
20
-109.163
11
153.485
21
-108.463
0
LINE
8
Black
10
153.485
20
-108.463
11
153.985
21
-108.463
0
LINE
8
Black
10
153.985
20
-108.463
11
153.985
21
-109.163
0
LINE
8
Black
10
154.885
20
-109.163
11
154.385
21
-109.163
0
LINE
8
Black
10
154.385
20
-109.163
11
154.385
21
-108.463
0
LINE
8
Black
10
154.385
20
-108.463
11
154.885
21
-108.463
0
LINE
8
Black
10
154.885
20
-108.463
11
154.885
21
-109.163
0
LINE
8
Black
10
140.656
20
-109.122
11
140.056
21
-109.122
0
LINE
8
Black
10
140.056
20
-109.122
11
140.056
21
-108.422
0
LINE
8
Black
10
140.056
20
-108.422
11
140.656
21
-108.422
0
LINE
8
Black
10
140.656
20
-108.422
11
140.656
21
-109.122
0
LINE
8
Black
10
129.409
20
-109.089
11
128.509
21
-109.089
0
LINE
8
Black
10
128.509
20
-109.089
11
128.509
21
-108.739
0
LINE
8
Black
10
128.509
20
-108.739
11
129.409
21
-108.739
0
LINE
8
Black
10
129.409
20
-108.739
11
129.409
21
-109.089
0
LINE
8
Black
10
136.609
20
-109.089
11
135.709
21
-109.089
0
LINE
8
Black
10
135.709
20
-109.089
11
135.709
21
-108.739
0
LINE
8
Black
10
135.709
20
-108.739
11
136.609
21
-108.739
0
LINE
8
Black
10
136.609
20
-108.739
11
136.609
21
-109.089
0
LINE
8
Black
10
111.497
20
-109.08
11
110.997
21
-109.08
0
LINE
8
Black
10
110.997
20
-109.08
11
110.997
21
-108.38
0
LINE
8
Black
10
110.997
20
-108.38
11
111.497
21
-108.38
0
LINE
8
Black
10
111.497
20
-108.38
11
111.497
21
-109.08
0
LINE
8
Black
10
112.397
20
-109.08
11
111.897
21
-109.08
0
LINE
8
Black
10
111.897
20
-109.08
11
111.897
21
-108.38
0
LINE
8
Black
10
111.897
20
-108.38
11
112.397
21
-108.38
0
LINE
8
Black
10
112.397
20
-108.38
11
112.397
21
-109.08
0
LINE
8
Black
10
110.619
20
-109.029
11
110.119
21
-109.029
0
LINE
8
Black
10
110.119
20
-109.029
11
110.119
21
-108.329
0
LINE
8
Black
10
110.119
20
-108.329
11
110.619
21
-108.329
0
LINE
8
Black
10
110.619
20
-108.329
11
110.619
21
-109.029
0
LINE
8
Black
10
109.719
20
-109.029
11
109.219
21
-109.029
0
LINE
8
Black
10
109.219
20
-109.029
11
109.219
21
-108.329
0
LINE
8
Black
10
109.219
20
-108.329
11
109.719
21
-108.329
0
LINE
8
Black
10
109.719
20
-108.329
11
109.719
21
-109.029
0
LINE
8
Black
10
113.749
20
-108.86
11
113.049
21
-108.86
0
LINE
8
Black
10
113.049
20
-108.86
11
113.049
21
-108.36
0
LINE
8
Black
10
113.049
20
-108.36
11
113.749
21
-108.36
0
LINE
8
Black
10
113.749
20
-108.36
11
113.749
21
-108.86
0
LINE
8
Black
10
135.209
20
-108.814
11
129.909
21
-108.814
0
LINE
8
Black
10
129.909
20
-108.814
11
129.909
21
-103.514
0
LINE
8
Black
10
129.909
20
-103.514
11
135.209
21
-103.514
0
LINE
8
Black
10
135.209
20
-103.514
11
135.209
21
-108.814
0
LINE
8
Black
10
125.348
20
-108.801
11
124.648
21
-108.801
0
LINE
8
Black
10
124.648
20
-108.801
11
124.648
21
-108.201
0
LINE
8
Black
10
124.648
20
-108.201
11
125.348
21
-108.201
0
LINE
8
Black
10
125.348
20
-108.201
11
125.348
21
-108.801
0
LINE
8
Black
10
126.448
20
-108.801
11
125.748
21
-108.801
0
LINE
8
Black
10
125.748
20
-108.801
11
125.748
21
-108.201
0
LINE
8
Black
10
125.748
20
-108.201
11
126.448
21
-108.201
0
LINE
8
Black
10
126.448
20
-108.201
11
126.448
21
-108.801
0
LINE
8
Black
10
138.429
20
-108.75
11
137.729
21
-108.75
0
LINE
8
Black
10
137.729
20
-108.75
11
137.729
21
-108.15
0
LINE
8
Black
10
137.729
20
-108.15
11
138.429
21
-108.15
0
LINE
8
Black
10
138.429
20
-108.15
11
138.429
21
-108.75
0
LINE
8
Black
10
139.529
20
-108.75
11
138.829
21
-108.75
0
LINE
8
Black
10
138.829
20
-108.75
11
138.829
21
-108.15
0
LINE
8
Black
10
138.829
20
-108.15
11
139.529
21
-108.15
0
LINE
8
Black
10
139.529
20
-108.15
11
139.529
21
-108.75
0
LINE
8
Black
10
136.609
20
-108.589
11
135.709
21
-108.589
0
LINE
8
Black
10
135.709
20
-108.589
11
135.709
21
-108.239
0
LINE
8
Black
10
135.709
20
-108.239
11
136.609
21
-108.239
0
LINE
8
Black
10
136.609
20
-108.239
11
136.609
21
-108.589
0
LINE
8
Black
10
129.409
20
-108.589
11
128.509
21
-108.589
0
LINE
8
Black
10
128.509
20
-108.589
11
128.509
21
-108.239
0
LINE
8
Black
10
128.509
20
-108.239
11
129.409
21
-108.239
0
LINE
8
Black
10
129.409
20
-108.239
11
129.409
21
-108.589
0
LINE
8
Black
10
97.1779
20
-108.479
11
96.1779
21
-108.479
0
LINE
8
Black
10
96.1779
20
-108.479
11
96.1779
21
-107.579
0
LINE
8
Black
10
96.1779
20
-107.579
11
97.1779
21
-107.579
0
LINE
8
Black
10
97.1779
20
-107.579
11
97.1779
21
-108.479
0
LINE
8
Black
10
129.409
20
-108.089
11
128.509
21
-108.089
0
LINE
8
Black
10
128.509
20
-108.089
11
128.509
21
-107.739
0
LINE
8
Black
10
128.509
20
-107.739
11
129.409
21
-107.739
0
LINE
8
Black
10
129.409
20
-107.739
11
129.409
21
-108.089
0
LINE
8
Black
10
136.609
20
-108.089
11
135.709
21
-108.089
0
LINE
8
Black
10
135.709
20
-108.089
11
135.709
21
-107.739
0
LINE
8
Black
10
135.709
20
-107.739
11
136.609
21
-107.739
0
LINE
8
Black
10
136.609
20
-107.739
11
136.609
21
-108.089
0
LINE
8
Black
10
140.656
20
-108.022
11
140.056
21
-108.022
0
LINE
8
Black
10
140.056
20
-108.022
11
140.056
21
-107.322
0
LINE
8
Black
10
140.056
20
-107.322
11
140.656
21
-107.322
0
LINE
8
Black
10
140.656
20
-107.322
11
140.656
21
-108.022
0
LINE
8
Black
10
139.52
20
-107.988
11
138.82
21
-107.988
0
LINE
8
Black
10
138.82
20
-107.988
11
138.82
21
-107.388
0
LINE
8
Black
10
138.82
20
-107.388
11
139.52
21
-107.388
0
LINE
8
Black
10
139.52
20
-107.388
11
139.52
21
-107.988
0
LINE
8
Black
10
138.42
20
-107.988
11
137.72
21
-107.988
0
LINE
8
Black
10
137.72
20
-107.988
11
137.72
21
-107.388
0
LINE
8
Black
10
137.72
20
-107.388
11
138.42
21
-107.388
0
LINE
8
Black
10
138.42
20
-107.388
11
138.42
21
-107.988
0
LINE
8
Black
10
125.348
20
-107.887
11
124.648
21
-107.887
0
LINE
8
Black
10
124.648
20
-107.887
11
124.648
21
-107.287
0
LINE
8
Black
10
124.648
20
-107.287
11
125.348
21
-107.287
0
LINE
8
Black
10
125.348
20
-107.287
11
125.348
21
-107.887
0
LINE
8
Black
10
126.448
20
-107.887
11
125.748
21
-107.887
0
LINE
8
Black
10
125.748
20
-107.887
11
125.748
21
-107.287
0
LINE
8
Black
10
125.748
20
-107.287
11
126.448
21
-107.287
0
LINE
8
Black
10
126.448
20
-107.287
11
126.448
21
-107.887
0
LINE
8
Black
10
129.409
20
-107.589
11
128.509
21
-107.589
0
LINE
8
Black
10
128.509
20
-107.589
11
128.509
21
-107.239
0
LINE
8
Black
10
128.509
20
-107.239
11
129.409
21
-107.239
0
LINE
8
Black
10
129.409
20
-107.239
11
129.409
21
-107.589
0
LINE
8
Black
10
136.609
20
-107.589
11
135.709
21
-107.589
0
LINE
8
Black
10
135.709
20
-107.589
11
135.709
21
-107.239
0
LINE
8
Black
10
135.709
20
-107.239
11
136.609
21
-107.239
0
LINE
8
Black
10
136.609
20
-107.239
11
136.609
21
-107.589
0
LINE
8
Black
10
95.1779
20
-107.529
11
94.1779
21
-107.529
0
LINE
8
Black
10
94.1779
20
-107.529
11
94.1779
21
-106.629
0
LINE
8
Black
10
94.1779
20
-106.629
11
95.1779
21
-106.629
0
LINE
8
Black
10
95.1779
20
-106.629
11
95.1779
21
-107.529
0
LINE
8
Black
10
98.3901
20
-107.474
11
97.6901
21
-107.474
0
LINE
8
Black
10
97.6901
20
-107.474
11
97.6901
21
-106.974
0
LINE
8
Black
10
97.6901
20
-106.974
11
98.3901
21
-106.974
0
LINE
8
Black
10
98.3901
20
-106.974
11
98.3901
21
-107.474
0
LINE
8
Black
10
103.374
20
-104.431
11
100.475
21
-107.33
0
LINE
8
Black
10
100.475
20
-107.33
11
98.2826
21
-105.138
0
LINE
8
Black
10
98.2826
20
-105.138
11
101.182
21
-102.239
0
LINE
8
Black
10
101.182
20
-102.239
11
103.374
21
-104.431
0
LINE
8
Black
10
136.609
20
-107.089
11
135.709
21
-107.089
0
LINE
8
Black
10
135.709
20
-107.089
11
135.709
21
-106.739
0
LINE
8
Black
10
135.709
20
-106.739
11
136.609
21
-106.739
0
LINE
8
Black
10
136.609
20
-106.739
11
136.609
21
-107.089
0
LINE
8
Black
10
129.409
20
-107.089
11
128.509
21
-107.089
0
LINE
8
Black
10
128.509
20
-107.089
11
128.509
21
-106.739
0
LINE
8
Black
10
128.509
20
-106.739
11
129.409
21
-106.739
0
LINE
8
Black
10
129.409
20
-106.739
11
129.409
21
-107.089
0
LINE
8
Black
10
126.169
20
-106.998
11
125.469
21
-106.998
0
LINE
8
Black
10
125.469
20
-106.998
11
125.469
21
-106.398
0
LINE
8
Black
10
125.469
20
-106.398
11
126.169
21
-106.398
0
LINE
8
Black
10
126.169
20
-106.398
11
126.169
21
-106.998
0
LINE
8
Black
10
125.069
20
-106.998
11
124.369
21
-106.998
0
LINE
8
Black
10
124.369
20
-106.998
11
124.369
21
-106.398
0
LINE
8
Black
10
124.369
20
-106.398
11
125.069
21
-106.398
0
LINE
8
Black
10
125.069
20
-106.398
11
125.069
21
-106.998
0
LINE
8
Black
10
140.809
20
-106.963
11
140.209
21
-106.963
0
LINE
8
Black
10
140.209
20
-106.963
11
140.209
21
-106.263
0
LINE
8
Black
10
140.209
20
-106.263
11
140.809
21
-106.263
0
LINE
8
Black
10
140.809
20
-106.263
11
140.809
21
-106.963
0
LINE
8
Black
10
143.865
20
-106.907
11
141.165
21
-106.907
0
LINE
8
Black
10
141.165
20
-106.907
11
141.165
21
-105.307
0
LINE
8
Black
10
141.165
20
-105.307
11
143.865
21
-105.307
0
LINE
8
Black
10
143.865
20
-105.307
11
143.865
21
-106.907
0
LINE
8
Black
10
138.302
20
-106.87
11
137.802
21
-106.87
0
LINE
8
Black
10
137.802
20
-106.87
11
137.802
21
-106.17
0
LINE
8
Black
10
137.802
20
-106.17
11
138.302
21
-106.17
0
LINE
8
Black
10
138.302
20
-106.17
11
138.302
21
-106.87
0
LINE
8
Black
10
139.202
20
-106.87
11
138.702
21
-106.87
0
LINE
8
Black
10
138.702
20
-106.87
11
138.702
21
-106.17
0
LINE
8
Black
10
138.702
20
-106.17
11
139.202
21
-106.17
0
LINE
8
Black
10
139.202
20
-106.17
11
139.202
21
-106.87
0
LINE
8
Black
10
136.609
20
-106.589
11
135.709
21
-106.589
0
LINE
8
Black
10
135.709
20
-106.589
11
135.709
21
-106.239
0
LINE
8
Black
10
135.709
20
-106.239
11
136.609
21
-106.239
0
LINE
8
Black
10
136.609
20
-106.239
11
136.609
21
-106.589
0
LINE
8
Black
10
129.409
20
-106.589
11
128.509
21
-106.589
0
LINE
8
Black
10
128.509
20
-106.589
11
128.509
21
-106.239
0
LINE
8
Black
10
128.509
20
-106.239
11
129.409
21
-106.239
0
LINE
8
Black
10
129.409
20
-106.239
11
129.409
21
-106.589
0
LINE
8
Black
10
97.1779
20
-106.579
11
96.1779
21
-106.579
0
LINE
8
Black
10
96.1779
20
-106.579
11
96.1779
21
-105.679
0
LINE
8
Black
10
96.1779
20
-105.679
11
97.1779
21
-105.679
0
LINE
8
Black
10
97.1779
20
-105.679
11
97.1779
21
-106.579
0
LINE
8
Black
10
98.3901
20
-106.574
11
97.6901
21
-106.574
0
LINE
8
Black
10
97.6901
20
-106.574
11
97.6901
21
-106.074
0
LINE
8
Black
10
97.6901
20
-106.074
11
98.3901
21
-106.074
0
LINE
8
Black
10
98.3901
20
-106.074
11
98.3901
21
-106.574
0
LINE
8
Black
10
108.178
20
-106.343
11
107.278
21
-106.343
0
LINE
8
Black
10
107.278
20
-106.343
11
107.278
21
-105.343
0
LINE
8
Black
10
107.278
20
-105.343
11
108.178
21
-105.343
0
LINE
8
Black
10
108.178
20
-105.343
11
108.178
21
-106.343
0
LINE
8
Black
10
106.278
20
-106.343
11
105.378
21
-106.343
0
LINE
8
Black
10
105.378
20
-106.343
11
105.378
21
-105.343
0
LINE
8
Black
10
105.378
20
-105.343
11
106.278
21
-105.343
0
LINE
8
Black
10
106.278
20
-105.343
11
106.278
21
-106.343
0
LINE
8
Black
10
136.609
20
-106.089
11
135.709
21
-106.089
0
LINE
8
Black
10
135.709
20
-106.089
11
135.709
21
-105.739
0
LINE
8
Black
10
135.709
20
-105.739
11
136.609
21
-105.739
0
LINE
8
Black
10
136.609
20
-105.739
11
136.609
21
-106.089
0
LINE
8
Black
10
129.409
20
-106.089
11
128.509
21
-106.089
0
LINE
8
Black
10
128.509
20
-106.089
11
128.509
21
-105.739
0
LINE
8
Black
10
128.509
20
-105.739
11
129.409
21
-105.739
0
LINE
8
Black
10
129.409
20
-105.739
11
129.409
21
-106.089
0
LINE
8
Black
10
125.069
20
-106.083
11
124.369
21
-106.083
0
LINE
8
Black
10
124.369
20
-106.083
11
124.369
21
-105.483
0
LINE
8
Black
10
124.369
20
-105.483
11
125.069
21
-105.483
0
LINE
8
Black
10
125.069
20
-105.483
11
125.069
21
-106.083
0
LINE
8
Black
10
126.169
20
-106.083
11
125.469
21
-106.083
0
LINE
8
Black
10
125.469
20
-106.083
11
125.469
21
-105.483
0
LINE
8
Black
10
125.469
20
-105.483
11
126.169
21
-105.483
0
LINE
8
Black
10
126.169
20
-105.483
11
126.169
21
-106.083
0
LINE
8
Black
10
140.809
20
-105.863
11
140.209
21
-105.863
0
LINE
8
Black
10
140.209
20
-105.863
11
140.209
21
-105.163
0
LINE
8
Black
10
140.209
20
-105.163
11
140.809
21
-105.163
0
LINE
8
Black
10
140.809
20
-105.163
11
140.809
21
-105.863
0
LINE
8
Black
10
94.7554
20
-105.198
11
94.2684
21
-105.833
0
LINE
8
Black
10
94.2684
20
-105.833
11
93.1577
21
-104.98
0
LINE
8
Black
10
93.1577
20
-104.98
11
93.6447
21
-104.346
0
LINE
8
Black
10
93.6447
20
-104.346
11
94.7554
21
-105.198
0
LINE
8
Black
10
138.997
20
-105.804
11
138.297
21
-105.804
0
LINE
8
Black
10
138.297
20
-105.804
11
138.297
21
-105.204
0
LINE
8
Black
10
138.297
20
-105.204
11
138.997
21
-105.204
0
LINE
8
Black
10
138.997
20
-105.204
11
138.997
21
-105.804
0
LINE
8
Black
10
140.097
20
-105.804
11
139.397
21
-105.804
0
LINE
8
Black
10
139.397
20
-105.804
11
139.397
21
-105.204
0
LINE
8
Black
10
139.397
20
-105.204
11
140.097
21
-105.204
0
LINE
8
Black
10
140.097
20
-105.204
11
140.097
21
-105.804
0
LINE
8
Black
10
136.609
20
-105.589
11
135.709
21
-105.589
0
LINE
8
Black
10
135.709
20
-105.589
11
135.709
21
-105.239
0
LINE
8
Black
10
135.709
20
-105.239
11
136.609
21
-105.239
0
LINE
8
Black
10
136.609
20
-105.239
11
136.609
21
-105.589
0
LINE
8
Black
10
129.409
20
-105.589
11
128.509
21
-105.589
0
LINE
8
Black
10
128.509
20
-105.589
11
128.509
21
-105.239
0
LINE
8
Black
10
128.509
20
-105.239
11
129.409
21
-105.239
0
LINE
8
Black
10
129.409
20
-105.239
11
129.409
21
-105.589
0
LINE
8
Black
10
109.651
20
-105.193
11
109.151
21
-105.193
0
LINE
8
Black
10
109.151
20
-105.193
11
109.151
21
-104.493
0
LINE
8
Black
10
109.151
20
-104.493
11
109.651
21
-104.493
0
LINE
8
Black
10
109.651
20
-104.493
11
109.651
21
-105.193
0
LINE
8
Black
10
110.551
20
-105.193
11
110.051
21
-105.193
0
LINE
8
Black
10
110.051
20
-105.193
11
110.051
21
-104.493
0
LINE
8
Black
10
110.051
20
-104.493
11
110.551
21
-104.493
0
LINE
8
Black
10
110.551
20
-104.493
11
110.551
21
-105.193
0
LINE
8
Black
10
136.609
20
-105.089
11
135.709
21
-105.089
0
LINE
8
Black
10
135.709
20
-105.089
11
135.709
21
-104.739
0
LINE
8
Black
10
135.709
20
-104.739
11
136.609
21
-104.739
0
LINE
8
Black
10
136.609
20
-104.739
11
136.609
21
-105.089
0
LINE
8
Black
10
129.409
20
-105.089
11
128.509
21
-105.089
0
LINE
8
Black
10
128.509
20
-105.089
11
128.509
21
-104.739
0
LINE
8
Black
10
128.509
20
-104.739
11
129.409
21
-104.739
0
LINE
8
Black
10
129.409
20
-104.739
11
129.409
21
-105.089
0
LINE
8
Black
10
124.935
20
-103.982
11
123.117
21
-105.032
0
LINE
8
Black
10
123.117
20
-105.032
11
122.767
21
-104.426
0
LINE
8
Black
10
122.767
20
-104.426
11
124.585
21
-103.376
0
LINE
8
Black
10
124.585
20
-103.376
11
124.935
21
-103.982
0
LINE
8
Black
10
139.013
20
-104.864
11
138.313
21
-104.864
0
LINE
8
Black
10
138.313
20
-104.864
11
138.313
21
-104.264
0
LINE
8
Black
10
138.313
20
-104.264
11
139.013
21
-104.264
0
LINE
8
Black
10
139.013
20
-104.264
11
139.013
21
-104.864
0
LINE
8
Black
10
140.113
20
-104.864
11
139.413
21
-104.864
0
LINE
8
Black
10
139.413
20
-104.864
11
139.413
21
-104.264
0
LINE
8
Black
10
139.413
20
-104.264
11
140.113
21
-104.264
0
LINE
8
Black
10
140.113
20
-104.264
11
140.113
21
-104.864
0
LINE
8
Black
10
100.899
20
-101.956
11
97.9998
21
-104.855
0
LINE
8
Black
10
97.9998
20
-104.855
11
95.8078
21
-102.663
0
LINE
8
Black
10
95.8078
20
-102.663
11
98.7069
21
-99.7638
0
LINE
8
Black
10
98.7069
20
-99.7638
11
100.899
21
-101.956
0
LINE
8
Black
10
136.609
20
-104.589
11
135.709
21
-104.589
0
LINE
8
Black
10
135.709
20
-104.589
11
135.709
21
-104.239
0
LINE
8
Black
10
135.709
20
-104.239
11
136.609
21
-104.239
0
LINE
8
Black
10
136.609
20
-104.239
11
136.609
21
-104.589
0
LINE
8
Black
10
129.409
20
-104.589
11
128.509
21
-104.589
0
LINE
8
Black
10
128.509
20
-104.589
11
128.509
21
-104.239
0
LINE
8
Black
10
128.509
20
-104.239
11
129.409
21
-104.239
0
LINE
8
Black
10
129.409
20
-104.239
11
129.409
21
-104.589
0
LINE
8
Black
10
107.228
20
-104.343
11
106.328
21
-104.343
0
LINE
8
Black
10
106.328
20
-104.343
11
106.328
21
-103.343
0
LINE
8
Black
10
106.328
20
-103.343
11
107.228
21
-103.343
0
LINE
8
Black
10
107.228
20
-103.343
11
107.228
21
-104.343
0
LINE
8
Black
10
95.9121
20
-103.691
11
95.4251
21
-104.325
0
LINE
8
Black
10
95.4251
20
-104.325
11
94.3144
21
-103.473
0
LINE
8
Black
10
94.3144
20
-103.473
11
94.8014
21
-102.838
0
LINE
8
Black
10
94.8014
20
-102.838
11
95.9121
21
-103.691
0
LINE
8
Black
10
129.409
20
-104.089
11
128.509
21
-104.089
0
LINE
8
Black
10
128.509
20
-104.089
11
128.509
21
-103.739
0
LINE
8
Black
10
128.509
20
-103.739
11
129.409
21
-103.739
0
LINE
8
Black
10
129.409
20
-103.739
11
129.409
21
-104.089
0
LINE
8
Black
10
136.609
20
-104.089
11
135.709
21
-104.089
0
LINE
8
Black
10
135.709
20
-104.089
11
135.709
21
-103.739
0
LINE
8
Black
10
135.709
20
-103.739
11
136.609
21
-103.739
0
LINE
8
Black
10
136.609
20
-103.739
11
136.609
21
-104.089
0
LINE
8
Black
10
140.097
20
-103.95
11
139.397
21
-103.95
0
LINE
8
Black
10
139.397
20
-103.95
11
139.397
21
-103.35
0
LINE
8
Black
10
139.397
20
-103.35
11
140.097
21
-103.35
0
LINE
8
Black
10
140.097
20
-103.35
11
140.097
21
-103.95
0
LINE
8
Black
10
138.997
20
-103.95
11
138.297
21
-103.95
0
LINE
8
Black
10
138.297
20
-103.95
11
138.297
21
-103.35
0
LINE
8
Black
10
138.297
20
-103.35
11
138.997
21
-103.35
0
LINE
8
Black
10
138.997
20
-103.35
11
138.997
21
-103.95
0
LINE
8
Black
10
124.3
20
-102.882
11
122.482
21
-103.932
0
LINE
8
Black
10
122.482
20
-103.932
11
122.132
21
-103.326
0
LINE
8
Black
10
122.132
20
-103.326
11
123.95
21
-102.276
0
LINE
8
Black
10
123.95
20
-102.276
11
124.3
21
-102.882
0
LINE
8
Black
10
109.833
20
-103.822
11
109.333
21
-103.822
0
LINE
8
Black
10
109.333
20
-103.822
11
109.333
21
-103.122
0
LINE
8
Black
10
109.333
20
-103.122
11
109.833
21
-103.122
0
LINE
8
Black
10
109.833
20
-103.122
11
109.833
21
-103.822
0
LINE
8
Black
10
108.933
20
-103.822
11
108.433
21
-103.822
0
LINE
8
Black
10
108.433
20
-103.822
11
108.433
21
-103.122
0
LINE
8
Black
10
108.433
20
-103.122
11
108.933
21
-103.122
0
LINE
8
Black
10
108.933
20
-103.122
11
108.933
21
-103.822
0
LINE
8
Black
10
129.409
20
-103.589
11
128.509
21
-103.589
0
LINE
8
Black
10
128.509
20
-103.589
11
128.509
21
-103.239
0
LINE
8
Black
10
128.509
20
-103.239
11
129.409
21
-103.239
0
LINE
8
Black
10
129.409
20
-103.239
11
129.409
21
-103.589
0
LINE
8
Black
10
136.609
20
-103.589
11
135.709
21
-103.589
0
LINE
8
Black
10
135.709
20
-103.589
11
135.709
21
-103.239
0
LINE
8
Black
10
135.709
20
-103.239
11
136.609
21
-103.239
0
LINE
8
Black
10
136.609
20
-103.239
11
136.609
21
-103.589
0
LINE
8
Black
10
107.334
20
-100.471
11
104.434
21
-103.37
0
LINE
8
Black
10
104.434
20
-103.37
11
102.242
21
-101.178
0
LINE
8
Black
10
102.242
20
-101.178
11
105.142
21
-98.2788
0
LINE
8
Black
10
105.142
20
-98.2788
11
107.334
21
-100.471
0
LINE
8
Black
10
108.382
20
-102.527
11
107.817
21
-103.093
0
LINE
8
Black
10
107.817
20
-103.093
11
106.827
21
-102.103
0
LINE
8
Black
10
106.827
20
-102.103
11
107.392
21
-101.537
0
LINE
8
Black
10
107.392
20
-101.537
11
108.382
21
-102.527
0
LINE
8
Black
10
133.984
20
-103.014
11
133.634
21
-103.014
0
LINE
8
Black
10
133.634
20
-103.014
11
133.634
21
-102.114
0
LINE
8
Black
10
133.634
20
-102.114
11
133.984
21
-102.114
0
LINE
8
Black
10
133.984
20
-102.114
11
133.984
21
-103.014
0
LINE
8
Black
10
135.484
20
-103.014
11
135.134
21
-103.014
0
LINE
8
Black
10
135.134
20
-103.014
11
135.134
21
-102.114
0
LINE
8
Black
10
135.134
20
-102.114
11
135.484
21
-102.114
0
LINE
8
Black
10
135.484
20
-102.114
11
135.484
21
-103.014
0
LINE
8
Black
10
134.484
20
-103.014
11
134.134
21
-103.014
0
LINE
8
Black
10
134.134
20
-103.014
11
134.134
21
-102.114
0
LINE
8
Black
10
134.134
20
-102.114
11
134.484
21
-102.114
0
LINE
8
Black
10
134.484
20
-102.114
11
134.484
21
-103.014
0
LINE
8
Black
10
129.984
20
-103.014
11
129.634
21
-103.014
0
LINE
8
Black
10
129.634
20
-103.014
11
129.634
21
-102.114
0
LINE
8
Black
10
129.634
20
-102.114
11
129.984
21
-102.114
0
LINE
8
Black
10
129.984
20
-102.114
11
129.984
21
-103.014
0
LINE
8
Black
10
130.484
20
-103.014
11
130.134
21
-103.014
0
LINE
8
Black
10
130.134
20
-103.014
11
130.134
21
-102.114
0
LINE
8
Black
10
130.134
20
-102.114
11
130.484
21
-102.114
0
LINE
8
Black
10
130.484
20
-102.114
11
130.484
21
-103.014
0
LINE
8
Black
10
130.984
20
-103.014
11
130.634
21
-103.014
0
LINE
8
Black
10
130.634
20
-103.014
11
130.634
21
-102.114
0
LINE
8
Black
10
130.634
20
-102.114
11
130.984
21
-102.114
0
LINE
8
Black
10
130.984
20
-102.114
11
130.984
21
-103.014
0
LINE
8
Black
10
131.484
20
-103.014
11
131.134
21
-103.014
0
LINE
8
Black
10
131.134
20
-103.014
11
131.134
21
-102.114
0
LINE
8
Black
10
131.134
20
-102.114
11
131.484
21
-102.114
0
LINE
8
Black
10
131.484
20
-102.114
11
131.484
21
-103.014
0
LINE
8
Black
10
131.984
20
-103.014
11
131.634
21
-103.014
0
LINE
8
Black
10
131.634
20
-103.014
11
131.634
21
-102.114
0
LINE
8
Black
10
131.634
20
-102.114
11
131.984
21
-102.114
0
LINE
8
Black
10
131.984
20
-102.114
11
131.984
21
-103.014
0
LINE
8
Black
10
132.484
20
-103.014
11
132.134
21
-103.014
0
LINE
8
Black
10
132.134
20
-103.014
11
132.134
21
-102.114
0
LINE
8
Black
10
132.134
20
-102.114
11
132.484
21
-102.114
0
LINE
8
Black
10
132.484
20
-102.114
11
132.484
21
-103.014
0
LINE
8
Black
10
132.984
20
-103.014
11
132.634
21
-103.014
0
LINE
8
Black
10
132.634
20
-103.014
11
132.634
21
-102.114
0
LINE
8
Black
10
132.634
20
-102.114
11
132.984
21
-102.114
0
LINE
8
Black
10
132.984
20
-102.114
11
132.984
21
-103.014
0
LINE
8
Black
10
133.484
20
-103.014
11
133.134
21
-103.014
0
LINE
8
Black
10
133.134
20
-103.014
11
133.134
21
-102.114
0
LINE
8
Black
10
133.134
20
-102.114
11
133.484
21
-102.114
0
LINE
8
Black
10
133.484
20
-102.114
11
133.484
21
-103.014
0
LINE
8
Black
10
134.984
20
-103.014
11
134.634
21
-103.014
0
LINE
8
Black
10
134.634
20
-103.014
11
134.634
21
-102.114
0
LINE
8
Black
10
134.634
20
-102.114
11
134.984
21
-102.114
0
LINE
8
Black
10
134.984
20
-102.114
11
134.984
21
-103.014
0
LINE
8
Black
10
123.665
20
-101.782
11
121.847
21
-102.832
0
LINE
8
Black
10
121.847
20
-102.832
11
121.497
21
-102.226
0
LINE
8
Black
10
121.497
20
-102.226
11
123.315
21
-101.176
0
LINE
8
Black
10
123.315
20
-101.176
11
123.665
21
-101.782
0
LINE
8
Black
10
154.409
20
-97.157
11
155.267
21
-97.6527
0
LINE
8
Black
10
155.267
20
-97.6527
11
155.905
21
-98.4123
0
LINE
8
Black
10
155.905
20
-98.4123
11
156.244
21
-99.3439
0
LINE
8
Black
10
156.244
20
-99.3439
11
156.244
21
-100.335
0
LINE
8
Black
10
156.244
20
-100.335
11
155.905
21
-101.267
0
LINE
8
Black
10
155.905
20
-101.267
11
155.267
21
-102.027
0
LINE
8
Black
10
155.267
20
-102.027
11
154.409
21
-102.522
0
LINE
8
Black
10
154.409
20
-102.522
11
153.432
21
-102.695
0
LINE
8
Black
10
153.432
20
-102.695
11
152.456
21
-102.522
0
LINE
8
Black
10
152.456
20
-102.522
11
151.597
21
-102.027
0
LINE
8
Black
10
151.597
20
-102.027
11
150.96
21
-101.267
0
LINE
8
Black
10
150.96
20
-101.267
11
150.621
21
-100.335
0
LINE
8
Black
10
150.621
20
-100.335
11
150.621
21
-99.3439
0
LINE
8
Black
10
150.621
20
-99.3439
11
150.96
21
-98.4123
0
LINE
8
Black
10
150.96
20
-98.4123
11
151.597
21
-97.6527
0
LINE
8
Black
10
151.597
20
-97.6527
11
152.456
21
-97.157
0
LINE
8
Black
10
152.456
20
-97.157
11
153.432
21
-96.9848
0
LINE
8
Black
10
153.432
20
-96.9848
11
154.409
21
-97.157
0
LINE
8
Black
10
111.679
20
-101.075
11
111.924
21
-101.217
0
LINE
8
Black
10
111.924
20
-101.217
11
112.106
21
-101.434
0
LINE
8
Black
10
112.106
20
-101.434
11
112.203
21
-101.7
0
LINE
8
Black
10
112.203
20
-101.7
11
112.203
21
-101.983
0
LINE
8
Black
10
112.203
20
-101.983
11
112.106
21
-102.249
0
LINE
8
Black
10
112.106
20
-102.249
11
111.924
21
-102.466
0
LINE
8
Black
10
111.924
20
-102.466
11
111.679
21
-102.607
0
LINE
8
Black
10
111.679
20
-102.607
11
111.4
21
-102.656
0
LINE
8
Black
10
111.4
20
-102.656
11
111.122
21
-102.607
0
LINE
8
Black
10
111.122
20
-102.607
11
110.877
21
-102.466
0
LINE
8
Black
10
110.877
20
-102.466
11
110.695
21
-102.249
0
LINE
8
Black
10
110.695
20
-102.249
11
110.598
21
-101.983
0
LINE
8
Black
10
110.598
20
-101.983
11
110.598
21
-101.7
0
LINE
8
Black
10
110.598
20
-101.7
11
110.695
21
-101.434
0
LINE
8
Black
10
110.695
20
-101.434
11
110.877
21
-101.217
0
LINE
8
Black
10
110.877
20
-101.217
11
111.122
21
-101.075
0
LINE
8
Black
10
111.122
20
-101.075
11
111.4
21
-101.026
0
LINE
8
Black
10
111.4
20
-101.026
11
111.679
21
-101.075
0
LINE
8
Black
10
139.039
20
-102.628
11
138.539
21
-102.628
0
LINE
8
Black
10
138.539
20
-102.628
11
138.539
21
-101.928
0
LINE
8
Black
10
138.539
20
-101.928
11
139.039
21
-101.928
0
LINE
8
Black
10
139.039
20
-101.928
11
139.039
21
-102.628
0
LINE
8
Black
10
139.939
20
-102.628
11
139.439
21
-102.628
0
LINE
8
Black
10
139.439
20
-102.628
11
139.439
21
-101.928
0
LINE
8
Black
10
139.439
20
-101.928
11
139.939
21
-101.928
0
LINE
8
Black
10
139.939
20
-101.928
11
139.939
21
-102.628
0
LINE
8
Black
10
109.726
20
-101.183
11
109.16
21
-101.749
0
LINE
8
Black
10
109.16
20
-101.749
11
108.17
21
-100.759
0
LINE
8
Black
10
108.17
20
-100.759
11
108.736
21
-100.194
0
LINE
8
Black
10
108.736
20
-100.194
11
109.726
21
-101.183
0
LINE
8
Black
10
123.03
20
-100.682
11
121.212
21
-101.732
0
LINE
8
Black
10
121.212
20
-101.732
11
120.862
21
-101.126
0
LINE
8
Black
10
120.862
20
-101.126
11
122.68
21
-100.076
0
LINE
8
Black
10
122.68
20
-100.076
11
123.03
21
-100.682
0
LINE
8
Black
10
104.859
20
-97.996
11
101.96
21
-100.895
0
LINE
8
Black
10
101.96
20
-100.895
11
99.7676
21
-98.7031
0
LINE
8
Black
10
99.7676
20
-98.7031
11
102.667
21
-95.804
0
LINE
8
Black
10
102.667
20
-95.804
11
104.859
21
-97.996
0
LINE
8
Black
10
122.395
20
-99.5823
11
120.577
21
-100.632
0
LINE
8
Black
10
120.577
20
-100.632
11
120.227
21
-100.026
0
LINE
8
Black
10
120.227
20
-100.026
11
122.045
21
-98.9761
0
LINE
8
Black
10
122.045
20
-98.9761
11
122.395
21
-99.5823
0
LINE
8
Black
10
136.846
20
-99.7491
11
136.246
21
-99.7491
0
LINE
8
Black
10
136.246
20
-99.7491
11
136.246
21
-99.0491
0
LINE
8
Black
10
136.246
20
-99.0491
11
136.846
21
-99.0491
0
LINE
8
Black
10
136.846
20
-99.0491
11
136.846
21
-99.7491
0
LINE
8
Black
10
135.83
20
-99.7491
11
135.23
21
-99.7491
0
LINE
8
Black
10
135.23
20
-99.7491
11
135.23
21
-99.0491
0
LINE
8
Black
10
135.23
20
-99.0491
11
135.83
21
-99.0491
0
LINE
8
Black
10
135.83
20
-99.0491
11
135.83
21
-99.7491
0
LINE
8
Black
10
118.864
20
-99.3986
11
118.258
21
-99.7486
0
LINE
8
Black
10
118.258
20
-99.7486
11
118.008
21
-99.3156
0
LINE
8
Black
10
118.008
20
-99.3156
11
118.614
21
-98.9656
0
LINE
8
Black
10
118.614
20
-98.9656
11
118.864
21
-99.3986
0
LINE
8
Black
10
121.76
20
-98.4825
11
119.942
21
-99.5325
0
LINE
8
Black
10
119.942
20
-99.5325
11
119.592
21
-98.9263
0
LINE
8
Black
10
119.592
20
-98.9263
11
121.41
21
-97.8763
0
LINE
8
Black
10
121.41
20
-97.8763
11
121.76
21
-98.4825
0
LINE
8
Black
10
134.635
20
-98.3817
11
132.816
21
-99.4317
0
LINE
8
Black
10
132.816
20
-99.4317
11
132.466
21
-98.8255
0
LINE
8
Black
10
132.466
20
-98.8255
11
134.285
21
-97.7755
0
LINE
8
Black
10
134.285
20
-97.7755
11
134.635
21
-98.3817
0
LINE
8
Black
10
147.336
20
-97.6056
11
147.581
21
-97.7472
0
LINE
8
Black
10
147.581
20
-97.7472
11
147.763
21
-97.964
0
LINE
8
Black
10
147.763
20
-97.964
11
147.86
21
-98.23
0
LINE
8
Black
10
147.86
20
-98.23
11
147.86
21
-98.5131
0
LINE
8
Black
10
147.86
20
-98.5131
11
147.763
21
-98.7791
0
LINE
8
Black
10
147.763
20
-98.7791
11
147.581
21
-98.996
0
LINE
8
Black
10
147.581
20
-98.996
11
147.336
21
-99.1375
0
LINE
8
Black
10
147.336
20
-99.1375
11
147.057
21
-99.1867
0
LINE
8
Black
10
147.057
20
-99.1867
11
146.778
21
-99.1375
0
LINE
8
Black
10
146.778
20
-99.1375
11
146.533
21
-98.996
0
LINE
8
Black
10
146.533
20
-98.996
11
146.351
21
-98.7791
0
LINE
8
Black
10
146.351
20
-98.7791
11
146.254
21
-98.5131
0
LINE
8
Black
10
146.254
20
-98.5131
11
146.254
21
-98.23
0
LINE
8
Black
10
146.254
20
-98.23
11
146.351
21
-97.964
0
LINE
8
Black
10
146.351
20
-97.964
11
146.533
21
-97.7472
0
LINE
8
Black
10
146.533
20
-97.7472
11
146.778
21
-97.6056
0
LINE
8
Black
10
146.778
20
-97.6056
11
147.057
21
-97.5565
0
LINE
8
Black
10
147.057
20
-97.5565
11
147.336
21
-97.6056
0
LINE
8
Black
10
118.414
20
-98.6192
11
117.808
21
-98.9692
0
LINE
8
Black
10
117.808
20
-98.9692
11
117.558
21
-98.5362
0
LINE
8
Black
10
117.558
20
-98.5362
11
118.164
21
-98.1862
0
LINE
8
Black
10
118.164
20
-98.1862
11
118.414
21
-98.6192
0
LINE
8
Black
10
135.83
20
-98.6491
11
135.23
21
-98.6491
0
LINE
8
Black
10
135.23
20
-98.6491
11
135.23
21
-97.9491
0
LINE
8
Black
10
135.23
20
-97.9491
11
135.83
21
-97.9491
0
LINE
8
Black
10
135.83
20
-97.9491
11
135.83
21
-98.6491
0
LINE
8
Black
10
136.846
20
-98.6491
11
136.246
21
-98.6491
0
LINE
8
Black
10
136.246
20
-98.6491
11
136.246
21
-97.9491
0
LINE
8
Black
10
136.246
20
-97.9491
11
136.846
21
-97.9491
0
LINE
8
Black
10
136.846
20
-97.9491
11
136.846
21
-98.6491
0
LINE
8
Black
10
116.763
20
-98.3418
11
116.243
21
-98.6418
0
LINE
8
Black
10
116.243
20
-98.6418
11
115.893
21
-98.0356
0
LINE
8
Black
10
115.893
20
-98.0356
11
116.413
21
-97.7356
0
LINE
8
Black
10
116.413
20
-97.7356
11
116.763
21
-98.3418
0
LINE
8
Black
10
121.125
20
-97.3826
11
119.307
21
-98.4326
0
LINE
8
Black
10
119.307
20
-98.4326
11
118.957
21
-97.8264
0
LINE
8
Black
10
118.957
20
-97.8264
11
120.775
21
-96.7764
0
LINE
8
Black
10
120.775
20
-96.7764
11
121.125
21
-97.3826
0
LINE
8
Black
10
134
20
-97.2819
11
132.181
21
-98.3319
0
LINE
8
Black
10
132.181
20
-98.3319
11
131.831
21
-97.7257
0
LINE
8
Black
10
131.831
20
-97.7257
11
133.65
21
-96.6757
0
LINE
8
Black
10
133.65
20
-96.6757
11
134
21
-97.2819
0
LINE
8
Black
10
106.405
20
-98.0251
11
105.605
21
-98.0251
0
LINE
8
Black
10
105.605
20
-98.0251
11
105.605
21
-96.6251
0
LINE
8
Black
10
105.605
20
-96.6251
11
106.405
21
-96.6251
0
LINE
8
Black
10
106.405
20
-96.6251
11
106.405
21
-98.0251
0
LINE
8
Black
10
108.305
20
-98.0251
11
107.505
21
-98.0251
0
LINE
8
Black
10
107.505
20
-98.0251
11
107.505
21
-96.6251
0
LINE
8
Black
10
107.505
20
-96.6251
11
108.305
21
-96.6251
0
LINE
8
Black
10
108.305
20
-96.6251
11
108.305
21
-98.0251
0
LINE
8
Black
10
117.88
20
-97.6814
11
117.361
21
-97.9814
0
LINE
8
Black
10
117.361
20
-97.9814
11
117.011
21
-97.3752
0
LINE
8
Black
10
117.011
20
-97.3752
11
117.53
21
-97.0752
0
LINE
8
Black
10
117.53
20
-97.0752
11
117.88
21
-97.6814
0
LINE
8
Black
10
116.213
20
-97.3892
11
115.693
21
-97.6892
0
LINE
8
Black
10
115.693
20
-97.6892
11
115.343
21
-97.0829
0
LINE
8
Black
10
115.343
20
-97.0829
11
115.863
21
-96.7829
0
LINE
8
Black
10
115.863
20
-96.7829
11
116.213
21
-97.3892
0
LINE
8
Black
10
120.49
20
-96.2828
11
118.672
21
-97.3328
0
LINE
8
Black
10
118.672
20
-97.3328
11
118.322
21
-96.7266
0
LINE
8
Black
10
118.322
20
-96.7266
11
120.14
21
-95.6766
0
LINE
8
Black
10
120.14
20
-95.6766
11
120.49
21
-96.2828
0
LINE
8
Black
10
133.365
20
-96.182
11
131.546
21
-97.232
0
LINE
8
Black
10
131.546
20
-97.232
11
131.196
21
-96.6258
0
LINE
8
Black
10
131.196
20
-96.6258
11
133.015
21
-95.5758
0
LINE
8
Black
10
133.015
20
-95.5758
11
133.365
21
-96.182
0
LINE
8
Black
10
117.33
20
-96.7288
11
116.811
21
-97.0288
0
LINE
8
Black
10
116.811
20
-97.0288
11
116.461
21
-96.4225
0
LINE
8
Black
10
116.461
20
-96.4225
11
116.98
21
-96.1225
0
LINE
8
Black
10
116.98
20
-96.1225
11
117.33
21
-96.7288
0
LINE
8
Black
10
144.005
20
-96.8591
11
142.905
21
-96.8591
0
LINE
8
Black
10
142.905
20
-96.8591
11
142.905
21
-95.7591
0
LINE
8
Black
10
142.905
20
-95.7591
11
144.005
21
-95.7591
0
LINE
8
Black
10
144.005
20
-95.7591
11
144.005
21
-96.8591
0
LINE
8
Black
10
142.375
20
-95.7923
11
142.541
21
-95.8878
0
LINE
8
Black
10
142.541
20
-95.8878
11
142.664
21
-96.0341
0
LINE
8
Black
10
142.664
20
-96.0341
11
142.729
21
-96.2136
0
LINE
8
Black
10
142.729
20
-96.2136
11
142.729
21
-96.4046
0
LINE
8
Black
10
142.729
20
-96.4046
11
142.664
21
-96.5841
0
LINE
8
Black
10
142.664
20
-96.5841
11
142.541
21
-96.7304
0
LINE
8
Black
10
142.541
20
-96.7304
11
142.375
21
-96.8259
0
LINE
8
Black
10
142.375
20
-96.8259
11
142.187
21
-96.8591
0
LINE
8
Black
10
142.187
20
-96.8591
11
142.183
21
-96.8591
0
LINE
8
Black
10
142.183
20
-96.8591
11
141.995
21
-96.8259
0
LINE
8
Black
10
141.995
20
-96.8259
11
141.83
21
-96.7304
0
LINE
8
Black
10
141.83
20
-96.7304
11
141.707
21
-96.5841
0
LINE
8
Black
10
141.707
20
-96.5841
11
141.642
21
-96.4046
0
LINE
8
Black
10
141.642
20
-96.4046
11
141.642
21
-96.2136
0
LINE
8
Black
10
141.642
20
-96.2136
11
141.707
21
-96.0341
0
LINE
8
Black
10
141.707
20
-96.0341
11
141.83
21
-95.8878
0
LINE
8
Black
10
141.83
20
-95.8878
11
141.995
21
-95.7923
0
LINE
8
Black
10
141.995
20
-95.7923
11
142.183
21
-95.7591
0
LINE
8
Black
10
142.183
20
-95.7591
11
142.187
21
-95.7591
0
LINE
8
Black
10
142.187
20
-95.7591
11
142.375
21
-95.7923
0
LINE
8
Black
10
139.329
20
-96.7353
11
138.829
21
-96.7353
0
LINE
8
Black
10
138.829
20
-96.7353
11
138.829
21
-96.0353
0
LINE
8
Black
10
138.829
20
-96.0353
11
139.329
21
-96.0353
0
LINE
8
Black
10
139.329
20
-96.0353
11
139.329
21
-96.7353
0
LINE
8
Black
10
138.429
20
-96.7353
11
137.929
21
-96.7353
0
LINE
8
Black
10
137.929
20
-96.7353
11
137.929
21
-96.0353
0
LINE
8
Black
10
137.929
20
-96.0353
11
138.429
21
-96.0353
0
LINE
8
Black
10
138.429
20
-96.0353
11
138.429
21
-96.7353
0
LINE
8
Black
10
140.879
20
-96.7353
11
140.379
21
-96.7353
0
LINE
8
Black
10
140.379
20
-96.7353
11
140.379
21
-96.0353
0
LINE
8
Black
10
140.379
20
-96.0353
11
140.879
21
-96.0353
0
LINE
8
Black
10
140.879
20
-96.0353
11
140.879
21
-96.7353
0
LINE
8
Black
10
139.979
20
-96.7353
11
139.479
21
-96.7353
0
LINE
8
Black
10
139.479
20
-96.7353
11
139.479
21
-96.0353
0
LINE
8
Black
10
139.479
20
-96.0353
11
139.979
21
-96.0353
0
LINE
8
Black
10
139.979
20
-96.0353
11
139.979
21
-96.7353
0
LINE
8
Black
10
119.855
20
-95.1829
11
118.037
21
-96.2329
0
LINE
8
Black
10
118.037
20
-96.2329
11
117.687
21
-95.6267
0
LINE
8
Black
10
117.687
20
-95.6267
11
119.505
21
-94.5767
0
LINE
8
Black
10
119.505
20
-94.5767
11
119.855
21
-95.1829
0
LINE
8
Black
10
132.73
20
-95.0822
11
130.911
21
-96.1322
0
LINE
8
Black
10
130.911
20
-96.1322
11
130.561
21
-95.526
0
LINE
8
Black
10
130.561
20
-95.526
11
132.38
21
-94.476
0
LINE
8
Black
10
132.38
20
-94.476
11
132.73
21
-95.0822
0
LINE
8
Black
10
105.525
20
-96.0175
11
104.525
21
-96.0175
0
LINE
8
Black
10
104.525
20
-96.0175
11
104.525
21
-95.1175
0
LINE
8
Black
10
104.525
20
-95.1175
11
105.525
21
-95.1175
0
LINE
8
Black
10
105.525
20
-95.1175
11
105.525
21
-96.0175
0
LINE
8
Black
10
108.711
20
-95.8971
11
108.211
21
-95.8971
0
LINE
8
Black
10
108.211
20
-95.8971
11
108.211
21
-95.1971
0
LINE
8
Black
10
108.211
20
-95.1971
11
108.711
21
-95.1971
0
LINE
8
Black
10
108.711
20
-95.1971
11
108.711
21
-95.8971
0
LINE
8
Black
10
109.611
20
-95.8971
11
109.111
21
-95.8971
0
LINE
8
Black
10
109.111
20
-95.8971
11
109.111
21
-95.1971
0
LINE
8
Black
10
109.111
20
-95.1971
11
109.611
21
-95.1971
0
LINE
8
Black
10
109.611
20
-95.1971
11
109.611
21
-95.8971
0
LINE
8
Black
10
110.496
20
-95.8717
11
109.996
21
-95.8717
0
LINE
8
Black
10
109.996
20
-95.8717
11
109.996
21
-95.1717
0
LINE
8
Black
10
109.996
20
-95.1717
11
110.496
21
-95.1717
0
LINE
8
Black
10
110.496
20
-95.1717
11
110.496
21
-95.8717
0
LINE
8
Black
10
111.396
20
-95.8717
11
110.896
21
-95.8717
0
LINE
8
Black
10
110.896
20
-95.8717
11
110.896
21
-95.1717
0
LINE
8
Black
10
110.896
20
-95.1717
11
111.396
21
-95.1717
0
LINE
8
Black
10
111.396
20
-95.1717
11
111.396
21
-95.8717
0
LINE
8
Black
10
143.645
20
-94.5223
11
143.811
21
-94.6178
0
LINE
8
Black
10
143.811
20
-94.6178
11
143.934
21
-94.7641
0
LINE
8
Black
10
143.934
20
-94.7641
11
143.999
21
-94.9436
0
LINE
8
Black
10
143.999
20
-94.9436
11
143.999
21
-95.1346
0
LINE
8
Black
10
143.999
20
-95.1346
11
143.934
21
-95.3141
0
LINE
8
Black
10
143.934
20
-95.3141
11
143.811
21
-95.4604
0
LINE
8
Black
10
143.811
20
-95.4604
11
143.645
21
-95.5559
0
LINE
8
Black
10
143.645
20
-95.5559
11
143.457
21
-95.5891
0
LINE
8
Black
10
143.457
20
-95.5891
11
143.453
21
-95.5891
0
LINE
8
Black
10
143.453
20
-95.5891
11
143.265
21
-95.5559
0
LINE
8
Black
10
143.265
20
-95.5559
11
143.1
21
-95.4604
0
LINE
8
Black
10
143.1
20
-95.4604
11
142.977
21
-95.3141
0
LINE
8
Black
10
142.977
20
-95.3141
11
142.912
21
-95.1346
0
LINE
8
Black
10
142.912
20
-95.1346
11
142.912
21
-94.9436
0
LINE
8
Black
10
142.912
20
-94.9436
11
142.977
21
-94.7641
0
LINE
8
Black
10
142.977
20
-94.7641
11
143.1
21
-94.6178
0
LINE
8
Black
10
143.1
20
-94.6178
11
143.265
21
-94.5223
0
LINE
8
Black
10
143.265
20
-94.5223
11
143.453
21
-94.4891
0
LINE
8
Black
10
143.453
20
-94.4891
11
143.457
21
-94.4891
0
LINE
8
Black
10
143.457
20
-94.4891
11
143.645
21
-94.5223
0
LINE
8
Black
10
142.375
20
-94.5223
11
142.541
21
-94.6178
0
LINE
8
Black
10
142.541
20
-94.6178
11
142.664
21
-94.7641
0
LINE
8
Black
10
142.664
20
-94.7641
11
142.729
21
-94.9436
0
LINE
8
Black
10
142.729
20
-94.9436
11
142.729
21
-95.1346
0
LINE
8
Black
10
142.729
20
-95.1346
11
142.664
21
-95.3141
0
LINE
8
Black
10
142.664
20
-95.3141
11
142.541
21
-95.4604
0
LINE
8
Black
10
142.541
20
-95.4604
11
142.375
21
-95.5559
0
LINE
8
Black
10
142.375
20
-95.5559
11
142.187
21
-95.5891
0
LINE
8
Black
10
142.187
20
-95.5891
11
142.183
21
-95.5891
0
LINE
8
Black
10
142.183
20
-95.5891
11
141.995
21
-95.5559
0
LINE
8
Black
10
141.995
20
-95.5559
11
141.83
21
-95.4604
0
LINE
8
Black
10
141.83
20
-95.4604
11
141.707
21
-95.3141
0
LINE
8
Black
10
141.707
20
-95.3141
11
141.642
21
-95.1346
0
LINE
8
Black
10
141.642
20
-95.1346
11
141.642
21
-94.9436
0
LINE
8
Black
10
141.642
20
-94.9436
11
141.707
21
-94.7641
0
LINE
8
Black
10
141.707
20
-94.7641
11
141.83
21
-94.6178
0
LINE
8
Black
10
141.83
20
-94.6178
11
141.995
21
-94.5223
0
LINE
8
Black
10
141.995
20
-94.5223
11
142.183
21
-94.4891
0
LINE
8
Black
10
142.183
20
-94.4891
11
142.187
21
-94.4891
0
LINE
8
Black
10
142.187
20
-94.4891
11
142.375
21
-94.5223
0
LINE
8
Black
10
138.429
20
-95.3891
11
137.929
21
-95.3891
0
LINE
8
Black
10
137.929
20
-95.3891
11
137.929
21
-94.6891
0
LINE
8
Black
10
137.929
20
-94.6891
11
138.429
21
-94.6891
0
LINE
8
Black
10
138.429
20
-94.6891
11
138.429
21
-95.3891
0
LINE
8
Black
10
139.329
20
-95.3891
11
138.829
21
-95.3891
0
LINE
8
Black
10
138.829
20
-95.3891
11
138.829
21
-94.6891
0
LINE
8
Black
10
138.829
20
-94.6891
11
139.329
21
-94.6891
0
LINE
8
Black
10
139.329
20
-94.6891
11
139.329
21
-95.3891
0
LINE
8
Black
10
139.979
20
-95.3891
11
139.479
21
-95.3891
0
LINE
8
Black
10
139.479
20
-95.3891
11
139.479
21
-94.6891
0
LINE
8
Black
10
139.479
20
-94.6891
11
139.979
21
-94.6891
0
LINE
8
Black
10
139.979
20
-94.6891
11
139.979
21
-95.3891
0
LINE
8
Black
10
140.879
20
-95.3891
11
140.379
21
-95.3891
0
LINE
8
Black
10
140.379
20
-95.3891
11
140.379
21
-94.6891
0
LINE
8
Black
10
140.379
20
-94.6891
11
140.879
21
-94.6891
0
LINE
8
Black
10
140.879
20
-94.6891
11
140.879
21
-95.3891
0
LINE
8
Black
10
107.525
20
-95.0675
11
106.525
21
-95.0675
0
LINE
8
Black
10
106.525
20
-95.0675
11
106.525
21
-94.1675
0
LINE
8
Black
10
106.525
20
-94.1675
11
107.525
21
-94.1675
0
LINE
8
Black
10
107.525
20
-94.1675
11
107.525
21
-95.0675
0
LINE
8
Black
10
132.095
20
-93.9823
11
130.276
21
-95.0323
0
LINE
8
Black
10
130.276
20
-95.0323
11
129.926
21
-94.4261
0
LINE
8
Black
10
129.926
20
-94.4261
11
131.745
21
-93.3761
0
LINE
8
Black
10
131.745
20
-93.3761
11
132.095
21
-93.9823
0
LINE
8
Black
10
113.281
20
-88.9477
11
114.14
21
-89.4435
0
LINE
8
Black
10
114.14
20
-89.4435
11
114.777
21
-90.203
0
LINE
8
Black
10
114.777
20
-90.203
11
115.116
21
-91.1347
0
LINE
8
Black
10
115.116
20
-91.1347
11
115.116
21
-92.1261
0
LINE
8
Black
10
115.116
20
-92.1261
11
114.777
21
-93.0578
0
LINE
8
Black
10
114.777
20
-93.0578
11
114.14
21
-93.8174
0
LINE
8
Black
10
114.14
20
-93.8174
11
113.281
21
-94.3131
0
LINE
8
Black
10
113.281
20
-94.3131
11
112.305
21
-94.4853
0
LINE
8
Black
10
112.305
20
-94.4853
11
111.328
21
-94.3131
0
LINE
8
Black
10
111.328
20
-94.3131
11
110.47
21
-93.8174
0
LINE
8
Black
10
110.47
20
-93.8174
11
109.832
21
-93.0578
0
LINE
8
Black
10
109.832
20
-93.0578
11
109.493
21
-92.1261
0
LINE
8
Black
10
109.493
20
-92.1261
11
109.493
21
-91.1347
0
LINE
8
Black
10
109.493
20
-91.1347
11
109.832
21
-90.203
0
LINE
8
Black
10
109.832
20
-90.203
11
110.47
21
-89.4435
0
LINE
8
Black
10
110.47
20
-89.4435
11
111.328
21
-88.9477
0
LINE
8
Black
10
111.328
20
-88.9477
11
112.305
21
-88.7755
0
LINE
8
Black
10
112.305
20
-88.7755
11
113.281
21
-88.9477
0
LINE
8
Black
10
142.375
20
-93.2523
11
142.541
21
-93.3478
0
LINE
8
Black
10
142.541
20
-93.3478
11
142.664
21
-93.4941
0
LINE
8
Black
10
142.664
20
-93.4941
11
142.729
21
-93.6736
0
LINE
8
Black
10
142.729
20
-93.6736
11
142.729
21
-93.8646
0
LINE
8
Black
10
142.729
20
-93.8646
11
142.664
21
-94.0441
0
LINE
8
Black
10
142.664
20
-94.0441
11
142.541
21
-94.1904
0
LINE
8
Black
10
142.541
20
-94.1904
11
142.375
21
-94.2859
0
LINE
8
Black
10
142.375
20
-94.2859
11
142.187
21
-94.3191
0
LINE
8
Black
10
142.187
20
-94.3191
11
142.183
21
-94.3191
0
LINE
8
Black
10
142.183
20
-94.3191
11
141.995
21
-94.2859
0
LINE
8
Black
10
141.995
20
-94.2859
11
141.83
21
-94.1904
0
LINE
8
Black
10
141.83
20
-94.1904
11
141.707
21
-94.0441
0
LINE
8
Black
10
141.707
20
-94.0441
11
141.642
21
-93.8646
0
LINE
8
Black
10
141.642
20
-93.8646
11
141.642
21
-93.6736
0
LINE
8
Black
10
141.642
20
-93.6736
11
141.707
21
-93.4941
0
LINE
8
Black
10
141.707
20
-93.4941
11
141.83
21
-93.3478
0
LINE
8
Black
10
141.83
20
-93.3478
11
141.995
21
-93.2523
0
LINE
8
Black
10
141.995
20
-93.2523
11
142.183
21
-93.2191
0
LINE
8
Black
10
142.183
20
-93.2191
11
142.187
21
-93.2191
0
LINE
8
Black
10
142.187
20
-93.2191
11
142.375
21
-93.2523
0
LINE
8
Black
10
143.645
20
-93.2523
11
143.811
21
-93.3478
0
LINE
8
Black
10
143.811
20
-93.3478
11
143.934
21
-93.4941
0
LINE
8
Black
10
143.934
20
-93.4941
11
143.999
21
-93.6736
0
LINE
8
Black
10
143.999
20
-93.6736
11
143.999
21
-93.8646
0
LINE
8
Black
10
143.999
20
-93.8646
11
143.934
21
-94.0441
0
LINE
8
Black
10
143.934
20
-94.0441
11
143.811
21
-94.1904
0
LINE
8
Black
10
143.811
20
-94.1904
11
143.645
21
-94.2859
0
LINE
8
Black
10
143.645
20
-94.2859
11
143.457
21
-94.3191
0
LINE
8
Black
10
143.457
20
-94.3191
11
143.453
21
-94.3191
0
LINE
8
Black
10
143.453
20
-94.3191
11
143.265
21
-94.2859
0
LINE
8
Black
10
143.265
20
-94.2859
11
143.1
21
-94.1904
0
LINE
8
Black
10
143.1
20
-94.1904
11
142.977
21
-94.0441
0
LINE
8
Black
10
142.977
20
-94.0441
11
142.912
21
-93.8646
0
LINE
8
Black
10
142.912
20
-93.8646
11
142.912
21
-93.6736
0
LINE
8
Black
10
142.912
20
-93.6736
11
142.977
21
-93.4941
0
LINE
8
Black
10
142.977
20
-93.4941
11
143.1
21
-93.3478
0
LINE
8
Black
10
143.1
20
-93.3478
11
143.265
21
-93.2523
0
LINE
8
Black
10
143.265
20
-93.2523
11
143.453
21
-93.2191
0
LINE
8
Black
10
143.453
20
-93.2191
11
143.457
21
-93.2191
0
LINE
8
Black
10
143.457
20
-93.2191
11
143.645
21
-93.2523
0
LINE
8
Black
10
105.525
20
-94.1175
11
104.525
21
-94.1175
0
LINE
8
Black
10
104.525
20
-94.1175
11
104.525
21
-93.2175
0
LINE
8
Black
10
104.525
20
-93.2175
11
105.525
21
-93.2175
0
LINE
8
Black
10
105.525
20
-93.2175
11
105.525
21
-94.1175
0
LINE
8
Black
10
131.46
20
-92.8825
11
129.641
21
-93.9325
0
LINE
8
Black
10
129.641
20
-93.9325
11
129.291
21
-93.3263
0
LINE
8
Black
10
129.291
20
-93.3263
11
131.11
21
-92.2763
0
LINE
8
Black
10
131.11
20
-92.2763
11
131.46
21
-92.8825
0
LINE
8
Black
10
143.645
20
-91.9823
11
143.811
21
-92.0778
0
LINE
8
Black
10
143.811
20
-92.0778
11
143.934
21
-92.2241
0
LINE
8
Black
10
143.934
20
-92.2241
11
143.999
21
-92.4036
0
LINE
8
Black
10
143.999
20
-92.4036
11
143.999
21
-92.5946
0
LINE
8
Black
10
143.999
20
-92.5946
11
143.934
21
-92.7741
0
LINE
8
Black
10
143.934
20
-92.7741
11
143.811
21
-92.9204
0
LINE
8
Black
10
143.811
20
-92.9204
11
143.645
21
-93.0159
0
LINE
8
Black
10
143.645
20
-93.0159
11
143.457
21
-93.0491
0
LINE
8
Black
10
143.457
20
-93.0491
11
143.453
21
-93.0491
0
LINE
8
Black
10
143.453
20
-93.0491
11
143.265
21
-93.0159
0
LINE
8
Black
10
143.265
20
-93.0159
11
143.1
21
-92.9204
0
LINE
8
Black
10
143.1
20
-92.9204
11
142.977
21
-92.7741
0
LINE
8
Black
10
142.977
20
-92.7741
11
142.912
21
-92.5946
0
LINE
8
Black
10
142.912
20
-92.5946
11
142.912
21
-92.4036
0
LINE
8
Black
10
142.912
20
-92.4036
11
142.977
21
-92.2241
0
LINE
8
Black
10
142.977
20
-92.2241
11
143.1
21
-92.0778
0
LINE
8
Black
10
143.1
20
-92.0778
11
143.265
21
-91.9823
0
LINE
8
Black
10
143.265
20
-91.9823
11
143.453
21
-91.9491
0
LINE
8
Black
10
143.453
20
-91.9491
11
143.457
21
-91.9491
0
LINE
8
Black
10
143.457
20
-91.9491
11
143.645
21
-91.9823
0
LINE
8
Black
10
142.375
20
-91.9823
11
142.541
21
-92.0778
0
LINE
8
Black
10
142.541
20
-92.0778
11
142.664
21
-92.2241
0
LINE
8
Black
10
142.664
20
-92.2241
11
142.729
21
-92.4036
0
LINE
8
Black
10
142.729
20
-92.4036
11
142.729
21
-92.5946
0
LINE
8
Black
10
142.729
20
-92.5946
11
142.664
21
-92.7741
0
LINE
8
Black
10
142.664
20
-92.7741
11
142.541
21
-92.9204
0
LINE
8
Black
10
142.541
20
-92.9204
11
142.375
21
-93.0159
0
LINE
8
Black
10
142.375
20
-93.0159
11
142.187
21
-93.0491
0
LINE
8
Black
10
142.187
20
-93.0491
11
142.183
21
-93.0491
0
LINE
8
Black
10
142.183
20
-93.0491
11
141.995
21
-93.0159
0
LINE
8
Black
10
141.995
20
-93.0159
11
141.83
21
-92.9204
0
LINE
8
Black
10
141.83
20
-92.9204
11
141.707
21
-92.7741
0
LINE
8
Black
10
141.707
20
-92.7741
11
141.642
21
-92.5946
0
LINE
8
Black
10
141.642
20
-92.5946
11
141.642
21
-92.4036
0
LINE
8
Black
10
141.642
20
-92.4036
11
141.707
21
-92.2241
0
LINE
8
Black
10
141.707
20
-92.2241
11
141.83
21
-92.0778
0
LINE
8
Black
10
141.83
20
-92.0778
11
141.995
21
-91.9823
0
LINE
8
Black
10
141.995
20
-91.9823
11
142.183
21
-91.9491
0
LINE
8
Black
10
142.183
20
-91.9491
11
142.187
21
-91.9491
0
LINE
8
Black
10
142.187
20
-91.9491
11
142.375
21
-91.9823
0
LINE
8
Black
10
130.825
20
-91.7826
11
129.006
21
-92.8326
0
LINE
8
Black
10
129.006
20
-92.8326
11
128.656
21
-92.2264
0
LINE
8
Black
10
128.656
20
-92.2264
11
130.475
21
-91.1764
0
LINE
8
Black
10
130.475
20
-91.1764
11
130.825
21
-91.7826
0
LINE
8
Black
10
140.5
20
-91.9045
11
139.5
21
-91.9045
0
LINE
8
Black
10
139.5
20
-91.9045
11
139.5
21
-90.6045
0
LINE
8
Black
10
139.5
20
-90.6045
11
140.5
21
-90.6045
0
LINE
8
Black
10
140.5
20
-90.6045
11
140.5
21
-91.9045
0
LINE
8
Black
10
137.2
20
-91.9045
11
136.2
21
-91.9045
0
LINE
8
Black
10
136.2
20
-91.9045
11
136.2
21
-90.6045
0
LINE
8
Black
10
136.2
20
-90.6045
11
137.2
21
-90.6045
0
LINE
8
Black
10
137.2
20
-90.6045
11
137.2
21
-91.9045
0
LINE
8
Black
10
143.645
20
-90.7123
11
143.811
21
-90.8078
0
LINE
8
Black
10
143.811
20
-90.8078
11
143.934
21
-90.9541
0
LINE
8
Black
10
143.934
20
-90.9541
11
143.999
21
-91.1336
0
LINE
8
Black
10
143.999
20
-91.1336
11
143.999
21
-91.3246
0
LINE
8
Black
10
143.999
20
-91.3246
11
143.934
21
-91.5041
0
LINE
8
Black
10
143.934
20
-91.5041
11
143.811
21
-91.6504
0
LINE
8
Black
10
143.811
20
-91.6504
11
143.645
21
-91.7459
0
LINE
8
Black
10
143.645
20
-91.7459
11
143.457
21
-91.7791
0
LINE
8
Black
10
143.457
20
-91.7791
11
143.453
21
-91.7791
0
LINE
8
Black
10
143.453
20
-91.7791
11
143.265
21
-91.7459
0
LINE
8
Black
10
143.265
20
-91.7459
11
143.1
21
-91.6504
0
LINE
8
Black
10
143.1
20
-91.6504
11
142.977
21
-91.5041
0
LINE
8
Black
10
142.977
20
-91.5041
11
142.912
21
-91.3246
0
LINE
8
Black
10
142.912
20
-91.3246
11
142.912
21
-91.1336
0
LINE
8
Black
10
142.912
20
-91.1336
11
142.977
21
-90.9541
0
LINE
8
Black
10
142.977
20
-90.9541
11
143.1
21
-90.8078
0
LINE
8
Black
10
143.1
20
-90.8078
11
143.265
21
-90.7123
0
LINE
8
Black
10
143.265
20
-90.7123
11
143.453
21
-90.6791
0
LINE
8
Black
10
143.453
20
-90.6791
11
143.457
21
-90.6791
0
LINE
8
Black
10
143.457
20
-90.6791
11
143.645
21
-90.7123
0
LINE
8
Black
10
142.375
20
-90.7123
11
142.541
21
-90.8078
0
LINE
8
Black
10
142.541
20
-90.8078
11
142.664
21
-90.9541
0
LINE
8
Black
10
142.664
20
-90.9541
11
142.729
21
-91.1336
0
LINE
8
Black
10
142.729
20
-91.1336
11
142.729
21
-91.3246
0
LINE
8
Black
10
142.729
20
-91.3246
11
142.664
21
-91.5041
0
LINE
8
Black
10
142.664
20
-91.5041
11
142.541
21
-91.6504
0
LINE
8
Black
10
142.541
20
-91.6504
11
142.375
21
-91.7459
0
LINE
8
Black
10
142.375
20
-91.7459
11
142.187
21
-91.7791
0
LINE
8
Black
10
142.187
20
-91.7791
11
142.183
21
-91.7791
0
LINE
8
Black
10
142.183
20
-91.7791
11
141.995
21
-91.7459
0
LINE
8
Black
10
141.995
20
-91.7459
11
141.83
21
-91.6504
0
LINE
8
Black
10
141.83
20
-91.6504
11
141.707
21
-91.5041
0
LINE
8
Black
10
141.707
20
-91.5041
11
141.642
21
-91.3246
0
LINE
8
Black
10
141.642
20
-91.3246
11
141.642
21
-91.1336
0
LINE
8
Black
10
141.642
20
-91.1336
11
141.707
21
-90.9541
0
LINE
8
Black
10
141.707
20
-90.9541
11
141.83
21
-90.8078
0
LINE
8
Black
10
141.83
20
-90.8078
11
141.995
21
-90.7123
0
LINE
8
Black
10
141.995
20
-90.7123
11
142.183
21
-90.6791
0
LINE
8
Black
10
142.183
20
-90.6791
11
142.187
21
-90.6791
0
LINE
8
Black
10
142.187
20
-90.6791
11
142.375
21
-90.7123
0
LINE
8
Black
10
130.19
20
-90.6828
11
128.371
21
-91.7328
0
LINE
8
Black
10
128.371
20
-91.7328
11
128.021
21
-91.1266
0
LINE
8
Black
10
128.021
20
-91.1266
11
129.84
21
-90.0766
0
LINE
8
Black
10
129.84
20
-90.0766
11
130.19
21
-90.6828
0
LINE
8
Black
10
129.555
20
-89.5829
11
127.736
21
-90.6329
0
LINE
8
Black
10
127.736
20
-90.6329
11
127.386
21
-90.0267
0
LINE
8
Black
10
127.386
20
-90.0267
11
129.205
21
-88.9767
0
LINE
8
Black
10
129.205
20
-88.9767
11
129.555
21
-89.5829
  0
ENDSEC
  0
EOF
