M48
;DRILL file {KiCad (5.0.2)-1} date 1/8/2019 10:51:18 AM
;FORMAT={-:-/ absolute / inch / decimal}
FMAT,2
INCH,TZ
T1C0.0118
T2C0.0157
T3C0.0197
T4C0.0236
T5C0.0256
T6C0.0295
T7C0.0300
T8C0.0315
T9C0.0350
T10C0.0394
%
G90
G05
T1
X6.2174Y-4.7719
X6.2174Y-4.8191
X6.2489Y-4.7719
X6.2489Y-4.8191
X6.2804Y-4.7719
X6.2804Y-4.8191
X6.3119Y-4.7719
X6.3119Y-4.8191
T2
X3.1915Y-5.0794
X3.2836Y-5.0183
X3.3137Y-4.7932
X3.3237Y-5.1538
X3.3399Y-4.9302
X3.3757Y-5.0191
X3.4259Y-4.679
X3.5537Y-5.2128
X3.5816Y-5.7136
X3.582Y-5.2128
X3.5993Y-5.0357
X3.6072Y-5.2128
X3.6249Y-5.5396
X3.6414Y-4.8157
X3.8159Y-5.0396
X3.871Y-5.3309
X3.947Y-4.9282
X3.9655Y-5.2719
X3.985Y-4.93
X4.0131Y-5.1849
X4.0363Y-5.3742
X4.043Y-4.9223
X4.1178Y-4.9502
X4.1367Y-5.0207
X4.1663Y-5.8506
X4.1976Y-5.1643
X4.2285Y-4.4317
X4.2489Y-4.0553
X4.2608Y-3.8742
X4.2765Y-4.0199
X4.2769Y-4.5282
X4.2804Y-3.9805
X4.2844Y-3.9412
X4.2844Y-5.9451
X4.2921Y-4.7686
X4.2962Y-6.1341
X4.3017Y-4.4624
X4.308Y-5.9136
X4.3462Y-4.8026
X4.3552Y-3.8349
X4.3651Y-4.0179
X4.3706Y-6.0643
X4.3718Y-4.477
X4.3796Y-6.0321
X4.3879Y-4.2758
X4.3915Y-4.4049
X4.4076Y-4.5479
X4.4472Y-4.0308
X4.4576Y-5.9136
X4.4876Y-4.5577
X4.497Y-3.9136
X4.5009Y-6.1183
X4.5127Y-3.949
X4.5261Y-4.5116
X4.5411Y-5.1372
X4.548Y-4.7924
X4.5545Y-4.4038
X4.5634Y-4.1553
X4.5718Y-6.075
X4.5755Y-4.6454
X4.6178Y-4.8337
X4.6257Y-4.4379
X4.6781Y-4.016
X4.682Y-4.6632
X4.6899Y-4.201
X4.6985Y-4.8864
X4.7096Y-3.7876
X4.7265Y-4.592
X4.7303Y-3.9889
X4.7371Y-4.327
X4.756Y-3.5841
X4.7568Y-3.9648
X4.7667Y-4.0337
X4.7735Y-5.1016
X4.7785Y-4.6687
X4.7907Y-5.001
X4.7985Y-3.7451
X4.8041Y-4.0219
X4.8552Y-4.1183
X4.8611Y-4.6986
X4.869Y-3.8983
X4.8804Y-6.2421
X4.8966Y-4.8439
X4.9096Y-4.6731
X4.9104Y-4.327
X4.927Y-3.7401
X4.932Y-4.0711
X4.9426Y-4.953
X4.9478Y-3.7935
X4.9478Y-4.2128
X4.9497Y-6.39
X4.9501Y-4.5502
X4.9505Y-4.9971
X4.9592Y-5.1061
X4.9663Y-3.8562
X4.9765Y-4.3267
X4.981Y-4.6839
X4.997Y-4.4333
X5.0013Y-4.8801
X5.0052Y-4.7227
X5.0088Y-3.6105
X5.01Y-5.1018
X5.0206Y-4.3349
X5.0242Y-3.9141
X5.0255Y-4.4674
X5.0363Y-3.7719
X5.0403Y-3.8888
X5.0415Y-6.229
X5.056Y-4.1656
X5.0567Y-4.4281
X5.0678Y-3.7325
X5.0698Y-4.1223
X5.0937Y-6.467
X5.1111Y-6.4057
X5.1115Y-4.4704
X5.1131Y-4.5116
X5.1131Y-4.244
X5.1367Y-3.8461
X5.142Y-4.4673
X5.1592Y-4.1367
X5.1659Y-3.8683
X5.167Y-3.5829
X5.1946Y-4.1367
X5.2167Y-3.9561
X5.2186Y-4.8164
X5.226Y-4.1369
X5.2398Y-4.8601
X5.245Y-3.5986
X5.2568Y-4.1369
X5.2607Y-4.9019
X5.2608Y-4.5278
X5.2627Y-3.7778
X5.2686Y-4.2664
X5.278Y-4.5618
X5.2797Y-4.9399
X5.2911Y-4.1367
X5.297Y-4.4006
X5.2998Y-4.6729
X5.3001Y-3.8782
X5.3034Y-4.9769
X5.3066Y-3.7009
X5.3147Y-4.5388
X5.323Y-4.701
X5.3277Y-4.4018
X5.3367Y-3.8789
X5.3529Y-3.6727
X5.3543Y-3.8536
X5.3592Y-6.2089
X5.3609Y-4.2664
X5.3631Y-4.1853
X5.3796Y-6.0455
X5.3935Y-4.1587
X5.3946Y-3.7246
X5.397Y-4.1084
X5.3985Y-4.079
X5.4076Y-4.2747
X5.43Y-3.7601
X5.43Y-5.0829
X5.4338Y-4.3542
X5.434Y-4.7679
X5.4852Y-3.8388
X5.4852Y-4.0613
X5.4852Y-4.2246
X5.4909Y-4.032
X5.4954Y-3.9819
X5.5046Y-4.3223
X5.5167Y-4.5553
X5.5206Y-5.9569
X5.5241Y-4.0349
X5.5363Y-6.0672
X5.5515Y-4.6971
X5.556Y-3.8821
X5.5634Y-4.0101
X5.5635Y-4.0396
X5.5733Y-4.8191
X5.5735Y-3.7503
X5.5757Y-4.6359
X5.5757Y-6.1329
X5.5812Y-4.5824
X5.5875Y-4.5486
X5.6033Y-4.8585
X5.6296Y-4.2183
X5.6584Y-4.8309
X5.6604Y-6.0298
X5.6663Y-4.7384
X5.6663Y-4.9648
X5.6667Y-3.8408
X5.6722Y-5.9549
X5.7096Y-6.0593
X5.7147Y-4.3577
X5.7214Y-4.0514
X5.7883Y-3.6656
X5.7928Y-4.0027
X5.8025Y-5.312
X5.8241Y-4.453
X5.8316Y-3.6892
X5.8466Y-5.5951
X5.8682Y-4.6143
X5.8793Y-4.5538
X5.9037Y-6.0345
X5.93Y-4.075
X5.93Y-4.2876
X5.9401Y-4.8679
X5.993Y-5.6656
X6.0123Y-5.9337
X6.0387Y-5.2994
X6.043Y-6.0124
X6.0702Y-5.7967
X6.0954Y-4.3522
X6.1249Y-4.7164
X6.1314Y-4.3738
X6.1491Y-5.9998
X6.1584Y-4.6888
X6.1655Y-5.8203
X6.18Y-5.1203
X6.2174Y-3.5514
X6.2174Y-3.575
X6.2174Y-3.5947
X6.2332Y-5.8034
X6.234Y-4.5514
X6.2654Y-5.8834
X6.2816Y-5.2955
X6.3159Y-5.201
X6.3171Y-4.949
X6.3226Y-4.5364
X6.4261Y-4.6892
X6.4419Y-5.201
X6.4423Y-5.3842
X6.4693Y-5.4705
X6.4757Y-5.3427
X6.4852Y-4.6534
X6.4891Y-4.612
X6.5009Y-5.2168
X6.5131Y-5.3042
X6.5188Y-4.9987
X6.5466Y-5.2703
X6.5521Y-4.7561
X6.5623Y-5.3305
X6.6489Y-5.1943
X6.697Y-5.1526
X6.7001Y-5.1144
T4
X6.0245Y-4.8497
X6.0245Y-4.8939
T5
X4.7716Y-3.4902
X4.7716Y-3.5402
X4.8216Y-3.4902
X4.8216Y-3.5402
X4.8716Y-3.4902
X4.8716Y-3.5402
X4.9216Y-3.4902
X4.9216Y-3.5402
X4.9716Y-3.4902
X4.9716Y-3.5402
T6
X4.3671Y-4.9687
X4.4458Y-4.9687
T7
X4.8459Y-6.5459
X4.9459Y-6.5459
X5.0459Y-6.5459
T8
X5.3631Y-4.6223
X5.6978Y-4.2798
X5.3572Y-4.7935
X5.1938Y-4.6105
X5.1824Y-4.5349
X5.8237Y-3.3664
X4.8907Y-4.579
X4.6072Y-4.3191
X5.4419Y-4.6223
X3.5718Y-5.827
X5.5068Y-4.449
X5.5678Y-5.1341
X5.6466Y-5.1341
T9
X5.1363Y-3.3549
X5.2363Y-3.3549
X5.3363Y-3.3549
X5.4363Y-3.3549
X5.5363Y-3.3549
T10
X4.4537Y-4.6321
X4.3237Y-4.1971
X6.3033Y-4.2801
X4.6186Y-4.9715
X4.2686Y-4.2758
X3.5046Y-4.4487
X4.2765Y-3.7069
X6.0531Y-5.
X6.4469Y-5.
X4.4733Y-3.6183
X4.4261Y-4.1735
X3.9722Y-5.4005
X4.2489Y-4.3577
T3
X3.0573Y-4.8346G85X3.0298Y-4.8346
G05
X3.0573Y-5.1672G85X3.0298Y-5.1672
G05
X3.1262Y-4.8346G85X3.0987Y-4.8346
G05
X3.1262Y-5.1672G85X3.0987Y-5.1672
G05
T4
X3.1754Y-4.8592G85X3.1597Y-4.8592
G05
X3.1754Y-5.1426G85X3.1597Y-5.1426
G05
T0
M30
