  0
SECTION
  2
HEADER
  9
$ANGBASE
  50
0.0
  9
$ANGDIR
  70
  1
  9
$MEASUREMENT
  70
0
  0
ENDSEC
  0
SECTION
  2
TABLES
  0
TABLE
  2
LTYPE
  70
4
  0
LTYPE
  5
40F
  2
CONTINUOUS
  70
0
  3
Solid line
  72
65
  73
0
  40
0.0
  0
LTYPE
  5
410
  2
DASHDOT
 70
0
  3
Dash Dot ____ _ ____ _
 72
65
 73
4
 40
2.0
 49
1.25
 49
-0.25
 49
0.25
 49
-0.25
  0
LTYPE
  5
411
  2
DASHED
 70
0
  3
Dashed __ __ __ __ __
 72
65
 73
2
 40
0.75
 49
0.5
 49
-0.25
  0
LTYPE
  5
43B
  2
DOTTED
 70
0
  3
Dotted .  .  .  .
 72
65
 73
2
 40
0.2
 49
0.0
 49
-0.2
  0
ENDTAB
  0
TABLE
  2
STYLE
  70
4
  0
STYLE
  2
KICAD
  70
0
  40
0
  41
1
  42
1
  50
0
  71
0
  3
isocp.shx
  0
STYLE
  2
KICADB
  70
0
  40
0
  41
1
  42
1
  50
0
  71
0
  3
isocp.shx
  0
STYLE
  2
KICADI
  70
0
  40
0
  41
1
  42
1
  50
15
  71
0
  3
isocp.shx
  0
STYLE
  2
KICADBI
  70
0
  40
0
  41
1
  42
1
  50
15
  71
0
  3
isocp.shx
  0
ENDTAB
  0
TABLE
  2
LAYER
  70
30
  0
LAYER
  2
BLACK
  70
0
  62
7
  6
CONTINUOUS
  0
LAYER
  2
GRAY1
  70
0
  62
251
  6
CONTINUOUS
  0
LAYER
  2
GRAY2
  70
0
  62
8
  6
CONTINUOUS
  0
LAYER
  2
GRAY3
  70
0
  62
9
  6
CONTINUOUS
  0
LAYER
  2
WHITE
  70
0
  62
7
  6
CONTINUOUS
  0
LAYER
  2
LYELLOW
  70
0
  62
51
  6
CONTINUOUS
  0
LAYER
  2
BLUE1
  70
0
  62
178
  6
CONTINUOUS
  0
LAYER
  2
GREEN1
  70
0
  62
98
  6
CONTINUOUS
  0
LAYER
  2
CYAN1
  70
0
  62
138
  6
CONTINUOUS
  0
LAYER
  2
RED1
  70
0
  62
18
  6
CONTINUOUS
  0
LAYER
  2
MAGENTA1
  70
0
  62
228
  6
CONTINUOUS
  0
LAYER
  2
BROWN1
  70
0
  62
58
  6
CONTINUOUS
  0
LAYER
  2
BLUE2
  70
0
  62
5
  6
CONTINUOUS
  0
LAYER
  2
GREEN2
  70
0
  62
3
  6
CONTINUOUS
  0
LAYER
  2
CYAN2
  70
0
  62
4
  6
CONTINUOUS
  0
LAYER
  2
RED2
  70
0
  62
1
  6
CONTINUOUS
  0
LAYER
  2
MAGENTA2
  70
0
  62
6
  6
CONTINUOUS
  0
LAYER
  2
BROWN2
  70
0
  62
54
  6
CONTINUOUS
  0
LAYER
  2
BLUE3
  70
0
  62
171
  6
CONTINUOUS
  0
LAYER
  2
GREEN3
  70
0
  62
91
  6
CONTINUOUS
  0
LAYER
  2
CYAN3
  70
0
  62
131
  6
CONTINUOUS
  0
LAYER
  2
RED3
  70
0
  62
11
  6
CONTINUOUS
  0
LAYER
  2
MAGENTA3
  70
0
  62
221
  6
CONTINUOUS
  0
LAYER
  2
YELLOW3
  70
0
  62
2
  6
CONTINUOUS
  0
LAYER
  2
BLUE4
  70
0
  62
5
  6
CONTINUOUS
  0
LAYER
  2
GREEN4
  70
0
  62
3
  6
CONTINUOUS
  0
LAYER
  2
CYAN4
  70
0
  62
4
  6
CONTINUOUS
  0
LAYER
  2
RED4
  70
0
  62
1
  6
CONTINUOUS
  0
LAYER
  2
MAGENTA4
  70
0
  62
6
  6
CONTINUOUS
  0
LAYER
  2
YELLOW4
  70
0
  62
2
  6
CONTINUOUS
  0
ENDTAB
  0
ENDSEC
  0
SECTION
  2
ENTITIES
0
LINE
8
BLACK
6
CONTINUOUS
10
180.001
20
-76.1873
11
180.002
21
-76.1875
0
LINE
8
BLACK
6
CONTINUOUS
10
180.002
20
-76.1875
11
180.005
21
-76.1882
0
LINE
8
BLACK
6
CONTINUOUS
10
180.005
20
-76.1882
11
180.007
21
-76.1894
0
LINE
8
BLACK
6
CONTINUOUS
10
180.007
20
-76.1894
11
180.009
21
-76.191
0
LINE
8
BLACK
6
CONTINUOUS
10
180.009
20
-76.191
11
180.011
21
-76.1929
0
LINE
8
BLACK
6
CONTINUOUS
10
180.011
20
-76.1929
11
180.012
21
-76.1951
0
LINE
8
BLACK
6
CONTINUOUS
10
180.012
20
-76.1951
11
180.013
21
-76.1975
0
LINE
8
BLACK
6
CONTINUOUS
10
180.013
20
-76.1975
11
180.013
21
-76.2
0
LINE
8
BLACK
6
CONTINUOUS
10
180.013
20
-76.2
11
180.013
21
-76.2006
0
LINE
8
BLACK
6
CONTINUOUS
10
180.013
20
-76.2006
11
180.013
21
-177.799
0
LINE
8
BLACK
6
CONTINUOUS
10
180.013
20
-177.799
11
180.013
21
-177.8
0
LINE
8
BLACK
6
CONTINUOUS
10
180.013
20
-177.8
11
180.013
21
-177.801
0
LINE
8
BLACK
6
CONTINUOUS
10
180.013
20
-177.801
11
180.013
21
-177.801
0
LINE
8
BLACK
6
CONTINUOUS
10
180.013
20
-177.801
11
180.013
21
-177.802
0
LINE
8
BLACK
6
CONTINUOUS
10
180.013
20
-177.802
11
180.012
21
-177.805
0
LINE
8
BLACK
6
CONTINUOUS
10
180.012
20
-177.805
11
180.011
21
-177.807
0
LINE
8
BLACK
6
CONTINUOUS
10
180.011
20
-177.807
11
180.009
21
-177.809
0
LINE
8
BLACK
6
CONTINUOUS
10
180.009
20
-177.809
11
180.007
21
-177.811
0
LINE
8
BLACK
6
CONTINUOUS
10
180.007
20
-177.811
11
180.005
21
-177.812
0
LINE
8
BLACK
6
CONTINUOUS
10
180.005
20
-177.812
11
180.002
21
-177.813
0
LINE
8
BLACK
6
CONTINUOUS
10
180.002
20
-177.813
11
180
21
-177.813
0
LINE
8
BLACK
6
CONTINUOUS
10
180
20
-177.813
11
179.999
21
-177.813
0
LINE
8
BLACK
6
CONTINUOUS
10
179.999
20
-177.813
11
65.0006
21
-177.813
0
LINE
8
BLACK
6
CONTINUOUS
10
65.0006
20
-177.813
11
65
21
-177.813
0
LINE
8
BLACK
6
CONTINUOUS
10
65
20
-177.813
11
64.9975
21
-177.813
0
LINE
8
BLACK
6
CONTINUOUS
10
64.9975
20
-177.813
11
64.9951
21
-177.812
0
LINE
8
BLACK
6
CONTINUOUS
10
64.9951
20
-177.812
11
64.9929
21
-177.811
0
LINE
8
BLACK
6
CONTINUOUS
10
64.9929
20
-177.811
11
64.991
21
-177.809
0
LINE
8
BLACK
6
CONTINUOUS
10
64.991
20
-177.809
11
64.9894
21
-177.807
0
LINE
8
BLACK
6
CONTINUOUS
10
64.9894
20
-177.807
11
64.9882
21
-177.805
0
LINE
8
BLACK
6
CONTINUOUS
10
64.9882
20
-177.805
11
64.9875
21
-177.802
0
LINE
8
BLACK
6
CONTINUOUS
10
64.9875
20
-177.802
11
64.9872
21
-177.8
0
LINE
8
BLACK
6
CONTINUOUS
10
64.9872
20
-177.8
11
64.9873
21
-177.799
0
LINE
8
BLACK
6
CONTINUOUS
10
64.9873
20
-177.799
11
64.9873
21
-76.2006
0
LINE
8
BLACK
6
CONTINUOUS
10
64.9873
20
-76.2006
11
64.9872
21
-76.2
0
LINE
8
BLACK
6
CONTINUOUS
10
64.9872
20
-76.2
11
64.9875
21
-76.1975
0
LINE
8
BLACK
6
CONTINUOUS
10
64.9875
20
-76.1975
11
64.9882
21
-76.1951
0
LINE
8
BLACK
6
CONTINUOUS
10
64.9882
20
-76.1951
11
64.9894
21
-76.1929
0
LINE
8
BLACK
6
CONTINUOUS
10
64.9894
20
-76.1929
11
64.991
21
-76.191
0
LINE
8
BLACK
6
CONTINUOUS
10
64.991
20
-76.191
11
64.9929
21
-76.1894
0
LINE
8
BLACK
6
CONTINUOUS
10
64.9929
20
-76.1894
11
64.9951
21
-76.1882
0
LINE
8
BLACK
6
CONTINUOUS
10
64.9951
20
-76.1882
11
64.9975
21
-76.1875
0
LINE
8
BLACK
6
CONTINUOUS
10
64.9975
20
-76.1875
11
64.9994
21
-76.1873
0
LINE
8
BLACK
6
CONTINUOUS
10
64.9994
20
-76.1873
11
65
21
-76.1872
0
LINE
8
BLACK
6
CONTINUOUS
10
65
20
-76.1872
11
65.0006
21
-76.1873
0
LINE
8
BLACK
6
CONTINUOUS
10
65.0006
20
-76.1873
11
179.999
21
-76.1873
0
LINE
8
BLACK
6
CONTINUOUS
10
179.999
20
-76.1873
11
180
21
-76.1872
0
LINE
8
BLACK
6
CONTINUOUS
10
180
20
-76.1872
11
180.001
21
-76.1873
0
LINE
8
BLACK
6
CONTINUOUS
10
65.0127
20
-76.2127
11
65.0127
21
-177.787
0
LINE
8
BLACK
6
CONTINUOUS
10
65.0127
20
-177.787
11
179.987
21
-177.787
0
LINE
8
BLACK
6
CONTINUOUS
10
179.987
20
-177.787
11
179.987
21
-76.2127
0
LINE
8
BLACK
6
CONTINUOUS
10
179.987
20
-76.2127
11
65.0127
21
-76.2127
0
LINE
8
BLACK
6
CONTINUOUS
10
85.4702
20
-111.098
11
85.4704
21
-111.097
0
LINE
8
BLACK
6
CONTINUOUS
10
85.4704
20
-111.097
11
85.4704
21
-111.097
0
LINE
8
BLACK
6
CONTINUOUS
10
85.4704
20
-111.097
11
85.4705
21
-111.097
0
LINE
8
BLACK
6
CONTINUOUS
10
85.4705
20
-111.097
11
86.4864
21
-108.663
0
LINE
8
BLACK
6
CONTINUOUS
10
86.4864
20
-108.663
11
86.4864
21
-108.663
0
LINE
8
BLACK
6
CONTINUOUS
10
86.4864
20
-108.663
11
86.4866
21
-108.663
0
LINE
8
BLACK
6
CONTINUOUS
10
86.4866
20
-108.663
11
86.4867
21
-108.662
0
LINE
8
BLACK
6
CONTINUOUS
10
86.4867
20
-108.662
11
86.4867
21
-108.662
0
LINE
8
BLACK
6
CONTINUOUS
10
86.4867
20
-108.662
11
86.4867
21
-108.662
0
LINE
8
BLACK
6
CONTINUOUS
10
86.4867
20
-108.662
11
87.6452
21
-106.293
0
LINE
8
BLACK
6
CONTINUOUS
10
87.6452
20
-106.293
11
87.6452
21
-106.293
0
LINE
8
BLACK
6
CONTINUOUS
10
87.6452
20
-106.293
11
87.6455
21
-106.292
0
LINE
8
BLACK
6
CONTINUOUS
10
87.6455
20
-106.292
11
88.9425
21
-103.995
0
LINE
8
BLACK
6
CONTINUOUS
10
88.9425
20
-103.995
11
88.9429
21
-103.994
0
LINE
8
BLACK
6
CONTINUOUS
10
88.9429
20
-103.994
11
88.9429
21
-103.994
0
LINE
8
BLACK
6
CONTINUOUS
10
88.9429
20
-103.994
11
88.9429
21
-103.994
0
LINE
8
BLACK
6
CONTINUOUS
10
88.9429
20
-103.994
11
90.3738
21
-101.779
0
LINE
8
BLACK
6
CONTINUOUS
10
90.3738
20
-101.779
11
90.3743
21
-101.778
0
LINE
8
BLACK
6
CONTINUOUS
10
90.3743
20
-101.778
11
90.3743
21
-101.778
0
LINE
8
BLACK
6
CONTINUOUS
10
90.3743
20
-101.778
11
90.3743
21
-101.778
0
LINE
8
BLACK
6
CONTINUOUS
10
90.3743
20
-101.778
11
91.9341
21
-99.6508
0
LINE
8
BLACK
6
CONTINUOUS
10
91.9341
20
-99.6508
11
91.9345
21
-99.6502
0
LINE
8
BLACK
6
CONTINUOUS
10
91.9345
20
-99.6502
11
91.9346
21
-99.6502
0
LINE
8
BLACK
6
CONTINUOUS
10
91.9346
20
-99.6502
11
91.9346
21
-99.6502
0
LINE
8
BLACK
6
CONTINUOUS
10
91.9346
20
-99.6502
11
93.6178
21
-97.6193
0
LINE
8
BLACK
6
CONTINUOUS
10
93.6178
20
-97.6193
11
93.6183
21
-97.6187
0
LINE
8
BLACK
6
CONTINUOUS
10
93.6183
20
-97.6187
11
93.6183
21
-97.6187
0
LINE
8
BLACK
6
CONTINUOUS
10
93.6183
20
-97.6187
11
93.6183
21
-97.6187
0
LINE
8
BLACK
6
CONTINUOUS
10
93.6183
20
-97.6187
11
95.419
21
-95.6912
0
LINE
8
BLACK
6
CONTINUOUS
10
95.419
20
-95.6912
11
95.4195
21
-95.6907
0
LINE
8
BLACK
6
CONTINUOUS
10
95.4195
20
-95.6907
11
95.4196
21
-95.6907
0
LINE
8
BLACK
6
CONTINUOUS
10
95.4196
20
-95.6907
11
95.4196
21
-95.6907
0
LINE
8
BLACK
6
CONTINUOUS
10
95.4196
20
-95.6907
11
97.3314
21
-93.8734
0
LINE
8
BLACK
6
CONTINUOUS
10
97.3314
20
-93.8734
11
97.332
21
-93.8729
0
LINE
8
BLACK
6
CONTINUOUS
10
97.332
20
-93.8729
11
97.332
21
-93.8729
0
LINE
8
BLACK
6
CONTINUOUS
10
97.332
20
-93.8729
11
97.332
21
-93.8729
0
LINE
8
BLACK
6
CONTINUOUS
10
97.332
20
-93.8729
11
99.3483
21
-92.1721
0
LINE
8
BLACK
6
CONTINUOUS
10
99.3483
20
-92.1721
11
99.3488
21
-92.1717
0
LINE
8
BLACK
6
CONTINUOUS
10
99.3488
20
-92.1717
11
99.3489
21
-92.1717
0
LINE
8
BLACK
6
CONTINUOUS
10
99.3489
20
-92.1717
11
99.3489
21
-92.1717
0
LINE
8
BLACK
6
CONTINUOUS
10
99.3489
20
-92.1717
11
101.462
21
-90.5935
0
LINE
8
BLACK
6
CONTINUOUS
10
101.462
20
-90.5935
11
101.462
21
-90.5935
0
LINE
8
BLACK
6
CONTINUOUS
10
101.462
20
-90.5935
11
101.463
21
-90.5932
0
LINE
8
BLACK
6
CONTINUOUS
10
101.463
20
-90.5932
11
101.463
21
-90.5931
0
LINE
8
BLACK
6
CONTINUOUS
10
101.463
20
-90.5931
11
101.463
21
-90.5931
0
LINE
8
BLACK
6
CONTINUOUS
10
101.463
20
-90.5931
11
101.463
21
-90.5931
0
LINE
8
BLACK
6
CONTINUOUS
10
101.463
20
-90.5931
11
103.667
21
-89.1431
0
LINE
8
BLACK
6
CONTINUOUS
10
103.667
20
-89.1431
11
103.667
21
-89.1427
0
LINE
8
BLACK
6
CONTINUOUS
10
103.667
20
-89.1427
11
103.667
21
-89.1427
0
LINE
8
BLACK
6
CONTINUOUS
10
103.667
20
-89.1427
11
105.953
21
-87.8259
0
LINE
8
BLACK
6
CONTINUOUS
10
105.953
20
-87.8259
11
105.953
21
-87.8259
0
LINE
8
BLACK
6
CONTINUOUS
10
105.953
20
-87.8259
11
105.953
21
-87.8258
0
LINE
8
BLACK
6
CONTINUOUS
10
105.953
20
-87.8258
11
105.953
21
-87.8255
0
LINE
8
BLACK
6
CONTINUOUS
10
105.953
20
-87.8255
11
105.953
21
-87.8255
0
LINE
8
BLACK
6
CONTINUOUS
10
105.953
20
-87.8255
11
105.953
21
-87.8255
0
LINE
8
BLACK
6
CONTINUOUS
10
105.953
20
-87.8255
11
108.313
21
-86.6466
0
LINE
8
BLACK
6
CONTINUOUS
10
108.313
20
-86.6466
11
108.314
21
-86.6463
0
LINE
8
BLACK
6
CONTINUOUS
10
108.314
20
-86.6463
11
108.314
21
-86.6463
0
LINE
8
BLACK
6
CONTINUOUS
10
108.314
20
-86.6463
11
108.314
21
-86.6463
0
LINE
8
BLACK
6
CONTINUOUS
10
108.314
20
-86.6463
11
110.739
21
-85.6094
0
LINE
8
BLACK
6
CONTINUOUS
10
110.739
20
-85.6094
11
110.739
21
-85.6094
0
LINE
8
BLACK
6
CONTINUOUS
10
110.739
20
-85.6094
11
110.739
21
-85.6093
0
LINE
8
BLACK
6
CONTINUOUS
10
110.739
20
-85.6093
11
110.74
21
-85.6091
0
LINE
8
BLACK
6
CONTINUOUS
10
110.74
20
-85.6091
11
110.74
21
-85.6091
0
LINE
8
BLACK
6
CONTINUOUS
10
110.74
20
-85.6091
11
110.74
21
-85.6091
0
LINE
8
BLACK
6
CONTINUOUS
10
110.74
20
-85.6091
11
113.223
21
-84.7179
0
LINE
8
BLACK
6
CONTINUOUS
10
113.223
20
-84.7179
11
113.223
21
-84.7179
0
LINE
8
BLACK
6
CONTINUOUS
10
113.223
20
-84.7179
11
113.223
21
-84.7177
0
LINE
8
BLACK
6
CONTINUOUS
10
113.223
20
-84.7177
11
113.223
21
-84.7176
0
LINE
8
BLACK
6
CONTINUOUS
10
113.223
20
-84.7176
11
113.223
21
-84.7176
0
LINE
8
BLACK
6
CONTINUOUS
10
113.223
20
-84.7176
11
113.223
21
-84.7176
0
LINE
8
BLACK
6
CONTINUOUS
10
113.223
20
-84.7176
11
115.754
21
-83.9752
0
LINE
8
BLACK
6
CONTINUOUS
10
115.754
20
-83.9752
11
115.755
21
-83.975
0
LINE
8
BLACK
6
CONTINUOUS
10
115.755
20
-83.975
11
115.755
21
-83.975
0
LINE
8
BLACK
6
CONTINUOUS
10
115.755
20
-83.975
11
115.755
21
-83.975
0
LINE
8
BLACK
6
CONTINUOUS
10
115.755
20
-83.975
11
118.326
21
-83.384
0
LINE
8
BLACK
6
CONTINUOUS
10
118.326
20
-83.384
11
118.327
21
-83.3839
0
LINE
8
BLACK
6
CONTINUOUS
10
118.327
20
-83.3839
11
118.327
21
-83.3838
0
LINE
8
BLACK
6
CONTINUOUS
10
118.327
20
-83.3838
11
118.327
21
-83.3838
0
LINE
8
BLACK
6
CONTINUOUS
10
118.327
20
-83.3838
11
120.928
21
-82.9463
0
LINE
8
BLACK
6
CONTINUOUS
10
120.928
20
-82.9463
11
120.928
21
-82.9463
0
LINE
8
BLACK
6
CONTINUOUS
10
120.928
20
-82.9463
11
120.928
21
-82.9463
0
LINE
8
BLACK
6
CONTINUOUS
10
120.928
20
-82.9463
11
120.928
21
-82.9463
0
LINE
8
BLACK
6
CONTINUOUS
10
120.928
20
-82.9463
11
120.929
21
-82.9462
0
LINE
8
BLACK
6
CONTINUOUS
10
120.929
20
-82.9462
11
120.929
21
-82.9462
0
LINE
8
BLACK
6
CONTINUOUS
10
120.929
20
-82.9462
11
120.929
21
-82.9462
0
LINE
8
BLACK
6
CONTINUOUS
10
120.929
20
-82.9462
11
123.32
21
-82.6824
0
LINE
8
BLACK
6
CONTINUOUS
10
123.32
20
-82.6824
11
123.32
21
-82.6824
0
LINE
8
BLACK
6
CONTINUOUS
10
123.32
20
-82.6824
11
123.322
21
-82.6822
0
LINE
8
BLACK
6
CONTINUOUS
10
123.322
20
-82.6822
11
123.322
21
-82.6822
0
LINE
8
BLACK
6
CONTINUOUS
10
123.322
20
-82.6822
11
160.572
21
-82.693
0
LINE
8
BLACK
6
CONTINUOUS
10
160.572
20
-82.693
11
160.573
21
-82.6929
0
LINE
8
BLACK
6
CONTINUOUS
10
160.573
20
-82.6929
11
160.576
21
-82.6932
0
LINE
8
BLACK
6
CONTINUOUS
10
160.576
20
-82.6932
11
160.576
21
-82.6932
0
LINE
8
BLACK
6
CONTINUOUS
10
160.576
20
-82.6932
11
160.576
21
-82.6932
0
LINE
8
BLACK
6
CONTINUOUS
10
160.576
20
-82.6932
11
160.577
21
-82.6935
0
LINE
8
BLACK
6
CONTINUOUS
10
160.577
20
-82.6935
11
160.578
21
-82.6939
0
LINE
8
BLACK
6
CONTINUOUS
10
160.578
20
-82.6939
11
160.578
21
-82.6939
0
LINE
8
BLACK
6
CONTINUOUS
10
160.578
20
-82.6939
11
160.578
21
-82.6939
0
LINE
8
BLACK
6
CONTINUOUS
10
160.578
20
-82.6939
11
160.58
21
-82.6951
0
LINE
8
BLACK
6
CONTINUOUS
10
160.58
20
-82.6951
11
160.582
21
-82.6967
0
LINE
8
BLACK
6
CONTINUOUS
10
160.582
20
-82.6967
11
160.583
21
-82.6981
0
LINE
8
BLACK
6
CONTINUOUS
10
160.583
20
-82.6981
11
160.584
21
-82.6986
0
LINE
8
BLACK
6
CONTINUOUS
10
160.584
20
-82.6986
11
160.585
21
-82.7008
0
LINE
8
BLACK
6
CONTINUOUS
10
160.585
20
-82.7008
11
160.585
21
-82.7008
0
LINE
8
BLACK
6
CONTINUOUS
10
160.585
20
-82.7008
11
160.585
21
-82.7008
0
LINE
8
BLACK
6
CONTINUOUS
10
160.585
20
-82.7008
11
160.586
21
-82.7032
0
LINE
8
BLACK
6
CONTINUOUS
10
160.586
20
-82.7032
11
160.586
21
-82.7057
0
LINE
8
BLACK
6
CONTINUOUS
10
160.586
20
-82.7057
11
160.586
21
-82.7063
0
LINE
8
BLACK
6
CONTINUOUS
10
160.586
20
-82.7063
11
160.586
21
-97.9512
0
LINE
8
BLACK
6
CONTINUOUS
10
160.586
20
-97.9512
11
162.246
21
-99.9899
0
LINE
8
BLACK
6
CONTINUOUS
10
162.246
20
-99.9899
11
162.246
21
-99.9899
0
LINE
8
BLACK
6
CONTINUOUS
10
162.246
20
-99.9899
11
162.246
21
-99.9901
0
LINE
8
BLACK
6
CONTINUOUS
10
162.246
20
-99.9901
11
162.247
21
-99.9904
0
LINE
8
BLACK
6
CONTINUOUS
10
162.247
20
-99.9904
11
162.247
21
-99.9905
0
LINE
8
BLACK
6
CONTINUOUS
10
162.247
20
-99.9905
11
162.247
21
-99.9905
0
LINE
8
BLACK
6
CONTINUOUS
10
162.247
20
-99.9905
11
163.786
21
-102.128
0
LINE
8
BLACK
6
CONTINUOUS
10
163.786
20
-102.128
11
163.786
21
-102.128
0
LINE
8
BLACK
6
CONTINUOUS
10
163.786
20
-102.128
11
163.786
21
-102.128
0
LINE
8
BLACK
6
CONTINUOUS
10
163.786
20
-102.128
11
163.787
21
-102.128
0
LINE
8
BLACK
6
CONTINUOUS
10
163.787
20
-102.128
11
163.787
21
-102.128
0
LINE
8
BLACK
6
CONTINUOUS
10
163.787
20
-102.128
11
163.787
21
-102.128
0
LINE
8
BLACK
6
CONTINUOUS
10
163.787
20
-102.128
11
165.197
21
-104.353
0
LINE
8
BLACK
6
CONTINUOUS
10
165.197
20
-104.353
11
165.197
21
-104.353
0
LINE
8
BLACK
6
CONTINUOUS
10
165.197
20
-104.353
11
165.197
21
-104.353
0
LINE
8
BLACK
6
CONTINUOUS
10
165.197
20
-104.353
11
165.197
21
-104.354
0
LINE
8
BLACK
6
CONTINUOUS
10
165.197
20
-104.354
11
165.197
21
-104.354
0
LINE
8
BLACK
6
CONTINUOUS
10
165.197
20
-104.354
11
165.197
21
-104.354
0
LINE
8
BLACK
6
CONTINUOUS
10
165.197
20
-104.354
11
166.472
21
-106.658
0
LINE
8
BLACK
6
CONTINUOUS
10
166.472
20
-106.658
11
166.473
21
-106.659
0
LINE
8
BLACK
6
CONTINUOUS
10
166.473
20
-106.659
11
166.473
21
-106.659
0
LINE
8
BLACK
6
CONTINUOUS
10
166.473
20
-106.659
11
166.473
21
-106.659
0
LINE
8
BLACK
6
CONTINUOUS
10
166.473
20
-106.659
11
167.609
21
-109.035
0
LINE
8
BLACK
6
CONTINUOUS
10
167.609
20
-109.035
11
167.61
21
-109.036
0
LINE
8
BLACK
6
CONTINUOUS
10
167.61
20
-109.036
11
167.61
21
-109.036
0
LINE
8
BLACK
6
CONTINUOUS
10
167.61
20
-109.036
11
167.61
21
-109.036
0
LINE
8
BLACK
6
CONTINUOUS
10
167.61
20
-109.036
11
168.603
21
-111.475
0
LINE
8
BLACK
6
CONTINUOUS
10
168.603
20
-111.475
11
168.603
21
-111.476
0
LINE
8
BLACK
6
CONTINUOUS
10
168.603
20
-111.476
11
168.603
21
-111.476
0
LINE
8
BLACK
6
CONTINUOUS
10
168.603
20
-111.476
11
168.604
21
-111.476
0
LINE
8
BLACK
6
CONTINUOUS
10
168.604
20
-111.476
11
169.451
21
-113.97
0
LINE
8
BLACK
6
CONTINUOUS
10
169.451
20
-113.97
11
169.451
21
-113.97
0
LINE
8
BLACK
6
CONTINUOUS
10
169.451
20
-113.97
11
169.451
21
-113.97
0
LINE
8
BLACK
6
CONTINUOUS
10
169.451
20
-113.97
11
169.451
21
-113.971
0
LINE
8
BLACK
6
CONTINUOUS
10
169.451
20
-113.971
11
170.149
21
-116.51
0
LINE
8
BLACK
6
CONTINUOUS
10
170.149
20
-116.51
11
170.149
21
-116.51
0
LINE
8
BLACK
6
CONTINUOUS
10
170.149
20
-116.51
11
170.149
21
-116.511
0
LINE
8
BLACK
6
CONTINUOUS
10
170.149
20
-116.511
11
170.149
21
-116.511
0
LINE
8
BLACK
6
CONTINUOUS
10
170.149
20
-116.511
11
170.149
21
-116.511
0
LINE
8
BLACK
6
CONTINUOUS
10
170.149
20
-116.511
11
170.149
21
-116.511
0
LINE
8
BLACK
6
CONTINUOUS
10
170.149
20
-116.511
11
170.695
21
-119.088
0
LINE
8
BLACK
6
CONTINUOUS
10
170.695
20
-119.088
11
170.695
21
-119.088
0
LINE
8
BLACK
6
CONTINUOUS
10
170.695
20
-119.088
11
170.695
21
-119.088
0
LINE
8
BLACK
6
CONTINUOUS
10
170.695
20
-119.088
11
170.695
21
-119.088
0
LINE
8
BLACK
6
CONTINUOUS
10
170.695
20
-119.088
11
170.695
21
-119.089
0
LINE
8
BLACK
6
CONTINUOUS
10
170.695
20
-119.089
11
170.695
21
-119.089
0
LINE
8
BLACK
6
CONTINUOUS
10
170.695
20
-119.089
11
171.087
21
-121.693
0
LINE
8
BLACK
6
CONTINUOUS
10
171.087
20
-121.693
11
171.087
21
-121.693
0
LINE
8
BLACK
6
CONTINUOUS
10
171.087
20
-121.693
11
171.087
21
-121.693
0
LINE
8
BLACK
6
CONTINUOUS
10
171.087
20
-121.693
11
171.087
21
-121.694
0
LINE
8
BLACK
6
CONTINUOUS
10
171.087
20
-121.694
11
171.087
21
-121.694
0
LINE
8
BLACK
6
CONTINUOUS
10
171.087
20
-121.694
11
171.087
21
-121.694
0
LINE
8
BLACK
6
CONTINUOUS
10
171.087
20
-121.694
11
171.324
21
-124.317
0
LINE
8
BLACK
6
CONTINUOUS
10
171.324
20
-124.317
11
171.324
21
-124.317
0
LINE
8
BLACK
6
CONTINUOUS
10
171.324
20
-124.317
11
171.324
21
-124.318
0
LINE
8
BLACK
6
CONTINUOUS
10
171.324
20
-124.318
11
171.324
21
-124.318
0
LINE
8
BLACK
6
CONTINUOUS
10
171.324
20
-124.318
11
171.324
21
-124.318
0
LINE
8
BLACK
6
CONTINUOUS
10
171.324
20
-124.318
11
171.324
21
-124.318
0
LINE
8
BLACK
6
CONTINUOUS
10
171.324
20
-124.318
11
171.406
21
-126.951
0
LINE
8
BLACK
6
CONTINUOUS
10
171.406
20
-126.951
11
171.406
21
-126.951
0
LINE
8
BLACK
6
CONTINUOUS
10
171.406
20
-126.951
11
171.406
21
-126.951
0
LINE
8
BLACK
6
CONTINUOUS
10
171.406
20
-126.951
11
171.406
21
-126.951
0
LINE
8
BLACK
6
CONTINUOUS
10
171.406
20
-126.951
11
171.33
21
-129.584
0
LINE
8
BLACK
6
CONTINUOUS
10
171.33
20
-129.584
11
171.33
21
-129.585
0
LINE
8
BLACK
6
CONTINUOUS
10
171.33
20
-129.585
11
171.33
21
-129.585
0
LINE
8
BLACK
6
CONTINUOUS
10
171.33
20
-129.585
11
171.33
21
-129.585
0
LINE
8
BLACK
6
CONTINUOUS
10
171.33
20
-129.585
11
171.099
21
-132.209
0
LINE
8
BLACK
6
CONTINUOUS
10
171.099
20
-132.209
11
171.099
21
-132.209
0
LINE
8
BLACK
6
CONTINUOUS
10
171.099
20
-132.209
11
171.099
21
-132.209
0
LINE
8
BLACK
6
CONTINUOUS
10
171.099
20
-132.209
11
171.099
21
-132.209
0
LINE
8
BLACK
6
CONTINUOUS
10
171.099
20
-132.209
11
170.712
21
-134.815
0
LINE
8
BLACK
6
CONTINUOUS
10
170.712
20
-134.815
11
170.712
21
-134.816
0
LINE
8
BLACK
6
CONTINUOUS
10
170.712
20
-134.816
11
170.712
21
-134.816
0
LINE
8
BLACK
6
CONTINUOUS
10
170.712
20
-134.816
11
170.712
21
-134.816
0
LINE
8
BLACK
6
CONTINUOUS
10
170.712
20
-134.816
11
170.172
21
-137.394
0
LINE
8
BLACK
6
CONTINUOUS
10
170.172
20
-137.394
11
170.172
21
-137.394
0
LINE
8
BLACK
6
CONTINUOUS
10
170.172
20
-137.394
11
170.172
21
-137.394
0
LINE
8
BLACK
6
CONTINUOUS
10
170.172
20
-137.394
11
170.172
21
-137.394
0
LINE
8
BLACK
6
CONTINUOUS
10
170.172
20
-137.394
11
169.48
21
-139.936
0
LINE
8
BLACK
6
CONTINUOUS
10
169.48
20
-139.936
11
169.479
21
-139.936
0
LINE
8
BLACK
6
CONTINUOUS
10
169.479
20
-139.936
11
169.479
21
-139.936
0
LINE
8
BLACK
6
CONTINUOUS
10
169.479
20
-139.936
11
169.479
21
-139.936
0
LINE
8
BLACK
6
CONTINUOUS
10
169.479
20
-139.936
11
168.638
21
-142.432
0
LINE
8
BLACK
6
CONTINUOUS
10
168.638
20
-142.432
11
168.637
21
-142.433
0
LINE
8
BLACK
6
CONTINUOUS
10
168.637
20
-142.433
11
168.637
21
-142.433
0
LINE
8
BLACK
6
CONTINUOUS
10
168.637
20
-142.433
11
168.637
21
-142.433
0
LINE
8
BLACK
6
CONTINUOUS
10
168.637
20
-142.433
11
167.649
21
-144.874
0
LINE
8
BLACK
6
CONTINUOUS
10
167.649
20
-144.874
11
167.649
21
-144.875
0
LINE
8
BLACK
6
CONTINUOUS
10
167.649
20
-144.875
11
167.649
21
-144.875
0
LINE
8
BLACK
6
CONTINUOUS
10
167.649
20
-144.875
11
167.649
21
-144.875
0
LINE
8
BLACK
6
CONTINUOUS
10
167.649
20
-144.875
11
166.518
21
-147.254
0
LINE
8
BLACK
6
CONTINUOUS
10
166.518
20
-147.254
11
166.517
21
-147.254
0
LINE
8
BLACK
6
CONTINUOUS
10
166.517
20
-147.254
11
166.517
21
-147.254
0
LINE
8
BLACK
6
CONTINUOUS
10
166.517
20
-147.254
11
166.517
21
-147.254
0
LINE
8
BLACK
6
CONTINUOUS
10
166.517
20
-147.254
11
165.247
21
-149.562
0
LINE
8
BLACK
6
CONTINUOUS
10
165.247
20
-149.562
11
165.247
21
-149.562
0
LINE
8
BLACK
6
CONTINUOUS
10
165.247
20
-149.562
11
165.247
21
-149.562
0
LINE
8
BLACK
6
CONTINUOUS
10
165.247
20
-149.562
11
165.246
21
-149.562
0
LINE
8
BLACK
6
CONTINUOUS
10
165.246
20
-149.562
11
165.246
21
-149.562
0
LINE
8
BLACK
6
CONTINUOUS
10
165.246
20
-149.562
11
165.246
21
-149.562
0
LINE
8
BLACK
6
CONTINUOUS
10
165.246
20
-149.562
11
163.842
21
-151.79
0
LINE
8
BLACK
6
CONTINUOUS
10
163.842
20
-151.79
11
163.841
21
-151.79
0
LINE
8
BLACK
6
CONTINUOUS
10
163.841
20
-151.79
11
163.841
21
-151.791
0
LINE
8
BLACK
6
CONTINUOUS
10
163.841
20
-151.791
11
163.841
21
-151.791
0
LINE
8
BLACK
6
CONTINUOUS
10
163.841
20
-151.791
11
163.841
21
-151.791
0
LINE
8
BLACK
6
CONTINUOUS
10
163.841
20
-151.791
11
163.841
21
-151.791
0
LINE
8
BLACK
6
CONTINUOUS
10
163.841
20
-151.791
11
162.306
21
-153.932
0
LINE
8
BLACK
6
CONTINUOUS
10
162.306
20
-153.932
11
162.306
21
-153.932
0
LINE
8
BLACK
6
CONTINUOUS
10
162.306
20
-153.932
11
162.306
21
-153.932
0
LINE
8
BLACK
6
CONTINUOUS
10
162.306
20
-153.932
11
162.306
21
-153.932
0
LINE
8
BLACK
6
CONTINUOUS
10
162.306
20
-153.932
11
160.647
21
-155.978
0
LINE
8
BLACK
6
CONTINUOUS
10
160.647
20
-155.978
11
160.647
21
-155.979
0
LINE
8
BLACK
6
CONTINUOUS
10
160.647
20
-155.979
11
160.647
21
-155.979
0
LINE
8
BLACK
6
CONTINUOUS
10
160.647
20
-155.979
11
160.647
21
-155.979
0
LINE
8
BLACK
6
CONTINUOUS
10
160.647
20
-155.979
11
158.869
21
-157.923
0
LINE
8
BLACK
6
CONTINUOUS
10
158.869
20
-157.923
11
158.869
21
-157.923
0
LINE
8
BLACK
6
CONTINUOUS
10
158.869
20
-157.923
11
158.869
21
-157.923
0
LINE
8
BLACK
6
CONTINUOUS
10
158.869
20
-157.923
11
158.869
21
-157.923
0
LINE
8
BLACK
6
CONTINUOUS
10
158.869
20
-157.923
11
156.979
21
-159.758
0
LINE
8
BLACK
6
CONTINUOUS
10
156.979
20
-159.758
11
156.979
21
-159.758
0
LINE
8
BLACK
6
CONTINUOUS
10
156.979
20
-159.758
11
156.979
21
-159.758
0
LINE
8
BLACK
6
CONTINUOUS
10
156.979
20
-159.758
11
156.979
21
-159.759
0
LINE
8
BLACK
6
CONTINUOUS
10
156.979
20
-159.759
11
156.979
21
-159.759
0
LINE
8
BLACK
6
CONTINUOUS
10
156.979
20
-159.759
11
156.979
21
-159.759
0
LINE
8
BLACK
6
CONTINUOUS
10
156.979
20
-159.759
11
154.984
21
-161.478
0
LINE
8
BLACK
6
CONTINUOUS
10
154.984
20
-161.478
11
154.984
21
-161.478
0
LINE
8
BLACK
6
CONTINUOUS
10
154.984
20
-161.478
11
154.983
21
-161.479
0
LINE
8
BLACK
6
CONTINUOUS
10
154.983
20
-161.479
11
154.983
21
-161.479
0
LINE
8
BLACK
6
CONTINUOUS
10
154.983
20
-161.479
11
154.983
21
-161.479
0
LINE
8
BLACK
6
CONTINUOUS
10
154.983
20
-161.479
11
154.983
21
-161.479
0
LINE
8
BLACK
6
CONTINUOUS
10
154.983
20
-161.479
11
152.89
21
-163.077
0
LINE
8
BLACK
6
CONTINUOUS
10
152.89
20
-163.077
11
152.889
21
-163.078
0
LINE
8
BLACK
6
CONTINUOUS
10
152.889
20
-163.078
11
152.889
21
-163.078
0
LINE
8
BLACK
6
CONTINUOUS
10
152.889
20
-163.078
11
152.889
21
-163.078
0
LINE
8
BLACK
6
CONTINUOUS
10
152.889
20
-163.078
11
150.704
21
-164.549
0
LINE
8
BLACK
6
CONTINUOUS
10
150.704
20
-164.549
11
150.704
21
-164.55
0
LINE
8
BLACK
6
CONTINUOUS
10
150.704
20
-164.55
11
150.704
21
-164.55
0
LINE
8
BLACK
6
CONTINUOUS
10
150.704
20
-164.55
11
150.704
21
-164.55
0
LINE
8
BLACK
6
CONTINUOUS
10
150.704
20
-164.55
11
148.436
21
-165.889
0
LINE
8
BLACK
6
CONTINUOUS
10
148.436
20
-165.889
11
148.435
21
-165.889
0
LINE
8
BLACK
6
CONTINUOUS
10
148.435
20
-165.889
11
148.435
21
-165.889
0
LINE
8
BLACK
6
CONTINUOUS
10
148.435
20
-165.889
11
148.435
21
-165.889
0
LINE
8
BLACK
6
CONTINUOUS
10
148.435
20
-165.889
11
146.092
21
-167.092
0
LINE
8
BLACK
6
CONTINUOUS
10
146.092
20
-167.092
11
146.092
21
-167.092
0
LINE
8
BLACK
6
CONTINUOUS
10
146.092
20
-167.092
11
146.091
21
-167.092
0
LINE
8
BLACK
6
CONTINUOUS
10
146.091
20
-167.092
11
146.091
21
-167.092
0
LINE
8
BLACK
6
CONTINUOUS
10
146.091
20
-167.092
11
146.091
21
-167.092
0
LINE
8
BLACK
6
CONTINUOUS
10
146.091
20
-167.092
11
146.091
21
-167.092
0
LINE
8
BLACK
6
CONTINUOUS
10
146.091
20
-167.092
11
143.68
21
-168.154
0
LINE
8
BLACK
6
CONTINUOUS
10
143.68
20
-168.154
11
143.68
21
-168.154
0
LINE
8
BLACK
6
CONTINUOUS
10
143.68
20
-168.154
11
143.68
21
-168.154
0
LINE
8
BLACK
6
CONTINUOUS
10
143.68
20
-168.154
11
143.68
21
-168.154
0
LINE
8
BLACK
6
CONTINUOUS
10
143.68
20
-168.154
11
143.68
21
-168.154
0
LINE
8
BLACK
6
CONTINUOUS
10
143.68
20
-168.154
11
143.68
21
-168.154
0
LINE
8
BLACK
6
CONTINUOUS
10
143.68
20
-168.154
11
141.21
21
-169.07
0
LINE
8
BLACK
6
CONTINUOUS
10
141.21
20
-169.07
11
141.21
21
-169.07
0
LINE
8
BLACK
6
CONTINUOUS
10
141.21
20
-169.07
11
141.21
21
-169.07
0
LINE
8
BLACK
6
CONTINUOUS
10
141.21
20
-169.07
11
141.21
21
-169.071
0
LINE
8
BLACK
6
CONTINUOUS
10
141.21
20
-169.071
11
141.21
21
-169.071
0
LINE
8
BLACK
6
CONTINUOUS
10
141.21
20
-169.071
11
141.21
21
-169.071
0
LINE
8
BLACK
6
CONTINUOUS
10
141.21
20
-169.071
11
138.69
21
-169.839
0
LINE
8
BLACK
6
CONTINUOUS
10
138.69
20
-169.839
11
138.69
21
-169.839
0
LINE
8
BLACK
6
CONTINUOUS
10
138.69
20
-169.839
11
138.69
21
-169.839
0
LINE
8
BLACK
6
CONTINUOUS
10
138.69
20
-169.839
11
138.69
21
-169.839
0
LINE
8
BLACK
6
CONTINUOUS
10
138.69
20
-169.839
11
138.69
21
-169.839
0
LINE
8
BLACK
6
CONTINUOUS
10
138.69
20
-169.839
11
138.69
21
-169.839
0
LINE
8
BLACK
6
CONTINUOUS
10
138.69
20
-169.839
11
136.129
21
-170.457
0
LINE
8
BLACK
6
CONTINUOUS
10
136.129
20
-170.457
11
136.129
21
-170.457
0
LINE
8
BLACK
6
CONTINUOUS
10
136.129
20
-170.457
11
136.129
21
-170.457
0
LINE
8
BLACK
6
CONTINUOUS
10
136.129
20
-170.457
11
136.128
21
-170.457
0
LINE
8
BLACK
6
CONTINUOUS
10
136.128
20
-170.457
11
136.128
21
-170.457
0
LINE
8
BLACK
6
CONTINUOUS
10
136.128
20
-170.457
11
136.128
21
-170.457
0
LINE
8
BLACK
6
CONTINUOUS
10
136.128
20
-170.457
11
133.536
21
-170.922
0
LINE
8
BLACK
6
CONTINUOUS
10
133.536
20
-170.922
11
133.535
21
-170.922
0
LINE
8
BLACK
6
CONTINUOUS
10
133.535
20
-170.922
11
133.535
21
-170.922
0
LINE
8
BLACK
6
CONTINUOUS
10
133.535
20
-170.922
11
133.535
21
-170.922
0
LINE
8
BLACK
6
CONTINUOUS
10
133.535
20
-170.922
11
130.919
21
-171.232
0
LINE
8
BLACK
6
CONTINUOUS
10
130.919
20
-171.232
11
130.919
21
-171.232
0
LINE
8
BLACK
6
CONTINUOUS
10
130.919
20
-171.232
11
130.919
21
-171.232
0
LINE
8
BLACK
6
CONTINUOUS
10
130.919
20
-171.232
11
130.919
21
-171.232
0
LINE
8
BLACK
6
CONTINUOUS
10
130.919
20
-171.232
11
128.289
21
-171.387
0
LINE
8
BLACK
6
CONTINUOUS
10
128.289
20
-171.387
11
128.289
21
-171.387
0
LINE
8
BLACK
6
CONTINUOUS
10
128.289
20
-171.387
11
128.289
21
-171.387
0
LINE
8
BLACK
6
CONTINUOUS
10
128.289
20
-171.387
11
128.289
21
-171.387
0
LINE
8
BLACK
6
CONTINUOUS
10
128.289
20
-171.387
11
125.655
21
-171.385
0
LINE
8
BLACK
6
CONTINUOUS
10
125.655
20
-171.385
11
125.654
21
-171.385
0
LINE
8
BLACK
6
CONTINUOUS
10
125.654
20
-171.385
11
125.654
21
-171.385
0
LINE
8
BLACK
6
CONTINUOUS
10
125.654
20
-171.385
11
125.654
21
-171.385
0
LINE
8
BLACK
6
CONTINUOUS
10
125.654
20
-171.385
11
123.025
21
-171.227
0
LINE
8
BLACK
6
CONTINUOUS
10
123.025
20
-171.227
11
123.025
21
-171.227
0
LINE
8
BLACK
6
CONTINUOUS
10
123.025
20
-171.227
11
123.024
21
-171.227
0
LINE
8
BLACK
6
CONTINUOUS
10
123.024
20
-171.227
11
123.024
21
-171.227
0
LINE
8
BLACK
6
CONTINUOUS
10
123.024
20
-171.227
11
123.024
21
-171.227
0
LINE
8
BLACK
6
CONTINUOUS
10
123.024
20
-171.227
11
123.024
21
-171.227
0
LINE
8
BLACK
6
CONTINUOUS
10
123.024
20
-171.227
11
120.409
21
-170.914
0
LINE
8
BLACK
6
CONTINUOUS
10
120.409
20
-170.914
11
120.408
21
-170.914
0
LINE
8
BLACK
6
CONTINUOUS
10
120.408
20
-170.914
11
120.408
21
-170.914
0
LINE
8
BLACK
6
CONTINUOUS
10
120.408
20
-170.914
11
120.408
21
-170.914
0
LINE
8
BLACK
6
CONTINUOUS
10
120.408
20
-170.914
11
117.816
21
-170.445
0
LINE
8
BLACK
6
CONTINUOUS
10
117.816
20
-170.445
11
117.815
21
-170.445
0
LINE
8
BLACK
6
CONTINUOUS
10
117.815
20
-170.445
11
117.815
21
-170.445
0
LINE
8
BLACK
6
CONTINUOUS
10
117.815
20
-170.445
11
117.815
21
-170.445
0
LINE
8
BLACK
6
CONTINUOUS
10
117.815
20
-170.445
11
115.256
21
-169.824
0
LINE
8
BLACK
6
CONTINUOUS
10
115.256
20
-169.824
11
115.255
21
-169.824
0
LINE
8
BLACK
6
CONTINUOUS
10
115.255
20
-169.824
11
115.255
21
-169.824
0
LINE
8
BLACK
6
CONTINUOUS
10
115.255
20
-169.824
11
115.255
21
-169.824
0
LINE
8
BLACK
6
CONTINUOUS
10
115.255
20
-169.824
11
112.736
21
-169.052
0
LINE
8
BLACK
6
CONTINUOUS
10
112.736
20
-169.052
11
112.736
21
-169.052
0
LINE
8
BLACK
6
CONTINUOUS
10
112.736
20
-169.052
11
112.736
21
-169.052
0
LINE
8
BLACK
6
CONTINUOUS
10
112.736
20
-169.052
11
112.736
21
-169.052
0
LINE
8
BLACK
6
CONTINUOUS
10
112.736
20
-169.052
11
110.268
21
-168.132
0
LINE
8
BLACK
6
CONTINUOUS
10
110.268
20
-168.132
11
110.268
21
-168.132
0
LINE
8
BLACK
6
CONTINUOUS
10
110.268
20
-168.132
11
110.267
21
-168.132
0
LINE
8
BLACK
6
CONTINUOUS
10
110.267
20
-168.132
11
110.267
21
-168.132
0
LINE
8
BLACK
6
CONTINUOUS
10
110.267
20
-168.132
11
110.267
21
-168.132
0
LINE
8
BLACK
6
CONTINUOUS
10
110.267
20
-168.132
11
110.267
21
-168.132
0
LINE
8
BLACK
6
CONTINUOUS
10
110.267
20
-168.132
11
107.858
21
-167.068
0
LINE
8
BLACK
6
CONTINUOUS
10
107.858
20
-167.068
11
107.857
21
-167.067
0
LINE
8
BLACK
6
CONTINUOUS
10
107.857
20
-167.067
11
107.857
21
-167.067
0
LINE
8
BLACK
6
CONTINUOUS
10
107.857
20
-167.067
11
107.857
21
-167.067
0
LINE
8
BLACK
6
CONTINUOUS
10
107.857
20
-167.067
11
105.515
21
-165.862
0
LINE
8
BLACK
6
CONTINUOUS
10
105.515
20
-165.862
11
105.515
21
-165.862
0
LINE
8
BLACK
6
CONTINUOUS
10
105.515
20
-165.862
11
105.515
21
-165.862
0
LINE
8
BLACK
6
CONTINUOUS
10
105.515
20
-165.862
11
105.514
21
-165.862
0
LINE
8
BLACK
6
CONTINUOUS
10
105.514
20
-165.862
11
105.514
21
-165.862
0
LINE
8
BLACK
6
CONTINUOUS
10
105.514
20
-165.862
11
105.514
21
-165.862
0
LINE
8
BLACK
6
CONTINUOUS
10
105.514
20
-165.862
11
103.248
21
-164.519
0
LINE
8
BLACK
6
CONTINUOUS
10
103.248
20
-164.519
11
103.248
21
-164.519
0
LINE
8
BLACK
6
CONTINUOUS
10
103.248
20
-164.519
11
103.248
21
-164.519
0
LINE
8
BLACK
6
CONTINUOUS
10
103.248
20
-164.519
11
103.247
21
-164.519
0
LINE
8
BLACK
6
CONTINUOUS
10
103.247
20
-164.519
11
103.247
21
-164.519
0
LINE
8
BLACK
6
CONTINUOUS
10
103.247
20
-164.519
11
103.247
21
-164.519
0
LINE
8
BLACK
6
CONTINUOUS
10
103.247
20
-164.519
11
101.065
21
-163.045
0
LINE
8
BLACK
6
CONTINUOUS
10
101.065
20
-163.045
11
101.065
21
-163.045
0
LINE
8
BLACK
6
CONTINUOUS
10
101.065
20
-163.045
11
101.065
21
-163.045
0
LINE
8
BLACK
6
CONTINUOUS
10
101.065
20
-163.045
11
101.064
21
-163.044
0
LINE
8
BLACK
6
CONTINUOUS
10
101.064
20
-163.044
11
101.064
21
-163.044
0
LINE
8
BLACK
6
CONTINUOUS
10
101.064
20
-163.044
11
101.064
21
-163.044
0
LINE
8
BLACK
6
CONTINUOUS
10
101.064
20
-163.044
11
98.9727
21
-161.443
0
LINE
8
BLACK
6
CONTINUOUS
10
98.9727
20
-161.443
11
98.9727
21
-161.443
0
LINE
8
BLACK
6
CONTINUOUS
10
98.9727
20
-161.443
11
98.9725
21
-161.443
0
LINE
8
BLACK
6
CONTINUOUS
10
98.9725
20
-161.443
11
98.9722
21
-161.443
0
LINE
8
BLACK
6
CONTINUOUS
10
98.9722
20
-161.443
11
98.9722
21
-161.443
0
LINE
8
BLACK
6
CONTINUOUS
10
98.9722
20
-161.443
11
98.9721
21
-161.443
0
LINE
8
BLACK
6
CONTINUOUS
10
98.9721
20
-161.443
11
96.9794
21
-159.72
0
LINE
8
BLACK
6
CONTINUOUS
10
96.9794
20
-159.72
11
96.9789
21
-159.72
0
LINE
8
BLACK
6
CONTINUOUS
10
96.9789
20
-159.72
11
96.9788
21
-159.72
0
LINE
8
BLACK
6
CONTINUOUS
10
96.9788
20
-159.72
11
96.9788
21
-159.72
0
LINE
8
BLACK
6
CONTINUOUS
10
96.9788
20
-159.72
11
95.0917
21
-157.882
0
LINE
8
BLACK
6
CONTINUOUS
10
95.0917
20
-157.882
11
95.0912
21
-157.882
0
LINE
8
BLACK
6
CONTINUOUS
10
95.0912
20
-157.882
11
95.0912
21
-157.882
0
LINE
8
BLACK
6
CONTINUOUS
10
95.0912
20
-157.882
11
95.0912
21
-157.882
0
LINE
8
BLACK
6
CONTINUOUS
10
95.0912
20
-157.882
11
93.3163
21
-155.936
0
LINE
8
BLACK
6
CONTINUOUS
10
93.3163
20
-155.936
11
93.3159
21
-155.935
0
LINE
8
BLACK
6
CONTINUOUS
10
93.3159
20
-155.935
11
93.3159
21
-155.935
0
LINE
8
BLACK
6
CONTINUOUS
10
93.3159
20
-155.935
11
93.3159
21
-155.935
0
LINE
8
BLACK
6
CONTINUOUS
10
93.3159
20
-155.935
11
91.6596
21
-153.887
0
LINE
8
BLACK
6
CONTINUOUS
10
91.6596
20
-153.887
11
91.6591
21
-153.886
0
LINE
8
BLACK
6
CONTINUOUS
10
91.6591
20
-153.886
11
91.6591
21
-153.886
0
LINE
8
BLACK
6
CONTINUOUS
10
91.6591
20
-153.886
11
91.6591
21
-153.886
0
LINE
8
BLACK
6
CONTINUOUS
10
91.6591
20
-153.886
11
90.1272
21
-151.744
0
LINE
8
BLACK
6
CONTINUOUS
10
90.1272
20
-151.744
11
90.1272
21
-151.744
0
LINE
8
BLACK
6
CONTINUOUS
10
90.1272
20
-151.744
11
90.127
21
-151.743
0
LINE
8
BLACK
6
CONTINUOUS
10
90.127
20
-151.743
11
90.1268
21
-151.743
0
LINE
8
BLACK
6
CONTINUOUS
10
90.1268
20
-151.743
11
90.1268
21
-151.743
0
LINE
8
BLACK
6
CONTINUOUS
10
90.1268
20
-151.743
11
90.1268
21
-151.743
0
LINE
8
BLACK
6
CONTINUOUS
10
90.1268
20
-151.743
11
88.7247
21
-149.513
0
LINE
8
BLACK
6
CONTINUOUS
10
88.7247
20
-149.513
11
88.7243
21
-149.513
0
LINE
8
BLACK
6
CONTINUOUS
10
88.7243
20
-149.513
11
88.7243
21
-149.513
0
LINE
8
BLACK
6
CONTINUOUS
10
88.7243
20
-149.513
11
88.7243
21
-149.513
0
LINE
8
BLACK
6
CONTINUOUS
10
88.7243
20
-149.513
11
87.4568
21
-147.204
0
LINE
8
BLACK
6
CONTINUOUS
10
87.4568
20
-147.204
11
87.4565
21
-147.203
0
LINE
8
BLACK
6
CONTINUOUS
10
87.4565
20
-147.203
11
87.4565
21
-147.203
0
LINE
8
BLACK
6
CONTINUOUS
10
87.4565
20
-147.203
11
87.4565
21
-147.203
0
LINE
8
BLACK
6
CONTINUOUS
10
87.4565
20
-147.203
11
86.3282
21
-144.823
0
LINE
8
BLACK
6
CONTINUOUS
10
86.3282
20
-144.823
11
86.328
21
-144.822
0
LINE
8
BLACK
6
CONTINUOUS
10
86.328
20
-144.822
11
86.3279
21
-144.822
0
LINE
8
BLACK
6
CONTINUOUS
10
86.3279
20
-144.822
11
86.3279
21
-144.822
0
LINE
8
BLACK
6
CONTINUOUS
10
86.3279
20
-144.822
11
85.3428
21
-142.38
0
LINE
8
BLACK
6
CONTINUOUS
10
85.3428
20
-142.38
11
85.3428
21
-142.38
0
LINE
8
BLACK
6
CONTINUOUS
10
85.3428
20
-142.38
11
85.3427
21
-142.379
0
LINE
8
BLACK
6
CONTINUOUS
10
85.3427
20
-142.379
11
85.3426
21
-142.379
0
LINE
8
BLACK
6
CONTINUOUS
10
85.3426
20
-142.379
11
85.3426
21
-142.379
0
LINE
8
BLACK
6
CONTINUOUS
10
85.3426
20
-142.379
11
85.3426
21
-142.379
0
LINE
8
BLACK
6
CONTINUOUS
10
85.3426
20
-142.379
11
84.504
21
-139.882
0
LINE
8
BLACK
6
CONTINUOUS
10
84.504
20
-139.882
11
84.504
21
-139.882
0
LINE
8
BLACK
6
CONTINUOUS
10
84.504
20
-139.882
11
84.5039
21
-139.882
0
LINE
8
BLACK
6
CONTINUOUS
10
84.5039
20
-139.882
11
84.5038
21
-139.881
0
LINE
8
BLACK
6
CONTINUOUS
10
84.5038
20
-139.881
11
84.5038
21
-139.881
0
LINE
8
BLACK
6
CONTINUOUS
10
84.5038
20
-139.881
11
84.5038
21
-139.881
0
LINE
8
BLACK
6
CONTINUOUS
10
84.5038
20
-139.881
11
83.8148
21
-137.339
0
LINE
8
BLACK
6
CONTINUOUS
10
83.8148
20
-137.339
11
83.8147
21
-137.338
0
LINE
8
BLACK
6
CONTINUOUS
10
83.8147
20
-137.338
11
83.8147
21
-137.338
0
LINE
8
BLACK
6
CONTINUOUS
10
83.8147
20
-137.338
11
83.8147
21
-137.338
0
LINE
8
BLACK
6
CONTINUOUS
10
83.8147
20
-137.338
11
83.2777
21
-134.76
0
LINE
8
BLACK
6
CONTINUOUS
10
83.2777
20
-134.76
11
83.2776
21
-134.759
0
LINE
8
BLACK
6
CONTINUOUS
10
83.2776
20
-134.759
11
83.2776
21
-134.759
0
LINE
8
BLACK
6
CONTINUOUS
10
83.2776
20
-134.759
11
83.0321
21
-133.218
0
LINE
8
BLACK
6
CONTINUOUS
10
83.0321
20
-133.218
11
76.3237
21
-133.218
0
LINE
8
BLACK
6
CONTINUOUS
10
76.3237
20
-133.218
11
76.3231
21
-133.218
0
LINE
8
BLACK
6
CONTINUOUS
10
76.3231
20
-133.218
11
76.3225
21
-133.218
0
LINE
8
BLACK
6
CONTINUOUS
10
76.3225
20
-133.218
11
76.3206
21
-133.218
0
LINE
8
BLACK
6
CONTINUOUS
10
76.3206
20
-133.218
11
76.3182
21
-133.217
0
LINE
8
BLACK
6
CONTINUOUS
10
76.3182
20
-133.217
11
76.316
21
-133.216
0
LINE
8
BLACK
6
CONTINUOUS
10
76.316
20
-133.216
11
76.3141
21
-133.215
0
LINE
8
BLACK
6
CONTINUOUS
10
76.3141
20
-133.215
11
76.3125
21
-133.213
0
LINE
8
BLACK
6
CONTINUOUS
10
76.3125
20
-133.213
11
76.3113
21
-133.211
0
LINE
8
BLACK
6
CONTINUOUS
10
76.3113
20
-133.211
11
76.3106
21
-133.208
0
LINE
8
BLACK
6
CONTINUOUS
10
76.3106
20
-133.208
11
76.3103
21
-133.206
0
LINE
8
BLACK
6
CONTINUOUS
10
76.3103
20
-133.206
11
76.3104
21
-133.205
0
LINE
8
BLACK
6
CONTINUOUS
10
76.3104
20
-133.205
11
76.3104
21
-120.706
0
LINE
8
BLACK
6
CONTINUOUS
10
76.3104
20
-120.706
11
76.3103
21
-120.706
0
LINE
8
BLACK
6
CONTINUOUS
10
76.3103
20
-120.706
11
76.3106
21
-120.703
0
LINE
8
BLACK
6
CONTINUOUS
10
76.3106
20
-120.703
11
76.3113
21
-120.701
0
LINE
8
BLACK
6
CONTINUOUS
10
76.3113
20
-120.701
11
76.3125
21
-120.699
0
LINE
8
BLACK
6
CONTINUOUS
10
76.3125
20
-120.699
11
76.3141
21
-120.697
0
LINE
8
BLACK
6
CONTINUOUS
10
76.3141
20
-120.697
11
76.316
21
-120.695
0
LINE
8
BLACK
6
CONTINUOUS
10
76.316
20
-120.695
11
76.3182
21
-120.694
0
LINE
8
BLACK
6
CONTINUOUS
10
76.3182
20
-120.694
11
76.3206
21
-120.693
0
LINE
8
BLACK
6
CONTINUOUS
10
76.3206
20
-120.693
11
76.3225
21
-120.693
0
LINE
8
BLACK
6
CONTINUOUS
10
76.3225
20
-120.693
11
76.3231
21
-120.693
0
LINE
8
BLACK
6
CONTINUOUS
10
76.3231
20
-120.693
11
76.3237
21
-120.693
0
LINE
8
BLACK
6
CONTINUOUS
10
76.3237
20
-120.693
11
81.323
21
-120.693
0
LINE
8
BLACK
6
CONTINUOUS
10
81.323
20
-120.693
11
81.3364
21
-120.693
0
LINE
8
BLACK
6
CONTINUOUS
10
81.3364
20
-120.693
11
81.7227
21
-120.652
0
LINE
8
BLACK
6
CONTINUOUS
10
81.7227
20
-120.652
11
82.0932
21
-120.538
0
LINE
8
BLACK
6
CONTINUOUS
10
82.0932
20
-120.538
11
82.4343
21
-120.353
0
LINE
8
BLACK
6
CONTINUOUS
10
82.4343
20
-120.353
11
82.7332
21
-120.106
0
LINE
8
BLACK
6
CONTINUOUS
10
82.7332
20
-120.106
11
82.9783
21
-119.805
0
LINE
8
BLACK
6
CONTINUOUS
10
82.9783
20
-119.805
11
83.1604
21
-119.463
0
LINE
8
BLACK
6
CONTINUOUS
10
83.1604
20
-119.463
11
83.2725
21
-119.092
0
LINE
8
BLACK
6
CONTINUOUS
10
83.2725
20
-119.092
11
83.3104
21
-118.704
0
LINE
8
BLACK
6
CONTINUOUS
10
83.3104
20
-118.704
11
83.3104
21
-118.704
0
LINE
8
BLACK
6
CONTINUOUS
10
83.3104
20
-118.704
11
83.3105
21
-118.704
0
LINE
8
BLACK
6
CONTINUOUS
10
83.3105
20
-118.704
11
83.3105
21
-118.704
0
LINE
8
BLACK
6
CONTINUOUS
10
83.3105
20
-118.704
11
83.3105
21
-118.704
0
LINE
8
BLACK
6
CONTINUOUS
10
83.3105
20
-118.704
11
83.3105
21
-118.704
0
LINE
8
BLACK
6
CONTINUOUS
10
83.3105
20
-118.704
11
83.3107
21
-118.703
0
LINE
8
BLACK
6
CONTINUOUS
10
83.3107
20
-118.703
11
83.8795
21
-116.127
0
LINE
8
BLACK
6
CONTINUOUS
10
83.8795
20
-116.127
11
83.8795
21
-116.127
0
LINE
8
BLACK
6
CONTINUOUS
10
83.8795
20
-116.127
11
83.8796
21
-116.127
0
LINE
8
BLACK
6
CONTINUOUS
10
83.8796
20
-116.127
11
83.8796
21
-116.127
0
LINE
8
BLACK
6
CONTINUOUS
10
83.8796
20
-116.127
11
83.8797
21
-116.127
0
LINE
8
BLACK
6
CONTINUOUS
10
83.8797
20
-116.127
11
83.8797
21
-116.126
0
LINE
8
BLACK
6
CONTINUOUS
10
83.8797
20
-116.126
11
84.6002
21
-113.589
0
LINE
8
BLACK
6
CONTINUOUS
10
84.6002
20
-113.589
11
84.6004
21
-113.588
0
LINE
8
BLACK
6
CONTINUOUS
10
84.6004
20
-113.588
11
84.6004
21
-113.588
0
LINE
8
BLACK
6
CONTINUOUS
10
84.6004
20
-113.588
11
85.4702
21
-111.098
0
LINE
8
BLACK
6
CONTINUOUS
10
76.3358
20
-133.193
11
83.0437
21
-133.193
0
LINE
8
BLACK
6
CONTINUOUS
10
83.0437
20
-133.193
11
83.0456
21
-133.193
0
LINE
8
BLACK
6
CONTINUOUS
10
83.0456
20
-133.193
11
83.048
21
-133.194
0
LINE
8
BLACK
6
CONTINUOUS
10
83.048
20
-133.194
11
83.0502
21
-133.195
0
LINE
8
BLACK
6
CONTINUOUS
10
83.0502
20
-133.195
11
83.0521
21
-133.197
0
LINE
8
BLACK
6
CONTINUOUS
10
83.0521
20
-133.197
11
83.0537
21
-133.199
0
LINE
8
BLACK
6
CONTINUOUS
10
83.0537
20
-133.199
11
83.0549
21
-133.201
0
LINE
8
BLACK
6
CONTINUOUS
10
83.0549
20
-133.201
11
83.0556
21
-133.203
0
LINE
8
BLACK
6
CONTINUOUS
10
83.0556
20
-133.203
11
83.0558
21
-133.206
0
LINE
8
BLACK
6
CONTINUOUS
10
83.0558
20
-133.206
11
83.0558
21
-133.206
0
LINE
8
BLACK
6
CONTINUOUS
10
83.0558
20
-133.206
11
83.0558
21
-133.206
0
LINE
8
BLACK
6
CONTINUOUS
10
83.0558
20
-133.206
11
83.056
21
-133.207
0
LINE
8
BLACK
6
CONTINUOUS
10
83.056
20
-133.207
11
83.0562
21
-133.208
0
LINE
8
BLACK
6
CONTINUOUS
10
83.0562
20
-133.208
11
83.3026
21
-134.755
0
LINE
8
BLACK
6
CONTINUOUS
10
83.3026
20
-134.755
11
83.8395
21
-137.333
0
LINE
8
BLACK
6
CONTINUOUS
10
83.8395
20
-137.333
11
84.5282
21
-139.874
0
LINE
8
BLACK
6
CONTINUOUS
10
84.5282
20
-139.874
11
85.3665
21
-142.37
0
LINE
8
BLACK
6
CONTINUOUS
10
85.3665
20
-142.37
11
86.3514
21
-144.812
0
LINE
8
BLACK
6
CONTINUOUS
10
86.3514
20
-144.812
11
87.4793
21
-147.192
0
LINE
8
BLACK
6
CONTINUOUS
10
87.4793
20
-147.192
11
88.7464
21
-149.5
0
LINE
8
BLACK
6
CONTINUOUS
10
88.7464
20
-149.5
11
90.1481
21
-151.729
0
LINE
8
BLACK
6
CONTINUOUS
10
90.1481
20
-151.729
11
91.6796
21
-153.871
0
LINE
8
BLACK
6
CONTINUOUS
10
91.6796
20
-153.871
11
93.3354
21
-155.919
0
LINE
8
BLACK
6
CONTINUOUS
10
93.3354
20
-155.919
11
95.1097
21
-157.864
0
LINE
8
BLACK
6
CONTINUOUS
10
95.1097
20
-157.864
11
96.9963
21
-159.701
0
LINE
8
BLACK
6
CONTINUOUS
10
96.9963
20
-159.701
11
98.9885
21
-161.423
0
LINE
8
BLACK
6
CONTINUOUS
10
98.9885
20
-161.423
11
101.079
21
-163.024
0
LINE
8
BLACK
6
CONTINUOUS
10
101.079
20
-163.024
11
103.261
21
-164.498
0
LINE
8
BLACK
6
CONTINUOUS
10
103.261
20
-164.498
11
105.527
21
-165.839
0
LINE
8
BLACK
6
CONTINUOUS
10
105.527
20
-165.839
11
107.868
21
-167.045
0
LINE
8
BLACK
6
CONTINUOUS
10
107.868
20
-167.045
11
110.277
21
-168.109
0
LINE
8
BLACK
6
CONTINUOUS
10
110.277
20
-168.109
11
112.744
21
-169.028
0
LINE
8
BLACK
6
CONTINUOUS
10
112.744
20
-169.028
11
115.262
21
-169.8
0
LINE
8
BLACK
6
CONTINUOUS
10
115.262
20
-169.8
11
117.821
21
-170.42
0
LINE
8
BLACK
6
CONTINUOUS
10
117.821
20
-170.42
11
120.412
21
-170.888
0
LINE
8
BLACK
6
CONTINUOUS
10
120.412
20
-170.888
11
123.027
21
-171.202
0
LINE
8
BLACK
6
CONTINUOUS
10
123.027
20
-171.202
11
125.655
21
-171.36
0
LINE
8
BLACK
6
CONTINUOUS
10
125.655
20
-171.36
11
128.288
21
-171.361
0
LINE
8
BLACK
6
CONTINUOUS
10
128.288
20
-171.361
11
130.917
21
-171.207
0
LINE
8
BLACK
6
CONTINUOUS
10
130.917
20
-171.207
11
133.532
21
-170.897
0
LINE
8
BLACK
6
CONTINUOUS
10
133.532
20
-170.897
11
136.124
21
-170.432
0
LINE
8
BLACK
6
CONTINUOUS
10
136.124
20
-170.432
11
138.683
21
-169.815
0
LINE
8
BLACK
6
CONTINUOUS
10
138.683
20
-169.815
11
141.202
21
-169.046
0
LINE
8
BLACK
6
CONTINUOUS
10
141.202
20
-169.046
11
143.671
21
-168.13
0
LINE
8
BLACK
6
CONTINUOUS
10
143.671
20
-168.13
11
146.08
21
-167.069
0
LINE
8
BLACK
6
CONTINUOUS
10
146.08
20
-167.069
11
148.423
21
-165.867
0
LINE
8
BLACK
6
CONTINUOUS
10
148.423
20
-165.867
11
150.691
21
-164.528
0
LINE
8
BLACK
6
CONTINUOUS
10
150.691
20
-164.528
11
152.875
21
-163.057
0
LINE
8
BLACK
6
CONTINUOUS
10
152.875
20
-163.057
11
154.967
21
-161.459
0
LINE
8
BLACK
6
CONTINUOUS
10
154.967
20
-161.459
11
156.962
21
-159.74
0
LINE
8
BLACK
6
CONTINUOUS
10
156.962
20
-159.74
11
158.851
21
-157.905
0
LINE
8
BLACK
6
CONTINUOUS
10
158.851
20
-157.905
11
160.628
21
-155.962
0
LINE
8
BLACK
6
CONTINUOUS
10
160.628
20
-155.962
11
162.286
21
-153.916
0
LINE
8
BLACK
6
CONTINUOUS
10
162.286
20
-153.916
11
163.82
21
-151.776
0
LINE
8
BLACK
6
CONTINUOUS
10
163.82
20
-151.776
11
165.225
21
-149.549
0
LINE
8
BLACK
6
CONTINUOUS
10
165.225
20
-149.549
11
166.495
21
-147.242
0
LINE
8
BLACK
6
CONTINUOUS
10
166.495
20
-147.242
11
167.626
21
-144.865
0
LINE
8
BLACK
6
CONTINUOUS
10
167.626
20
-144.865
11
168.614
21
-142.424
0
LINE
8
BLACK
6
CONTINUOUS
10
168.614
20
-142.424
11
169.455
21
-139.929
0
LINE
8
BLACK
6
CONTINUOUS
10
169.455
20
-139.929
11
170.147
21
-137.388
0
LINE
8
BLACK
6
CONTINUOUS
10
170.147
20
-137.388
11
170.687
21
-134.811
0
LINE
8
BLACK
6
CONTINUOUS
10
170.687
20
-134.811
11
171.074
21
-132.206
0
LINE
8
BLACK
6
CONTINUOUS
10
171.074
20
-132.206
11
171.305
21
-129.583
0
LINE
8
BLACK
6
CONTINUOUS
10
171.305
20
-129.583
11
171.38
21
-126.951
0
LINE
8
BLACK
6
CONTINUOUS
10
171.38
20
-126.951
11
171.299
21
-124.319
0
LINE
8
BLACK
6
CONTINUOUS
10
171.299
20
-124.319
11
171.062
21
-121.697
0
LINE
8
BLACK
6
CONTINUOUS
10
171.062
20
-121.697
11
170.67
21
-119.093
0
LINE
8
BLACK
6
CONTINUOUS
10
170.67
20
-119.093
11
170.124
21
-116.517
0
LINE
8
BLACK
6
CONTINUOUS
10
170.124
20
-116.517
11
169.427
21
-113.978
0
LINE
8
BLACK
6
CONTINUOUS
10
169.427
20
-113.978
11
168.58
21
-111.484
0
LINE
8
BLACK
6
CONTINUOUS
10
168.58
20
-111.484
11
167.586
21
-109.046
0
LINE
8
BLACK
6
CONTINUOUS
10
167.586
20
-109.046
11
166.45
21
-106.67
0
LINE
8
BLACK
6
CONTINUOUS
10
166.45
20
-106.67
11
165.175
21
-104.366
0
LINE
8
BLACK
6
CONTINUOUS
10
165.175
20
-104.366
11
163.765
21
-102.142
0
LINE
8
BLACK
6
CONTINUOUS
10
163.765
20
-102.142
11
162.226
21
-100.006
0
LINE
8
BLACK
6
CONTINUOUS
10
162.226
20
-100.006
11
160.563
21
-97.9637
0
LINE
8
BLACK
6
CONTINUOUS
10
160.563
20
-97.9637
11
160.563
21
-97.9637
0
LINE
8
BLACK
6
CONTINUOUS
10
160.563
20
-97.9637
11
160.562
21
-97.9628
0
LINE
8
BLACK
6
CONTINUOUS
10
160.562
20
-97.9628
11
160.561
21
-97.9606
0
LINE
8
BLACK
6
CONTINUOUS
10
160.561
20
-97.9606
11
160.561
21
-97.9582
0
LINE
8
BLACK
6
CONTINUOUS
10
160.561
20
-97.9582
11
160.56
21
-97.9569
0
LINE
8
BLACK
6
CONTINUOUS
10
160.56
20
-97.9569
11
160.56
21
-97.9569
0
LINE
8
BLACK
6
CONTINUOUS
10
160.56
20
-97.9569
11
160.56
21
-97.9568
0
LINE
8
BLACK
6
CONTINUOUS
10
160.56
20
-97.9568
11
160.56
21
-97.9563
0
LINE
8
BLACK
6
CONTINUOUS
10
160.56
20
-97.9563
11
160.56
21
-82.7184
0
LINE
8
BLACK
6
CONTINUOUS
10
160.56
20
-82.7184
11
123.323
21
-82.7076
0
LINE
8
BLACK
6
CONTINUOUS
10
123.323
20
-82.7076
11
120.932
21
-82.9714
0
LINE
8
BLACK
6
CONTINUOUS
10
120.932
20
-82.9714
11
118.331
21
-83.4088
0
LINE
8
BLACK
6
CONTINUOUS
10
118.331
20
-83.4088
11
115.761
21
-83.9997
0
LINE
8
BLACK
6
CONTINUOUS
10
115.761
20
-83.9997
11
113.231
21
-84.7419
0
LINE
8
BLACK
6
CONTINUOUS
10
113.231
20
-84.7419
11
110.749
21
-85.6329
0
LINE
8
BLACK
6
CONTINUOUS
10
110.749
20
-85.6329
11
108.324
21
-86.6695
0
LINE
8
BLACK
6
CONTINUOUS
10
108.324
20
-86.6695
11
105.965
21
-87.8481
0
LINE
8
BLACK
6
CONTINUOUS
10
105.965
20
-87.8481
11
103.68
21
-89.1645
0
LINE
8
BLACK
6
CONTINUOUS
10
103.68
20
-89.1645
11
101.477
21
-90.6141
0
LINE
8
BLACK
6
CONTINUOUS
10
101.477
20
-90.6141
11
99.3644
21
-92.1918
0
LINE
8
BLACK
6
CONTINUOUS
10
99.3644
20
-92.1918
11
97.3487
21
-93.892
0
LINE
8
BLACK
6
CONTINUOUS
10
97.3487
20
-93.892
11
95.4373
21
-95.7088
0
LINE
8
BLACK
6
CONTINUOUS
10
95.4373
20
-95.7088
11
93.6371
21
-97.6358
0
LINE
8
BLACK
6
CONTINUOUS
10
93.6371
20
-97.6358
11
91.9544
21
-99.6661
0
LINE
8
BLACK
6
CONTINUOUS
10
91.9544
20
-99.6661
11
90.395
21
-101.793
0
LINE
8
BLACK
6
CONTINUOUS
10
90.395
20
-101.793
11
88.9645
21
-104.008
0
LINE
8
BLACK
6
CONTINUOUS
10
88.9645
20
-104.008
11
87.6678
21
-106.304
0
LINE
8
BLACK
6
CONTINUOUS
10
87.6678
20
-106.304
11
86.5097
21
-108.673
0
LINE
8
BLACK
6
CONTINUOUS
10
86.5097
20
-108.673
11
85.494
21
-111.107
0
LINE
8
BLACK
6
CONTINUOUS
10
85.494
20
-111.107
11
84.6245
21
-113.596
0
LINE
8
BLACK
6
CONTINUOUS
10
84.6245
20
-113.596
11
83.9042
21
-116.133
0
LINE
8
BLACK
6
CONTINUOUS
10
83.9042
20
-116.133
11
83.3357
21
-118.708
0
LINE
8
BLACK
6
CONTINUOUS
10
83.3357
20
-118.708
11
83.2976
21
-119.095
0
LINE
8
BLACK
6
CONTINUOUS
10
83.2976
20
-119.095
11
83.2976
21
-119.096
0
LINE
8
BLACK
6
CONTINUOUS
10
83.2976
20
-119.096
11
83.2974
21
-119.097
0
LINE
8
BLACK
6
CONTINUOUS
10
83.2974
20
-119.097
11
83.2972
21
-119.098
0
LINE
8
BLACK
6
CONTINUOUS
10
83.2972
20
-119.098
11
83.1843
21
-119.471
0
LINE
8
BLACK
6
CONTINUOUS
10
83.1843
20
-119.471
11
83.1843
21
-119.472
0
LINE
8
BLACK
6
CONTINUOUS
10
83.1843
20
-119.472
11
83.1838
21
-119.473
0
LINE
8
BLACK
6
CONTINUOUS
10
83.1838
20
-119.473
11
83.1834
21
-119.474
0
LINE
8
BLACK
6
CONTINUOUS
10
83.1834
20
-119.474
11
83.0001
21
-119.818
0
LINE
8
BLACK
6
CONTINUOUS
10
83.0001
20
-119.818
11
83.0001
21
-119.819
0
LINE
8
BLACK
6
CONTINUOUS
10
83.0001
20
-119.819
11
82.9994
21
-119.82
0
LINE
8
BLACK
6
CONTINUOUS
10
82.9994
20
-119.82
11
82.9988
21
-119.82
0
LINE
8
BLACK
6
CONTINUOUS
10
82.9988
20
-119.82
11
82.7521
21
-120.123
0
LINE
8
BLACK
6
CONTINUOUS
10
82.7521
20
-120.123
11
82.752
21
-120.123
0
LINE
8
BLACK
6
CONTINUOUS
10
82.752
20
-120.123
11
82.7512
21
-120.124
0
LINE
8
BLACK
6
CONTINUOUS
10
82.7512
20
-120.124
11
82.7503
21
-120.125
0
LINE
8
BLACK
6
CONTINUOUS
10
82.7503
20
-120.125
11
82.4496
21
-120.374
0
LINE
8
BLACK
6
CONTINUOUS
10
82.4496
20
-120.374
11
82.4494
21
-120.374
0
LINE
8
BLACK
6
CONTINUOUS
10
82.4494
20
-120.374
11
82.4485
21
-120.374
0
LINE
8
BLACK
6
CONTINUOUS
10
82.4485
20
-120.374
11
82.4475
21
-120.375
0
LINE
8
BLACK
6
CONTINUOUS
10
82.4475
20
-120.375
11
82.1042
21
-120.561
0
LINE
8
BLACK
6
CONTINUOUS
10
82.1042
20
-120.561
11
82.104
21
-120.561
0
LINE
8
BLACK
6
CONTINUOUS
10
82.104
20
-120.561
11
82.1029
21
-120.561
0
LINE
8
BLACK
6
CONTINUOUS
10
82.1029
20
-120.561
11
82.1019
21
-120.562
0
LINE
8
BLACK
6
CONTINUOUS
10
82.1019
20
-120.562
11
81.729
21
-120.677
0
LINE
8
BLACK
6
CONTINUOUS
10
81.729
20
-120.677
11
81.7288
21
-120.677
0
LINE
8
BLACK
6
CONTINUOUS
10
81.7288
20
-120.677
11
81.7277
21
-120.677
0
LINE
8
BLACK
6
CONTINUOUS
10
81.7277
20
-120.677
11
81.7266
21
-120.677
0
LINE
8
BLACK
6
CONTINUOUS
10
81.7266
20
-120.677
11
81.3384
21
-120.718
0
LINE
8
BLACK
6
CONTINUOUS
10
81.3384
20
-120.718
11
81.3382
21
-120.718
0
LINE
8
BLACK
6
CONTINUOUS
10
81.3382
20
-120.718
11
81.3376
21
-120.718
0
LINE
8
BLACK
6
CONTINUOUS
10
81.3376
20
-120.718
11
81.3371
21
-120.718
0
LINE
8
BLACK
6
CONTINUOUS
10
81.3371
20
-120.718
11
81.3237
21
-120.718
0
LINE
8
BLACK
6
CONTINUOUS
10
81.3237
20
-120.718
11
81.3237
21
-120.718
0
LINE
8
BLACK
6
CONTINUOUS
10
81.3237
20
-120.718
11
76.3358
21
-120.718
0
LINE
8
BLACK
6
CONTINUOUS
10
76.3358
20
-120.718
11
76.3358
21
-133.193
0
LINE
8
BLACK
6
CONTINUOUS
10
146.809
20
-133.457
11
146.811
21
-133.457
0
LINE
8
BLACK
6
CONTINUOUS
10
146.811
20
-133.457
11
146.813
21
-133.457
0
LINE
8
BLACK
6
CONTINUOUS
10
146.813
20
-133.457
11
146.815
21
-133.459
0
LINE
8
BLACK
6
CONTINUOUS
10
146.815
20
-133.459
11
146.817
21
-133.46
0
LINE
8
BLACK
6
CONTINUOUS
10
146.817
20
-133.46
11
146.819
21
-133.462
0
LINE
8
BLACK
6
CONTINUOUS
10
146.819
20
-133.462
11
146.82
21
-133.464
0
LINE
8
BLACK
6
CONTINUOUS
10
146.82
20
-133.464
11
146.821
21
-133.467
0
LINE
8
BLACK
6
CONTINUOUS
10
146.821
20
-133.467
11
146.821
21
-133.469
0
LINE
8
BLACK
6
CONTINUOUS
10
146.821
20
-133.469
11
146.821
21
-133.47
0
LINE
8
BLACK
6
CONTINUOUS
10
146.821
20
-133.47
11
146.821
21
-140.074
0
LINE
8
BLACK
6
CONTINUOUS
10
146.821
20
-140.074
11
146.821
21
-140.074
0
LINE
8
BLACK
6
CONTINUOUS
10
146.821
20
-140.074
11
146.74
21
-141.301
0
LINE
8
BLACK
6
CONTINUOUS
10
146.74
20
-141.301
11
146.74
21
-141.302
0
LINE
8
BLACK
6
CONTINUOUS
10
146.74
20
-141.302
11
146.5
21
-142.508
0
LINE
8
BLACK
6
CONTINUOUS
10
146.5
20
-142.508
11
146.5
21
-142.509
0
LINE
8
BLACK
6
CONTINUOUS
10
146.5
20
-142.509
11
146.5
21
-142.51
0
LINE
8
BLACK
6
CONTINUOUS
10
146.5
20
-142.51
11
146.105
21
-143.674
0
LINE
8
BLACK
6
CONTINUOUS
10
146.105
20
-143.674
11
146.104
21
-143.675
0
LINE
8
BLACK
6
CONTINUOUS
10
146.104
20
-143.675
11
145.56
21
-144.778
0
LINE
8
BLACK
6
CONTINUOUS
10
145.56
20
-144.778
11
145.56
21
-144.779
0
LINE
8
BLACK
6
CONTINUOUS
10
145.56
20
-144.779
11
144.877
21
-145.801
0
LINE
8
BLACK
6
CONTINUOUS
10
144.877
20
-145.801
11
144.876
21
-145.803
0
LINE
8
BLACK
6
CONTINUOUS
10
144.876
20
-145.803
11
144.876
21
-145.803
0
LINE
8
BLACK
6
CONTINUOUS
10
144.876
20
-145.803
11
144.065
21
-146.727
0
LINE
8
BLACK
6
CONTINUOUS
10
144.065
20
-146.727
11
144.064
21
-146.728
0
LINE
8
BLACK
6
CONTINUOUS
10
144.064
20
-146.728
11
144.064
21
-146.728
0
LINE
8
BLACK
6
CONTINUOUS
10
144.064
20
-146.728
11
143.14
21
-147.539
0
LINE
8
BLACK
6
CONTINUOUS
10
143.14
20
-147.539
11
143.138
21
-147.54
0
LINE
8
BLACK
6
CONTINUOUS
10
143.138
20
-147.54
11
142.116
21
-148.223
0
LINE
8
BLACK
6
CONTINUOUS
10
142.116
20
-148.223
11
142.115
21
-148.224
0
LINE
8
BLACK
6
CONTINUOUS
10
142.115
20
-148.224
11
141.012
21
-148.767
0
LINE
8
BLACK
6
CONTINUOUS
10
141.012
20
-148.767
11
141.012
21
-148.767
0
LINE
8
BLACK
6
CONTINUOUS
10
141.012
20
-148.767
11
141.011
21
-148.768
0
LINE
8
BLACK
6
CONTINUOUS
10
141.011
20
-148.768
11
139.847
21
-149.163
0
LINE
8
BLACK
6
CONTINUOUS
10
139.847
20
-149.163
11
139.847
21
-149.163
0
LINE
8
BLACK
6
CONTINUOUS
10
139.847
20
-149.163
11
139.845
21
-149.164
0
LINE
8
BLACK
6
CONTINUOUS
10
139.845
20
-149.164
11
138.639
21
-149.403
0
LINE
8
BLACK
6
CONTINUOUS
10
138.639
20
-149.403
11
138.638
21
-149.404
0
LINE
8
BLACK
6
CONTINUOUS
10
138.638
20
-149.404
11
137.411
21
-149.484
0
LINE
8
BLACK
6
CONTINUOUS
10
137.411
20
-149.484
11
137.41
21
-149.484
0
LINE
8
BLACK
6
CONTINUOUS
10
137.41
20
-149.484
11
137.41
21
-149.484
0
LINE
8
BLACK
6
CONTINUOUS
10
137.41
20
-149.484
11
137.164
21
-149.481
0
LINE
8
BLACK
6
CONTINUOUS
10
137.164
20
-149.481
11
116.589
21
-149.484
0
LINE
8
BLACK
6
CONTINUOUS
10
116.589
20
-149.484
11
116.589
21
-149.484
0
LINE
8
BLACK
6
CONTINUOUS
10
116.589
20
-149.484
11
115.363
21
-149.405
0
LINE
8
BLACK
6
CONTINUOUS
10
115.363
20
-149.405
11
115.361
21
-149.404
0
LINE
8
BLACK
6
CONTINUOUS
10
115.361
20
-149.404
11
114.155
21
-149.166
0
LINE
8
BLACK
6
CONTINUOUS
10
114.155
20
-149.166
11
114.153
21
-149.165
0
LINE
8
BLACK
6
CONTINUOUS
10
114.153
20
-149.165
11
112.989
21
-148.771
0
LINE
8
BLACK
6
CONTINUOUS
10
112.989
20
-148.771
11
112.987
21
-148.77
0
LINE
8
BLACK
6
CONTINUOUS
10
112.987
20
-148.77
11
111.884
21
-148.228
0
LINE
8
BLACK
6
CONTINUOUS
10
111.884
20
-148.228
11
111.884
21
-148.228
0
LINE
8
BLACK
6
CONTINUOUS
10
111.884
20
-148.228
11
111.883
21
-148.227
0
LINE
8
BLACK
6
CONTINUOUS
10
111.883
20
-148.227
11
110.86
21
-147.545
0
LINE
8
BLACK
6
CONTINUOUS
10
110.86
20
-147.545
11
110.859
21
-147.544
0
LINE
8
BLACK
6
CONTINUOUS
10
110.859
20
-147.544
11
109.934
21
-146.734
0
LINE
8
BLACK
6
CONTINUOUS
10
109.934
20
-146.734
11
109.933
21
-146.733
0
LINE
8
BLACK
6
CONTINUOUS
10
109.933
20
-146.733
11
109.933
21
-146.733
0
LINE
8
BLACK
6
CONTINUOUS
10
109.933
20
-146.733
11
109.121
21
-145.809
0
LINE
8
BLACK
6
CONTINUOUS
10
109.121
20
-145.809
11
109.12
21
-145.808
0
LINE
8
BLACK
6
CONTINUOUS
10
109.12
20
-145.808
11
108.437
21
-144.786
0
LINE
8
BLACK
6
CONTINUOUS
10
108.437
20
-144.786
11
108.436
21
-144.786
0
LINE
8
BLACK
6
CONTINUOUS
10
108.436
20
-144.786
11
108.436
21
-144.785
0
LINE
8
BLACK
6
CONTINUOUS
10
108.436
20
-144.785
11
107.891
21
-143.683
0
LINE
8
BLACK
6
CONTINUOUS
10
107.891
20
-143.683
11
107.891
21
-143.681
0
LINE
8
BLACK
6
CONTINUOUS
10
107.891
20
-143.681
11
107.494
21
-142.517
0
LINE
8
BLACK
6
CONTINUOUS
10
107.494
20
-142.517
11
107.494
21
-142.516
0
LINE
8
BLACK
6
CONTINUOUS
10
107.494
20
-142.516
11
107.253
21
-141.31
0
LINE
8
BLACK
6
CONTINUOUS
10
107.253
20
-141.31
11
107.253
21
-141.309
0
LINE
8
BLACK
6
CONTINUOUS
10
107.253
20
-141.309
11
107.171
21
-140.082
0
LINE
8
BLACK
6
CONTINUOUS
10
107.171
20
-140.082
11
107.171
21
-140.082
0
LINE
8
BLACK
6
CONTINUOUS
10
107.171
20
-140.082
11
107.171
21
-140.081
0
LINE
8
BLACK
6
CONTINUOUS
10
107.171
20
-140.081
11
107.171
21
-140.073
0
LINE
8
BLACK
6
CONTINUOUS
10
107.171
20
-140.073
11
107.171
21
-140.073
0
LINE
8
BLACK
6
CONTINUOUS
10
107.171
20
-140.073
11
107.171
21
-133.47
0
LINE
8
BLACK
6
CONTINUOUS
10
107.171
20
-133.47
11
107.171
21
-133.469
0
LINE
8
BLACK
6
CONTINUOUS
10
107.171
20
-133.469
11
107.172
21
-133.467
0
LINE
8
BLACK
6
CONTINUOUS
10
107.172
20
-133.467
11
107.172
21
-133.464
0
LINE
8
BLACK
6
CONTINUOUS
10
107.172
20
-133.464
11
107.173
21
-133.462
0
LINE
8
BLACK
6
CONTINUOUS
10
107.173
20
-133.462
11
107.175
21
-133.46
0
LINE
8
BLACK
6
CONTINUOUS
10
107.175
20
-133.46
11
107.177
21
-133.459
0
LINE
8
BLACK
6
CONTINUOUS
10
107.177
20
-133.459
11
107.179
21
-133.457
0
LINE
8
BLACK
6
CONTINUOUS
10
107.179
20
-133.457
11
107.182
21
-133.457
0
LINE
8
BLACK
6
CONTINUOUS
10
107.182
20
-133.457
11
107.183
21
-133.457
0
LINE
8
BLACK
6
CONTINUOUS
10
107.183
20
-133.457
11
107.184
21
-133.457
0
LINE
8
BLACK
6
CONTINUOUS
10
107.184
20
-133.457
11
107.185
21
-133.457
0
LINE
8
BLACK
6
CONTINUOUS
10
107.185
20
-133.457
11
146.807
21
-133.457
0
LINE
8
BLACK
6
CONTINUOUS
10
146.807
20
-133.457
11
146.808
21
-133.457
0
LINE
8
BLACK
6
CONTINUOUS
10
146.808
20
-133.457
11
146.809
21
-133.457
0
LINE
8
BLACK
6
CONTINUOUS
10
107.197
20
-133.482
11
107.197
21
-140.074
0
LINE
8
BLACK
6
CONTINUOUS
10
107.197
20
-140.074
11
107.197
21
-140.074
0
LINE
8
BLACK
6
CONTINUOUS
10
107.197
20
-140.074
11
107.197
21
-140.081
0
LINE
8
BLACK
6
CONTINUOUS
10
107.197
20
-140.081
11
107.278
21
-141.306
0
LINE
8
BLACK
6
CONTINUOUS
10
107.278
20
-141.306
11
107.519
21
-142.51
0
LINE
8
BLACK
6
CONTINUOUS
10
107.519
20
-142.51
11
107.914
21
-143.672
0
LINE
8
BLACK
6
CONTINUOUS
10
107.914
20
-143.672
11
108.458
21
-144.773
0
LINE
8
BLACK
6
CONTINUOUS
10
108.458
20
-144.773
11
109.141
21
-145.793
0
LINE
8
BLACK
6
CONTINUOUS
10
109.141
20
-145.793
11
109.951
21
-146.715
0
LINE
8
BLACK
6
CONTINUOUS
10
109.951
20
-146.715
11
110.875
21
-147.524
0
LINE
8
BLACK
6
CONTINUOUS
10
110.875
20
-147.524
11
111.896
21
-148.205
0
LINE
8
BLACK
6
CONTINUOUS
10
111.896
20
-148.205
11
112.998
21
-148.747
0
LINE
8
BLACK
6
CONTINUOUS
10
112.998
20
-148.747
11
114.161
21
-149.141
0
LINE
8
BLACK
6
CONTINUOUS
10
114.161
20
-149.141
11
115.365
21
-149.379
0
LINE
8
BLACK
6
CONTINUOUS
10
115.365
20
-149.379
11
116.591
21
-149.459
0
LINE
8
BLACK
6
CONTINUOUS
10
116.591
20
-149.459
11
137.165
21
-149.455
0
LINE
8
BLACK
6
CONTINUOUS
10
137.165
20
-149.455
11
137.165
21
-149.455
0
LINE
8
BLACK
6
CONTINUOUS
10
137.165
20
-149.455
11
137.41
21
-149.459
0
LINE
8
BLACK
6
CONTINUOUS
10
137.41
20
-149.459
11
138.635
21
-149.378
0
LINE
8
BLACK
6
CONTINUOUS
10
138.635
20
-149.378
11
139.839
21
-149.139
0
LINE
8
BLACK
6
CONTINUOUS
10
139.839
20
-149.139
11
141.002
21
-148.744
0
LINE
8
BLACK
6
CONTINUOUS
10
141.002
20
-148.744
11
142.103
21
-148.201
0
LINE
8
BLACK
6
CONTINUOUS
10
142.103
20
-148.201
11
143.123
21
-147.519
0
LINE
8
BLACK
6
CONTINUOUS
10
143.123
20
-147.519
11
144.046
21
-146.71
0
LINE
8
BLACK
6
CONTINUOUS
10
144.046
20
-146.71
11
144.856
21
-145.787
0
LINE
8
BLACK
6
CONTINUOUS
10
144.856
20
-145.787
11
145.538
21
-144.766
0
LINE
8
BLACK
6
CONTINUOUS
10
145.538
20
-144.766
11
146.081
21
-143.665
0
LINE
8
BLACK
6
CONTINUOUS
10
146.081
20
-143.665
11
146.476
21
-142.502
0
LINE
8
BLACK
6
CONTINUOUS
10
146.476
20
-142.502
11
146.715
21
-141.298
0
LINE
8
BLACK
6
CONTINUOUS
10
146.715
20
-141.298
11
146.795
21
-140.073
0
LINE
8
BLACK
6
CONTINUOUS
10
146.795
20
-140.073
11
146.795
21
-133.482
0
LINE
8
BLACK
6
CONTINUOUS
10
146.795
20
-133.482
11
107.197
21
-133.482
  0
ENDSEC
  0
EOF
