G04 #@! TF.FileFunction,Legend,Bot*
%FSLAX46Y46*%
G04 Gerber Fmt 4.6, Leading zero omitted, Abs format (unit mm)*
G04 Created by KiCad (PCBNEW 4.0.5) date 10/25/17 11:24:36*
%MOMM*%
%LPD*%
G01*
G04 APERTURE LIST*
%ADD10C,0.100000*%
%ADD11C,0.300000*%
%ADD12C,0.150000*%
%ADD13C,0.120000*%
%ADD14C,0.127000*%
%ADD15C,0.050000*%
G04 APERTURE END LIST*
D10*
D11*
X118346659Y-159450855D02*
X118346659Y-157950855D01*
X117846659Y-159022284D01*
X117346659Y-157950855D01*
X117346659Y-159450855D01*
X116703802Y-159379427D02*
X116489516Y-159450855D01*
X116132373Y-159450855D01*
X115989516Y-159379427D01*
X115918087Y-159307998D01*
X115846659Y-159165141D01*
X115846659Y-159022284D01*
X115918087Y-158879427D01*
X115989516Y-158807998D01*
X116132373Y-158736570D01*
X116418087Y-158665141D01*
X116560945Y-158593713D01*
X116632373Y-158522284D01*
X116703802Y-158379427D01*
X116703802Y-158236570D01*
X116632373Y-158093713D01*
X116560945Y-158022284D01*
X116418087Y-157950855D01*
X116060945Y-157950855D01*
X115846659Y-158022284D01*
X115275231Y-158093713D02*
X115203802Y-158022284D01*
X115060945Y-157950855D01*
X114703802Y-157950855D01*
X114560945Y-158022284D01*
X114489516Y-158093713D01*
X114418088Y-158236570D01*
X114418088Y-158379427D01*
X114489516Y-158593713D01*
X115346659Y-159450855D01*
X114418088Y-159450855D01*
X144096659Y-166000855D02*
X144096659Y-164500855D01*
X143596659Y-165572284D01*
X143096659Y-164500855D01*
X143096659Y-166000855D01*
X142453802Y-165929427D02*
X142239516Y-166000855D01*
X141882373Y-166000855D01*
X141739516Y-165929427D01*
X141668087Y-165857998D01*
X141596659Y-165715141D01*
X141596659Y-165572284D01*
X141668087Y-165429427D01*
X141739516Y-165357998D01*
X141882373Y-165286570D01*
X142168087Y-165215141D01*
X142310945Y-165143713D01*
X142382373Y-165072284D01*
X142453802Y-164929427D01*
X142453802Y-164786570D01*
X142382373Y-164643713D01*
X142310945Y-164572284D01*
X142168087Y-164500855D01*
X141810945Y-164500855D01*
X141596659Y-164572284D01*
X141096659Y-164500855D02*
X140168088Y-164500855D01*
X140668088Y-165072284D01*
X140453802Y-165072284D01*
X140310945Y-165143713D01*
X140239516Y-165215141D01*
X140168088Y-165357998D01*
X140168088Y-165715141D01*
X140239516Y-165857998D01*
X140310945Y-165929427D01*
X140453802Y-166000855D01*
X140882374Y-166000855D01*
X141025231Y-165929427D01*
X141096659Y-165857998D01*
X152146659Y-93675855D02*
X152146659Y-92175855D01*
X151646659Y-93247284D01*
X151146659Y-92175855D01*
X151146659Y-93675855D01*
X150503802Y-93604427D02*
X150289516Y-93675855D01*
X149932373Y-93675855D01*
X149789516Y-93604427D01*
X149718087Y-93532998D01*
X149646659Y-93390141D01*
X149646659Y-93247284D01*
X149718087Y-93104427D01*
X149789516Y-93032998D01*
X149932373Y-92961570D01*
X150218087Y-92890141D01*
X150360945Y-92818713D01*
X150432373Y-92747284D01*
X150503802Y-92604427D01*
X150503802Y-92461570D01*
X150432373Y-92318713D01*
X150360945Y-92247284D01*
X150218087Y-92175855D01*
X149860945Y-92175855D01*
X149646659Y-92247284D01*
X148360945Y-92675855D02*
X148360945Y-93675855D01*
X148718088Y-92104427D02*
X149075231Y-93175855D01*
X148146659Y-93175855D01*
X113496659Y-89625855D02*
X113496659Y-88125855D01*
X112996659Y-89197284D01*
X112496659Y-88125855D01*
X112496659Y-89625855D01*
X111853802Y-89554427D02*
X111639516Y-89625855D01*
X111282373Y-89625855D01*
X111139516Y-89554427D01*
X111068087Y-89482998D01*
X110996659Y-89340141D01*
X110996659Y-89197284D01*
X111068087Y-89054427D01*
X111139516Y-88982998D01*
X111282373Y-88911570D01*
X111568087Y-88840141D01*
X111710945Y-88768713D01*
X111782373Y-88697284D01*
X111853802Y-88554427D01*
X111853802Y-88411570D01*
X111782373Y-88268713D01*
X111710945Y-88197284D01*
X111568087Y-88125855D01*
X111210945Y-88125855D01*
X110996659Y-88197284D01*
X109568088Y-89625855D02*
X110425231Y-89625855D01*
X109996659Y-89625855D02*
X109996659Y-88125855D01*
X110139516Y-88340141D01*
X110282374Y-88482998D01*
X110425231Y-88554427D01*
D12*
X151770939Y-106165876D02*
X151818558Y-106308733D01*
X151866178Y-106356352D01*
X151961416Y-106403971D01*
X152104273Y-106403971D01*
X152199511Y-106356352D01*
X152247130Y-106308733D01*
X152294749Y-106213495D01*
X152294749Y-105832542D01*
X151294749Y-105832542D01*
X151294749Y-106165876D01*
X151342368Y-106261114D01*
X151389987Y-106308733D01*
X151485225Y-106356352D01*
X151580463Y-106356352D01*
X151675701Y-106308733D01*
X151723320Y-106261114D01*
X151770939Y-106165876D01*
X151770939Y-105832542D01*
X152294749Y-107261114D02*
X151770939Y-107261114D01*
X151675701Y-107213495D01*
X151628082Y-107118257D01*
X151628082Y-106927780D01*
X151675701Y-106832542D01*
X152247130Y-107261114D02*
X152294749Y-107165876D01*
X152294749Y-106927780D01*
X152247130Y-106832542D01*
X152151892Y-106784923D01*
X152056654Y-106784923D01*
X151961416Y-106832542D01*
X151913797Y-106927780D01*
X151913797Y-107165876D01*
X151866178Y-107261114D01*
X151628082Y-107594447D02*
X151628082Y-107975399D01*
X151294749Y-107737304D02*
X152151892Y-107737304D01*
X152247130Y-107784923D01*
X152294749Y-107880161D01*
X152294749Y-107975399D01*
X152294749Y-109070638D02*
X151294749Y-109070638D01*
X151294749Y-109308733D01*
X151342368Y-109451591D01*
X151437606Y-109546829D01*
X151532844Y-109594448D01*
X151723320Y-109642067D01*
X151866178Y-109642067D01*
X152056654Y-109594448D01*
X152151892Y-109546829D01*
X152247130Y-109451591D01*
X152294749Y-109308733D01*
X152294749Y-109070638D01*
X152294749Y-110070638D02*
X151628082Y-110070638D01*
X151294749Y-110070638D02*
X151342368Y-110023019D01*
X151389987Y-110070638D01*
X151342368Y-110118257D01*
X151294749Y-110070638D01*
X151389987Y-110070638D01*
X152247130Y-110499209D02*
X152294749Y-110594447D01*
X152294749Y-110784923D01*
X152247130Y-110880162D01*
X152151892Y-110927781D01*
X152104273Y-110927781D01*
X152009035Y-110880162D01*
X151961416Y-110784923D01*
X151961416Y-110642066D01*
X151913797Y-110546828D01*
X151818558Y-110499209D01*
X151770939Y-110499209D01*
X151675701Y-110546828D01*
X151628082Y-110642066D01*
X151628082Y-110784923D01*
X151675701Y-110880162D01*
X152247130Y-111784924D02*
X152294749Y-111689686D01*
X152294749Y-111499209D01*
X152247130Y-111403971D01*
X152199511Y-111356352D01*
X152104273Y-111308733D01*
X151818558Y-111308733D01*
X151723320Y-111356352D01*
X151675701Y-111403971D01*
X151628082Y-111499209D01*
X151628082Y-111689686D01*
X151675701Y-111784924D01*
X152294749Y-112356352D02*
X152247130Y-112261114D01*
X152199511Y-112213495D01*
X152104273Y-112165876D01*
X151818558Y-112165876D01*
X151723320Y-112213495D01*
X151675701Y-112261114D01*
X151628082Y-112356352D01*
X151628082Y-112499210D01*
X151675701Y-112594448D01*
X151723320Y-112642067D01*
X151818558Y-112689686D01*
X152104273Y-112689686D01*
X152199511Y-112642067D01*
X152247130Y-112594448D01*
X152294749Y-112499210D01*
X152294749Y-112356352D01*
X151628082Y-113118257D02*
X152294749Y-113118257D01*
X151723320Y-113118257D02*
X151675701Y-113165876D01*
X151628082Y-113261114D01*
X151628082Y-113403972D01*
X151675701Y-113499210D01*
X151770939Y-113546829D01*
X152294749Y-113546829D01*
X151628082Y-114023019D02*
X152294749Y-114023019D01*
X151723320Y-114023019D02*
X151675701Y-114070638D01*
X151628082Y-114165876D01*
X151628082Y-114308734D01*
X151675701Y-114403972D01*
X151770939Y-114451591D01*
X152294749Y-114451591D01*
X152247130Y-115308734D02*
X152294749Y-115213496D01*
X152294749Y-115023019D01*
X152247130Y-114927781D01*
X152151892Y-114880162D01*
X151770939Y-114880162D01*
X151675701Y-114927781D01*
X151628082Y-115023019D01*
X151628082Y-115213496D01*
X151675701Y-115308734D01*
X151770939Y-115356353D01*
X151866178Y-115356353D01*
X151961416Y-114880162D01*
X152247130Y-116213496D02*
X152294749Y-116118258D01*
X152294749Y-115927781D01*
X152247130Y-115832543D01*
X152199511Y-115784924D01*
X152104273Y-115737305D01*
X151818558Y-115737305D01*
X151723320Y-115784924D01*
X151675701Y-115832543D01*
X151628082Y-115927781D01*
X151628082Y-116118258D01*
X151675701Y-116213496D01*
X151628082Y-116499210D02*
X151628082Y-116880162D01*
X151294749Y-116642067D02*
X152151892Y-116642067D01*
X152247130Y-116689686D01*
X152294749Y-116784924D01*
X152294749Y-116880162D01*
D13*
X134838088Y-89022284D02*
X134838088Y-88522284D01*
X135898088Y-88522284D02*
X135898088Y-89022284D01*
X123823088Y-109472284D02*
X123823088Y-108972284D01*
X124763088Y-108972284D02*
X124763088Y-109472284D01*
X121833088Y-87462284D02*
X127033088Y-87462284D01*
X127033088Y-87462284D02*
X127033088Y-91112284D01*
X127033088Y-91112284D02*
X120443088Y-91112284D01*
X120443088Y-91112284D02*
X120443088Y-89287284D01*
X120443088Y-89287284D02*
X121833088Y-89287284D01*
X121833088Y-89287284D02*
X121833088Y-87462284D01*
X121198088Y-87462284D02*
X120443088Y-87462284D01*
X120443088Y-87462284D02*
X120443088Y-88652284D01*
X160043168Y-136429844D02*
X160043168Y-136929844D01*
X158983168Y-136929844D02*
X158983168Y-136429844D01*
X166042608Y-130414044D02*
X166042608Y-131414044D01*
X164342608Y-131414044D02*
X164342608Y-130414044D01*
X159748528Y-128576164D02*
X159748528Y-129076164D01*
X158688528Y-129076164D02*
X158688528Y-128576164D01*
X140709894Y-113675654D02*
X140709894Y-114175654D01*
X139769894Y-114175654D02*
X139769894Y-113675654D01*
X141079857Y-104778885D02*
X140579857Y-104778885D01*
X140579857Y-103838885D02*
X141079857Y-103838885D01*
X141084937Y-105652645D02*
X140584937Y-105652645D01*
X140584937Y-104712645D02*
X141084937Y-104712645D01*
X141110337Y-107745605D02*
X140610337Y-107745605D01*
X140610337Y-106805605D02*
X141110337Y-106805605D01*
X141100177Y-108517765D02*
X140600177Y-108517765D01*
X140600177Y-107577765D02*
X141100177Y-107577765D01*
X141105257Y-103839085D02*
X140605257Y-103839085D01*
X140605257Y-102899085D02*
X141105257Y-102899085D01*
X132948337Y-96865605D02*
X132948337Y-97365605D01*
X132008337Y-97365605D02*
X132008337Y-96865605D01*
X120609448Y-106725524D02*
X121109448Y-106725524D01*
X121109448Y-107665524D02*
X120609448Y-107665524D01*
X120589128Y-104022964D02*
X121089128Y-104022964D01*
X121089128Y-104962964D02*
X120589128Y-104962964D01*
X133298088Y-113697284D02*
X133298088Y-113197284D01*
X134238088Y-113197284D02*
X134238088Y-113697284D01*
X115839759Y-101808917D02*
X115377819Y-102000258D01*
X115018097Y-101131811D02*
X115480037Y-100940470D01*
X109111008Y-112254684D02*
X108611008Y-112254684D01*
X108611008Y-111314684D02*
X109111008Y-111314684D01*
X108589328Y-112208764D02*
X109089328Y-112208764D01*
X109089328Y-113148764D02*
X108589328Y-113148764D01*
X115170248Y-112091484D02*
X116100248Y-112091484D01*
X118330248Y-112091484D02*
X117400248Y-112091484D01*
X118330248Y-112091484D02*
X118330248Y-114251484D01*
X115170248Y-112091484D02*
X115170248Y-113551484D01*
X124931928Y-105076124D02*
X124931928Y-104576124D01*
X125991928Y-104576124D02*
X125991928Y-105076124D01*
X125693088Y-102902284D02*
X125193088Y-102902284D01*
X125193088Y-101842284D02*
X125693088Y-101842284D01*
X109577999Y-97973769D02*
X109366690Y-97520615D01*
X110327377Y-97072639D02*
X110538686Y-97525793D01*
X120638088Y-91997284D02*
X120638088Y-91497284D01*
X121698088Y-91497284D02*
X121698088Y-91997284D01*
X143665560Y-158389509D02*
X143203620Y-158580851D01*
X142797976Y-157601539D02*
X143259916Y-157410197D01*
X114510679Y-95281369D02*
X114299370Y-94828215D01*
X115260057Y-94380239D02*
X115471366Y-94833393D01*
X136934296Y-160053299D02*
X137396236Y-159861957D01*
X137801880Y-160841269D02*
X137339940Y-161032611D01*
X114244728Y-112057324D02*
X114744728Y-112057324D01*
X114744728Y-113117324D02*
X114244728Y-113117324D01*
X155353728Y-135985564D02*
X154853728Y-135985564D01*
X154853728Y-134925564D02*
X155353728Y-134925564D01*
X112489337Y-99437912D02*
X113332203Y-99044877D01*
X115353269Y-98102438D02*
X114510403Y-98495473D01*
X115353269Y-98102438D02*
X116266125Y-100060063D01*
X112489337Y-99437912D02*
X113106359Y-100761121D01*
D12*
X124874048Y-108069924D02*
X124874048Y-103069924D01*
X124874048Y-103069924D02*
X121874048Y-103069924D01*
X121874048Y-103069924D02*
X121874048Y-108069924D01*
X121874048Y-108069924D02*
X124874048Y-108069924D01*
D13*
X141110337Y-106546725D02*
X140610337Y-106546725D01*
X140610337Y-105606725D02*
X141110337Y-105606725D01*
X142055015Y-155967955D02*
X141863674Y-155506015D01*
X142732121Y-155146293D02*
X142923462Y-155608233D01*
X144380308Y-99447350D02*
X143983632Y-99142970D01*
X144555868Y-98397218D02*
X144952544Y-98701598D01*
X124923088Y-108922284D02*
X124923088Y-108422284D01*
X125863088Y-108422284D02*
X125863088Y-108922284D01*
X125268088Y-91097284D02*
X127268088Y-91097284D01*
X127268088Y-91097284D02*
X127268088Y-94997284D01*
X125268088Y-91097284D02*
X125268088Y-94997284D01*
X121938088Y-91997284D02*
X121938088Y-91497284D01*
X122998088Y-91497284D02*
X122998088Y-91997284D01*
X120638088Y-93697284D02*
X120638088Y-93197284D01*
X121698088Y-93197284D02*
X121698088Y-93697284D01*
X121938088Y-93697284D02*
X121938088Y-93197284D01*
X122998088Y-93197284D02*
X122998088Y-93697284D01*
X138779294Y-114195974D02*
X138779294Y-113695974D01*
X139719294Y-113695974D02*
X139719294Y-114195974D01*
X138717574Y-113751854D02*
X138717574Y-114251854D01*
X137657574Y-114251854D02*
X137657574Y-113751854D01*
X108605928Y-110400284D02*
X109105928Y-110400284D01*
X109105928Y-111340284D02*
X108605928Y-111340284D01*
X137146577Y-152541411D02*
X137608517Y-152350070D01*
X137968239Y-153218517D02*
X137506299Y-153409858D01*
X133813088Y-96872284D02*
X133813088Y-97372284D01*
X132873088Y-97372284D02*
X132873088Y-96872284D01*
X111111198Y-98947116D02*
X111322507Y-99400270D01*
X110470578Y-99797532D02*
X110259269Y-99344378D01*
X107389114Y-147013984D02*
X107084734Y-147410660D01*
X106338982Y-146838424D02*
X106643362Y-146441748D01*
X147187262Y-105278944D02*
X147491642Y-104882268D01*
X148237394Y-105454504D02*
X147933014Y-105851180D01*
X156267568Y-127739604D02*
X156967568Y-127739604D01*
X156967568Y-126539604D02*
X156267568Y-126539604D01*
X160483968Y-127747284D02*
X161183968Y-127747284D01*
X161183968Y-126547284D02*
X160483968Y-126547284D01*
X163324248Y-136779004D02*
X162824248Y-136779004D01*
X162824248Y-135839004D02*
X163324248Y-135839004D01*
X161546248Y-135798564D02*
X161046248Y-135798564D01*
X161046248Y-134858564D02*
X161546248Y-134858564D01*
X163280088Y-131426044D02*
X163280088Y-131926044D01*
X162340088Y-131926044D02*
X162340088Y-131426044D01*
X164240208Y-131415884D02*
X164240208Y-131915884D01*
X163300208Y-131915884D02*
X163300208Y-131415884D01*
X161440928Y-131936204D02*
X161440928Y-131436204D01*
X162380928Y-131436204D02*
X162380928Y-131936204D01*
X153913928Y-131414324D02*
X154413928Y-131414324D01*
X154413928Y-132354324D02*
X153913928Y-132354324D01*
X151883768Y-136157044D02*
X153883768Y-136157044D01*
X153883768Y-136157044D02*
X153883768Y-140057044D01*
X151883768Y-136157044D02*
X151883768Y-140057044D01*
X154398368Y-136106244D02*
X156398368Y-136106244D01*
X156398368Y-136106244D02*
X156398368Y-140006244D01*
X154398368Y-136106244D02*
X154398368Y-140006244D01*
X166191728Y-131419124D02*
X166191728Y-130419124D01*
X167891728Y-130419124D02*
X167891728Y-131419124D01*
X118018088Y-110817284D02*
X118518088Y-110817284D01*
X118518088Y-111877284D02*
X118018088Y-111877284D01*
X154889288Y-133868924D02*
X155389288Y-133868924D01*
X155389288Y-134928924D02*
X154889288Y-134928924D01*
X156202688Y-131197444D02*
X156202688Y-131697444D01*
X155142688Y-131697444D02*
X155142688Y-131197444D01*
X155072168Y-129601724D02*
X155572168Y-129601724D01*
X155572168Y-130661724D02*
X155072168Y-130661724D01*
X153370368Y-129601724D02*
X153870368Y-129601724D01*
X153870368Y-130661724D02*
X153370368Y-130661724D01*
X158686808Y-128576164D02*
X158686808Y-129076164D01*
X157626808Y-129076164D02*
X157626808Y-128576164D01*
X160048248Y-138111324D02*
X160048248Y-138611324D01*
X158988248Y-138611324D02*
X158988248Y-138111324D01*
X160949728Y-135763764D02*
X161449728Y-135763764D01*
X161449728Y-136823764D02*
X160949728Y-136823764D01*
X156692088Y-137422604D02*
X156692088Y-136922604D01*
X157752088Y-136922604D02*
X157752088Y-137422604D01*
X156707328Y-139302204D02*
X156707328Y-138802204D01*
X157767328Y-138802204D02*
X157767328Y-139302204D01*
X159178968Y-140359444D02*
X158678968Y-140359444D01*
X158678968Y-139299444D02*
X159178968Y-139299444D01*
X140413957Y-155039061D02*
X139554749Y-155394956D01*
X137494498Y-156248340D02*
X138353706Y-155892445D01*
X137494498Y-156248340D02*
X136667902Y-154252760D01*
X140413957Y-155039061D02*
X139855239Y-153690197D01*
X110144088Y-151630436D02*
X109406269Y-151064287D01*
X107637091Y-149706749D02*
X108374910Y-150272898D01*
X107637091Y-149706749D02*
X108952016Y-147993106D01*
X110144088Y-151630436D02*
X111032879Y-150472140D01*
X144531848Y-101323848D02*
X145269667Y-101889997D01*
X147038845Y-103247535D02*
X146301026Y-102681386D01*
X147038845Y-103247535D02*
X145723920Y-104961178D01*
X144531848Y-101323848D02*
X143643057Y-102482144D01*
X144468848Y-113696844D02*
X144468848Y-114196844D01*
X143528848Y-114196844D02*
X143528848Y-113696844D01*
X109882988Y-154163378D02*
X110279664Y-154467758D01*
X109707428Y-155213510D02*
X109310752Y-154909130D01*
X141461488Y-109607444D02*
X141461488Y-110107444D01*
X140521488Y-110107444D02*
X140521488Y-109607444D01*
X145710203Y-110301139D02*
X145210203Y-110301139D01*
X145210203Y-109361139D02*
X145710203Y-109361139D01*
X143380768Y-113608364D02*
X143380768Y-114108364D01*
X142320768Y-114108364D02*
X142320768Y-113608364D01*
X143695728Y-109653164D02*
X143695728Y-110153164D01*
X142635728Y-110153164D02*
X142635728Y-109653164D01*
X145659403Y-109243539D02*
X145159403Y-109243539D01*
X145159403Y-108183539D02*
X145659403Y-108183539D01*
X144722648Y-114181604D02*
X144722648Y-113681604D01*
X145662648Y-113681604D02*
X145662648Y-114181604D01*
X141542568Y-110107444D02*
X141542568Y-109607444D01*
X142482568Y-109607444D02*
X142482568Y-110107444D01*
X145220363Y-110336499D02*
X145720363Y-110336499D01*
X145720363Y-111276499D02*
X145220363Y-111276499D01*
D12*
X136093088Y-113672284D02*
X136093088Y-113472284D01*
X134293088Y-113672284D02*
X134293088Y-113472284D01*
D14*
X110644288Y-110231724D02*
X110244288Y-110631724D01*
X110244288Y-113723724D02*
X110244288Y-113323724D01*
X110244288Y-113723724D02*
X110644288Y-113723724D01*
X113228288Y-113723724D02*
X113228288Y-113323724D01*
X113228288Y-113723724D02*
X112828288Y-113723724D01*
X113228288Y-110231724D02*
X113228288Y-110631724D01*
X113228288Y-110231724D02*
X112828288Y-110231724D01*
D12*
X152302688Y-109472484D02*
X156502688Y-109472484D01*
X156502688Y-109472484D02*
X156502688Y-117772484D01*
X156502688Y-117772484D02*
X152302688Y-117772484D01*
X152302688Y-117772484D02*
X152302688Y-109472484D01*
X154402688Y-111022484D02*
X153652688Y-111022484D01*
X153652688Y-111022484D02*
X153052688Y-111622484D01*
X153052688Y-111622484D02*
X153052688Y-113622484D01*
X154402688Y-116222484D02*
X153652688Y-116222484D01*
X153652688Y-116222484D02*
X153052688Y-115622484D01*
X153052688Y-115622484D02*
X153052688Y-113622484D01*
X156902688Y-112622484D02*
X157502688Y-112322484D01*
X157502688Y-112322484D02*
X157502688Y-112922484D01*
X157502688Y-112922484D02*
X156902688Y-112622484D01*
X137300275Y-101076286D02*
G75*
G03X137300275Y-101076286I-559017J0D01*
G01*
X127741258Y-100076286D02*
X127741258Y-110076286D01*
X127741258Y-110076286D02*
X137741258Y-110076286D01*
X137741258Y-110076286D02*
X137741258Y-100076286D01*
X137741258Y-100076286D02*
X127741258Y-100076286D01*
D13*
X114247860Y-97321843D02*
X112616506Y-98082556D01*
X111255676Y-95164245D02*
X113476130Y-94128830D01*
X138573596Y-157187773D02*
X140236579Y-156498943D01*
X141468820Y-159473835D02*
X139205315Y-160411409D01*
X147192240Y-101827428D02*
X145764204Y-100731658D01*
X147724416Y-98177060D02*
X149668132Y-99668525D01*
X107018376Y-151776140D02*
X108446412Y-152871910D01*
X106486200Y-155426508D02*
X104542484Y-153935043D01*
X113250170Y-94034993D02*
X114429275Y-96563592D01*
X112099159Y-94571718D02*
X113278264Y-97100317D01*
X110948148Y-95108443D02*
X112127253Y-97637042D01*
X115453402Y-96086033D02*
X111103125Y-98114601D01*
X111103125Y-98114601D02*
X113296514Y-102818338D01*
X113296514Y-102818338D02*
X117646791Y-100789770D01*
X117646791Y-100789770D02*
X115453402Y-96086033D01*
X139453224Y-160526215D02*
X138385537Y-157948591D01*
X140626551Y-160040207D02*
X139558864Y-157462583D01*
X141799878Y-159554199D02*
X140732191Y-156976575D01*
X137341553Y-158381023D02*
X141776175Y-156544143D01*
X141776175Y-156544143D02*
X139790048Y-151749208D01*
X139790048Y-151749208D02*
X135355426Y-153586088D01*
X135355426Y-153586088D02*
X137341553Y-158381023D01*
X112662941Y-154241946D02*
X110449485Y-152543502D01*
X113436068Y-153234388D02*
X111222612Y-151535943D01*
X114209195Y-152226829D02*
X111995739Y-150528384D01*
X109761584Y-153439991D02*
X112683639Y-149631895D01*
X112683639Y-149631895D02*
X108566135Y-146472423D01*
X108566135Y-146472423D02*
X105644081Y-150280519D01*
X105644081Y-150280519D02*
X109761584Y-153439991D01*
X149647151Y-99256504D02*
X147948707Y-101469960D01*
X148639593Y-98483377D02*
X146941148Y-100696833D01*
X147632034Y-97710250D02*
X145933589Y-99923706D01*
X148845196Y-102157861D02*
X145037100Y-99235806D01*
X145037100Y-99235806D02*
X141877628Y-103353310D01*
X141877628Y-103353310D02*
X145685724Y-106275364D01*
X145685724Y-106275364D02*
X148845196Y-102157861D01*
D12*
X160168088Y-129947284D02*
X161168088Y-129947284D01*
X161168088Y-129947284D02*
X161168088Y-130947284D01*
X160968088Y-130947284D02*
X160968088Y-130147284D01*
X160968088Y-130147284D02*
X160168088Y-130147284D01*
X160768088Y-130947284D02*
X160768088Y-130347284D01*
X160768088Y-130347284D02*
X160168088Y-130347284D01*
X160168088Y-134347284D02*
X160768088Y-134347284D01*
X160768088Y-134347284D02*
X160768088Y-133747284D01*
X156768088Y-133747284D02*
X156768088Y-134347284D01*
X156768088Y-134347284D02*
X157368088Y-134347284D01*
X157368088Y-130347284D02*
X156768088Y-130347284D01*
X156768088Y-130347284D02*
X156768088Y-130947284D01*
D13*
X133173088Y-116297284D02*
X133173088Y-116797284D01*
X132113088Y-116797284D02*
X132113088Y-116297284D01*
X131898088Y-116297284D02*
X131898088Y-116797284D01*
X130838088Y-116797284D02*
X130838088Y-116297284D01*
X133613088Y-89022284D02*
X133613088Y-88522284D01*
X134673088Y-88522284D02*
X134673088Y-89022284D01*
X136063088Y-89022284D02*
X136063088Y-88522284D01*
X137123088Y-88522284D02*
X137123088Y-89022284D01*
X137313088Y-89022284D02*
X137313088Y-88522284D01*
X138373088Y-88522284D02*
X138373088Y-89022284D01*
X138538088Y-89022284D02*
X138538088Y-88522284D01*
X139598088Y-88522284D02*
X139598088Y-89022284D01*
X139763088Y-89022284D02*
X139763088Y-88522284D01*
X140823088Y-88522284D02*
X140823088Y-89022284D01*
X140988088Y-89022284D02*
X140988088Y-88522284D01*
X142048088Y-88522284D02*
X142048088Y-89022284D01*
X142213088Y-89022284D02*
X142213088Y-88522284D01*
X143273088Y-88522284D02*
X143273088Y-89022284D01*
D12*
X134470469Y-88129427D02*
X133994278Y-87796093D01*
X134470469Y-87557998D02*
X133470469Y-87557998D01*
X133470469Y-87938951D01*
X133518088Y-88034189D01*
X133565707Y-88081808D01*
X133660945Y-88129427D01*
X133803802Y-88129427D01*
X133899040Y-88081808D01*
X133946659Y-88034189D01*
X133994278Y-87938951D01*
X133994278Y-87557998D01*
X133470469Y-88986570D02*
X133470469Y-88796093D01*
X133518088Y-88700855D01*
X133565707Y-88653236D01*
X133708564Y-88557998D01*
X133899040Y-88510379D01*
X134279993Y-88510379D01*
X134375231Y-88557998D01*
X134422850Y-88605617D01*
X134470469Y-88700855D01*
X134470469Y-88891332D01*
X134422850Y-88986570D01*
X134375231Y-89034189D01*
X134279993Y-89081808D01*
X134041898Y-89081808D01*
X133946659Y-89034189D01*
X133899040Y-88986570D01*
X133851421Y-88891332D01*
X133851421Y-88700855D01*
X133899040Y-88605617D01*
X133946659Y-88557998D01*
X134041898Y-88510379D01*
X133470469Y-89415141D02*
X133470469Y-90034189D01*
X133851421Y-89700855D01*
X133851421Y-89843713D01*
X133899040Y-89938951D01*
X133946659Y-89986570D01*
X134041898Y-90034189D01*
X134279993Y-90034189D01*
X134375231Y-89986570D01*
X134422850Y-89938951D01*
X134470469Y-89843713D01*
X134470469Y-89557998D01*
X134422850Y-89462760D01*
X134375231Y-89415141D01*
D10*
X124507374Y-110827929D02*
X124535945Y-110799358D01*
X124564517Y-110713644D01*
X124564517Y-110656501D01*
X124535945Y-110570786D01*
X124478802Y-110513644D01*
X124421659Y-110485072D01*
X124307374Y-110456501D01*
X124221659Y-110456501D01*
X124107374Y-110485072D01*
X124050231Y-110513644D01*
X123993088Y-110570786D01*
X123964517Y-110656501D01*
X123964517Y-110713644D01*
X123993088Y-110799358D01*
X124021659Y-110827929D01*
X124564517Y-111399358D02*
X124564517Y-111056501D01*
X124564517Y-111227929D02*
X123964517Y-111227929D01*
X124050231Y-111170786D01*
X124107374Y-111113644D01*
X124135945Y-111056501D01*
X124164517Y-111913644D02*
X124564517Y-111913644D01*
X123935945Y-111770787D02*
X124364517Y-111627930D01*
X124364517Y-111999358D01*
D12*
X119706183Y-89704665D02*
X119706183Y-88704665D01*
X119325230Y-88704665D01*
X119229992Y-88752284D01*
X119182373Y-88799903D01*
X119134754Y-88895141D01*
X119134754Y-89037998D01*
X119182373Y-89133236D01*
X119229992Y-89180855D01*
X119325230Y-89228474D01*
X119706183Y-89228474D01*
X118801421Y-88704665D02*
X118182373Y-88704665D01*
X118515707Y-89085617D01*
X118372849Y-89085617D01*
X118277611Y-89133236D01*
X118229992Y-89180855D01*
X118182373Y-89276094D01*
X118182373Y-89514189D01*
X118229992Y-89609427D01*
X118277611Y-89657046D01*
X118372849Y-89704665D01*
X118658564Y-89704665D01*
X118753802Y-89657046D01*
X118801421Y-89609427D01*
D10*
X158962118Y-136348256D02*
X158724023Y-136181589D01*
X158962118Y-136062542D02*
X158462118Y-136062542D01*
X158462118Y-136253018D01*
X158485928Y-136300637D01*
X158509738Y-136324446D01*
X158557357Y-136348256D01*
X158628785Y-136348256D01*
X158676404Y-136324446D01*
X158700214Y-136300637D01*
X158724023Y-136253018D01*
X158724023Y-136062542D01*
X158462118Y-136800637D02*
X158462118Y-136562542D01*
X158700214Y-136538732D01*
X158676404Y-136562542D01*
X158652595Y-136610161D01*
X158652595Y-136729208D01*
X158676404Y-136776827D01*
X158700214Y-136800637D01*
X158747833Y-136824446D01*
X158866880Y-136824446D01*
X158914499Y-136800637D01*
X158938309Y-136776827D01*
X158962118Y-136729208D01*
X158962118Y-136610161D01*
X158938309Y-136562542D01*
X158914499Y-136538732D01*
X158509738Y-137014922D02*
X158485928Y-137038732D01*
X158462118Y-137086351D01*
X158462118Y-137205398D01*
X158485928Y-137253017D01*
X158509738Y-137276827D01*
X158557357Y-137300636D01*
X158604976Y-137300636D01*
X158676404Y-137276827D01*
X158962118Y-136991113D01*
X158962118Y-137300636D01*
D12*
X165430394Y-128973745D02*
X165906585Y-128973745D01*
X165906585Y-127973745D01*
X164668489Y-128307078D02*
X164668489Y-128973745D01*
X164906585Y-127926126D02*
X165144680Y-128640412D01*
X164525632Y-128640412D01*
D10*
X160536437Y-128420129D02*
X160250722Y-128220129D01*
X160536437Y-128077272D02*
X159936437Y-128077272D01*
X159936437Y-128305844D01*
X159965008Y-128362986D01*
X159993579Y-128391558D01*
X160050722Y-128420129D01*
X160136437Y-128420129D01*
X160193579Y-128391558D01*
X160222151Y-128362986D01*
X160250722Y-128305844D01*
X160250722Y-128077272D01*
X159936437Y-128962986D02*
X159936437Y-128677272D01*
X160222151Y-128648701D01*
X160193579Y-128677272D01*
X160165008Y-128734415D01*
X160165008Y-128877272D01*
X160193579Y-128934415D01*
X160222151Y-128962986D01*
X160279294Y-128991558D01*
X160422151Y-128991558D01*
X160479294Y-128962986D01*
X160507865Y-128934415D01*
X160536437Y-128877272D01*
X160536437Y-128734415D01*
X160507865Y-128677272D01*
X160479294Y-128648701D01*
X159936437Y-129191558D02*
X159936437Y-129562987D01*
X160165008Y-129362987D01*
X160165008Y-129448701D01*
X160193579Y-129505844D01*
X160222151Y-129534415D01*
X160279294Y-129562987D01*
X160422151Y-129562987D01*
X160479294Y-129534415D01*
X160507865Y-129505844D01*
X160536437Y-129448701D01*
X160536437Y-129277273D01*
X160507865Y-129220130D01*
X160479294Y-129191558D01*
X140464094Y-115628689D02*
X140492665Y-115600118D01*
X140521237Y-115514404D01*
X140521237Y-115457261D01*
X140492665Y-115371546D01*
X140435522Y-115314404D01*
X140378379Y-115285832D01*
X140264094Y-115257261D01*
X140178379Y-115257261D01*
X140064094Y-115285832D01*
X140006951Y-115314404D01*
X139949808Y-115371546D01*
X139921237Y-115457261D01*
X139921237Y-115514404D01*
X139949808Y-115600118D01*
X139978379Y-115628689D01*
X139921237Y-116171546D02*
X139921237Y-115885832D01*
X140206951Y-115857261D01*
X140178379Y-115885832D01*
X140149808Y-115942975D01*
X140149808Y-116085832D01*
X140178379Y-116142975D01*
X140206951Y-116171546D01*
X140264094Y-116200118D01*
X140406951Y-116200118D01*
X140464094Y-116171546D01*
X140492665Y-116142975D01*
X140521237Y-116085832D01*
X140521237Y-115942975D01*
X140492665Y-115885832D01*
X140464094Y-115857261D01*
X140178379Y-116542975D02*
X140149808Y-116485833D01*
X140121237Y-116457261D01*
X140064094Y-116428690D01*
X140035522Y-116428690D01*
X139978379Y-116457261D01*
X139949808Y-116485833D01*
X139921237Y-116542975D01*
X139921237Y-116657261D01*
X139949808Y-116714404D01*
X139978379Y-116742975D01*
X140035522Y-116771547D01*
X140064094Y-116771547D01*
X140121237Y-116742975D01*
X140149808Y-116714404D01*
X140178379Y-116657261D01*
X140178379Y-116542975D01*
X140206951Y-116485833D01*
X140235522Y-116457261D01*
X140292665Y-116428690D01*
X140406951Y-116428690D01*
X140464094Y-116457261D01*
X140492665Y-116485833D01*
X140521237Y-116542975D01*
X140521237Y-116657261D01*
X140492665Y-116714404D01*
X140464094Y-116742975D01*
X140406951Y-116771547D01*
X140292665Y-116771547D01*
X140235522Y-116742975D01*
X140206951Y-116714404D01*
X140178379Y-116657261D01*
X143055356Y-104442935D02*
X143079166Y-104466745D01*
X143150594Y-104490554D01*
X143198213Y-104490554D01*
X143269642Y-104466745D01*
X143317261Y-104419126D01*
X143341070Y-104371507D01*
X143364880Y-104276269D01*
X143364880Y-104204840D01*
X143341070Y-104109602D01*
X143317261Y-104061983D01*
X143269642Y-104014364D01*
X143198213Y-103990554D01*
X143150594Y-103990554D01*
X143079166Y-104014364D01*
X143055356Y-104038174D01*
X142579166Y-104490554D02*
X142864880Y-104490554D01*
X142722023Y-104490554D02*
X142722023Y-103990554D01*
X142769642Y-104061983D01*
X142817261Y-104109602D01*
X142864880Y-104133412D01*
X142150595Y-103990554D02*
X142245833Y-103990554D01*
X142293452Y-104014364D01*
X142317261Y-104038174D01*
X142364880Y-104109602D01*
X142388690Y-104204840D01*
X142388690Y-104395316D01*
X142364880Y-104442935D01*
X142341071Y-104466745D01*
X142293452Y-104490554D01*
X142198214Y-104490554D01*
X142150595Y-104466745D01*
X142126785Y-104442935D01*
X142102976Y-104395316D01*
X142102976Y-104276269D01*
X142126785Y-104228650D01*
X142150595Y-104204840D01*
X142198214Y-104181031D01*
X142293452Y-104181031D01*
X142341071Y-104204840D01*
X142364880Y-104228650D01*
X142388690Y-104276269D01*
X143139963Y-105367650D02*
X143168534Y-105396221D01*
X143254248Y-105424793D01*
X143311391Y-105424793D01*
X143397106Y-105396221D01*
X143454248Y-105339078D01*
X143482820Y-105281935D01*
X143511391Y-105167650D01*
X143511391Y-105081935D01*
X143482820Y-104967650D01*
X143454248Y-104910507D01*
X143397106Y-104853364D01*
X143311391Y-104824793D01*
X143254248Y-104824793D01*
X143168534Y-104853364D01*
X143139963Y-104881935D01*
X142568534Y-105424793D02*
X142911391Y-105424793D01*
X142739963Y-105424793D02*
X142739963Y-104824793D01*
X142797106Y-104910507D01*
X142854248Y-104967650D01*
X142911391Y-104996221D01*
X141997105Y-105424793D02*
X142339962Y-105424793D01*
X142168534Y-105424793D02*
X142168534Y-104824793D01*
X142225677Y-104910507D01*
X142282819Y-104967650D01*
X142339962Y-104996221D01*
X143095996Y-107399495D02*
X143119806Y-107423305D01*
X143191234Y-107447114D01*
X143238853Y-107447114D01*
X143310282Y-107423305D01*
X143357901Y-107375686D01*
X143381710Y-107328067D01*
X143405520Y-107232829D01*
X143405520Y-107161400D01*
X143381710Y-107066162D01*
X143357901Y-107018543D01*
X143310282Y-106970924D01*
X143238853Y-106947114D01*
X143191234Y-106947114D01*
X143119806Y-106970924D01*
X143095996Y-106994734D01*
X142619806Y-107447114D02*
X142905520Y-107447114D01*
X142762663Y-107447114D02*
X142762663Y-106947114D01*
X142810282Y-107018543D01*
X142857901Y-107066162D01*
X142905520Y-107089972D01*
X142429330Y-106994734D02*
X142405520Y-106970924D01*
X142357901Y-106947114D01*
X142238854Y-106947114D01*
X142191235Y-106970924D01*
X142167425Y-106994734D01*
X142143616Y-107042353D01*
X142143616Y-107089972D01*
X142167425Y-107161400D01*
X142453139Y-107447114D01*
X142143616Y-107447114D01*
X143160283Y-108364850D02*
X143188854Y-108393421D01*
X143274568Y-108421993D01*
X143331711Y-108421993D01*
X143417426Y-108393421D01*
X143474568Y-108336278D01*
X143503140Y-108279135D01*
X143531711Y-108164850D01*
X143531711Y-108079135D01*
X143503140Y-107964850D01*
X143474568Y-107907707D01*
X143417426Y-107850564D01*
X143331711Y-107821993D01*
X143274568Y-107821993D01*
X143188854Y-107850564D01*
X143160283Y-107879135D01*
X142588854Y-108421993D02*
X142931711Y-108421993D01*
X142760283Y-108421993D02*
X142760283Y-107821993D01*
X142817426Y-107907707D01*
X142874568Y-107964850D01*
X142931711Y-107993421D01*
X142388854Y-107821993D02*
X142017425Y-107821993D01*
X142217425Y-108050564D01*
X142131711Y-108050564D01*
X142074568Y-108079135D01*
X142045997Y-108107707D01*
X142017425Y-108164850D01*
X142017425Y-108307707D01*
X142045997Y-108364850D01*
X142074568Y-108393421D01*
X142131711Y-108421993D01*
X142303139Y-108421993D01*
X142360282Y-108393421D01*
X142388854Y-108364850D01*
X143024876Y-103518375D02*
X143048686Y-103542185D01*
X143120114Y-103565994D01*
X143167733Y-103565994D01*
X143239162Y-103542185D01*
X143286781Y-103494566D01*
X143310590Y-103446947D01*
X143334400Y-103351709D01*
X143334400Y-103280280D01*
X143310590Y-103185042D01*
X143286781Y-103137423D01*
X143239162Y-103089804D01*
X143167733Y-103065994D01*
X143120114Y-103065994D01*
X143048686Y-103089804D01*
X143024876Y-103113614D01*
X142548686Y-103565994D02*
X142834400Y-103565994D01*
X142691543Y-103565994D02*
X142691543Y-103065994D01*
X142739162Y-103137423D01*
X142786781Y-103185042D01*
X142834400Y-103208852D01*
X142096305Y-103065994D02*
X142334400Y-103065994D01*
X142358210Y-103304090D01*
X142334400Y-103280280D01*
X142286781Y-103256471D01*
X142167734Y-103256471D01*
X142120115Y-103280280D01*
X142096305Y-103304090D01*
X142072496Y-103351709D01*
X142072496Y-103470756D01*
X142096305Y-103518375D01*
X142120115Y-103542185D01*
X142167734Y-103565994D01*
X142286781Y-103565994D01*
X142334400Y-103542185D01*
X142358210Y-103518375D01*
X132686459Y-94712576D02*
X132710269Y-94688766D01*
X132734078Y-94617338D01*
X132734078Y-94569719D01*
X132710269Y-94498290D01*
X132662650Y-94450671D01*
X132615031Y-94426862D01*
X132519793Y-94403052D01*
X132448364Y-94403052D01*
X132353126Y-94426862D01*
X132305507Y-94450671D01*
X132257888Y-94498290D01*
X132234078Y-94569719D01*
X132234078Y-94617338D01*
X132257888Y-94688766D01*
X132281698Y-94712576D01*
X132734078Y-95188766D02*
X132734078Y-94903052D01*
X132734078Y-95045909D02*
X132234078Y-95045909D01*
X132305507Y-94998290D01*
X132353126Y-94950671D01*
X132376936Y-94903052D01*
X132234078Y-95355433D02*
X132234078Y-95688766D01*
X132734078Y-95474480D01*
X119283354Y-107421169D02*
X119311925Y-107449740D01*
X119397639Y-107478312D01*
X119454782Y-107478312D01*
X119540497Y-107449740D01*
X119597639Y-107392597D01*
X119626211Y-107335454D01*
X119654782Y-107221169D01*
X119654782Y-107135454D01*
X119626211Y-107021169D01*
X119597639Y-106964026D01*
X119540497Y-106906883D01*
X119454782Y-106878312D01*
X119397639Y-106878312D01*
X119311925Y-106906883D01*
X119283354Y-106935454D01*
X118711925Y-107478312D02*
X119054782Y-107478312D01*
X118883354Y-107478312D02*
X118883354Y-106878312D01*
X118940497Y-106964026D01*
X118997639Y-107021169D01*
X119054782Y-107049740D01*
X118369068Y-107135454D02*
X118426210Y-107106883D01*
X118454782Y-107078312D01*
X118483353Y-107021169D01*
X118483353Y-106992597D01*
X118454782Y-106935454D01*
X118426210Y-106906883D01*
X118369068Y-106878312D01*
X118254782Y-106878312D01*
X118197639Y-106906883D01*
X118169068Y-106935454D01*
X118140496Y-106992597D01*
X118140496Y-107021169D01*
X118169068Y-107078312D01*
X118197639Y-107106883D01*
X118254782Y-107135454D01*
X118369068Y-107135454D01*
X118426210Y-107164026D01*
X118454782Y-107192597D01*
X118483353Y-107249740D01*
X118483353Y-107364026D01*
X118454782Y-107421169D01*
X118426210Y-107449740D01*
X118369068Y-107478312D01*
X118254782Y-107478312D01*
X118197639Y-107449740D01*
X118169068Y-107421169D01*
X118140496Y-107364026D01*
X118140496Y-107249740D01*
X118169068Y-107192597D01*
X118197639Y-107164026D01*
X118254782Y-107135454D01*
X119293514Y-104667809D02*
X119322085Y-104696380D01*
X119407799Y-104724952D01*
X119464942Y-104724952D01*
X119550657Y-104696380D01*
X119607799Y-104639237D01*
X119636371Y-104582094D01*
X119664942Y-104467809D01*
X119664942Y-104382094D01*
X119636371Y-104267809D01*
X119607799Y-104210666D01*
X119550657Y-104153523D01*
X119464942Y-104124952D01*
X119407799Y-104124952D01*
X119322085Y-104153523D01*
X119293514Y-104182094D01*
X118722085Y-104724952D02*
X119064942Y-104724952D01*
X118893514Y-104724952D02*
X118893514Y-104124952D01*
X118950657Y-104210666D01*
X119007799Y-104267809D01*
X119064942Y-104296380D01*
X118436370Y-104724952D02*
X118322085Y-104724952D01*
X118264942Y-104696380D01*
X118236370Y-104667809D01*
X118179228Y-104582094D01*
X118150656Y-104467809D01*
X118150656Y-104239237D01*
X118179228Y-104182094D01*
X118207799Y-104153523D01*
X118264942Y-104124952D01*
X118379228Y-104124952D01*
X118436370Y-104153523D01*
X118464942Y-104182094D01*
X118493513Y-104239237D01*
X118493513Y-104382094D01*
X118464942Y-104439237D01*
X118436370Y-104467809D01*
X118379228Y-104496380D01*
X118264942Y-104496380D01*
X118207799Y-104467809D01*
X118179228Y-104439237D01*
X118150656Y-104382094D01*
X132966374Y-113061569D02*
X132994945Y-113032998D01*
X133023517Y-112947284D01*
X133023517Y-112890141D01*
X132994945Y-112804426D01*
X132937802Y-112747284D01*
X132880659Y-112718712D01*
X132766374Y-112690141D01*
X132680659Y-112690141D01*
X132566374Y-112718712D01*
X132509231Y-112747284D01*
X132452088Y-112804426D01*
X132423517Y-112890141D01*
X132423517Y-112947284D01*
X132452088Y-113032998D01*
X132480659Y-113061569D01*
X132480659Y-113290141D02*
X132452088Y-113318712D01*
X132423517Y-113375855D01*
X132423517Y-113518712D01*
X132452088Y-113575855D01*
X132480659Y-113604426D01*
X132537802Y-113632998D01*
X132594945Y-113632998D01*
X132680659Y-113604426D01*
X133023517Y-113261569D01*
X133023517Y-113632998D01*
X132423517Y-114004427D02*
X132423517Y-114061570D01*
X132452088Y-114118713D01*
X132480659Y-114147284D01*
X132537802Y-114175855D01*
X132652088Y-114204427D01*
X132794945Y-114204427D01*
X132909231Y-114175855D01*
X132966374Y-114147284D01*
X132994945Y-114118713D01*
X133023517Y-114061570D01*
X133023517Y-114004427D01*
X132994945Y-113947284D01*
X132966374Y-113918713D01*
X132909231Y-113890141D01*
X132794945Y-113861570D01*
X132652088Y-113861570D01*
X132537802Y-113890141D01*
X132480659Y-113918713D01*
X132452088Y-113947284D01*
X132423517Y-114004427D01*
X113967366Y-102389412D02*
X114004696Y-102404874D01*
X114094819Y-102398470D01*
X114147612Y-102376602D01*
X114215869Y-102317404D01*
X114246793Y-102242743D01*
X114251323Y-102179016D01*
X114233984Y-102062496D01*
X114201182Y-101983306D01*
X114131051Y-101888654D01*
X114082786Y-101846795D01*
X114008126Y-101815869D01*
X113918002Y-101822275D01*
X113865209Y-101844142D01*
X113796953Y-101903340D01*
X113781491Y-101940670D01*
X113570318Y-102028140D02*
X113532988Y-102012678D01*
X113469261Y-102008149D01*
X113337278Y-102062818D01*
X113295419Y-102111082D01*
X113279956Y-102148412D01*
X113275427Y-102212139D01*
X113297295Y-102264932D01*
X113356493Y-102333188D01*
X113804458Y-102518742D01*
X113461302Y-102660881D01*
X112933370Y-102879558D02*
X113250129Y-102748352D01*
X113091750Y-102813955D02*
X112862140Y-102259627D01*
X112947735Y-102316949D01*
X113022395Y-102347875D01*
X113086122Y-102352403D01*
X106953803Y-111961570D02*
X106982374Y-111990141D01*
X107068088Y-112018713D01*
X107125231Y-112018713D01*
X107210946Y-111990141D01*
X107268088Y-111932998D01*
X107296660Y-111875855D01*
X107325231Y-111761570D01*
X107325231Y-111675855D01*
X107296660Y-111561570D01*
X107268088Y-111504427D01*
X107210946Y-111447284D01*
X107125231Y-111418713D01*
X107068088Y-111418713D01*
X106982374Y-111447284D01*
X106953803Y-111475855D01*
X106725231Y-111475855D02*
X106696660Y-111447284D01*
X106639517Y-111418713D01*
X106496660Y-111418713D01*
X106439517Y-111447284D01*
X106410946Y-111475855D01*
X106382374Y-111532998D01*
X106382374Y-111590141D01*
X106410946Y-111675855D01*
X106753803Y-112018713D01*
X106382374Y-112018713D01*
X105839517Y-111418713D02*
X106125231Y-111418713D01*
X106153802Y-111704427D01*
X106125231Y-111675855D01*
X106068088Y-111647284D01*
X105925231Y-111647284D01*
X105868088Y-111675855D01*
X105839517Y-111704427D01*
X105810945Y-111761570D01*
X105810945Y-111904427D01*
X105839517Y-111961570D01*
X105868088Y-111990141D01*
X105925231Y-112018713D01*
X106068088Y-112018713D01*
X106125231Y-111990141D01*
X106153802Y-111961570D01*
X106953803Y-113061570D02*
X106982374Y-113090141D01*
X107068088Y-113118713D01*
X107125231Y-113118713D01*
X107210946Y-113090141D01*
X107268088Y-113032998D01*
X107296660Y-112975855D01*
X107325231Y-112861570D01*
X107325231Y-112775855D01*
X107296660Y-112661570D01*
X107268088Y-112604427D01*
X107210946Y-112547284D01*
X107125231Y-112518713D01*
X107068088Y-112518713D01*
X106982374Y-112547284D01*
X106953803Y-112575855D01*
X106725231Y-112575855D02*
X106696660Y-112547284D01*
X106639517Y-112518713D01*
X106496660Y-112518713D01*
X106439517Y-112547284D01*
X106410946Y-112575855D01*
X106382374Y-112632998D01*
X106382374Y-112690141D01*
X106410946Y-112775855D01*
X106753803Y-113118713D01*
X106382374Y-113118713D01*
X105868088Y-112518713D02*
X105982374Y-112518713D01*
X106039517Y-112547284D01*
X106068088Y-112575855D01*
X106125231Y-112661570D01*
X106153802Y-112775855D01*
X106153802Y-113004427D01*
X106125231Y-113061570D01*
X106096659Y-113090141D01*
X106039517Y-113118713D01*
X105925231Y-113118713D01*
X105868088Y-113090141D01*
X105839517Y-113061570D01*
X105810945Y-113004427D01*
X105810945Y-112861570D01*
X105839517Y-112804427D01*
X105868088Y-112775855D01*
X105925231Y-112747284D01*
X106039517Y-112747284D01*
X106096659Y-112775855D01*
X106125231Y-112804427D01*
X106153802Y-112861570D01*
D12*
X119763326Y-113594903D02*
X119858564Y-113547284D01*
X119953802Y-113452046D01*
X120096659Y-113309189D01*
X120191898Y-113261570D01*
X120287136Y-113261570D01*
X120239517Y-113499665D02*
X120334755Y-113452046D01*
X120429993Y-113356808D01*
X120477612Y-113166332D01*
X120477612Y-112832998D01*
X120429993Y-112642522D01*
X120334755Y-112547284D01*
X120239517Y-112499665D01*
X120049040Y-112499665D01*
X119953802Y-112547284D01*
X119858564Y-112642522D01*
X119810945Y-112832998D01*
X119810945Y-113166332D01*
X119858564Y-113356808D01*
X119953802Y-113452046D01*
X120049040Y-113499665D01*
X120239517Y-113499665D01*
X118858564Y-113499665D02*
X119429993Y-113499665D01*
X119144279Y-113499665D02*
X119144279Y-112499665D01*
X119239517Y-112642522D01*
X119334755Y-112737760D01*
X119429993Y-112785379D01*
D10*
X125970387Y-106470833D02*
X126137054Y-106232738D01*
X126256101Y-106470833D02*
X126256101Y-105970833D01*
X126065625Y-105970833D01*
X126018006Y-105994643D01*
X125994197Y-106018453D01*
X125970387Y-106066072D01*
X125970387Y-106137500D01*
X125994197Y-106185119D01*
X126018006Y-106208929D01*
X126065625Y-106232738D01*
X126256101Y-106232738D01*
X125494197Y-106470833D02*
X125779911Y-106470833D01*
X125637054Y-106470833D02*
X125637054Y-105970833D01*
X125684673Y-106042262D01*
X125732292Y-106089881D01*
X125779911Y-106113691D01*
X125184673Y-105970833D02*
X125137054Y-105970833D01*
X125089435Y-105994643D01*
X125065626Y-106018453D01*
X125041816Y-106066072D01*
X125018007Y-106161310D01*
X125018007Y-106280357D01*
X125041816Y-106375595D01*
X125065626Y-106423214D01*
X125089435Y-106447024D01*
X125137054Y-106470833D01*
X125184673Y-106470833D01*
X125232292Y-106447024D01*
X125256102Y-106423214D01*
X125279911Y-106375595D01*
X125303721Y-106280357D01*
X125303721Y-106161310D01*
X125279911Y-106066072D01*
X125256102Y-106018453D01*
X125232292Y-105994643D01*
X125184673Y-105970833D01*
X125789516Y-101198474D02*
X125956183Y-100960379D01*
X126075230Y-101198474D02*
X126075230Y-100698474D01*
X125884754Y-100698474D01*
X125837135Y-100722284D01*
X125813326Y-100746094D01*
X125789516Y-100793713D01*
X125789516Y-100865141D01*
X125813326Y-100912760D01*
X125837135Y-100936570D01*
X125884754Y-100960379D01*
X126075230Y-100960379D01*
X125313326Y-101198474D02*
X125599040Y-101198474D01*
X125456183Y-101198474D02*
X125456183Y-100698474D01*
X125503802Y-100769903D01*
X125551421Y-100817522D01*
X125599040Y-100841332D01*
X124837136Y-101198474D02*
X125122850Y-101198474D01*
X124979993Y-101198474D02*
X124979993Y-100698474D01*
X125027612Y-100769903D01*
X125075231Y-100817522D01*
X125122850Y-100841332D01*
D12*
X108796099Y-98606397D02*
X108896955Y-98033949D01*
X109313989Y-98364901D02*
X108891371Y-97458593D01*
X108546110Y-97619591D01*
X108479920Y-97702998D01*
X108456887Y-97766280D01*
X108453979Y-97872719D01*
X108514353Y-98002192D01*
X108597760Y-98068382D01*
X108661042Y-98091415D01*
X108767482Y-98094323D01*
X109112742Y-97933325D01*
X107932948Y-99008891D02*
X108450839Y-98767395D01*
X108191894Y-98888143D02*
X107769276Y-97981835D01*
X107915965Y-98071058D01*
X108042529Y-98117123D01*
X108148969Y-98120032D01*
X106733495Y-98464827D02*
X106906126Y-98384328D01*
X107012565Y-98387237D01*
X107075847Y-98410269D01*
X107222536Y-98499492D01*
X107346192Y-98651998D01*
X107507190Y-98997258D01*
X107504282Y-99103698D01*
X107481249Y-99166980D01*
X107415059Y-99250387D01*
X107242428Y-99330886D01*
X107135988Y-99327978D01*
X107072706Y-99304945D01*
X106989300Y-99238755D01*
X106888676Y-99022967D01*
X106891584Y-98916527D01*
X106914617Y-98853245D01*
X106980807Y-98769838D01*
X107153438Y-98689339D01*
X107259877Y-98692247D01*
X107323160Y-98715280D01*
X107406567Y-98781471D01*
D10*
X120306677Y-91361569D02*
X120020962Y-91161569D01*
X120306677Y-91018712D02*
X119706677Y-91018712D01*
X119706677Y-91247284D01*
X119735248Y-91304426D01*
X119763819Y-91332998D01*
X119820962Y-91361569D01*
X119906677Y-91361569D01*
X119963819Y-91332998D01*
X119992391Y-91304426D01*
X120020962Y-91247284D01*
X120020962Y-91018712D01*
X119763819Y-91590141D02*
X119735248Y-91618712D01*
X119706677Y-91675855D01*
X119706677Y-91818712D01*
X119735248Y-91875855D01*
X119763819Y-91904426D01*
X119820962Y-91932998D01*
X119878105Y-91932998D01*
X119963819Y-91904426D01*
X120306677Y-91561569D01*
X120306677Y-91932998D01*
X119706677Y-92304427D02*
X119706677Y-92361570D01*
X119735248Y-92418713D01*
X119763819Y-92447284D01*
X119820962Y-92475855D01*
X119935248Y-92504427D01*
X120078105Y-92504427D01*
X120192391Y-92475855D01*
X120249534Y-92447284D01*
X120278105Y-92418713D01*
X120306677Y-92361570D01*
X120306677Y-92304427D01*
X120278105Y-92247284D01*
X120249534Y-92218713D01*
X120192391Y-92190141D01*
X120078105Y-92161570D01*
X119935248Y-92161570D01*
X119820962Y-92190141D01*
X119763819Y-92218713D01*
X119735248Y-92247284D01*
X119706677Y-92304427D01*
D12*
X146045236Y-157314531D02*
X146170966Y-156747026D01*
X146573168Y-157095854D02*
X146190484Y-156171975D01*
X145838530Y-156317759D01*
X145768764Y-156398200D01*
X145742993Y-156460417D01*
X145735445Y-156566628D01*
X145790114Y-156698611D01*
X145870554Y-156768376D01*
X145932771Y-156794147D01*
X146038983Y-156801696D01*
X146390937Y-156655911D01*
X145347045Y-156624424D02*
X145284828Y-156598653D01*
X145178616Y-156591104D01*
X144958644Y-156682220D01*
X144888879Y-156762660D01*
X144863108Y-156824877D01*
X144855559Y-156931089D01*
X144892005Y-157019077D01*
X144990669Y-157132837D01*
X145737277Y-157442092D01*
X145165351Y-157678991D01*
X144285466Y-158043452D02*
X144813397Y-157824775D01*
X144549432Y-157934113D02*
X144166748Y-157010234D01*
X144309406Y-157105770D01*
X144433840Y-157157313D01*
X144540052Y-157164861D01*
D10*
X115708688Y-94872473D02*
X116052157Y-94932987D01*
X115853586Y-95183207D02*
X116397370Y-94929636D01*
X116300772Y-94722480D01*
X116250728Y-94682766D01*
X116212759Y-94668946D01*
X116148895Y-94667201D01*
X116071211Y-94703426D01*
X116031497Y-94753469D01*
X116017678Y-94791440D01*
X116015933Y-94855302D01*
X116112531Y-95062459D01*
X116104086Y-94435895D02*
X116117905Y-94397926D01*
X116119650Y-94334063D01*
X116059276Y-94204590D01*
X116009232Y-94164876D01*
X115971263Y-94151056D01*
X115907399Y-94149311D01*
X115855610Y-94173460D01*
X115790002Y-94235580D01*
X115624164Y-94691212D01*
X115467192Y-94354583D01*
X115926453Y-93919750D02*
X115769480Y-93583121D01*
X115646848Y-93860981D01*
X115610624Y-93783298D01*
X115560580Y-93743583D01*
X115522610Y-93729764D01*
X115458746Y-93728019D01*
X115329274Y-93788393D01*
X115289560Y-93838438D01*
X115275740Y-93876406D01*
X115273995Y-93940271D01*
X115346443Y-94095637D01*
X115396488Y-94135351D01*
X115434457Y-94149172D01*
X136177289Y-161445755D02*
X136271586Y-161020127D01*
X136573238Y-161281748D02*
X136286226Y-160588838D01*
X136022259Y-160698177D01*
X135969936Y-160758506D01*
X135950606Y-160805169D01*
X135944946Y-160884828D01*
X135985947Y-160983815D01*
X136046277Y-161036139D01*
X136092941Y-161055468D01*
X136172599Y-161061129D01*
X136436565Y-160951791D01*
X135653646Y-160928174D02*
X135606983Y-160908846D01*
X135527324Y-160903185D01*
X135362346Y-160971522D01*
X135310021Y-161031852D01*
X135290693Y-161078514D01*
X135285031Y-161158174D01*
X135312366Y-161224165D01*
X135386364Y-161309484D01*
X135946319Y-161541426D01*
X135517375Y-161719101D01*
X134732111Y-161503172D02*
X134923453Y-161965111D01*
X134787751Y-161170869D02*
X135157739Y-161597469D01*
X134728794Y-161775143D01*
X114739517Y-110561569D02*
X114453802Y-110361569D01*
X114739517Y-110218712D02*
X114139517Y-110218712D01*
X114139517Y-110447284D01*
X114168088Y-110504426D01*
X114196659Y-110532998D01*
X114253802Y-110561569D01*
X114339517Y-110561569D01*
X114396659Y-110532998D01*
X114425231Y-110504426D01*
X114453802Y-110447284D01*
X114453802Y-110218712D01*
X114139517Y-110761569D02*
X114139517Y-111132998D01*
X114368088Y-110932998D01*
X114368088Y-111018712D01*
X114396659Y-111075855D01*
X114425231Y-111104426D01*
X114482374Y-111132998D01*
X114625231Y-111132998D01*
X114682374Y-111104426D01*
X114710945Y-111075855D01*
X114739517Y-111018712D01*
X114739517Y-110847284D01*
X114710945Y-110790141D01*
X114682374Y-110761569D01*
X114739517Y-111418713D02*
X114739517Y-111532998D01*
X114710945Y-111590141D01*
X114682374Y-111618713D01*
X114596659Y-111675855D01*
X114482374Y-111704427D01*
X114253802Y-111704427D01*
X114196659Y-111675855D01*
X114168088Y-111647284D01*
X114139517Y-111590141D01*
X114139517Y-111475855D01*
X114168088Y-111418713D01*
X114196659Y-111390141D01*
X114253802Y-111361570D01*
X114396659Y-111361570D01*
X114453802Y-111390141D01*
X114482374Y-111418713D01*
X114510945Y-111475855D01*
X114510945Y-111590141D01*
X114482374Y-111647284D01*
X114453802Y-111675855D01*
X114396659Y-111704427D01*
X153858763Y-135696513D02*
X154058763Y-135410798D01*
X154201620Y-135696513D02*
X154201620Y-135096513D01*
X153973048Y-135096513D01*
X153915906Y-135125084D01*
X153887334Y-135153655D01*
X153858763Y-135210798D01*
X153858763Y-135296513D01*
X153887334Y-135353655D01*
X153915906Y-135382227D01*
X153973048Y-135410798D01*
X154201620Y-135410798D01*
X153344477Y-135296513D02*
X153344477Y-135696513D01*
X153487334Y-135067941D02*
X153630191Y-135496513D01*
X153258763Y-135496513D01*
X152915905Y-135096513D02*
X152858762Y-135096513D01*
X152801619Y-135125084D01*
X152773048Y-135153655D01*
X152744477Y-135210798D01*
X152715905Y-135325084D01*
X152715905Y-135467941D01*
X152744477Y-135582227D01*
X152773048Y-135639370D01*
X152801619Y-135667941D01*
X152858762Y-135696513D01*
X152915905Y-135696513D01*
X152973048Y-135667941D01*
X153001619Y-135639370D01*
X153030191Y-135582227D01*
X153058762Y-135467941D01*
X153058762Y-135325084D01*
X153030191Y-135210798D01*
X153001619Y-135153655D01*
X152973048Y-135125084D01*
X152915905Y-135096513D01*
D12*
X117352175Y-97328978D02*
X117694294Y-98062656D01*
X117691386Y-98169095D01*
X117668353Y-98232377D01*
X117602163Y-98315784D01*
X117429532Y-98396283D01*
X117323093Y-98393375D01*
X117259811Y-98370342D01*
X117176404Y-98304152D01*
X116834284Y-97570474D01*
X116454359Y-98220512D02*
X116520549Y-98137105D01*
X116543582Y-98073823D01*
X116546490Y-97967383D01*
X116526365Y-97924226D01*
X116442959Y-97858036D01*
X116379677Y-97835003D01*
X116273237Y-97832095D01*
X116100606Y-97912594D01*
X116034416Y-97996000D01*
X116011383Y-98059283D01*
X116008475Y-98165722D01*
X116028600Y-98208880D01*
X116112006Y-98275070D01*
X116175289Y-98298103D01*
X116281728Y-98301011D01*
X116454359Y-98220512D01*
X116560799Y-98223420D01*
X116624081Y-98246453D01*
X116707488Y-98312644D01*
X116787986Y-98485274D01*
X116785078Y-98591713D01*
X116762046Y-98654996D01*
X116695855Y-98738402D01*
X116523224Y-98818901D01*
X116416785Y-98815993D01*
X116353503Y-98792960D01*
X116270096Y-98726770D01*
X116189597Y-98554140D01*
X116192505Y-98447700D01*
X116215538Y-98384418D01*
X116281728Y-98301011D01*
X123669279Y-102259354D02*
X123669279Y-102735545D01*
X124002612Y-101735545D02*
X123669279Y-102259354D01*
X123335945Y-101735545D01*
X122478802Y-102735545D02*
X123050231Y-102735545D01*
X122764517Y-102735545D02*
X122764517Y-101735545D01*
X122859755Y-101878402D01*
X122954993Y-101973640D01*
X123050231Y-102021259D01*
D10*
X143139963Y-106343010D02*
X143168534Y-106371581D01*
X143254248Y-106400153D01*
X143311391Y-106400153D01*
X143397106Y-106371581D01*
X143454248Y-106314438D01*
X143482820Y-106257295D01*
X143511391Y-106143010D01*
X143511391Y-106057295D01*
X143482820Y-105943010D01*
X143454248Y-105885867D01*
X143397106Y-105828724D01*
X143311391Y-105800153D01*
X143254248Y-105800153D01*
X143168534Y-105828724D01*
X143139963Y-105857295D01*
X142568534Y-106400153D02*
X142911391Y-106400153D01*
X142739963Y-106400153D02*
X142739963Y-105800153D01*
X142797106Y-105885867D01*
X142854248Y-105943010D01*
X142911391Y-105971581D01*
X142197105Y-105800153D02*
X142139962Y-105800153D01*
X142082819Y-105828724D01*
X142054248Y-105857295D01*
X142025677Y-105914438D01*
X141997105Y-106028724D01*
X141997105Y-106171581D01*
X142025677Y-106285867D01*
X142054248Y-106343010D01*
X142082819Y-106371581D01*
X142139962Y-106400153D01*
X142197105Y-106400153D01*
X142254248Y-106371581D01*
X142282819Y-106343010D01*
X142311391Y-106285867D01*
X142339962Y-106171581D01*
X142339962Y-106028724D01*
X142311391Y-105914438D01*
X142282819Y-105857295D01*
X142254248Y-105828724D01*
X142197105Y-105800153D01*
X144198446Y-155002972D02*
X144235776Y-155018434D01*
X144325899Y-155012030D01*
X144378692Y-154990162D01*
X144446949Y-154930964D01*
X144477873Y-154856303D01*
X144482403Y-154792576D01*
X144465064Y-154676056D01*
X144432262Y-154596866D01*
X144362131Y-154502214D01*
X144313866Y-154460355D01*
X144239206Y-154429429D01*
X144149082Y-154435835D01*
X144096289Y-154457702D01*
X144028033Y-154516900D01*
X144012571Y-154554230D01*
X143592102Y-154883022D02*
X143745175Y-155252574D01*
X143636614Y-154617180D02*
X143932604Y-154958460D01*
X143589449Y-155100599D01*
X143428416Y-155383780D02*
X143322830Y-155427515D01*
X143259103Y-155422985D01*
X143221772Y-155407523D01*
X143136178Y-155350200D01*
X143066046Y-155255549D01*
X142978575Y-155044376D01*
X142983105Y-154980648D01*
X142998567Y-154943319D01*
X143040427Y-154895055D01*
X143146013Y-154851319D01*
X143209739Y-154855848D01*
X143247070Y-154871310D01*
X143295334Y-154913170D01*
X143350003Y-155045153D01*
X143345474Y-155108879D01*
X143330011Y-155146211D01*
X143288153Y-155194474D01*
X143182566Y-155238209D01*
X143118839Y-155233681D01*
X143081509Y-155218218D01*
X143033244Y-155176358D01*
X143372901Y-98046725D02*
X143412961Y-98041451D01*
X143487808Y-97990843D01*
X143522594Y-97945508D01*
X143552107Y-97860112D01*
X143541558Y-97779992D01*
X143513617Y-97722538D01*
X143440341Y-97630299D01*
X143372339Y-97578119D01*
X143264278Y-97531213D01*
X143201550Y-97519095D01*
X143121429Y-97529642D01*
X143046582Y-97580251D01*
X143011796Y-97625586D01*
X142982283Y-97710980D01*
X142987557Y-97751040D01*
X142611753Y-98146932D02*
X142785685Y-97920260D01*
X143029750Y-98071524D01*
X142989689Y-98076798D01*
X142932236Y-98104739D01*
X142845270Y-98218075D01*
X142833150Y-98280803D01*
X142838425Y-98320863D01*
X142866366Y-98378318D01*
X142979702Y-98465283D01*
X143042431Y-98477402D01*
X143082490Y-98472128D01*
X143139944Y-98444187D01*
X143226910Y-98330851D01*
X143239029Y-98268123D01*
X143233755Y-98228063D01*
X142368248Y-98464274D02*
X142333461Y-98509608D01*
X142321342Y-98572336D01*
X142326616Y-98612396D01*
X142354558Y-98669849D01*
X142427833Y-98762090D01*
X142541169Y-98849056D01*
X142649232Y-98895961D01*
X142711960Y-98908080D01*
X142752019Y-98902806D01*
X142809473Y-98874865D01*
X142844260Y-98829531D01*
X142856379Y-98766803D01*
X142851105Y-98726743D01*
X142823164Y-98669289D01*
X142749887Y-98577049D01*
X142636551Y-98490083D01*
X142528489Y-98443177D01*
X142465761Y-98431058D01*
X142425701Y-98436332D01*
X142368248Y-98464274D01*
X125622614Y-110216969D02*
X125651185Y-110188398D01*
X125679757Y-110102684D01*
X125679757Y-110045541D01*
X125651185Y-109959826D01*
X125594042Y-109902684D01*
X125536899Y-109874112D01*
X125422614Y-109845541D01*
X125336899Y-109845541D01*
X125222614Y-109874112D01*
X125165471Y-109902684D01*
X125108328Y-109959826D01*
X125079757Y-110045541D01*
X125079757Y-110102684D01*
X125108328Y-110188398D01*
X125136899Y-110216969D01*
X125079757Y-110759826D02*
X125079757Y-110474112D01*
X125365471Y-110445541D01*
X125336899Y-110474112D01*
X125308328Y-110531255D01*
X125308328Y-110674112D01*
X125336899Y-110731255D01*
X125365471Y-110759826D01*
X125422614Y-110788398D01*
X125565471Y-110788398D01*
X125622614Y-110759826D01*
X125651185Y-110731255D01*
X125679757Y-110674112D01*
X125679757Y-110531255D01*
X125651185Y-110474112D01*
X125622614Y-110445541D01*
X125679757Y-111359827D02*
X125679757Y-111016970D01*
X125679757Y-111188398D02*
X125079757Y-111188398D01*
X125165471Y-111131255D01*
X125222614Y-111074113D01*
X125251185Y-111016970D01*
D12*
X128700470Y-93024820D02*
X127700470Y-93024820D01*
X127700470Y-93262915D01*
X127748089Y-93405773D01*
X127843327Y-93501011D01*
X127938565Y-93548630D01*
X128129041Y-93596249D01*
X128271899Y-93596249D01*
X128462375Y-93548630D01*
X128557613Y-93501011D01*
X128652851Y-93405773D01*
X128700470Y-93262915D01*
X128700470Y-93024820D01*
X127700470Y-94501011D02*
X127700470Y-94024820D01*
X128176660Y-93977201D01*
X128129041Y-94024820D01*
X128081422Y-94120058D01*
X128081422Y-94358154D01*
X128129041Y-94453392D01*
X128176660Y-94501011D01*
X128271899Y-94548630D01*
X128509994Y-94548630D01*
X128605232Y-94501011D01*
X128652851Y-94453392D01*
X128700470Y-94358154D01*
X128700470Y-94120058D01*
X128652851Y-94024820D01*
X128605232Y-93977201D01*
D10*
X123719957Y-91363689D02*
X123434242Y-91163689D01*
X123719957Y-91020832D02*
X123119957Y-91020832D01*
X123119957Y-91249404D01*
X123148528Y-91306546D01*
X123177099Y-91335118D01*
X123234242Y-91363689D01*
X123319957Y-91363689D01*
X123377099Y-91335118D01*
X123405671Y-91306546D01*
X123434242Y-91249404D01*
X123434242Y-91020832D01*
X123119957Y-91906546D02*
X123119957Y-91620832D01*
X123405671Y-91592261D01*
X123377099Y-91620832D01*
X123348528Y-91677975D01*
X123348528Y-91820832D01*
X123377099Y-91877975D01*
X123405671Y-91906546D01*
X123462814Y-91935118D01*
X123605671Y-91935118D01*
X123662814Y-91906546D01*
X123691385Y-91877975D01*
X123719957Y-91820832D01*
X123719957Y-91677975D01*
X123691385Y-91620832D01*
X123662814Y-91592261D01*
X123319957Y-92449404D02*
X123719957Y-92449404D01*
X123091385Y-92306547D02*
X123519957Y-92163690D01*
X123519957Y-92535118D01*
X120382877Y-93117449D02*
X120097162Y-92917449D01*
X120382877Y-92774592D02*
X119782877Y-92774592D01*
X119782877Y-93003164D01*
X119811448Y-93060306D01*
X119840019Y-93088878D01*
X119897162Y-93117449D01*
X119982877Y-93117449D01*
X120040019Y-93088878D01*
X120068591Y-93060306D01*
X120097162Y-93003164D01*
X120097162Y-92774592D01*
X119782877Y-93660306D02*
X119782877Y-93374592D01*
X120068591Y-93346021D01*
X120040019Y-93374592D01*
X120011448Y-93431735D01*
X120011448Y-93574592D01*
X120040019Y-93631735D01*
X120068591Y-93660306D01*
X120125734Y-93688878D01*
X120268591Y-93688878D01*
X120325734Y-93660306D01*
X120354305Y-93631735D01*
X120382877Y-93574592D01*
X120382877Y-93431735D01*
X120354305Y-93374592D01*
X120325734Y-93346021D01*
X119782877Y-94231735D02*
X119782877Y-93946021D01*
X120068591Y-93917450D01*
X120040019Y-93946021D01*
X120011448Y-94003164D01*
X120011448Y-94146021D01*
X120040019Y-94203164D01*
X120068591Y-94231735D01*
X120125734Y-94260307D01*
X120268591Y-94260307D01*
X120325734Y-94231735D01*
X120354305Y-94203164D01*
X120382877Y-94146021D01*
X120382877Y-94003164D01*
X120354305Y-93946021D01*
X120325734Y-93917450D01*
X123775837Y-93188569D02*
X123490122Y-92988569D01*
X123775837Y-92845712D02*
X123175837Y-92845712D01*
X123175837Y-93074284D01*
X123204408Y-93131426D01*
X123232979Y-93159998D01*
X123290122Y-93188569D01*
X123375837Y-93188569D01*
X123432979Y-93159998D01*
X123461551Y-93131426D01*
X123490122Y-93074284D01*
X123490122Y-92845712D01*
X123175837Y-93731426D02*
X123175837Y-93445712D01*
X123461551Y-93417141D01*
X123432979Y-93445712D01*
X123404408Y-93502855D01*
X123404408Y-93645712D01*
X123432979Y-93702855D01*
X123461551Y-93731426D01*
X123518694Y-93759998D01*
X123661551Y-93759998D01*
X123718694Y-93731426D01*
X123747265Y-93702855D01*
X123775837Y-93645712D01*
X123775837Y-93502855D01*
X123747265Y-93445712D01*
X123718694Y-93417141D01*
X123175837Y-94274284D02*
X123175837Y-94159998D01*
X123204408Y-94102855D01*
X123232979Y-94074284D01*
X123318694Y-94017141D01*
X123432979Y-93988570D01*
X123661551Y-93988570D01*
X123718694Y-94017141D01*
X123747265Y-94045713D01*
X123775837Y-94102855D01*
X123775837Y-94217141D01*
X123747265Y-94274284D01*
X123718694Y-94302855D01*
X123661551Y-94331427D01*
X123518694Y-94331427D01*
X123461551Y-94302855D01*
X123432979Y-94274284D01*
X123404408Y-94217141D01*
X123404408Y-94102855D01*
X123432979Y-94045713D01*
X123461551Y-94017141D01*
X123518694Y-93988570D01*
X139576357Y-115613449D02*
X139290642Y-115413449D01*
X139576357Y-115270592D02*
X138976357Y-115270592D01*
X138976357Y-115499164D01*
X139004928Y-115556306D01*
X139033499Y-115584878D01*
X139090642Y-115613449D01*
X139176357Y-115613449D01*
X139233499Y-115584878D01*
X139262071Y-115556306D01*
X139290642Y-115499164D01*
X139290642Y-115270592D01*
X138976357Y-116156306D02*
X138976357Y-115870592D01*
X139262071Y-115842021D01*
X139233499Y-115870592D01*
X139204928Y-115927735D01*
X139204928Y-116070592D01*
X139233499Y-116127735D01*
X139262071Y-116156306D01*
X139319214Y-116184878D01*
X139462071Y-116184878D01*
X139519214Y-116156306D01*
X139547785Y-116127735D01*
X139576357Y-116070592D01*
X139576357Y-115927735D01*
X139547785Y-115870592D01*
X139519214Y-115842021D01*
X139233499Y-116527735D02*
X139204928Y-116470593D01*
X139176357Y-116442021D01*
X139119214Y-116413450D01*
X139090642Y-116413450D01*
X139033499Y-116442021D01*
X139004928Y-116470593D01*
X138976357Y-116527735D01*
X138976357Y-116642021D01*
X139004928Y-116699164D01*
X139033499Y-116727735D01*
X139090642Y-116756307D01*
X139119214Y-116756307D01*
X139176357Y-116727735D01*
X139204928Y-116699164D01*
X139233499Y-116642021D01*
X139233499Y-116527735D01*
X139262071Y-116470593D01*
X139290642Y-116442021D01*
X139347785Y-116413450D01*
X139462071Y-116413450D01*
X139519214Y-116442021D01*
X139547785Y-116470593D01*
X139576357Y-116527735D01*
X139576357Y-116642021D01*
X139547785Y-116699164D01*
X139519214Y-116727735D01*
X139462071Y-116756307D01*
X139347785Y-116756307D01*
X139290642Y-116727735D01*
X139262071Y-116699164D01*
X139233499Y-116642021D01*
X138540037Y-115598209D02*
X138254322Y-115398209D01*
X138540037Y-115255352D02*
X137940037Y-115255352D01*
X137940037Y-115483924D01*
X137968608Y-115541066D01*
X137997179Y-115569638D01*
X138054322Y-115598209D01*
X138140037Y-115598209D01*
X138197179Y-115569638D01*
X138225751Y-115541066D01*
X138254322Y-115483924D01*
X138254322Y-115255352D01*
X137940037Y-116141066D02*
X137940037Y-115855352D01*
X138225751Y-115826781D01*
X138197179Y-115855352D01*
X138168608Y-115912495D01*
X138168608Y-116055352D01*
X138197179Y-116112495D01*
X138225751Y-116141066D01*
X138282894Y-116169638D01*
X138425751Y-116169638D01*
X138482894Y-116141066D01*
X138511465Y-116112495D01*
X138540037Y-116055352D01*
X138540037Y-115912495D01*
X138511465Y-115855352D01*
X138482894Y-115826781D01*
X137940037Y-116369638D02*
X137940037Y-116769638D01*
X138540037Y-116512495D01*
X106953803Y-111034570D02*
X106982374Y-111063141D01*
X107068088Y-111091713D01*
X107125231Y-111091713D01*
X107210946Y-111063141D01*
X107268088Y-111005998D01*
X107296660Y-110948855D01*
X107325231Y-110834570D01*
X107325231Y-110748855D01*
X107296660Y-110634570D01*
X107268088Y-110577427D01*
X107210946Y-110520284D01*
X107125231Y-110491713D01*
X107068088Y-110491713D01*
X106982374Y-110520284D01*
X106953803Y-110548855D01*
X106725231Y-110548855D02*
X106696660Y-110520284D01*
X106639517Y-110491713D01*
X106496660Y-110491713D01*
X106439517Y-110520284D01*
X106410946Y-110548855D01*
X106382374Y-110605998D01*
X106382374Y-110663141D01*
X106410946Y-110748855D01*
X106753803Y-111091713D01*
X106382374Y-111091713D01*
X106182374Y-110491713D02*
X105810945Y-110491713D01*
X106010945Y-110720284D01*
X105925231Y-110720284D01*
X105868088Y-110748855D01*
X105839517Y-110777427D01*
X105810945Y-110834570D01*
X105810945Y-110977427D01*
X105839517Y-111034570D01*
X105868088Y-111063141D01*
X105925231Y-111091713D01*
X106096659Y-111091713D01*
X106153802Y-111063141D01*
X106182374Y-111034570D01*
D12*
X137498683Y-151871710D02*
X137560900Y-151897482D01*
X137711106Y-151886807D01*
X137799094Y-151850361D01*
X137912855Y-151751697D01*
X137964397Y-151627263D01*
X137971946Y-151521051D01*
X137943048Y-151326851D01*
X137888379Y-151194868D01*
X137771492Y-151037114D01*
X137691052Y-150967349D01*
X137566618Y-150915806D01*
X137416411Y-150926481D01*
X137328423Y-150962927D01*
X137214663Y-151061591D01*
X137188892Y-151123808D01*
X136844486Y-151163380D02*
X136272560Y-151400280D01*
X136726305Y-151624672D01*
X136594321Y-151679341D01*
X136524556Y-151759782D01*
X136498785Y-151821999D01*
X136491237Y-151928211D01*
X136582352Y-152148182D01*
X136662792Y-152217948D01*
X136725009Y-152243719D01*
X136831221Y-152251267D01*
X137095187Y-152141929D01*
X137164952Y-152061489D01*
X137190724Y-151999271D01*
X135908637Y-152014904D02*
X135978402Y-151934464D01*
X136004173Y-151872246D01*
X136011722Y-151766035D01*
X135993499Y-151722041D01*
X135913058Y-151652275D01*
X135850841Y-151626504D01*
X135744630Y-151618956D01*
X135568652Y-151691848D01*
X135498887Y-151772288D01*
X135473115Y-151834506D01*
X135465567Y-151940717D01*
X135483790Y-151984711D01*
X135564230Y-152054477D01*
X135626448Y-152080248D01*
X135732659Y-152087796D01*
X135908637Y-152014904D01*
X136014848Y-152022452D01*
X136077065Y-152048223D01*
X136157506Y-152117990D01*
X136230398Y-152293966D01*
X136222850Y-152400178D01*
X136197079Y-152462395D01*
X136127313Y-152542835D01*
X135951335Y-152615728D01*
X135845124Y-152608179D01*
X135782907Y-152582408D01*
X135702467Y-152512643D01*
X135629574Y-152336666D01*
X135637122Y-152230454D01*
X135662894Y-152168236D01*
X135732659Y-152087796D01*
D10*
X133576765Y-94802288D02*
X133605336Y-94773717D01*
X133633908Y-94688003D01*
X133633908Y-94630860D01*
X133605336Y-94545145D01*
X133548193Y-94488003D01*
X133491050Y-94459431D01*
X133376765Y-94430860D01*
X133291050Y-94430860D01*
X133176765Y-94459431D01*
X133119622Y-94488003D01*
X133062479Y-94545145D01*
X133033908Y-94630860D01*
X133033908Y-94688003D01*
X133062479Y-94773717D01*
X133091050Y-94802288D01*
X133033908Y-95002288D02*
X133033908Y-95373717D01*
X133262479Y-95173717D01*
X133262479Y-95259431D01*
X133291050Y-95316574D01*
X133319622Y-95345145D01*
X133376765Y-95373717D01*
X133519622Y-95373717D01*
X133576765Y-95345145D01*
X133605336Y-95316574D01*
X133633908Y-95259431D01*
X133633908Y-95088003D01*
X133605336Y-95030860D01*
X133576765Y-95002288D01*
X133633908Y-95659432D02*
X133633908Y-95773717D01*
X133605336Y-95830860D01*
X133576765Y-95859432D01*
X133491050Y-95916574D01*
X133376765Y-95945146D01*
X133148193Y-95945146D01*
X133091050Y-95916574D01*
X133062479Y-95888003D01*
X133033908Y-95830860D01*
X133033908Y-95716574D01*
X133062479Y-95659432D01*
X133091050Y-95630860D01*
X133148193Y-95602289D01*
X133291050Y-95602289D01*
X133348193Y-95630860D01*
X133376765Y-95659432D01*
X133405336Y-95716574D01*
X133405336Y-95830860D01*
X133376765Y-95888003D01*
X133348193Y-95916574D01*
X133291050Y-95945146D01*
D12*
X109700729Y-100216802D02*
X109764012Y-100239835D01*
X109913609Y-100222619D01*
X109999924Y-100182369D01*
X110109272Y-100078837D01*
X110155338Y-99952273D01*
X110158246Y-99845834D01*
X110120905Y-99653079D01*
X110060530Y-99523606D01*
X109936874Y-99371101D01*
X109853468Y-99304910D01*
X109726903Y-99258845D01*
X109577305Y-99276062D01*
X109490990Y-99316311D01*
X109381643Y-99419842D01*
X109358610Y-99483124D01*
X108682398Y-100061156D02*
X108964143Y-100665362D01*
X108737189Y-99615273D02*
X109254846Y-100162012D01*
X108693798Y-100423633D01*
X107894163Y-100060924D02*
X107807847Y-100101173D01*
X107741657Y-100184580D01*
X107718624Y-100247862D01*
X107715716Y-100354302D01*
X107753057Y-100547056D01*
X107853681Y-100762845D01*
X107977337Y-100915350D01*
X108060744Y-100981540D01*
X108124026Y-101004573D01*
X108230465Y-101007481D01*
X108316781Y-100967231D01*
X108382972Y-100883825D01*
X108406004Y-100820543D01*
X108408913Y-100714103D01*
X108371571Y-100521348D01*
X108270948Y-100305560D01*
X108147292Y-100153055D01*
X108063885Y-100086865D01*
X108000603Y-100063832D01*
X107894163Y-100060924D01*
X106680215Y-145841126D02*
X106746982Y-145832336D01*
X106871727Y-145747989D01*
X106929704Y-145672431D01*
X106978892Y-145530106D01*
X106961312Y-145396571D01*
X106914743Y-145300815D01*
X106792617Y-145147082D01*
X106679280Y-145060116D01*
X106499177Y-144981940D01*
X106394631Y-144961741D01*
X106261096Y-144979322D01*
X106136351Y-145063670D01*
X106078374Y-145139227D01*
X106029186Y-145281552D01*
X106037977Y-145348319D01*
X105705074Y-146173279D02*
X106233977Y-146579121D01*
X105547789Y-145752476D02*
X106259413Y-145998413D01*
X105882560Y-146489536D01*
X105596227Y-147410253D02*
X105944091Y-146956908D01*
X105770159Y-147183580D02*
X104976806Y-146574818D01*
X105148119Y-146586227D01*
X105281654Y-146568647D01*
X105377410Y-146522078D01*
D10*
X149046781Y-105617885D02*
X149086841Y-105612611D01*
X149161688Y-105562003D01*
X149196474Y-105516668D01*
X149225987Y-105431272D01*
X149215438Y-105351152D01*
X149187497Y-105293698D01*
X149114221Y-105201459D01*
X149046219Y-105149279D01*
X148938158Y-105102373D01*
X148875430Y-105090255D01*
X148795309Y-105100802D01*
X148720462Y-105151411D01*
X148685676Y-105196746D01*
X148656163Y-105282140D01*
X148661437Y-105322200D01*
X148461697Y-105817177D02*
X148779038Y-106060682D01*
X148367324Y-105564695D02*
X148794299Y-105712257D01*
X148568188Y-106006931D01*
X148174428Y-105956884D02*
X148134368Y-105962158D01*
X148076914Y-105990099D01*
X147989949Y-106103435D01*
X147977829Y-106166163D01*
X147983103Y-106206223D01*
X148011044Y-106263677D01*
X148056379Y-106298463D01*
X148141774Y-106327975D01*
X148622499Y-106264687D01*
X148396388Y-106559361D01*
D12*
X157285825Y-126201347D02*
X157333444Y-126248966D01*
X157476301Y-126296585D01*
X157571539Y-126296585D01*
X157714397Y-126248966D01*
X157809635Y-126153728D01*
X157857254Y-126058490D01*
X157904873Y-125868014D01*
X157904873Y-125725156D01*
X157857254Y-125534680D01*
X157809635Y-125439442D01*
X157714397Y-125344204D01*
X157571539Y-125296585D01*
X157476301Y-125296585D01*
X157333444Y-125344204D01*
X157285825Y-125391823D01*
X156428682Y-125629918D02*
X156428682Y-126296585D01*
X156666778Y-125248966D02*
X156904873Y-125963252D01*
X156285825Y-125963252D01*
X156000111Y-125296585D02*
X155381063Y-125296585D01*
X155714397Y-125677537D01*
X155571539Y-125677537D01*
X155476301Y-125725156D01*
X155428682Y-125772775D01*
X155381063Y-125868014D01*
X155381063Y-126106109D01*
X155428682Y-126201347D01*
X155476301Y-126248966D01*
X155571539Y-126296585D01*
X155857254Y-126296585D01*
X155952492Y-126248966D01*
X156000111Y-126201347D01*
X162304865Y-126031227D02*
X162352484Y-126078846D01*
X162495341Y-126126465D01*
X162590579Y-126126465D01*
X162733437Y-126078846D01*
X162828675Y-125983608D01*
X162876294Y-125888370D01*
X162923913Y-125697894D01*
X162923913Y-125555036D01*
X162876294Y-125364560D01*
X162828675Y-125269322D01*
X162733437Y-125174084D01*
X162590579Y-125126465D01*
X162495341Y-125126465D01*
X162352484Y-125174084D01*
X162304865Y-125221703D01*
X161447722Y-125459798D02*
X161447722Y-126126465D01*
X161685818Y-125078846D02*
X161923913Y-125793132D01*
X161304865Y-125793132D01*
X160495341Y-125459798D02*
X160495341Y-126126465D01*
X160733437Y-125078846D02*
X160971532Y-125793132D01*
X160352484Y-125793132D01*
D10*
X163531083Y-137615490D02*
X163559654Y-137644061D01*
X163645368Y-137672633D01*
X163702511Y-137672633D01*
X163788226Y-137644061D01*
X163845368Y-137586918D01*
X163873940Y-137529775D01*
X163902511Y-137415490D01*
X163902511Y-137329775D01*
X163873940Y-137215490D01*
X163845368Y-137158347D01*
X163788226Y-137101204D01*
X163702511Y-137072633D01*
X163645368Y-137072633D01*
X163559654Y-137101204D01*
X163531083Y-137129775D01*
X163016797Y-137272633D02*
X163016797Y-137672633D01*
X163159654Y-137044061D02*
X163302511Y-137472633D01*
X162931083Y-137472633D01*
X162416797Y-137072633D02*
X162702511Y-137072633D01*
X162731082Y-137358347D01*
X162702511Y-137329775D01*
X162645368Y-137301204D01*
X162502511Y-137301204D01*
X162445368Y-137329775D01*
X162416797Y-137358347D01*
X162388225Y-137415490D01*
X162388225Y-137558347D01*
X162416797Y-137615490D01*
X162445368Y-137644061D01*
X162502511Y-137672633D01*
X162645368Y-137672633D01*
X162702511Y-137644061D01*
X162731082Y-137615490D01*
X163764763Y-135476810D02*
X163793334Y-135505381D01*
X163879048Y-135533953D01*
X163936191Y-135533953D01*
X164021906Y-135505381D01*
X164079048Y-135448238D01*
X164107620Y-135391095D01*
X164136191Y-135276810D01*
X164136191Y-135191095D01*
X164107620Y-135076810D01*
X164079048Y-135019667D01*
X164021906Y-134962524D01*
X163936191Y-134933953D01*
X163879048Y-134933953D01*
X163793334Y-134962524D01*
X163764763Y-134991095D01*
X163250477Y-135133953D02*
X163250477Y-135533953D01*
X163393334Y-134905381D02*
X163536191Y-135333953D01*
X163164763Y-135333953D01*
X162679048Y-134933953D02*
X162793334Y-134933953D01*
X162850477Y-134962524D01*
X162879048Y-134991095D01*
X162936191Y-135076810D01*
X162964762Y-135191095D01*
X162964762Y-135419667D01*
X162936191Y-135476810D01*
X162907619Y-135505381D01*
X162850477Y-135533953D01*
X162736191Y-135533953D01*
X162679048Y-135505381D01*
X162650477Y-135476810D01*
X162621905Y-135419667D01*
X162621905Y-135276810D01*
X162650477Y-135219667D01*
X162679048Y-135191095D01*
X162736191Y-135162524D01*
X162850477Y-135162524D01*
X162907619Y-135191095D01*
X162936191Y-135219667D01*
X162964762Y-135276810D01*
X163065014Y-133281689D02*
X163093585Y-133253118D01*
X163122157Y-133167404D01*
X163122157Y-133110261D01*
X163093585Y-133024546D01*
X163036442Y-132967404D01*
X162979299Y-132938832D01*
X162865014Y-132910261D01*
X162779299Y-132910261D01*
X162665014Y-132938832D01*
X162607871Y-132967404D01*
X162550728Y-133024546D01*
X162522157Y-133110261D01*
X162522157Y-133167404D01*
X162550728Y-133253118D01*
X162579299Y-133281689D01*
X162722157Y-133795975D02*
X163122157Y-133795975D01*
X162493585Y-133653118D02*
X162922157Y-133510261D01*
X162922157Y-133881689D01*
X162522157Y-134053118D02*
X162522157Y-134453118D01*
X163122157Y-134195975D01*
X164050534Y-133220729D02*
X164079105Y-133192158D01*
X164107677Y-133106444D01*
X164107677Y-133049301D01*
X164079105Y-132963586D01*
X164021962Y-132906444D01*
X163964819Y-132877872D01*
X163850534Y-132849301D01*
X163764819Y-132849301D01*
X163650534Y-132877872D01*
X163593391Y-132906444D01*
X163536248Y-132963586D01*
X163507677Y-133049301D01*
X163507677Y-133106444D01*
X163536248Y-133192158D01*
X163564819Y-133220729D01*
X163507677Y-133763586D02*
X163507677Y-133477872D01*
X163793391Y-133449301D01*
X163764819Y-133477872D01*
X163736248Y-133535015D01*
X163736248Y-133677872D01*
X163764819Y-133735015D01*
X163793391Y-133763586D01*
X163850534Y-133792158D01*
X163993391Y-133792158D01*
X164050534Y-133763586D01*
X164079105Y-133735015D01*
X164107677Y-133677872D01*
X164107677Y-133535015D01*
X164079105Y-133477872D01*
X164050534Y-133449301D01*
X163707677Y-134306444D02*
X164107677Y-134306444D01*
X163479105Y-134163587D02*
X163907677Y-134020730D01*
X163907677Y-134392158D01*
X162150614Y-133261369D02*
X162179185Y-133232798D01*
X162207757Y-133147084D01*
X162207757Y-133089941D01*
X162179185Y-133004226D01*
X162122042Y-132947084D01*
X162064899Y-132918512D01*
X161950614Y-132889941D01*
X161864899Y-132889941D01*
X161750614Y-132918512D01*
X161693471Y-132947084D01*
X161636328Y-133004226D01*
X161607757Y-133089941D01*
X161607757Y-133147084D01*
X161636328Y-133232798D01*
X161664899Y-133261369D01*
X161607757Y-133804226D02*
X161607757Y-133518512D01*
X161893471Y-133489941D01*
X161864899Y-133518512D01*
X161836328Y-133575655D01*
X161836328Y-133718512D01*
X161864899Y-133775655D01*
X161893471Y-133804226D01*
X161950614Y-133832798D01*
X162093471Y-133832798D01*
X162150614Y-133804226D01*
X162179185Y-133775655D01*
X162207757Y-133718512D01*
X162207757Y-133575655D01*
X162179185Y-133518512D01*
X162150614Y-133489941D01*
X161607757Y-134375655D02*
X161607757Y-134089941D01*
X161893471Y-134061370D01*
X161864899Y-134089941D01*
X161836328Y-134147084D01*
X161836328Y-134289941D01*
X161864899Y-134347084D01*
X161893471Y-134375655D01*
X161950614Y-134404227D01*
X162093471Y-134404227D01*
X162150614Y-134375655D01*
X162179185Y-134347084D01*
X162207757Y-134289941D01*
X162207757Y-134147084D01*
X162179185Y-134089941D01*
X162150614Y-134061370D01*
X152664963Y-132068130D02*
X152693534Y-132096701D01*
X152779248Y-132125273D01*
X152836391Y-132125273D01*
X152922106Y-132096701D01*
X152979248Y-132039558D01*
X153007820Y-131982415D01*
X153036391Y-131868130D01*
X153036391Y-131782415D01*
X153007820Y-131668130D01*
X152979248Y-131610987D01*
X152922106Y-131553844D01*
X152836391Y-131525273D01*
X152779248Y-131525273D01*
X152693534Y-131553844D01*
X152664963Y-131582415D01*
X152122106Y-131525273D02*
X152407820Y-131525273D01*
X152436391Y-131810987D01*
X152407820Y-131782415D01*
X152350677Y-131753844D01*
X152207820Y-131753844D01*
X152150677Y-131782415D01*
X152122106Y-131810987D01*
X152093534Y-131868130D01*
X152093534Y-132010987D01*
X152122106Y-132068130D01*
X152150677Y-132096701D01*
X152207820Y-132125273D01*
X152350677Y-132125273D01*
X152407820Y-132096701D01*
X152436391Y-132068130D01*
X151579248Y-131525273D02*
X151693534Y-131525273D01*
X151750677Y-131553844D01*
X151779248Y-131582415D01*
X151836391Y-131668130D01*
X151864962Y-131782415D01*
X151864962Y-132010987D01*
X151836391Y-132068130D01*
X151807819Y-132096701D01*
X151750677Y-132125273D01*
X151636391Y-132125273D01*
X151579248Y-132096701D01*
X151550677Y-132068130D01*
X151522105Y-132010987D01*
X151522105Y-131868130D01*
X151550677Y-131810987D01*
X151579248Y-131782415D01*
X151636391Y-131753844D01*
X151750677Y-131753844D01*
X151807819Y-131782415D01*
X151836391Y-131810987D01*
X151864962Y-131868130D01*
D12*
X153381869Y-141097949D02*
X152381869Y-141097949D01*
X152381869Y-141336044D01*
X152429488Y-141478902D01*
X152524726Y-141574140D01*
X152619964Y-141621759D01*
X152810440Y-141669378D01*
X152953298Y-141669378D01*
X153143774Y-141621759D01*
X153239012Y-141574140D01*
X153334250Y-141478902D01*
X153381869Y-141336044D01*
X153381869Y-141097949D01*
X152381869Y-142002711D02*
X152381869Y-142621759D01*
X152762821Y-142288425D01*
X152762821Y-142431283D01*
X152810440Y-142526521D01*
X152858059Y-142574140D01*
X152953298Y-142621759D01*
X153191393Y-142621759D01*
X153286631Y-142574140D01*
X153334250Y-142526521D01*
X153381869Y-142431283D01*
X153381869Y-142145568D01*
X153334250Y-142050330D01*
X153286631Y-142002711D01*
X155952349Y-140976029D02*
X154952349Y-140976029D01*
X154952349Y-141214124D01*
X154999968Y-141356982D01*
X155095206Y-141452220D01*
X155190444Y-141499839D01*
X155380920Y-141547458D01*
X155523778Y-141547458D01*
X155714254Y-141499839D01*
X155809492Y-141452220D01*
X155904730Y-141356982D01*
X155952349Y-141214124D01*
X155952349Y-140976029D01*
X154952349Y-142404601D02*
X154952349Y-142214124D01*
X154999968Y-142118886D01*
X155047587Y-142071267D01*
X155190444Y-141976029D01*
X155380920Y-141928410D01*
X155761873Y-141928410D01*
X155857111Y-141976029D01*
X155904730Y-142023648D01*
X155952349Y-142118886D01*
X155952349Y-142309363D01*
X155904730Y-142404601D01*
X155857111Y-142452220D01*
X155761873Y-142499839D01*
X155523778Y-142499839D01*
X155428539Y-142452220D01*
X155380920Y-142404601D01*
X155333301Y-142309363D01*
X155333301Y-142118886D01*
X155380920Y-142023648D01*
X155428539Y-141976029D01*
X155523778Y-141928410D01*
X167284594Y-129049945D02*
X167760785Y-129049945D01*
X167760785Y-128049945D01*
X166475070Y-128049945D02*
X166951261Y-128049945D01*
X166998880Y-128526135D01*
X166951261Y-128478516D01*
X166856023Y-128430897D01*
X166617927Y-128430897D01*
X166522689Y-128478516D01*
X166475070Y-128526135D01*
X166427451Y-128621374D01*
X166427451Y-128859469D01*
X166475070Y-128954707D01*
X166522689Y-129002326D01*
X166617927Y-129049945D01*
X166856023Y-129049945D01*
X166951261Y-129002326D01*
X166998880Y-128954707D01*
X118910945Y-110449665D02*
X119244279Y-109973474D01*
X119482374Y-110449665D02*
X119482374Y-109449665D01*
X119101421Y-109449665D01*
X119006183Y-109497284D01*
X118958564Y-109544903D01*
X118910945Y-109640141D01*
X118910945Y-109782998D01*
X118958564Y-109878236D01*
X119006183Y-109925855D01*
X119101421Y-109973474D01*
X119482374Y-109973474D01*
X117958564Y-110449665D02*
X118529993Y-110449665D01*
X118244279Y-110449665D02*
X118244279Y-109449665D01*
X118339517Y-109592522D01*
X118434755Y-109687760D01*
X118529993Y-109735379D01*
X117387136Y-109878236D02*
X117482374Y-109830617D01*
X117529993Y-109782998D01*
X117577612Y-109687760D01*
X117577612Y-109640141D01*
X117529993Y-109544903D01*
X117482374Y-109497284D01*
X117387136Y-109449665D01*
X117196659Y-109449665D01*
X117101421Y-109497284D01*
X117053802Y-109544903D01*
X117006183Y-109640141D01*
X117006183Y-109687760D01*
X117053802Y-109782998D01*
X117101421Y-109830617D01*
X117196659Y-109878236D01*
X117387136Y-109878236D01*
X117482374Y-109925855D01*
X117529993Y-109973474D01*
X117577612Y-110068713D01*
X117577612Y-110259189D01*
X117529993Y-110354427D01*
X117482374Y-110402046D01*
X117387136Y-110449665D01*
X117196659Y-110449665D01*
X117101421Y-110402046D01*
X117053802Y-110354427D01*
X117006183Y-110259189D01*
X117006183Y-110068713D01*
X117053802Y-109973474D01*
X117101421Y-109925855D01*
X117196659Y-109878236D01*
D10*
X153797803Y-134710993D02*
X153997803Y-134425278D01*
X154140660Y-134710993D02*
X154140660Y-134110993D01*
X153912088Y-134110993D01*
X153854946Y-134139564D01*
X153826374Y-134168135D01*
X153797803Y-134225278D01*
X153797803Y-134310993D01*
X153826374Y-134368135D01*
X153854946Y-134396707D01*
X153912088Y-134425278D01*
X154140660Y-134425278D01*
X153569231Y-134168135D02*
X153540660Y-134139564D01*
X153483517Y-134110993D01*
X153340660Y-134110993D01*
X153283517Y-134139564D01*
X153254946Y-134168135D01*
X153226374Y-134225278D01*
X153226374Y-134282421D01*
X153254946Y-134368135D01*
X153597803Y-134710993D01*
X153226374Y-134710993D01*
X153026374Y-134110993D02*
X152626374Y-134110993D01*
X152883517Y-134710993D01*
X155503803Y-132843713D02*
X155703803Y-132557998D01*
X155846660Y-132843713D02*
X155846660Y-132243713D01*
X155618088Y-132243713D01*
X155560946Y-132272284D01*
X155532374Y-132300855D01*
X155503803Y-132357998D01*
X155503803Y-132443713D01*
X155532374Y-132500855D01*
X155560946Y-132529427D01*
X155618088Y-132557998D01*
X155846660Y-132557998D01*
X155275231Y-132300855D02*
X155246660Y-132272284D01*
X155189517Y-132243713D01*
X155046660Y-132243713D01*
X154989517Y-132272284D01*
X154960946Y-132300855D01*
X154932374Y-132357998D01*
X154932374Y-132415141D01*
X154960946Y-132500855D01*
X155303803Y-132843713D01*
X154932374Y-132843713D01*
X154589517Y-132500855D02*
X154646659Y-132472284D01*
X154675231Y-132443713D01*
X154703802Y-132386570D01*
X154703802Y-132357998D01*
X154675231Y-132300855D01*
X154646659Y-132272284D01*
X154589517Y-132243713D01*
X154475231Y-132243713D01*
X154418088Y-132272284D01*
X154389517Y-132300855D01*
X154360945Y-132357998D01*
X154360945Y-132386570D01*
X154389517Y-132443713D01*
X154418088Y-132472284D01*
X154475231Y-132500855D01*
X154589517Y-132500855D01*
X154646659Y-132529427D01*
X154675231Y-132557998D01*
X154703802Y-132615141D01*
X154703802Y-132729427D01*
X154675231Y-132786570D01*
X154646659Y-132815141D01*
X154589517Y-132843713D01*
X154475231Y-132843713D01*
X154418088Y-132815141D01*
X154389517Y-132786570D01*
X154360945Y-132729427D01*
X154360945Y-132615141D01*
X154389517Y-132557998D01*
X154418088Y-132529427D01*
X154475231Y-132500855D01*
X155763763Y-129412553D02*
X155963763Y-129126838D01*
X156106620Y-129412553D02*
X156106620Y-128812553D01*
X155878048Y-128812553D01*
X155820906Y-128841124D01*
X155792334Y-128869695D01*
X155763763Y-128926838D01*
X155763763Y-129012553D01*
X155792334Y-129069695D01*
X155820906Y-129098267D01*
X155878048Y-129126838D01*
X156106620Y-129126838D01*
X155535191Y-128869695D02*
X155506620Y-128841124D01*
X155449477Y-128812553D01*
X155306620Y-128812553D01*
X155249477Y-128841124D01*
X155220906Y-128869695D01*
X155192334Y-128926838D01*
X155192334Y-128983981D01*
X155220906Y-129069695D01*
X155563763Y-129412553D01*
X155192334Y-129412553D01*
X154906619Y-129412553D02*
X154792334Y-129412553D01*
X154735191Y-129383981D01*
X154706619Y-129355410D01*
X154649477Y-129269695D01*
X154620905Y-129155410D01*
X154620905Y-128926838D01*
X154649477Y-128869695D01*
X154678048Y-128841124D01*
X154735191Y-128812553D01*
X154849477Y-128812553D01*
X154906619Y-128841124D01*
X154935191Y-128869695D01*
X154963762Y-128926838D01*
X154963762Y-129069695D01*
X154935191Y-129126838D01*
X154906619Y-129155410D01*
X154849477Y-129183981D01*
X154735191Y-129183981D01*
X154678048Y-129155410D01*
X154649477Y-129126838D01*
X154620905Y-129069695D01*
X153990843Y-129437953D02*
X154190843Y-129152238D01*
X154333700Y-129437953D02*
X154333700Y-128837953D01*
X154105128Y-128837953D01*
X154047986Y-128866524D01*
X154019414Y-128895095D01*
X153990843Y-128952238D01*
X153990843Y-129037953D01*
X154019414Y-129095095D01*
X154047986Y-129123667D01*
X154105128Y-129152238D01*
X154333700Y-129152238D01*
X153476557Y-129037953D02*
X153476557Y-129437953D01*
X153619414Y-128809381D02*
X153762271Y-129237953D01*
X153390843Y-129237953D01*
X153076557Y-129095095D02*
X153133699Y-129066524D01*
X153162271Y-129037953D01*
X153190842Y-128980810D01*
X153190842Y-128952238D01*
X153162271Y-128895095D01*
X153133699Y-128866524D01*
X153076557Y-128837953D01*
X152962271Y-128837953D01*
X152905128Y-128866524D01*
X152876557Y-128895095D01*
X152847985Y-128952238D01*
X152847985Y-128980810D01*
X152876557Y-129037953D01*
X152905128Y-129066524D01*
X152962271Y-129095095D01*
X153076557Y-129095095D01*
X153133699Y-129123667D01*
X153162271Y-129152238D01*
X153190842Y-129209381D01*
X153190842Y-129323667D01*
X153162271Y-129380810D01*
X153133699Y-129409381D01*
X153076557Y-129437953D01*
X152962271Y-129437953D01*
X152905128Y-129409381D01*
X152876557Y-129380810D01*
X152847985Y-129323667D01*
X152847985Y-129209381D01*
X152876557Y-129152238D01*
X152905128Y-129123667D01*
X152962271Y-129095095D01*
X157513837Y-128364249D02*
X157228122Y-128164249D01*
X157513837Y-128021392D02*
X156913837Y-128021392D01*
X156913837Y-128249964D01*
X156942408Y-128307106D01*
X156970979Y-128335678D01*
X157028122Y-128364249D01*
X157113837Y-128364249D01*
X157170979Y-128335678D01*
X157199551Y-128307106D01*
X157228122Y-128249964D01*
X157228122Y-128021392D01*
X156913837Y-128907106D02*
X156913837Y-128621392D01*
X157199551Y-128592821D01*
X157170979Y-128621392D01*
X157142408Y-128678535D01*
X157142408Y-128821392D01*
X157170979Y-128878535D01*
X157199551Y-128907106D01*
X157256694Y-128935678D01*
X157399551Y-128935678D01*
X157456694Y-128907106D01*
X157485265Y-128878535D01*
X157513837Y-128821392D01*
X157513837Y-128678535D01*
X157485265Y-128621392D01*
X157456694Y-128592821D01*
X156913837Y-129307107D02*
X156913837Y-129364250D01*
X156942408Y-129421393D01*
X156970979Y-129449964D01*
X157028122Y-129478535D01*
X157142408Y-129507107D01*
X157285265Y-129507107D01*
X157399551Y-129478535D01*
X157456694Y-129449964D01*
X157485265Y-129421393D01*
X157513837Y-129364250D01*
X157513837Y-129307107D01*
X157485265Y-129249964D01*
X157456694Y-129221393D01*
X157399551Y-129192821D01*
X157285265Y-129164250D01*
X157142408Y-129164250D01*
X157028122Y-129192821D01*
X156970979Y-129221393D01*
X156942408Y-129249964D01*
X156913837Y-129307107D01*
X161554963Y-138678473D02*
X161754963Y-138392758D01*
X161897820Y-138678473D02*
X161897820Y-138078473D01*
X161669248Y-138078473D01*
X161612106Y-138107044D01*
X161583534Y-138135615D01*
X161554963Y-138192758D01*
X161554963Y-138278473D01*
X161583534Y-138335615D01*
X161612106Y-138364187D01*
X161669248Y-138392758D01*
X161897820Y-138392758D01*
X161012106Y-138078473D02*
X161297820Y-138078473D01*
X161326391Y-138364187D01*
X161297820Y-138335615D01*
X161240677Y-138307044D01*
X161097820Y-138307044D01*
X161040677Y-138335615D01*
X161012106Y-138364187D01*
X160983534Y-138421330D01*
X160983534Y-138564187D01*
X161012106Y-138621330D01*
X161040677Y-138649901D01*
X161097820Y-138678473D01*
X161240677Y-138678473D01*
X161297820Y-138649901D01*
X161326391Y-138621330D01*
X160412105Y-138678473D02*
X160754962Y-138678473D01*
X160583534Y-138678473D02*
X160583534Y-138078473D01*
X160640677Y-138164187D01*
X160697819Y-138221330D01*
X160754962Y-138249901D01*
X161595603Y-137606593D02*
X161795603Y-137320878D01*
X161938460Y-137606593D02*
X161938460Y-137006593D01*
X161709888Y-137006593D01*
X161652746Y-137035164D01*
X161624174Y-137063735D01*
X161595603Y-137120878D01*
X161595603Y-137206593D01*
X161624174Y-137263735D01*
X161652746Y-137292307D01*
X161709888Y-137320878D01*
X161938460Y-137320878D01*
X161052746Y-137006593D02*
X161338460Y-137006593D01*
X161367031Y-137292307D01*
X161338460Y-137263735D01*
X161281317Y-137235164D01*
X161138460Y-137235164D01*
X161081317Y-137263735D01*
X161052746Y-137292307D01*
X161024174Y-137349450D01*
X161024174Y-137492307D01*
X161052746Y-137549450D01*
X161081317Y-137578021D01*
X161138460Y-137606593D01*
X161281317Y-137606593D01*
X161338460Y-137578021D01*
X161367031Y-137549450D01*
X160738459Y-137606593D02*
X160624174Y-137606593D01*
X160567031Y-137578021D01*
X160538459Y-137549450D01*
X160481317Y-137463735D01*
X160452745Y-137349450D01*
X160452745Y-137120878D01*
X160481317Y-137063735D01*
X160509888Y-137035164D01*
X160567031Y-137006593D01*
X160681317Y-137006593D01*
X160738459Y-137035164D01*
X160767031Y-137063735D01*
X160795602Y-137120878D01*
X160795602Y-137263735D01*
X160767031Y-137320878D01*
X160738459Y-137349450D01*
X160681317Y-137378021D01*
X160567031Y-137378021D01*
X160509888Y-137349450D01*
X160481317Y-137320878D01*
X160452745Y-137263735D01*
X158337278Y-136815616D02*
X158099183Y-136648949D01*
X158337278Y-136529902D02*
X157837278Y-136529902D01*
X157837278Y-136720378D01*
X157861088Y-136767997D01*
X157884898Y-136791806D01*
X157932517Y-136815616D01*
X158003945Y-136815616D01*
X158051564Y-136791806D01*
X158075374Y-136767997D01*
X158099183Y-136720378D01*
X158099183Y-136529902D01*
X157837278Y-137244187D02*
X157837278Y-137148949D01*
X157861088Y-137101330D01*
X157884898Y-137077521D01*
X157956326Y-137029902D01*
X158051564Y-137006092D01*
X158242040Y-137006092D01*
X158289659Y-137029902D01*
X158313469Y-137053711D01*
X158337278Y-137101330D01*
X158337278Y-137196568D01*
X158313469Y-137244187D01*
X158289659Y-137267997D01*
X158242040Y-137291806D01*
X158122993Y-137291806D01*
X158075374Y-137267997D01*
X158051564Y-137244187D01*
X158027755Y-137196568D01*
X158027755Y-137101330D01*
X158051564Y-137053711D01*
X158075374Y-137029902D01*
X158122993Y-137006092D01*
X157837278Y-137601330D02*
X157837278Y-137648949D01*
X157861088Y-137696568D01*
X157884898Y-137720377D01*
X157932517Y-137744187D01*
X158027755Y-137767996D01*
X158146802Y-137767996D01*
X158242040Y-137744187D01*
X158289659Y-137720377D01*
X158313469Y-137696568D01*
X158337278Y-137648949D01*
X158337278Y-137601330D01*
X158313469Y-137553711D01*
X158289659Y-137529901D01*
X158242040Y-137506092D01*
X158146802Y-137482282D01*
X158027755Y-137482282D01*
X157932517Y-137506092D01*
X157884898Y-137529901D01*
X157861088Y-137553711D01*
X157837278Y-137601330D01*
X157684003Y-140730793D02*
X157884003Y-140445078D01*
X158026860Y-140730793D02*
X158026860Y-140130793D01*
X157798288Y-140130793D01*
X157741146Y-140159364D01*
X157712574Y-140187935D01*
X157684003Y-140245078D01*
X157684003Y-140330793D01*
X157712574Y-140387935D01*
X157741146Y-140416507D01*
X157798288Y-140445078D01*
X158026860Y-140445078D01*
X157169717Y-140130793D02*
X157284003Y-140130793D01*
X157341146Y-140159364D01*
X157369717Y-140187935D01*
X157426860Y-140273650D01*
X157455431Y-140387935D01*
X157455431Y-140616507D01*
X157426860Y-140673650D01*
X157398288Y-140702221D01*
X157341146Y-140730793D01*
X157226860Y-140730793D01*
X157169717Y-140702221D01*
X157141146Y-140673650D01*
X157112574Y-140616507D01*
X157112574Y-140473650D01*
X157141146Y-140416507D01*
X157169717Y-140387935D01*
X157226860Y-140359364D01*
X157341146Y-140359364D01*
X157398288Y-140387935D01*
X157426860Y-140416507D01*
X157455431Y-140473650D01*
X156541145Y-140730793D02*
X156884002Y-140730793D01*
X156712574Y-140730793D02*
X156712574Y-140130793D01*
X156769717Y-140216507D01*
X156826859Y-140273650D01*
X156884002Y-140302221D01*
D12*
X161219683Y-140080553D02*
X161419683Y-139794838D01*
X161562540Y-140080553D02*
X161562540Y-139480553D01*
X161333968Y-139480553D01*
X161276826Y-139509124D01*
X161248254Y-139537695D01*
X161219683Y-139594838D01*
X161219683Y-139680553D01*
X161248254Y-139737695D01*
X161276826Y-139766267D01*
X161333968Y-139794838D01*
X161562540Y-139794838D01*
X160705397Y-139480553D02*
X160819683Y-139480553D01*
X160876826Y-139509124D01*
X160905397Y-139537695D01*
X160962540Y-139623410D01*
X160991111Y-139737695D01*
X160991111Y-139966267D01*
X160962540Y-140023410D01*
X160933968Y-140051981D01*
X160876826Y-140080553D01*
X160762540Y-140080553D01*
X160705397Y-140051981D01*
X160676826Y-140023410D01*
X160648254Y-139966267D01*
X160648254Y-139823410D01*
X160676826Y-139766267D01*
X160705397Y-139737695D01*
X160762540Y-139709124D01*
X160876826Y-139709124D01*
X160933968Y-139737695D01*
X160962540Y-139766267D01*
X160991111Y-139823410D01*
X160419682Y-139537695D02*
X160391111Y-139509124D01*
X160333968Y-139480553D01*
X160191111Y-139480553D01*
X160133968Y-139509124D01*
X160105397Y-139537695D01*
X160076825Y-139594838D01*
X160076825Y-139651981D01*
X160105397Y-139737695D01*
X160448254Y-140080553D01*
X160076825Y-140080553D01*
X135720032Y-155359062D02*
X136029823Y-156106964D01*
X136022275Y-156213176D01*
X135996504Y-156275393D01*
X135926738Y-156355833D01*
X135750760Y-156428726D01*
X135644549Y-156421177D01*
X135582332Y-156395406D01*
X135501892Y-156325641D01*
X135192100Y-155577738D01*
X134840146Y-155723522D02*
X134224226Y-155978644D01*
X135002859Y-156738517D01*
X107737017Y-147063468D02*
X108379256Y-147556275D01*
X108425824Y-147652031D01*
X108434615Y-147718798D01*
X108414416Y-147823344D01*
X108298461Y-147974460D01*
X108202705Y-148021028D01*
X108135938Y-148029818D01*
X108031392Y-148009620D01*
X107389153Y-147516813D01*
X107573745Y-148918928D02*
X107921609Y-148465583D01*
X107747677Y-148692255D02*
X106954324Y-148083493D01*
X107125637Y-148094902D01*
X107259172Y-148077322D01*
X107354928Y-148030753D01*
X106577471Y-148574617D02*
X106200619Y-149065741D01*
X106705769Y-149033198D01*
X106618803Y-149146535D01*
X106598604Y-149251081D01*
X106607394Y-149317848D01*
X106653964Y-149413605D01*
X106842858Y-149558548D01*
X106947404Y-149578746D01*
X107014171Y-149569956D01*
X107109927Y-149523388D01*
X107283859Y-149296715D01*
X107304058Y-149192169D01*
X107295267Y-149125401D01*
X150088977Y-100205548D02*
X150731216Y-100698355D01*
X150777784Y-100794111D01*
X150786575Y-100860878D01*
X150766376Y-100965424D01*
X150650421Y-101116540D01*
X150554665Y-101163108D01*
X150487898Y-101171898D01*
X150383352Y-101151700D01*
X149741113Y-100658893D01*
X149925705Y-102061008D02*
X150273569Y-101607663D01*
X150099637Y-101834335D02*
X149306284Y-101225573D01*
X149477597Y-101236982D01*
X149611132Y-101219402D01*
X149706888Y-101172833D01*
X148875007Y-102335184D02*
X149403909Y-102741025D01*
X148717721Y-101914381D02*
X149429345Y-102160317D01*
X149052493Y-102651441D01*
D10*
X144263934Y-115567729D02*
X144292505Y-115539158D01*
X144321077Y-115453444D01*
X144321077Y-115396301D01*
X144292505Y-115310586D01*
X144235362Y-115253444D01*
X144178219Y-115224872D01*
X144063934Y-115196301D01*
X143978219Y-115196301D01*
X143863934Y-115224872D01*
X143806791Y-115253444D01*
X143749648Y-115310586D01*
X143721077Y-115396301D01*
X143721077Y-115453444D01*
X143749648Y-115539158D01*
X143778219Y-115567729D01*
X143721077Y-116110586D02*
X143721077Y-115824872D01*
X144006791Y-115796301D01*
X143978219Y-115824872D01*
X143949648Y-115882015D01*
X143949648Y-116024872D01*
X143978219Y-116082015D01*
X144006791Y-116110586D01*
X144063934Y-116139158D01*
X144206791Y-116139158D01*
X144263934Y-116110586D01*
X144292505Y-116082015D01*
X144321077Y-116024872D01*
X144321077Y-115882015D01*
X144292505Y-115824872D01*
X144263934Y-115796301D01*
X143721077Y-116339158D02*
X143721077Y-116739158D01*
X144321077Y-116482015D01*
D12*
X112165526Y-157039531D02*
X112174316Y-157106298D01*
X112258663Y-157231043D01*
X112334221Y-157289020D01*
X112476546Y-157338208D01*
X112610081Y-157320628D01*
X112705837Y-157274059D01*
X112859570Y-157151933D01*
X112946536Y-157038596D01*
X113024712Y-156858493D01*
X113044911Y-156753947D01*
X113027330Y-156620412D01*
X112942982Y-156495667D01*
X112867425Y-156437690D01*
X112725100Y-156388502D01*
X112658333Y-156397293D01*
X111998514Y-155770951D02*
X112376302Y-156060838D01*
X112124194Y-156467613D01*
X112115404Y-156400846D01*
X112068836Y-156305090D01*
X111879941Y-156160146D01*
X111775395Y-156139948D01*
X111708628Y-156148738D01*
X111612871Y-156195307D01*
X111467928Y-156384201D01*
X111447730Y-156488747D01*
X111456520Y-156555514D01*
X111503089Y-156651270D01*
X111691983Y-156796214D01*
X111796529Y-156816412D01*
X111863296Y-156807622D01*
X110974187Y-156245430D02*
X110823072Y-156129475D01*
X110776503Y-156033719D01*
X110767713Y-155966951D01*
X110779121Y-155795638D01*
X110857297Y-155615535D01*
X111089206Y-155313304D01*
X111184962Y-155266736D01*
X111251730Y-155257945D01*
X111356276Y-155278144D01*
X111507391Y-155394099D01*
X111553960Y-155489855D01*
X111562750Y-155556622D01*
X111542551Y-155661168D01*
X111397608Y-155850062D01*
X111301852Y-155896630D01*
X111235085Y-155905421D01*
X111130539Y-155885223D01*
X110979423Y-155769268D01*
X110932854Y-155673512D01*
X110924065Y-155606744D01*
X110944263Y-155502198D01*
D10*
X141261654Y-111427529D02*
X141290225Y-111398958D01*
X141318797Y-111313244D01*
X141318797Y-111256101D01*
X141290225Y-111170386D01*
X141233082Y-111113244D01*
X141175939Y-111084672D01*
X141061654Y-111056101D01*
X140975939Y-111056101D01*
X140861654Y-111084672D01*
X140804511Y-111113244D01*
X140747368Y-111170386D01*
X140718797Y-111256101D01*
X140718797Y-111313244D01*
X140747368Y-111398958D01*
X140775939Y-111427529D01*
X140718797Y-111941815D02*
X140718797Y-111827529D01*
X140747368Y-111770386D01*
X140775939Y-111741815D01*
X140861654Y-111684672D01*
X140975939Y-111656101D01*
X141204511Y-111656101D01*
X141261654Y-111684672D01*
X141290225Y-111713244D01*
X141318797Y-111770386D01*
X141318797Y-111884672D01*
X141290225Y-111941815D01*
X141261654Y-111970386D01*
X141204511Y-111998958D01*
X141061654Y-111998958D01*
X141004511Y-111970386D01*
X140975939Y-111941815D01*
X140947368Y-111884672D01*
X140947368Y-111770386D01*
X140975939Y-111713244D01*
X141004511Y-111684672D01*
X141061654Y-111656101D01*
X140718797Y-112370387D02*
X140718797Y-112427530D01*
X140747368Y-112484673D01*
X140775939Y-112513244D01*
X140833082Y-112541815D01*
X140947368Y-112570387D01*
X141090225Y-112570387D01*
X141204511Y-112541815D01*
X141261654Y-112513244D01*
X141290225Y-112484673D01*
X141318797Y-112427530D01*
X141318797Y-112370387D01*
X141290225Y-112313244D01*
X141261654Y-112284673D01*
X141204511Y-112256101D01*
X141090225Y-112227530D01*
X140947368Y-112227530D01*
X140833082Y-112256101D01*
X140775939Y-112284673D01*
X140747368Y-112313244D01*
X140718797Y-112370387D01*
X147725518Y-108064225D02*
X147754089Y-108092796D01*
X147839803Y-108121368D01*
X147896946Y-108121368D01*
X147982661Y-108092796D01*
X148039803Y-108035653D01*
X148068375Y-107978510D01*
X148096946Y-107864225D01*
X148096946Y-107778510D01*
X148068375Y-107664225D01*
X148039803Y-107607082D01*
X147982661Y-107549939D01*
X147896946Y-107521368D01*
X147839803Y-107521368D01*
X147754089Y-107549939D01*
X147725518Y-107578510D01*
X147211232Y-107521368D02*
X147325518Y-107521368D01*
X147382661Y-107549939D01*
X147411232Y-107578510D01*
X147468375Y-107664225D01*
X147496946Y-107778510D01*
X147496946Y-108007082D01*
X147468375Y-108064225D01*
X147439803Y-108092796D01*
X147382661Y-108121368D01*
X147268375Y-108121368D01*
X147211232Y-108092796D01*
X147182661Y-108064225D01*
X147154089Y-108007082D01*
X147154089Y-107864225D01*
X147182661Y-107807082D01*
X147211232Y-107778510D01*
X147268375Y-107749939D01*
X147382661Y-107749939D01*
X147439803Y-107778510D01*
X147468375Y-107807082D01*
X147496946Y-107864225D01*
X146582660Y-108121368D02*
X146925517Y-108121368D01*
X146754089Y-108121368D02*
X146754089Y-107521368D01*
X146811232Y-107607082D01*
X146868374Y-107664225D01*
X146925517Y-107692796D01*
X143127277Y-115499569D02*
X142841562Y-115299569D01*
X143127277Y-115156712D02*
X142527277Y-115156712D01*
X142527277Y-115385284D01*
X142555848Y-115442426D01*
X142584419Y-115470998D01*
X142641562Y-115499569D01*
X142727277Y-115499569D01*
X142784419Y-115470998D01*
X142812991Y-115442426D01*
X142841562Y-115385284D01*
X142841562Y-115156712D01*
X142727277Y-116013855D02*
X143127277Y-116013855D01*
X142498705Y-115870998D02*
X142927277Y-115728141D01*
X142927277Y-116099569D01*
X143127277Y-116356713D02*
X143127277Y-116470998D01*
X143098705Y-116528141D01*
X143070134Y-116556713D01*
X142984419Y-116613855D01*
X142870134Y-116642427D01*
X142641562Y-116642427D01*
X142584419Y-116613855D01*
X142555848Y-116585284D01*
X142527277Y-116528141D01*
X142527277Y-116413855D01*
X142555848Y-116356713D01*
X142584419Y-116328141D01*
X142641562Y-116299570D01*
X142784419Y-116299570D01*
X142841562Y-116328141D01*
X142870134Y-116356713D01*
X142898705Y-116413855D01*
X142898705Y-116528141D01*
X142870134Y-116585284D01*
X142841562Y-116613855D01*
X142784419Y-116642427D01*
X143477797Y-111351329D02*
X143192082Y-111151329D01*
X143477797Y-111008472D02*
X142877797Y-111008472D01*
X142877797Y-111237044D01*
X142906368Y-111294186D01*
X142934939Y-111322758D01*
X142992082Y-111351329D01*
X143077797Y-111351329D01*
X143134939Y-111322758D01*
X143163511Y-111294186D01*
X143192082Y-111237044D01*
X143192082Y-111008472D01*
X142877797Y-111865615D02*
X142877797Y-111751329D01*
X142906368Y-111694186D01*
X142934939Y-111665615D01*
X143020654Y-111608472D01*
X143134939Y-111579901D01*
X143363511Y-111579901D01*
X143420654Y-111608472D01*
X143449225Y-111637044D01*
X143477797Y-111694186D01*
X143477797Y-111808472D01*
X143449225Y-111865615D01*
X143420654Y-111894186D01*
X143363511Y-111922758D01*
X143220654Y-111922758D01*
X143163511Y-111894186D01*
X143134939Y-111865615D01*
X143106368Y-111808472D01*
X143106368Y-111694186D01*
X143134939Y-111637044D01*
X143163511Y-111608472D01*
X143220654Y-111579901D01*
X143077797Y-112437044D02*
X143477797Y-112437044D01*
X142849225Y-112294187D02*
X143277797Y-112151330D01*
X143277797Y-112522758D01*
X145731618Y-107981668D02*
X145931618Y-107695953D01*
X146074475Y-107981668D02*
X146074475Y-107381668D01*
X145845903Y-107381668D01*
X145788761Y-107410239D01*
X145760189Y-107438810D01*
X145731618Y-107495953D01*
X145731618Y-107581668D01*
X145760189Y-107638810D01*
X145788761Y-107667382D01*
X145845903Y-107695953D01*
X146074475Y-107695953D01*
X145217332Y-107381668D02*
X145331618Y-107381668D01*
X145388761Y-107410239D01*
X145417332Y-107438810D01*
X145474475Y-107524525D01*
X145503046Y-107638810D01*
X145503046Y-107867382D01*
X145474475Y-107924525D01*
X145445903Y-107953096D01*
X145388761Y-107981668D01*
X145274475Y-107981668D01*
X145217332Y-107953096D01*
X145188761Y-107924525D01*
X145160189Y-107867382D01*
X145160189Y-107724525D01*
X145188761Y-107667382D01*
X145217332Y-107638810D01*
X145274475Y-107610239D01*
X145388761Y-107610239D01*
X145445903Y-107638810D01*
X145474475Y-107667382D01*
X145503046Y-107724525D01*
X144617332Y-107381668D02*
X144903046Y-107381668D01*
X144931617Y-107667382D01*
X144903046Y-107638810D01*
X144845903Y-107610239D01*
X144703046Y-107610239D01*
X144645903Y-107638810D01*
X144617332Y-107667382D01*
X144588760Y-107724525D01*
X144588760Y-107867382D01*
X144617332Y-107924525D01*
X144645903Y-107953096D01*
X144703046Y-107981668D01*
X144845903Y-107981668D01*
X144903046Y-107953096D01*
X144931617Y-107924525D01*
X145448837Y-115511849D02*
X145163122Y-115311849D01*
X145448837Y-115168992D02*
X144848837Y-115168992D01*
X144848837Y-115397564D01*
X144877408Y-115454706D01*
X144905979Y-115483278D01*
X144963122Y-115511849D01*
X145048837Y-115511849D01*
X145105979Y-115483278D01*
X145134551Y-115454706D01*
X145163122Y-115397564D01*
X145163122Y-115168992D01*
X144848837Y-116026135D02*
X144848837Y-115911849D01*
X144877408Y-115854706D01*
X144905979Y-115826135D01*
X144991694Y-115768992D01*
X145105979Y-115740421D01*
X145334551Y-115740421D01*
X145391694Y-115768992D01*
X145420265Y-115797564D01*
X145448837Y-115854706D01*
X145448837Y-115968992D01*
X145420265Y-116026135D01*
X145391694Y-116054706D01*
X145334551Y-116083278D01*
X145191694Y-116083278D01*
X145134551Y-116054706D01*
X145105979Y-116026135D01*
X145077408Y-115968992D01*
X145077408Y-115854706D01*
X145105979Y-115797564D01*
X145134551Y-115768992D01*
X145191694Y-115740421D01*
X144848837Y-116283278D02*
X144848837Y-116683278D01*
X145448837Y-116426135D01*
X142380517Y-111397049D02*
X142094802Y-111197049D01*
X142380517Y-111054192D02*
X141780517Y-111054192D01*
X141780517Y-111282764D01*
X141809088Y-111339906D01*
X141837659Y-111368478D01*
X141894802Y-111397049D01*
X141980517Y-111397049D01*
X142037659Y-111368478D01*
X142066231Y-111339906D01*
X142094802Y-111282764D01*
X142094802Y-111054192D01*
X141780517Y-111911335D02*
X141780517Y-111797049D01*
X141809088Y-111739906D01*
X141837659Y-111711335D01*
X141923374Y-111654192D01*
X142037659Y-111625621D01*
X142266231Y-111625621D01*
X142323374Y-111654192D01*
X142351945Y-111682764D01*
X142380517Y-111739906D01*
X142380517Y-111854192D01*
X142351945Y-111911335D01*
X142323374Y-111939906D01*
X142266231Y-111968478D01*
X142123374Y-111968478D01*
X142066231Y-111939906D01*
X142037659Y-111911335D01*
X142009088Y-111854192D01*
X142009088Y-111739906D01*
X142037659Y-111682764D01*
X142066231Y-111654192D01*
X142123374Y-111625621D01*
X142380517Y-112254193D02*
X142380517Y-112368478D01*
X142351945Y-112425621D01*
X142323374Y-112454193D01*
X142237659Y-112511335D01*
X142123374Y-112539907D01*
X141894802Y-112539907D01*
X141837659Y-112511335D01*
X141809088Y-112482764D01*
X141780517Y-112425621D01*
X141780517Y-112311335D01*
X141809088Y-112254193D01*
X141837659Y-112225621D01*
X141894802Y-112197050D01*
X142037659Y-112197050D01*
X142094802Y-112225621D01*
X142123374Y-112254193D01*
X142151945Y-112311335D01*
X142151945Y-112425621D01*
X142123374Y-112482764D01*
X142094802Y-112511335D01*
X142037659Y-112539907D01*
X145792578Y-111966928D02*
X145992578Y-111681213D01*
X146135435Y-111966928D02*
X146135435Y-111366928D01*
X145906863Y-111366928D01*
X145849721Y-111395499D01*
X145821149Y-111424070D01*
X145792578Y-111481213D01*
X145792578Y-111566928D01*
X145821149Y-111624070D01*
X145849721Y-111652642D01*
X145906863Y-111681213D01*
X146135435Y-111681213D01*
X145592578Y-111366928D02*
X145192578Y-111366928D01*
X145449721Y-111966928D01*
X144849720Y-111366928D02*
X144792577Y-111366928D01*
X144735434Y-111395499D01*
X144706863Y-111424070D01*
X144678292Y-111481213D01*
X144649720Y-111595499D01*
X144649720Y-111738356D01*
X144678292Y-111852642D01*
X144706863Y-111909785D01*
X144735434Y-111938356D01*
X144792577Y-111966928D01*
X144849720Y-111966928D01*
X144906863Y-111938356D01*
X144935434Y-111909785D01*
X144964006Y-111852642D01*
X144992577Y-111738356D01*
X144992577Y-111595499D01*
X144964006Y-111481213D01*
X144935434Y-111424070D01*
X144906863Y-111395499D01*
X144849720Y-111366928D01*
D12*
X135772469Y-115869418D02*
X135772469Y-115393227D01*
X134772469Y-115393227D01*
X134867707Y-116155132D02*
X134820088Y-116202751D01*
X134772469Y-116297989D01*
X134772469Y-116536085D01*
X134820088Y-116631323D01*
X134867707Y-116678942D01*
X134962945Y-116726561D01*
X135058183Y-116726561D01*
X135201040Y-116678942D01*
X135772469Y-116107513D01*
X135772469Y-116726561D01*
D15*
X112103802Y-113899665D02*
X112103802Y-114709189D01*
X112060945Y-114804427D01*
X112018088Y-114852046D01*
X111932374Y-114899665D01*
X111760945Y-114899665D01*
X111675231Y-114852046D01*
X111632374Y-114804427D01*
X111589517Y-114709189D01*
X111589517Y-113899665D01*
X111118088Y-114899665D02*
X110946660Y-114899665D01*
X110860945Y-114852046D01*
X110818088Y-114804427D01*
X110732374Y-114661570D01*
X110689517Y-114471094D01*
X110689517Y-114090141D01*
X110732374Y-113994903D01*
X110775231Y-113947284D01*
X110860945Y-113899665D01*
X111032374Y-113899665D01*
X111118088Y-113947284D01*
X111160945Y-113994903D01*
X111203802Y-114090141D01*
X111203802Y-114328236D01*
X111160945Y-114423474D01*
X111118088Y-114471094D01*
X111032374Y-114518713D01*
X110860945Y-114518713D01*
X110775231Y-114471094D01*
X110732374Y-114423474D01*
X110689517Y-114328236D01*
X112188669Y-110027724D02*
X112188669Y-109599153D01*
X111188669Y-109599153D01*
X112141050Y-110284867D02*
X112188669Y-110413438D01*
X112188669Y-110627724D01*
X112141050Y-110713438D01*
X112093431Y-110756295D01*
X111998193Y-110799152D01*
X111902955Y-110799152D01*
X111807717Y-110756295D01*
X111760098Y-110713438D01*
X111712478Y-110627724D01*
X111664859Y-110456295D01*
X111617240Y-110370581D01*
X111569621Y-110327724D01*
X111474383Y-110284867D01*
X111379145Y-110284867D01*
X111283907Y-110327724D01*
X111236288Y-110370581D01*
X111188669Y-110456295D01*
X111188669Y-110670581D01*
X111236288Y-110799152D01*
X112188669Y-111184867D02*
X111188669Y-111184867D01*
X111902955Y-111484867D01*
X111188669Y-111784867D01*
X112188669Y-111784867D01*
X111188669Y-112127723D02*
X111188669Y-112684866D01*
X111569621Y-112384866D01*
X111569621Y-112513438D01*
X111617240Y-112599152D01*
X111664859Y-112642009D01*
X111760098Y-112684866D01*
X111998193Y-112684866D01*
X112093431Y-112642009D01*
X112141050Y-112599152D01*
X112188669Y-112513438D01*
X112188669Y-112256295D01*
X112141050Y-112170581D01*
X112093431Y-112127723D01*
X111188669Y-112984866D02*
X111188669Y-113542009D01*
X111569621Y-113242009D01*
X111569621Y-113370581D01*
X111617240Y-113456295D01*
X111664859Y-113499152D01*
X111760098Y-113542009D01*
X111998193Y-113542009D01*
X112093431Y-113499152D01*
X112141050Y-113456295D01*
X112188669Y-113370581D01*
X112188669Y-113113438D01*
X112141050Y-113027724D01*
X112093431Y-112984866D01*
X111188669Y-114099152D02*
X111188669Y-114184867D01*
X111236288Y-114270581D01*
X111283907Y-114313438D01*
X111379145Y-114356295D01*
X111569621Y-114399152D01*
X111807717Y-114399152D01*
X111998193Y-114356295D01*
X112093431Y-114313438D01*
X112141050Y-114270581D01*
X112188669Y-114184867D01*
X112188669Y-114099152D01*
X112141050Y-114013438D01*
X112093431Y-113970581D01*
X111998193Y-113927724D01*
X111807717Y-113884867D01*
X111569621Y-113884867D01*
X111379145Y-113927724D01*
X111283907Y-113970581D01*
X111236288Y-114013438D01*
X111188669Y-114099152D01*
D12*
X150916821Y-111093505D02*
X150916821Y-111807791D01*
X150964441Y-111950648D01*
X151059679Y-112045886D01*
X151202536Y-112093505D01*
X151297774Y-112093505D01*
X150440631Y-112093505D02*
X150440631Y-111093505D01*
X150059678Y-111093505D01*
X149964440Y-111141124D01*
X149916821Y-111188743D01*
X149869202Y-111283981D01*
X149869202Y-111426838D01*
X149916821Y-111522076D01*
X149964440Y-111569695D01*
X150059678Y-111617314D01*
X150440631Y-111617314D01*
X148916821Y-112093505D02*
X149488250Y-112093505D01*
X149202536Y-112093505D02*
X149202536Y-111093505D01*
X149297774Y-111236362D01*
X149393012Y-111331600D01*
X149488250Y-111379219D01*
X139802673Y-99784825D02*
X139802673Y-100594349D01*
X139755054Y-100689587D01*
X139707435Y-100737206D01*
X139612197Y-100784825D01*
X139421720Y-100784825D01*
X139326482Y-100737206D01*
X139278863Y-100689587D01*
X139231244Y-100594349D01*
X139231244Y-99784825D01*
X138326482Y-99784825D02*
X138516959Y-99784825D01*
X138612197Y-99832444D01*
X138659816Y-99880063D01*
X138755054Y-100022920D01*
X138802673Y-100213396D01*
X138802673Y-100594349D01*
X138755054Y-100689587D01*
X138707435Y-100737206D01*
X138612197Y-100784825D01*
X138421720Y-100784825D01*
X138326482Y-100737206D01*
X138278863Y-100689587D01*
X138231244Y-100594349D01*
X138231244Y-100356254D01*
X138278863Y-100261015D01*
X138326482Y-100213396D01*
X138421720Y-100165777D01*
X138612197Y-100165777D01*
X138707435Y-100213396D01*
X138755054Y-100261015D01*
X138802673Y-100356254D01*
X112416836Y-92595198D02*
X112758956Y-93328876D01*
X112756048Y-93435316D01*
X112733015Y-93498598D01*
X112666825Y-93582005D01*
X112494194Y-93662504D01*
X112387754Y-93659595D01*
X112324472Y-93636563D01*
X112241065Y-93570372D01*
X111898946Y-92836694D01*
X111415256Y-94165620D02*
X111933147Y-93924124D01*
X111674202Y-94044872D02*
X111251584Y-93138564D01*
X111398273Y-93227787D01*
X111524837Y-93273853D01*
X111631277Y-93276761D01*
X110983682Y-94366867D02*
X110811052Y-94447366D01*
X110704611Y-94444458D01*
X110641329Y-94421425D01*
X110494640Y-94332202D01*
X110370984Y-94179697D01*
X110209986Y-93834436D01*
X110212894Y-93727997D01*
X110235927Y-93664714D01*
X110302118Y-93581308D01*
X110474748Y-93500809D01*
X110581188Y-93503717D01*
X110644470Y-93526750D01*
X110727877Y-93592940D01*
X110828500Y-93808727D01*
X110825592Y-93915167D01*
X110802560Y-93978450D01*
X110736369Y-94061857D01*
X110563739Y-94142356D01*
X110457299Y-94139448D01*
X110394016Y-94116414D01*
X110310610Y-94050224D01*
X137023574Y-158499152D02*
X137333365Y-159247054D01*
X137325817Y-159353266D01*
X137300046Y-159415483D01*
X137230280Y-159495923D01*
X137054303Y-159568816D01*
X136948091Y-159561267D01*
X136885874Y-159535496D01*
X136805434Y-159465731D01*
X136495642Y-158717828D01*
X136136140Y-158969823D02*
X136073923Y-158944052D01*
X135967712Y-158936504D01*
X135747740Y-159027619D01*
X135677974Y-159108060D01*
X135652203Y-159170277D01*
X135644655Y-159276488D01*
X135681101Y-159364477D01*
X135779764Y-159478236D01*
X136526372Y-159787492D01*
X135954446Y-160024391D01*
X134999838Y-159337410D02*
X134911849Y-159373857D01*
X134842083Y-159454297D01*
X134816312Y-159516514D01*
X134808764Y-159622726D01*
X134837662Y-159816926D01*
X134928777Y-160036898D01*
X135045663Y-160194651D01*
X135126103Y-160264417D01*
X135188321Y-160290188D01*
X135294532Y-160297736D01*
X135382521Y-160261290D01*
X135452287Y-160180850D01*
X135478058Y-160118633D01*
X135485606Y-160012421D01*
X135456708Y-159818221D01*
X135365593Y-159598249D01*
X135248707Y-159440495D01*
X135168267Y-159370730D01*
X135106049Y-159344959D01*
X134999838Y-159337410D01*
X150539352Y-98020768D02*
X150046545Y-98663007D01*
X149950789Y-98709575D01*
X149884022Y-98718366D01*
X149779476Y-98698167D01*
X149628360Y-98582212D01*
X149581792Y-98486456D01*
X149573002Y-98419689D01*
X149593200Y-98315143D01*
X150086007Y-97672904D01*
X149688022Y-97487564D02*
X149679231Y-97420797D01*
X149632663Y-97325041D01*
X149443768Y-97180097D01*
X149339222Y-97159899D01*
X149272455Y-97168689D01*
X149176699Y-97215258D01*
X149118722Y-97290815D01*
X149069535Y-97433140D01*
X149175016Y-98234349D01*
X148683892Y-97857496D01*
X147928318Y-97277723D02*
X148381663Y-97625587D01*
X148154991Y-97451656D02*
X148763752Y-96658302D01*
X148752344Y-96829616D01*
X148769924Y-96963150D01*
X148816492Y-97058906D01*
X105314544Y-151888572D02*
X104821737Y-152530811D01*
X104725981Y-152577379D01*
X104659214Y-152586170D01*
X104554668Y-152565971D01*
X104403552Y-152450016D01*
X104356984Y-152354260D01*
X104348194Y-152287493D01*
X104368392Y-152182947D01*
X104861199Y-151540708D01*
X104463214Y-151355368D02*
X104454423Y-151288601D01*
X104407855Y-151192845D01*
X104218960Y-151047901D01*
X104114414Y-151027703D01*
X104047647Y-151036493D01*
X103951891Y-151083062D01*
X103893914Y-151158619D01*
X103844727Y-151300944D01*
X103950208Y-152102153D01*
X103459084Y-151725300D01*
X103707639Y-150775595D02*
X103698849Y-150708828D01*
X103652280Y-150613072D01*
X103463386Y-150468128D01*
X103358840Y-150447930D01*
X103292073Y-150456720D01*
X103196317Y-150503289D01*
X103138339Y-150578846D01*
X103089152Y-150721171D01*
X103194633Y-151522380D01*
X102703510Y-151145527D01*
X111806489Y-91014503D02*
X112148609Y-91748181D01*
X112145701Y-91854621D01*
X112122668Y-91917903D01*
X112056478Y-92001310D01*
X111883847Y-92081809D01*
X111777407Y-92078900D01*
X111714125Y-92055868D01*
X111630718Y-91989677D01*
X111288599Y-91255999D01*
X110804909Y-92584925D02*
X111322800Y-92343429D01*
X111063855Y-92464177D02*
X110641237Y-91557869D01*
X110787926Y-91647092D01*
X110914490Y-91693158D01*
X111020930Y-91696066D01*
X109941759Y-92987419D02*
X110459650Y-92745923D01*
X110200705Y-92866671D02*
X109778086Y-91960363D01*
X109924775Y-92049586D01*
X110051340Y-92095652D01*
X110157779Y-92098560D01*
X145303974Y-158682032D02*
X145613765Y-159429934D01*
X145606217Y-159536146D01*
X145580446Y-159598363D01*
X145510680Y-159678803D01*
X145334703Y-159751696D01*
X145228491Y-159744147D01*
X145166274Y-159718376D01*
X145085834Y-159648611D01*
X144776042Y-158900708D01*
X144234846Y-160207271D02*
X144762778Y-159988595D01*
X144498812Y-160097933D02*
X144116129Y-159174053D01*
X144258787Y-159269590D01*
X144383221Y-159321132D01*
X144489432Y-159328680D01*
X143536655Y-159517164D02*
X143474438Y-159491393D01*
X143368226Y-159483844D01*
X143148254Y-159574960D01*
X143078489Y-159655400D01*
X143052718Y-159717617D01*
X143045170Y-159823829D01*
X143081616Y-159911817D01*
X143180279Y-160025577D01*
X143926887Y-160334832D01*
X143354961Y-160571731D01*
X115976706Y-153623304D02*
X116618945Y-154116111D01*
X116665513Y-154211867D01*
X116674304Y-154278634D01*
X116654105Y-154383180D01*
X116538150Y-154534296D01*
X116442394Y-154580864D01*
X116375627Y-154589654D01*
X116271081Y-154569456D01*
X115628842Y-154076649D01*
X115813434Y-155478764D02*
X116161298Y-155025419D01*
X115987366Y-155252091D02*
X115194013Y-154643329D01*
X115365326Y-154654738D01*
X115498861Y-154637158D01*
X115594617Y-154590589D01*
X114817160Y-155134453D02*
X114411319Y-155663356D01*
X115465571Y-155932108D01*
X153137337Y-95331667D02*
X153779576Y-95824474D01*
X153826144Y-95920230D01*
X153834935Y-95986997D01*
X153814736Y-96091543D01*
X153698781Y-96242659D01*
X153603025Y-96289227D01*
X153536258Y-96298017D01*
X153431712Y-96277819D01*
X152789473Y-95785012D01*
X152974065Y-97187127D02*
X153321929Y-96733782D01*
X153147997Y-96960454D02*
X152354644Y-96351692D01*
X152525957Y-96363101D01*
X152659492Y-96345521D01*
X152755248Y-96298952D01*
X152172857Y-97292607D02*
X152193055Y-97188061D01*
X152184265Y-97121294D01*
X152137696Y-97025538D01*
X152099918Y-96996549D01*
X151995372Y-96976351D01*
X151928604Y-96985141D01*
X151832848Y-97031710D01*
X151716893Y-97182825D01*
X151696695Y-97287371D01*
X151705485Y-97354138D01*
X151752054Y-97449894D01*
X151789832Y-97478883D01*
X151894378Y-97499082D01*
X151961146Y-97490291D01*
X152056902Y-97443723D01*
X152172857Y-97292607D01*
X152268613Y-97246038D01*
X152335380Y-97237248D01*
X152439927Y-97257447D01*
X152591041Y-97373402D01*
X152637610Y-97469158D01*
X152646400Y-97535925D01*
X152626202Y-97640471D01*
X152510247Y-97791587D01*
X152414491Y-97838155D01*
X152347724Y-97846945D01*
X152243178Y-97826747D01*
X152092063Y-97710793D01*
X152045493Y-97615036D01*
X152036703Y-97548269D01*
X152056902Y-97443723D01*
X163581183Y-128999665D02*
X163581183Y-129809189D01*
X163533564Y-129904427D01*
X163485945Y-129952046D01*
X163390707Y-129999665D01*
X163200230Y-129999665D01*
X163104992Y-129952046D01*
X163057373Y-129904427D01*
X163009754Y-129809189D01*
X163009754Y-128999665D01*
X162009754Y-129999665D02*
X162581183Y-129999665D01*
X162295469Y-129999665D02*
X162295469Y-128999665D01*
X162390707Y-129142522D01*
X162485945Y-129237760D01*
X162581183Y-129285379D01*
X161104992Y-128999665D02*
X161581183Y-128999665D01*
X161628802Y-129475855D01*
X161581183Y-129428236D01*
X161485945Y-129380617D01*
X161247849Y-129380617D01*
X161152611Y-129428236D01*
X161104992Y-129475855D01*
X161057373Y-129571094D01*
X161057373Y-129809189D01*
X161104992Y-129904427D01*
X161152611Y-129952046D01*
X161247849Y-129999665D01*
X161485945Y-129999665D01*
X161581183Y-129952046D01*
X161628802Y-129904427D01*
X134445469Y-115904427D02*
X133969278Y-115571093D01*
X134445469Y-115332998D02*
X133445469Y-115332998D01*
X133445469Y-115713951D01*
X133493088Y-115809189D01*
X133540707Y-115856808D01*
X133635945Y-115904427D01*
X133778802Y-115904427D01*
X133874040Y-115856808D01*
X133921659Y-115809189D01*
X133969278Y-115713951D01*
X133969278Y-115332998D01*
X133540707Y-116285379D02*
X133493088Y-116332998D01*
X133445469Y-116428236D01*
X133445469Y-116666332D01*
X133493088Y-116761570D01*
X133540707Y-116809189D01*
X133635945Y-116856808D01*
X133731183Y-116856808D01*
X133874040Y-116809189D01*
X134445469Y-116237760D01*
X134445469Y-116856808D01*
X133445469Y-117761570D02*
X133445469Y-117285379D01*
X133921659Y-117237760D01*
X133874040Y-117285379D01*
X133826421Y-117380617D01*
X133826421Y-117618713D01*
X133874040Y-117713951D01*
X133921659Y-117761570D01*
X134016898Y-117809189D01*
X134254993Y-117809189D01*
X134350231Y-117761570D01*
X134397850Y-117713951D01*
X134445469Y-117618713D01*
X134445469Y-117380617D01*
X134397850Y-117285379D01*
X134350231Y-117237760D01*
X133170469Y-115904427D02*
X132694278Y-115571093D01*
X133170469Y-115332998D02*
X132170469Y-115332998D01*
X132170469Y-115713951D01*
X132218088Y-115809189D01*
X132265707Y-115856808D01*
X132360945Y-115904427D01*
X132503802Y-115904427D01*
X132599040Y-115856808D01*
X132646659Y-115809189D01*
X132694278Y-115713951D01*
X132694278Y-115332998D01*
X132265707Y-116285379D02*
X132218088Y-116332998D01*
X132170469Y-116428236D01*
X132170469Y-116666332D01*
X132218088Y-116761570D01*
X132265707Y-116809189D01*
X132360945Y-116856808D01*
X132456183Y-116856808D01*
X132599040Y-116809189D01*
X133170469Y-116237760D01*
X133170469Y-116856808D01*
X132170469Y-117713951D02*
X132170469Y-117523474D01*
X132218088Y-117428236D01*
X132265707Y-117380617D01*
X132408564Y-117285379D01*
X132599040Y-117237760D01*
X132979993Y-117237760D01*
X133075231Y-117285379D01*
X133122850Y-117332998D01*
X133170469Y-117428236D01*
X133170469Y-117618713D01*
X133122850Y-117713951D01*
X133075231Y-117761570D01*
X132979993Y-117809189D01*
X132741898Y-117809189D01*
X132646659Y-117761570D01*
X132599040Y-117713951D01*
X132551421Y-117618713D01*
X132551421Y-117428236D01*
X132599040Y-117332998D01*
X132646659Y-117285379D01*
X132741898Y-117237760D01*
X133245469Y-88129427D02*
X132769278Y-87796093D01*
X133245469Y-87557998D02*
X132245469Y-87557998D01*
X132245469Y-87938951D01*
X132293088Y-88034189D01*
X132340707Y-88081808D01*
X132435945Y-88129427D01*
X132578802Y-88129427D01*
X132674040Y-88081808D01*
X132721659Y-88034189D01*
X132769278Y-87938951D01*
X132769278Y-87557998D01*
X132578802Y-88986570D02*
X133245469Y-88986570D01*
X132197850Y-88748474D02*
X132912136Y-88510379D01*
X132912136Y-89129427D01*
X132245469Y-89986570D02*
X132245469Y-89510379D01*
X132721659Y-89462760D01*
X132674040Y-89510379D01*
X132626421Y-89605617D01*
X132626421Y-89843713D01*
X132674040Y-89938951D01*
X132721659Y-89986570D01*
X132816898Y-90034189D01*
X133054993Y-90034189D01*
X133150231Y-89986570D01*
X133197850Y-89938951D01*
X133245469Y-89843713D01*
X133245469Y-89605617D01*
X133197850Y-89510379D01*
X133150231Y-89462760D01*
X135695469Y-88129427D02*
X135219278Y-87796093D01*
X135695469Y-87557998D02*
X134695469Y-87557998D01*
X134695469Y-87938951D01*
X134743088Y-88034189D01*
X134790707Y-88081808D01*
X134885945Y-88129427D01*
X135028802Y-88129427D01*
X135124040Y-88081808D01*
X135171659Y-88034189D01*
X135219278Y-87938951D01*
X135219278Y-87557998D01*
X134695469Y-88986570D02*
X134695469Y-88796093D01*
X134743088Y-88700855D01*
X134790707Y-88653236D01*
X134933564Y-88557998D01*
X135124040Y-88510379D01*
X135504993Y-88510379D01*
X135600231Y-88557998D01*
X135647850Y-88605617D01*
X135695469Y-88700855D01*
X135695469Y-88891332D01*
X135647850Y-88986570D01*
X135600231Y-89034189D01*
X135504993Y-89081808D01*
X135266898Y-89081808D01*
X135171659Y-89034189D01*
X135124040Y-88986570D01*
X135076421Y-88891332D01*
X135076421Y-88700855D01*
X135124040Y-88605617D01*
X135171659Y-88557998D01*
X135266898Y-88510379D01*
X134695469Y-89938951D02*
X134695469Y-89748474D01*
X134743088Y-89653236D01*
X134790707Y-89605617D01*
X134933564Y-89510379D01*
X135124040Y-89462760D01*
X135504993Y-89462760D01*
X135600231Y-89510379D01*
X135647850Y-89557998D01*
X135695469Y-89653236D01*
X135695469Y-89843713D01*
X135647850Y-89938951D01*
X135600231Y-89986570D01*
X135504993Y-90034189D01*
X135266898Y-90034189D01*
X135171659Y-89986570D01*
X135124040Y-89938951D01*
X135076421Y-89843713D01*
X135076421Y-89653236D01*
X135124040Y-89557998D01*
X135171659Y-89510379D01*
X135266898Y-89462760D01*
X136945469Y-88129427D02*
X136469278Y-87796093D01*
X136945469Y-87557998D02*
X135945469Y-87557998D01*
X135945469Y-87938951D01*
X135993088Y-88034189D01*
X136040707Y-88081808D01*
X136135945Y-88129427D01*
X136278802Y-88129427D01*
X136374040Y-88081808D01*
X136421659Y-88034189D01*
X136469278Y-87938951D01*
X136469278Y-87557998D01*
X135945469Y-88986570D02*
X135945469Y-88796093D01*
X135993088Y-88700855D01*
X136040707Y-88653236D01*
X136183564Y-88557998D01*
X136374040Y-88510379D01*
X136754993Y-88510379D01*
X136850231Y-88557998D01*
X136897850Y-88605617D01*
X136945469Y-88700855D01*
X136945469Y-88891332D01*
X136897850Y-88986570D01*
X136850231Y-89034189D01*
X136754993Y-89081808D01*
X136516898Y-89081808D01*
X136421659Y-89034189D01*
X136374040Y-88986570D01*
X136326421Y-88891332D01*
X136326421Y-88700855D01*
X136374040Y-88605617D01*
X136421659Y-88557998D01*
X136516898Y-88510379D01*
X136374040Y-89653236D02*
X136326421Y-89557998D01*
X136278802Y-89510379D01*
X136183564Y-89462760D01*
X136135945Y-89462760D01*
X136040707Y-89510379D01*
X135993088Y-89557998D01*
X135945469Y-89653236D01*
X135945469Y-89843713D01*
X135993088Y-89938951D01*
X136040707Y-89986570D01*
X136135945Y-90034189D01*
X136183564Y-90034189D01*
X136278802Y-89986570D01*
X136326421Y-89938951D01*
X136374040Y-89843713D01*
X136374040Y-89653236D01*
X136421659Y-89557998D01*
X136469278Y-89510379D01*
X136564517Y-89462760D01*
X136754993Y-89462760D01*
X136850231Y-89510379D01*
X136897850Y-89557998D01*
X136945469Y-89653236D01*
X136945469Y-89843713D01*
X136897850Y-89938951D01*
X136850231Y-89986570D01*
X136754993Y-90034189D01*
X136564517Y-90034189D01*
X136469278Y-89986570D01*
X136421659Y-89938951D01*
X136374040Y-89843713D01*
X138170469Y-88129427D02*
X137694278Y-87796093D01*
X138170469Y-87557998D02*
X137170469Y-87557998D01*
X137170469Y-87938951D01*
X137218088Y-88034189D01*
X137265707Y-88081808D01*
X137360945Y-88129427D01*
X137503802Y-88129427D01*
X137599040Y-88081808D01*
X137646659Y-88034189D01*
X137694278Y-87938951D01*
X137694278Y-87557998D01*
X137170469Y-88462760D02*
X137170469Y-89129427D01*
X138170469Y-88700855D01*
X138170469Y-90034189D02*
X138170469Y-89462760D01*
X138170469Y-89748474D02*
X137170469Y-89748474D01*
X137313326Y-89653236D01*
X137408564Y-89557998D01*
X137456183Y-89462760D01*
X139395469Y-88129427D02*
X138919278Y-87796093D01*
X139395469Y-87557998D02*
X138395469Y-87557998D01*
X138395469Y-87938951D01*
X138443088Y-88034189D01*
X138490707Y-88081808D01*
X138585945Y-88129427D01*
X138728802Y-88129427D01*
X138824040Y-88081808D01*
X138871659Y-88034189D01*
X138919278Y-87938951D01*
X138919278Y-87557998D01*
X138395469Y-88462760D02*
X138395469Y-89129427D01*
X139395469Y-88700855D01*
X138728802Y-89938951D02*
X139395469Y-89938951D01*
X138347850Y-89700855D02*
X139062136Y-89462760D01*
X139062136Y-90081808D01*
X140620469Y-88129427D02*
X140144278Y-87796093D01*
X140620469Y-87557998D02*
X139620469Y-87557998D01*
X139620469Y-87938951D01*
X139668088Y-88034189D01*
X139715707Y-88081808D01*
X139810945Y-88129427D01*
X139953802Y-88129427D01*
X140049040Y-88081808D01*
X140096659Y-88034189D01*
X140144278Y-87938951D01*
X140144278Y-87557998D01*
X139620469Y-88462760D02*
X139620469Y-89129427D01*
X140620469Y-88700855D01*
X139620469Y-89986570D02*
X139620469Y-89510379D01*
X140096659Y-89462760D01*
X140049040Y-89510379D01*
X140001421Y-89605617D01*
X140001421Y-89843713D01*
X140049040Y-89938951D01*
X140096659Y-89986570D01*
X140191898Y-90034189D01*
X140429993Y-90034189D01*
X140525231Y-89986570D01*
X140572850Y-89938951D01*
X140620469Y-89843713D01*
X140620469Y-89605617D01*
X140572850Y-89510379D01*
X140525231Y-89462760D01*
X141845469Y-88129427D02*
X141369278Y-87796093D01*
X141845469Y-87557998D02*
X140845469Y-87557998D01*
X140845469Y-87938951D01*
X140893088Y-88034189D01*
X140940707Y-88081808D01*
X141035945Y-88129427D01*
X141178802Y-88129427D01*
X141274040Y-88081808D01*
X141321659Y-88034189D01*
X141369278Y-87938951D01*
X141369278Y-87557998D01*
X140845469Y-88462760D02*
X140845469Y-89129427D01*
X141845469Y-88700855D01*
X140845469Y-89938951D02*
X140845469Y-89748474D01*
X140893088Y-89653236D01*
X140940707Y-89605617D01*
X141083564Y-89510379D01*
X141274040Y-89462760D01*
X141654993Y-89462760D01*
X141750231Y-89510379D01*
X141797850Y-89557998D01*
X141845469Y-89653236D01*
X141845469Y-89843713D01*
X141797850Y-89938951D01*
X141750231Y-89986570D01*
X141654993Y-90034189D01*
X141416898Y-90034189D01*
X141321659Y-89986570D01*
X141274040Y-89938951D01*
X141226421Y-89843713D01*
X141226421Y-89653236D01*
X141274040Y-89557998D01*
X141321659Y-89510379D01*
X141416898Y-89462760D01*
M02*
