G04 #@! TF.FileFunction,Soldermask,Bot*
%FSLAX46Y46*%
G04 Gerber Fmt 4.6, Leading zero omitted, Abs format (unit mm)*
G04 Created by KiCad (PCBNEW 4.0.5) date 10/25/17 11:24:36*
%MOMM*%
%LPD*%
G01*
G04 APERTURE LIST*
%ADD10C,0.100000*%
%ADD11C,2.540000*%
%ADD12R,0.700000X0.500000*%
%ADD13R,0.600000X0.700000*%
%ADD14C,2.100000*%
%ADD15R,1.100000X1.100000*%
%ADD16O,1.100000X1.100000*%
%ADD17R,1.350000X1.100000*%
%ADD18R,0.700000X0.600000*%
%ADD19R,0.900000X1.000000*%
%ADD20R,0.500000X0.700000*%
%ADD21R,2.700000X1.600000*%
%ADD22C,1.624000*%
%ADD23R,1.300000X1.000000*%
%ADD24R,0.900000X0.850000*%
%ADD25R,2.000000X0.950000*%
%ADD26R,0.500000X0.340000*%
%ADD27R,0.340000X0.500000*%
%ADD28R,1.450000X1.450000*%
%ADD29C,1.450000*%
%ADD30C,8.609000*%
%ADD31R,1.300000X1.800000*%
%ADD32O,1.300000X1.800000*%
%ADD33O,1.800000X1.100000*%
%ADD34O,1.500000X1.100000*%
%ADD35R,1.100000X0.350000*%
%ADD36R,0.350000X1.100000*%
%ADD37R,5.000000X5.000000*%
%ADD38C,1.000000*%
%ADD39R,2.900000X2.900000*%
%ADD40R,0.900000X0.400000*%
%ADD41R,0.400000X0.900000*%
G04 APERTURE END LIST*
D10*
D11*
X170688000Y-170688000D03*
X149018088Y-93597284D03*
D12*
X135368088Y-88322284D03*
X135368088Y-89222284D03*
D13*
X124293088Y-108672284D03*
X124293088Y-109772284D03*
D14*
X153750000Y-127000000D03*
X163750000Y-127000000D03*
D15*
X121198088Y-88652284D03*
D16*
X121198088Y-89922284D03*
X122468088Y-88652284D03*
X122468088Y-89922284D03*
X123738088Y-88652284D03*
X123738088Y-89922284D03*
X125008088Y-88652284D03*
X125008088Y-89922284D03*
X126278088Y-88652284D03*
X126278088Y-89922284D03*
D12*
X159513168Y-137129844D03*
X159513168Y-136229844D03*
D17*
X165192608Y-131914044D03*
X165192608Y-129914044D03*
D12*
X159218528Y-129276164D03*
X159218528Y-128376164D03*
D13*
X140239894Y-114475654D03*
X140239894Y-113375654D03*
D18*
X140279857Y-104308885D03*
X141379857Y-104308885D03*
X140284937Y-105182645D03*
X141384937Y-105182645D03*
X140310337Y-107275605D03*
X141410337Y-107275605D03*
X140300177Y-108047765D03*
X141400177Y-108047765D03*
X140305257Y-103369085D03*
X141405257Y-103369085D03*
D13*
X132478337Y-97665605D03*
X132478337Y-96565605D03*
D18*
X121409448Y-107195524D03*
X120309448Y-107195524D03*
X121389128Y-104492964D03*
X120289128Y-104492964D03*
D13*
X133768088Y-112897284D03*
X133768088Y-113997284D03*
D10*
G36*
X114712241Y-102091943D02*
X114482631Y-101537615D01*
X115129347Y-101269737D01*
X115358957Y-101824065D01*
X114712241Y-102091943D01*
X114712241Y-102091943D01*
G37*
G36*
X115728509Y-101670991D02*
X115498899Y-101116663D01*
X116145615Y-100848785D01*
X116375225Y-101403113D01*
X115728509Y-101670991D01*
X115728509Y-101670991D01*
G37*
D18*
X108311008Y-111784684D03*
X109411008Y-111784684D03*
X109389328Y-112678764D03*
X108289328Y-112678764D03*
D19*
X117700248Y-113851484D03*
X115800248Y-113851484D03*
X116750248Y-111851484D03*
D12*
X125461928Y-104376124D03*
X125461928Y-105276124D03*
D20*
X124993088Y-102372284D03*
X125893088Y-102372284D03*
D10*
G36*
X109339648Y-97036704D02*
X109974063Y-96740872D01*
X110185372Y-97194026D01*
X109550957Y-97489858D01*
X109339648Y-97036704D01*
X109339648Y-97036704D01*
G37*
G36*
X109720004Y-97852382D02*
X110354419Y-97556550D01*
X110565728Y-98009704D01*
X109931313Y-98305536D01*
X109720004Y-97852382D01*
X109720004Y-97852382D01*
G37*
D12*
X121168088Y-91297284D03*
X121168088Y-92197284D03*
D10*
G36*
X142718991Y-158586761D02*
X142451113Y-157940045D01*
X142913053Y-157748703D01*
X143180931Y-158395419D01*
X142718991Y-158586761D01*
X142718991Y-158586761D01*
G37*
G36*
X143550483Y-158242345D02*
X143282605Y-157595629D01*
X143744545Y-157404287D01*
X144012423Y-158051003D01*
X143550483Y-158242345D01*
X143550483Y-158242345D01*
G37*
G36*
X114272328Y-94344304D02*
X114906743Y-94048472D01*
X115118052Y-94501626D01*
X114483637Y-94797458D01*
X114272328Y-94344304D01*
X114272328Y-94344304D01*
G37*
G36*
X114652684Y-95159982D02*
X115287099Y-94864150D01*
X115498408Y-95317304D01*
X114863993Y-95613136D01*
X114652684Y-95159982D01*
X114652684Y-95159982D01*
G37*
G36*
X137880865Y-159856047D02*
X138148743Y-160502763D01*
X137686803Y-160694105D01*
X137418925Y-160047389D01*
X137880865Y-159856047D01*
X137880865Y-159856047D01*
G37*
G36*
X137049373Y-160200463D02*
X137317251Y-160847179D01*
X136855311Y-161038521D01*
X136587433Y-160391805D01*
X137049373Y-160200463D01*
X137049373Y-160200463D01*
G37*
D20*
X114944728Y-112587324D03*
X114044728Y-112587324D03*
X154653728Y-135455564D03*
X155553728Y-135455564D03*
D10*
G36*
X116145252Y-100226765D02*
X115329575Y-100607121D01*
X114906956Y-99700813D01*
X115722633Y-99320457D01*
X116145252Y-100226765D01*
X116145252Y-100226765D01*
G37*
G36*
X114423267Y-101029740D02*
X113607590Y-101410096D01*
X113184971Y-100503788D01*
X114000648Y-100123432D01*
X114423267Y-101029740D01*
X114423267Y-101029740D01*
G37*
G36*
X114439023Y-98815637D02*
X113623346Y-99195993D01*
X113200727Y-98289685D01*
X114016404Y-97909329D01*
X114439023Y-98815637D01*
X114439023Y-98815637D01*
G37*
D21*
X123374048Y-106769924D03*
X123374048Y-104369924D03*
D22*
X112768088Y-116347284D03*
D18*
X140310337Y-106076725D03*
X141410337Y-106076725D03*
D10*
G36*
X141771989Y-154840437D02*
X142326317Y-154610827D01*
X142594195Y-155257543D01*
X142039867Y-155487153D01*
X141771989Y-154840437D01*
X141771989Y-154840437D01*
G37*
G36*
X142192941Y-155856705D02*
X142747269Y-155627095D01*
X143015147Y-156273811D01*
X142460819Y-156503421D01*
X142192941Y-155856705D01*
X142192941Y-155856705D01*
G37*
G36*
X143571442Y-98612405D02*
X143936699Y-98136392D01*
X144492046Y-98562525D01*
X144126789Y-99038538D01*
X143571442Y-98612405D01*
X143571442Y-98612405D01*
G37*
G36*
X144444130Y-99282043D02*
X144809387Y-98806030D01*
X145364734Y-99232163D01*
X144999477Y-99708176D01*
X144444130Y-99282043D01*
X144444130Y-99282043D01*
G37*
D13*
X125393088Y-108122284D03*
X125393088Y-109222284D03*
D23*
X126268088Y-91697284D03*
X126268088Y-94997284D03*
D12*
X122468088Y-91297284D03*
X122468088Y-92197284D03*
X121168088Y-92997284D03*
X121168088Y-93897284D03*
X122468088Y-92997284D03*
X122468088Y-93897284D03*
D13*
X139249294Y-113395974D03*
X139249294Y-114495974D03*
D12*
X138187574Y-114451854D03*
X138187574Y-113551854D03*
D18*
X109405928Y-110870284D03*
X108305928Y-110870284D03*
D10*
G36*
X138274095Y-152258385D02*
X138503705Y-152812713D01*
X137856989Y-153080591D01*
X137627379Y-152526263D01*
X138274095Y-152258385D01*
X138274095Y-152258385D01*
G37*
G36*
X137257827Y-152679337D02*
X137487437Y-153233665D01*
X136840721Y-153501543D01*
X136611111Y-152947215D01*
X137257827Y-152679337D01*
X137257827Y-152679337D01*
G37*
D13*
X133343088Y-97672284D03*
X133343088Y-96572284D03*
D10*
G36*
X111443137Y-100061215D02*
X110899352Y-100314786D01*
X110603519Y-99680371D01*
X111147304Y-99426800D01*
X111443137Y-100061215D01*
X111443137Y-100061215D01*
G37*
G36*
X110978257Y-99064277D02*
X110434472Y-99317848D01*
X110138639Y-98683433D01*
X110682424Y-98429862D01*
X110978257Y-99064277D01*
X110978257Y-99064277D01*
G37*
G36*
X106554169Y-147822850D02*
X106078156Y-147457593D01*
X106504289Y-146902246D01*
X106980302Y-147267503D01*
X106554169Y-147822850D01*
X106554169Y-147822850D01*
G37*
G36*
X107223807Y-146950162D02*
X106747794Y-146584905D01*
X107173927Y-146029558D01*
X107649940Y-146394815D01*
X107223807Y-146950162D01*
X107223807Y-146950162D01*
G37*
G36*
X148022207Y-104470078D02*
X148498220Y-104835335D01*
X148072087Y-105390682D01*
X147596074Y-105025425D01*
X148022207Y-104470078D01*
X148022207Y-104470078D01*
G37*
G36*
X147352569Y-105342766D02*
X147828582Y-105708023D01*
X147402449Y-106263370D01*
X146926436Y-105898113D01*
X147352569Y-105342766D01*
X147352569Y-105342766D01*
G37*
D24*
X155867568Y-127139604D03*
X157367568Y-127139604D03*
X160083968Y-127147284D03*
X161583968Y-127147284D03*
D18*
X162524248Y-136309004D03*
X163624248Y-136309004D03*
X160746248Y-135328564D03*
X161846248Y-135328564D03*
D13*
X162810088Y-132226044D03*
X162810088Y-131126044D03*
X163770208Y-132215884D03*
X163770208Y-131115884D03*
X161910928Y-131136204D03*
X161910928Y-132236204D03*
D18*
X154713928Y-131884324D03*
X153613928Y-131884324D03*
D23*
X152883768Y-136757044D03*
X152883768Y-140057044D03*
X155398368Y-136706244D03*
X155398368Y-140006244D03*
D17*
X167041728Y-129919124D03*
X167041728Y-131919124D03*
D22*
X110218088Y-90697284D03*
X142068088Y-163397284D03*
X150393088Y-95997284D03*
D20*
X118718088Y-111347284D03*
X117818088Y-111347284D03*
X155589288Y-134398924D03*
X154689288Y-134398924D03*
D12*
X155672688Y-131897444D03*
X155672688Y-130997444D03*
D20*
X155772168Y-130131724D03*
X154872168Y-130131724D03*
X154070368Y-130131724D03*
X153170368Y-130131724D03*
D12*
X158156808Y-129276164D03*
X158156808Y-128376164D03*
X159518248Y-138811324D03*
X159518248Y-137911324D03*
D20*
X161649728Y-136293764D03*
X160749728Y-136293764D03*
D12*
X157222088Y-136722604D03*
X157222088Y-137622604D03*
X157237328Y-138602204D03*
X157237328Y-139502204D03*
D20*
X158478968Y-139829444D03*
X159378968Y-139829444D03*
D10*
G36*
X136795931Y-154091490D02*
X137627423Y-153747075D01*
X138010107Y-154670954D01*
X137178615Y-155015369D01*
X136795931Y-154091490D01*
X136795931Y-154091490D01*
G37*
G36*
X138551302Y-153364391D02*
X139382794Y-153019976D01*
X139765478Y-153943855D01*
X138933986Y-154288270D01*
X138551302Y-153364391D01*
X138551302Y-153364391D01*
G37*
G36*
X138438983Y-155575700D02*
X139270475Y-155231285D01*
X139653159Y-156155164D01*
X138821667Y-156499579D01*
X138438983Y-155575700D01*
X138438983Y-155575700D01*
G37*
G36*
X109155696Y-148023348D02*
X109869714Y-148571233D01*
X109260952Y-149364586D01*
X108546934Y-148816701D01*
X109155696Y-148023348D01*
X109155696Y-148023348D01*
G37*
G36*
X110663067Y-149179995D02*
X111377085Y-149727880D01*
X110768323Y-150521233D01*
X110054305Y-149973348D01*
X110663067Y-149179995D01*
X110663067Y-149179995D01*
G37*
G36*
X108691859Y-150188378D02*
X109405877Y-150736263D01*
X108797115Y-151529616D01*
X108083097Y-150981731D01*
X108691859Y-150188378D01*
X108691859Y-150188378D01*
G37*
G36*
X145520240Y-104930936D02*
X144806222Y-104383051D01*
X145414984Y-103589698D01*
X146129002Y-104137583D01*
X145520240Y-104930936D01*
X145520240Y-104930936D01*
G37*
G36*
X144012869Y-103774289D02*
X143298851Y-103226404D01*
X143907613Y-102433051D01*
X144621631Y-102980936D01*
X144012869Y-103774289D01*
X144012869Y-103774289D01*
G37*
G36*
X145984077Y-102765906D02*
X145270059Y-102218021D01*
X145878821Y-101424668D01*
X146592839Y-101972553D01*
X145984077Y-102765906D01*
X145984077Y-102765906D01*
G37*
D13*
X143998848Y-114496844D03*
X143998848Y-113396844D03*
D10*
G36*
X110691854Y-154998323D02*
X110326597Y-155474336D01*
X109771250Y-155048203D01*
X110136507Y-154572190D01*
X110691854Y-154998323D01*
X110691854Y-154998323D01*
G37*
G36*
X109819166Y-154328685D02*
X109453909Y-154804698D01*
X108898562Y-154378565D01*
X109263819Y-153902552D01*
X109819166Y-154328685D01*
X109819166Y-154328685D01*
G37*
D13*
X140991488Y-110407444D03*
X140991488Y-109307444D03*
D18*
X144910203Y-109831139D03*
X146010203Y-109831139D03*
D12*
X142850768Y-114308364D03*
X142850768Y-113408364D03*
X143165728Y-110353164D03*
X143165728Y-109453164D03*
D20*
X144959403Y-108713539D03*
X145859403Y-108713539D03*
D13*
X145192648Y-113381604D03*
X145192648Y-114481604D03*
X142012568Y-109307444D03*
X142012568Y-110407444D03*
D18*
X146020363Y-110806499D03*
X144920363Y-110806499D03*
D22*
X128166535Y-166266711D03*
X125626535Y-166266711D03*
X123086535Y-166266711D03*
D25*
X135193088Y-114297284D03*
X135193088Y-112847284D03*
D26*
X110511288Y-110577724D03*
D27*
X111136288Y-110502724D03*
X111536288Y-110502724D03*
X111936288Y-110502724D03*
X112336288Y-110502724D03*
D26*
X112961288Y-110577724D03*
X112961288Y-110977724D03*
X112961288Y-111377724D03*
X112961288Y-111777724D03*
X112961288Y-112177724D03*
X112961288Y-112577724D03*
X112961288Y-112977724D03*
X112961288Y-113377724D03*
D27*
X112336288Y-113452724D03*
X111936288Y-113452724D03*
X111536288Y-113452724D03*
X111136288Y-113452724D03*
D26*
X110511288Y-113377724D03*
X110511288Y-112977724D03*
X110511288Y-112577724D03*
X110511288Y-112177724D03*
X110511288Y-111777724D03*
X110511288Y-111377724D03*
X110511288Y-110977724D03*
D28*
X154402688Y-112622484D03*
D29*
X154402688Y-114622484D03*
D30*
X103073200Y-158648400D03*
X150926800Y-158648400D03*
X156531208Y-100634800D03*
X97358200Y-100634800D03*
D31*
X139868088Y-126747284D03*
D32*
X141868088Y-126747284D03*
D33*
X77306248Y-122797764D03*
X77306248Y-131247764D03*
X79056248Y-122797764D03*
X79056248Y-131247764D03*
D34*
X80456248Y-130622764D03*
X80456248Y-123422764D03*
D31*
X111868088Y-126747284D03*
D32*
X113868088Y-126747284D03*
D35*
X138291258Y-101326286D03*
X138291258Y-101826286D03*
X138291258Y-102326286D03*
X138291258Y-102826286D03*
X138291258Y-103326286D03*
X138291258Y-103826286D03*
X138291258Y-104326286D03*
X138291258Y-104826286D03*
X138291258Y-105326286D03*
X138291258Y-105826286D03*
X138291258Y-106326286D03*
X138291258Y-106826286D03*
X138291258Y-107326286D03*
X138291258Y-107826286D03*
X138291258Y-108326286D03*
X138291258Y-108826286D03*
X127191258Y-108826286D03*
X127191258Y-108326286D03*
X127191258Y-107826286D03*
X127191258Y-107326286D03*
X127191258Y-106826286D03*
X127191258Y-106326286D03*
X127191258Y-105826286D03*
X127191258Y-105326286D03*
X127191258Y-104826286D03*
X127191258Y-104326286D03*
X127191258Y-103826286D03*
X127191258Y-103326286D03*
X127191258Y-102826286D03*
X127191258Y-102326286D03*
X127191258Y-101826286D03*
X127191258Y-101326286D03*
D36*
X136491258Y-110626286D03*
X135991258Y-110626286D03*
X135491258Y-110626286D03*
X134991258Y-110626286D03*
X134491258Y-110626286D03*
X133991258Y-110626286D03*
X133491258Y-110626286D03*
X132991258Y-110626286D03*
X132491258Y-110626286D03*
X131991258Y-110626286D03*
X131491258Y-110626286D03*
X130991258Y-110626286D03*
X130491258Y-110626286D03*
X129991258Y-110626286D03*
X129491258Y-110626286D03*
X128991258Y-110626286D03*
X128991258Y-99526286D03*
X129491258Y-99526286D03*
X129991258Y-99526286D03*
X130491258Y-99526286D03*
X130991258Y-99526286D03*
X131491258Y-99526286D03*
X131991258Y-99526286D03*
X132491258Y-99526286D03*
X132991258Y-99526286D03*
X133491258Y-99526286D03*
X133991258Y-99526286D03*
X134491258Y-99526286D03*
X134991258Y-99526286D03*
X135491258Y-99526286D03*
X135991258Y-99526286D03*
X136491258Y-99526286D03*
D37*
X132741258Y-105076286D03*
D10*
G36*
X113714396Y-94332188D02*
X114031359Y-95011919D01*
X112980042Y-95502156D01*
X112663079Y-94822425D01*
X113714396Y-94332188D01*
X113714396Y-94332188D01*
G37*
G36*
X114115884Y-95193180D02*
X114432847Y-95872911D01*
X113381530Y-96363148D01*
X113064567Y-95683417D01*
X114115884Y-95193180D01*
X114115884Y-95193180D01*
G37*
G36*
X114517371Y-96054172D02*
X114834334Y-96733903D01*
X113783017Y-97224140D01*
X113466054Y-96544409D01*
X114517371Y-96054172D01*
X114517371Y-96054172D01*
G37*
G36*
X112523494Y-96983932D02*
X112840457Y-97663663D01*
X111789140Y-98153900D01*
X111472177Y-97474169D01*
X112523494Y-96983932D01*
X112523494Y-96983932D01*
G37*
G36*
X111720519Y-95261948D02*
X112037482Y-95941679D01*
X110986165Y-96431916D01*
X110669202Y-95752185D01*
X111720519Y-95261948D01*
X111720519Y-95261948D01*
G37*
G36*
X112122006Y-96122940D02*
X112438969Y-96802671D01*
X111387652Y-97292908D01*
X111070689Y-96613177D01*
X112122006Y-96122940D01*
X112122006Y-96122940D01*
G37*
G36*
X138976146Y-160197852D02*
X138689134Y-159504943D01*
X139760834Y-159061030D01*
X140047846Y-159753939D01*
X138976146Y-160197852D01*
X138976146Y-160197852D01*
G37*
G36*
X138612597Y-159320167D02*
X138325585Y-158627258D01*
X139397285Y-158183345D01*
X139684297Y-158876254D01*
X138612597Y-159320167D01*
X138612597Y-159320167D01*
G37*
G36*
X138249047Y-158442481D02*
X137962035Y-157749572D01*
X139033735Y-157305659D01*
X139320747Y-157998568D01*
X138249047Y-158442481D01*
X138249047Y-158442481D01*
G37*
G36*
X140281582Y-157600578D02*
X139994570Y-156907669D01*
X141066270Y-156463756D01*
X141353282Y-157156665D01*
X140281582Y-157600578D01*
X140281582Y-157600578D01*
G37*
G36*
X141008681Y-159355949D02*
X140721669Y-158663040D01*
X141793369Y-158219127D01*
X142080381Y-158912036D01*
X141008681Y-159355949D01*
X141008681Y-159355949D01*
G37*
G36*
X140645131Y-158478263D02*
X140358119Y-157785354D01*
X141429819Y-157341441D01*
X141716831Y-158034350D01*
X140645131Y-158478263D01*
X140645131Y-158478263D01*
G37*
G36*
X149597770Y-99973770D02*
X149141199Y-100568785D01*
X148220910Y-99862622D01*
X148677481Y-99267607D01*
X149597770Y-99973770D01*
X149597770Y-99973770D01*
G37*
G36*
X149019447Y-100727456D02*
X148562876Y-101322471D01*
X147642587Y-100616308D01*
X148099158Y-100021293D01*
X149019447Y-100727456D01*
X149019447Y-100727456D01*
G37*
G36*
X148441123Y-101481141D02*
X147984552Y-102076156D01*
X147064263Y-101369993D01*
X147520834Y-100774978D01*
X148441123Y-101481141D01*
X148441123Y-101481141D01*
G37*
G36*
X146695746Y-100141866D02*
X146239175Y-100736881D01*
X145318886Y-100030718D01*
X145775457Y-99435703D01*
X146695746Y-100141866D01*
X146695746Y-100141866D01*
G37*
G36*
X147852393Y-98634495D02*
X147395822Y-99229510D01*
X146475533Y-98523347D01*
X146932104Y-97928332D01*
X147852393Y-98634495D01*
X147852393Y-98634495D01*
G37*
G36*
X147274069Y-99388180D02*
X146817498Y-99983195D01*
X145897209Y-99277032D01*
X146353780Y-98682017D01*
X147274069Y-99388180D01*
X147274069Y-99388180D01*
G37*
G36*
X104612846Y-153629798D02*
X105069417Y-153034783D01*
X105989706Y-153740946D01*
X105533135Y-154335961D01*
X104612846Y-153629798D01*
X104612846Y-153629798D01*
G37*
G36*
X105191169Y-152876112D02*
X105647740Y-152281097D01*
X106568029Y-152987260D01*
X106111458Y-153582275D01*
X105191169Y-152876112D01*
X105191169Y-152876112D01*
G37*
G36*
X105769493Y-152122427D02*
X106226064Y-151527412D01*
X107146353Y-152233575D01*
X106689782Y-152828590D01*
X105769493Y-152122427D01*
X105769493Y-152122427D01*
G37*
G36*
X107514870Y-153461702D02*
X107971441Y-152866687D01*
X108891730Y-153572850D01*
X108435159Y-154167865D01*
X107514870Y-153461702D01*
X107514870Y-153461702D01*
G37*
G36*
X106358223Y-154969073D02*
X106814794Y-154374058D01*
X107735083Y-155080221D01*
X107278512Y-155675236D01*
X106358223Y-154969073D01*
X106358223Y-154969073D01*
G37*
G36*
X106936547Y-154215388D02*
X107393118Y-153620373D01*
X108313407Y-154326536D01*
X107856836Y-154921551D01*
X106936547Y-154215388D01*
X106936547Y-154215388D01*
G37*
D22*
X117445688Y-154221084D03*
D38*
X111541303Y-93375392D02*
X111794873Y-93919176D01*
X110390292Y-93912117D02*
X110643862Y-94455901D01*
D10*
G36*
X112704040Y-94046914D02*
X112027850Y-92596822D01*
X112934158Y-92174204D01*
X113610348Y-93624296D01*
X112704040Y-94046914D01*
X112704040Y-94046914D01*
G37*
D38*
X141131693Y-161259728D02*
X140902083Y-160705400D01*
X142305020Y-160773720D02*
X142075410Y-160219392D01*
D10*
G36*
X139999354Y-160538127D02*
X140611648Y-162016334D01*
X139687768Y-162399017D01*
X139075474Y-160920810D01*
X139999354Y-160538127D01*
X139999354Y-160538127D01*
G37*
D38*
X114483294Y-154037952D02*
X114007282Y-153672696D01*
X115256421Y-153030394D02*
X114780409Y-152665138D01*
D10*
G36*
X113141859Y-153979197D02*
X114411224Y-154953215D01*
X113802463Y-155746569D01*
X112533098Y-154772551D01*
X113141859Y-153979197D01*
X113141859Y-153979197D01*
G37*
D38*
X149443157Y-97436151D02*
X149077901Y-97912163D01*
X148435599Y-96663024D02*
X148070343Y-97139036D01*
D10*
G36*
X149384402Y-98777586D02*
X150358420Y-97508221D01*
X151151774Y-98116982D01*
X150177756Y-99386347D01*
X149384402Y-98777586D01*
X149384402Y-98777586D01*
G37*
D22*
X118068088Y-125247284D03*
X113868088Y-108347284D03*
X112293088Y-106872284D03*
X115368088Y-109647284D03*
X109843088Y-108697284D03*
X110468088Y-107022284D03*
X115168088Y-91947284D03*
X106943088Y-95197284D03*
X94518088Y-115097284D03*
X100268088Y-109097284D03*
X161318088Y-109597284D03*
X89018088Y-112997284D03*
X144868088Y-161772284D03*
X137743088Y-162922284D03*
X100893088Y-137172284D03*
D39*
X158768088Y-132347284D03*
D40*
X160768088Y-131097284D03*
X160768088Y-131597284D03*
X160768088Y-132097284D03*
X160768088Y-132597284D03*
X160768088Y-133097284D03*
X160768088Y-133597284D03*
X156768088Y-133597284D03*
X156768088Y-133097284D03*
X156768088Y-132597284D03*
X156768088Y-132097284D03*
X156768088Y-131597284D03*
X156768088Y-131097284D03*
D41*
X157518088Y-130347284D03*
X158018088Y-130347284D03*
X158518088Y-130347284D03*
X159018088Y-130347284D03*
X159518088Y-130347284D03*
X160018088Y-130347284D03*
X160018088Y-134347284D03*
X159518088Y-134347284D03*
X159018088Y-134347284D03*
X158518088Y-134347284D03*
X158018088Y-134347284D03*
X157518088Y-134347284D03*
D12*
X132643088Y-116997284D03*
X132643088Y-116097284D03*
X131368088Y-116997284D03*
X131368088Y-116097284D03*
X134143088Y-88322284D03*
X134143088Y-89222284D03*
X136593088Y-88322284D03*
X136593088Y-89222284D03*
X137843088Y-88322284D03*
X137843088Y-89222284D03*
X139068088Y-88322284D03*
X139068088Y-89222284D03*
X140293088Y-88322284D03*
X140293088Y-89222284D03*
X141518088Y-88322284D03*
X141518088Y-89222284D03*
X142743088Y-88322284D03*
X142743088Y-89222284D03*
D11*
X76323088Y-83312000D03*
X110268088Y-162347284D03*
M02*
