G04 CAM350 V9.0.1 (Build 158) Date:  Fri Nov 10 11:31:03 2017 *
G04 Database: F:\Œ‚ø∆\JDB\¥˝»∑»œ\—Ó√∑\G110751-S-P5W38755A-W38755ASP6\G110751-S-P5W38755A-W38755ASP6\G110751-S-P5W38755A-W38755ASP6.cam *
G04 Layer 8: FromC1 *
%FSLAX46Y46*%
%MOMM*%
%SFA1.000B1.000*%

%MIA0B0*%
%IPPOS*%
%AMrect1x1_37*
4,1,4,-0.60793,0.04463,0.11444,0.59873,0.60793,-0.04463,-0.11444,-0.59873,-0.60793,0.04463,0.00000*
%
%AMrect1x1_370*
4,1,4,-0.39767,0.01678,0.08685,0.38843,0.39767,-0.01678,-0.08685,-0.38843,-0.39767,0.01678,0.00000*
%
%AMrect1x1_371*
4,1,4,-0.38843,0.08685,0.01678,0.39767,0.38843,-0.08685,-0.01678,-0.39767,-0.38843,0.08685,0.00000*
%
%AMrect1x1_335*
4,1,4,-0.24133,0.55988,0.58401,0.17501,0.24133,-0.55988,-0.58401,-0.17501,-0.24133,0.55988,0.00000*
%
%AMrect1x1_3350*
4,1,4,-0.11026,0.40162,0.37854,0.17369,0.11026,-0.40162,-0.37854,-0.17369,-0.11026,0.40162,0.00000*
%
%AMrect1x1_3351*
4,1,4,-0.17369,0.37854,0.40162,0.11026,0.17369,-0.37854,-0.40162,-0.11026,-0.17369,0.37854,0.00000*
%
%AMrect0x1_335*
4,1,4,-0.05706,0.36351,0.31515,0.18995,0.05706,-0.36351,-0.31515,-0.18995,-0.05706,0.36351,0.00000*
%
%AMrect1x1_3352*
4,1,4,-0.16884,0.36043,0.38463,0.10234,0.16884,-0.36043,-0.38463,-0.10234,-0.16884,0.36043,0.00000*
%
%AMrect1x1_337*
4,1,4,-0.26566,0.54886,0.57595,0.20025,0.26566,-0.54886,-0.57595,-0.20025,-0.26566,0.54886,0.00000*
%
%AMrect1x0_337*
4,1,4,-0.20352,0.30664,0.36073,0.07292,0.20352,-0.30664,-0.36073,-0.07292,-0.20352,0.30664,0.00000*
%
%AMrect1x1_155*
4,1,4,0.00487,-0.59295,-0.45735,-0.37741,-0.00487,0.59295,0.45735,0.37741,0.00487,-0.59295,0.00000*
%
%AMrect1x1_372*
4,1,4,-0.52813,0.26939,-0.12352,0.57986,0.52813,-0.26939,0.12352,-0.57986,-0.52813,0.26939,0.00000*
%
%AMrect1x1_157*
4,1,4,0.03071,-0.59222,-0.44047,-0.39705,-0.03071,0.59222,0.44047,0.39705,0.03071,-0.59222,0.00000*
%
%ADD889R,1.20998X0.91001*%
%ADD890R,0.91001X1.20998*%
%ADD891R,0.91001X0.81018*%
%ADD892R,0.81018X0.91001*%
%ADD893R,0.40988X0.61017*%
%ADD894R,0.61017X0.40988*%
%ADD895R,1.31010X0.71011*%
%ADD896R,0.71011X1.31010*%
%ADD897R,3.01008X4.01008*%
%ADD898R,1.40988X2.04006*%
%ADD899R,0.61013X0.50996*%
%ADD900R,0.50996X0.61013*%
%ADD903R,1.26002X1.01008*%
%ADD904R,1.01008X1.26002*%
%ADD907R,0.41013X0.46006*%
%ADD908R,1.91010X0.85997*%
%ADD911R,1.70985X2.01008*%
%ADD912R,3.01012X2.01008*%
%ADD914R,0.60993X0.51011*%
%ADD915R,0.61018X0.51011*%
%ADD916R,0.60358X0.50376*%
%ADD918R,0.76015X0.81007*%
%ADD919R,0.70513X0.60505*%
%ADD929R,1.51021X2.61003*%
%ADD932rect1x1_37*%
%ADD933rect1x1_370*%
%ADD934rect1x1_371*%
%ADD937rect1x1_335*%
%ADD938rect1x1_3350*%
%ADD939rect1x1_3351*%
%ADD940rect0x1_335*%
%ADD941rect1x1_3352*%
%ADD942rect1x1_337*%
%ADD944rect1x0_337*%
%ADD994R,0.34000X1.21023*%
%ADD996R,1.07020X0.51000*%
%ADD997R,0.51000X1.07020*%
%ADD998R,0.51000X1.23015*%
%ADD1000O,0.46010X0.23000*%
%ADD1002O,1.26002X0.23000*%
%ADD1004R,0.51000X0.80993*%
%ADD1006O,0.81011X0.23000*%
%ADD1007O,0.23000X0.81011*%
%ADD1010R,1.80000X1.80000*%
%ADD1011O,1.00998X0.23000*%
%ADD1012O,0.23000X1.00998*%
%ADD1013R,2.50000X2.50000*%
%ADD1016R,0.51003X0.19000*%
%ADD1017R,0.19000X0.51003*%
%ADD1073rect1x1_155*%
%ADD1129rect1x1_372*%
%ADD1185rect1x1_157*%
%ADD1189C,1.00000*%
%ADD1190C,0.20000*%
%LNFromC1*%
%LPD*%
G36*
X-46596910Y-12835900D02*
G01Y-12237608D01*
X-46187030*
Y-12835900*
X-46596910*
G37*
G36*
X50693090D02*
G01Y-12237608D01*
X51102970*
Y-12835900*
X50693090*
G37*
G36*
X-47496956D02*
G01Y-12237604D01*
X-47087076*
Y-12835900*
X-47320300*
X-47496956*
G37*
G36*
X49793044D02*
G01Y-12237604D01*
X50202924*
Y-12835900*
X49969700*
X49793044*
G37*
G36*
X-85672066Y53659800D02*
G01Y54136020D01*
X-85061934*
Y53659800*
X-85672066*
G37*
G36*
X-86772088D02*
G01Y54136020D01*
X-86161956*
Y53659800*
X-86461800*
X-86772088*
G37*
G36*
X11617934D02*
G01Y54136020D01*
X12228066*
Y53659800*
X11617934*
G37*
G36*
X10517912D02*
G01Y54136020D01*
X11128044*
Y53659800*
X10828200*
X10517912*
G37*
G36*
X-92343576Y45933624D02*
G01Y46543756D01*
X-91856500*
Y45933624*
X-92343576*
G37*
G36*
X4946424D02*
G01Y46543756D01*
X5433500*
Y45933624*
X4946424*
G37*
G36*
X-92343582Y47033646D02*
G01Y47643778D01*
X-91856500*
Y47293900*
Y47033646*
X-92343582*
G37*
G36*
X4946418D02*
G01Y47643778D01*
X5433500*
Y47293900*
Y47033646*
X4946418*
G37*
G36*
X-91556500Y45943786D02*
G01Y46553918D01*
X-91061464*
Y45943786*
X-91556500*
G37*
G36*
X5733500D02*
G01Y46553918D01*
X6228536*
Y45943786*
X5733500*
G37*
G36*
X-91556500Y47043810D02*
G01Y47293900D01*
Y47653942*
X-91061462*
Y47043810*
X-91556500*
G37*
G36*
X5733500D02*
G01Y47293900D01*
Y47653942*
X6228538*
Y47043810*
X5733500*
G37*
G36*
X-86946966Y51500848D02*
G01Y53359800D01*
X-86461800*
X-86086998*
Y51500848*
X-86946966*
G37*
G36*
X10343034D02*
G01Y53359800D01*
X10828200*
X11203002*
Y51500848*
X10343034*
G37*
G36*
X-85497010Y51500844D02*
G01Y53359800D01*
X-84637042*
Y51500844*
X-85497010*
G37*
G36*
X11792990D02*
G01Y53359800D01*
X12652958*
Y51500844*
X11792990*
G37*
G54D889*
X61596512Y-32559612D03*
G54D890*
X62316982Y-30526724D03*
G54D889*
X61596512Y-35859582D03*
G54D890*
X59017018Y-30526722D03*
X37931968Y32250660D03*
X34632000Y32250658D03*
X37982768Y34765258D03*
X34682800Y34765256D03*
X26923100Y-65417688D03*
X23622876D03*
G54D889*
X22523032Y-68467592D03*
Y-71767816D03*
G54D890*
X-7077086Y61380902D03*
X-10377054Y61380904D03*
G54D891*
X57590044Y-33676196D03*
X57521718Y-30684202D03*
X59590040Y-34626284D03*
X57590042Y-35576244D03*
X55521720Y-29734116D03*
Y-31634162D03*
X50464584Y297194D03*
X50464578Y-1602854D03*
X48647974Y-9967706D03*
X50647968Y-9017626D03*
X50647970Y-10917670D03*
X48464584Y-652766D03*
G54D892*
X40996224Y3608464D03*
X39096304D03*
X40046266Y1608466D03*
X24520134Y-50951376D03*
X25470220Y-52951492D03*
X23570170D03*
G54D891*
X11777198Y71848878D03*
Y69948702D03*
X9777084Y70898792D03*
G54D893*
X55401072Y-33168254D03*
X56301118Y-33168250D03*
X55223272Y-34692252D03*
X56123320Y-34692254D03*
X48994300Y-3116566D03*
X49894220D03*
X49965344Y-4472928D03*
X49065422D03*
X50898032Y-13442684D03*
X49997986Y-13442682D03*
X46158266Y-54846208D03*
X45258344Y-54846202D03*
X36781978Y5458476D03*
X37681902Y5458474D03*
X37666662Y4183394D03*
X36766748D03*
G54D894*
X37755126Y28270100D03*
X34219446Y26899260D03*
X34219448Y25999340D03*
G54D893*
X35837100Y28130776D03*
X36737024Y28130778D03*
X35055542Y28135856D03*
G54D894*
X37755126Y29170022D03*
G54D893*
X37427904Y30411698D03*
X36527982Y30411696D03*
X35548302Y30426940D03*
X34648380Y30426938D03*
X34155622Y28135858D03*
G54D894*
X32324606Y32059778D03*
X33381248Y32095338D03*
X32324606Y32959700D03*
X33381246Y32995256D03*
G54D893*
X29206050Y-69022778D03*
X30052634Y-69012616D03*
X30952682Y-69012620D03*
X26301940Y28430494D03*
X27201864Y28430498D03*
X26301940Y29492218D03*
X27201864D03*
G54D894*
X28057406Y32776820D03*
X28057404Y31876898D03*
G54D893*
X28923218Y31976336D03*
X29823144Y31976338D03*
G54D894*
X28057406Y34478620D03*
X28057408Y33578700D03*
G54D893*
X24474032Y-56174950D03*
X28306128Y-69022778D03*
G54D894*
X26773044Y-69967716D03*
X26773038Y-69067668D03*
X25420886Y-73822166D03*
Y-74722088D03*
G54D893*
X20793824Y-21612846D03*
G54D894*
X21417846Y-35824782D03*
X21417844Y-36724830D03*
G54D893*
X22198062Y-38205214D03*
X21298140D03*
X24280862Y-38256014D03*
X23380938D03*
X22192732Y-54308488D03*
X23092654D03*
G54D894*
X22071572Y-52322208D03*
Y-53222262D03*
X20849070Y-57483488D03*
Y-56583440D03*
G54D893*
X23574106Y-56174950D03*
G54D894*
X20986044Y-73024606D03*
X20986046Y-73924528D03*
X24064526Y-73781528D03*
Y-74681448D03*
X18242846Y-16608158D03*
Y-17508206D03*
X18232684Y-18323164D03*
X18232686Y-19223090D03*
G54D893*
X19893904Y-21612846D03*
G54D894*
X18182138Y-41035336D03*
X18182140Y-41935260D03*
X19705888Y-71867128D03*
X19705886Y-70967208D03*
X19690648Y-73924530D03*
X19690646Y-73024608D03*
G54D893*
X14922994Y56280906D03*
X14922990Y55005938D03*
G54D894*
X15896140Y-41935262D03*
X15896138Y-41035338D03*
G54D893*
X11334104Y44798258D03*
X12234026Y44798254D03*
X11477612Y49461442D03*
X12377536Y49461444D03*
X14022946Y56280904D03*
X14023072Y55005884D03*
G54D894*
X10513046Y72704348D03*
Y73604272D03*
X6639222Y41789628D03*
Y42689672D03*
G54D893*
X7378942Y44483298D03*
X8278864Y44483296D03*
G54D894*
X9273020Y68930924D03*
X9273018Y69830974D03*
G54D893*
X3201788Y62187098D03*
X2301862D03*
G54D894*
X298002Y61755934D03*
X297998Y62655978D03*
G54D893*
X-8177034Y65180928D03*
X-9076954Y65180926D03*
X-9877054Y65180924D03*
X-8177036Y66480968D03*
X-9076954D03*
X-9877056D03*
X-12852028Y44905954D03*
X-13751952D03*
X-12852034Y46130924D03*
X-13751952Y46130928D03*
X-12852032Y47355968D03*
X-13751952D03*
X-12852032Y48580952D03*
X-13751952Y48580950D03*
X-12852030Y49805938D03*
X-13751952D03*
X-12852030Y51055986D03*
X-13751956Y51055984D03*
X-12852030Y52280914D03*
X-13751952D03*
X-12852032Y53505954D03*
X-13751952Y53505956D03*
X-10776980Y65180926D03*
X-10776976Y66480968D03*
G54D895*
X48797958Y-5692632D03*
X48797956Y-7592682D03*
G54D896*
X48001546Y2303794D03*
X46101496D03*
G54D895*
X39837984Y241314D03*
X39837982Y-1658606D03*
G54D897*
X42606708Y-1272780D03*
X46106702D03*
X46106704Y-6872718D03*
X42606710Y-6872716D03*
G54D898*
X46606702Y-56698878D03*
Y-62698870D03*
X42106712Y-56698874D03*
Y-62698870D03*
G54D899*
X43960580Y-54846204D03*
X42860504Y-54846206D03*
G54D900*
X34234744Y24024816D03*
X34234742Y25124738D03*
X33472994Y-56567692D03*
X33472996Y-57667690D03*
G54D899*
X30161928Y25738096D03*
X30151772Y24838938D03*
G54D900*
X33254302Y25802818D03*
X33254304Y26902736D03*
G54D899*
X32222984Y-58984628D03*
X31122994D03*
X29041634Y23878818D03*
X30141610Y23878820D03*
X29061956Y25738098D03*
G54D900*
X29810064Y34035056D03*
Y32935136D03*
X24338906Y-25967726D03*
X24338904Y-24867654D03*
G54D899*
X25672986Y-61092702D03*
X24573012Y-61092704D03*
G54D900*
X25767782Y-70267690D03*
X25772988Y-69167692D03*
G54D899*
X20951888Y-20424128D03*
G54D900*
X22433906Y-25967726D03*
X23399104Y-25467756D03*
X22433906Y-27067698D03*
X21373072Y-27667698D03*
Y-26567670D03*
G54D899*
X23001514Y-28717734D03*
X24101492Y-28717738D03*
G54D900*
X23399102Y-26567676D03*
G54D899*
X21383688Y-33810942D03*
X20283718Y-31728144D03*
X21383688Y-31728140D03*
X21383692Y-32769544D03*
X22722114Y-33861742D03*
X23822092D03*
X22747514Y-31702744D03*
X23822092Y-30686744D03*
X22722116Y-30686742D03*
X20486916Y-30483540D03*
X21586888Y-30483542D03*
X20283716Y-34826944D03*
X21383692Y-34826940D03*
G54D900*
X20849072Y-59713306D03*
X20849070Y-58613330D03*
G54D899*
X19851916Y-20424126D03*
G54D900*
X20273000Y-28167696D03*
X20272996Y-27067700D03*
X17039070Y-42035260D03*
Y-40935334D03*
X19599264Y-75455816D03*
Y-76555790D03*
G54D899*
X14843034Y-61133218D03*
X13743116Y-61133214D03*
X12407328Y42456378D03*
X11307354D03*
X11322596Y43650178D03*
X12422570Y43650176D03*
X12421654Y48399724D03*
X11321734D03*
X11301414Y47409122D03*
X12401332Y47409124D03*
G54D900*
X10604484Y79359732D03*
X10604486Y78259710D03*
X11407634Y-57934134D03*
X11407636Y-56834214D03*
X8732256Y42728716D03*
Y41628642D03*
X7756894Y41638802D03*
X7756892Y42738872D03*
G54D899*
X8333170Y45636458D03*
X7233196D03*
Y46657536D03*
X8333168Y46657538D03*
X7148004Y62255932D03*
X6048036Y62255930D03*
X7698016Y63356006D03*
X6597940D03*
G54D900*
X8796008Y79343068D03*
X8796010Y78243152D03*
X9710404Y78238068D03*
X9710408Y79337990D03*
X4002518Y46238690D03*
Y47338720D03*
X3108438Y46264092D03*
X3108440Y47364114D03*
X2234680Y46269172D03*
X2234678Y47369196D03*
X2418702Y67359856D03*
Y66259938D03*
X5121264Y67339540D03*
Y66239620D03*
X1294880Y46243774D03*
X1294878Y47343796D03*
G54D899*
X-5501954Y54305986D03*
X-5508714Y55170596D03*
X-4408642Y55170602D03*
G54D903*
X28772982Y-61817616D03*
Y-63817612D03*
G54D904*
X29844862Y20607344D03*
X27844866Y20607342D03*
X27839786Y22456464D03*
X29839782Y22456466D03*
G54D907*
X24694504Y-75486698D03*
X25094424Y-76491636D03*
X24294452D03*
G54D908*
X21839466Y-76698842D03*
Y-75249010D03*
G54D911*
X21272996Y-45017676D03*
X21272994Y-49017666D03*
G54D912*
X28316524Y-23141162D03*
Y-40681132D03*
G54D914*
X23847414Y-31702740D03*
G54D915*
X20283666Y-32769544D03*
G54D916*
Y-33811070D03*
G54D918*
X25072964Y26065054D03*
X25072962Y27565064D03*
X25065344Y30281452D03*
Y31781462D03*
G54D919*
X29051748Y24838936D03*
G54D929*
X2295640Y64274978D03*
X4695558D03*
G54D914*
X-4401956Y54305984D03*
G54D932*
X2186040Y42181422D03*
X47776372Y76933324D03*
X21068Y41717620D03*
X1029456Y43688784D03*
X48784814Y78904538D03*
X46619660Y78440682D03*
G54D933*
X3728646Y40271550D03*
X2856150Y39601844D03*
G54D934*
X52279346Y78290114D03*
X52948894Y77417524D03*
X-2817066Y42744588D03*
X-3486796Y43617286D03*
G54D933*
X44415634Y80450126D03*
X45288126Y81119826D03*
G54D937*
X-2110502Y72122944D03*
X-3521596Y73829186D03*
X-1307604Y73844936D03*
G54D938*
X-814444Y71712018D03*
G54D939*
X52974664Y45465870D03*
X53991014Y45044946D03*
G54D938*
X-393352Y72728172D03*
X51016248Y50599692D03*
X50595162Y49583540D03*
G54D940*
X-6835614Y72573516D03*
X-7651304Y72953800D03*
X-4143210Y77506196D03*
X-4958902Y77886476D03*
G54D941*
X-3200414Y77090544D03*
X-2203462Y76625726D03*
G54D942*
X53791218Y48603048D03*
X51579850Y48490542D03*
X52306970Y50245922D03*
G54D944*
X55748970Y44001566D03*
X56093300Y44832948D03*
X58545208Y50696772D03*
X58200782Y49865174D03*
G54D994*
X25598490Y-77829524D03*
X26248476Y-77829528D03*
X23648530Y-77829526D03*
X24298518Y-77829524D03*
X24948502Y-77829528D03*
G54D996*
X28773744Y-66584434D03*
X28773746Y-67534394D03*
X30973726Y-67534396D03*
X28773744Y-65634350D03*
X30973726D03*
X22167112Y-59568452D03*
X24367100Y-59568448D03*
X22167114Y-58618488D03*
Y-57668400D03*
X24367096D03*
G54D997*
X19726264Y-15377364D03*
X21626182Y-15377362D03*
X20676222Y-15377360D03*
X19726266Y-13177378D03*
X21626182Y-13177382D03*
X20676226Y-13177380D03*
G54D998*
X12784316Y-59506346D03*
X13734404Y-59506342D03*
X14684364Y-59506344D03*
X14684362Y-56886334D03*
X13734402Y-56886336D03*
X12784314Y-56886334D03*
G54D1000*
X32532526Y-56700532D03*
X32532522Y-57700532D03*
X31132512Y-56700536D03*
X31132510Y-57700534D03*
X31132512Y-57200408D03*
G54D1002*
X26091504Y-38161076D03*
X26091500Y-38661198D03*
X26091506Y-39161072D03*
X26091502Y-37161076D03*
X26091504Y-37661076D03*
X26091502Y-34161082D03*
X26091500Y-34661080D03*
X26091504Y-35161080D03*
Y-35661078D03*
Y-36161078D03*
X26091506Y-36661078D03*
X26091500Y-30661090D03*
X26091502Y-31161088D03*
X26091506Y-31661086D03*
X26091504Y-32161088D03*
X26091502Y-32661086D03*
Y-33161088D03*
X26091504Y-33661082D03*
Y-30161090D03*
Y-27661094D03*
X26091502Y-28161094D03*
X26091504Y-28661092D03*
Y-29161092D03*
Y-29661090D03*
X26091502Y-26161098D03*
X26091506Y-26661096D03*
X26091504Y-27161094D03*
Y-24661098D03*
X26091502Y-25161102D03*
X26091506Y-25661098D03*
G54D1004*
X19736424Y-19292432D03*
X20686382D03*
X21636344D03*
X19736422Y-16892382D03*
X21636340Y-16892386D03*
G54D1007*
X31523040Y26880878D03*
G54D1006*
X32272974Y27631032D03*
G54D1007*
X29022918Y26880880D03*
X29523044Y26880882D03*
X30022916Y26880880D03*
G54D1006*
X28272982Y27631032D03*
G54D1007*
X30523042Y26880880D03*
X31022914Y26880882D03*
X31522912Y30880962D03*
G54D1006*
X32272976Y29130902D03*
Y29631030D03*
X32272974Y30130902D03*
Y28130906D03*
X32272976Y28631032D03*
G54D1007*
X30522908Y30880964D03*
X30022916Y30880960D03*
X29523044Y30880962D03*
X29022916Y30880966D03*
G54D1006*
X28272982Y30130902D03*
Y29631030D03*
Y29130904D03*
Y28631032D03*
Y28130906D03*
G54D1007*
X31022910Y30880962D03*
G54D1010*
X30273106Y28880966D03*
G54D1012*
X6251944Y49357816D03*
X6752072Y49357812D03*
X2752078Y49357810D03*
X3251950Y49357814D03*
X3752078Y49357810D03*
X4251948D03*
X4752072Y49357812D03*
X5251948D03*
X5752074Y49357814D03*
X-247916D03*
X251952Y49357810D03*
X752084Y49357814D03*
X1251954Y49357686D03*
X1752080Y49357812D03*
X2251952Y49357810D03*
X-748044D03*
G54D1011*
X8552002Y53157780D03*
X8552004Y52657780D03*
Y52157782D03*
X8552000Y51657780D03*
X8552004Y51157784D03*
X-2548014Y53157778D03*
Y51157782D03*
X-2548012Y51657782D03*
Y52157782D03*
Y52657778D03*
X8552006Y56657772D03*
X8552002Y56157898D03*
X8552004Y55657774D03*
Y55157774D03*
X8552002Y54657774D03*
X8552006Y54157778D03*
X8552002Y53657778D03*
X-2548010D03*
X-2548014Y54157774D03*
Y54657776D03*
X-2548012Y55157778D03*
Y55657776D03*
Y56157900D03*
X-2548010Y56657770D03*
X8552004Y58657768D03*
X8552006Y58157894D03*
X8552004Y57657768D03*
Y57157896D03*
X-2548012Y57157898D03*
X-2548014Y57657770D03*
X-2548012Y58157900D03*
X-2548014Y58657766D03*
G54D1012*
X6251946Y60457778D03*
X6752070Y60457776D03*
X3251952Y60457866D03*
X5752072Y60457780D03*
X5251948Y60457776D03*
X4752076Y60457778D03*
X4251950D03*
X3752076D03*
X2752076D03*
X2252078Y60457866D03*
X1752080Y60457778D03*
X1251952D03*
X752082Y60457776D03*
X251958Y60457778D03*
X-247916D03*
X-748042Y60457776D03*
G54D1013*
X3002012Y54907772D03*
G54D1016*
X11428428Y76112774D03*
Y75712726D03*
X11428426Y75312802D03*
G54D1017*
X11303370Y74637784D03*
X10903450Y74637782D03*
X10503398Y74637784D03*
X10103474Y74637782D03*
X9703422D03*
X9303374Y74637784D03*
X8903450Y74637708D03*
X8503400Y74637784D03*
G54D1016*
X8378470Y75312802D03*
Y75712726D03*
X8378468Y76112776D03*
G54D1017*
X10103474Y77187716D03*
X10503398D03*
X10903446D03*
X11303368D03*
G54D1016*
X11428428Y76512696D03*
G54D1017*
X8903450Y77187716D03*
X9303374D03*
X9703422D03*
G54D1016*
X8378474Y76512696D03*
G54D1017*
X8503400Y77187714D03*
G54D1073*
X-4505338Y75492760D03*
X-6227458Y76295654D03*
X-5366396Y75894204D03*
X-7157048Y74301860D03*
X-6296038Y73900308D03*
X-5435234Y73498858D03*
G54D1129*
X51442982Y79445768D03*
X52950392Y80602380D03*
X52196704Y80024160D03*
X-648690Y39896340D03*
X-2156096Y38739730D03*
X-1402376Y39318118D03*
X51610988Y82347740D03*
X50857372Y81769432D03*
X50103740Y81191164D03*
X-1988090Y41641698D03*
X-3495338Y40485126D03*
X-2741706Y41063394D03*
G54D1185*
X57555120Y48280594D03*
X56677546Y48644070D03*
X55799722Y49007546D03*
X54957838Y46975036D03*
X56713232Y46248088D03*
X55835538Y46611562D03*
G54D889*
X-35693488Y-32559612D03*
G54D890*
X-34973018Y-30526724D03*
G54D889*
X-35693488Y-35859582D03*
G54D890*
X-38272982Y-30526722D03*
X-59358032Y32250660D03*
X-62658000Y32250658D03*
X-59307232Y34765258D03*
X-62607200Y34765256D03*
X-70366900Y-65417688D03*
X-73667124D03*
G54D889*
X-74766968Y-68467592D03*
Y-71767816D03*
G54D890*
X-104367086Y61380902D03*
X-107667054Y61380904D03*
G54D891*
X-39699956Y-33676196D03*
X-39768282Y-30684202D03*
X-37699960Y-34626284D03*
X-39699958Y-35576244D03*
X-41768280Y-29734116D03*
Y-31634162D03*
X-46825416Y297194D03*
X-46825422Y-1602854D03*
X-48642026Y-9967706D03*
X-46642032Y-9017626D03*
X-46642030Y-10917670D03*
X-48825416Y-652766D03*
G54D892*
X-56293776Y3608464D03*
X-58193696D03*
X-57243734Y1608466D03*
X-72769866Y-50951376D03*
X-71819780Y-52951492D03*
X-73719830D03*
G54D891*
X-85512802Y71848878D03*
Y69948702D03*
X-87512916Y70898792D03*
G54D893*
X-41888928Y-33168254D03*
X-40988882Y-33168250D03*
X-42066728Y-34692252D03*
X-41166680Y-34692254D03*
X-48295700Y-3116566D03*
X-47395780D03*
X-47324656Y-4472928D03*
X-48224578D03*
X-46391968Y-13442684D03*
X-47292014Y-13442682D03*
X-51131734Y-54846208D03*
X-52031656Y-54846202D03*
X-60508022Y5458476D03*
X-59608098Y5458474D03*
X-59623338Y4183394D03*
X-60523252D03*
G54D894*
X-59534874Y28270100D03*
X-63070554Y26899260D03*
X-63070552Y25999340D03*
G54D893*
X-61452900Y28130776D03*
X-60552976Y28130778D03*
X-62234458Y28135856D03*
G54D894*
X-59534874Y29170022D03*
G54D893*
X-59862096Y30411698D03*
X-60762018Y30411696D03*
X-61741698Y30426940D03*
X-62641620Y30426938D03*
X-63134378Y28135858D03*
G54D894*
X-64965394Y32059778D03*
X-63908752Y32095338D03*
X-64965394Y32959700D03*
X-63908754Y32995256D03*
G54D893*
X-68083950Y-69022778D03*
X-67237366Y-69012616D03*
X-66337318Y-69012620D03*
X-70988060Y28430494D03*
X-70088136Y28430498D03*
X-70988060Y29492218D03*
X-70088136D03*
G54D894*
X-69232594Y32776820D03*
X-69232596Y31876898D03*
G54D893*
X-68366782Y31976336D03*
X-67466856Y31976338D03*
G54D894*
X-69232594Y34478620D03*
X-69232592Y33578700D03*
G54D893*
X-72815968Y-56174950D03*
X-68983872Y-69022778D03*
G54D894*
X-70516956Y-69967716D03*
X-70516962Y-69067668D03*
X-71869114Y-73822166D03*
Y-74722088D03*
G54D893*
X-76496176Y-21612846D03*
G54D894*
X-75872154Y-35824782D03*
X-75872156Y-36724830D03*
G54D893*
X-75091938Y-38205214D03*
X-75991860D03*
X-73009138Y-38256014D03*
X-73909062D03*
X-75097268Y-54308488D03*
X-74197346D03*
G54D894*
X-75218428Y-52322208D03*
Y-53222262D03*
X-76440930Y-57483488D03*
Y-56583440D03*
G54D893*
X-73715894Y-56174950D03*
G54D894*
X-76303956Y-73024606D03*
X-76303954Y-73924528D03*
X-73225474Y-73781528D03*
Y-74681448D03*
X-79047154Y-16608158D03*
Y-17508206D03*
X-79057316Y-18323164D03*
X-79057314Y-19223090D03*
G54D893*
X-77396096Y-21612846D03*
G54D894*
X-79107862Y-41035336D03*
X-79107860Y-41935260D03*
X-77584112Y-71867128D03*
X-77584114Y-70967208D03*
X-77599352Y-73924530D03*
X-77599354Y-73024608D03*
G54D893*
X-82367006Y56280906D03*
X-82367010Y55005938D03*
G54D894*
X-81393860Y-41935262D03*
X-81393862Y-41035338D03*
G54D893*
X-85955896Y44798258D03*
X-85055974Y44798254D03*
X-85812388Y49461442D03*
X-84912464Y49461444D03*
X-83267054Y56280904D03*
X-83266928Y55005884D03*
G54D894*
X-86776954Y72704348D03*
Y73604272D03*
X-90650778Y41789628D03*
Y42689672D03*
G54D893*
X-89911058Y44483298D03*
X-89011136Y44483296D03*
G54D894*
X-88016980Y68930924D03*
X-88016982Y69830974D03*
G54D893*
X-94088212Y62187098D03*
X-94988138D03*
G54D894*
X-96991998Y61755934D03*
X-96992002Y62655978D03*
G54D893*
X-105467034Y65180928D03*
X-106366954Y65180926D03*
X-107167054Y65180924D03*
X-105467036Y66480968D03*
X-106366954D03*
X-107167056D03*
X-110142028Y44905954D03*
X-111041952D03*
X-110142034Y46130924D03*
X-111041952Y46130928D03*
X-110142032Y47355968D03*
X-111041952D03*
X-110142032Y48580952D03*
X-111041952Y48580950D03*
X-110142030Y49805938D03*
X-111041952D03*
X-110142030Y51055986D03*
X-111041956Y51055984D03*
X-110142030Y52280914D03*
X-111041952D03*
X-110142032Y53505954D03*
X-111041952Y53505956D03*
X-108066980Y65180926D03*
X-108066976Y66480968D03*
G54D895*
X-48492042Y-5692632D03*
X-48492044Y-7592682D03*
G54D896*
X-49288454Y2303794D03*
X-51188504D03*
G54D895*
X-57452016Y241314D03*
X-57452018Y-1658606D03*
G54D897*
X-54683292Y-1272780D03*
X-51183298D03*
X-51183296Y-6872718D03*
X-54683290Y-6872716D03*
G54D898*
X-50683298Y-56698878D03*
Y-62698870D03*
X-55183288Y-56698874D03*
Y-62698870D03*
G54D899*
X-53329420Y-54846204D03*
X-54429496Y-54846206D03*
G54D900*
X-63055256Y24024816D03*
X-63055258Y25124738D03*
X-63817006Y-56567692D03*
X-63817004Y-57667690D03*
G54D899*
X-67128072Y25738096D03*
X-67138228Y24838938D03*
G54D900*
X-64035698Y25802818D03*
X-64035696Y26902736D03*
G54D899*
X-65067016Y-58984628D03*
X-66167006D03*
X-68248366Y23878818D03*
X-67148390Y23878820D03*
X-68228044Y25738098D03*
G54D900*
X-67479936Y34035056D03*
Y32935136D03*
X-72951094Y-25967726D03*
X-72951096Y-24867654D03*
G54D899*
X-71617014Y-61092702D03*
X-72716988Y-61092704D03*
G54D900*
X-71522218Y-70267690D03*
X-71517012Y-69167692D03*
G54D899*
X-76338112Y-20424128D03*
G54D900*
X-74856094Y-25967726D03*
X-73890896Y-25467756D03*
X-74856094Y-27067698D03*
X-75916928Y-27667698D03*
Y-26567670D03*
G54D899*
X-74288486Y-28717734D03*
X-73188508Y-28717738D03*
G54D900*
X-73890898Y-26567676D03*
G54D899*
X-75906312Y-33810942D03*
X-77006282Y-31728144D03*
X-75906312Y-31728140D03*
X-75906308Y-32769544D03*
X-74567886Y-33861742D03*
X-73467908D03*
X-74542486Y-31702744D03*
X-73467908Y-30686744D03*
X-74567884Y-30686742D03*
X-76803084Y-30483540D03*
X-75703112Y-30483542D03*
X-77006284Y-34826944D03*
X-75906308Y-34826940D03*
G54D900*
X-76440928Y-59713306D03*
X-76440930Y-58613330D03*
G54D899*
X-77438084Y-20424126D03*
G54D900*
X-77017000Y-28167696D03*
X-77017004Y-27067700D03*
X-80250930Y-42035260D03*
Y-40935334D03*
X-77690736Y-75455816D03*
Y-76555790D03*
G54D899*
X-82446966Y-61133218D03*
X-83546884Y-61133214D03*
X-84882672Y42456378D03*
X-85982646D03*
X-85967404Y43650178D03*
X-84867430Y43650176D03*
X-84868346Y48399724D03*
X-85968266D03*
X-85988586Y47409122D03*
X-84888668Y47409124D03*
G54D900*
X-86685516Y79359732D03*
X-86685514Y78259710D03*
X-85882366Y-57934134D03*
X-85882364Y-56834214D03*
X-88557744Y42728716D03*
Y41628642D03*
X-89533106Y41638802D03*
X-89533108Y42738872D03*
G54D899*
X-88956830Y45636458D03*
X-90056804D03*
Y46657536D03*
X-88956832Y46657538D03*
X-90141996Y62255932D03*
X-91241964Y62255930D03*
X-89591984Y63356006D03*
X-90692060D03*
G54D900*
X-88493992Y79343068D03*
X-88493990Y78243152D03*
X-87579596Y78238068D03*
X-87579592Y79337990D03*
X-93287482Y46238690D03*
Y47338720D03*
X-94181562Y46264092D03*
X-94181560Y47364114D03*
X-95055320Y46269172D03*
X-95055322Y47369196D03*
X-94871298Y67359856D03*
Y66259938D03*
X-92168736Y67339540D03*
Y66239620D03*
X-95995120Y46243774D03*
X-95995122Y47343796D03*
G54D899*
X-102791954Y54305986D03*
X-102798714Y55170596D03*
X-101698642Y55170602D03*
G54D903*
X-68517018Y-61817616D03*
Y-63817612D03*
G54D904*
X-67445138Y20607344D03*
X-69445134Y20607342D03*
X-69450214Y22456464D03*
X-67450218Y22456466D03*
G54D907*
X-72595496Y-75486698D03*
X-72195576Y-76491636D03*
X-72995548D03*
G54D908*
X-75450534Y-76698842D03*
Y-75249010D03*
G54D911*
X-76017004Y-45017676D03*
X-76017006Y-49017666D03*
G54D912*
X-68973476Y-23141162D03*
Y-40681132D03*
G54D914*
X-73442586Y-31702740D03*
G54D915*
X-77006334Y-32769544D03*
G54D916*
Y-33811070D03*
G54D918*
X-72217036Y26065054D03*
X-72217038Y27565064D03*
X-72224656Y30281452D03*
Y31781462D03*
G54D919*
X-68238252Y24838936D03*
G54D929*
X-94994360Y64274978D03*
X-92594442D03*
G54D914*
X-101691956Y54305984D03*
G54D932*
X-95103960Y42181422D03*
X-49513628Y76933324D03*
X-97268932Y41717620D03*
X-96260544Y43688784D03*
X-48505186Y78904538D03*
X-50670340Y78440682D03*
G54D933*
X-93561354Y40271550D03*
X-94433850Y39601844D03*
G54D934*
X-45010654Y78290114D03*
X-44341106Y77417524D03*
X-100107066Y42744588D03*
X-100776796Y43617286D03*
G54D933*
X-52874366Y80450126D03*
X-52001874Y81119826D03*
G54D937*
X-99400502Y72122944D03*
X-100811596Y73829186D03*
X-98597604Y73844936D03*
G54D938*
X-98104444Y71712018D03*
G54D939*
X-44315336Y45465870D03*
X-43298986Y45044946D03*
G54D938*
X-97683352Y72728172D03*
X-46273752Y50599692D03*
X-46694838Y49583540D03*
G54D940*
X-104125614Y72573516D03*
X-104941304Y72953800D03*
X-101433210Y77506196D03*
X-102248902Y77886476D03*
G54D941*
X-100490414Y77090544D03*
X-99493462Y76625726D03*
G54D942*
X-43498782Y48603048D03*
X-45710150Y48490542D03*
X-44983030Y50245922D03*
G54D944*
X-41541030Y44001566D03*
X-41196700Y44832948D03*
X-38744792Y50696772D03*
X-39089218Y49865174D03*
G54D994*
X-71691510Y-77829524D03*
X-71041524Y-77829528D03*
X-73641470Y-77829526D03*
X-72991482Y-77829524D03*
X-72341498Y-77829528D03*
G54D996*
X-68516256Y-66584434D03*
X-68516254Y-67534394D03*
X-66316274Y-67534396D03*
X-68516256Y-65634350D03*
X-66316274D03*
X-75122888Y-59568452D03*
X-72922900Y-59568448D03*
X-75122886Y-58618488D03*
Y-57668400D03*
X-72922904D03*
G54D997*
X-77563736Y-15377364D03*
X-75663818Y-15377362D03*
X-76613778Y-15377360D03*
X-77563734Y-13177378D03*
X-75663818Y-13177382D03*
X-76613774Y-13177380D03*
G54D998*
X-84505684Y-59506346D03*
X-83555596Y-59506342D03*
X-82605636Y-59506344D03*
X-82605638Y-56886334D03*
X-83555598Y-56886336D03*
X-84505686Y-56886334D03*
G54D1000*
X-64757474Y-56700532D03*
X-64757478Y-57700532D03*
X-66157488Y-56700536D03*
X-66157490Y-57700534D03*
X-66157488Y-57200408D03*
G54D1002*
X-71198496Y-38161076D03*
X-71198500Y-38661198D03*
X-71198494Y-39161072D03*
X-71198498Y-37161076D03*
X-71198496Y-37661076D03*
X-71198498Y-34161082D03*
X-71198500Y-34661080D03*
X-71198496Y-35161080D03*
Y-35661078D03*
Y-36161078D03*
X-71198494Y-36661078D03*
X-71198500Y-30661090D03*
X-71198498Y-31161088D03*
X-71198494Y-31661086D03*
X-71198496Y-32161088D03*
X-71198498Y-32661086D03*
Y-33161088D03*
X-71198496Y-33661082D03*
Y-30161090D03*
Y-27661094D03*
X-71198498Y-28161094D03*
X-71198496Y-28661092D03*
Y-29161092D03*
Y-29661090D03*
X-71198498Y-26161098D03*
X-71198494Y-26661096D03*
X-71198496Y-27161094D03*
Y-24661098D03*
X-71198498Y-25161102D03*
X-71198494Y-25661098D03*
G54D1004*
X-77553576Y-19292432D03*
X-76603618D03*
X-75653656D03*
X-77553578Y-16892382D03*
X-75653660Y-16892386D03*
G54D1007*
X-65766960Y26880878D03*
G54D1006*
X-65017026Y27631032D03*
G54D1007*
X-68267082Y26880880D03*
X-67766956Y26880882D03*
X-67267084Y26880880D03*
G54D1006*
X-69017018Y27631032D03*
G54D1007*
X-66766958Y26880880D03*
X-66267086Y26880882D03*
X-65767088Y30880962D03*
G54D1006*
X-65017024Y29130902D03*
Y29631030D03*
X-65017026Y30130902D03*
Y28130906D03*
X-65017024Y28631032D03*
G54D1007*
X-66767092Y30880964D03*
X-67267084Y30880960D03*
X-67766956Y30880962D03*
X-68267084Y30880966D03*
G54D1006*
X-69017018Y30130902D03*
Y29631030D03*
Y29130904D03*
Y28631032D03*
Y28130906D03*
G54D1007*
X-66267090Y30880962D03*
G54D1010*
X-67016894Y28880966D03*
G54D1012*
X-91038056Y49357816D03*
X-90537928Y49357812D03*
X-94537922Y49357810D03*
X-94038050Y49357814D03*
X-93537922Y49357810D03*
X-93038052D03*
X-92537928Y49357812D03*
X-92038052D03*
X-91537926Y49357814D03*
X-97537916D03*
X-97038048Y49357810D03*
X-96537916Y49357814D03*
X-96038046Y49357686D03*
X-95537920Y49357812D03*
X-95038048Y49357810D03*
X-98038044D03*
G54D1011*
X-88737998Y53157780D03*
X-88737996Y52657780D03*
Y52157782D03*
X-88738000Y51657780D03*
X-88737996Y51157784D03*
X-99838014Y53157778D03*
Y51157782D03*
X-99838012Y51657782D03*
Y52157782D03*
Y52657778D03*
X-88737994Y56657772D03*
X-88737998Y56157898D03*
X-88737996Y55657774D03*
Y55157774D03*
X-88737998Y54657774D03*
X-88737994Y54157778D03*
X-88737998Y53657778D03*
X-99838010D03*
X-99838014Y54157774D03*
Y54657776D03*
X-99838012Y55157778D03*
Y55657776D03*
Y56157900D03*
X-99838010Y56657770D03*
X-88737996Y58657768D03*
X-88737994Y58157894D03*
X-88737996Y57657768D03*
Y57157896D03*
X-99838012Y57157898D03*
X-99838014Y57657770D03*
X-99838012Y58157900D03*
X-99838014Y58657766D03*
G54D1012*
X-91038054Y60457778D03*
X-90537930Y60457776D03*
X-94038048Y60457866D03*
X-91537928Y60457780D03*
X-92038052Y60457776D03*
X-92537924Y60457778D03*
X-93038050D03*
X-93537924D03*
X-94537924D03*
X-95037922Y60457866D03*
X-95537920Y60457778D03*
X-96038048D03*
X-96537918Y60457776D03*
X-97038042Y60457778D03*
X-97537916D03*
X-98038042Y60457776D03*
G54D1013*
X-94287988Y54907772D03*
G54D1016*
X-85861572Y76112774D03*
Y75712726D03*
X-85861574Y75312802D03*
G54D1017*
X-85986630Y74637784D03*
X-86386550Y74637782D03*
X-86786602Y74637784D03*
X-87186526Y74637782D03*
X-87586578D03*
X-87986626Y74637784D03*
X-88386550Y74637708D03*
X-88786600Y74637784D03*
G54D1016*
X-88911530Y75312802D03*
Y75712726D03*
X-88911532Y76112776D03*
G54D1017*
X-87186526Y77187716D03*
X-86786602D03*
X-86386554D03*
X-85986632D03*
G54D1016*
X-85861572Y76512696D03*
G54D1017*
X-88386550Y77187716D03*
X-87986626D03*
X-87586578D03*
G54D1016*
X-88911526Y76512696D03*
G54D1017*
X-88786600Y77187714D03*
G54D1073*
X-101795338Y75492760D03*
X-103517458Y76295654D03*
X-102656396Y75894204D03*
X-104447048Y74301860D03*
X-103586038Y73900308D03*
X-102725234Y73498858D03*
G54D1129*
X-45847018Y79445768D03*
X-44339608Y80602380D03*
X-45093296Y80024160D03*
X-97938690Y39896340D03*
X-99446096Y38739730D03*
X-98692376Y39318118D03*
X-45679012Y82347740D03*
X-46432628Y81769432D03*
X-47186260Y81191164D03*
X-99278090Y41641698D03*
X-100785338Y40485126D03*
X-100031706Y41063394D03*
G54D1185*
X-39734880Y48280594D03*
X-40612454Y48644070D03*
X-41490278Y49007546D03*
X-42332162Y46975036D03*
X-40576768Y46248088D03*
X-41454462Y46611562D03*
G54D1189*
X73062832Y-72562706D03*
X-120516156D03*
Y-3118344D03*
X73062832Y1881646D03*
Y26881606D03*
X-120516156Y31881594D03*
X73062832Y101325958D03*
X-120516156D03*
G54D1190*
X-258726800Y-170618400D02*
G01X211273200D01*
Y199381600*
X-258726800*
Y-170618400*
G01X-216209100Y-136619750D02*
Y-139901000D01*
Y-136619750D02*
X-214959100Y-139901000D01*
X-213709100Y-136619750D02*
X-214959100Y-139901000D01*
X-213709100Y-136619750D02*
Y-139901000D01*
X-211677850Y-136619750D02*
X-211990350Y-136776000D01*
X-212302850Y-137088500D01*
X-212459100Y-137401000D01*
X-212615350Y-137869750D01*
Y-138651000D01*
X-212459100Y-139119750D01*
X-212302850Y-139432250D01*
X-211990350Y-139744750D01*
X-211677850Y-139901000D01*
X-211052850D01*
X-210740350Y-139744750D01*
X-210427850Y-139432250D01*
X-210271600Y-139119750D01*
X-210115350Y-138651000D01*
Y-137869750D01*
X-210271600Y-137401000D01*
X-210427850Y-137088500D01*
X-210740350Y-136776000D01*
X-211052850Y-136619750D01*
X-211677850D01*
X-209021600D02*
Y-139901000D01*
Y-136619750D02*
X-207927850D01*
X-207459100Y-136776000D01*
X-207146600Y-137088500D01*
X-206990350Y-137401000D01*
X-206834100Y-137869750D01*
Y-138651000D01*
X-206990350Y-139119750D01*
X-207146600Y-139432250D01*
X-207459100Y-139744750D01*
X-207927850Y-139901000D01*
X-209021600D01*
X-205740350Y-136619750D02*
Y-139901000D01*
Y-136619750D02*
X-203709100D01*
X-205740350Y-138182250D02*
X-204490350D01*
X-205740350Y-139901000D02*
X-203709100D01*
X-202771600Y-136619750D02*
Y-139901000D01*
Y-139901000D02*
X-200896600D01*
X-199959100Y-137713500D02*
X-200115350Y-137869750D01*
X-199959100Y-138026000D01*
X-199802850Y-137869750D01*
X-199959100Y-137713500D01*
Y-139588500D02*
X-200115350Y-139744750D01*
X-199959100Y-139901000D01*
X-199802850Y-139744750D01*
X-199959100Y-139588500D01*
X-196365350Y-137401000D02*
X-196521600Y-137088500D01*
X-196834100Y-136776000D01*
X-197146600Y-136619750D01*
X-197771600D01*
X-198084100Y-136776000D01*
X-198396600Y-137088500D01*
X-198552850Y-137401000D01*
X-198709100Y-137869750D01*
Y-138651000D01*
X-198552850Y-139119750D01*
X-198396600Y-139432250D01*
X-198084100Y-139744750D01*
X-197771600Y-139901000D01*
X-197146600D01*
X-196834100Y-139744750D01*
X-196521600Y-139432250D01*
X-196365350Y-139119750D01*
Y-138651000D01*
X-197146600D02*
X-196365350D01*
X-194959100Y-137244750D02*
X-194646600Y-137088500D01*
X-194177850Y-136619750D01*
Y-139901000D01*
X-191834100Y-137244750D02*
X-191521600Y-137088500D01*
X-191052850Y-136619750D01*
Y-139901000D01*
X-188240350Y-136619750D02*
X-188709100Y-136776000D01*
X-189021600Y-137244750D01*
X-189177850Y-138026000D01*
Y-138494750D01*
X-189021600Y-139276000D01*
X-188709100Y-139744750D01*
X-188240350Y-139901000D01*
X-187927850D01*
X-187459100Y-139744750D01*
X-187146600Y-139276000D01*
X-186990350Y-138494750D01*
Y-138026000D01*
X-187146600Y-137244750D01*
X-187459100Y-136776000D01*
X-187927850Y-136619750D01*
X-188240350D01*
X-183865350D02*
X-185427850Y-139901000D01*
X-186052850Y-136619750D02*
X-183865350D01*
X-181052850D02*
X-182615350D01*
X-182771600Y-138026000D01*
X-182615350Y-137869750D01*
X-182146600Y-137713500D01*
X-181677850D01*
X-181209100Y-137869750D01*
X-180896600Y-138182250D01*
X-180740350Y-138651000D01*
Y-138963500D01*
X-180896600Y-139432250D01*
X-181209100Y-139744750D01*
X-181677850Y-139901000D01*
X-182146600D01*
X-182615350Y-139744750D01*
X-182771600Y-139588500D01*
X-182927850Y-139276000D01*
X-179334100Y-137244750D02*
X-179021600Y-137088500D01*
X-178552850Y-136619750D01*
Y-139901000D01*
X-176521600Y-138494750D02*
X-173709100D01*
X-170427850Y-137088500D02*
X-170740350Y-136776000D01*
X-171209100Y-136619750D01*
X-171834100D01*
X-172302850Y-136776000D01*
X-172615350Y-137088500D01*
Y-137401000D01*
X-172459100Y-137713500D01*
X-172302850Y-137869750D01*
X-171990350Y-138026000D01*
X-171052850Y-138338500D01*
X-170740350Y-138494750D01*
X-170584100Y-138651000D01*
X-170427850Y-138963500D01*
Y-139432250D01*
X-170740350Y-139744750D01*
X-171209100Y-139901000D01*
X-171834100D01*
X-172302850Y-139744750D01*
X-172615350Y-139432250D01*
X-169334100Y-138494750D02*
X-166521600D01*
X-165271600Y-136619750D02*
Y-139901000D01*
Y-136619750D02*
X-163865350D01*
X-163396600Y-136776000D01*
X-163240350Y-136932250D01*
X-163084100Y-137244750D01*
Y-137713500D01*
X-163240350Y-138026000D01*
X-163396600Y-138182250D01*
X-163865350Y-138338500D01*
X-165271600D01*
X-160271600Y-136619750D02*
X-161834100D01*
X-161990350Y-138026000D01*
X-161834100Y-137869750D01*
X-161365350Y-137713500D01*
X-160896600D01*
X-160427850Y-137869750D01*
X-160115350Y-138182250D01*
X-159959100Y-138651000D01*
Y-138963500D01*
X-160115350Y-139432250D01*
X-160427850Y-139744750D01*
X-160896600Y-139901000D01*
X-161365350D01*
X-161834100Y-139744750D01*
X-161990350Y-139588500D01*
X-162146600Y-139276000D01*
X-159177850Y-136619750D02*
X-158396600Y-139901000D01*
X-157615350Y-136619750D02*
X-158396600Y-139901000D01*
X-157615350Y-136619750D02*
X-156834100Y-139901000D01*
X-156052850Y-136619750D02*
X-156834100Y-139901000D01*
X-154959100Y-136619750D02*
X-153240350D01*
X-154177850Y-137869750D01*
X-153709100D01*
X-153396600Y-138026000D01*
X-153240350Y-138182250D01*
X-153084100Y-138651000D01*
Y-138963500D01*
X-153240350Y-139432250D01*
X-153552850Y-139744750D01*
X-154021600Y-139901000D01*
X-154490350D01*
X-154959100Y-139744750D01*
X-155115350Y-139588500D01*
X-155271600Y-139276000D01*
X-151365350Y-136619750D02*
X-151834100Y-136776000D01*
X-151990350Y-137088500D01*
Y-137401000D01*
X-151834100Y-137713500D01*
X-151521600Y-137869750D01*
X-150896600Y-138026000D01*
X-150427850Y-138182250D01*
X-150115350Y-138494750D01*
X-149959100Y-138807250D01*
Y-139276000D01*
X-150115350Y-139588500D01*
X-150271600Y-139744750D01*
X-150740350Y-139901000D01*
X-151365350D01*
X-151834100Y-139744750D01*
X-151990350Y-139588500D01*
X-152146600Y-139276000D01*
Y-138807250D01*
X-151990350Y-138494750D01*
X-151677850Y-138182250D01*
X-151209100Y-138026000D01*
X-150584100Y-137869750D01*
X-150271600Y-137713500D01*
X-150115350Y-137401000D01*
Y-137088500D01*
X-150271600Y-136776000D01*
X-150740350Y-136619750D01*
X-151365350D01*
X-146834100D02*
X-148396600Y-139901000D01*
X-149021600Y-136619750D02*
X-146834100D01*
X-144021600D02*
X-145584100D01*
X-145740350Y-138026000D01*
X-145584100Y-137869750D01*
X-145115350Y-137713500D01*
X-144646600D01*
X-144177850Y-137869750D01*
X-143865350Y-138182250D01*
X-143709100Y-138651000D01*
Y-138963500D01*
X-143865350Y-139432250D01*
X-144177850Y-139744750D01*
X-144646600Y-139901000D01*
X-145115350D01*
X-145584100Y-139744750D01*
X-145740350Y-139588500D01*
X-145896600Y-139276000D01*
X-140896600Y-136619750D02*
X-142459100D01*
X-142615350Y-138026000D01*
X-142459100Y-137869750D01*
X-141990350Y-137713500D01*
X-141521600D01*
X-141052850Y-137869750D01*
X-140740350Y-138182250D01*
X-140584100Y-138651000D01*
Y-138963500D01*
X-140740350Y-139432250D01*
X-141052850Y-139744750D01*
X-141521600Y-139901000D01*
X-141990350D01*
X-142459100Y-139744750D01*
X-142615350Y-139588500D01*
X-142771600Y-139276000D01*
X-138709100Y-136619750D02*
X-139959100Y-139901000D01*
X-138709100Y-136619750D02*
X-137459100Y-139901000D01*
X-139490350Y-138807250D02*
X-137927850D01*
X-136677850Y-138494750D02*
X-133865350D01*
X-132927850Y-136619750D02*
X-132146600Y-139901000D01*
X-131365350Y-136619750D02*
X-132146600Y-139901000D01*
X-131365350Y-136619750D02*
X-130584100Y-139901000D01*
X-129802850Y-136619750D02*
X-130584100Y-139901000D01*
X-128709100Y-136619750D02*
X-126990350D01*
X-127927850Y-137869750D01*
X-127459100D01*
X-127146600Y-138026000D01*
X-126990350Y-138182250D01*
X-126834100Y-138651000D01*
Y-138963500D01*
X-126990350Y-139432250D01*
X-127302850Y-139744750D01*
X-127771600Y-139901000D01*
X-128240350D01*
X-128709100Y-139744750D01*
X-128865350Y-139588500D01*
X-129021600Y-139276000D01*
X-125115350Y-136619750D02*
X-125584100Y-136776000D01*
X-125740350Y-137088500D01*
Y-137401000D01*
X-125584100Y-137713500D01*
X-125271600Y-137869750D01*
X-124646600Y-138026000D01*
X-124177850Y-138182250D01*
X-123865350Y-138494750D01*
X-123709100Y-138807250D01*
Y-139276000D01*
X-123865350Y-139588500D01*
X-124021600Y-139744750D01*
X-124490350Y-139901000D01*
X-125115350D01*
X-125584100Y-139744750D01*
X-125740350Y-139588500D01*
X-125896600Y-139276000D01*
Y-138807250D01*
X-125740350Y-138494750D01*
X-125427850Y-138182250D01*
X-124959100Y-138026000D01*
X-124334100Y-137869750D01*
X-124021600Y-137713500D01*
X-123865350Y-137401000D01*
Y-137088500D01*
X-124021600Y-136776000D01*
X-124490350Y-136619750D01*
X-125115350D01*
X-120584100D02*
X-122146600Y-139901000D01*
X-122771600Y-136619750D02*
X-120584100D01*
X-117771600D02*
X-119334100D01*
X-119490350Y-138026000D01*
X-119334100Y-137869750D01*
X-118865350Y-137713500D01*
X-118396600D01*
X-117927850Y-137869750D01*
X-117615350Y-138182250D01*
X-117459100Y-138651000D01*
Y-138963500D01*
X-117615350Y-139432250D01*
X-117927850Y-139744750D01*
X-118396600Y-139901000D01*
X-118865350D01*
X-119334100Y-139744750D01*
X-119490350Y-139588500D01*
X-119646600Y-139276000D01*
X-114646600Y-136619750D02*
X-116209100D01*
X-116365350Y-138026000D01*
X-116209100Y-137869750D01*
X-115740350Y-137713500D01*
X-115271600D01*
X-114802850Y-137869750D01*
X-114490350Y-138182250D01*
X-114334100Y-138651000D01*
Y-138963500D01*
X-114490350Y-139432250D01*
X-114802850Y-139744750D01*
X-115271600Y-139901000D01*
X-115740350D01*
X-116209100Y-139744750D01*
X-116365350Y-139588500D01*
X-116521600Y-139276000D01*
X-112459100Y-136619750D02*
X-113709100Y-139901000D01*
X-112459100Y-136619750D02*
X-111209100Y-139901000D01*
X-113240350Y-138807250D02*
X-111677850D01*
X-108396600Y-137088500D02*
X-108709100Y-136776000D01*
X-109177850Y-136619750D01*
X-109802850D01*
X-110271600Y-136776000D01*
X-110584100Y-137088500D01*
Y-137401000D01*
X-110427850Y-137713500D01*
X-110271600Y-137869750D01*
X-109959100Y-138026000D01*
X-109021600Y-138338500D01*
X-108709100Y-138494750D01*
X-108552850Y-138651000D01*
X-108396600Y-138963500D01*
Y-139432250D01*
X-108709100Y-139744750D01*
X-109177850Y-139901000D01*
X-109802850D01*
X-110271600Y-139744750D01*
X-110584100Y-139432250D01*
X-107302850Y-136619750D02*
Y-139901000D01*
Y-136619750D02*
X-105896600D01*
X-105427850Y-136776000D01*
X-105271600Y-136932250D01*
X-105115350Y-137244750D01*
Y-137713500D01*
X-105271600Y-138026000D01*
X-105427850Y-138182250D01*
X-105896600Y-138338500D01*
X-107302850D01*
X-102146600Y-137088500D02*
X-102302850Y-136776000D01*
X-102771600Y-136619750D01*
X-103084100D01*
X-103552850Y-136776000D01*
X-103865350Y-137244750D01*
X-104021600Y-138026000D01*
Y-138807250D01*
X-103865350Y-139432250D01*
X-103552850Y-139744750D01*
X-103084100Y-139901000D01*
X-102927850D01*
X-102459100Y-139744750D01*
X-102146600Y-139432250D01*
X-101990350Y-138963500D01*
Y-138807250D01*
X-102146600Y-138338500D01*
X-102459100Y-138026000D01*
X-102927850Y-137869750D01*
X-103084100D01*
X-103552850Y-138026000D01*
X-103865350Y-138338500D01*
X-104021600Y-138807250D01*
X-214177850Y-143358500D02*
X-214490350Y-143046000D01*
X-214959100Y-142889750D01*
X-215584100D01*
X-216052850Y-143046000D01*
X-216365350Y-143358500D01*
Y-143671000D01*
X-216209100Y-143983500D01*
X-216052850Y-144139750D01*
X-215740350Y-144296000D01*
X-214802850Y-144608500D01*
X-214490350Y-144764750D01*
X-214334100Y-144921000D01*
X-214177850Y-145233500D01*
Y-145702250D01*
X-214490350Y-146014750D01*
X-214959100Y-146171000D01*
X-215584100D01*
X-216052850Y-146014750D01*
X-216365350Y-145702250D01*
X-213084100Y-142889750D02*
Y-146171000D01*
X-209802850Y-142889750D02*
X-211990350Y-146171000D01*
Y-142889750D02*
X-209802850D01*
X-211990350Y-146171000D02*
X-209802850D01*
X-208709100Y-142889750D02*
Y-146171000D01*
Y-142889750D02*
X-206677850D01*
X-208709100Y-144452250D02*
X-207459100D01*
X-208709100Y-146171000D02*
X-206677850D01*
X-205584100Y-143983500D02*
X-205740350Y-144139750D01*
X-205584100Y-144296000D01*
X-205427850Y-144139750D01*
X-205584100Y-143983500D01*
Y-145858500D02*
X-205740350Y-146014750D01*
X-205584100Y-146171000D01*
X-205427850Y-146014750D01*
X-205584100Y-145858500D01*
X-204021600Y-142889750D02*
X-202302850D01*
X-203240350Y-144139750D01*
X-202771600D01*
X-202459100Y-144296000D01*
X-202302850Y-144452250D01*
X-202146600Y-144921000D01*
Y-145233500D01*
X-202302850Y-145702250D01*
X-202615350Y-146014750D01*
X-203084100Y-146171000D01*
X-203552850D01*
X-204021600Y-146014750D01*
X-204177850Y-145858500D01*
X-204334100Y-145546000D01*
X-199021600Y-142889750D02*
X-200584100Y-146171000D01*
X-201209100Y-142889750D02*
X-199021600D01*
X-197146600D02*
X-197615350Y-143046000D01*
X-197927850Y-143514750D01*
X-198084100Y-144296000D01*
Y-144764750D01*
X-197927850Y-145546000D01*
X-197615350Y-146014750D01*
X-197146600Y-146171000D01*
X-196834100D01*
X-196365350Y-146014750D01*
X-196052850Y-145546000D01*
X-195896600Y-144764750D01*
Y-144296000D01*
X-196052850Y-143514750D01*
X-196365350Y-143046000D01*
X-196834100Y-142889750D01*
X-197146600D01*
X-194177850Y-143827250D02*
Y-145702250D01*
X-194959100Y-144296000D02*
X-193396600Y-145233500D01*
Y-144296000D02*
X-194959100Y-145233500D01*
X-190896600Y-142889750D02*
X-192459100Y-145077250D01*
X-190115350D01*
X-190896600Y-142889750D02*
Y-146171000D01*
X-187146600Y-142889750D02*
X-188709100Y-146171000D01*
X-189334100Y-142889750D02*
X-187146600D01*
X-185271600D02*
X-185740350Y-143046000D01*
X-186052850Y-143514750D01*
X-186209100Y-144296000D01*
Y-144764750D01*
X-186052850Y-145546000D01*
X-185740350Y-146014750D01*
X-185271600Y-146171000D01*
X-184959100D01*
X-184490350Y-146014750D01*
X-184177850Y-145546000D01*
X-184021600Y-144764750D01*
Y-144296000D01*
X-184177850Y-143514750D01*
X-184490350Y-143046000D01*
X-184959100Y-142889750D01*
X-185271600D01*
X-182927850D02*
Y-146171000D01*
Y-142889750D02*
X-181677850Y-146171000D01*
X-180427850Y-142889750D02*
X-181677850Y-146171000D01*
X-180427850Y-142889750D02*
Y-146171000D01*
X-179177850Y-142889750D02*
Y-146171000D01*
Y-142889750D02*
X-177927850Y-146171000D01*
X-176677850Y-142889750D02*
X-177927850Y-146171000D01*
X-176677850Y-142889750D02*
Y-146171000D01*
X-172302850Y-142889750D02*
Y-146171000D01*
X-173396600Y-142889750D02*
X-171209100D01*
X-170271600Y-143983500D02*
X-170427850Y-144139750D01*
X-170271600Y-144296000D01*
X-170115350Y-144139750D01*
X-170271600Y-143983500D01*
Y-145858500D02*
X-170427850Y-146014750D01*
X-170271600Y-146171000D01*
X-170115350Y-146014750D01*
X-170271600Y-145858500D01*
X-168084100Y-142889750D02*
X-168552850Y-143046000D01*
X-168865350Y-143514750D01*
X-169021600Y-144296000D01*
Y-144764750D01*
X-168865350Y-145546000D01*
X-168552850Y-146014750D01*
X-168084100Y-146171000D01*
X-167771600D01*
X-167302850Y-146014750D01*
X-166990350Y-145546000D01*
X-166834100Y-144764750D01*
Y-144296000D01*
X-166990350Y-143514750D01*
X-167302850Y-143046000D01*
X-167771600Y-142889750D01*
X-168084100D01*
X-165584100Y-145858500D02*
X-165740350Y-146014750D01*
X-165584100Y-146171000D01*
X-165427850Y-146014750D01*
X-165584100Y-145858500D01*
X-163865350Y-143514750D02*
X-163552850Y-143358500D01*
X-163084100Y-142889750D01*
Y-146171000D01*
X-161052850Y-143671000D02*
Y-143514750D01*
X-160896600Y-143202250D01*
X-160740350Y-143046000D01*
X-160427850Y-142889750D01*
X-159802850D01*
X-159490350Y-143046000D01*
X-159334100Y-143202250D01*
X-159177850Y-143514750D01*
Y-143827250D01*
X-159334100Y-144139750D01*
X-159646600Y-144608500D01*
X-161209100Y-146171000D01*
X-159021600D01*
X-157927850Y-142889750D02*
Y-146171000D01*
Y-142889750D02*
X-156677850Y-146171000D01*
X-155427850Y-142889750D02*
X-156677850Y-146171000D01*
X-155427850Y-142889750D02*
Y-146171000D01*
X-154177850Y-142889750D02*
Y-146171000D01*
Y-142889750D02*
X-152927850Y-146171000D01*
X-151677850Y-142889750D02*
X-152927850Y-146171000D01*
X-151677850Y-142889750D02*
Y-146171000D01*
X-216209100Y-149159750D02*
Y-152441000D01*
Y-149159750D02*
X-215115350D01*
X-214646600Y-149316000D01*
X-214334100Y-149628500D01*
X-214177850Y-149941000D01*
X-214021600Y-150409750D01*
Y-151191000D01*
X-214177850Y-151659750D01*
X-214334100Y-151972250D01*
X-214646600Y-152284750D01*
X-215115350Y-152441000D01*
X-216209100D01*
X-212146600Y-149159750D02*
X-213396600Y-152441000D01*
X-212146600Y-149159750D02*
X-210896600Y-152441000D01*
X-212927850Y-151347250D02*
X-211365350D01*
X-209490350Y-149159750D02*
Y-152441000D01*
X-210584100Y-149159750D02*
X-208396600D01*
X-207615350D02*
Y-152441000D01*
Y-149159750D02*
X-205584100D01*
X-207615350Y-150722250D02*
X-206365350D01*
X-207615350Y-152441000D02*
X-205584100D01*
X-204490350Y-150253500D02*
X-204646600Y-150409750D01*
X-204490350Y-150566000D01*
X-204334100Y-150409750D01*
X-204490350Y-150253500D01*
Y-152128500D02*
X-204646600Y-152284750D01*
X-204490350Y-152441000D01*
X-204334100Y-152284750D01*
X-204490350Y-152128500D01*
X-203084100Y-149941000D02*
Y-149784750D01*
X-202927850Y-149472250D01*
X-202771600Y-149316000D01*
X-202459100Y-149159750D01*
X-201834100D01*
X-201521600Y-149316000D01*
X-201365350Y-149472250D01*
X-201209100Y-149784750D01*
Y-150097250D01*
X-201365350Y-150409750D01*
X-201677850Y-150878500D01*
X-203240350Y-152441000D01*
X-201052850D01*
X-199177850Y-149159750D02*
X-199646600Y-149316000D01*
X-199959100Y-149784750D01*
X-200115350Y-150566000D01*
Y-151034750D01*
X-199959100Y-151816000D01*
X-199646600Y-152284750D01*
X-199177850Y-152441000D01*
X-198865350D01*
X-198396600Y-152284750D01*
X-198084100Y-151816000D01*
X-197927850Y-151034750D01*
Y-150566000D01*
X-198084100Y-149784750D01*
X-198396600Y-149316000D01*
X-198865350Y-149159750D01*
X-199177850D01*
X-196521600Y-149784750D02*
X-196209100Y-149628500D01*
X-195740350Y-149159750D01*
Y-152441000D01*
X-191677850Y-149159750D02*
X-193240350Y-152441000D01*
X-193865350Y-149159750D02*
X-191677850D01*
X-190584100Y-151034750D02*
X-187771600D01*
X-186209100Y-149784750D02*
X-185896600Y-149628500D01*
X-185427850Y-149159750D01*
Y-152441000D01*
X-183084100Y-149784750D02*
X-182771600Y-149628500D01*
X-182302850Y-149159750D01*
Y-152441000D01*
X-180271600Y-151034750D02*
X-177459100D01*
X-175896600Y-149784750D02*
X-175584100Y-149628500D01*
X-175115350Y-149159750D01*
Y-152441000D01*
X-172302850Y-149159750D02*
X-172771600Y-149316000D01*
X-173084100Y-149784750D01*
X-173240350Y-150566000D01*
Y-151034750D01*
X-173084100Y-151816000D01*
X-172771600Y-152284750D01*
X-172302850Y-152441000D01*
X-171990350D01*
X-171521600Y-152284750D01*
X-171209100Y-151816000D01*
X-171052850Y-151034750D01*
Y-150566000D01*
X-171209100Y-149784750D01*
X-171521600Y-149316000D01*
X-171990350Y-149159750D01*
X-172302850D01*
X-167459100D02*
Y-152441000D01*
Y-149159750D02*
X-166052850D01*
X-165584100Y-149316000D01*
X-165427850Y-149472250D01*
X-165271600Y-149784750D01*
Y-150253500D01*
X-165427850Y-150566000D01*
X-165584100Y-150722250D01*
X-166052850Y-150878500D01*
X-167459100D01*
X-162615350Y-149316000D02*
X-164334100Y-152597250D01*
X-158552850Y-149941000D02*
X-158709100Y-149628500D01*
X-159021600Y-149316000D01*
X-159334100Y-149159750D01*
X-159959100D01*
X-160271600Y-149316000D01*
X-160584100Y-149628500D01*
X-160740350Y-149941000D01*
X-160896600Y-150409750D01*
Y-151191000D01*
X-160740350Y-151659750D01*
X-160584100Y-151972250D01*
X-160271600Y-152284750D01*
X-159959100Y-152441000D01*
X-159334100D01*
X-159021600Y-152284750D01*
X-158709100Y-151972250D01*
X-158552850Y-151659750D01*
X-157302850Y-150253500D02*
X-157459100Y-150409750D01*
X-157302850Y-150566000D01*
X-157146600Y-150409750D01*
X-157302850Y-150253500D01*
Y-152128500D02*
X-157459100Y-152284750D01*
X-157302850Y-152441000D01*
X-157146600Y-152284750D01*
X-157302850Y-152128500D01*
X-155584100Y-149784750D02*
X-155271600Y-149628500D01*
X-154802850Y-149159750D01*
Y-152441000D01*
X-150740350Y-149159750D02*
X-152302850Y-152441000D01*
X-152927850Y-149159750D02*
X-150740350D01*
X-149334100Y-149784750D02*
X-149021600Y-149628500D01*
X-148552850Y-149159750D01*
Y-152441000D01*
X-146209100Y-149784750D02*
X-145896600Y-149628500D01*
X-145427850Y-149159750D01*
Y-152441000D01*
X-143084100Y-149784750D02*
X-142771600Y-149628500D01*
X-142302850Y-149159750D01*
Y-152441000D01*
X-139490350Y-149159750D02*
X-139959100Y-149316000D01*
X-140271600Y-149784750D01*
X-140427850Y-150566000D01*
Y-151034750D01*
X-140271600Y-151816000D01*
X-139959100Y-152284750D01*
X-139490350Y-152441000D01*
X-139177850D01*
X-138709100Y-152284750D01*
X-138396600Y-151816000D01*
X-138240350Y-151034750D01*
Y-150566000D01*
X-138396600Y-149784750D01*
X-138709100Y-149316000D01*
X-139177850Y-149159750D01*
X-139490350D01*
M02*
